<svg width="106" height="106" viewBox="0 0 106 106" fill="none" xmlns="http://www.w3.org/2000/svg">
<path opacity="0.2" d="M35.85 82.2983C24.4466 82.0194 14.8304 73.8983 11.4736 62.7617C16.0463 63.7911 20.3668 65.7249 24.1808 68.4492C30.5793 72.8209 34.975 78.2306 35.85 82.2983Z" fill="url(#paint0_linear_822_17149)"/>
<path opacity="0.2" d="M60.8252 64.6242C60.6502 65.1055 60.4533 65.5758 60.2564 66.0352C60.0596 66.4945 59.8408 66.9648 59.6111 67.4133C58.2803 70.0852 56.5341 72.5291 54.4377 74.6539C52.3856 76.731 50.0059 78.4566 47.394 79.7617C46.5187 80.1902 45.6205 80.5699 44.7033 80.8992C44.5064 80.7133 44.2986 80.5273 44.1018 80.3414C41.3506 77.6307 39.1907 74.3796 37.758 70.793C37.209 69.4538 36.7486 68.08 36.3799 66.6805V66.6695H36.4565C42.9315 66.6695 48.1924 61.0039 48.1924 54.0258C48.1945 51.9914 47.7345 49.983 46.8471 48.1523H46.858C51.7252 49.5086 56.7892 54.5508 59.7424 61.5945C59.7522 61.6327 59.7669 61.6695 59.7861 61.7039C60.1799 62.6686 60.5299 63.653 60.8252 64.6242Z" fill="url(#paint1_linear_822_17149)"/>
<path opacity="0.2" d="M34.4856 8.945L32.3057 39.162L29.2936 39.6313C29.147 39.6544 28.9981 39.6584 28.8506 39.6433V8.85422C29.6359 8.79078 30.4343 8.76562 31.2328 8.76562C32.3189 8.77984 33.4083 8.83125 34.4856 8.945Z" fill="url(#paint2_linear_822_17149)"/>
<path opacity="0.2" d="M23.7549 9.66699V31.0662C22.7421 28.8623 21.6265 26.4418 20.5371 23.9973V10.6306C21.5917 10.2522 22.6659 9.9305 23.7549 9.66699Z" fill="url(#paint3_linear_822_17149)"/>
<path d="M61.551 54.3556C61.4745 63.6338 57.2023 72.7666 49.4016 78.0155C45.8923 80.3217 41.8148 81.6151 37.6178 81.7532C33.4208 81.8914 29.2671 80.869 25.6137 78.7987C19.4022 75.2668 14.7897 69.4784 12.7337 62.6352C12.0874 60.5525 11.6726 58.4049 11.4966 56.2313C11.3986 55.0762 11.3705 53.9161 11.4124 52.7576C11.4321 52.2435 11.4245 50.756 12.0173 50.5274C12.4548 50.3568 13.6699 50.8085 14.1271 50.8862L17.5691 51.4735L20.7891 52.0204C21.4605 52.0545 22.1152 52.2416 22.7032 52.5673C22.9876 52.8063 23.2113 53.1094 23.356 53.4516C23.5007 53.7938 23.5622 54.1654 23.5355 54.536C23.5614 55.5198 23.6815 56.4988 23.8943 57.4596C24.2808 59.1046 24.9833 60.6588 25.9626 62.0359C29.8388 67.4609 37.133 68.5229 42.791 65.2777C45.7491 63.5064 47.9186 60.6719 48.8561 57.3539C49.7935 54.0359 49.428 50.4852 47.8343 47.4277C47.0092 45.8761 45.8732 44.5112 44.4973 43.4181C43.7581 42.8322 42.95 42.3389 42.091 41.9491C41.2302 41.5598 40.2973 41.3684 39.8926 40.407C39.6865 39.7158 39.6785 38.9806 39.8696 38.2851L40.3312 35.0038C40.5718 33.2954 40.8128 31.5866 41.0542 29.8774C41.111 29.4793 41.1635 29.079 41.2248 28.682C41.3341 28.0115 41.4282 27.1507 42.1774 27.1299C43.2466 27.3053 44.2757 27.6709 45.2159 28.2095C46.1742 28.6288 47.1056 29.107 48.0049 29.6412C51.3276 31.6783 54.1916 34.3826 56.4159 37.583C58.6402 40.7835 60.1765 44.4105 60.9276 48.2349C61.3322 50.2484 61.5413 52.2963 61.5521 54.3501C61.5521 54.7635 63.9365 54.4102 63.9299 53.7124C63.9356 49.5981 63.0855 45.5276 61.4336 41.7595C59.7817 37.9913 57.3641 34.608 54.3345 31.8243C52.7355 30.3948 50.9671 29.1668 49.0691 28.1679C47.2954 27.0964 45.3348 26.3709 43.2909 26.0296C42.4939 25.9486 41.6898 26.0845 40.9638 26.423C40.2377 26.7615 39.6167 27.2899 39.1663 27.9524C38.8782 28.7505 38.7158 29.5884 38.6851 30.4363C38.3832 32.5728 38.0821 34.7085 37.7816 36.8435C37.5356 38.5935 36.6715 41.1518 38.591 42.2466C39.3905 42.7027 40.3027 42.9346 41.1066 43.4224C42.0314 43.9887 42.8751 44.6779 43.6146 45.471C45.0106 46.9884 46.0154 48.8236 46.5415 50.8173C47.0896 52.8167 47.1584 54.9173 46.7422 56.9483C46.326 58.9793 45.4366 60.8835 44.1462 62.5062C43.0277 63.9901 41.4802 65.0946 39.7133 65.6699C37.9463 66.2453 36.0452 66.2638 34.2674 65.7229C32.4908 65.1381 30.8762 64.1447 29.5531 62.8226C28.2301 61.5005 27.2356 59.8866 26.6495 58.1104C26.3344 57.1975 26.1191 56.2532 26.0074 55.294C26.0267 54.4568 25.9366 53.6207 25.7394 52.8068C25.5353 52.3613 25.2165 51.978 24.8156 51.696C24.4148 51.4141 23.9462 51.2437 23.4579 51.2023C21.2409 50.7899 19.0096 50.4432 16.786 50.0648C14.7779 49.7224 12.7577 49.1198 10.8174 50.0899C8.96569 51.0163 9.01053 52.7521 9.02475 54.6038C9.03883 57.0735 9.35847 59.532 9.97634 61.9232C10.8921 65.5606 12.5195 68.9806 14.7646 71.9854C17.0096 74.9902 19.8279 77.5204 23.0565 79.4298C26.5372 81.3653 30.4074 82.4966 34.3827 82.7404C38.3579 82.9841 42.3373 82.3343 46.0285 80.8385C50.2799 79.1014 54.0518 76.3684 57.0268 72.8696C60.0018 69.3708 62.0928 65.2086 63.1238 60.7332C63.6495 58.4312 63.9195 56.0781 63.9288 53.7168C63.9321 53.3165 61.5598 53.6501 61.551 54.3556Z" fill="#080F21"/>
<path d="M37.5427 11.2285C36.71 16.7242 35.8562 22.2166 34.9812 27.7058C34.5634 30.3417 34.1426 32.9773 33.719 35.6125C33.5702 36.5367 33.6522 37.5758 32.6252 37.8744C32.162 37.976 31.693 38.0491 31.2208 38.0932C30.5569 38.2535 29.8809 38.3588 29.1996 38.4082C28.1999 38.3896 27.9833 37.275 27.6191 36.4799C26.4871 34.0124 25.331 31.558 24.1968 29.0872C22.8843 26.2303 21.5838 23.368 20.3337 20.4827C19.7124 19.0477 19.1021 17.6083 18.5169 16.158C18.261 15.5236 17.97 14.8871 17.76 14.2363C17.445 13.2727 17.876 13.043 18.7444 12.6536C21.9351 11.2244 25.3484 10.3567 28.8343 10.0888C30.4072 9.97394 31.9864 9.97394 33.5593 10.0888C34.653 10.1664 37.6062 9.99144 37.4968 11.5577C37.3874 13.1239 39.8494 13.1316 39.9577 11.5577C40.2071 7.98003 36.1471 7.8094 33.5593 7.62565C29.8368 7.36043 26.0962 7.7269 22.496 8.70956C20.8627 9.16415 19.2654 9.7396 17.7174 10.4311C16.3305 11.0436 15.1449 11.9514 15.1329 13.626C15.123 15.1386 16.1293 16.7978 16.6947 18.1563C17.4239 19.9136 18.1728 21.6636 18.9413 23.4063C20.4966 26.9413 22.1132 30.4467 23.7429 33.9489C24.375 35.3096 25.0116 36.668 25.6351 38.033C26.1962 39.2613 26.7288 40.401 28.1605 40.7794C29.5922 41.1578 31.4604 40.5607 32.879 40.3135C35.7884 39.8136 35.9043 37.4205 36.2991 34.9705C37.5387 27.2814 38.7444 19.5887 39.9162 11.8924C40.1502 10.3338 37.779 9.6655 37.5427 11.2285Z" fill="#080F21"/>
<path d="M25.6919 43.6469C24.4395 44.9687 23.3878 46.4671 22.5704 48.0941C22.4197 48.3912 22.1775 48.6319 21.8795 48.7808C21.5815 48.9297 21.2436 48.9789 20.9155 48.921L19.7977 48.723L10.888 47.1502C10.6805 47.1134 10.4826 47.0347 10.3065 46.9189C10.1304 46.8031 9.9796 46.6527 9.86346 46.4768C9.74732 46.3009 9.66823 46.1032 9.63095 45.8957C9.59366 45.6883 9.59897 45.4754 9.6466 45.2701C10.24 42.4994 11.4018 39.882 13.0585 37.5833C14.7152 35.2846 16.8309 33.3546 19.2716 31.9154C19.4566 31.8106 19.6611 31.7448 19.8725 31.7219C20.0838 31.6991 20.2977 31.7197 20.5008 31.7825C20.7039 31.8453 20.8921 31.9489 21.0537 32.0871C21.2153 32.2252 21.3469 32.395 21.4405 32.5859L25.6799 41.3293L25.9621 41.9166C26.096 42.1988 26.1419 42.5148 26.0937 42.8234C26.0455 43.1321 25.9055 43.419 25.6919 43.6469Z" fill="#3063BA"/>
<path d="M92.5233 83.6213C91.9655 84.9119 90.5327 85.426 88.553 85.426C85.3116 85.2116 82.1106 84.5869 79.0265 83.5666H78.9827L77.9655 79.7822L69.7187 72.6729C69.5281 72.7901 69.3081 72.8508 69.0843 72.8479C68.7022 72.8104 68.3344 72.6828 68.0111 72.4755C67.6879 72.2683 67.4184 71.9873 67.2249 71.6557C67.0002 71.352 66.8488 71.0005 66.7824 70.6286C66.716 70.2568 66.7364 69.8746 66.8421 69.5119C66.6415 69.2792 66.4552 69.0344 66.2843 68.7791C65.5734 67.7072 66.1312 66.6135 66.2077 65.7494C66.0546 65.1369 65.1577 64.4697 65.2562 63.9885C64.9502 63.9616 64.6538 63.8684 64.3875 63.7154C64.1212 63.5624 63.8914 63.3533 63.714 63.1025C63.6302 62.9853 63.5739 62.8506 63.5493 62.7086C63.5246 62.5666 63.5323 62.4209 63.5718 62.2822L65.3984 56.201L68.5046 53.6416L79.2233 57.3385C80.5789 57.8074 81.8208 58.5561 82.8685 59.5359C83.9161 60.5157 84.7461 61.7048 85.3046 63.026L92.5233 83.6213Z" fill="#080F21"/>
<path d="M69.7418 70.5074C70.8695 71.4458 71.3824 72.6949 70.8826 73.3074C70.3827 73.9199 69.0702 73.6497 67.9426 72.7124C67.4768 72.4107 67.1374 71.9493 66.9882 71.4149C66.8389 70.8805 66.8901 70.31 67.1321 69.8106C67.6265 69.2025 68.6141 69.57 69.7418 70.5074Z" fill="white"/>
<path d="M69.5902 70.1238C70.7179 71.0611 71.2308 72.3113 70.731 72.9238C70.2311 73.5363 68.9186 73.2661 67.791 72.3277C67.3468 71.9728 67.0291 71.4839 66.8854 70.9338C66.7417 70.3836 66.7797 69.8018 66.9936 69.275C67.5504 68.7172 68.4625 69.1864 69.5902 70.1238Z" fill="#080F21"/>
<path d="M69.2991 67.589C70.6673 68.7287 71.2875 70.2621 70.6925 70.9971C70.0975 71.7321 68.4875 71.415 67.1192 70.2753C65.7509 69.1356 65.5355 67.4753 66.1349 66.7403C66.7342 66.0053 67.9308 66.4384 69.2991 67.589Z" fill="white"/>
<path d="M69.1574 67.1201C70.5257 68.2608 71.147 69.7943 70.552 70.5282C69.957 71.2621 68.347 70.9471 66.9787 69.8063C65.6104 68.6655 65.5218 66.6005 66.0162 66.0941C66.6746 65.4105 67.7935 65.9804 69.1574 67.1201Z" fill="#080F21"/>
<path d="M70.2078 67.9191C70.7817 67.2226 70.1876 65.7851 68.8808 64.7085C67.574 63.6318 66.0495 63.3236 65.4756 64.0201C64.9017 64.7166 65.4959 66.1541 66.8026 67.2307C68.1094 68.3074 69.634 68.6156 70.2078 67.9191Z" fill="white"/>
<path d="M70.1619 67.5265C70.7358 66.83 70.1417 65.3926 68.8349 64.3159C67.5281 63.2392 66.0036 62.931 65.4297 63.6275C64.8559 64.324 65.45 65.7615 66.7567 66.8382C68.0635 67.9148 69.5881 68.223 70.1619 67.5265Z" fill="#080F21"/>
<path d="M79.6247 29.162C78.699 24.409 76.2786 20.0762 72.7166 16.796C69.2078 13.704 65.115 12.4626 61.1873 13.2862C57.2597 14.1098 54.0287 16.9229 52.0775 21.1666C50.1586 25.6107 49.7106 30.5517 50.7989 35.2684C51.7234 40.021 54.1427 44.3538 57.7037 47.6343C60.1792 49.9661 63.4261 51.3053 66.8256 51.3968C67.1642 51.3986 67.5027 51.3818 67.8395 51.3465L71.7694 63.323C71.8027 63.5008 71.8708 63.6701 71.9698 63.8214C72.0689 63.9727 72.1968 64.1029 72.3463 64.2045C72.4958 64.3062 72.664 64.3773 72.8411 64.4137C73.0182 64.4501 73.2007 64.4512 73.3783 64.4168C73.5559 64.3832 73.7252 64.3149 73.8765 64.2157C74.0277 64.1165 74.1578 63.9885 74.2594 63.8389C74.3611 63.6893 74.4322 63.5212 74.4686 63.344C74.5051 63.1669 74.5062 62.9844 74.472 62.8068L70.5345 50.7832C72.2868 50.137 73.8861 49.1347 75.2317 47.8396C76.5773 46.5444 77.64 44.9845 78.3526 43.2582C80.2599 38.813 80.7053 33.8768 79.6247 29.162ZM68.6697 48.4699C62.2078 49.8382 55.3916 43.6684 53.4906 34.7105C52.5319 30.5687 52.9149 26.2293 54.5844 22.3195C56.1681 18.8741 58.7155 16.632 61.7681 15.9757C62.3684 15.8497 62.9802 15.7859 63.5936 15.7854C69.4714 15.7854 75.2234 21.614 76.9472 29.7351C78.8415 38.6896 75.1228 47.0896 68.6697 48.4699Z" fill="#3063BA"/>
<path opacity="0.3" d="M68.2591 23.3345C68.8746 23.3345 69.3736 22.8355 69.3736 22.22C69.3736 21.6045 68.8746 21.1055 68.2591 21.1055C67.6435 21.1055 67.1445 21.6045 67.1445 22.22C67.1445 22.8355 67.6435 23.3345 68.2591 23.3345Z" fill="url(#paint4_linear_822_17149)"/>
<path d="M77.4576 64.7394L68.0185 55.2117C67.6627 54.8807 67.2003 54.6878 66.7148 54.6678C66.2292 54.6477 65.7525 54.8018 65.3706 55.1024C64.9777 55.4131 64.7137 55.8582 64.6295 56.352C64.5452 56.8457 64.6468 57.3532 64.9144 57.7766L68.8924 64.7821C69.4884 66.0359 69.8695 67.381 70.0201 68.7611L70.3373 70.4717C71.2746 74.8806 74.3021 76.8056 77.8623 79.3311" fill="#EBECEC"/>
<path d="M77.8615 64.2198L67.9084 54.8693C67.5527 54.5381 67.0903 54.345 66.6047 54.325C66.119 54.3049 65.6422 54.4592 65.2604 54.7599C64.8674 55.0703 64.6033 55.5153 64.5191 56.0089C64.4349 56.5026 64.5365 57.0099 64.8043 57.4331L69.1881 64.351C69.8485 65.3956 70.3039 66.5563 70.5301 67.7712L70.8473 69.4818C71.7665 73.6671 74.2852 77.3273 77.8659 79.681" fill="#080F21"/>
<path d="M64.4834 60.6468C64.679 60.7712 64.8542 60.9251 65.003 61.1029C65.1219 61.2608 65.1885 61.452 65.1933 61.6497C65.1831 61.7302 65.1571 61.8079 65.1167 61.8783L64.6223 62.8627C64.6059 62.9247 64.6018 62.9894 64.6103 63.053C64.6103 63.0661 64.6223 63.1799 64.6355 63.1624C64.7875 62.8583 64.9395 62.5422 65.0916 62.2382C65.206 62.0089 65.2581 61.7536 65.2425 61.4979C65.227 61.2421 65.1444 60.995 65.003 60.7813C64.8514 60.6062 64.6766 60.4528 64.4834 60.3252C64.4834 60.3252 64.4703 60.4641 64.4703 60.4772C64.4583 60.5144 64.4452 60.6161 64.4834 60.6413V60.6468Z" fill="#EBECEC"/>
<path d="M67.6512 55.2622C67.8536 55.4907 68.057 55.7314 68.2594 55.9589C68.3752 56.0755 68.4619 56.2178 68.5124 56.3742C68.563 56.5306 68.576 56.6967 68.5503 56.859C68.5072 57.0669 68.4099 57.2598 68.2683 57.4179C68.1266 57.576 67.9455 57.6938 67.7436 57.7594C67.5416 57.8249 67.3259 57.8359 67.1184 57.7911C66.9108 57.7463 66.7188 57.6473 66.5619 57.5043C66.3333 57.302 66.1058 57.0745 65.8772 56.8711C65.6486 56.6676 65.4091 56.4401 65.1805 56.2246C65.1936 56.2378 65.1422 56.3515 65.1805 56.3767C65.6497 56.8076 66.1058 57.2637 66.587 57.6826C66.7087 57.7878 66.8502 57.8677 67.0031 57.9177C67.156 57.9677 67.3174 57.9867 67.4777 57.9737C67.6381 57.9607 67.7942 57.9158 67.937 57.8418C68.0799 57.7678 68.2065 57.6661 68.3097 57.5426C68.4838 57.3215 68.5857 57.0522 68.6015 56.7713C68.6174 56.4903 68.5464 56.2113 68.3983 55.972C68.2829 55.811 68.1561 55.6586 68.0187 55.5159C67.8919 55.3759 67.7781 55.237 67.6512 55.085C67.6633 55.1232 67.613 55.2239 67.6512 55.2622Z" fill="#EBECEC"/>
<path d="M73.6191 60.2402C74.5816 61.1404 81.8288 66.9941 81.8288 66.9941L73.0361 58.4629L73.6191 60.2402Z" fill="#EBECEC"/>
<path d="M65.2572 63.9802L65.4212 63.9036C65.9172 63.6595 66.3343 63.2804 66.6244 62.8099L67.1559 61.9229L67.3583 62.2903L67.0039 62.8099C66.5909 63.4078 65.9648 63.825 65.2539 63.9758L65.2572 63.9802Z" fill="#EBECEC"/>
<path opacity="0.2" d="M73.5324 34.8075C74.5121 34.4936 74.5482 31.8729 73.613 28.9541C72.6778 26.0352 71.1255 23.9235 70.1459 24.2374C69.1662 24.5512 69.1302 27.1719 70.0654 30.0907C71.0005 33.0096 72.5528 35.1213 73.5324 34.8075Z" fill="url(#paint5_linear_822_17149)"/>
<path d="M96.6582 91.7804C96.6692 91.2532 96.5336 92.0079 96.4395 92.2015C96.2723 92.5242 96.0565 92.8193 95.7997 93.0765C95.2485 93.6128 94.6053 94.0455 93.9009 94.354C92.1717 95.1023 90.3209 95.5303 88.4387 95.6173C85.1247 95.8546 80.4401 95.6391 77.9168 93.1213C77.669 92.8794 77.4573 92.6031 77.2879 92.301C77.0189 91.811 77.0014 90.9021 76.9828 92.3174C76.9631 93.7645 76.9828 93.0415 77.0331 92.6609L77.1917 91.5267L77.9737 85.9343C77.9868 85.8359 78.0514 85.5045 78.0361 85.5395C78.4462 84.5737 79.6417 85.102 80.4489 85.3207C82.2202 85.8272 84.0186 86.2337 85.8356 86.5381C87.8875 86.8574 90.9554 87.2851 92.362 85.3349C92.5807 85.0276 92.5381 84.9674 92.9154 84.9281C93.1657 84.9011 93.4184 84.9486 93.6417 85.0648C93.9389 85.2756 94.1465 85.5901 94.2236 85.9463C94.543 86.7973 94.8087 87.6734 95.0986 88.5352L96.7665 93.4571C96.8179 93.6102 96.9481 92.5887 96.9514 92.5023C97.0105 91.9394 96.9735 91.3706 96.842 90.8201L95.174 85.8982C94.8864 85.0484 94.6108 84.1941 94.3111 83.3487C94.2127 82.9745 93.9797 82.6498 93.6568 82.4367C93.3339 82.2236 92.9438 82.1371 92.5611 82.1937L92.5206 82.2429C91.6456 84.192 89.06 84.1493 87.2586 83.9874C85.7685 83.8329 84.2915 83.5719 82.8387 83.2065C82.0381 83.0173 81.2408 82.8095 80.4467 82.5918C79.7664 82.4059 78.9155 81.9356 78.2975 82.4715C77.5209 83.142 77.5789 85.2868 77.4509 86.2001C77.2321 87.7674 76.9948 89.3348 76.7946 90.9032C76.5095 92.2981 76.6738 93.7474 77.2639 95.0431C77.9946 96.1013 79.0477 96.895 80.2662 97.306C83.5257 98.4881 87.0442 98.7667 90.449 98.1121C92.1499 97.8928 93.7767 97.2818 95.2014 96.3271C95.7871 95.8837 96.2536 95.3018 96.559 94.6337C96.8644 93.9656 96.9993 93.2321 96.9514 92.499C96.9514 92.3185 97.0214 90.8452 96.842 90.8168C96.6506 90.7938 96.6615 91.612 96.6582 91.7804Z" fill="#080F21"/>
<path d="M37.9264 87.4552C37.8326 87.0935 37.6093 86.7788 37.2988 86.5709C36.9882 86.363 36.6122 86.2764 36.2421 86.3275C35.0611 86.4812 33.8632 86.4443 32.6939 86.2181C32.3258 86.1486 31.9448 86.2158 31.6227 86.4071C31.3005 86.5984 31.0591 86.9007 30.9439 87.2572C30.8815 87.462 30.8631 87.6777 30.8898 87.8902C30.9166 88.1026 30.9878 88.307 31.099 88.49C31.2103 88.6729 31.3589 88.8304 31.5351 88.9519C31.7114 89.0735 31.9114 89.1564 32.1219 89.1953C33.6047 89.4754 35.1221 89.5226 36.6194 89.3353C36.8354 89.3124 37.044 89.2433 37.2309 89.1327C37.4178 89.022 37.5787 88.8724 37.7027 88.6941C37.8267 88.5157 37.9109 88.3128 37.9495 88.099C37.9881 87.8852 37.9802 87.6656 37.9264 87.4552Z" fill="#080F21"/>
<path d="M41.6534 88.4064C42.4441 88.4064 43.0851 87.7654 43.0851 86.9747C43.0851 86.184 42.4441 85.543 41.6534 85.543C40.8627 85.543 40.2217 86.184 40.2217 86.9747C40.2217 87.7654 40.8627 88.4064 41.6534 88.4064Z" fill="#080F21"/>
<defs>
<linearGradient id="paint0_linear_822_17149" x1="11.4736" y1="72.53" x2="35.85" y2="72.53" gradientUnits="userSpaceOnUse">
<stop offset="0.005" stop-color="#3063BA"/>
<stop offset="1" stop-color="#A3BFF6"/>
</linearGradient>
<linearGradient id="paint1_linear_822_17149" x1="36.3799" y1="64.5258" x2="60.8252" y2="64.5258" gradientUnits="userSpaceOnUse">
<stop offset="0.005" stop-color="#3063BA"/>
<stop offset="1" stop-color="#A3BFF6"/>
</linearGradient>
<linearGradient id="paint2_linear_822_17149" x1="28.8473" y1="24.2094" x2="34.4856" y2="24.2094" gradientUnits="userSpaceOnUse">
<stop offset="0.005" stop-color="#3063BA"/>
<stop offset="1" stop-color="#A3BFF6"/>
</linearGradient>
<linearGradient id="paint3_linear_822_17149" x1="20.5371" y1="20.3671" x2="23.7549" y2="20.3671" gradientUnits="userSpaceOnUse">
<stop offset="0.005" stop-color="#3063BA"/>
<stop offset="1" stop-color="#A3BFF6"/>
</linearGradient>
<linearGradient id="paint4_linear_822_17149" x1="67.1445" y1="22.22" x2="69.3736" y2="22.22" gradientUnits="userSpaceOnUse">
<stop offset="0.005" stop-color="#3063BA"/>
<stop offset="1" stop-color="#A3BFF6"/>
</linearGradient>
<linearGradient id="paint5_linear_822_17149" x1="69.3864" y1="29.5254" x2="74.2896" y2="29.5254" gradientUnits="userSpaceOnUse">
<stop offset="0.005" stop-color="#3063BA"/>
<stop offset="1" stop-color="#A3BFF6"/>
</linearGradient>
</defs>
</svg>
