<svg width="106" height="106" viewBox="0 0 106 106" fill="none" xmlns="http://www.w3.org/2000/svg">
<path d="M41.3448 77.1051L17.512 86.0714C11.0788 79.035 10.5564 67.137 14.5684 62.0518L45.17 57.0547C37.2222 58.3635 35.6695 75.324 41.3448 77.1004" fill="white"/>
<path d="M41.0262 76.835L20.1691 84.6876L17.1946 85.8072L18.319 85.7632C15.2883 82.2633 13.4301 77.9019 13.0053 73.2917C12.6103 69.5189 12.9839 65.1452 15.3599 62.028L14.4331 62.4468L41.1512 58.0873L45.0358 57.4544L45.3154 56.6667C40.5134 57.5614 38.1219 62.1398 37.3664 66.5991C36.8036 69.9306 36.6466 76.0949 40.6526 77.4786C41.0976 77.6333 42.6562 76.9421 42.0483 76.7327C38.6181 75.5429 38.5979 70.0948 38.9548 67.2143C39.376 63.7639 41.0131 58.2051 45.0394 57.458C45.7771 57.3199 46.5314 56.4728 45.319 56.6703L26.2525 59.7816L16.081 61.4413C15.3867 61.4685 14.7025 61.6154 14.0583 61.8757C12.4092 62.8882 11.7227 66.1447 11.4336 67.8651C10.9048 71.1509 11.1032 74.5126 12.0147 77.7133C12.9262 80.9141 14.5287 83.876 16.7092 86.3903C16.934 86.6425 17.6003 86.4355 17.8335 86.3474L38.6907 78.4947L41.6651 77.3751C42.8014 76.948 41.7472 76.5637 41.0286 76.8338L41.0262 76.835Z" fill="#080F21"/>
<path d="M37.8053 72.3242L19.3408 78.6051C19.3408 80.1031 21.0934 83.651 22.3343 84.2578L40.9106 76.9942C39.371 76.6455 38.4513 74.8823 37.8053 72.3242Z" fill="#080F21"/>
<path d="M48.8426 68.5007C50.2465 62.9908 48.8145 57.8692 45.644 57.0614C42.4736 56.2536 38.7653 60.0653 37.3614 65.5752C35.9575 71.0851 37.3895 76.2066 40.5599 77.0145C43.7303 77.8223 47.4386 74.0106 48.8426 68.5007Z" fill="#3A1E44"/>
<path d="M49.3552 68.5055C50.7591 62.9956 49.3272 57.8741 46.1567 57.0663C42.9863 56.2584 39.278 60.0702 37.8741 65.5801C36.4702 71.09 37.9022 76.2115 41.0726 77.0194C44.243 77.8272 47.9512 74.0154 49.3552 68.5055Z" fill="white"/>
<path d="M38.3059 65.5245C39.0995 62.531 40.7902 58.6998 43.8979 57.4589C47.0211 56.2096 48.8546 59.6826 49.2865 62.2181C49.8405 65.9751 49.0568 69.8074 47.0723 73.0453C45.7052 75.2749 42.7355 78.3291 40.0418 76.1078C37.147 73.7198 37.523 68.7465 38.3094 65.5293C38.388 65.2116 37.5206 65.3401 37.448 65.6363C36.6318 68.9749 36.2737 74.2029 39.404 76.5742C41.8479 78.4243 44.9009 76.7455 46.638 74.7597C48.0279 73.074 49.0627 71.1247 49.6804 69.029C50.298 66.9333 50.4858 64.7344 50.2324 62.5643C49.8754 59.6755 48.1931 56.2584 44.7665 56.7676C40.6902 57.3625 38.3796 62.1217 37.448 65.6363C37.3612 65.9481 38.2333 65.8196 38.3059 65.5245Z" fill="#080F21"/>
<path d="M48.24 68.2241C49.3019 64.0565 48.2497 60.1906 45.8899 59.5893C43.5301 58.988 40.7562 61.8791 39.6943 66.0467C38.6323 70.2143 39.6845 74.0802 42.0443 74.6815C44.4042 75.2828 47.178 72.3917 48.24 68.2241Z" fill="#080F21"/>
<path d="M49.4987 64.5613C49.1384 64.8281 48.7463 65.0491 48.3315 65.2192C47.8924 65.3913 47.4336 65.508 46.9656 65.5666C45.9615 66.262 45.0405 67.0705 44.2208 67.976C43.412 68.885 42.7002 69.8759 42.097 70.9326C41.6382 70.6101 41.2673 70.1781 41.0181 69.6757C40.7689 69.1733 40.6494 68.6165 40.6703 68.0561C40.6912 67.4957 40.852 66.9495 41.138 66.4671C41.4239 65.9847 41.826 65.5815 42.3076 65.2941L45.388 63.6796C46.0725 63.3427 46.8505 63.2465 47.5965 63.4065C48.3424 63.5664 49.0126 63.9733 49.4987 64.5613Z" fill="white"/>
<path d="M43.5458 69.6404C44.4513 69.6404 45.1853 68.9063 45.1853 68.0009C45.1853 67.0954 44.4513 66.3613 43.5458 66.3613C42.6403 66.3613 41.9062 67.0954 41.9062 68.0009C41.9062 68.9063 42.6403 69.6404 43.5458 69.6404Z" fill="#080F21"/>
<path d="M34.4656 58.6984C30.7154 61.3953 28.7696 65.6139 28.6285 71.3542L10.2235 77.1914L9.36565 76.6822C8.5245 73.6469 8.4836 70.4455 9.24693 67.3897C10.0103 64.3338 11.5518 61.5277 13.7215 59.2445L33.8172 57.4313C33.9404 57.4184 34.0637 57.4541 34.161 57.5308C34.2583 57.6074 34.3219 57.7189 34.3383 57.8417L34.4656 58.6984Z" fill="#080F21"/>
<path d="M72.744 85.6378L71.9361 85.6628C71.1803 85.6635 70.4546 85.3669 69.9157 84.8371C69.3767 84.3073 69.0678 83.5867 69.0556 82.8311L68.9688 80.7441L72.8951 80.7573L72.744 85.6378Z" fill="#898D94"/>
<path d="M82.8481 84.5951C80.0468 85.322 77.1597 85.6646 74.2661 85.6136C72.8252 85.3031 71.7937 83.7884 72.2041 81.366C72.2677 80.9086 72.486 80.4867 72.8225 80.1705C73.1591 79.8543 73.5938 79.6627 74.0543 79.6277C76.768 79.3948 79.4952 79.3614 82.2139 79.5278L82.8481 84.5951Z" fill="#DDDEDF"/>
<path d="M87.1012 83.3776C86.8026 83.5644 86.492 83.7346 86.1815 83.9119C86.0155 84.0053 85.8252 84.0467 85.6354 84.0308C85.5164 83.9939 85.3867 83.957 85.263 83.932C84.9773 83.8679 84.682 83.8594 84.3932 83.9071L84.2564 83.932C83.8773 83.9791 83.5241 84.1492 83.251 84.4163C83.2036 84.4729 83.1447 84.5189 83.0783 84.5511C83.0118 84.5833 82.9393 84.601 82.8655 84.6031C82.2706 84.59 81.6365 83.4478 81.4627 82.0439C81.289 80.6399 81.6365 79.5226 82.2325 79.5357C82.349 79.5386 82.4617 79.5777 82.555 79.6476C82.8141 79.7777 83.1071 79.8247 83.3939 79.7821C83.6808 79.7395 83.9475 79.6095 84.1576 79.4097C84.1945 79.3728 84.1196 80.0438 84.1826 80.0438L84.4432 80.0307C84.8178 80.0104 85.181 79.895 85.4985 79.6952C85.5835 79.641 85.6835 79.6152 85.7841 79.6214C86.379 79.6333 87.0013 80.6922 87.1631 81.9927C87.2145 82.4547 87.1937 82.922 87.1012 83.3776Z" fill="#080F21"/>
<path d="M92.0093 79.3547C90.6722 81.0231 89.0014 82.3936 87.1038 83.3786C86.8052 83.5654 86.4946 83.7356 86.1841 83.9129C86.018 84.0063 85.8278 84.0477 85.638 84.0318C85.5085 84.024 85.3819 83.9904 85.2656 83.933C85.0941 83.8428 84.9486 83.7101 84.8432 83.5476C84.4042 82.8972 84.1235 82.1532 84.0234 81.375C83.9675 80.9338 83.9675 80.4872 84.0234 80.046C84.0204 80.0165 84.0245 79.9868 84.0353 79.9592C84.1135 79.385 84.3598 78.8468 84.7432 78.4124C85.2865 77.8685 85.9009 77.4007 86.5696 77.0216C87.0907 76.6979 87.588 76.4266 87.9355 76.1887C88.0517 76.109 88.1883 76.0644 88.3292 76.0599C88.47 76.0555 88.6092 76.0915 88.7302 76.1637L92.0343 78.2875L92.1331 78.5361C92.1826 78.672 92.1973 78.8182 92.1756 78.9612C92.154 79.1042 92.0968 79.2396 92.0093 79.3547Z" fill="white"/>
<path d="M91.6065 79.3499C90.5072 80.7309 89.1574 81.8922 87.6278 82.7729C87.2577 83.0026 86.8877 83.2334 86.5117 83.4535C86.3154 83.5725 86.0168 83.8105 85.7741 83.7914C85.4992 83.7688 85.2982 83.4773 85.1661 83.2691C84.6399 82.4242 84.3773 81.4416 84.4118 80.4469C84.4134 79.9716 84.5222 79.5028 84.73 79.0754C84.9379 78.6479 85.2394 78.2729 85.6123 77.9781C86.3797 77.4137 87.1811 76.8971 88.0121 76.4313C88.1917 76.3123 88.25 76.2993 88.4368 76.404C88.5558 76.473 88.6748 76.5563 88.7938 76.6312L90.005 77.4093L91.3733 78.2886C91.4791 78.345 91.5801 78.4098 91.6755 78.4825C91.729 78.5325 91.5838 78.3636 91.6148 78.4314C91.6457 78.4992 91.6707 78.5622 91.6933 78.6277C91.7394 78.7465 91.7561 78.8747 91.7418 79.0013C91.7275 79.1279 91.6827 79.2492 91.6112 79.3547C91.4042 79.6783 92.2632 79.5926 92.4108 79.3618C92.4897 79.2614 92.548 79.1464 92.5823 79.0233C92.6166 78.9003 92.6261 78.7716 92.6104 78.6448C92.5947 78.518 92.554 78.3957 92.4908 78.2847C92.4275 78.1737 92.3429 78.0764 92.2418 77.9983L90.8973 77.1345L89.3922 76.1625C89.1967 76.0064 88.965 75.9023 88.7186 75.8596C88.4721 75.817 88.2189 75.8373 87.9823 75.9185C87.5276 76.1254 87.094 76.376 86.6878 76.6669C86.1741 76.9655 85.6762 77.2904 85.1958 77.6402C84.7517 77.9326 84.3766 78.3182 84.0965 78.7702C83.8165 79.2223 83.6382 79.7298 83.5741 80.2577C83.4608 81.3619 83.7026 82.4735 84.2642 83.4309C84.3557 83.6315 84.4914 83.8089 84.6612 83.9497C84.831 84.0904 85.0305 84.1909 85.2446 84.2436C85.8149 84.3021 86.3864 84.1455 86.8473 83.8045C88.985 82.7164 90.8775 81.2025 92.4084 79.3558C92.5274 79.1916 92.3025 79.1179 92.1787 79.1179C92.0722 79.1124 91.9657 79.1304 91.8669 79.1704C91.768 79.2105 91.6791 79.2718 91.6065 79.3499Z" fill="#080F21"/>
<path d="M93.9298 76.2124C93.8677 76.2731 93.7962 76.3233 93.718 76.3611C93.1995 76.5658 92.7573 76.9262 92.4521 77.3927L92.389 77.5045C92.1819 77.8078 92.0735 78.1677 92.0785 78.5349C92.0899 78.6058 92.0852 78.6784 92.0646 78.7472C92.044 78.8161 92.008 78.8793 91.9595 78.9323C91.574 79.3547 90.4568 79.081 89.4514 78.3112C88.446 77.5414 87.9356 76.5848 88.3211 76.1624C88.3958 76.0853 88.4899 76.0298 88.5936 76.0018C89.0997 75.8313 89.5417 75.5105 89.8607 75.0821L90.0094 74.8834C90.2296 74.5953 90.3788 74.2595 90.4449 73.903C90.4586 73.8062 90.4999 73.7153 90.5639 73.6413C90.9494 73.2189 92.0047 73.4556 92.9435 74.1636C93.8679 74.8727 94.3141 75.79 93.9298 76.2124Z" fill="#080F21"/>
<path d="M95.6326 73.1561C95.3946 73.8891 95.1566 74.5839 94.9115 75.2062C94.1548 77.0932 92.1429 78.0998 90.8877 77.205C90.4413 76.8843 90.041 76.504 89.6979 76.0747C89.5431 75.8239 89.4581 75.5363 89.4516 75.2416C89.4451 74.9469 89.5174 74.6557 89.661 74.3983C89.9447 73.7652 90.3169 73.1755 90.7663 72.6469L91.9085 71.306C92.2041 70.8974 92.6099 70.5812 93.0784 70.3944C93.5469 70.2075 94.0589 70.1577 94.5546 70.2507C94.8197 70.3665 95.0587 70.5345 95.2574 70.7447C95.4561 70.955 95.6103 71.2031 95.7109 71.4744C95.8116 71.7456 95.8565 72.0343 95.843 72.3233C95.8295 72.6122 95.758 72.8955 95.6326 73.1561Z" fill="white"/>
<path d="M95.2033 73.2069C94.769 74.5525 94.3919 76.1338 93.1176 76.9441C92.9189 77.087 92.6924 77.1864 92.4528 77.236C92.2132 77.2856 91.9658 77.2842 91.7267 77.2319C91.0818 76.9708 90.5287 76.5246 90.1372 75.9494C89.5994 75.2534 90.0467 74.3562 90.4287 73.7018C90.6948 73.2611 90.9998 72.845 91.34 72.4585C91.8433 71.6974 92.5048 71.0538 93.2794 70.5715C93.5666 70.4334 93.8929 70.3995 94.2024 70.4754C94.5119 70.5514 94.7854 70.7325 94.9761 70.9879C95.1832 71.3149 95.3116 71.6856 95.351 72.0707C95.3905 72.4557 95.3399 72.8447 95.2033 73.2069C95.1105 73.521 95.9779 73.4032 96.0671 73.1034C96.2002 72.7252 96.2517 72.3231 96.218 71.9236C96.1844 71.5241 96.0664 71.1363 95.872 70.7857C95.6662 70.4859 95.3825 70.248 95.0513 70.0979C94.7202 69.9477 94.3543 69.891 93.9933 69.9338C93.1231 70.0174 92.3135 70.4165 91.7172 71.0557C91.4186 71.3675 91.1497 71.7113 90.8701 72.0385C90.5053 72.4423 90.1648 72.8674 89.8504 73.3116C89.3745 74.0326 88.757 75.0534 89.1282 75.9422C89.329 76.3298 89.6101 76.6701 89.9527 76.9405C90.2231 77.2092 90.5353 77.4323 90.8772 77.6009C91.5226 77.8472 92.2369 77.8434 92.8796 77.5901C93.6727 77.3001 94.3579 76.774 94.8428 76.0827C95.3985 75.1585 95.8113 74.1557 96.0671 73.1082C96.1659 72.7988 95.2997 72.9106 95.2033 73.2069Z" fill="#080F21"/>
<path d="M70.1884 89.3744L69.3817 89.3125C68.6302 89.2334 67.9398 88.8624 67.459 88.2794C66.9782 87.6965 66.7453 86.9481 66.8106 86.1953L66.9474 84.1084L70.8476 84.5308L70.1884 89.3744Z" fill="#080F21"/>
<path d="M78.8353 89.2515C75.9718 89.6758 73.0644 89.7159 70.1903 89.3705C68.7994 88.9112 67.9178 87.2967 68.5757 84.9242C68.686 84.475 68.9469 84.0771 69.315 83.797C69.683 83.5168 70.136 83.3713 70.5984 83.3846C73.3209 83.4372 76.0358 83.6901 78.7211 84.1413L78.8353 89.2515Z" fill="#080F21"/>
<path d="M80.3507 89.3999C77.4877 89.8249 74.5806 89.8649 71.7069 89.5189C70.316 89.0597 69.4344 87.4451 70.0923 85.0727C70.2026 84.6235 70.4635 84.2256 70.8316 83.9454C71.1996 83.6652 71.6526 83.5197 72.115 83.5331C74.8375 83.5852 77.5525 83.8386 80.2377 84.291L80.3507 89.3999Z" fill="white"/>
<path d="M80.4283 89.237C79.0118 89.4627 77.5795 89.5749 76.145 89.5725C75.4859 89.5725 74.8279 89.5543 74.1712 89.5178C73.429 89.5404 72.6868 89.4737 71.9605 89.3191C70.1044 88.7242 69.8653 85.7497 70.8148 84.3565C70.9697 84.1121 71.188 83.9143 71.4465 83.7842C71.7712 83.701 72.11 83.6884 72.44 83.7473C73.1539 83.7838 73.8678 83.8234 74.5816 83.8662C75.7572 83.94 76.9327 84.0221 78.1023 84.159C78.5389 84.2101 78.9744 84.2708 79.411 84.3541C79.6585 84.4017 79.768 84.3422 79.8227 84.5338C79.8888 85.0236 79.8996 85.5193 79.8548 86.0115L79.9322 89.5131C79.9322 89.6618 80.7995 89.5309 80.7936 89.2822L80.6817 84.178C80.6749 84.1628 80.6642 84.1496 80.6506 84.14C80.637 84.1304 80.621 84.1246 80.6044 84.1232C79.0796 83.8027 77.5298 83.6152 75.9725 83.5629C74.9184 83.4903 73.863 83.432 72.8088 83.3773C72.0559 83.2883 71.2946 83.4506 70.6434 83.8389C70.0798 84.3446 69.6828 85.0094 69.505 85.7455C69.3272 86.4816 69.3769 87.2543 69.6476 87.9615C69.8374 88.5292 70.2044 89.0209 70.6946 89.3643C71.4166 89.7276 72.2224 89.8918 73.029 89.8402C75.4508 90.026 77.886 89.9334 80.2867 89.5642C80.6187 89.5047 81.0351 89.1383 80.4283 89.237Z" fill="#080F21"/>
<path d="M84.7041 88.6309C84.3817 88.7796 84.0581 88.9283 83.7356 89.0652C83.5594 89.1406 83.3648 89.1621 83.1764 89.127C83.0574 89.0771 82.9385 89.0283 82.8195 88.9902C82.5398 88.8975 82.2449 88.8595 81.9509 88.8784L81.8141 88.8914C81.4317 88.9003 81.062 89.0307 80.7588 89.2638C80.706 89.3175 80.6413 89.3578 80.57 89.3816C80.4986 89.4054 80.4226 89.4119 80.3483 89.4007C79.7534 89.3257 79.256 88.1216 79.218 86.7177C79.1799 85.3137 79.6534 84.2334 80.2495 84.3084C80.3483 84.3203 80.4351 84.4083 80.5601 84.4452C81.1002 84.6199 81.687 84.5798 82.1984 84.3333C82.2484 84.3084 82.0878 85.0044 82.1365 85.0044L82.3971 85.0163C82.7713 85.0428 83.1456 84.9654 83.4786 84.7926C83.5658 84.7452 83.6661 84.7277 83.7642 84.7426C84.3591 84.8176 84.8564 85.9324 84.8814 87.2412C84.9061 87.7113 84.846 88.182 84.7041 88.6309Z" fill="#080F21"/>
<path d="M90.0097 85.1417C88.5037 86.661 86.6977 87.8499 84.7068 88.6326C84.3844 88.7813 84.0608 88.93 83.7383 89.0669C83.5621 89.1423 83.3675 89.1638 83.1791 89.1287C83.054 89.1011 82.9337 89.055 82.8222 88.9919C82.6638 88.8855 82.5355 88.74 82.4498 88.5696C81.8749 87.4748 81.716 86.209 82.0024 85.0061C82.0052 84.9755 82.0136 84.9456 82.0274 84.918C82.1642 84.3501 82.467 83.8357 82.8971 83.4403C83.9585 82.6911 85.0997 82.0623 86.3 81.5652C86.4222 81.4978 86.5615 81.4678 86.7007 81.4788C86.8398 81.4898 86.9727 81.5414 87.0828 81.6271L90.1382 84.0864L90.212 84.335C90.2474 84.4758 90.2474 84.6231 90.2121 84.7638C90.1768 84.9045 90.1073 85.0343 90.0097 85.1417Z" fill="white"/>
<path d="M89.65 85.0315C88.3884 86.3058 86.8971 87.33 85.2549 88.05C84.8277 88.257 84.3982 88.4605 83.9651 88.6544C83.6938 88.7734 83.4368 88.9305 83.1501 88.7556C82.9378 88.5839 82.7823 88.3521 82.7039 88.0905C82.3305 87.2201 82.2113 86.2619 82.3601 85.3266C82.4238 84.8707 82.5899 84.4352 82.8458 84.0525C83.1017 83.6699 83.4408 83.3501 83.8378 83.1171C84.5428 82.7088 85.2723 82.3444 86.0223 82.0261C86.2769 81.9071 86.4792 81.7167 86.7469 81.869C86.8371 81.9312 86.9226 82 87.0027 82.0749L88.108 82.9648L89.431 84.0285C89.5417 84.1189 89.6619 84.2034 89.7678 84.2998C89.7749 84.3069 89.7844 84.3117 89.7904 84.3188C89.6202 84.1368 89.7452 84.2701 89.7475 84.3617C89.7559 84.6234 89.8368 84.79 89.65 85.0315C89.3228 85.4563 90.1414 85.5384 90.3638 85.2516C90.5561 85.0521 90.6636 84.7857 90.6636 84.5086C90.6636 84.2315 90.5561 83.9651 90.3638 83.7655C89.9438 83.4241 89.5203 83.0874 89.0991 82.7483L87.6951 81.618C87.5012 81.4179 87.2511 81.2813 86.9779 81.2263C86.7048 81.1713 86.4213 81.2005 86.1651 81.3098C85.3048 81.6802 84.4638 82.0936 83.6451 82.5484C83.1739 82.7755 82.7526 83.0938 82.4054 83.4849C82.0582 83.8761 81.792 84.3322 81.6224 84.8269C81.3164 85.8948 81.3581 87.0323 81.7414 88.075C81.8565 88.5506 82.1375 88.9695 82.5338 89.2565C82.7709 89.3723 83.0319 89.4308 83.2957 89.4275C83.5596 89.4242 83.819 89.3591 84.0532 89.2374C86.4112 88.3654 88.5596 87.0074 90.3591 85.2516C90.7244 84.8661 89.8939 84.771 89.65 85.0315Z" fill="#080F21"/>
<path d="M92.2495 82.2239C92.1838 82.2876 92.1012 82.331 92.0115 82.3489C91.4763 82.4952 90.9993 82.803 90.6456 83.2305L90.5707 83.3293C90.3358 83.612 90.1889 83.9574 90.1483 84.3228C90.145 84.4671 90.0872 84.6048 89.9865 84.7082C89.5641 85.0937 88.4719 84.6964 87.5522 83.8266C86.6325 82.9569 86.2244 81.9515 86.6456 81.566C86.7289 81.499 86.8267 81.4522 86.9311 81.4292C87.4508 81.3107 87.9226 81.0383 88.2851 80.6475L88.4588 80.4606C88.7143 80.2066 88.8985 79.8899 88.993 79.5422C89.0149 79.4483 89.0677 79.3644 89.1429 79.3042C89.5641 78.9199 90.5957 79.2673 91.4523 80.0739C92.309 80.8806 92.6659 81.8396 92.2495 82.2239Z" fill="#080F21"/>
<path d="M94.2541 78.5837C94.0161 79.3166 93.7781 80.0114 93.5342 80.6325C92.7763 82.5207 90.7644 83.5261 89.5103 82.6326C89.0635 82.3125 88.6631 81.9321 88.3205 81.5023C88.1656 81.2515 88.0804 80.9639 88.0737 80.6692C88.067 80.3745 88.1391 80.0834 88.2825 79.8258C88.5661 79.1926 88.9383 78.603 89.3878 78.0745L90.5312 76.7336C90.8267 76.325 91.2322 76.0088 91.7004 75.8217C92.1687 75.6347 92.6804 75.5845 93.1761 75.677C94.2172 75.9757 94.6764 77.2297 94.2541 78.5837Z" fill="white"/>
<path d="M93.8392 78.5308C93.4061 79.8717 93.0385 81.4316 91.7904 82.2585C91.3822 82.5566 90.8741 82.6846 90.3733 82.6154C89.7489 82.3992 89.208 81.9926 88.8266 81.453C88.2448 80.7712 88.6089 79.9634 88.9956 79.2769C89.2608 78.8242 89.5692 78.3982 89.9165 78.0049C90.4187 77.2549 91.066 76.6129 91.8201 76.1168C92.0934 75.9595 92.4116 75.8987 92.7236 75.944C93.0356 75.9893 93.3233 76.1382 93.5406 76.3666C93.7621 76.6764 93.9047 77.0356 93.9559 77.4129C94.0072 77.7903 93.9655 78.1745 93.8345 78.5321C93.6929 79.008 94.5483 79.0079 94.6602 78.6367C94.7984 78.2524 94.8575 77.8441 94.8337 77.4364C94.81 77.0287 94.704 76.63 94.5222 76.2643C94.3327 75.9488 94.0607 75.691 93.7355 75.5187C93.4103 75.3463 93.0443 75.266 92.6768 75.2863C92.0318 75.378 91.4149 75.6105 90.8698 75.9672C90.3248 76.324 89.8648 76.7962 89.5226 77.3506C89.1586 77.7547 88.8186 78.1798 88.5042 78.6237C88.1856 78.9813 87.9492 79.4044 87.8114 79.8632C87.6737 80.322 87.6381 80.8053 87.707 81.2793C87.8786 81.6813 88.1457 82.0354 88.4851 82.3108C88.7682 82.6026 89.093 82.8508 89.4489 83.0473C90.0631 83.3309 90.764 83.3625 91.4013 83.1354C92.2141 82.858 92.9185 82.3314 93.4145 81.6303C93.9796 80.7017 94.3997 79.6922 94.6602 78.6367C94.8184 78.1584 93.9594 78.1596 93.8392 78.5308Z" fill="#080F21"/>
<path d="M69.0015 87.8472L68.2805 88.0851C67.9559 88.1896 67.614 88.2292 67.2742 88.2015C66.9344 88.1738 66.6034 88.0794 66.3001 87.9237C65.9968 87.768 65.7271 87.554 65.5065 87.2941C65.2859 87.0341 65.1187 86.7333 65.0145 86.4087L64.4434 84.6454L67.983 83.627L69.0015 87.8472Z" fill="#080F21"/>
<path d="M77.7981 79.5115L77.302 79.672L71.353 81.5758L66.4844 83.1225L66.1988 84.5264C66.1097 84.9655 65.9196 85.3778 65.6435 85.7307C65.3675 86.0836 65.013 86.3674 64.6083 86.5596C64.2036 86.7518 63.7596 86.8472 63.3117 86.8381C62.8637 86.8291 62.424 86.7159 62.0274 86.5075L56.6007 83.6519L44.9752 77.5412C43.8547 76.9468 42.9476 76.0176 42.3803 74.8831C41.8612 73.8308 41.6607 72.6498 41.8036 71.4851C41.9465 70.3205 42.4265 69.223 43.1846 68.3274L44.4398 66.8365C44.8226 66.3874 45.3414 66.0753 45.9175 65.9478C46.2976 65.8722 46.6548 65.7092 46.961 65.4718L47.7427 64.8769L52.3258 61.4491C53.6809 60.6317 55.2068 60.139 56.784 60.0098C58.3612 59.8806 59.947 60.1183 61.417 60.7043C61.6876 60.8124 61.9493 60.9412 62.1999 61.0898C63.4424 61.7686 64.4721 62.779 65.1744 64.0084C65.6122 64.7669 65.9187 65.594 66.081 66.4546C66.2715 67.5143 66.6187 68.5396 67.1114 69.4969L67.372 69.9812C67.4219 70.0692 67.4719 70.143 67.5219 70.2298C67.5718 70.3167 67.6087 70.3797 67.6575 70.4535V70.4666C68.2429 71.3661 68.9587 72.1737 69.7813 72.8629L75.321 77.503L77.5816 79.3913L77.7981 79.5115Z" fill="white"/>
<path d="M63.3695 87.288C62.8302 87.2866 62.2993 87.1539 61.8228 86.9013L44.7706 77.9339C43.5665 77.2962 42.5921 76.2977 41.9841 75.0783C41.4255 73.9472 41.2098 72.6774 41.3637 71.4253C41.5176 70.1731 42.0344 68.9934 42.8503 68.0312L44.0972 66.5415C44.5463 66.0214 45.1514 65.6604 45.8224 65.5124C46.1383 65.4501 46.4355 65.3157 46.691 65.1197L52.0581 61.0947C53.4766 60.2315 55.0763 59.7101 56.7309 59.5715C58.3856 59.433 60.0497 59.6811 61.592 60.2963C61.8794 60.4127 62.1578 60.5503 62.4248 60.708C63.7369 61.4242 64.824 62.4911 65.5647 63.7896C66.0251 64.5913 66.3469 65.465 66.5165 66.3738C66.7002 67.3925 67.0347 68.3782 67.5088 69.2983L68.0573 70.2656C68.6122 71.1137 69.2889 71.8754 70.0657 72.5263L77.9981 79.1189L78.9321 79.6114L66.8699 83.4723L66.632 84.6193C66.5311 85.1264 66.3125 85.6027 65.9939 86.0098C65.6752 86.4169 65.2653 86.7435 64.7973 86.9632C64.3513 87.1758 63.8636 87.2867 63.3695 87.288ZM57.7239 60.42C55.9044 60.4314 54.1198 60.9214 52.5495 61.8407L47.2311 65.8348C46.8696 66.1112 46.4496 66.3013 46.0033 66.3904C45.5258 66.497 45.0953 66.7544 44.7754 67.1245L43.5261 68.6106C42.8237 69.4391 42.3787 70.4548 42.2458 71.5328C42.1128 72.6108 42.2977 73.7042 42.7777 74.6785C43.3029 75.7308 44.1441 76.5924 45.1835 77.1426L62.2333 86.1089C62.5681 86.2856 62.9394 86.382 63.3178 86.3904C63.6963 86.3988 64.0715 86.3191 64.4138 86.1575C64.7561 85.9959 65.0562 85.7569 65.2902 85.4594C65.5242 85.1619 65.6858 84.814 65.7622 84.4432L66.0977 82.7846L76.8428 79.3557L69.5017 73.2127C68.6445 72.4943 67.899 71.6523 67.2899 70.7142L66.7248 69.7123C66.2103 68.713 65.847 67.6428 65.6468 66.5367C65.494 65.7275 65.2056 64.95 64.7937 64.2369C64.1313 63.0755 63.1575 62.1223 61.9822 61.4849C61.7473 61.3468 61.5018 61.2275 61.2481 61.128C60.1332 60.6567 58.9344 60.4159 57.7239 60.42Z" fill="#080F21"/>
<path d="M64.9824 60.4732C68.7695 60.2114 71.5263 60.3113 71.7881 61.2679L72.6828 67.2657C72.7815 68.1605 71.0432 69.2289 68.1984 70.408L64.9824 60.4732Z" fill="white"/>
<path d="M64.911 60.8429C66.721 60.5985 68.5574 60.6266 70.3591 60.9262C70.6625 60.9999 71.073 61.1058 71.192 61.433C71.2474 61.6602 71.282 61.892 71.2955 62.1255L71.7821 65.3938L71.9963 66.8311C72.043 67.0313 72.0733 67.2351 72.0867 67.4403C72.076 67.9733 71.4026 68.3743 71.0159 68.6301C70.043 69.2206 69.0198 69.7239 67.9581 70.1339L68.8088 70.253L65.9961 61.5674L65.5928 60.3205C65.4429 59.8577 64.24 60.1932 64.3863 60.6442L67.199 69.3297L67.6024 70.5766C67.7071 70.8978 68.2425 70.786 68.4531 70.6956C69.5043 70.276 70.5242 69.7817 71.5049 69.2166C72.1449 68.8915 72.6974 68.4174 73.1159 67.8341C73.48 67.2166 73.1801 66.3528 73.0826 65.6925L72.5281 61.9708C72.504 61.6827 72.4611 61.3966 72.3996 61.1141C72.3208 60.9238 72.1981 60.7548 72.0416 60.6208C71.8851 60.4868 71.6992 60.3917 71.4989 60.3431C70.6728 60.0883 69.8112 59.9678 68.9468 59.9862C67.6523 59.9505 66.3543 60.0195 65.0621 60.1052C64.8397 60.1207 64.4149 60.2729 64.384 60.5395C64.3459 60.831 64.7135 60.856 64.911 60.8429Z" fill="#080F21"/>
<path d="M74.6694 60.5741C73.9984 59.7412 79.6666 59.245 79.7987 59.9529L80.9159 64.4242C81.2014 65.1381 75.7867 66.7836 75.7748 66.2006L74.6694 60.5741Z" fill="white"/>
<path d="M75.2279 60.3253C75.197 60.2848 75.2279 60.3181 75.2279 60.3717C75.2279 60.3336 75.2529 60.2896 75.2053 60.405C75.2231 60.3622 75.266 60.3384 75.1732 60.4359C75.2541 60.3515 75.0613 60.5192 75.1993 60.4145C75.2874 60.3467 75.0625 60.4752 75.172 60.4288C75.2148 60.411 75.2576 60.3919 75.2993 60.3717C75.3409 60.3514 75.4647 60.3181 75.2886 60.3717C75.329 60.3586 75.3683 60.3444 75.4075 60.3325C75.4813 60.3098 75.5539 60.2908 75.6277 60.2717C75.724 60.2468 75.8216 60.2265 75.9192 60.2051C75.9406 60.2051 76.1131 60.167 75.9632 60.1944L76.1797 60.1575C76.6409 60.0848 77.1055 60.0363 77.5718 60.0123C77.8562 59.9981 77.8871 59.9969 78.1488 60.0004C78.3618 60.0004 78.5748 60.0112 78.7866 60.0338C78.8235 60.0338 79.0412 60.0695 78.896 60.0445C78.9662 60.0564 79.0352 60.073 79.1042 60.0897C79.134 60.0968 79.1625 60.1075 79.1923 60.1171C79.2601 60.1385 79.1352 60.1349 79.1768 60.1171C79.1982 60.1256 79.2183 60.1372 79.2363 60.1516C79.1173 60.0016 79.2173 60.1516 79.2208 60.1516C79.2244 60.1516 79.1875 60.0517 79.203 60.1314C79.203 60.1504 79.2125 60.1694 79.2173 60.1884C79.2411 60.3074 79.2756 60.4264 79.3053 60.5454L79.9728 63.2177L80.2476 64.3134C80.2625 64.4006 80.2839 64.4866 80.3119 64.5705C80.3119 64.5788 80.3119 64.5883 80.3178 64.5967C80.3285 64.6347 80.3404 64.5419 80.3381 64.549C80.3262 64.5812 80.2655 64.6407 80.3631 64.5264C80.3478 64.5474 80.3303 64.5666 80.3107 64.5836C80.2084 64.6502 80.3987 64.536 80.2453 64.6371L80.0478 64.7633C80.024 64.7775 79.8955 64.8453 80.0299 64.7751L79.9109 64.8394C79.7229 64.9345 79.5302 65.0202 79.3363 65.0999C79.2292 65.1451 79.1221 65.1868 79.015 65.2285L78.8484 65.2915C78.8282 65.2986 78.6033 65.3795 78.7211 65.3379C78.269 65.4961 77.8086 65.6353 77.3433 65.7531C77.1387 65.8055 76.9329 65.8531 76.7247 65.8935C76.8948 65.8602 76.6592 65.9043 76.6164 65.9102C76.5248 65.9245 76.4332 65.9328 76.3404 65.9435C76.1452 65.9649 76.3998 65.9589 76.2713 65.9435C76.1036 65.9268 76.3511 65.9768 76.2487 65.9435C76.2249 65.9351 76.432 66.0042 76.3927 66.0696C76.3927 66.0696 76.3856 66.0375 76.3856 66.028C76.3601 65.8177 76.3204 65.6094 76.2666 65.4046L75.2874 60.4193C75.1934 59.9434 73.9786 60.2432 74.0809 60.7429L75.0435 65.6449C75.0887 65.8769 75.1161 66.1208 75.1827 66.3516C75.266 66.6407 75.5741 66.7086 75.843 66.7157C76.8173 66.6857 77.7786 66.4843 78.6831 66.1208C79.2044 65.9519 79.7157 65.7532 80.2143 65.5259C80.6196 65.3641 80.9927 65.1312 81.3161 64.8382C81.4056 64.7611 81.4718 64.6606 81.5073 64.5479C81.5428 64.4353 81.5462 64.3149 81.5172 64.2005C81.4446 63.8697 81.353 63.5425 81.2709 63.2141L80.5356 60.2729C80.5103 60.0609 80.4487 59.8549 80.3535 59.6638C80.0975 59.4243 79.7606 59.29 79.41 59.2878C78.4192 59.1766 77.4175 59.2079 76.4355 59.3806C75.9158 59.4469 75.4043 59.5665 74.909 59.7376C74.5902 59.8565 74.1666 60.0469 74.0464 60.3955C74.0204 60.4676 74.0138 60.5452 74.0274 60.6206C74.041 60.696 74.0742 60.7665 74.1238 60.825C74.4034 61.2009 75.5587 60.7643 75.2279 60.3253Z" fill="#080F21"/>
<path d="M75.8119 66.2009C75.7271 66.2128 75.6406 66.1996 75.5633 66.1628C75.3185 66.0449 75.0518 65.9796 74.7802 65.9712C74.5087 65.9628 74.2384 66.0115 73.9868 66.114L73.875 66.1628C73.5089 66.3205 73.2099 66.6018 73.0302 66.9575C73.0028 67.0321 72.9581 67.0991 72.8997 67.1531C72.8414 67.2071 72.7712 67.2465 72.6947 67.2681C72.1486 67.3799 71.4525 66.1009 71.117 64.4244C70.7815 62.748 70.9564 61.3072 71.5025 61.1953C71.5545 61.1837 71.6085 61.1844 71.6602 61.1974C71.7118 61.2105 71.7597 61.2354 71.8 61.2703C72.0275 61.4014 72.2804 61.4826 72.5418 61.5083C72.8032 61.5339 73.0671 61.5034 73.3158 61.419L73.5537 61.3441C73.913 61.2297 74.2291 61.009 74.4603 60.7111C74.5233 60.6314 74.6106 60.5746 74.709 60.5493C75.2551 60.4375 75.9381 61.6201 76.2367 63.1669C76.5437 64.7469 76.3462 66.089 75.8119 66.2009Z" fill="#080F21"/>
<path d="M68.2013 70.4106C68.0337 70.4717 67.8506 70.4764 67.6802 70.4237C67.5802 70.275 67.4815 70.1131 67.3946 69.9644C66.7585 68.8743 66.321 67.6798 66.1025 66.4367C65.9461 65.5744 65.6392 64.7463 65.1959 63.9904C64.4872 62.766 63.459 61.7572 62.2214 61.0719C61.968 60.9285 61.7066 60.7998 61.4385 60.6864C61.8612 60.4937 62.3084 60.36 62.7675 60.289C63.4992 60.121 64.2648 60.1823 64.9605 60.4646C65.6561 60.7468 66.248 61.2364 66.6557 61.8667C67.1645 62.7019 67.5928 63.5835 67.9348 64.4997C69.0591 67.3683 69.1829 70.0132 68.2013 70.4106Z" fill="#080F21"/>
<path d="M72.3618 64.52L75.2935 63.8359C75.3921 63.8127 75.4776 63.7514 75.5311 63.6653C75.5846 63.5792 75.6019 63.4754 75.579 63.3766L75.5171 63.0911C75.4934 62.9925 75.4317 62.9072 75.3455 62.8538C75.2594 62.8003 75.1556 62.783 75.0567 62.8055L72.1262 63.4885C72.0277 63.5119 71.9425 63.5734 71.889 63.6594C71.8355 63.7454 71.8182 63.849 71.8407 63.9477L71.9025 64.2333C71.9132 64.2827 71.9336 64.3294 71.9626 64.3707C71.9917 64.412 72.0287 64.4471 72.0715 64.4738C72.1143 64.5006 72.1621 64.5185 72.212 64.5264C72.2618 64.5343 72.3128 64.5321 72.3618 64.52Z" fill="#DDDEDF"/>
<path opacity="0.2" d="M77.6105 79.3659C77.513 79.4749 77.4094 79.5782 77.3 79.6753C75.9606 80.9402 74.1868 81.6428 72.3445 81.6384C72.0119 81.6388 71.6798 81.6137 71.351 81.5634C70.0388 81.3816 68.8022 80.8412 67.7774 80.0018C66.7526 79.1623 65.9794 78.0564 65.5428 76.8056C65.1062 75.5549 65.0232 74.208 65.303 72.9131C65.5828 71.6182 66.2144 70.4257 67.1284 69.4668L67.389 69.951C67.439 70.0379 67.4877 70.1128 67.5377 70.1997C67.5877 70.2865 67.6246 70.3485 67.6745 70.4234V70.4352C68.2599 71.3351 68.9757 72.1431 69.7983 72.8327L75.3368 77.4729L77.6105 79.3659Z" fill="url(#paint0_linear_820_15225)"/>
<path d="M68.7044 78.7969C66.8083 78.8261 64.9278 79.1446 63.1278 79.7416C62.7704 79.8501 62.4374 80.0271 62.1474 80.2627C61.7328 80.664 61.4386 81.1733 61.2981 81.733C61.1577 82.2926 61.1766 82.8804 61.3527 83.4299C61.3892 83.6232 61.4605 83.8083 61.5633 83.9761C61.7316 84.2595 61.9786 84.4878 62.2744 84.6334C62.5701 84.7789 62.9017 84.8353 63.229 84.7958C65.9014 84.4802 68.525 83.838 71.0412 82.8838C71.6279 82.6632 72.105 82.2216 72.3702 81.6536L68.7044 78.7969Z" fill="#3A1E44"/>
<path d="M76.5215 84.7312C74.1596 86.0854 71.6348 87.1329 69.008 87.8485C67.629 87.9603 66.3381 86.93 66.1394 84.755C66.0967 84.3313 66.1986 83.9056 66.4284 83.547C66.6582 83.1885 67.0025 82.9182 67.4053 82.7799C69.8004 81.8684 72.2576 81.1297 74.7583 80.5693L76.5215 84.7312Z" fill="#080F21"/>
<path d="M77.8876 84.3199C75.5257 85.674 73.0009 86.7216 70.3741 87.4372C68.9951 87.549 67.7042 86.5186 67.5055 84.3437C67.4631 83.9201 67.5651 83.4947 67.7949 83.1364C68.0247 82.7781 68.3688 82.508 68.7714 82.3698C71.1663 81.4578 73.6236 80.7191 76.1244 80.1592L77.8876 84.3199Z" fill="white"/>
<path d="M77.6884 84.0513C76.3086 84.8573 74.8634 85.5458 73.3682 86.1096C72.5913 86.4047 71.8025 86.6676 71.0077 86.9116C70.7496 87.0281 70.4693 87.0874 70.1861 87.0855C69.903 87.0837 69.6235 87.0207 69.3669 86.9008C68.8639 86.574 68.4641 86.1109 68.2143 85.5655C67.9644 85.0201 67.8748 84.4148 67.9559 83.8204C68.1093 82.9543 68.7887 82.7056 69.5276 82.451C70.3307 82.1749 71.1338 81.9013 71.9405 81.6384C73.2881 81.1414 74.6752 80.7585 76.0869 80.4937L75.6895 80.2773L77.4528 84.4415C77.6229 84.8413 78.4796 84.5986 78.3154 84.2095L76.5509 80.0452C76.5177 79.9704 76.4608 79.9085 76.389 79.8692C76.3172 79.8299 76.2345 79.8152 76.1535 79.8275C74.6627 80.0988 73.1973 80.4948 71.7727 81.0113C70.8042 81.3286 69.8393 81.655 68.8779 81.9905C68.5269 82.0848 68.1998 82.2524 67.9182 82.4823C67.6366 82.7122 67.4069 82.9992 67.2444 83.3243C67.0353 83.9815 67.0185 84.6847 67.196 85.351C67.3736 86.0174 67.7379 86.6192 68.2462 87.0853C68.6778 87.468 69.2189 87.7052 69.7929 87.7635C70.6093 87.7468 71.4136 87.5625 72.1558 87.2221C74.2166 86.5557 76.2015 85.6739 78.0775 84.5914C78.5807 84.2976 78.125 83.7955 77.6884 84.0513Z" fill="#080F21"/>
<path d="M69.4294 78.6191C67.5332 78.6481 65.6527 78.9667 63.8528 79.5638C63.4946 79.6716 63.1611 79.8486 62.8712 80.085C62.4571 80.4866 62.1633 80.9959 62.0229 81.5554C61.8825 82.115 61.901 82.7026 62.0764 83.2522C62.1133 83.4456 62.1851 83.6307 62.2882 83.7984C62.4565 84.0818 62.7036 84.3101 62.9993 84.4556C63.295 84.6012 63.6267 84.6576 63.9539 84.6181C66.6265 84.3027 69.2503 83.6602 71.7661 82.7049C72.3537 82.4863 72.8313 82.0446 73.0951 81.4758L69.4294 78.6191Z" fill="white"/>
<path d="M69.5885 78.351C67.7994 78.3727 66.0223 78.6463 64.3094 79.1636C62.865 79.5788 61.6633 80.3772 61.5443 81.9989C61.4456 83.3445 61.9382 84.7961 63.4825 84.8936C64.359 84.8843 65.2313 84.7709 66.081 84.5557C66.9607 84.3915 67.8332 84.1932 68.6986 83.9608C69.7254 83.6812 70.7426 83.3576 71.7397 82.9876C72.4986 82.7424 73.1307 82.2087 73.4994 81.5015C73.5124 81.4814 73.521 81.4589 73.5247 81.4353C73.5284 81.4117 73.5271 81.3875 73.5209 81.3645C73.5148 81.3414 73.5039 81.3199 73.4889 81.3013C73.4739 81.2827 73.4552 81.2674 73.434 81.2564L69.7706 78.4009C69.5231 78.2082 68.7378 78.5698 69.0924 78.8459L72.7558 81.7014L72.6904 81.4563C72.2501 82.338 71.4661 82.5628 70.5844 82.8603C69.7028 83.1577 68.7831 83.429 67.8669 83.6574C66.9841 83.8775 66.0929 84.0608 65.1946 84.1988C64.3939 84.3178 63.4778 84.5747 62.8686 83.8751C62.6548 83.5552 62.5066 83.196 62.4327 82.8184C62.3588 82.4407 62.3605 82.0522 62.4379 81.6752C62.4767 81.2982 62.6113 80.9374 62.8289 80.6271C63.0465 80.3168 63.3399 80.0673 63.6812 79.9024C64.5542 79.5588 65.4635 79.3162 66.3916 79.1791C67.3396 78.9917 68.3033 78.8953 69.2697 78.8911C69.441 78.8911 69.7658 78.8376 69.836 78.646C69.9062 78.4545 69.7765 78.351 69.5885 78.351Z" fill="#080F21"/>
<path d="M75.3005 78.8938C75.2355 78.9607 75.153 79.0081 75.0625 79.0306C74.5199 79.1992 74.0427 79.5318 73.6966 79.9825L73.6217 80.0824C73.3911 80.3679 73.2603 80.721 73.2492 81.0878C73.2523 81.1588 73.2407 81.2297 73.2151 81.296C73.1895 81.3624 73.1505 81.4227 73.1005 81.4733C72.6781 81.8707 71.5229 81.5601 70.5044 80.7594C69.4859 79.9586 69.0136 78.9961 69.424 78.5987C69.5029 78.5224 69.602 78.4703 69.7096 78.4488C70.2389 78.3031 70.7139 78.0052 71.0755 77.5921L71.2492 77.4065C71.4919 77.1367 71.6665 76.8128 71.7584 76.4618C71.784 76.3697 71.8309 76.285 71.8953 76.2144C72.3176 75.817 73.4111 76.0776 74.3546 76.8224C75.2981 77.5672 75.7228 78.4964 75.3005 78.8938Z" fill="#080F21"/>
<path d="M77.2625 72.5601C77.1981 74.7876 76.5702 76.9625 75.4373 78.8815C75.2786 79.1148 75.0704 79.3103 74.8276 79.4542C74.5848 79.5981 74.3134 79.6869 74.0325 79.7141C73.7516 79.7414 73.4681 79.7065 73.2022 79.612C72.9363 79.5174 72.6944 79.3655 72.4938 79.167L71.9976 78.6828C71.7313 78.422 71.5435 78.0918 71.4556 77.7296C71.3677 77.3674 71.3832 76.9878 71.5003 76.634C72.0108 75.1004 72.6766 73.623 73.4872 72.2246L77.2625 72.5601Z" fill="white"/>
<path d="M76.8361 72.618C76.7572 74.7342 76.1912 76.8038 75.1823 78.6657C75.0875 78.8618 74.9521 79.0355 74.7852 79.1754C74.6182 79.3153 74.4234 79.4181 74.2138 79.4771C73.9726 79.504 73.7285 79.4751 73.5003 79.3926C73.2721 79.3101 73.066 79.1762 72.8979 79.0012C72.692 78.8073 72.4767 78.6122 72.2911 78.3992C72.092 78.1649 71.9527 77.8859 71.8849 77.5861C71.8172 77.2863 71.823 76.9746 71.902 76.6775C72.3735 75.1149 73.0415 73.6184 73.8901 72.2241L73.2239 72.4454L76.9991 72.7809C77.1064 72.7954 77.2154 72.7884 77.32 72.7604C77.4246 72.7325 77.5225 72.684 77.6083 72.618C77.7272 72.5097 77.7272 72.3538 77.5333 72.336L73.7581 72.0004C73.5641 71.9837 73.2036 72.0254 73.0918 72.2229C72.2757 73.6197 71.6059 75.0969 71.0929 76.6311C70.9863 76.9424 70.9523 77.274 70.9936 77.6004C71.0348 77.9269 71.1502 78.2396 71.3309 78.5146C71.556 78.8147 71.8143 79.0884 72.1007 79.3307C72.5384 79.7076 73.0911 79.9247 73.6682 79.9463C74.2454 79.9679 74.8128 79.7928 75.2774 79.4498C76.0067 78.7916 76.5326 77.9387 76.7932 76.9916C77.2853 75.5382 77.5903 74.0282 77.7011 72.4978C77.726 72.1801 76.8623 72.3467 76.8361 72.618Z" fill="#080F21"/>
<path d="M82.2696 59.2471C81.9959 58.5772 83.8722 58.2417 86.8527 58.5891C87.2396 58.6334 87.6042 58.7933 87.8988 59.048C88.1935 59.3027 88.4044 59.6403 88.5041 60.0168C88.6022 60.3782 88.5959 60.76 88.486 61.118C88.3761 61.4759 88.167 61.7954 87.883 62.0395C85.2881 64.2002 83.5117 64.3989 83.1893 63.9146L82.2696 59.2471Z" fill="white"/>
<path d="M82.8689 59.0865C82.8463 59.0247 82.8237 59.0234 82.8499 59.0425C82.8403 59.0972 82.876 59.0615 82.8499 59.0425C82.8594 58.9877 82.8296 59.1115 82.8344 59.1032C82.8784 59.0318 82.7678 59.2103 82.8344 59.1151C82.863 59.0722 82.7856 59.1639 82.7856 59.1639C82.8189 59.1436 82.8737 59.1246 82.8035 59.146C82.7107 59.1746 82.8499 59.127 82.876 59.1139C82.97 59.0675 82.7701 59.1401 82.9165 59.0996C83.0628 59.0592 83.1878 59.0258 83.3282 59.0008C83.227 59.0187 83.4329 58.9865 83.4602 58.983C83.5447 58.9723 83.6292 58.964 83.7149 58.9568C83.9195 58.939 84.1253 58.9283 84.33 58.9235C84.794 58.9128 85.2568 58.9235 85.7197 58.964C86.1998 58.9513 86.6779 59.0321 87.1272 59.2019C87.4552 59.3802 87.7085 59.6703 87.8411 60.0193C87.9196 60.2251 87.9566 60.4444 87.9499 60.6646C87.9432 60.8847 87.8928 61.1014 87.8018 61.3019C87.5607 61.6983 87.2246 62.0283 86.8238 62.2621C86.4429 62.5524 86.0426 62.8164 85.6257 63.0521C85.4575 63.1449 85.287 63.2325 85.114 63.315C85.0462 63.3471 84.9772 63.3769 84.9082 63.4067C84.8392 63.4364 84.7107 63.4876 84.7107 63.4876C84.5917 63.5328 84.4597 63.5721 84.3312 63.6066C84.261 63.6256 84.1896 63.6398 84.1194 63.6553C84.0182 63.6767 84.2122 63.6553 84.0432 63.6648L83.8909 63.6756C83.841 63.6756 83.7077 63.6553 83.8719 63.6756C83.8378 63.6665 83.8025 63.6625 83.7672 63.6637C83.7589 63.6637 83.7172 63.6541 83.7041 63.6518C83.7363 63.6518 83.8326 63.6839 83.7458 63.6518C83.6589 63.6196 83.6958 63.5851 83.7577 63.6648C83.7434 63.647 83.6792 63.578 83.7303 63.6506C83.7375 63.6613 83.7732 63.7981 83.7791 63.7196C83.7687 63.5984 83.7451 63.4787 83.7089 63.3627L83.421 61.9051L82.8665 59.0853C82.7475 58.4904 81.5411 58.8069 81.6601 59.409L82.2383 62.3466L82.5441 63.9004C82.5844 64.0829 82.6829 64.2473 82.8247 64.3689C82.9666 64.4906 83.1441 64.5629 83.3305 64.575C84.0155 64.6437 84.706 64.5201 85.3246 64.2181C86.3097 63.7917 87.2272 63.2237 88.0481 62.5322C88.5262 62.1931 88.8851 61.7118 89.0737 61.1568C89.2295 60.6575 89.2125 60.1203 89.0253 59.632C88.8381 59.1436 88.4917 58.7326 88.0421 58.4654C87.5152 58.2026 86.9355 58.0627 86.3467 58.0561C85.2035 57.9119 84.045 57.9444 82.9117 58.1525C82.3799 58.2715 81.3936 58.6832 81.6601 59.409C81.873 59.986 83.0759 59.6517 82.8689 59.0865Z" fill="#080F21"/>
<path d="M83.1862 63.9045C83.1146 63.9138 83.0418 63.9052 82.9744 63.8795C82.7714 63.7808 82.5497 63.7265 82.3241 63.7199C82.0985 63.7134 81.874 63.7548 81.6656 63.8414L81.5669 63.8914C81.266 64.024 81.0202 64.2564 80.8708 64.5493C80.7959 64.6861 80.709 64.7873 80.5972 64.798C80.151 64.8849 79.5668 63.8295 79.2884 62.4505C79.01 61.0716 79.1516 59.8675 79.5989 59.7806C79.6424 59.7738 79.6868 59.7758 79.7295 59.7864C79.7722 59.7971 79.8124 59.8161 79.8476 59.8425C80.0372 59.9475 80.2464 60.0124 80.4622 60.0328C80.678 60.0533 80.8957 60.029 81.1016 59.9615L81.3003 59.8984C81.5993 59.8041 81.8632 59.6226 82.0582 59.3773C82.1067 59.3136 82.1779 59.271 82.2569 59.2583C82.7043 59.1715 83.2754 60.14 83.5241 61.4309C83.7977 62.6992 83.6323 63.8176 83.1862 63.9045Z" fill="#080F21"/>
<path d="M81.4361 82.1606C81.1981 82.3986 80.9756 82.6365 80.7281 82.8567C80.5943 82.9799 80.43 83.0653 80.2522 83.1041C80.1331 83.1019 80.0139 83.1062 79.8953 83.1172C79.6196 83.1377 79.3501 83.2091 79.1005 83.3278L78.9887 83.3778C78.6557 83.5116 78.3763 83.7517 78.1939 84.0608C78.1637 84.1239 78.1204 84.1798 78.0669 84.2247C78.0133 84.2697 77.9507 84.3026 77.8833 84.3213C77.3372 84.4712 76.5055 83.6515 76.0213 82.5081C75.5371 81.3647 75.5739 80.3105 76.1201 80.1617C76.2225 80.1349 76.3305 80.1391 76.4306 80.1737C76.7051 80.1913 76.9795 80.1363 77.226 80.0141C77.4725 79.8919 77.6824 79.7068 77.8345 79.4776C77.8583 79.4407 77.9464 80.0987 77.9952 80.0868L78.2331 80.0119C78.5652 79.9024 78.8641 79.7104 79.1017 79.4539C79.1616 79.3807 79.2463 79.332 79.3396 79.317C79.8858 79.1671 80.6924 79.9119 81.1398 80.9827C81.312 81.3531 81.4126 81.7528 81.4361 82.1606Z" fill="#080F21"/>
<path d="M84.9523 77.0065C84.1167 78.9349 82.9242 80.6881 81.4377 82.1738C81.1997 82.4117 80.9772 82.6497 80.7297 82.8686C80.5963 82.9927 80.4319 83.0785 80.2538 83.1172C80.1362 83.1396 80.0157 83.1437 79.8969 83.1291C79.719 83.1052 79.5529 83.0271 79.4209 82.9055C78.5619 82.2131 78.0014 81.2173 77.8552 80.1237C77.8552 80.0987 77.8433 80.0738 77.8433 80.0369C77.77 79.5157 77.8659 78.9848 78.1169 78.5222C78.5841 77.5916 79.1548 76.7167 79.8183 75.9142C79.9045 75.8156 80.0161 75.7425 80.1409 75.7031C80.2658 75.6636 80.3991 75.6593 80.5263 75.6905L84.6989 76.0748L84.8476 76.2617C84.9327 76.3638 84.9875 76.4875 85.006 76.6191C85.0245 76.7507 85.0059 76.8849 84.9523 77.0065Z" fill="white"/>
<path d="M84.5466 76.9847C83.8564 78.5973 82.9044 80.0848 81.7291 81.387C81.4412 81.713 81.1426 82.0283 80.8356 82.3388C80.6879 82.5183 80.518 82.6782 80.3299 82.8148C80.1051 82.9409 79.9147 82.8076 79.735 82.6613C79.1481 82.1694 78.7098 81.5238 78.4691 80.7968C78.3329 80.4117 78.2594 80.0072 78.2514 79.5987C78.2784 79.1137 78.4287 78.6436 78.688 78.2328C79.0591 77.4588 79.5329 76.7385 80.0967 76.0912C80.1365 76.0398 80.1905 76.001 80.252 75.9799C80.3136 75.9588 80.3799 75.9561 80.443 75.9722C80.5774 75.9865 80.7107 75.996 80.8451 76.0091L82.1194 76.1281L84.5359 76.3506L84.2979 76.2601C84.4091 76.3578 84.4888 76.4862 84.527 76.6292C84.5651 76.7722 84.5599 76.9232 84.5121 77.0632C84.3931 77.3833 85.2664 77.2798 85.377 76.9681C85.4406 76.7879 85.4492 76.5928 85.4017 76.4076C85.3543 76.2225 85.2529 76.0556 85.1105 75.9282C85.0005 75.8454 84.8651 75.8034 84.7274 75.8092C84.2705 75.7652 83.8113 75.7247 83.3544 75.6831C82.4133 75.5963 81.4602 75.4559 80.5167 75.419C79.5066 75.3797 78.9153 76.4826 78.4489 77.2239C77.7465 78.0729 77.381 79.1507 77.4221 80.2519C77.6422 81.7498 79.2472 84.5031 81.0307 83.0051C81.9589 82.1816 82.7907 81.2556 83.5103 80.2448C84.2521 79.2564 84.8698 78.1807 85.3497 77.0418C85.5258 76.6194 84.6667 76.6956 84.5466 76.9847Z" fill="#080F21"/>
<path d="M77.6379 69.8152C77.6225 69.889 77.588 69.9575 77.538 70.0138C77.2451 70.3711 77.0676 70.8088 77.0287 71.2691L77.0168 71.3678C76.9835 71.666 77.0487 71.9669 77.2024 72.2245C77.2378 72.272 77.2628 72.3265 77.2757 72.3843C77.2886 72.4421 77.2892 72.502 77.2774 72.56C77.1656 73.0193 76.2339 73.306 75.1905 73.218C74.147 73.1299 73.3903 72.6719 73.5022 72.2126C73.5224 72.1255 73.5699 72.0472 73.6378 71.989C73.94 71.6579 74.135 71.2431 74.197 70.7992L74.2339 70.6004C74.2798 70.3088 74.2545 70.0104 74.1601 69.7307C74.1367 69.6536 74.1322 69.5719 74.147 69.4927C74.2589 69.0335 75.1286 68.7348 76.0971 68.8217C77.0656 68.9085 77.7486 69.3559 77.6379 69.8152Z" fill="#080F21"/>
<path d="M85.1111 73.0332C85.0974 73.1133 85.0587 73.1871 85.0005 73.2438C84.6798 73.6427 84.481 74.1256 84.4282 74.6347L84.4163 74.7465C84.3863 75.0742 84.4555 75.4034 84.615 75.6912C84.6544 75.7438 84.6816 75.8046 84.6946 75.869C84.7075 75.9334 84.7059 75.9999 84.6899 76.0636C84.565 76.5728 83.5346 76.8965 82.3793 76.7966C81.224 76.6966 80.3924 76.1874 80.5042 75.6782C80.5317 75.5842 80.5829 75.499 80.6529 75.4307C80.9809 75.0595 81.1963 74.6027 81.274 74.1136L81.3109 73.8899C81.3688 73.5716 81.3434 73.2437 81.2371 72.9381C81.2079 72.8543 81.2034 72.7638 81.224 72.6775C81.343 72.1683 82.3044 71.8327 83.3728 71.9327C84.4413 72.0326 85.2301 72.524 85.1111 73.0332Z" fill="#080F21"/>
<path d="M77.3516 67.7158C77.4813 68.1407 77.5893 68.572 77.6752 69.0079C77.7304 69.2918 77.7187 69.5847 77.641 69.8633C77.5634 70.142 77.4219 70.3987 77.2278 70.6132C77.0338 70.8277 76.7924 70.994 76.5229 71.0991C76.2535 71.2042 75.9632 71.245 75.6752 71.2185C75.2364 71.1805 74.8034 71.0931 74.3842 70.9579C74.1948 70.8933 74.0276 70.776 73.9022 70.6199C73.7769 70.4638 73.6985 70.2752 73.6763 70.0763C73.6158 69.6621 73.6368 69.2402 73.7382 68.8342L73.9868 67.7907C74.0687 67.455 74.2479 67.1509 74.5019 66.9166C74.7559 66.6823 75.0734 66.5282 75.4146 66.4736C75.8327 66.4142 76.2583 66.5068 76.6138 66.7348C76.9694 66.9628 77.2312 67.3109 77.3516 67.7158Z" fill="white"/>
<path d="M76.924 67.8312C77.1703 68.6641 77.5463 69.6683 76.9312 70.4321C76.7314 70.6927 76.4393 70.8669 76.115 70.9187C75.8758 70.9353 75.6355 70.9181 75.4011 70.8676C75.1198 70.834 74.8442 70.7636 74.5813 70.6582C73.8341 70.3012 74.0864 69.19 74.2363 68.5594C74.2753 67.975 74.5149 67.4219 74.9145 66.9936C75.0954 66.8816 75.3003 66.814 75.5125 66.7968C75.7246 66.7795 75.9377 66.8129 76.1344 66.8943C76.331 66.9757 76.5055 67.1027 76.6435 67.2647C76.7814 67.4268 76.8788 67.6193 76.9276 67.8264C77.0466 68.2 77.9068 67.9633 77.7902 67.5957C77.6083 67.0674 77.2272 66.6312 76.7282 66.38C76.2292 66.1288 75.6517 66.0826 75.1191 66.2512C74.5439 66.4161 74.0548 66.7972 73.7544 67.3148C73.6077 67.6289 73.5044 67.9616 73.4475 68.3036C73.2416 69.165 72.9168 70.356 73.7199 71.0068C73.9473 71.1694 74.207 71.2809 74.4814 71.334C74.8466 71.4318 75.2203 71.4944 75.5974 71.5208C76.1751 71.5586 76.7481 71.3964 77.2203 71.0615C77.7027 70.7191 78.0303 70.1999 78.1317 69.6171C78.164 68.9284 78.0484 68.2407 77.7926 67.6004C77.676 67.2268 76.8146 67.46 76.924 67.8312Z" fill="#080F21"/>
<path d="M85.287 69.2331C85.4059 69.916 85.5249 70.5621 85.5844 71.1582C85.7831 72.9714 84.579 74.7097 83.1881 74.5978C82.6877 74.5616 82.1945 74.4572 81.7223 74.2873C81.49 74.1651 81.2961 73.9809 81.1623 73.7551C81.0285 73.5293 80.96 73.2707 80.9644 73.0083C80.9169 72.3799 80.963 71.748 81.1012 71.1332L81.4487 69.5555C81.5195 69.0902 81.7151 68.6527 82.0146 68.2896C82.3142 67.9265 82.7066 67.6514 83.1501 67.4936C84.1317 67.233 85.0502 67.9909 85.287 69.2331Z" fill="white"/>
<path d="M84.8582 69.3484C85.2929 70.6647 85.2508 72.0921 84.7392 73.3805C84.5262 73.7696 84.1312 74.3241 83.6565 74.4085C83.3279 74.4309 82.998 74.3906 82.6844 74.2896C82.35 74.2473 82.0355 74.1074 81.7802 73.8874C81.5905 73.6066 81.4589 73.2907 81.3931 72.9583C81.3273 72.6258 81.3286 72.2835 81.3971 71.9516C81.4412 71.5054 81.5171 71.0628 81.6243 70.6274C81.7213 69.8193 81.9764 69.0382 82.3751 68.3287C82.732 67.8242 83.2079 67.4577 83.8159 67.7659C84.0975 67.9355 84.3376 68.166 84.5185 68.4405C84.6995 68.7149 84.8168 69.0263 84.8618 69.3519C84.9046 69.5518 85.7708 69.3519 85.7244 69.1211C85.6727 68.7746 85.5437 68.444 85.347 68.1541C85.1504 67.8641 84.891 67.622 84.5881 67.4459C84.2885 67.3177 83.9648 67.2558 83.6391 67.2645C83.3134 67.2731 82.9934 67.352 82.7011 67.4958C82.0374 67.7902 81.5117 68.3275 81.2317 68.9974C81.0708 69.4256 80.9513 69.8682 80.8747 70.3192C80.7796 70.7475 80.6713 71.1759 80.6023 71.609C80.3769 72.4263 80.4664 73.2984 80.8533 74.0528C81.141 74.3155 81.4794 74.5166 81.8477 74.6437C82.216 74.7708 82.6065 74.8211 82.995 74.7917C83.6658 74.8057 84.3197 74.58 84.8391 74.1551C85.4606 73.6212 85.8676 72.8803 85.9849 72.0694C86.06 71.0786 85.9695 70.0822 85.7172 69.1211C85.6851 68.9236 84.8165 69.1175 84.8582 69.3484Z" fill="#080F21"/>
<path opacity="0.2" d="M56.5975 83.6508L44.972 77.54C43.8515 76.9456 42.9444 76.0164 42.3771 74.8819C41.8585 73.8296 41.6586 72.6486 41.8019 71.4842C41.9452 70.3198 42.4255 69.2226 43.1838 68.3274L44.439 66.8366C44.8217 66.3874 45.3406 66.0754 45.9167 65.9478C46.2967 65.8722 46.654 65.7092 46.9602 65.4719L47.7419 64.877C51.3824 66.6281 54.2075 69.7156 55.629 73.497C57.0361 76.6892 57.3758 80.2502 56.5975 83.6508Z" fill="url(#paint1_linear_820_15225)"/>
<path d="M97.2965 34.9673C97.2973 37.4499 96.8089 39.9083 95.8592 42.2021C94.9094 44.4959 93.517 46.58 91.7615 48.3354C90.006 50.0908 87.9218 51.4831 85.6279 52.4326C83.3341 53.3822 80.8757 53.8705 78.3931 53.8696C77.1466 53.8711 75.903 53.7516 74.6797 53.5126C70.2749 52.6288 66.3286 50.2056 63.5478 46.677C60.7671 43.1484 59.3335 38.745 59.5038 34.2556C59.6742 29.7663 61.4374 25.4842 64.4776 22.1765C67.5178 18.8688 71.6364 16.7516 76.0956 16.2042C76.8581 16.1144 77.6252 16.0687 78.3931 16.0674C80.8755 16.0661 83.334 16.5541 85.6278 17.5034C87.9216 18.4528 90.0058 19.8448 91.7614 21.6C93.5169 23.3553 94.9094 25.4392 95.8591 27.7328C96.8089 30.0265 97.2973 32.4848 97.2965 34.9673Z" fill="#3063BA"/>
<path d="M55.2385 42.3563C55.2379 44.8859 54.2327 47.3117 52.444 49.1004C50.6553 50.8891 48.2295 51.8942 45.6999 51.8949C45.0702 51.8959 44.4419 51.8333 43.8248 51.7081C43.638 51.6712 43.4512 51.6213 43.2656 51.5891C41.2271 51.0524 39.4235 49.8561 38.1362 48.1868C36.8489 46.5175 36.1503 44.469 36.1494 42.361C36.1489 40.0303 37.0012 37.7799 38.5454 36.0342C40.0897 34.2885 42.2193 33.1682 44.5327 32.8843C44.9198 32.8351 45.3097 32.8104 45.6999 32.8106C48.0493 32.8075 50.3168 33.6735 52.0661 35.2418C53.8154 36.8101 54.9229 38.9699 55.1754 41.3057C55.2149 41.6546 55.236 42.0052 55.2385 42.3563Z" fill="white"/>
<path d="M54.3596 42.4104C54.3656 43.9883 53.9525 45.5395 53.1625 46.9054C52.3726 48.2712 51.2341 49.4029 49.8634 50.1846C48.3811 50.9769 46.6993 51.3177 45.0256 51.1651C43.3518 51.0124 41.7594 50.3729 40.445 49.3255C39.0014 48.168 37.9446 46.5981 37.4154 44.825C36.8861 43.0519 36.9095 41.1597 37.4824 39.4002C38.0901 37.5706 39.2929 35.9972 40.899 34.9306C42.505 33.8641 44.4219 33.3659 46.344 33.5155C48.5358 33.7636 50.561 34.8052 52.0376 36.4438C53.5143 38.0824 54.3402 40.2047 54.3596 42.4104C54.381 43.3623 56.1312 43.1338 56.1122 42.3022C56.0953 40.0417 55.3317 37.8503 53.9401 36.069C52.5484 34.2877 50.6069 33.0164 48.4178 32.453C46.23 31.9169 43.9289 32.0825 41.8404 32.9264C39.7519 33.7703 37.9817 35.2497 36.7804 37.1551C35.6395 39.0223 35.1341 41.2089 35.3398 43.3874C35.5455 45.5659 36.4512 47.6191 37.9214 49.2399C39.3488 50.7637 41.1975 51.8281 43.2319 52.2977C45.2664 52.7673 47.3946 52.6208 49.3454 51.8767C51.2963 51.1327 52.9816 49.8249 54.1867 48.1198C55.3917 46.4147 56.062 44.3895 56.1122 42.3022C56.1253 41.3586 54.3715 41.5752 54.3596 42.4104Z" fill="#080F21"/>
<path d="M75.8084 38.4821H73.2622C73.0685 38.4818 72.88 38.5447 72.7254 38.6613C72.5707 38.7779 72.4584 38.9418 72.4055 39.1282L72.3925 39.165C72.2966 39.4957 72.0956 39.7862 71.82 39.9925C71.5443 40.1988 71.209 40.3097 70.8648 40.3084C70.6075 40.3093 70.3539 40.2476 70.1257 40.1286C69.8976 40.0097 69.7018 39.837 69.5552 39.6255C69.4087 39.4141 69.3157 39.1702 69.2843 38.9149C69.2529 38.6595 69.2841 38.4003 69.3751 38.1597L72.07 30.9935C72.2622 30.4798 72.6065 30.0369 73.057 29.724C73.5075 29.4111 74.0427 29.243 74.5912 29.2422C75.1397 29.2432 75.6748 29.4113 76.1252 29.7242C76.5757 30.0371 76.92 30.4799 77.1124 30.9935L79.7823 38.0978C79.875 38.345 79.9066 38.611 79.8742 38.873C79.8418 39.1351 79.7465 39.3854 79.5964 39.6026C79.4463 39.8198 79.2459 39.9974 79.0122 40.1204C78.7786 40.2433 78.5186 40.3078 78.2546 40.3084C77.9028 40.3078 77.5607 40.1938 77.2789 39.9833C76.997 39.7729 76.7905 39.4771 76.69 39.1401L76.6769 39.1151C76.6168 38.9318 76.5006 38.7721 76.3447 38.6585C76.1889 38.5449 76.0012 38.4833 75.8084 38.4821ZM75.411 34.5201C75.3564 34.3417 75.2461 34.1857 75.0961 34.0747C74.9462 33.9638 74.7646 33.9038 74.5781 33.9038C74.3916 33.9038 74.21 33.9638 74.0601 34.0747C73.9102 34.1857 73.7998 34.3417 73.7453 34.5201C73.7055 34.6499 73.6968 34.7872 73.72 34.921C73.7431 35.0548 73.7974 35.1813 73.8785 35.2902C73.9596 35.399 74.0652 35.4874 74.1867 35.5479C74.3083 35.6084 74.4423 35.6394 74.5781 35.6385C74.7141 35.6402 74.8486 35.6097 74.9706 35.5494C75.0925 35.4891 75.1985 35.4008 75.2797 35.2917C75.3609 35.1826 75.4152 35.0558 75.438 34.9217C75.4608 34.7876 75.4516 34.6499 75.411 34.5201Z" fill="white"/>
<path d="M83.5475 29.2422C84.0016 29.2431 84.4368 29.4239 84.7579 29.745C85.0791 30.0661 85.2599 30.5014 85.2608 30.9555V38.594C85.2599 39.0482 85.0791 39.4835 84.758 39.8048C84.437 40.1261 84.0017 40.3072 83.5475 40.3084C83.0931 40.3075 82.6575 40.1266 82.3362 39.8053C82.0149 39.4839 81.834 39.0484 81.833 38.594V30.9555C81.834 30.5012 82.0149 30.0658 82.3363 29.7446C82.6576 29.4235 83.0932 29.2428 83.5475 29.2422Z" fill="white"/>
<path opacity="0.2" d="M55.1733 41.3126C53.9249 42.6405 52.3222 43.583 50.5548 44.0284C48.7875 44.4739 46.9295 44.4037 45.2009 43.8261C43.4722 43.2486 41.9452 42.1878 40.8005 40.7694C39.6559 39.3511 38.9416 37.6345 38.7422 35.8228C40.2696 34.1992 42.3178 33.1622 44.5305 32.8923C44.9176 32.8421 45.3075 32.817 45.6977 32.8174C48.0471 32.8143 50.3146 33.6803 52.0639 35.2486C53.8132 36.8169 54.9207 38.9768 55.1733 41.3126Z" fill="url(#paint2_linear_820_15225)"/>
<path opacity="0.2" d="M43.5833 49.72C43.5873 50.3603 43.4736 50.9959 43.2478 51.5951C41.5875 51.1536 40.0763 50.274 38.8725 49.0482C37.6688 47.8225 36.8166 46.2956 36.4053 44.6276C36.976 44.4275 37.5769 44.3269 38.1816 44.3302C38.8908 44.3272 39.5936 44.4645 40.2495 44.7341C40.9055 45.0038 41.5016 45.4005 42.0036 45.9014C42.5057 46.4023 42.9037 46.9976 43.1748 47.6529C43.4459 48.3083 43.5847 49.0108 43.5833 49.72Z" fill="url(#paint3_linear_820_15225)"/>
<path d="M43.5767 49.2246C44.2765 49.2246 44.8438 48.6574 44.8438 47.9576C44.8438 47.2577 44.2765 46.6904 43.5767 46.6904C42.8769 46.6904 42.3096 47.2577 42.3096 47.9576C42.3096 48.6574 42.8769 49.2246 43.5767 49.2246Z" fill="#898D94"/>
<defs>
<linearGradient id="paint0_linear_820_15225" x1="65.1391" y1="75.5526" x2="77.6093" y2="75.5526" gradientUnits="userSpaceOnUse">
<stop offset="0.005" stop-color="#3063BA"/>
<stop offset="1" stop-color="#A3BFF6"/>
</linearGradient>
<linearGradient id="paint1_linear_820_15225" x1="41.756" y1="74.268" x2="57.0199" y2="74.268" gradientUnits="userSpaceOnUse">
<stop offset="0.005" stop-color="#3063BA"/>
<stop offset="1" stop-color="#A3BFF6"/>
</linearGradient>
<linearGradient id="paint2_linear_820_15225" x1="38.7422" y1="38.5677" x2="55.1733" y2="38.5677" gradientUnits="userSpaceOnUse">
<stop offset="0.005" stop-color="#3063BA"/>
<stop offset="1" stop-color="#A3BFF6"/>
</linearGradient>
<linearGradient id="paint3_linear_820_15225" x1="36.4017" y1="47.9626" x2="43.5797" y2="47.9626" gradientUnits="userSpaceOnUse">
<stop offset="0.005" stop-color="#3063BA"/>
<stop offset="1" stop-color="#A3BFF6"/>
</linearGradient>
</defs>
</svg>
