<svg width="106" height="106" viewBox="0 0 106 106" fill="none" xmlns="http://www.w3.org/2000/svg">
<path opacity="0.2" d="M47.5962 38.0179C41.8426 42.7694 34.5215 45.2005 27.0685 44.8342C19.6154 44.468 12.568 41.331 7.30791 36.0382C6.95664 33.849 7.13556 31.6075 7.82967 29.5018C8.52377 27.3961 9.71279 25.4876 11.297 23.9364C12.8812 22.3852 14.8143 21.2366 16.9342 20.5869C19.054 19.9373 21.2988 19.8056 23.4801 20.2029C25.8694 20.6201 28.1046 21.6658 29.9562 23.2326L47.5962 38.0179Z" fill="url(#paint0_linear_822_17364)"/>
<path d="M48.098 94.7882H10.5944C10.0855 94.7883 9.58631 94.6492 9.15079 94.386C8.71527 94.1228 8.36 93.7455 8.12346 93.295C7.88692 92.8444 7.77811 92.3377 7.80879 91.8298C7.83946 91.3219 8.00847 90.832 8.29752 90.4132L8.51626 90.085L17.4708 77.0497L22.1739 70.2094L26.1333 64.4464L27.0378 63.1339C27.2945 62.7622 27.6377 62.4582 28.0378 62.2483C28.4378 62.0384 28.8829 61.9287 29.3347 61.9287C29.7865 61.9287 30.2316 62.0384 30.6316 62.2483C31.0317 62.4582 31.3749 62.7622 31.6316 63.1339L37.5739 71.7746L42.7036 79.2219L50.3927 90.4164C50.6807 90.8351 50.849 91.3244 50.8792 91.8317C50.9095 92.3389 50.8007 92.8448 50.5646 93.2948C50.3284 93.7447 49.9738 94.1216 49.5391 94.3848C49.1044 94.648 48.6061 94.7875 48.098 94.7882Z" fill="#3063BA"/>
<path d="M54.0914 62.1512C51.9237 64.6736 48.8432 66.2322 45.5269 66.4844C42.2106 66.7367 38.9298 65.662 36.4055 63.4965C34.6117 62.0232 32.8497 60.5084 31.0723 59.0121C25.1712 54.0538 19.2704 49.0955 13.37 44.1371C10.9479 42.1441 9.28868 39.3754 8.67321 36.2997C8.05774 33.2239 8.52378 30.03 9.99248 27.2584C10.8971 25.6397 12.1502 24.2423 13.6611 23.1674C15.1721 22.0925 16.9031 21.3669 18.7289 21.0431C20.5547 20.7193 22.4296 20.8055 24.2181 21.2953C26.0065 21.7852 27.6637 22.6664 29.0697 23.8754C34.557 28.3838 39.947 33.0148 45.384 37.5834C47.4089 39.2845 49.4324 40.986 51.4544 42.6879C53.3699 44.1605 54.9137 46.0616 55.9617 48.2387C57.2604 51.2019 57.4639 54.5302 56.5359 57.6296C56.0249 59.2823 55.1943 60.8185 54.0914 62.1512C53.1595 63.2898 55.4301 63.4954 56.0492 62.7385C58.2505 60.1103 59.4598 56.793 59.4666 53.3647C59.4734 49.9364 58.2772 46.6144 56.0864 43.9774C53.8989 41.4191 50.9151 39.3837 48.3459 37.2235C42.5742 32.3716 36.8233 27.4891 31.0253 22.6701C28.332 20.4961 24.9926 19.279 21.5321 19.2101C18.0716 19.1412 14.6864 20.2244 11.9087 22.2895C10.3461 23.4627 9.03296 24.9355 8.04589 26.6218C7.05883 28.3082 6.41767 30.1743 6.15985 32.1112C5.90203 34.0481 6.03272 36.017 6.54429 37.9028C7.05586 39.7887 7.93806 41.5537 9.13936 43.0948C11.0578 45.4715 13.8326 47.3746 16.1536 49.3291L27.4466 58.8196C29.7937 60.7884 32.1245 62.7878 34.4903 64.739C37.6395 67.2734 41.6518 68.482 45.6768 68.1085C49.7019 67.7351 53.4233 65.809 56.0525 62.7385C57.0084 61.6273 54.728 61.4129 54.0914 62.1512Z" fill="#080F21"/>
<path d="M77.2838 23.1367L70.717 31.003L65.748 46.2728L76.8977 50.5548L83.2393 41.2361L82.011 25.7825L77.2838 23.1367Z" fill="#080F21"/>
<path d="M68.7507 42.0842L77.0861 46.7031L85.3943 36.9939L68.0244 35.6748L68.7507 42.0842Z" fill="#080F21"/>
<path d="M63.9182 50.3124C63.3594 50.4245 62.779 50.336 62.2789 50.0626C61.7788 49.7891 61.3911 49.3482 61.1839 48.8173L60.637 47.3899C60.1422 46.1132 60.1614 44.6945 60.6906 43.4316C60.72 44.6995 61.0772 45.938 61.7275 47.0268L63.2084 49.5315C63.3748 49.8479 63.6191 50.1167 63.9182 50.3124Z" fill="#080F21"/>
<path d="M65.9102 50.5317C65.4257 50.6224 64.925 50.5612 64.4767 50.3564C64.0283 50.1516 63.6542 49.8133 63.4056 49.3876L61.9235 46.8829C61.3777 45.9598 61.0374 44.9297 60.926 43.863C60.8147 42.7963 60.9348 41.7182 61.2782 40.7021C61.3071 40.8573 61.3473 41.0101 61.3985 41.1593C62.4388 44.4686 63.949 47.6114 65.8829 50.4912C65.8829 50.5 65.896 50.5142 65.9102 50.5317Z" fill="#080F21"/>
<path d="M67.4589 62.8908C67.3952 62.8774 67.3349 62.8512 67.2817 62.8137C67.2285 62.7762 67.1835 62.7282 67.1495 62.6727C67.1155 62.6172 67.0932 62.5553 67.0839 62.4909C67.0747 62.4264 67.0787 62.3608 67.0957 62.298L67.8898 59.3088C67.9045 59.2493 67.9308 59.1934 67.9673 59.1442C68.0037 59.095 68.0496 59.0536 68.1022 59.0222C68.1548 58.9909 68.2131 58.9703 68.2737 58.9617C68.3343 58.953 68.396 58.9565 68.4553 58.9719C68.5183 58.9859 68.5778 59.0127 68.63 59.0506C68.6823 59.0886 68.7262 59.1368 68.7591 59.1923C68.792 59.2479 68.8132 59.3096 68.8213 59.3736C68.8294 59.4377 68.8243 59.5027 68.8064 59.5647L68.0112 62.5539C67.9814 62.67 67.9078 62.7699 67.8058 62.8327C67.7038 62.8956 67.5814 62.9164 67.4643 62.8908H67.4589Z" fill="#080F21"/>
<path d="M65.8557 58.5788C65.5597 57.6577 65.532 56.6714 65.7758 55.7351L72.7638 29.5945C73.0086 28.6901 73.5942 27.9156 74.3976 27.4336C75.201 26.9515 76.1599 26.7993 77.0731 27.0088C77.5471 27.1185 77.9942 27.3227 78.3875 27.609C78.7809 27.8953 79.1126 28.258 79.3627 28.6753C79.6128 29.0926 79.7762 29.5561 79.8433 30.038C79.9103 30.5199 79.8795 31.0103 79.7528 31.4801L72.8447 57.2926C72.5843 58.2672 72.0352 59.1402 71.2697 59.7972L69.2364 61.5199C69.0279 61.6976 68.7788 61.8212 68.5111 61.8797C68.2435 61.9382 67.9655 61.9299 67.7019 61.8554C67.4382 61.7809 67.197 61.6425 66.9995 61.4526C66.8021 61.2626 66.6545 61.0269 66.5699 60.7663L65.8557 58.5788Z" fill="white"/>
<path d="M66.6485 58.3666C66.1301 56.4591 66.8115 54.7048 67.3048 52.876L69.3643 45.1749L73.3598 30.2321C73.4718 29.6476 73.6752 29.0843 73.9624 28.5631C74.1914 28.2168 74.4996 27.9302 74.8616 27.7271C75.2235 27.5239 75.6288 27.4101 76.0436 27.395C76.4584 27.3799 76.8708 27.464 77.2465 27.6404C77.6223 27.8167 77.9505 28.0801 78.204 28.4088C78.5806 28.839 78.8471 29.3542 78.9805 29.9102C79.1139 30.4661 79.1101 31.0462 78.9696 31.6004C78.7017 32.8724 78.2926 34.1313 77.9568 35.3859L73.432 52.293C72.9802 53.9807 72.5788 55.6924 72.0746 57.3659C71.4989 58.9356 70.4046 60.2618 68.9727 61.1251C68.5352 61.3876 68.6446 61.7376 67.879 61.2815C67.5672 61.0212 67.3525 60.6631 67.2698 60.2654C67.0379 59.6441 66.8574 58.9977 66.6529 58.3666C66.4888 57.8646 64.9117 58.312 65.0681 58.791C65.4651 60.0116 65.6729 61.766 67.0685 62.2254C68.5998 62.7307 69.8095 61.6785 70.8846 60.7674C72.1529 59.8753 73.1168 58.6154 73.6463 57.158C73.8126 56.6112 73.9449 56.0457 74.0926 55.4912L78.9401 37.3776C79.4596 35.4351 80.0142 33.497 80.5009 31.5457C81.4667 27.6727 77.3017 25.3835 74.0784 27.151C72.1096 28.2294 71.8307 30.2638 71.309 32.2151L68.941 41.0745L66.0688 51.8151C65.4749 54.0354 64.4435 56.4909 65.0681 58.7921C65.1982 59.2887 66.7842 58.8676 66.6485 58.3666Z" fill="#080F21"/>
<path d="M72.6018 44.3958C72.5505 44.3835 72.5021 44.3612 72.4595 44.3301C72.4169 44.2991 72.3809 44.2599 72.3534 44.2149C72.326 44.1699 72.3077 44.1199 72.2996 44.0678C72.2916 44.0157 72.2939 43.9625 72.3064 43.9113L72.9627 41.4602C72.992 41.3629 73.0566 41.28 73.1438 41.2278C73.231 41.1756 73.3345 41.1579 73.4341 41.178C73.4854 41.1903 73.5337 41.2126 73.5764 41.2437C73.6191 41.2747 73.6552 41.3138 73.6827 41.3588C73.7102 41.4038 73.7286 41.4538 73.7368 41.5059C73.745 41.558 73.7429 41.6112 73.7305 41.6625L73.0742 44.1136C73.0465 44.2119 72.9822 44.2959 72.8946 44.3484C72.807 44.4008 72.7015 44.4178 72.6018 44.3958Z" fill="#080F21"/>
<path d="M71.7148 47.6693C71.6636 47.657 71.6152 47.6347 71.5725 47.6036C71.5299 47.5726 71.4938 47.5335 71.4662 47.4885C71.4387 47.4435 71.4203 47.3935 71.4121 47.3414C71.4039 47.2893 71.4061 47.2361 71.4184 47.1848L72.0747 44.7337C72.1038 44.6362 72.1683 44.5531 72.2555 44.5007C72.3427 44.4483 72.4464 44.4303 72.5461 44.4504C72.6498 44.4755 72.7392 44.5408 72.7948 44.6319C72.8504 44.7229 72.8675 44.8323 72.8425 44.936L72.1863 47.386C72.1594 47.485 72.0954 47.5697 72.0075 47.6225C71.9197 47.6753 71.8148 47.6921 71.7148 47.6693Z" fill="#080F21"/>
<path d="M71.2023 35.3107L69.5059 38.3404C69.2979 38.7119 69.1659 39.1211 69.1172 39.5441C69.0686 39.9671 69.1044 40.3955 69.2226 40.8046C69.9048 43.4228 70.3954 46.0873 70.6904 48.7769C70.7663 49.4251 70.5821 50.0768 70.1782 50.5894C69.7743 51.102 69.1836 51.4335 68.5357 51.5113C68.0922 51.5606 67.6436 51.4874 67.2387 51.2998C66.8338 51.1122 66.488 50.8173 66.2388 50.4471C64.31 47.5643 62.8002 44.4223 61.7545 41.1152C61.4469 40.1462 61.4603 39.1039 61.7928 38.1432C62.1252 37.1825 62.7589 36.3548 63.5996 35.7832L70.7232 30.9893L71.2023 35.3107Z" fill="#080F21"/>
<path d="M86.8723 35.4051C87.6428 38.5824 87.9849 41.8485 87.8895 45.1165C87.8665 46.0737 87.6067 47.0103 87.1333 47.8426C86.66 48.675 85.9879 49.3771 85.177 49.8863C82.4893 51.6951 79.44 52.8969 76.241 53.4082C75.9939 53.4574 75.7394 53.4557 75.493 53.403C75.2466 53.3503 75.0136 53.2479 74.8082 53.1019C74.7973 53.091 74.7864 53.091 74.7645 53.0691C74.0308 52.547 73.5276 51.7611 73.3604 50.8763C73.1932 49.9914 73.375 49.0761 73.8676 48.3223C74.7554 46.9443 76.0141 45.8448 77.4989 45.1504L78.9207 44.4941L78.4614 36.3446L79.7411 31.5004L80.4739 25.627C83.8923 27.1044 87.4553 28.222 91.1051 28.9618L87.2114 33.8519C87.0402 34.0678 86.9206 34.32 86.8618 34.5892C86.8031 34.8584 86.8067 35.1375 86.8723 35.4051Z" fill="#080F21"/>
<path d="M74.3529 51.5363C74.9315 51.335 75.5112 51.1327 76.0766 50.9303C76.3993 50.81 76.7329 50.7017 77.061 50.5803C77.3444 50.4557 77.656 50.4093 77.9634 50.4458C78.2738 50.4881 78.5621 50.6301 78.7848 50.8505C78.9316 50.9751 79.0418 51.1373 79.1035 51.3198C79.1651 51.5023 79.1759 51.6981 79.1348 51.8863C79.1178 51.9523 79.1134 52.0209 79.1216 52.0886C79.1216 52.116 79.1348 52.2231 79.149 52.21C79.2491 51.921 79.2681 51.61 79.2039 51.3109C79.1397 51.0118 78.9947 50.7361 78.7848 50.5136C78.584 50.3241 78.3355 50.1926 78.0658 50.1333C77.7961 50.0739 77.5153 50.089 77.2535 50.1767C76.5535 50.4195 75.8524 50.6613 75.1666 50.9172C74.8965 51.0113 74.6198 51.1053 74.3452 51.2005C74.3048 51.2136 74.3715 51.5363 74.3584 51.5363H74.3529Z" fill="white"/>
<path d="M65.7072 48.1841C66.1056 47.8944 66.5888 47.7452 67.0812 47.7598C67.5735 47.7745 68.047 47.9522 68.4274 48.265C68.831 48.6019 69.181 48.9923 69.5583 49.3588C69.706 49.5064 69.8679 49.6552 70.0166 49.8028C70.0166 49.8028 70.0297 49.6552 70.0297 49.6409C70.0297 49.6016 70.0429 49.5064 70.0166 49.4802C69.6524 49.1302 69.3024 48.7802 68.9393 48.4433C68.8179 48.3219 68.6833 48.2005 68.5619 48.0791C68.205 47.7369 67.7468 47.5197 67.256 47.46C66.7055 47.3981 66.152 47.5474 65.7072 47.8778C65.6799 47.9041 65.6941 48.0123 65.6941 48.0386C65.6941 48.0255 65.7072 48.1873 65.7072 48.1873V48.1841Z" fill="white"/>
<path d="M75.4627 17.8492C75.0772 18.6088 74.8841 19.4515 74.9004 20.3031C74.9166 21.1548 75.1416 21.9895 75.5557 22.7339C76.7008 24.3679 78.2971 25.6331 80.1494 26.375C82.7205 27.5323 85.3963 28.4413 88.1404 29.0897C90.7172 29.7547 93.1552 30.5947 95.5658 29.0437C96.7208 28.3 97.9633 27.5923 99.0451 26.7468C99.4832 26.4325 99.7916 25.969 99.9125 25.4435C100.033 24.9179 99.9582 24.3663 99.7013 23.8922C99.365 23.4026 98.909 23.0073 98.3768 22.7437C97.5907 22.2493 96.8094 21.7459 96.0329 21.2333C93.1709 19.3955 90.464 17.3269 87.9391 15.0481C86.2099 13.4425 84.7935 10.9345 82.2516 10.6523C78.0593 10.1875 76.8354 14.8611 75.4572 17.8514C75.0197 18.804 76.4329 19.6386 76.8791 18.6804L78.2583 15.6868C78.768 14.58 79.1847 13.2237 80.3255 12.6134C82.5677 11.4103 83.9633 13.3561 85.3447 14.8009C87.0668 16.5527 88.9251 18.1652 90.9021 19.6233C91.9696 20.4304 93.0611 21.2048 94.1669 21.9562C95.4678 22.6931 96.7225 23.5088 97.924 24.3986C98.6633 25.0548 98.1777 25.3731 97.6111 25.7461L95.7102 26.9962C95.3307 27.2467 94.9555 27.5114 94.5672 27.7487C93.9712 28.0724 93.3126 28.2645 92.636 28.312C91.9594 28.3596 91.2805 28.2615 90.645 28.0243C88.1686 27.4693 85.7265 26.7706 83.3311 25.932C80.4075 24.8711 75.1422 22.7076 76.878 18.6859C77.2936 17.719 75.8816 16.8823 75.4627 17.8492Z" fill="#080F21"/>
<path d="M77.4366 82.7504L74.8116 82.1445C74.8663 81.9017 74.921 81.66 74.9603 81.4171L77.6127 81.8886C77.558 82.1718 77.5044 82.4693 77.4366 82.7504ZM77.7461 81.0135L75.0664 80.6854C75.0938 80.4437 75.1211 80.2009 75.1342 79.9592L77.8271 80.1473C77.8008 80.4349 77.7735 80.7303 77.7461 81.0135ZM77.8675 79.2636L75.1747 79.2242V79.035C75.1747 78.86 75.1747 78.6718 75.1616 78.4826L77.8544 78.3732C77.8675 78.592 77.8675 78.8173 77.8675 79.0295V79.2636ZM75.1069 77.7563C75.0807 77.5135 75.0533 77.2707 75.0129 77.029L77.6794 76.6243C77.7199 76.9076 77.7603 77.204 77.7888 77.4993L75.1069 77.7563ZM74.8882 76.3148C74.8346 76.0731 74.7788 75.8303 74.7274 75.6017L77.3261 74.9148C77.4077 75.1985 77.4749 75.4862 77.5274 75.7767L74.8882 76.3148ZM74.5119 74.8875C74.431 74.6589 74.35 74.4161 74.2691 74.2006L76.7847 73.2446C76.8941 73.5137 76.9871 73.7915 77.0811 74.0803L74.5119 74.8875ZM73.9858 73.5137C73.8901 73.2884 73.7805 73.0692 73.6577 72.8574L76.0541 71.6324C76.1886 71.8884 76.31 72.1575 76.4314 72.4265L73.9858 73.5137ZM73.3296 72.2078C73.2082 71.989 73.0736 71.7911 72.9391 71.5887L75.1933 70.1099C75.3552 70.3517 75.5029 70.6076 75.6516 70.8635L73.3296 72.2078ZM72.5213 70.9828C72.3736 70.7804 72.226 70.5923 72.0772 70.4042L74.1641 68.6936C74.3533 68.9222 74.5283 69.1518 74.7033 69.3935L72.5213 70.9828ZM71.5796 69.8387C71.4177 69.6626 71.2427 69.4745 71.0677 69.3126L72.9522 67.3876C73.1546 67.59 73.37 67.8043 73.5582 68.0198L71.5796 69.8387ZM70.5285 68.815C70.3403 68.6531 70.1522 68.4868 69.963 68.3436L71.6332 66.2293C71.8618 66.4043 72.0914 66.6067 72.3069 66.7948L70.5285 68.815ZM69.3844 67.8995C69.1821 67.765 68.9808 67.6162 68.7653 67.4948L70.1927 65.2056C70.4344 65.3674 70.6904 65.5337 70.9332 65.6912L69.3844 67.8995ZM68.1321 67.1186C67.9133 66.9971 67.7011 66.8889 67.4857 66.7817L68.6571 64.3579C68.9261 64.4793 69.1821 64.627 69.438 64.7615L68.1321 67.1186ZM66.8119 66.4853C66.5833 66.3912 66.3547 66.2971 66.1261 66.2162L67.0274 63.6842C67.2975 63.7782 67.5743 63.8865 67.8488 64.0123L66.8119 66.4853ZM65.425 65.9865C65.1964 65.9198 64.9547 65.852 64.7119 65.7984L65.3452 63.1865C65.6274 63.2532 65.9107 63.3342 66.1929 63.4151L65.425 65.9865Z" fill="#080F21"/>
<path d="M61.5334 95.3798C59.2263 95.3779 56.9459 94.8875 54.842 93.9408C52.7382 92.994 50.8587 91.6125 49.3274 89.887C47.796 88.1615 46.6474 86.1313 45.9572 83.93C45.267 81.7286 45.0509 79.406 45.3231 77.1151C45.5952 74.8242 46.3495 72.6169 47.5362 70.6385C48.723 68.6601 50.3153 66.9555 52.2083 65.6368C54.1013 64.3182 56.2522 63.4154 58.5193 62.988C60.7864 62.5605 63.1183 62.618 65.3615 63.1568L64.7282 65.7687C62.105 65.1356 59.353 65.2946 56.8203 66.2257C54.2875 67.1568 52.0877 68.8182 50.4993 70.9996C48.9108 73.181 48.0049 75.7845 47.8962 78.4808C47.7876 81.1771 48.481 83.8451 49.8888 86.1473C51.2965 88.4495 53.3555 90.2825 55.8051 91.4144C58.2547 92.5463 60.985 92.9263 63.6506 92.5064C66.3162 92.0864 68.7974 90.8853 70.7804 89.0551C72.7633 87.2248 74.159 84.8476 74.7907 82.2241L77.4026 82.8574C76.5462 86.4226 74.5155 89.5961 71.6371 91.8674C68.7587 94.1388 65.2 95.3759 61.5334 95.3798Z" fill="#080F21"/>
<path d="M54.3831 30.9899C56.4285 30.9899 58.0865 29.3318 58.0865 27.2865C58.0865 25.2411 56.4285 23.583 54.3831 23.583C52.3378 23.583 50.6797 25.2411 50.6797 27.2865C50.6797 29.3318 52.3378 30.9899 54.3831 30.9899Z" fill="#080F21"/>
<path d="M50.7077 20.3762C51.7932 20.3762 52.6731 19.4963 52.6731 18.4108C52.6731 17.3253 51.7932 16.4453 50.7077 16.4453C49.6222 16.4453 48.7422 17.3253 48.7422 18.4108C48.7422 19.4963 49.6222 20.3762 50.7077 20.3762Z" fill="#080F21"/>
<path d="M89.0575 68.2878C90.0838 68.2878 90.9158 67.4559 90.9158 66.4296C90.9158 65.4033 90.0838 64.5713 89.0575 64.5713C88.0312 64.5713 87.1992 65.4033 87.1992 66.4296C87.1992 67.4559 88.0312 68.2878 89.0575 68.2878Z" fill="#080F21"/>
<defs>
<linearGradient id="paint0_linear_822_17364" x1="7.13619" y1="32.4332" x2="47.5962" y2="32.4332" gradientUnits="userSpaceOnUse">
<stop offset="0.005" stop-color="#3063BA"/>
<stop offset="1" stop-color="#A3BFF6"/>
</linearGradient>
</defs>
</svg>
