<svg width="106" height="106" viewBox="0 0 106 106" fill="none" xmlns="http://www.w3.org/2000/svg">
<path d="M85.7895 52.5243C86.5192 51.7943 86.5142 50.6063 85.7783 49.8708C85.0425 49.1353 83.8545 49.1309 83.1249 49.8609C82.3952 50.5908 82.4002 51.7788 83.136 52.5143C83.8718 53.2498 85.0598 53.2543 85.7895 52.5243Z" fill="#080F21"/>
<path d="M91.6065 44.4105C92.7538 43.2626 92.746 41.3945 91.5889 40.238C90.4319 39.0814 88.5638 39.0744 87.4164 40.2223C86.269 41.3702 86.2769 43.2383 87.4339 44.3949C88.591 45.5514 90.4591 45.5584 91.6065 44.4105Z" fill="#080F21"/>
<path d="M45.7894 18.2956C44.9543 18.2118 44.1108 18.2815 43.3008 18.5014C43.0527 18.5667 42.7916 18.565 42.5443 18.4966C42.297 18.4282 42.0722 18.2956 41.8928 18.1121C40.2923 16.5087 38.2331 15.4423 36 15.0606C33.7668 14.6788 31.4703 15.0005 29.428 15.9812C27.3858 16.9618 25.6988 18.553 24.6005 20.5344C23.5021 22.5159 23.0468 24.7897 23.2974 27.0413C23.3196 27.2413 23.2997 27.4437 23.2389 27.6356C23.1781 27.8274 23.0777 28.0043 22.9443 28.1549C22.0487 29.1666 21.394 30.3682 21.0296 31.6693C20.6651 32.9704 20.6004 34.3372 20.8401 35.6669C21.0799 36.9967 21.6179 38.2548 22.4139 39.3466C23.2098 40.4385 24.2428 41.3358 25.4354 41.971C26.628 42.6062 27.949 42.9628 29.2992 43.014C30.6494 43.0652 31.9937 42.8097 33.231 42.2667C34.4682 41.7237 35.5663 40.9073 36.4426 39.8788C37.319 38.8504 37.9508 37.6366 38.2906 36.3289C38.3211 36.2079 38.3783 36.0952 38.4581 35.9992C38.5378 35.9033 38.6381 35.8264 38.7514 35.7742C40.4705 34.9775 41.9542 33.7499 43.0587 32.2104C43.1487 32.087 43.2722 31.9919 43.4145 31.9363C43.5568 31.8808 43.7121 31.867 43.8619 31.8968C44.2715 31.9753 44.6876 32.015 45.1046 32.0152C46.8696 32.0165 48.5674 31.339 49.8468 30.1232C51.1262 28.9073 51.8891 27.246 51.9776 25.4833C52.0661 23.7205 51.4735 21.9912 50.3224 20.6533C49.1713 19.3154 47.5499 18.4712 45.7937 18.2956H45.7894Z" fill="white"/>
<path d="M46.2742 17.9133C45.5216 17.8801 44.7675 17.9069 44.0192 17.9933C42.6538 18.1106 42.0992 17.252 41.0816 16.5469C39.7202 15.6102 38.1728 14.9783 36.545 14.6941C33.4691 14.1776 30.3112 14.8297 27.6915 16.5223C25.2181 18.1133 23.4496 20.5928 22.7506 23.4494C22.5806 24.1846 22.4849 24.9351 22.4648 25.6894C22.453 26.0798 22.4946 26.4691 22.4882 26.8627C22.4695 27.582 22.1971 28.2716 21.7192 28.8095C20.6556 30.2556 20.0382 31.9812 19.9431 33.7738C19.5943 40.6464 26.6259 44.9814 32.8233 42.8139C34.2454 42.3201 35.5392 41.5147 36.61 40.4566C37.6397 39.3314 38.4371 38.0141 38.9567 36.5802C39.3279 35.744 40.3125 35.4154 41.0549 34.8917C41.8026 34.3624 42.485 33.7466 43.088 33.057C43.5051 32.5823 43.5573 32.417 44.1931 32.3946C44.5131 32.3839 44.8331 32.4223 45.1531 32.4095C45.8799 32.3754 46.5993 32.2485 47.2939 32.0319C48.8379 31.5908 50.2004 30.6675 51.1823 29.3968C52.1641 28.1262 52.7138 26.5748 52.7511 24.9694C52.7161 23.2071 52.0386 21.5182 50.8458 20.2203C49.6531 18.9225 48.0273 18.1051 46.2742 17.9218C45.8422 17.8664 44.4725 18.5821 45.3088 18.6877C46.8154 18.8718 48.2153 19.5605 49.2806 20.6417C50.3459 21.7228 51.0138 23.1328 51.1756 24.6419C51.3438 26.1106 50.9984 27.5923 50.198 28.8352C49.3977 30.0781 48.1918 31.0056 46.7851 31.4601C45.6118 31.7652 44.3957 31.2628 43.2651 31.6372C42.782 31.8172 42.3688 32.1464 42.0853 32.577C41.4846 33.3314 40.7903 34.0063 40.0191 34.5855C39.4271 35.0122 38.7327 35.2735 38.145 35.6927C37.602 36.08 37.5274 36.5344 37.3119 37.1488C36.8251 38.5441 35.9845 39.7894 34.8724 40.7627C29.763 45.2075 22.1192 41.0176 21.5186 34.7466C21.3673 33.1489 21.6573 31.5402 22.357 30.0959C22.7499 29.4218 23.1853 28.7733 23.6605 28.1545C24.0296 27.519 24.1554 26.7712 24.0147 26.0499C23.9218 23.2627 24.9189 20.549 26.7944 18.4851C27.9878 17.1703 29.5211 16.2106 31.2253 15.7118C32.9294 15.213 34.7382 15.1945 36.4522 15.6583C38.1002 16.1336 39.6175 16.9801 40.8874 18.133C42.3808 19.4216 43.4805 18.5597 45.3109 18.6877C45.7355 18.709 47.1008 17.9698 46.2742 17.9133Z" fill="#080F21"/>
<path d="M34.9435 23.1452C34.431 22.3401 33.6565 21.7363 32.7506 21.4357C31.8447 21.1351 30.8629 21.1561 29.9707 21.4951C29.5161 21.6683 29.096 21.9211 28.7301 22.2418C28.612 22.3479 28.468 22.4212 28.3126 22.4542C28.1572 22.4871 27.9959 22.4786 27.8448 22.4295C26.9852 22.1387 26.0747 22.0295 25.1708 22.1088C24.2669 22.1882 23.3893 22.4543 22.5935 22.8903C21.4179 23.5491 20.4701 24.5493 19.8756 25.7587C19.2811 26.9681 19.068 28.3295 19.2644 29.6627C19.3924 30.5669 19.7148 31.4326 20.2095 32.2003C20.2758 32.3025 20.3201 32.4174 20.3395 32.5377C20.359 32.658 20.3532 32.7811 20.3225 32.899C19.9583 34.2506 20.1361 35.6909 20.8179 36.9134C21.4998 38.1359 22.6319 39.044 23.9733 39.4442C25.3146 39.8445 26.7592 39.7054 27.9995 39.0565C29.2399 38.4076 30.1779 37.3001 30.6139 35.97C30.6744 35.7845 30.7788 35.6165 30.9183 35.4802C31.0578 35.3439 31.2282 35.2433 31.415 35.187C32.0199 35.0017 32.5805 34.6945 33.0624 34.2845C33.5442 33.8745 33.9371 33.3702 34.2168 32.8027C34.4966 32.2352 34.6573 31.6165 34.6891 30.9846C34.7209 30.3527 34.6231 29.721 34.4017 29.1283C34.3352 28.9424 34.3191 28.7422 34.3551 28.5481C34.3911 28.354 34.4778 28.1729 34.6065 28.0232C35.1747 27.3519 35.5138 26.5168 35.5744 25.6395C35.635 24.7621 35.414 23.8883 34.9435 23.1452Z" fill="#3A1E44"/>
<path d="M34.1673 22.8325C33.6546 22.0275 32.8801 21.4239 31.9742 21.1233C31.0684 20.8227 30.0867 20.8436 29.1944 21.1824C28.7398 21.3556 28.3197 21.6084 27.9539 21.929C27.8355 22.0352 27.6913 22.1084 27.5358 22.1414C27.3802 22.1743 27.2187 22.1659 27.0674 22.1168C26.2081 21.8257 25.2977 21.7163 24.3939 21.7956C23.4901 21.875 22.6127 22.1412 21.8172 22.5776C20.6413 23.236 19.6933 24.2363 19.0986 25.4457C18.5038 26.6551 18.2906 28.0166 18.4871 29.3499C18.6154 30.2542 18.9382 31.1199 19.4332 31.8876C19.4987 31.99 19.542 32.1049 19.5603 32.2251C19.5787 32.3452 19.5717 32.4679 19.5399 32.5852C19.1738 33.9373 19.3504 35.3789 20.0319 36.6028C20.7135 37.8266 21.8462 38.7357 23.1885 39.1364C24.5308 39.5371 25.9765 39.3976 27.2174 38.7476C28.4583 38.0977 29.3962 36.9888 29.8312 35.6572C29.8916 35.4716 29.9961 35.3033 30.1358 35.1669C30.2756 35.0306 30.4463 34.9301 30.6334 34.8743C31.2381 34.6884 31.7984 34.3809 32.28 33.9707C32.7616 33.5605 33.1543 33.0562 33.434 32.4887C33.7137 31.9212 33.8745 31.3026 33.9065 30.6708C33.9385 30.039 33.841 29.4073 33.6201 28.8145C33.5532 28.6289 33.5368 28.4289 33.5726 28.2349C33.6084 28.0409 33.6951 27.8599 33.8238 27.7104C34.3927 27.0397 34.7327 26.205 34.7945 25.3277C34.8563 24.4504 34.6366 23.5763 34.1673 22.8325Z" fill="white"/>
<path d="M34.8777 22.5127C34.3457 21.7429 33.6034 21.1424 32.7394 20.783C31.8753 20.4236 30.9261 20.3205 30.0051 20.486C29.5172 20.5638 29.0421 20.7073 28.5928 20.9127C28.2515 21.0706 27.7896 21.573 27.4557 21.638C27.7032 21.59 26.9661 21.4844 26.9608 21.4834C26.7133 21.4236 26.4605 21.3767 26.2077 21.3415C25.5538 21.2503 24.8907 21.2449 24.2354 21.3255C23.2398 21.4335 22.2767 21.7433 21.4049 22.2361C20.5331 22.7288 19.7709 23.3942 19.1649 24.1914C18.5589 24.9887 18.1218 25.9011 17.8804 26.873C17.6389 27.8449 17.5982 28.8558 17.7607 29.844C17.8645 30.3859 18.0377 30.9122 18.2759 31.4099C18.5374 31.7819 18.7054 32.2114 18.7655 32.6622C18.7655 33.2105 18.5639 33.7502 18.5831 34.3187C18.6005 34.9358 18.7213 35.5455 18.9404 36.1225C19.2775 36.984 19.8137 37.7534 20.5052 38.3678C21.1968 38.9822 22.024 39.4242 22.9191 39.6575C23.8648 39.897 24.8518 39.924 25.8092 39.7366C26.7666 39.5492 27.6706 39.1521 28.4563 38.5738C29.1607 38.0535 29.7449 37.3877 30.1694 36.6217C30.4243 36.1534 30.5 35.5166 30.9928 35.2489C31.4914 35.0349 31.9763 34.7901 32.4446 34.5161C33.2954 33.9319 33.9513 33.1057 34.3275 32.1446C34.7037 31.1835 34.7827 30.1316 34.5545 29.1251C34.4413 28.8528 34.3694 28.5652 34.3411 28.2717C34.3731 27.8867 34.6857 27.6317 34.882 27.3224C35.147 26.9022 35.3433 26.4423 35.4633 25.9602C35.5978 25.3751 35.6157 24.7691 35.5159 24.177C35.4162 23.585 35.2008 23.0183 34.882 22.5095C34.5843 21.9964 33.0899 22.5212 33.4569 23.1495C33.9464 23.9595 34.1267 24.919 33.9646 25.8514C33.8763 26.3381 33.6925 26.8025 33.4238 27.2178C33.1725 27.5094 32.9714 27.8407 32.8286 28.1981C32.6377 28.9544 33.1358 29.7406 33.1411 30.5139C33.1502 31.3877 32.8927 32.2435 32.403 32.9673C31.9369 33.6303 31.2792 34.135 30.5182 34.4137C30.2024 34.507 29.9107 34.6679 29.6633 34.8853C29.4159 35.1026 29.2188 35.3712 29.0856 35.6724C28.8236 36.4852 28.3435 37.2105 27.6976 37.7691C27.0517 38.3278 26.2647 38.6984 25.4226 38.8404C24.5891 38.9111 23.7516 38.7628 22.9931 38.4101C22.2346 38.0574 21.5814 37.5126 21.0983 36.8297C20.5669 36.091 20.2425 35.2238 20.1586 34.3177C20.0775 33.4643 20.5724 32.4691 20.2076 31.6819C19.8132 30.9736 19.5117 30.2176 19.3105 29.4323C19.1406 28.5211 19.1712 27.5838 19.4001 26.6856C19.6029 25.8359 19.9925 25.042 20.5405 24.3617C21.0885 23.6814 21.7812 23.1318 22.5682 22.7527C23.6585 22.2596 24.8822 22.1439 26.0456 22.4242C26.4153 22.5783 26.8153 22.646 27.2151 22.6221C27.6149 22.5983 28.004 22.4835 28.3528 22.2866C28.7328 21.9529 29.1826 21.7085 29.6694 21.5714C30.1561 21.4343 30.6674 21.4078 31.1656 21.494C32.1157 21.7299 32.9371 22.3253 33.4569 23.1549C33.7886 23.6573 35.2788 23.1101 34.8777 22.5127Z" fill="#080F21"/>
<path d="M75.9065 42.2998V76.8496H72.2872V64.284C72.2877 62.939 71.7746 61.6446 70.8527 60.6652C69.9308 59.6858 68.6697 59.0954 67.3271 59.0146V42.2998C67.3271 41.1625 67.7789 40.0718 68.5831 39.2677C69.3873 38.4635 70.4779 38.0117 71.6152 38.0117C72.7525 38.0117 73.8432 38.4635 74.6473 39.2677C75.4515 40.0718 75.9033 41.1625 75.9033 42.2998H75.9065Z" fill="white"/>
<path d="M75.1265 42.3718V76.9217L76.1836 76.3275H72.5675L73.0699 76.7798V66.9738C73.1361 65.7626 73.1169 64.5481 73.0123 63.3396C72.7922 62.0396 72.138 60.8526 71.1563 59.9722C70.1747 59.0919 68.9237 58.5704 67.6075 58.4926L68.1099 58.9449V47.6114C68.1099 45.9047 68.0885 44.198 68.1099 42.4913C68.0746 41.881 68.1794 41.2706 68.4165 40.7071C68.6535 40.1435 69.0164 39.6417 69.4773 39.2401C71.9019 37.3073 74.9889 39.6572 75.1308 42.374C75.1692 43.1356 76.7212 42.8593 76.6902 42.2321C76.6596 41.4461 76.442 40.6786 76.0554 39.9935C75.6688 39.3084 75.1244 38.7254 74.4673 38.2928C73.8103 37.8602 73.0596 37.5905 72.2774 37.5061C71.4953 37.4217 70.7043 37.525 69.9702 37.8075C68.9496 38.1623 68.0686 38.8328 67.4549 39.722C66.8411 40.6111 66.5266 41.6727 66.5568 42.7527C66.5301 46.7655 66.5568 50.7805 66.5568 54.7934V59.0889C66.5568 59.3779 66.7893 59.5156 67.0581 59.5412C68.2835 59.6567 69.4212 60.2273 70.2466 61.1403C71.072 62.0534 71.5252 63.2427 71.5168 64.4735C71.551 65.7482 71.5168 67.0282 71.5168 68.3029V76.9238C71.5191 76.9867 71.534 77.0486 71.5607 77.1056C71.5873 77.1627 71.6251 77.2138 71.6718 77.256C71.7186 77.2982 71.7733 77.3305 71.8328 77.3512C71.8923 77.3718 71.9554 77.3802 72.0182 77.3761H75.6342C75.9425 77.3761 76.6924 77.2385 76.6924 76.7819V42.2321C76.686 41.4705 75.1265 41.7361 75.1265 42.3718Z" fill="#080F21"/>
<path d="M73.5725 76.8519V42.3C73.5742 41.3655 73.2698 40.4561 72.7057 39.711C72.1417 38.9659 71.3491 38.4261 70.4492 38.1741C70.8283 38.0637 71.2213 38.0083 71.6162 38.0098C72.1797 38.0094 72.7378 38.1201 73.2585 38.3355C73.7792 38.551 74.2523 38.867 74.6507 39.2654C75.0492 39.6639 75.3652 40.137 75.5806 40.6577C75.7961 41.1784 75.9068 41.7365 75.9064 42.3V76.8519" fill="#080F21"/>
<path opacity="0.2" d="M76.7121 43.665H66.6533V52.8204H76.7121V43.665Z" fill="url(#paint0_linear_822_17443)"/>
<path d="M63.457 42.3V59.8575L61.1316 60.5722L54.8809 62.4816V42.3C54.8805 41.3653 55.1857 40.456 55.75 39.7108C56.3142 38.9656 57.1065 38.4252 58.0062 38.1719C58.0169 38.1719 58.0382 38.1612 58.0489 38.1612C58.2062 38.117 58.3667 38.0849 58.5289 38.0652C58.5528 38.0565 58.5782 38.0529 58.6036 38.0546C58.7904 38.0241 58.9796 38.0098 59.1689 38.0119C60.306 38.0125 61.3964 38.4644 62.2004 39.2685C63.0045 40.0725 63.4564 41.1629 63.457 42.3Z" fill="white"/>
<path d="M62.6816 42.3794V59.937L63.3376 59.4036C60.4803 60.2826 57.6216 61.1573 54.7615 62.0277L55.6596 62.401C55.6596 55.7183 55.5028 49.0163 55.6596 42.3357C55.6277 41.6081 55.8042 40.8865 56.1683 40.2558C56.5325 39.625 57.0691 39.1113 57.7151 38.7751C60.2549 37.6391 62.5664 40.086 62.6859 42.5085C62.7157 43.0951 64.2645 42.7592 64.2315 42.0935C64.0352 38.1266 59.4826 36.3335 56.3316 38.4231C54.4831 39.6476 54.1055 41.4983 54.1055 43.5325V62.5621C54.1055 63.0069 54.6815 63.0336 55.0036 62.9344C57.863 62.0618 60.7217 61.1871 63.5797 60.3103C63.7835 60.2485 64.2357 60.0618 64.2357 59.777V42.2162C64.2357 41.4994 62.6816 41.7895 62.6816 42.3794Z" fill="#080F21"/>
<path d="M63.4566 42.3V59.8575L61.1312 60.5722V42.3C61.1319 41.7353 61.021 41.1761 60.805 40.6544C60.589 40.1328 60.2721 39.6589 59.8726 39.2599C59.3507 38.7473 58.709 38.3733 58.0059 38.1719C58.0165 38.1719 58.0379 38.1612 58.0485 38.1612C58.2058 38.117 58.3663 38.0849 58.5285 38.0652C58.5524 38.0565 58.5778 38.0529 58.6032 38.0546C58.7901 38.0241 58.9792 38.0098 59.1685 38.0119C59.7443 38.0096 60.3143 38.1258 60.8432 38.3532C61.3542 38.5615 61.8184 38.8697 62.2086 39.2599C62.5988 39.6501 62.907 40.1143 63.1153 40.6253C63.3427 41.1542 63.4589 41.7242 63.4566 42.3Z" fill="#080F21"/>
<path d="M40.7679 66.78L19.8716 73.1587C19.1192 73.3872 18.4014 73.7174 17.7383 74.14L19.5623 56.6166L19.957 52.8192L20.3196 49.3205L20.9063 43.6671L21.493 38.0137H37.7812L38.3679 43.6671L38.9546 49.3205L39.3279 52.8192L39.7119 56.6166L40.7679 66.78Z" fill="#3063BA"/>
<path d="M45.8827 14.9118C48.3522 14.9118 50.3542 12.9098 50.3542 10.4403C50.3542 7.97071 48.3522 5.96875 45.8827 5.96875C43.4131 5.96875 41.4111 7.97071 41.4111 10.4403C41.4111 12.9098 43.4131 14.9118 45.8827 14.9118Z" fill="#080F21"/>
<path d="M56.0807 14.3029C57.3484 14.3029 58.3762 13.2752 58.3762 12.0074C58.3762 10.7396 57.3484 9.71191 56.0807 9.71191C54.8129 9.71191 53.7852 10.7396 53.7852 12.0074C53.7852 13.2752 54.8129 14.3029 56.0807 14.3029Z" fill="#080F21"/>
<path d="M88.3543 64.7969V95.1333C88.3514 96.3744 87.8572 97.5638 86.9796 98.4414C86.102 99.3189 84.9126 99.8132 83.6715 99.816H66.9993V99.1013H72.2868V64.2848C72.2874 62.9398 71.7742 61.6454 70.8523 60.666C69.9305 59.6866 68.6694 59.0962 67.3268 59.0154C67.2201 59.0048 67.1028 59.0048 66.9961 59.0048V58.5781H82.1323C82.9492 58.5777 83.7582 58.7382 84.5131 59.0506C85.268 59.3629 85.9539 59.8209 86.5317 60.3984C87.1095 60.9759 87.5679 61.6616 87.8806 62.4163C88.1933 63.171 88.3543 63.9799 88.3543 64.7969Z" fill="#080F21"/>
<path opacity="0.2" d="M71.5655 64.5902V79.5408C68.9075 80.6792 66.0354 81.2319 63.1447 81.1613C60.254 81.0906 57.4124 80.3983 54.8131 79.1314C52.2139 77.8645 49.9179 76.0528 48.0814 73.8193C46.2448 71.5859 44.9108 68.9831 44.1699 66.188L65.0982 59.7997C65.8467 59.5715 66.6383 59.5219 67.4095 59.6549C68.1807 59.7879 68.9099 60.0998 69.5387 60.5656C70.1676 61.0314 70.6785 61.6381 71.0305 62.337C71.3824 63.0359 71.5657 63.8076 71.5655 64.5902Z" fill="url(#paint1_linear_822_17443)"/>
<path opacity="0.2" d="M19.1043 79.9371C19.1043 84.7447 17.3197 88.6412 15.116 88.6412C14.8377 88.6399 14.5628 88.5795 14.3096 88.4642V81.7899C14.3096 81.663 14.3096 81.5382 14.3181 81.4134C14.376 80.0234 14.7558 78.6658 15.4278 77.4477C16.0997 76.2295 17.0453 75.184 18.1902 74.3936C18.8201 76.1729 19.1296 78.0498 19.1043 79.9371Z" fill="url(#paint2_linear_822_17443)"/>
<path d="M71.113 64.3779V99.1944L72.393 98.2696H19.6691C18.5455 98.418 17.4046 98.188 16.4264 97.6157C14.229 96.0807 14.677 93.2476 14.677 90.9244V82.7504C14.677 79.2229 15.8109 75.8255 19.2723 74.2479C20.7438 73.669 22.2513 73.1862 23.7854 72.8026L31.9263 70.3172C35.7529 69.1488 39.5797 67.9826 43.407 66.8185C47.2933 65.6401 51.1774 64.4554 55.0594 63.2643L61.0862 61.4275L63.6355 60.6445C64.783 60.1404 66.0218 59.8779 67.2751 59.8733C68.3414 60.0565 69.3099 60.6073 70.0124 61.4302C70.7148 62.2531 71.1069 63.296 71.1204 64.3779C71.161 65.5726 73.5013 65.2014 73.4671 64.1912C73.3178 59.8349 69.2431 57.3581 65.1865 58.4919C63.2761 59.0253 61.3891 59.6557 59.4915 60.2349C54.9403 61.6244 50.3891 63.0133 45.838 64.4014C37.4005 66.9756 28.9624 69.5492 20.5235 72.122C19.0436 72.4813 17.6523 73.1379 16.4341 74.0519C15.2159 74.9658 14.1964 76.118 13.4375 77.4383C12.1575 79.8672 12.3335 82.4912 12.3335 85.1323V93.6444C12.2641 94.6582 12.4065 95.6754 12.7516 96.6311C13.1464 97.5218 13.769 98.2926 14.5567 98.8658C15.3443 99.4391 16.2692 99.7945 17.2381 99.8962C19.93 100.062 22.6291 100.075 25.3225 99.9346H72.1797C72.6223 99.9346 73.4597 99.5474 73.4597 99.0109V64.1902C73.4597 62.9997 71.113 63.3592 71.113 64.3779Z" fill="#080F21"/>
<path opacity="0.2" d="M64.0371 43.665H54.0732V52.8204H64.0371V43.665Z" fill="url(#paint3_linear_822_17443)"/>
<path d="M27.7012 83.6182C28.6896 83.6182 29.6376 84.0108 30.3365 84.7098C31.0355 85.4087 31.4281 86.3567 31.4281 87.3452V93.6066H23.9678V87.3452C23.9678 86.8552 24.0644 86.37 24.2521 85.9174C24.4398 85.4648 24.7149 85.0537 25.0616 84.7075C25.4084 84.3614 25.82 84.087 26.2729 83.9C26.7259 83.7131 27.2112 83.6173 27.7012 83.6182Z" fill="#3063BA"/>
<path d="M42.9916 83.6182C43.9801 83.6182 44.9281 84.0108 45.627 84.7098C46.326 85.4087 46.7186 86.3567 46.7186 87.3452V93.6066H39.2646V87.3452C39.2646 86.3567 39.6573 85.4087 40.3563 84.7098C41.0552 84.0108 42.0032 83.6182 42.9916 83.6182Z" fill="#3063BA"/>
<path d="M58.2846 83.6182C59.2731 83.6182 60.221 84.0108 60.92 84.7098C61.6189 85.4087 62.0116 86.3567 62.0116 87.3452V93.6066H54.5576V87.3452C54.5576 86.3567 54.9503 85.4087 55.6492 84.7098C56.3482 84.0108 57.2961 83.6182 58.2846 83.6182Z" fill="#3063BA"/>
<defs>
<linearGradient id="paint0_linear_822_17443" x1="66.6533" y1="48.2432" x2="76.7121" y2="48.2432" gradientUnits="userSpaceOnUse">
<stop offset="0.005" stop-color="#3063BA"/>
<stop offset="1" stop-color="#A3BFF6"/>
</linearGradient>
<linearGradient id="paint1_linear_822_17443" x1="44.1699" y1="70.3727" x2="71.5655" y2="70.3727" gradientUnits="userSpaceOnUse">
<stop offset="0.005" stop-color="#3063BA"/>
<stop offset="1" stop-color="#A3BFF6"/>
</linearGradient>
<linearGradient id="paint2_linear_822_17443" x1="14.3096" y1="81.5158" x2="19.1043" y2="81.5158" gradientUnits="userSpaceOnUse">
<stop offset="0.005" stop-color="#3063BA"/>
<stop offset="1" stop-color="#A3BFF6"/>
</linearGradient>
<linearGradient id="paint3_linear_822_17443" x1="54.0732" y1="48.2432" x2="64.0371" y2="48.2432" gradientUnits="userSpaceOnUse">
<stop offset="0.005" stop-color="#3063BA"/>
<stop offset="1" stop-color="#A3BFF6"/>
</linearGradient>
</defs>
</svg>
