<?xml version="1.0" encoding="UTF-8"?>
<!DOCTYPE svg PUBLIC "-//W3C//DTD SVG 1.1//EN" "http://www.w3.org/Graphics/SVG/1.1/DTD/svg11.dtd">
<!-- Creator: CorelDRAW 2017 -->
<svg xmlns="http://www.w3.org/2000/svg" xml:space="preserve" width="3.70333in" height="2.08333in" version="1.1" style="shape-rendering:geometricPrecision; text-rendering:geometricPrecision; image-rendering:optimizeQuality; fill-rule:evenodd; clip-rule:evenodd"
viewBox="0 0 3703 2083"
 xmlns:xlink="http://www.w3.org/1999/xlink">
 <defs>
  <style type="text/css">
   <![CDATA[
    .str1 {stroke:black;stroke-width:10.4134}
    .str0 {stroke:#373435;stroke-width:6.94488}
    .fil3 {fill:#FEFEFE}
    .fil11 {fill:#FFF212}
    .fil12 {fill:#F58634}
    .fil10 {fill:black}
    .fil4 {fill:#283593}
    .fil5 {fill:#3F51B5}
    .fil8 {fill:#AD1457}
    .fil6 {fill:#BB193B}
    .fil0 {fill:#E7E8E8}
    .fil9 {fill:#E91E63}
    .fil7 {fill:#EF314C}
    .fil2 {fill:#373435;fill-opacity:0.031373}
    .fil1 {fill:#373435;fill-opacity:0.101961}
   ]]>
  </style>
 </defs>
 <g id="Layer_x0020_1">
  <metadata id="CorelCorpID_0Corel-Layer"/>
  <polygon class="fil0" points="-1,0 3704,0 3704,2083 -1,2083 "/>
  <polygon class="fil0" points="1669,2083 -1,2083 -1,1289 1380,342 1347,366 1315,391 1285,417 1255,445 1227,475 1201,505 1176,537 1152,570 1130,604 1110,640 1091,676 1075,713 1059,752 1046,791 1035,831 1025,872 1018,913 1013,955 1009,998 1008,1042 1009,1085 1013,1128 1018,1170 1025,1212 1035,1252 1046,1292 1059,1332 1075,1370 1091,1407 1110,1444 1130,1479 1152,1513 1176,1546 1201,1578 1227,1609 1255,1638 1285,1666 1315,1692 1347,1718 1380,1741 1414,1763 1450,1783 1486,1802 1523,1819 1562,1834 1601,1847 1641,1859 1682,1868 1723,1875 1765,1881 1808,1884 1852,1885 1895,1884 1938,1881 1980,1875 2022,1868 2062,1859 2102,1847 2142,1834 2180,1819 2217,1802 2254,1783 "/>
  <polygon class="fil1" points="1669,2083 -1,2083 -1,1289 1380,342 1347,366 1315,391 1285,417 1255,445 1227,475 1201,505 1176,537 1152,570 1130,604 1110,640 1091,676 1075,713 1059,752 1046,791 1035,831 1025,872 1018,913 1013,955 1009,998 1008,1042 1009,1085 1013,1128 1018,1170 1025,1212 1035,1252 1046,1292 1059,1332 1075,1370 1091,1407 1110,1444 1130,1479 1152,1513 1176,1546 1201,1578 1227,1609 1255,1638 1285,1666 1315,1692 1347,1718 1380,1741 1414,1763 1450,1783 1486,1802 1523,1819 1562,1834 1601,1847 1641,1859 1682,1868 1723,1875 1765,1881 1808,1884 1852,1885 1895,1884 1938,1881 1980,1875 2022,1868 2062,1859 2102,1847 2142,1834 2180,1819 2217,1802 2254,1783 "/>
  <path class="fil2" d="M220 1826c7,11 12,21 16,32 3,7 5,19 21,19 5,0 11,-1 17,-5 7,-3 12,-9 14,-17l6 -21 15 -7 1 1c-2,8 -3,15 -3,21 0,18 15,24 27,24 7,0 13,-3 13,-10 0,-8 -4,-22 -8,-35 7,-7 14,-14 22,-20l1 1c4,15 6,30 6,40 0,10 -4,20 -8,27 -7,14 -20,25 -36,25 -12,0 -25,-6 -34,-17l-1 0c-9,11 -22,20 -43,20l-7 0c-1,14 -4,24 -9,33 -13,25 -50,42 -85,42 -49,0 -73,-28 -73,-66 0,-23 8,-45 19,-60l10 4c-7,14 -12,27 -12,40 0,35 29,52 62,52 31,0 68,-19 75,-42 -3,-25 -12,-36 -26,-59 4,-7 10,-15 17,-23l1 0 0 0 2 1 0 0 0 0zm564 -133l0 0c10,6 20,14 30,23 -6,8 -12,15 -21,21 -10,-8 -20,-15 -30,-22 7,-8 14,-15 20,-22l0 0 1 0zm5 96l0 0c-17,0 -30,11 -30,19 0,17 33,23 73,23 -5,-20 -22,-42 -43,-42zm-37 93l0 0c22,0 41,-1 55,-4 16,-4 30,-12 30,-18 0,-1 0,-3 -1,-5 -9,1 -19,1 -29,1 -29,0 -52,-7 -61,-23 -2,-4 -4,-10 -4,-15 0,-16 7,-32 19,-42 10,-9 21,-14 33,-14 20,0 37,17 48,43 6,14 11,30 11,51 0,14 -4,25 -12,34 -16,16 -45,21 -90,21l-20 0 -5 0c-11,0 -19,-2 -25,-7l-1 0c0,2 1,5 1,7 0,10 -3,23 -10,33 -20,30 -42,43 -60,43 -19,0 -42,-7 -63,-17l4 -7c7,3 16,5 29,5 34,0 78,-33 84,-64 -1,-2 -4,-6 -7,-10 -10,-12 -16,-22 -22,-32 5,-10 10,-18 14,-25l2 0c14,29 28,46 57,46l5 0 21 0 0 0 -3 -1 0 0 0 0zm-146 31l0 0 3 1c15,-14 22,-23 22,-35 1,-9 2,-22 2,-35 0,-50 -1,-104 -7,-151l-2 -1c-8,6 -18,15 -25,23 4,37 9,94 9,133l0 21c0,14 0,29 -3,43l1 1 0 0 0 0zm-151 -62l0 0 -10 0c-1,7 -1,12 -1,16 0,32 20,45 48,45 24,0 48,-9 70,-20 7,-12 11,-24 11,-38 0,-18 -10,-35 -25,-51 -17,-18 -40,-34 -60,-44l-2 0c-6,8 -13,19 -13,24 0,3 2,5 8,8 18,8 37,19 52,32 15,14 24,29 24,41 0,2 -2,4 -5,5 -18,9 -35,14 -55,14 -32,0 -41,-15 -41,-33l-1 1 0 0 0 0zm-52 -52l0 0 -1 0c-6,9 -12,18 -18,27 11,14 21,30 30,47 2,4 4,8 4,11 0,2 -1,6 -3,9 -17,32 -53,58 -89,58 -11,0 -20,-2 -28,-4l-3 7c25,11 46,17 65,17 13,0 26,-6 42,-20 20,-20 32,-41 32,-60l0 -24c0,-19 -6,-30 -13,-41l-18 -29 0 0 0 2 0 0 0 0z"/>
  <circle class="fil3" cx="1852" cy="1042" r="843"/>
  <path id="Shape" class="fil4" d="M2220 1186c-29,66 -40,138 -31,209 5,46 14,92 27,137 7,23 16,46 27,67 13,20 25,42 36,64l-565 2 0 0c-2,-7 -36,-139 -111,-173 -14,5 -29,10 -44,15 -50,17 -101,32 -153,44 -14,3 -29,1 -42,-6l0 0c-14,-9 -25,-23 -30,-39 -6,-16 -8,-33 -7,-50 5,-17 7,-36 5,-54 -6,-23 -28,-28 -45,-40 -14,-10 11,-42 11,-42 0,0 -27,-20 -36,-28 -10,-8 4,-22 16,-48 5,-11 7,-24 4,-36 -5,-24 -41,-33 -59,-47 -8,-6 -22,-16 -24,-27 -2,-16 16,-38 26,-50 39,-51 73,-105 100,-163 4,-6 6,-13 6,-20 0,-32 -47,-45 -52,-77 0,-9 1,-18 5,-27 13,-28 24,-56 33,-85 5,-27 13,-53 21,-79 19,-52 48,-99 85,-139 55,-58 137,-87 213,-102 68,-15 138,-25 208,-30 2,0 5,0 7,0 144,-7 258,42 369,129 61,45 105,109 127,182 16,60 24,122 23,184 0,61 -18,122 -52,173 -34,53 -78,99 -103,157z"/>
  <path id="Shape_0" class="fil5" d="M2152 1186c-29,66 -40,138 -31,209 5,46 14,92 27,137 7,23 16,46 27,67 13,20 25,42 36,64l-497 1c-2,-7 -36,-139 -111,-173 -14,5 -29,10 -44,15 -7,-6 -15,-11 -24,-15 -54,19 -120,40 -171,53l0 0c-14,-9 -25,-23 -30,-39 -6,-16 -8,-33 -7,-50 5,-17 7,-36 5,-54 -6,-23 -28,-28 -45,-40 -14,-10 11,-42 11,-42 0,0 -27,-20 -36,-28 -10,-8 4,-22 16,-48 5,-11 7,-24 4,-36 -5,-24 -41,-33 -59,-47 -8,-6 -22,-16 -24,-27 -2,-16 16,-38 26,-50 39,-51 73,-105 100,-163 4,-6 6,-13 6,-20 0,-32 -47,-45 -52,-77 0,-9 1,-18 5,-27 13,-28 24,-56 33,-85 5,-27 13,-53 21,-79 19,-52 48,-99 85,-139 55,-58 137,-87 213,-102 68,-15 138,-25 208,-30 116,7 213,54 308,128 61,45 105,109 127,182 16,60 24,122 23,184 0,61 -18,122 -52,173 -34,53 -78,99 -103,157z"/>
  <path id="Shape_1" class="fil6" d="M2195 1043c0,0 0,1 -1,1 -43,51 -90,116 -90,196 0,26 -3,52 -9,77 -3,11 -12,18 -21,18 -9,0 -18,-7 -21,-18 -5,-13 -11,-25 -18,-35 -20,-26 -41,-49 -65,-69 -64,-58 -49,-159 -34,-212 1,-5 3,-10 4,-14l255 58z"/>
  <path id="Shape_2" class="fil7" d="M2127 1043c0,0 0,1 -1,1 -43,51 -90,116 -90,196 0,14 -1,28 -2,42 -20,-26 -41,-49 -65,-69 -64,-58 -49,-159 -34,-212l192 43z"/>
  <path id="Shape_3" class="fil8" d="M2284 854c0,-16 -1,-32 -2,-47 -3,-33 -8,-65 -17,-96 -12,-46 -37,-88 -71,-120 -8,-8 -16,-16 -25,-23 -5,-4 -10,-8 -15,-12 -17,-13 -34,-25 -50,-36 -11,-7 -21,-13 -31,-19 -39,-22 -82,-37 -126,-45 -15,-2 -30,-4 -45,-5 -6,0 -12,0 -18,0 -8,0 -16,0 -24,1 -1,0 -2,0 -3,0 -2,0 -5,0 -7,0 -12,1 -25,2 -38,3 -16,2 -32,4 -48,7 -14,2 -27,5 -41,7 -22,4 -43,8 -64,13 -18,4 -35,8 -51,13 -15,5 -30,10 -44,17 -27,12 -51,29 -72,50 -21,23 -38,50 -52,78 -5,12 -10,24 -15,37 -1,3 -2,6 -3,9 -7,23 -15,62 -15,62 -2,11 -4,23 -4,34 -1,16 -1,31 2,47l0 0c3,44 30,82 69,98 7,3 14,5 22,6l1 0c7,1 15,2 22,2 15,1 30,0 44,-2 59,-9 108,-17 150,-20 18,-2 36,-2 54,-1 15,1 30,3 45,7 31,8 58,25 81,48 30,33 63,63 100,87 14,9 28,16 43,21 10,4 21,6 31,8 34,5 70,3 103,-8 31,-13 58,-37 77,-66 12,-19 21,-40 27,-62 5,-15 8,-31 9,-47 1,-8 2,-16 2,-24 0,-8 0,-16 0,-24z"/>
  <path id="Shape_4" class="fil9" d="M2217 858c0,-16 -1,-32 -2,-48 -3,-33 -8,-66 -17,-97 -12,-47 -37,-89 -71,-121 -8,-8 -16,-16 -25,-23 -5,-4 -10,-8 -15,-12 -17,-13 -34,-26 -50,-36 -11,-7 -21,-13 -31,-19 -39,-22 -82,-38 -126,-45 -10,-2 -20,-3 -30,-4 -12,1 -25,2 -38,3 -16,2 -32,4 -48,7 -14,2 -27,5 -41,7 -22,4 -43,8 -64,13 -18,4 -35,8 -51,13 -15,5 -30,10 -44,17 -27,12 -51,29 -72,51 -21,24 -38,50 -52,79 -5,12 -10,24 -15,37 -1,3 -2,6 -3,10 -7,23 -15,63 -15,63 -2,11 -4,23 -4,35 -1,16 -1,32 2,47l0 0c3,44 30,83 69,99 7,3 14,5 22,6l1 0c67,-13 135,-21 203,-22 5,0 9,1 14,1 18,-2 36,-2 54,-1 15,1 30,3 45,7 31,8 58,25 81,49 30,34 63,63 100,88 14,9 28,16 43,21 10,4 21,7 31,8 12,-2 24,-4 36,-8 31,-14 58,-37 77,-67 12,-19 21,-41 27,-63 5,-15 8,-31 9,-48 1,-8 2,-16 2,-24 0,-8 0,-16 0,-24z"/>
  <path id="Shape_5" class="fil10" d="M1714 1687c-10,0 -19,-7 -22,-17 -8,-34 -40,-124 -91,-154 -62,22 -126,41 -190,57 -43,9 -86,-17 -98,-59 -7,-19 -10,-40 -8,-60 1,-6 2,-12 3,-18 3,-9 4,-18 2,-27 -2,-7 -7,-11 -20,-18 -5,-3 -11,-6 -16,-10 -7,-5 -12,-13 -13,-22 -1,-11 2,-23 7,-33 -8,-6 -16,-12 -21,-17 -21,-18 -7,-42 1,-57 3,-5 6,-11 10,-18 3,-7 4,-15 2,-22 -1,-6 -17,-14 -27,-19 -8,-4 -16,-8 -23,-14 -16,-9 -28,-24 -33,-42 -3,-23 13,-46 30,-66 39,-50 72,-103 98,-160 2,-3 3,-6 4,-10 0,-6 -7,-13 -18,-24 -17,-12 -28,-30 -33,-50 -1,-13 1,-26 6,-38 4,-11 9,-21 13,-31 8,-16 14,-33 19,-51l2 -8c5,-25 12,-50 20,-74 20,-55 50,-105 90,-147 50,-53 124,-89 225,-109 72,-16 144,-26 218,-31 139,-7 257,34 384,134 65,48 112,116 134,193 17,62 25,127 24,191 0,66 -20,130 -55,185 -13,20 -27,39 -40,57 -24,30 -44,62 -61,96 -27,62 -37,130 -29,197 5,45 14,90 26,133 7,22 15,44 25,64 4,8 9,16 14,24 10,13 17,28 23,43 2,7 1,14 -3,20 -4,6 -11,9 -18,9l-564 2 0 0zm-62 -189c37,41 64,90 79,144l510 -1 -2 -2c-6,-9 -12,-19 -17,-29 -11,-23 -20,-46 -28,-71 -14,-46 -23,-93 -28,-141 -9,-75 2,-151 33,-221 18,-37 40,-73 66,-105 13,-18 27,-36 38,-54 31,-48 48,-104 48,-161 1,-60 -6,-120 -22,-178 -20,-68 -62,-128 -119,-170 -118,-92 -227,-131 -354,-124 -71,5 -142,15 -211,30 -92,19 -158,50 -202,96 -36,38 -63,83 -81,132 -8,22 -14,45 -19,68l-2 8c-5,20 -13,40 -22,59 -4,10 -9,19 -12,29 -2,5 -4,10 -4,16 1,7 10,15 19,23 19,13 31,34 33,56 0,11 -3,21 -9,30 -28,59 -63,115 -103,167 -17,21 -21,29 -21,33 4,4 9,7 13,11 6,4 12,8 19,11 19,10 46,23 51,51 3,17 1,35 -6,50 -4,8 -8,15 -11,21 -1,2 -2,5 -4,7 9,7 22,17 27,21 5,4 8,9 9,15 1,6 -1,12 -5,17 -3,4 -6,9 -9,14l5 3c20,9 35,25 41,46 3,16 3,32 -2,48 -1,5 -2,9 -3,14 -1,13 1,27 5,40 5,21 25,34 46,30 65,-16 130,-35 193,-58 22,-7 41,-14 57,-20 18,-6 31,-11 38,-13 93,-29 112,-63 112,-86 0,-6 2,-12 6,-16 4,-4 10,-7 16,-7 12,0 22,10 23,22 1,56 -47,100 -143,130 -6,2 -19,7 -36,13 -5,2 -10,4 -16,6zm-373 -224l0 0 0 0z"/>
  <path id="Shape_6" class="fil10" d="M2100 1135c-101,0 -165,-69 -223,-131 -62,-66 -135,-55 -279,-32l-30 5c-65,10 -115,-4 -147,-41 -51,-59 -38,-153 -33,-180 1,-6 12,-57 19,-78 16,-47 40,-90 71,-127 36,-42 96,-72 178,-90 67,-16 136,-27 204,-32 9,0 17,-1 25,-1 105,0 197,39 299,126 50,40 86,96 103,160 15,59 21,119 20,180 0,53 -15,105 -41,150 -22,36 -53,64 -90,79 -25,8 -50,12 -76,12zm64 -59l6 24 -6 -24c26,-12 48,-32 64,-58 22,-37 34,-81 34,-125 1,-56 -5,-112 -18,-166 -15,-54 -46,-102 -88,-135 -102,-87 -189,-120 -294,-115 -67,5 -133,16 -198,31 -72,16 -124,41 -154,76 -27,32 -48,69 -62,110 -5,15 -14,56 -17,71 -8,44 -7,103 22,136 22,25 58,34 108,26l30 -5c149,-23 239,-37 317,46 81,86 143,140 256,106z"/>
  <path id="Shape_7" class="fil10" d="M2057 1382c-12,0 -22,-10 -22,-22 0,-40 0,-56 -81,-117 -85,-64 -50,-177 -37,-211 4,-12 17,-17 29,-13 12,4 17,17 13,29 -13,33 -36,115 22,159 56,42 81,69 91,96 6,-18 8,-36 8,-55 0,-73 49,-130 97,-176 4,-4 10,-6 16,-6l1 22 16 16c-1,1 -1,1 -2,2 -41,40 -82,87 -82,142 0,101 -52,130 -57,133 -3,2 -7,2 -10,2z"/>
  <path id="Shape_8" class="fil10" d="M1452 810l-45 0c-12,0 -22,-10 -22,-22 0,-12 10,-22 22,-22l45 0c12,0 22,-10 22,-22 0,-12 10,-22 22,-22 12,0 22,10 22,22 0,37 -30,67 -67,67z"/>
  <path id="Shape_9" class="fil10" d="M1497 932c-12,0 -22,-10 -22,-22l0 -32c0,-12 10,-22 22,-22 12,0 22,10 22,22l0 32c0,12 -10,22 -22,22z"/>
  <path id="Shape_10" class="fil10" d="M1576 682c-37,0 -67,-30 -67,-67l0 -63c0,-12 10,-22 22,-22 12,0 22,10 22,22l0 63c0,12 10,22 22,22 12,0 22,10 22,22 0,12 -10,22 -22,22z"/>
  <path id="Shape_11" class="fil10" d="M2082 608c-12,0 -22,-10 -22,-22l0 -67c0,-12 10,-22 22,-22 12,0 22,10 22,22l0 67c0,12 -10,22 -22,22z"/>
  <path id="Shape_12" class="fil10" d="M2130 724c-12,0 -22,-10 -22,-22 0,-12 10,-22 22,-22 12,0 22,-10 22,-22l0 -67c0,-12 10,-22 22,-22 12,0 22,10 22,22l0 67c0,37 -30,67 -67,67z"/>
  <path id="Shape_13" class="fil10" d="M2082 878l-22 0c-12,0 -22,-10 -22,-22 0,-12 10,-22 22,-22l22 0c12,0 22,-10 22,-22l0 -45c0,-12 10,-22 22,-22 12,0 22,10 22,22l0 45c0,37 -30,67 -67,67z"/>
  <path id="Shape_14" class="fil10" d="M2011 1092c-12,0 -22,-10 -22,-22l0 -45c0,-37 30,-67 67,-67l67 0c12,0 22,10 22,22 0,12 -10,22 -22,22l-67 0c-12,0 -22,10 -22,22l0 45c0,12 -10,22 -22,22z"/>
  <path id="Shape_15" class="fil10" d="M2284 833l-67 0c-12,0 -22,-10 -22,-22 0,-12 10,-22 22,-22l67 0c12,0 22,10 22,22 0,12 -10,22 -22,22z"/>
  <path id="Shape_16" class="fil10" d="M2280 923l-63 0c-12,0 -22,-10 -22,-22 0,-12 10,-22 22,-22l63 0c12,0 22,10 22,22 0,12 -10,22 -22,22z"/>
  <g id="_2110140759312">
   <rect class="fil11 str0" x="1702" y="578" width="257" height="256"/>
   <rect class="fil12" x="1749" y="626" width="162" height="160"/>
   <g>
    <path class="fil10 str1" d="M1911 616l-158 0c-6,0 -10,5 -10,10l0 158c0,6 5,10 10,10l158 0c6,0 10,-5 10,-10l0 -158c0,-6 -5,-10 -10,-10zm-10 158l-138 0 0 -38 20 0c6,0 10,-5 10,-10 0,-6 -5,-10 -10,-10l-20 0 0 -20 41 0c6,0 10,-5 10,-10 0,-6 -5,-10 -10,-10l-41 0 0 -38 138 0 0 138z"/>
   </g>
   <g>
    <path class="fil10 str1" d="M2015 679c0,-6 -5,-10 -10,-10l-33 0 0 -32 33 0c6,0 10,-5 10,-10 0,-6 -5,-10 -10,-10l-33 0 0 -22c0,-16 -13,-30 -30,-30l-22 0 0 -33c0,-6 -5,-10 -10,-10 -6,0 -10,5 -10,10l0 33 -33 0 0 -33c0,-6 -5,-10 -10,-10 -6,0 -10,5 -10,10l0 33 -33 0 0 -33c0,-6 -5,-10 -10,-10 -6,0 -10,5 -10,10l0 33 -32 0 0 -33c0,-6 -5,-10 -10,-10 -6,0 -10,5 -10,10l0 33 -22 0c-16,0 -30,13 -30,30l0 22 -33 0c-6,0 -10,5 -10,10 0,6 5,10 10,10l33 0 0 33 -33 0c-6,0 -10,5 -10,10 0,6 5,10 10,10l33 0 0 33 -33 0c-6,0 -10,5 -10,10 0,6 5,10 10,10l33 0 0 32 -33 0c-6,0 -10,5 -10,10 0,6 5,10 10,10l33 0 0 22c0,16 13,30 30,30l22 0 0 33c0,6 5,10 10,10 6,0 10,-5 10,-10l0 -33 33 0 0 33c0,6 5,10 10,10 6,0 10,-5 10,-10l0 -33 33 0 0 33c0,6 5,10 10,10 6,0 10,-5 10,-10l0 -33 32 0 0 33c0,6 5,10 10,10 6,0 10,-5 10,-10l0 -33 22 0c16,0 30,-13 30,-30l0 -22 33 0c6,0 10,-5 10,-10 0,-6 -5,-10 -10,-10l-33 0 0 -33 33 0c6,0 10,-5 10,-10 0,-6 -5,-10 -10,-10l-33 0 0 -33 33 0 0 1c6,0 10,-5 10,-10zm-63 138l-1 0c0,5 -4,9 -9,9l-223 0c-5,0 -9,-4 -9,-9l0 -223c0,-5 4,-9 9,-9l223 0c5,0 9,4 9,9l0 223 0 0z"/>
   </g>
  </g>
 </g>
</svg>
