<?xml version="1.0" encoding="UTF-8"?>
<!DOCTYPE svg PUBLIC "-//W3C//DTD SVG 1.0//EN" "http://www.w3.org/TR/2001/REC-SVG-20010904/DTD/svg10.dtd">
<!-- Creator: CorelDRAW -->
<svg xmlns="http://www.w3.org/2000/svg" xml:space="preserve" width="94.1916mm" height="52.9166mm" version="1.0" style="shape-rendering:geometricPrecision; text-rendering:geometricPrecision; image-rendering:optimizeQuality; fill-rule:evenodd; clip-rule:evenodd"
viewBox="0 0 9404.92 5283.66"
 xmlns:xlink="http://www.w3.org/1999/xlink"
 xmlns:xodm="http://www.corel.com/coreldraw/odm/2003">
 <defs>
  <style type="text/css">
   <![CDATA[
    .fil4 {fill:#00EF47}
    .fil5 {fill:#00EF47;fill-rule:nonzero}
    .fil6 {fill:#1C2154;fill-rule:nonzero}
    .fil2 {fill:#373435;fill-opacity:0.031373}
    .fil1 {fill:#2B2A29;fill-opacity:0.101961}
    .fil0 {fill:#E6E7E8}
    .fil3 {fill:url(#id0)}
    .fil7 {fill:url(#id1);fill-rule:nonzero}
    .fil8 {fill:url(#id2);fill-rule:nonzero}
    .fil9 {fill:url(#id3);fill-rule:nonzero}
    .fil10 {fill:url(#id4);fill-rule:nonzero}
   ]]>
  </style>
  <linearGradient id="id0" gradientUnits="userSpaceOnUse" x1="6844.29" y1="3162.21" x2="2551.14" y2="2121.45">
   <stop offset="0" style="stop-opacity:1; stop-color:#121232"/>
   <stop offset="1" style="stop-opacity:1; stop-color:#2A3885"/>
  </linearGradient>
  <linearGradient id="id1" gradientUnits="userSpaceOnUse" x1="4761.41" y1="2168.06" x2="2620.87" y2="1622.18">
   <stop offset="0" style="stop-opacity:1; stop-color:#28347D"/>
   <stop offset="1" style="stop-opacity:1; stop-color:#111030"/>
  </linearGradient>
  <linearGradient id="id2" gradientUnits="userSpaceOnUse" xlink:href="#id1" x1="4420.01" y1="2080.99" x2="2962.28" y2="1709.24">
  </linearGradient>
  <linearGradient id="id3" gradientUnits="userSpaceOnUse" xlink:href="#id1" x1="4085.37" y1="1995.65" x2="3296.92" y2="1794.58">
  </linearGradient>
  <linearGradient id="id4" gradientUnits="userSpaceOnUse" xlink:href="#id1" x1="4361.65" y1="1674.59" x2="3641.17" y2="1489.56">
  </linearGradient>
 </defs>
 <g id="Layer_x0020_1">
  <metadata id="CorelCorpID_0Corel-Layer"/>
  <polygon class="fil0" points="-0,0 9404.92,0 9404.92,5283.66 -0,5283.66 "/>
  <polygon class="fil1" points="-0,2745.05 -0,2727.88 -0,2725.96 -0,2707.76 -0,2602.13 -0,2514.64 -0,2468.83 -0,2441.05 -0,2366.9 -0,1830.75 2849.18,495.92 2821.81,509.98 2795.23,525.31 2769.47,541.87 2744.56,559.61 2720.56,578.49 2697.51,598.48 2675.43,619.54 2654.37,641.62 2634.38,664.67 2615.5,688.68 2597.76,713.58 2581.2,739.34 2565.87,765.92 2551.81,793.29 2539.05,821.39 2527.64,850.18 2517.63,879.63 2509.03,909.7 2501.92,940.35 2496.31,971.53 2492.26,1003.2 2489.79,1035.32 2488.96,1067.86 2488.96,1229.75 3236.6,888.18 3261.22,877.4 3286.15,867.22 3311.39,857.63 3336.9,848.64 3362.7,840.26 3388.78,832.51 3415.12,825.38 3441.71,818.89 3468.55,813.04 3495.63,807.86 3522.95,803.33 3550.47,799.48 3578.21,796.3 3606.16,793.83 3634.31,792.04 3662.64,790.96 3691.14,790.6 3719.65,790.96 3747.98,792.04 3776.12,793.83 3804.07,796.3 3831.82,799.48 3859.35,803.33 3886.66,807.86 3913.73,813.04 3940.58,818.89 3967.17,825.38 3993.51,832.51 4019.58,840.26 4045.39,848.64 4070.91,857.63 4095.4,866.94 4573.43,652.07 4584.09,649.01 4595.06,648.05 4606.03,649.19 4616.64,652.43 4626.59,657.77 4635.53,665.2 4639.25,669.37 4642.49,673.78 4645.26,678.41 4647.54,683.24 4649.36,688.2 4650.71,693.29 4651.58,698.45 4651.98,703.66 4660.59,903.67 4904.25,914.14 4915.76,915.75 4926.4,919.52 4935.94,925.19 4944.14,932.53 4950.82,941.29 4955.73,951.24 4958.65,962.14 4959.36,973.75 4958.85,979.5 4957.79,985.06 4956.22,990.41 4954.15,995.52 4951.62,1000.38 4948.67,1004.94 4945.3,1009.18 4941.57,1013.09 4629.12,1311.76 4635.75,1322.4 4649.32,1345.34 4662.35,1368.65 4674.82,1392.29 4678.85,1400.38 4962.5,1277.33 4962.5,1367.81 5171.92,1277.33 5171.92,1425.14 5294.99,1372.32 5353.35,1372.32 5574.94,1277.33 5574.94,1401.57 5866.4,1277.33 5866.4,1372.32 6016.81,1372.32 6016.81,1424.28 6139.87,1372.32 6235.12,1372.32 6427.92,1291.07 6417.5,1295.97 6407.64,1301.37 6398.32,1307.28 6389.56,1313.69 6381.35,1320.61 6373.68,1328.04 6366.57,1335.98 6360.16,1344.35 6354.61,1353.13 6349.91,1362.31 6346.06,1371.87 6343.07,1381.83 6340.93,1392.18 6339.65,1402.93 6339.22,1414.06 6339.61,1424.54 6340.77,1434.75 6340.79,1434.85 6495.03,1370.16 6499.16,1368.64 6503.46,1367.32 6507.93,1366.21 6512.57,1365.29 6517.37,1364.58 6522.36,1364.08 6527.5,1363.78 6532.81,1363.68 6538.12,1363.8 6543.27,1364.17 6548.25,1364.79 6553.05,1365.65 6557.69,1366.77 6562.16,1368.13 6566.46,1369.74 6570.59,1371.59 6574.53,1373.68 6578.22,1375.98 6581.68,1378.49 6584.9,1381.22 6587.89,1384.16 6590.63,1387.32 6593.15,1390.68 6595.42,1394.27 6597.45,1398.04 6599.2,1401.99 6600.69,1406.09 6601.91,1410.37 6602.84,1414.82 6603.52,1419.43 6603.92,1424.22 6604.06,1429.18 6727.12,1429.18 6439.31,1549.03 6442.02,1550.42 6445.62,1552.19 6449.35,1553.93 6453.2,1555.64 6457.17,1557.35 6461.27,1559.02 6465.49,1560.68 6469.85,1562.3 6474.24,1563.9 6478.59,1565.46 6482.92,1566.97 6487.21,1568.43 6491.46,1569.84 6495.69,1571.21 6499.87,1572.54 6504.02,1573.83 6511.55,1576.47 6518.68,1579.02 6525.41,1581.47 6531.73,1583.8 6537.64,1586.05 6543.15,1588.2 6548.26,1590.23 6552.96,1592.17 6557.39,1594.11 6561.69,1596.15 6565.85,1598.3 6569.87,1600.54 6573.77,1602.88 6577.52,1605.33 6581.15,1607.88 6584.63,1610.52 6589.01,1614.5 6592.82,1618.85 6596.03,1623.58 6598.66,1628.69 6600.71,1634.2 6602.16,1640.08 6603.04,1646.34 6603.33,1652.99 6603.21,1656.87 6602.84,1660.61 6602.22,1664.2 6601.36,1667.65 6600.25,1670.95 6598.89,1674.11 6597.28,1677.11 6595.42,1679.98 6593.34,1682.68 6591.04,1685.24 6588.53,1687.63 6585.8,1689.87 6582.85,1691.95 6579.7,1693.88 6576.33,1695.64 6572.75,1697.25 6407.84,1765.29 6408.78,1765.85 6420.12,1771.61 6432.05,1776.77 6444.41,1781.32 6457.01,1785.27 6469.88,1788.61 6482.98,1791.34 6496.31,1793.46 6509.91,1794.98 6523.76,1795.9 6537.85,1796.2 6552.18,1795.93 6566.03,1795.12 6579.39,1793.77 6592.27,1791.88 6604.67,1789.45 6616.58,1786.49 6628.02,1782.97 6638.96,1778.93 6223.78,1949.38 6223.78,2001.51 6383.81,1935.97 6383.81,2009.56 6555.98,1939.28 6548.55,1942.4 6541.47,1946.09 6534.76,1950.35 6528.44,1955.07 6522.55,1960.15 6517.06,1965.61 6512.01,1971.44 6507.38,1977.63 6503.15,1984.18 6499.36,1991.11 6495.98,1998.39 6493.02,2005.94 6490.48,2013.64 6488.36,2021.5 6487.74,2024.45 6582.8,1985.74 6586.16,1984.45 6589.66,1983.43 6593.29,1982.71 6597.06,1982.27 6600.97,1982.13 6606.01,1982.28 6610.74,1982.73 6615.17,1983.49 6619.27,1984.54 6623.05,1985.89 6626.54,1987.55 6629.7,1989.52 6632.55,1991.77 6635.12,1994.38 6637.48,1997.39 6639.6,2000.79 6641.49,2004.59 6643.14,2008.78 6644.57,2013.37 6645.77,2018.35 6646.74,2023.74 6709.16,2023.74 6599.45,2068.21 6599.45,2105.84 6644.47,2105.84 6644.47,2147.45 6642.9,2148.83 6641.25,2150.11 6639.48,2151.31 6637.61,2152.42 6635.64,2153.44 6633.58,2154.37 6538.43,2192.76 6540.81,2194.18 6547.57,2197.59 6554.6,2200.55 6561.9,2203.05 6569.46,2205.1 6577.31,2206.7 6585.43,2207.84 6593.82,2208.52 6602.47,2208.75 6610.9,2208.59 6619.18,2208.12 6627.3,2207.34 6635.24,2206.24 6643.04,2204.82 6650.68,2203.1 6658.15,2201.07 6665.47,2198.71 6672.49,2196.1 6315.46,2339.76 6309.86,2343.79 6303.23,2349.91 6297.27,2356.48 6291.87,2363.13 6287.05,2369.86 6282.8,2376.68 6279.11,2383.58 6275.99,2390.56 6273.43,2397.62 6271.45,2404.77 6269.85,2411.84 6269.53,2413.43 6359.71,2377.23 6362.96,2376.11 6366.38,2375.24 6369.99,2374.62 6373.78,2374.25 6377.75,2374.13 6383.62,2374.3 6389.07,2374.81 6394.13,2375.66 6397.44,2376.52 6520.38,2327.22 6520.38,2403 6585.07,2377.15 6705.76,2377.15 6520.38,2451.06 6520.38,2508.05 6585.07,2482.33 6687.22,2482.33 6520.38,2548.54 6520.38,2596.2 6705.38,2596.2 6035.53,2860.49 6915.96,2860.49 5434.65,3435.25 5438.58,3447.75 5442.5,3463.04 5444.97,3475.23 5996.42,3261.73 6239.46,3258.79 6239.46,3896.58 6345.51,3896.58 6345.51,4083.65 6239.46,4122.77 6239.46,4306.07 4749.36,4850.58 6271.68,4850.58 6304.22,4849.75 6336.34,4847.28 6368.01,4843.23 6399.19,4837.62 6429.84,4830.51 6459.91,4821.91 6489.36,4811.9 5156.93,5283.66 3564.17,5283.66 3092.7,5283.66 2993.22,5283.66 2841.55,5283.66 2621.6,5283.66 2523.08,5283.66 2367.47,5283.66 2297.28,5283.66 2123.5,5283.66 1979.88,5283.66 1794.31,5283.66 1720.61,5283.66 1685.8,5283.66 1511.05,5283.66 1418.42,5283.66 1277.12,5283.66 1256.08,5283.66 1222.98,5283.66 1197.06,5283.66 1035.69,5283.66 985.67,5283.66 973.03,5283.66 950.1,5283.66 773.86,5283.66 764.56,5283.66 670.75,5283.66 623.35,5283.66 592.22,5283.66 519.96,5283.66 376.99,5283.66 364.51,5283.66 345.46,5283.66 328.37,5283.66 130.55,5283.66 -0,5283.66 -0,5269.15 -0,5254.11 -0,5241.83 -0,5222.51 -0,5221.65 -0,5177.88 -0,5154.33 -0,5141.99 -0,5137.34 -0,5136.11 -0,5135.51 -0,5131.85 -0,5112.68 -0,5100.65 -0,5096.94 -0,5091.76 -0,5089.71 -0,5075.47 -0,5064.72 -0,5052.74 -0,5050.71 -0,5043.21 -0,5041.63 -0,5013.15 -0,5013.14 -0,5008.61 -0,4990.46 -0,4990.27 -0,4975.81 -0,4963.82 -0,4955.39 -0,4949.96 -0,4942.2 -0,4933.16 -0,4932.28 -0,4929.54 -0,4922.59 -0,4921.82 -0,4919.76 -0,4907.04 -0,4886.26 -0,4885.55 -0,4881.36 -0,4880.95 -0,4880.76 -0,4879.32 -0,4879.26 -0,4874.75 -0,4867.36 -0,4854.1 -0,4849.76 -0,4848.34 -0,4832.86 -0,4831.76 -0,4830.78 -0,4828.57 -0,4819.48 -0,4815.45 -0,4809.52 -0,4806.54 -0,4804.28 -0,4802.21 -0,4801.1 -0,4799.28 -0,4796.37 -0,4792.2 -0,4790.27 -0,4786.69 -0,4781.5 -0,4781.3 -0,4778.99 -0,4778.22 -0,4776.28 -0,4768.03 -0,4767.17 -0,4763.52 -0,4752.96 -0,4752.76 -0,4751.39 -0,4749.13 -0,4743.47 -0,4743.35 -0,4737.22 -0,4729.67 -0,4723.76 -0,4722.96 -0,4721.23 -0,4720.84 -0,4718.55 -0,4717.1 -0,4713.42 -0,4709.71 -0,4699.36 -0,4697.86 -0,4697.29 -0,4690.24 -0,4688.25 -0,4682.76 -0,4672.38 -0,4668.59 -0,4666.15 -0,4665.28 -0,4655.14 -0,4655.13 -0,4650.56 -0,4645.39 -0,4637.69 -0,4632.79 -0,4627.63 -0,4624.83 -0,4617.15 -0,4615.04 -0,4611.54 -0,4611.41 -0,4608.95 -0,4605.61 -0,4604.69 -0,4601.41 -0,4596.47 -0,4594.28 -0,4592.95 -0,4588.29 -0,4576.97 -0,4576.73 -0,4569 -0,4565.74 -0,4560.34 -0,4550.51 -0,4550.4 -0,4545.6 -0,4541.29 -0,4526.26 -0,4525.3 -0,4525.05 -0,4524.96 -0,4523.07 -0,4518.63 -0,4511.44 -0,4504.47 -0,4502.67 -0,4499.98 -0,4497.76 -0,4492.66 -0,4491.74 -0,4486.16 -0,4483.24 -0,4471.53 -0,4468.56 -0,4457.51 -0,4453.53 -0,4452.72 -0,4451.15 -0,4435.13 -0,4429.74 -0,4428.03 -0,4419.67 -0,4415.93 -0,4409.18 -0,4402.26 -0,4389.48 -0,4381.5 -0,4380.3 -0,4374.77 -0,4365.93 -0,4362.78 -0,4362.51 -0,4351.76 -0,4348.24 -0,4338.43 -0,4337.58 -0,4332.53 -0,4310.02 -0,4307.44 -0,4303.93 -0,4302.5 -0,4296.47 -0,4295.97 -0,4292.24 -0,4287.43 -0,4280.59 -0,4276.16 -0,4262.18 -0,4257.72 -0,4255.48 -0,4253.82 -0,4253.63 -0,4253.6 -0,4252.21 -0,4249.03 -0,4248.49 -0,4246.07 -0,4237.27 -0,4233.38 -0,4230.81 -0,4230.18 -0,4218.92 -0,4213.46 -0,4202.3 -0,4198.5 -0,4188.93 -0,4188 -0,4185.98 -0,4181.88 -0,4180.11 -0,4174.24 -0,4167.87 -0,4165.7 -0,4155.75 -0,4155.19 -0,4152.28 -0,4151.69 -0,4131.38 -0,4123.74 -0,4123.35 -0,4113.11 -0,4112.7 -0,4104.63 -0,4102.55 -0,4102.34 -0,4097.45 -0,4096.46 -0,4094.35 -0,4086.18 -0,4081.73 -0,4075.49 -0,4071.52 -0,4054.69 -0,4039.88 -0,4030.82 -0,4022.01 -0,4016.97 -0,4000.22 -0,3971.97 -0,3964.8 -0,3939.14 -0,3924.24 -0,3918.83 -0,3900.72 -0,3898.1 -0,3892.16 -0,3870.89 -0,3868.9 -0,3862.35 -0,3828.51 -0,3824.26 -0,3778.07 -0,3774.02 -0,3756.22 -0,3737.16 -0,3732.77 -0,3719.49 -0,3667.23 -0,3653.12 -0,3644.78 -0,3596.24 -0,3553.67 -0,3548.64 -0,3511.87 -0,3430.18 -0,3394.21 -0,3341.4 -0,3341.23 -0,3337.97 -0,3284.41 -0,3248.12 -0,3244.94 -0,3244.69 -0,3225.73 -0,3222.93 -0,3185.69 -0,3183.31 -0,3174.41 -0,3154.84 -0,3152.76 -0,3139.42 -0,3122.03 -0,3114.82 -0,3087.47 -0,3079.71 -0,3079.05 -0,3051.3 -0,2978.84 -0,2971.85 -0,2920.64 -0,2916.1 -0,2874.77 -0,2863.61 -0,2801.5 -0,2786.7 -0,2778.44 -0,2764.96 "/>
  <path class="fil2" d="M548.54 4627.69c17.95,27.21 29.6,53.36 40.96,82.43 8.45,16.91 12.93,48.09 52.57,48.09 11.61,0 28.28,-3.42 43.06,-11.61 16.63,-8.73 29.32,-21.94 35.94,-42l15.85 -53.36 38.57 -19.02 2.64 2.64c-5.27,20.09 -6.59,39.36 -6.59,54.43 0,44.63 38.57,61.56 69.22,61.56 17.95,0 34.09,-8.73 34.09,-25.11 0,-21.13 -8.98,-57.06 -20.62,-89.29 17.95,-17.95 35.94,-35.94 56.53,-50.47l3.17 1.6c8.98,38.04 14,75.56 14,100.66 0,24.57 -10.83,51.79 -19.81,69.49 -18.49,34.87 -51.25,62.62 -90.87,62.62 -30.1,0 -63.65,-15.07 -86.66,-43.06l-1.32 0c-21.66,26.96 -55.22,51.25 -108.86,51.25l-16.63 0c-2.64,35.41 -10.29,60.49 -21.94,82.95 -31.95,62.34 -126.81,106.47 -216.1,106.47 -124.17,0 -186.51,-71.59 -186.51,-166.96 0,-58.91 19.27,-113.6 48.88,-152.42l24.29 10.04c-18.49,35.41 -30.91,68.68 -30.91,101.45 0,89.29 72.66,131.83 156.4,131.83 77.68,0 173.83,-49.41 191.28,-106.72 -6.59,-62.62 -30.1,-91.93 -66.04,-148.99 10.83,-19.02 24.83,-38.04 42.28,-58.38l3.17 0 0 0 0 0 -0.02 -0.09zm1432.13 -336.04c26.15,16.39 51.79,35.66 76.87,57.85 -14,19.81 -31.45,37.79 -53.11,53.64 -25.11,-20.34 -50.19,-37.79 -75.84,-56.27 17.42,-19.55 34.62,-38.29 52.04,-55.22l0 0 0 0 0 0 0 0 0 0 0.03 0zm13.47 244.11c-42.28,0 -76.87,27.75 -76.87,48.34 0,44.13 84.53,57.85 185.72,57.31 -12.68,-51.79 -57.06,-105.68 -108.86,-105.68l0.01 0.03zm-94.86 236.19c54.96,0 103.04,-1.6 139.74,-10.83 40.96,-10.29 75.56,-30.91 75.56,-45.17 0,-3.7 0,-8.19 -1.32,-11.89 -22.98,2.11 -49.41,2.11 -72.38,2.11 -74.49,0 -131.55,-16.91 -154.02,-58.66 -5.55,-11.61 -9.51,-24.57 -9.51,-39.36 0,-40.43 17.42,-79.79 48.09,-107 25.61,-22.45 53.89,-36.44 82.67,-36.44 52.04,0 93.51,41.75 122.57,107.54 15.85,35.94 26.68,77.4 26.68,129.72 0,34.87 -9.51,64.19 -31.17,85.85 -40.43,39.11 -114.92,53.89 -229.04,53.89l-51.79 0 0 0 -13.47 0c-28.28,0 -48.62,-5.02 -64.72,-17.42l-2.64 0c0.79,6.59 1.32,12.93 1.32,19.02 0,25.61 -8.45,58.38 -25.61,84.53 -50.72,75.3 -105.68,108.04 -153.24,108.04 -48.09,0 -107,-18.49 -160.11,-42.54l9.51 -18.49c17.17,7.13 40.96,11.89 73.7,11.89 85.85,0 198.66,-82.43 212.66,-163 -3.17,-6.59 -8.98,-15.32 -17.17,-24.57 -25.11,-29.85 -40.96,-54.68 -55.75,-80.83 12.68,-25.11 24.29,-45.17 35.13,-63.4l4.49 -0.53c36.72,74.77 69.99,117.55 144.23,117.55l11.61 0 0 0 53.89 0 0 0 0 0 0 0 0 0 0 0 0.09 0.01zm-371.98 79c6.34,-34.34 6.87,-72.91 6.87,-108.86l0 -53.36c0,-99.6 -12.68,-244.36 -22.98,-338.68 17.95,-19.27 43.06,-42 62.87,-57.31l5.81 1.6c13.47,118.62 16.63,256 16.63,383.06 0,33.3 -1.32,65.79 -4.49,89.55 -1.85,30.1 -19.27,52.83 -56.53,87.7l-8.19 -3.7zm-382.8 -157.19c1.85,46.77 24.83,83.49 105.15,83.49 49.93,0 92.19,-12.93 138.96,-35.13 8.45,-3.7 12.93,-8.73 12.93,-12.93 0,-29.32 -22.45,-68.15 -60.23,-103.55 -36.72,-33.3 -85.34,-62.62 -130.76,-82.18 -15.6,-6.59 -20.62,-13.47 -20.62,-20.09 0,-13.47 17.95,-41.75 32.77,-62.09l5.02 -0.53c52.04,27.21 110.17,67.64 153.24,112.53 39.11,41.47 63.4,83.49 63.4,129.19 0,33.81 -10.29,65.51 -26.96,95.11 -57.06,28.79 -117.83,50.72 -178.06,50.72 -73.17,0 -123.1,-34.34 -123.1,-114.92 0,-8.73 0,-22.19 3.17,-39.64l25.11 0 0 0 0 0 0 0 0 0 0 0 -0.02 0zm-132.37 -132.9l45.45 73.45c16.63,27.21 32.23,56.81 32.23,103.55l0 59.7c0,48.34 -30.91,100.13 -80.83,151.38 -39.11,34.62 -73.7,49.41 -105.68,49.41 -47.55,0 -101.98,-14.79 -164.85,-41.75l7.13 -18.49c19.81,5.27 42.79,9.77 71.06,9.77 90.36,-0.53 182.8,-66.57 225.08,-147.15 5.02,-9.26 6.87,-17.95 6.87,-24.04 0,-9.26 -5.02,-19.55 -8.98,-28.79 -22.98,-43.31 -48.62,-82.95 -76.87,-119.68 14.79,-23.25 29.6,-45.7 45.7,-67.9l3.7 0.53 0 0 0 0 0 0 0 0 0 0 -0.02 0.01z"/>
  <g id="_1805770266608">
   <rect class="fil3" x="2488.96" y="433.08" width="4417.5" height="4417.5" rx="634.79" ry="634.79"/>
   <rect class="fil4" x="3780.97" y="1027.96" width="3134.98" height="1832.53"/>
   <path class="fil5" d="M3772.24 4306.07l-732.07 0 0 -157.61 337.31 -354.98c41.25,-47.14 72.18,-89.36 92.8,-126.68 20.62,-37.31 30.93,-69.71 30.93,-97.21 0,-45.17 -9.82,-79.54 -29.46,-103.1 -19.64,-23.57 -48.12,-35.36 -85.43,-35.36 -37.32,0 -67.27,13.75 -89.85,41.25 -22.59,27.49 -33.88,68.74 -33.88,123.72l-243.04 0c0.98,-58.91 15.72,-115.62 44.19,-170.12 28.48,-54.5 70.7,-98.69 126.67,-132.57 55.98,-33.88 123.24,-50.32 201.8,-49.35 113.91,1.97 201.31,28.73 262.18,80.28 60.89,51.55 91.32,125.94 91.32,223.15 0,38.3 -8.35,76.1 -25.03,113.42 -16.69,37.31 -41.74,77.58 -75.13,120.79 -33.39,43.2 -83.46,103.59 -150.24,181.18l-135.51 156.13 412.44 0 0 187.07z"/>
   <path id="_1" class="fil5" d="M4620.66 3877.44c0,141.41 -31.66,250.65 -95.01,327.73 -63.33,77.08 -152.94,115.62 -268.81,115.62 -116.85,0 -206.96,-38.54 -270.29,-115.62 -63.33,-77.08 -95.01,-186.33 -95.01,-327.73l0 -190.01c0,-141.41 31.67,-250.65 95.01,-327.74 63.33,-77.08 152.94,-115.62 268.81,-115.62 115.87,0 205.73,38.79 269.55,116.36 63.83,77.58 95.75,186.58 95.75,327l0 190.01zm-241.56 -220.95c0,-76.59 -9.83,-133.31 -29.46,-170.13 -19.64,-36.82 -51.06,-55.24 -94.28,-55.24 -41.24,0 -71.43,17.18 -90.58,51.55 -19.15,34.37 -29.22,86.91 -30.19,157.61l0 266.61c0,78.56 9.82,136 29.46,172.34 19.64,36.33 50.57,54.5 92.8,54.5 41.24,0 71.68,-17.67 91.32,-53.03 19.64,-35.35 29.95,-90.83 30.93,-166.44l0 -257.77z"/>
   <path id="_2" class="fil5" d="M5477.94 4306.07l-732.07 0 0 -157.61 337.31 -354.98c41.25,-47.14 72.18,-89.36 92.8,-126.68 20.62,-37.31 30.93,-69.71 30.93,-97.21 0,-45.17 -9.82,-79.54 -29.46,-103.1 -19.64,-23.57 -48.12,-35.36 -85.43,-35.36 -37.32,0 -67.27,13.75 -89.85,41.25 -22.59,27.49 -33.88,68.74 -33.88,123.72l-243.04 0c0.98,-58.91 15.72,-115.62 44.19,-170.12 28.48,-54.5 70.7,-98.69 126.67,-132.57 55.98,-33.88 123.24,-50.32 201.8,-49.35 113.91,1.97 201.31,28.73 262.18,80.28 60.89,51.55 91.32,125.94 91.32,223.15 0,38.3 -8.35,76.1 -25.03,113.42 -16.69,37.31 -41.74,77.58 -75.13,120.79 -33.39,43.2 -83.46,103.59 -150.24,181.18l-135.51 156.13 412.44 0 0 187.07z"/>
   <path id="_3" class="fil5" d="M6239.46 3896.58l106.05 0 0 187.07 -106.05 0 0 222.42 -243.04 0 0 -222.42 -403.6 0 -14.73 -147.3 418.33 -674.62 243.04 -2.95 0 637.79zm-243.04 0l0 -322.57 -187.07 322.57 187.07 0z"/>
   <g>
    <path class="fil6" d="M5085.56 1789l-123.06 0 0 -511.68 123.06 0 0 511.68zm86.36 -511.68l352.64 0 0 95 -229.56 0 0 107.95 194.31 0 0 92.12 -194.31 0 0 121.62 228.85 0 0 95 -351.93 0 0 -511.68zm526.08 416.68l214.46 0 0 95 -337.52 0 0 -511.68 123.06 0 0 416.68zm595.88 -321.68l-154.01 0 0 416.68 -123.06 0 0 -416.68 -150.41 0 0 -95 427.48 0 0 95zm309.45 280.67c0,-18.23 -6.23,-32.38 -18.7,-42.47 -9.12,-7.19 -19.67,-13.31 -31.67,-18.35 -11.99,-5.03 -28.31,-11.15 -48.94,-18.34 -11.03,-3.36 -22.43,-7.2 -34.18,-11.52 -11.76,-4.31 -22.2,-8.88 -31.31,-13.67 -33.1,-16.32 -57.93,-35.75 -74.48,-58.29 -16.55,-22.55 -24.83,-47.98 -24.83,-76.28 0,-30.22 9.12,-56.25 27.35,-78.08 18.23,-21.84 42.34,-38.26 72.32,-49.31 29.98,-11.03 62.26,-16.54 96.79,-16.54 37.91,0 71.37,6.83 100.4,20.51 29.03,13.67 51.45,32.62 67.29,56.85 15.84,24.22 23.74,51.45 23.74,81.69l-123.05 0c0,-13.44 -2.89,-25.07 -8.64,-34.91 -5.76,-9.84 -14.04,-17.39 -24.83,-22.68 -10.79,-5.27 -23.38,-7.92 -37.78,-7.92 -14.39,0 -26.99,2.17 -37.78,6.48 -10.79,4.32 -19.07,10.44 -24.82,18.35 -5.76,7.92 -8.64,16.67 -8.64,26.27 0,12.95 7.2,24.95 21.59,35.99 9.12,6.71 19.79,12.71 32.02,17.99 12.23,5.27 28.43,11.27 48.59,17.99 13.43,4.79 27.46,10.07 42.1,15.83 14.63,5.76 27.47,11.76 38.5,17.99 55.18,31.66 82.75,75.57 82.75,131.7 0,29.74 -7.55,55.42 -22.67,77 -15.11,21.59 -36.94,38.14 -65.49,49.65 -28.55,11.51 -62.25,17.27 -101.11,17.27 -37.91,0 -73.17,-6.48 -105.8,-19.43 -32.62,-12.95 -58.89,-32.38 -78.8,-58.29 -19.91,-25.91 -29.86,-57.57 -29.86,-95l123.78 0c0,18.23 3.12,33.22 9.36,44.98 6.24,11.75 16.08,20.51 29.51,26.27 13.44,5.75 30.71,8.63 51.82,8.63 13.43,0 25.06,-2.04 34.9,-6.11 9.84,-4.08 17.39,-9.85 22.68,-17.27 5.27,-7.44 7.91,-16.44 7.91,-26.99z"/>
    <path class="fil6" d="M5053.25 2133.45c0,-9.59 -3.29,-17.01 -9.84,-22.32 -4.79,-3.78 -10.34,-7 -16.64,-9.65 -6.31,-2.65 -14.89,-5.86 -25.73,-9.65 -5.8,-1.77 -11.79,-3.78 -17.97,-6.06 -6.17,-2.27 -11.66,-4.66 -16.46,-7.18 -17.4,-8.58 -30.45,-18.79 -39.16,-30.64 -8.7,-11.86 -13.05,-25.22 -13.05,-40.11 0,-15.89 4.79,-29.57 14.38,-41.05 9.59,-11.47 22.26,-20.11 38.02,-25.91 15.77,-5.8 32.72,-8.71 50.88,-8.71 19.93,0 37.52,3.59 52.78,10.78 15.26,7.19 27.05,17.15 35.37,29.88 8.33,12.74 12.49,27.06 12.49,42.94l-64.69 0c0,-7.07 -1.52,-13.18 -4.54,-18.35 -3.03,-5.16 -7.38,-9.15 -13.05,-11.91 -5.67,-2.78 -12.3,-4.16 -19.86,-4.16 -7.57,0 -14.19,1.13 -19.87,3.4 -5.67,2.27 -10.02,5.48 -13.05,9.65 -3.03,4.16 -4.53,8.77 -4.53,13.81 0,6.81 3.77,13.12 11.34,18.92 4.79,3.52 10.4,6.68 16.83,9.46 6.44,2.78 14.95,5.93 25.54,9.46 7.06,2.53 14.44,5.29 22.13,8.33 7.7,3.03 14.45,6.17 20.25,9.46 29,16.64 43.5,39.72 43.5,69.24 0,15.64 -3.97,29.13 -11.92,40.48 -7.94,11.34 -19.42,20.05 -34.43,26.1 -15.01,6.05 -32.72,9.09 -53.15,9.09 -19.93,0 -38.46,-3.4 -55.62,-10.21 -17.15,-6.82 -30.96,-17.03 -41.43,-30.64 -10.46,-13.63 -15.7,-30.27 -15.7,-49.94l65.07 0c0,9.59 1.64,17.46 4.91,23.64 3.29,6.18 8.46,10.78 15.52,13.81 7.06,3.03 16.14,4.54 27.24,4.54 7.06,0 13.18,-1.08 18.34,-3.22 5.17,-2.15 9.15,-5.17 11.92,-9.09 2.78,-3.9 4.16,-8.64 4.16,-14.19zm163.05 -19.67l0 91.18 -64.69 0 0 -268.99 107.07 0c20.93,0 39.28,3.97 55.05,11.92 15.76,7.95 27.93,18.79 36.5,32.53 8.58,13.75 12.86,29.33 12.86,46.73 0,17.39 -4.22,32.66 -12.67,45.77 -8.45,13.12 -20.62,23.2 -36.5,30.26 -15.9,7.07 -34.69,10.59 -56.37,10.59l-41.24 0zm0 -50.31l42.38 0c12.61,0 22.19,-3.09 28.75,-9.27 6.56,-6.18 9.84,-15.08 9.84,-26.67 0,-12.87 -3.34,-23.02 -10.02,-30.46 -6.68,-7.44 -15.95,-11.15 -27.81,-11.15l-43.12 0 0 77.55zm181.6 -127.5l185.38 0 0 49.94 -120.69 0 0 56.74 102.15 0 0 48.43 -102.15 0 0 63.93 120.31 0 0 49.94 -185 0 0 -268.99zm289.41 0l60.92 0 99.5 268.99 -69.61 0 -15.51 -50.32 -88.91 0 -15.52 50.32 -69.24 0 98.36 -268.99zm59.78 168.73l-29.14 -93.45 -28.75 93.45 57.88 0zm120.31 -168.73l64.69 0 0 118.79 80.58 -118.79 80.21 0 -90.8 119.17 90.8 149.82 -76.8 0 -57.5 -100.26 -26.48 29.13 0 71.13 -64.69 0 0 -268.99zm310.98 268.99l-64.69 0 0 -268.99 64.69 0 0 268.99zm269.74 0l-64.31 0 -95.34 -167.22 0 167.22 -64.69 0 0 -268.99 64.69 0 95.34 167.22 0 -167.22 64.31 0 0 268.99zm261.42 -33.3c-10.08,11.35 -24.78,20.37 -44.07,27.05 -19.29,6.69 -40.3,10.03 -62.99,10.03 -23.45,0 -44.01,-4.86 -61.67,-14.57 -17.65,-9.72 -31.4,-23.77 -41.24,-42.19 -9.84,-18.41 -14.88,-40.23 -15.14,-65.45l-0.37 -23.45c-0.51,-23.2 3.46,-44.77 11.91,-64.69 8.46,-19.93 21.38,-35.95 38.78,-48.05 17.4,-12.1 38.71,-18.16 63.93,-18.16 33.55,0 59.59,7.63 78.13,22.9 18.53,15.26 29.32,38.14 32.34,68.66l-62.43 0c-2.27,-14.88 -7,-25.53 -14.19,-31.96 -7.18,-6.43 -17.71,-9.65 -31.58,-9.65 -10.59,0 -19.74,3.09 -27.43,9.27 -7.7,6.18 -13.56,15.26 -17.59,27.24 -4.04,11.98 -6.05,26.42 -6.05,43.31l0 16.28c0,17.9 2.01,32.78 6.05,44.63 4.03,11.86 10.27,20.81 18.72,26.87 8.46,6.05 19.23,9.08 32.35,9.08 8.58,0 15.95,-0.95 22.13,-2.84 6.18,-1.89 11.29,-4.73 15.33,-8.52l0 -41.61 -45.02 0 0 -44.65 110.09 0 0 110.47zm-1714.93 333.37l0 91.17 -64.69 0 0 -268.98 107.06 0c20.94,0 39.28,3.97 55.05,11.91 15.77,7.95 27.94,18.79 36.51,32.54 8.57,13.75 12.86,29.33 12.86,46.72 0,17.4 -4.22,32.66 -12.68,45.78 -8.45,13.11 -20.61,23.2 -36.5,30.26 -15.89,7.06 -34.68,10.59 -56.36,10.59l-41.24 0zm0 -50.31l42.37 0c12.61,0 22.2,-3.1 28.76,-9.27 6.56,-6.18 9.84,-15.08 9.84,-26.68 0,-12.86 -3.34,-23.02 -10.02,-30.45 -6.68,-7.44 -15.96,-11.16 -27.81,-11.16l-43.12 0 0 77.56zm281.46 46.53l-35.19 0 0 94.96 -64.68 0 0 -268.98 105.55 0c32.02,0 57.06,7.12 75.1,21.38 18.03,14.25 27.05,34.24 27.05,59.96 0,12.36 -1.71,23.33 -5.11,32.92 -3.4,9.58 -8.57,17.96 -15.51,25.15 -6.94,7.19 -15.7,13.31 -26.29,18.35l55.99 108.58 0 2.65 -69.61 0 -47.29 -94.96zm-35.19 -49.93l40.87 0c8.07,0 14.88,-1.45 20.43,-4.35 5.54,-2.91 9.77,-7.13 12.67,-12.67 2.91,-5.55 4.35,-12.23 4.35,-20.06 0,-11.59 -3.22,-20.68 -9.65,-27.23 -6.43,-6.56 -15.71,-9.85 -27.81,-9.85l-40.87 0 0 74.16zm259.54 -124.09l60.91 0 99.5 268.98 -69.61 0 -15.51 -50.31 -88.91 0 -15.52 50.31 -69.24 0 98.37 -268.98zm59.77 168.73l-29.13 -93.45 -28.76 93.45 57.88 0zm334.06 9.08c0,11.1 -3.09,23.9 -9.27,38.4 -6.18,14.5 -17.53,27.49 -34.05,38.96 -16.52,11.48 -39.16,17.34 -67.92,17.59 -23.45,0 -43.75,-5.16 -60.91,-15.51 -17.15,-10.34 -30.26,-25.47 -39.34,-45.4 -9.09,-19.93 -13.62,-43.63 -13.62,-71.12l0 -13.62c0,-13.88 2.27,-30.39 6.81,-49.56 4.53,-19.16 15.13,-37.45 31.77,-54.86 16.64,-17.4 41.5,-26.23 74.53,-26.48 32.54,0 58.77,8.58 78.69,25.73 19.93,17.14 31.15,40.86 33.68,71.12l-64.69 0c-0.26,-16.15 -4.23,-27.87 -11.92,-35.19 -7.69,-7.32 -19.61,-10.97 -35.76,-10.97 -10.84,0 -19.73,2.66 -26.66,7.95 -6.94,5.29 -12.11,13.56 -15.52,24.78 -3.4,11.22 -5.11,25.66 -5.11,43.31l0 18.92c0,19.41 1.58,34.93 4.73,46.53 3.16,11.6 8.2,20.05 15.14,25.35 6.93,5.29 16.33,7.94 28.18,7.94 15.14,0 26.61,-3.53 34.43,-10.59 7.82,-7.06 11.85,-18.15 12.11,-33.29l64.69 0zm236.45 -127.88l-80.96 0 0 219.05 -64.7 0 0 -219.05 -79.07 0 0 -49.93 224.73 0 0 49.93zm96.09 219.05l-64.69 0 0 -268.98 64.69 0 0 268.98zm262.93 -91.17c0,11.1 -3.09,23.9 -9.27,38.4 -6.18,14.5 -17.52,27.49 -34.05,38.96 -16.52,11.48 -39.16,17.34 -67.91,17.59 -23.45,0 -43.76,-5.16 -60.92,-15.51 -17.14,-10.34 -30.26,-25.47 -39.34,-45.4 -9.08,-19.93 -13.62,-43.63 -13.62,-71.12l0 -13.62c0,-13.88 2.27,-30.39 6.81,-49.56 4.54,-19.16 15.14,-37.45 31.78,-54.86 16.64,-17.4 41.49,-26.23 74.53,-26.48 32.53,0 58.76,8.58 78.69,25.73 19.93,17.14 31.14,40.86 33.67,71.12l-64.69 0c-0.25,-16.15 -4.22,-27.87 -11.92,-35.19 -7.69,-7.32 -19.6,-10.97 -35.75,-10.97 -10.84,0 -19.74,2.66 -26.67,7.95 -6.94,5.29 -12.11,13.56 -15.52,24.78 -3.4,11.22 -5.1,25.66 -5.1,43.31l0 18.92c0,19.41 1.58,34.93 4.72,46.53 3.16,11.6 8.2,20.05 15.14,25.35 6.94,5.29 16.34,7.94 28.19,7.94 15.13,0 26.6,-3.53 34.43,-10.59 7.82,-7.06 11.85,-18.15 12.1,-33.29l64.69 0zm30.64 -177.81l185.38 0 0 49.93 -120.69 0 0 56.75 102.15 0 0 48.43 -102.15 0 0 63.93 120.31 0 0 49.93 -185 0 0 -268.98z"/>
   </g>
   <path class="fil4" d="M3691.14 862.58c570.26,0 1032.55,462.29 1032.55,1032.54 0,570.26 -462.29,1032.54 -1032.55,1032.54 -570.25,0 -1032.54,-462.28 -1032.54,-1032.54 0,-570.25 462.29,-1032.54 1032.54,-1032.54z"/>
   <path class="fil7" d="M3691.14 790.6c305,0 581.13,123.63 781.01,323.51 199.88,199.88 323.52,476.02 323.52,781.01 0,305 -123.64,581.13 -323.52,781.01 -199.88,199.88 -476.01,323.52 -781.01,323.52 -304.99,0 -581.12,-123.64 -781.01,-323.52 -199.88,-199.88 -323.51,-476.01 -323.51,-781.01 0,-304.99 123.63,-581.13 323.51,-781.01 199.89,-199.88 476.02,-323.51 781.01,-323.51zm679.22 425.3c-173.82,-173.82 -413.96,-281.33 -679.22,-281.33 -265.25,0 -505.39,107.52 -679.22,281.33 -173.82,173.82 -281.33,413.96 -281.33,679.22 0,265.26 107.52,505.4 281.33,679.22 173.83,173.82 413.97,281.33 679.22,281.33 265.26,0 505.4,-107.52 679.22,-281.33 173.82,-173.82 281.33,-413.96 281.33,-679.22 0,-265.26 -107.52,-505.4 -281.33,-679.22z"/>
   <path class="fil4" d="M3691.14 1214.91c375.67,0 680.22,304.54 680.22,680.21 0,375.67 -304.55,680.21 -680.22,680.21 -375.67,0 -680.21,-304.54 -680.21,-680.21 0,-375.67 304.54,-680.21 680.21,-680.21z"/>
   <path class="fil8" d="M3691.14 1142.93c207.71,0 395.76,84.2 531.87,220.32 136.12,136.12 220.33,324.18 220.33,531.87 0,207.71 -84.2,395.76 -220.33,531.87 -136.11,136.12 -324.17,220.33 -531.87,220.33 -207.7,0 -395.75,-84.2 -531.87,-220.33 -136.11,-136.11 -220.32,-324.17 -220.32,-531.87 0,-207.7 84.2,-395.75 220.32,-531.87 136.12,-136.11 324.18,-220.32 531.87,-220.32zm430.09 322.1c-110.05,-110.05 -262.12,-178.14 -430.09,-178.14 -167.96,0 -320.03,68.09 -430.09,178.14 -110.05,110.06 -178.14,262.12 -178.14,430.09 0,167.97 68.09,320.04 178.14,430.09 110.06,110.06 262.13,178.14 430.09,178.14 167.97,0 320.04,-68.08 430.09,-178.14 110.06,-110.05 178.14,-262.12 178.14,-430.09 0,-167.97 -68.08,-320.03 -178.14,-430.09z"/>
   <path class="fil4" d="M3691.14 1560.27c184.94,0 334.86,149.92 334.86,334.85 0,184.94 -149.92,334.85 -334.86,334.85 -184.93,0 -334.85,-149.91 -334.85,-334.85 0,-184.93 149.92,-334.85 334.85,-334.85z"/>
   <path class="fil9" d="M3691.14 1488.29c112.33,0 214.06,45.54 287.67,119.16 73.63,73.63 119.17,175.34 119.17,287.67 0,112.33 -45.54,214.05 -119.17,287.67 -73.62,73.62 -175.34,119.17 -287.67,119.17 -112.32,0 -214.05,-45.55 -287.66,-119.17 -73.63,-73.63 -119.17,-175.34 -119.17,-287.67 0,-112.33 45.54,-214.05 119.17,-287.67 73.62,-73.62 175.34,-119.16 287.66,-119.16zm185.89 220.95c-47.56,-47.56 -113.29,-76.98 -185.89,-76.98 -72.59,0 -138.32,29.43 -185.88,76.98 -47.57,47.57 -76.99,113.3 -76.99,185.89 0,72.6 29.43,138.32 76.99,185.89 47.56,47.56 113.29,76.98 185.88,76.98 72.6,0 138.33,-29.43 185.89,-76.98 47.57,-47.57 76.98,-113.29 76.98,-185.89 0,-72.59 -29.42,-138.32 -76.98,-185.89z"/>
   <polygon class="fil4" points="4594.58,705.47 4605.51,958.77 4902,971.5 4572.76,1286.18 4301.73,1284.37 4277.42,1017.74 "/>
   <path class="fil10" d="M3751.71 1930.69c-28.11,27.95 -73.56,27.83 -101.51,-0.28 -27.95,-28.11 -27.82,-73.56 0.28,-101.51l589.97 -584.85 -20.17 -221.14c-1.61,-17.8 5.1,-34.44 16.91,-46.08l-0.04 -0.03 317.17 -312.28c22.61,-22.24 58.97,-21.93 81.21,0.68 10.54,10.72 16.02,24.53 16.45,38.46l8.62 200.01 243.65 10.46c31.68,1.24 56.35,27.94 55.12,59.61 -0.61,15.55 -7.35,29.41 -17.79,39.34l-329.22 314.71c-11.95,11.37 -27.53,16.58 -42.8,15.73l-224.03 -1.51 -593.81 588.67zm796.43 -969.44l-5.35 -124.19 -205.77 202.58 17.11 187.72 195.67 1.32 215.1 -205.6 -160.93 -6.91c-29.9,-0.77 -54.54,-24.58 -55.85,-54.92z"/>
  </g>
 </g>
</svg>
