<svg width="106" height="106" viewBox="0 0 106 106" fill="none" xmlns="http://www.w3.org/2000/svg">
<path opacity="0.2" d="M95.9264 52.7097C95.6436 53.6578 95.0753 54.4957 94.2991 55.1093C93.5229 55.7229 92.5764 56.0823 91.5886 56.1386C90.4028 56.2598 89.2585 56.6421 88.238 57.258C87.2175 57.874 86.346 58.7084 85.6863 59.7011C85.0266 60.6939 84.5949 61.8205 84.4223 63C84.2497 64.1794 84.3405 65.3825 84.6881 66.5227C85.0239 67.4543 85.0629 68.4671 84.7999 69.4218C84.5369 70.3765 83.9847 71.2264 83.2192 71.8547C82.4908 72.4147 81.735 72.9331 80.9661 73.4362C78.9104 70.2627 77.5881 66.6707 77.0956 62.9217C76.6031 59.1727 76.9527 55.3611 78.119 51.7643C79.2853 48.1674 81.2389 44.8759 83.8376 42.1293C86.4364 39.3827 89.6149 37.2501 93.1417 35.8867C93.2511 35.9283 93.3659 35.9851 93.4917 36.0267C94.2308 36.2938 94.9027 36.7189 95.4605 37.2725C96.1578 37.9624 96.61 38.8618 96.7478 39.833C97.2693 44.1392 96.9909 48.5047 95.9264 52.7097Z" fill="url(#paint0_linear_822_17253)"/>
<path opacity="0.2" d="M64.3243 14.5583L64.5769 30.6572C63.0796 30.6856 61.3821 30.3575 59.9974 30.8344L59.958 13.9141C60.8415 14.311 61.79 14.5434 62.7569 14.5998C63.2794 14.6425 63.8048 14.6286 64.3243 14.5583Z" fill="url(#paint1_linear_822_17253)"/>
<path opacity="0.2" d="M54.4164 10.4576V33.2984L54.248 33.4242C54.1638 33.48 54.0938 33.55 54.0107 33.6058C53.8149 33.76 53.6322 33.9142 53.4507 34.0684C53.3913 34.1158 53.335 34.1669 53.2822 34.2215C53.0306 34.4403 52.7922 34.6842 52.5691 34.9215C52.4707 35.02 52.3864 35.1173 52.2891 35.2157L52.2749 35.23C52.0933 35.4257 51.9249 35.6358 51.7564 35.8315C51.7433 35.8589 51.7149 35.8731 51.7007 35.9015C51.6175 35.9989 51.5333 36.1115 51.4633 36.2089C51.4075 36.2789 51.3649 36.3489 51.3091 36.4189C51.1997 36.5731 51.0849 36.747 50.9733 36.9089C50.8763 37.0495 50.7876 37.1956 50.7075 37.3464C50.6933 37.3737 50.6649 37.4022 50.6517 37.4306L50.5249 37.6406C50.4975 37.6822 50.4833 37.7237 50.4549 37.7664C50.3991 37.8637 50.3455 37.9622 50.2875 38.0737C50.2591 38.1295 50.2318 38.1831 50.1891 38.2564C50.176 38.2695 50.176 38.298 50.1617 38.3122C50.1191 38.3822 50.0918 38.4522 50.0524 38.5309C50.013 38.6097 49.9692 38.7136 49.9266 38.8109C49.6655 39.3793 49.4412 39.9638 49.255 40.5609C49.2266 40.6451 49.2135 40.7151 49.185 40.7982C49.185 40.8125 49.185 40.8267 49.1708 40.8267C49.1435 40.9251 49.115 41.0367 49.0866 41.1351C49.0035 41.4425 48.9335 41.764 48.8777 42.0867C48.8655 42.1813 48.8465 42.2749 48.8208 42.3667C48.8077 42.4925 48.7793 42.6041 48.765 42.7298C48.7508 42.8556 48.7377 42.9486 48.7235 43.0525C48.7092 43.1564 48.695 43.2898 48.6808 43.4014C48.6666 43.5129 48.6677 43.6114 48.6535 43.7295C48.6392 43.8476 48.6392 43.9253 48.6392 44.0237C48.6392 44.1222 48.625 44.1769 48.625 44.2425V44.4251C48.625 44.7883 48.625 45.1525 48.6535 45.5189C48.6677 45.7989 48.695 46.092 48.7377 46.372C48.7803 46.652 48.8077 46.8905 48.8471 47.1376C48.8635 47.2556 48.8869 47.3724 48.917 47.4876C48.9455 47.597 48.9586 47.725 48.9871 47.8376V47.865C49.0036 47.9599 49.0269 48.0535 49.0571 48.145C49.0713 48.1876 49.0713 48.2292 49.0855 48.2708C49.0879 48.3051 49.0972 48.3385 49.1128 48.3692C49.1271 48.3976 49.1271 48.4392 49.1413 48.4677C49.1555 48.5377 49.1828 48.6076 49.1971 48.6634L49.2813 48.9565C49.3086 49.055 49.3513 49.1665 49.3786 49.265C49.4628 49.5023 49.5471 49.755 49.6444 49.9923L49.7713 50.2866C49.8164 50.4011 49.8675 50.5131 49.9244 50.6223C49.9407 50.6599 49.9593 50.6964 49.9802 50.7317C49.9944 50.7448 49.9944 50.7732 50.0086 50.7875C50.0086 50.7912 50.0101 50.7949 50.0128 50.7975C50.0155 50.8002 50.0191 50.8017 50.0228 50.8017C50.29 51.3648 50.5986 51.9073 50.946 52.4248C51.0028 52.509 51.0553 52.5922 51.1144 52.6622C51.1735 52.7322 51.1844 52.7715 51.2238 52.8306C51.3222 52.9564 51.4064 53.0822 51.5038 53.2222C51.5517 53.2901 51.6032 53.3554 51.658 53.4179C51.6996 53.4748 51.7422 53.5164 51.7838 53.5722C51.8253 53.628 51.8395 53.6422 51.868 53.6816C51.9536 53.7955 52.0472 53.9033 52.148 54.0042L52.2038 54.06C52.3022 54.1693 52.3996 54.27 52.498 54.3815C52.5253 54.4242 52.568 54.4515 52.5953 54.4909L52.6096 54.504C52.6387 54.5403 52.6717 54.5733 52.708 54.6025L52.9038 54.7983C52.9401 54.8274 52.9731 54.8604 53.0022 54.8967C53.0521 54.94 53.0989 54.9868 53.1422 55.0367L53.1553 55.0498C53.2111 55.1067 53.2647 55.1483 53.3238 55.2041C53.3829 55.2598 53.408 55.274 53.4496 55.3134C53.5065 55.3685 53.5672 55.4197 53.6311 55.4665C53.6738 55.495 53.7011 55.5365 53.7405 55.565C53.7799 55.5934 53.782 55.6065 53.8105 55.6208C53.9363 55.7192 54.0478 55.8165 54.1736 55.915C54.202 55.9292 54.2305 55.9565 54.2579 55.9708C54.2852 55.985 54.3278 56.0265 54.3672 56.055V76.5442C53.8008 76.8916 53.1656 77.1115 52.5057 77.1888C51.8458 77.2661 51.177 77.1987 50.5457 76.9915C48.3991 76.2344 46.3319 75.2688 44.3736 74.1084C42.3962 72.9363 40.5356 71.5775 38.8174 70.0506V28.0495C39.3691 27.0922 39.7185 26.0318 39.8438 24.9341C39.9691 23.8363 39.8676 22.7245 39.5458 21.6675C39.2146 20.7353 39.1779 19.7239 39.4406 18.7701C39.7033 17.8164 40.2529 16.9665 41.0147 16.3354C44.47 13.7128 48.3866 11.7617 52.5614 10.5834C53.1611 10.3953 53.7969 10.3522 54.4164 10.4576Z" fill="url(#paint2_linear_822_17253)"/>
<path d="M73.1722 52.162C71.9438 54.1401 70.1598 55.7123 68.0429 56.6822C65.9261 57.6522 63.5703 57.9767 61.27 57.6154C60.2702 57.4716 59.2914 57.2072 58.3552 56.8279C57.1934 56.3059 56.11 55.6245 55.1363 54.8034C54.9952 54.6864 54.8672 54.5496 54.7207 54.4403C54.4297 54.2215 54.7207 54.5628 54.7688 54.6054C54.6857 54.5278 54.6594 54.3867 54.5763 54.2992C54.1388 53.8507 53.9747 53.7151 53.709 53.3902C52.3648 51.9278 51.368 50.1809 50.793 48.2797C50.2179 46.3785 50.0793 44.372 50.3875 42.4097C50.6958 40.4475 51.4429 38.5801 52.5733 36.9468C53.7036 35.3135 55.188 33.9563 56.9158 32.9765C57.0598 32.8539 57.2126 32.7421 57.373 32.6418C57.4605 32.6418 56.6074 32.9623 57.0088 32.9295C57.2868 32.845 57.5497 32.7169 57.7875 32.55C57.8969 32.4964 58.0063 32.4581 58.1157 32.41C58.0314 32.4471 57.6585 32.5751 58.1157 32.4012C58.4897 32.259 58.8693 32.1343 59.2543 32.0271C60.36 31.7145 61.5059 31.5671 62.6547 31.5896C64.9633 31.6503 67.209 32.3549 69.1385 33.624C69.8219 34.0586 70.4634 34.5559 71.0547 35.1093C71.3905 35.4287 71.711 35.7656 72.015 36.1156C72.1529 36.2731 72.6527 36.821 72.5619 36.7073C73.4929 38.0257 74.2197 39.477 74.7177 41.0123C75.2648 42.8738 75.41 44.8303 75.1436 46.7522C74.8771 48.6741 74.2052 50.5173 73.1722 52.1598C72.7631 52.8259 73.531 53.2535 74.091 53.3148C74.4879 53.3565 74.8888 53.2932 75.2535 53.1312C75.6182 52.9692 75.934 52.7141 76.1691 52.3917C78.1003 49.3042 78.8379 45.6179 78.2434 42.025C77.6488 38.4322 75.7631 35.18 72.9403 32.8792C70.62 31.1047 67.8648 29.9874 64.9638 29.6446C62.0629 29.3019 59.1232 29.7463 56.4532 30.9312C56.16 31.0646 55.8658 31.2057 55.5782 31.3523C55.3955 31.4453 54.4735 32.0304 54.9963 31.7143C55.5432 31.3862 54.5489 31.9331 54.3849 32.0271C53.9583 32.2875 53.5458 32.57 53.149 32.8737C51.845 33.8637 50.7035 35.0512 49.766 36.3934C47.9782 38.9394 47.0369 41.9834 47.0754 45.0942C47.1322 48.2635 48.184 51.3349 50.0821 53.8737C51.5072 55.7801 53.3874 57.2989 55.5508 58.2914C58.4439 59.7361 61.7262 60.2076 64.9089 59.6356C67.1873 59.2782 69.3661 58.4493 71.3059 57.202C73.2457 55.9546 74.9039 54.3163 76.1746 52.3917C76.6121 51.7354 75.7961 51.2979 75.2558 51.2367C74.858 51.1962 74.4566 51.2603 74.0911 51.4225C73.7257 51.5848 73.4089 51.8397 73.1722 52.162Z" fill="#080F21"/>
<path d="M98.3196 39.4126C98.1201 38.2296 97.5242 37.1496 96.6297 36.3501C95.6455 35.6518 94.5886 35.0621 93.4775 34.5913C92.2644 33.8792 91.2778 32.8381 90.632 31.5884C89.9863 30.3386 89.7078 28.9316 89.8288 27.5301C89.9622 26.1651 90.6349 24.9433 90.6611 23.5663C90.7007 22.3927 90.3507 21.239 89.6658 20.2851C87.773 17.9826 85.5199 16.0017 82.9939 14.4193C80.6826 12.8478 78.1944 11.5537 75.5805 10.5638C74.3658 10.0289 73.0286 9.83341 71.7116 9.99828C70.3945 10.1632 69.1469 10.6822 68.1015 11.5001C67.2012 12.3858 66.1064 13.0487 64.9044 13.436C64.2268 13.5862 63.5279 13.614 62.8405 13.5181C62.4027 13.4544 61.9723 13.3478 61.5554 13.1998C61.3563 13.1319 60.1444 12.6081 60.8094 12.9537C61.5958 13.3617 60.3522 12.6365 60.3216 12.6179C60.0709 12.4668 59.8292 12.3013 59.5976 12.1224C59.0879 11.7243 58.6711 11.2255 58.1757 10.8099C57.1449 9.95785 55.874 9.44857 54.5401 9.35304C51.8133 9.16163 48.6819 10.7148 46.2866 11.8687C43.7416 12.9575 41.3901 14.452 39.3238 16.294C37.3813 18.242 37.7477 20.4776 38.2049 22.9134C38.4632 24.2564 38.3301 25.6453 37.8215 26.9149C37.3129 28.1844 36.4501 29.281 35.336 30.0741C34.3895 30.6325 33.3322 30.9767 32.2385 31.0826C31.0111 31.2834 29.8489 31.773 28.8479 32.511C26.6221 34.1943 26.2983 37.0938 25.9549 39.6827C25.4791 42.7535 25.4879 45.8799 25.9811 48.9479C26.2447 50.3173 26.995 50.6388 28.3261 50.8543C29.311 51.0061 30.3164 50.9585 31.2825 50.7143C32.2486 50.47 33.1558 50.0341 33.9502 49.4324C34.7968 48.786 34.8876 48.6067 35.9594 49.0288C37.5079 49.6467 38.9746 50.4522 40.3268 51.4274C41.5102 52.2729 43.2362 53.4585 43.8574 54.8181C44.4787 56.1776 43.3958 57.8226 43.5577 59.3024C43.7133 60.627 44.3366 61.8526 45.3154 62.7587C46.3533 63.7168 48.1591 63.9301 48.6775 65.3519C49.0755 67.0323 49.1184 68.7772 48.8033 70.4751C48.6557 71.8182 48.6775 74.126 47.0216 74.3634C46.431 74.4476 44.2675 75.5938 45.6074 76.2457C48.135 77.4762 50.7666 78.7733 53.6136 77.929C56.336 77.1218 57.8454 74.4093 60.9111 74.5777C62.2068 74.6636 63.4495 75.1246 64.4877 75.9044C65.588 76.7149 66.3471 77.7529 67.6475 78.2812C70.4464 79.4154 73.335 78.1718 75.96 77.1218C78.6214 76.0506 81.1418 74.6581 83.4654 72.9754C85.3947 71.5754 86.7127 69.7958 86.4786 67.2988C86.3485 65.9043 85.7961 64.6815 85.9219 63.2454C86.0379 61.8427 86.5614 60.5045 87.428 59.3954C88.1493 58.4637 89.1259 57.7618 90.2389 57.3752C91.4563 56.9716 92.7196 56.9913 93.9172 56.4641C96.738 55.2216 97.5266 52.8405 98.0429 50.0034C98.6525 46.5063 98.7447 42.9386 98.3163 39.4148C98.1697 38.1406 94.988 38.8832 95.1444 40.2646C95.4889 43.183 95.4584 46.1335 95.0536 49.0441C94.754 51.1452 94.5954 54.3926 92.0808 55.0106C89.913 55.5432 88.0219 55.8341 86.2139 57.2899C84.4413 58.6888 83.2347 60.6818 82.8168 62.9009C82.6271 64.0137 82.6542 65.1528 82.8966 66.2554C83.3235 67.431 83.3747 68.7102 83.0432 69.9162C82.5182 70.9324 81.6888 71.7592 80.6708 72.2808C79.6217 72.9964 78.5307 73.6488 77.4038 74.2343C76.2858 74.8083 75.1367 75.3195 73.9618 75.7655C72.6033 76.2807 71.095 77.019 69.6743 76.3791C68.6961 75.7524 67.786 75.0255 66.9585 74.2102C65.9882 73.5141 64.8886 73.0188 63.7243 72.7533C61.1737 72.1691 58.4969 72.5555 56.2157 73.8372C55.0607 74.4869 53.9997 75.922 52.6654 76.1221C51.2161 76.3409 49.3349 75.1629 48.0793 74.5515L46.6661 76.4349C48.496 76.1724 50.4232 75.5085 51.2479 73.7005C51.992 71.6189 52.2847 69.4027 52.1065 67.1993C52.0496 65.0118 51.7565 63.2126 49.6302 62.214C47.6275 61.2745 46.3052 59.5157 46.8412 57.1718C47.2933 56.2904 47.4056 55.2736 47.1567 54.3149C46.9078 53.3561 46.3152 52.5223 45.4915 51.9721C43.96 50.4782 42.2227 49.2112 40.3322 48.2096C38.521 47.2558 36.5183 46.2409 34.426 46.7877C33.5098 47.0728 32.6633 47.5463 31.941 48.1779C31.5061 48.5392 30.9738 48.7633 30.4114 48.8217C29.8491 48.8801 29.2821 48.7703 28.7822 48.506L29.4275 49.0529C28.8494 46.9976 28.6609 44.8523 28.8719 42.7277C28.9438 40.5699 29.2188 38.4236 29.6933 36.3173C30.1002 34.5093 30.7805 33.3379 32.7066 33.036C34.3733 32.8107 35.969 32.2174 37.378 31.2991C38.7426 30.3962 39.8427 29.1468 40.5655 27.6789C41.2883 26.2109 41.6079 24.5772 41.4916 22.9451C41.3407 21.1338 40.4132 19.4276 41.4413 17.6863C42.3163 16.1988 44.5115 15.1532 45.9815 14.3362C47.6755 13.3927 49.4513 12.6042 51.2873 11.9802C52.1535 11.5503 53.1342 11.407 54.0872 11.5712C55.0335 11.9753 55.8782 12.5846 56.5602 13.3551C57.9094 14.4802 59.5323 15.2282 61.2641 15.523C62.9959 15.8179 64.7749 15.6492 66.4204 15.034C67.2049 14.7537 67.9538 14.3822 68.6516 13.9271C69.3563 13.3216 70.0935 12.7549 70.8599 12.2296C72.4546 11.4301 74.8149 12.9209 76.239 13.6176C79.8945 15.4068 83.2022 17.8327 86.0072 20.7816C87.7255 22.5896 87.5287 24.1963 86.8997 26.4451C86.3378 28.4966 86.5581 30.6838 87.5177 32.5821C88.3259 34.1892 89.6002 35.515 91.1741 36.3862C93.0258 37.4044 94.7277 37.8923 95.151 40.2624C95.3851 41.5552 98.5657 40.7699 98.3196 39.4126Z" fill="#080F21"/>
<path d="M31.1141 76.0853C29.4945 76.2547 27.8616 75.929 26.4308 75.1513C25.0001 74.3735 23.8388 73.1803 23.1002 71.7289C22.3551 70.2521 22.0674 68.5866 22.2742 66.9454C22.4809 65.3043 23.1725 63.7621 24.2606 62.5163C25.3423 61.3145 26.7787 60.4885 28.3614 60.1581C29.9442 59.8277 31.591 60.0101 33.0632 60.6787C34.5426 61.3704 35.7848 62.4838 36.6338 63.879C37.4828 65.2742 37.9008 66.8891 37.8352 68.5209C37.7673 70.366 37.0595 72.13 35.8332 73.5102C34.6068 74.8904 32.9384 75.8009 31.1141 76.0853C30.7925 76.1291 30.2566 76.3183 30.2391 76.7197C30.2227 77.0992 30.6394 77.2666 30.9686 77.2283C32.8538 77.0054 34.6319 76.2335 36.082 75.0084C37.532 73.7833 38.5901 72.1591 39.1247 70.3377C39.6265 68.4653 39.5191 66.4818 38.8181 64.6746C38.117 62.8673 36.8587 61.3303 35.2255 60.2861C33.5823 59.2782 31.6765 58.7816 29.7504 58.8595C27.8242 58.9374 25.9648 59.5863 24.4083 60.7236C22.7475 61.9138 21.5328 63.6255 20.9577 65.5862C20.3827 67.5469 20.4804 69.6435 21.2354 71.5422C21.9903 73.4409 23.359 75.0322 25.1234 76.0627C26.8877 77.0932 28.9462 77.5035 30.9708 77.2283C31.8447 77.1342 32.1958 75.9694 31.1141 76.0853Z" fill="#080F21"/>
<path d="M49.5597 63.7942C49.2197 63.4561 48.8087 63.1979 48.3565 63.0384C48.2472 62.9968 48.1323 62.9542 48.035 62.9126C46.9962 62.44 46.1514 61.6249 45.6418 60.6037C45.3375 59.9952 45.163 59.3301 45.1293 58.6506C45.0956 57.9711 45.2034 57.292 45.4461 56.6564C45.6541 56.1562 45.7209 55.6085 45.6393 55.073C45.5578 54.5375 45.3309 54.0346 44.9834 53.619C43.857 52.3697 42.5837 51.261 41.1914 50.317C41.1214 50.2601 41.0371 50.2186 40.9726 50.1628C39.4933 49.1839 37.9 48.3894 36.2279 47.797C35.7098 47.6352 35.157 47.6202 34.6309 47.7536C34.1048 47.8871 33.6259 48.1637 33.2475 48.5528C32.7557 49.021 32.1723 49.3822 31.5339 49.6136C30.8955 49.845 30.2161 49.9414 29.5386 49.897C28.9426 49.859 28.3588 49.7106 27.817 49.4595C27.2261 49.1927 26.6935 48.8121 26.2497 48.3395L26.1403 48.2301C25.7837 47.8557 25.3345 47.5821 24.8382 47.4371C24.3419 47.2921 23.8161 47.2808 23.314 47.4043C20.7535 48.1267 18.3512 49.3232 16.232 50.9317C15.764 51.3191 15.4268 51.8414 15.2665 52.4274C15.1062 53.0135 15.1305 53.6347 15.3362 54.2064C15.5485 54.9051 15.6036 55.6422 15.4977 56.3648C15.3918 57.0874 15.1274 57.7776 14.7236 58.3861C14.3197 58.9946 13.7864 59.5063 13.1617 59.8846C12.537 60.2629 11.8363 60.4983 11.11 60.5742C10.5042 60.6069 9.92342 60.8261 9.4472 61.2019C8.97097 61.5777 8.62264 62.0915 8.44998 62.6731C7.79308 65.2501 7.62246 67.9271 7.94686 70.5667C8.03143 71.0968 8.25964 71.5937 8.60672 72.0032C8.95381 72.4128 9.4065 72.7194 9.9156 72.8898C9.92982 72.8898 9.92982 72.8898 9.94404 72.904C10.4944 73.109 11.0054 73.4072 11.4545 73.7856C11.9568 74.2167 12.3661 74.7455 12.6576 75.3398C12.9605 75.9458 13.1355 76.6075 13.1716 77.284C13.2077 77.9604 13.1043 78.6371 12.8676 79.2718C12.656 79.7712 12.5871 80.3196 12.6686 80.8558C12.7501 81.3921 12.9788 81.8952 13.3292 82.3092C14.7772 83.9007 16.4567 85.265 18.3112 86.3561C19.5113 87.0732 20.7825 87.6641 22.1044 88.1192C22.6226 88.2812 23.1757 88.2963 23.702 88.1628C24.2283 88.0294 24.7074 87.7527 25.0859 87.3634C25.9745 86.5244 27.1418 86.0432 28.3636 86.0124C29.5853 85.9815 30.7754 86.403 31.7053 87.1961C31.8461 87.3107 31.9771 87.4369 32.0968 87.5734C32.4521 87.9601 32.8936 88.2576 33.3853 88.4418C33.9107 88.6395 34.4856 88.664 35.0259 88.5119C37.587 87.7918 39.9893 86.5951 42.1069 84.9845C42.5749 84.5971 42.9121 84.0748 43.0724 83.4887C43.2327 82.9027 43.2083 82.2815 43.0026 81.7098C42.7896 81.0108 42.7332 80.2735 42.8374 79.5503C42.9415 78.827 43.2037 78.1356 43.6053 77.5251C44.0047 76.9135 44.5364 76.3993 45.1611 76.0207C45.7858 75.6421 46.4876 75.4086 47.2146 75.3376C47.8198 75.3028 48.3996 75.0826 48.8752 74.7069C49.3509 74.3312 49.6994 73.8182 49.8736 73.2376C50.5309 70.6606 50.7019 67.9837 50.3778 65.344C50.2712 64.7555 49.9855 64.2142 49.5597 63.7942Z" fill="#080F21"/>
<path d="M30.023 74.0285C33.3182 74.0285 35.9895 71.3573 35.9895 68.0621C35.9895 64.7669 33.3182 62.0957 30.023 62.0957C26.7279 62.0957 24.0566 64.7669 24.0566 68.0621C24.0566 71.3573 26.7279 74.0285 30.023 74.0285Z" fill="white"/>
<path d="M55.7885 96.6639C63.6033 96.6639 69.9384 90.3289 69.9384 82.5141C69.9384 74.6994 63.6033 68.3643 55.7885 68.3643C47.9738 68.3643 41.6387 74.6994 41.6387 82.5141C41.6387 90.3289 47.9738 96.6639 55.7885 96.6639Z" fill="#3063BA"/>
<path d="M56.1266 86.8587C58.5259 86.8587 60.471 84.9136 60.471 82.5143C60.471 80.115 58.5259 78.1699 56.1266 78.1699C53.7273 78.1699 51.7822 80.115 51.7822 82.5143C51.7822 84.9136 53.7273 86.8587 56.1266 86.8587Z" fill="#080F21"/>
<path d="M89.5628 83.2827H56.2099C56.0359 83.2827 55.869 83.2135 55.7459 83.0905C55.6228 82.9674 55.5537 82.8005 55.5537 82.6264V82.4306C55.5537 82.2566 55.6228 82.0897 55.7459 81.9666C55.869 81.8435 56.0359 81.7744 56.2099 81.7744H89.5617C89.7357 81.7744 89.9026 81.8435 90.0257 81.9666C90.1488 82.0897 90.2179 82.2566 90.2179 82.4306V82.6264C90.2154 82.7995 90.1456 82.9648 90.0233 83.0873C89.901 83.2098 89.7358 83.2799 89.5628 83.2827Z" fill="#080F21"/>
<path d="M92.0263 84.948H87.2959V80.0918H92.0263C92.6719 80.0924 93.2908 80.3491 93.7473 80.8056C94.2038 81.262 94.4605 81.881 94.461 82.5265C94.4579 83.17 94.1999 83.7861 93.7436 84.2399C93.2874 84.6937 92.6699 84.9483 92.0263 84.948Z" fill="#080F21"/>
<path d="M17.2445 30.569C19.169 30.569 20.7291 29.0088 20.7291 27.0843C20.7291 25.1597 19.169 23.5996 17.2445 23.5996C15.3199 23.5996 13.7598 25.1597 13.7598 27.0843C13.7598 29.0088 15.3199 30.569 17.2445 30.569Z" fill="#080F21"/>
<path d="M8.94471 49.6736C9.78738 49.6736 10.4705 48.9905 10.4705 48.1479C10.4705 47.3052 9.78738 46.6221 8.94471 46.6221C8.10205 46.6221 7.41895 47.3052 7.41895 48.1479C7.41895 48.9905 8.10205 49.6736 8.94471 49.6736Z" fill="#080F21"/>
<path d="M96.0101 72.3602C96.8528 72.3602 97.5359 71.677 97.5359 70.8344C97.5359 69.9917 96.8528 69.3086 96.0101 69.3086C95.1675 69.3086 94.4844 69.9917 94.4844 70.8344C94.4844 71.677 95.1675 72.3602 96.0101 72.3602Z" fill="#080F21"/>
<path d="M62.7831 49.5173C65.4555 49.5173 67.6219 47.3509 67.6219 44.6786C67.6219 42.0062 65.4555 39.8398 62.7831 39.8398C60.1107 39.8398 57.9443 42.0062 57.9443 44.6786C57.9443 47.3509 60.1107 49.5173 62.7831 49.5173Z" fill="#3063BA"/>
<defs>
<linearGradient id="paint0_linear_822_17253" x1="76.8788" y1="54.662" x2="97.0049" y2="54.662" gradientUnits="userSpaceOnUse">
<stop offset="0.005" stop-color="#3063BA"/>
<stop offset="1" stop-color="#A3BFF6"/>
</linearGradient>
<linearGradient id="paint1_linear_822_17253" x1="59.958" y1="22.3742" x2="64.5769" y2="22.3742" gradientUnits="userSpaceOnUse">
<stop offset="0.005" stop-color="#3063BA"/>
<stop offset="1" stop-color="#A3BFF6"/>
</linearGradient>
<linearGradient id="paint2_linear_822_17253" x1="38.825" y1="43.8214" x2="54.4164" y2="43.8214" gradientUnits="userSpaceOnUse">
<stop offset="0.005" stop-color="#3063BA"/>
<stop offset="1" stop-color="#A3BFF6"/>
</linearGradient>
</defs>
</svg>
