<?xml version="1.0" encoding="UTF-8"?>
<!DOCTYPE svg PUBLIC "-//W3C//DTD SVG 1.1//EN" "http://www.w3.org/Graphics/SVG/1.1/DTD/svg11.dtd">
<!-- Creator: CorelDRAW 2020 (64-Bit) -->
<svg xmlns="http://www.w3.org/2000/svg" xml:space="preserve" width="94.1916mm" height="52.9166mm" version="1.1" style="shape-rendering:geometricPrecision; text-rendering:geometricPrecision; image-rendering:optimizeQuality; fill-rule:evenodd; clip-rule:evenodd"
viewBox="0 0 9404.92 5283.66"
 xmlns:xlink="http://www.w3.org/1999/xlink"
 xmlns:xodm="http://www.corel.com/coreldraw/odm/2003">
 <defs>
  <style type="text/css">
   <![CDATA[
    .fil12 {fill:black}
    .fil11 {fill:#D80027}
    .fil0 {fill:#E6E7E8}
    .fil13 {fill:#FFD943}
    .fil5 {fill:#1861B7;fill-rule:nonzero}
    .fil9 {fill:#2469CE;fill-rule:nonzero}
    .fil3 {fill:#4087DD;fill-rule:nonzero}
    .fil6 {fill:#E0D1FC;fill-rule:nonzero}
    .fil8 {fill:#F3222E;fill-rule:nonzero}
    .fil10 {fill:#F72635;fill-rule:nonzero}
    .fil7 {fill:#F95D6C;fill-rule:nonzero}
    .fil4 {fill:white;fill-rule:nonzero}
    .fil2 {fill:#373435;fill-opacity:0.031373}
    .fil1 {fill:#2B2A29;fill-opacity:0.101961}
   ]]>
  </style>
 </defs>
 <g id="Layer_x0020_1">
  <metadata id="CorelCorpID_0Corel-Layer"/>
  <polygon class="fil0" points="-0,0 9404.92,0 9404.92,5283.66 -0,5283.66 "/>
  <path class="fil1" d="M-0 2921.4l0 -111.2 0 -213.04 0 -98.66 0 -162.33 3113.08 -1399.08 0 186.51 422.3 -186.51 0 115.36 62.54 -27.33 585.15 0 1020.2 -435.36 -24.05 10.93 -23.76 11.61 -23.45 12.27 -23.13 12.94 -22.81 13.61 -22.44 14.26 -22.08 14.92 -21.69 15.57 -21.29 16.23 -20.87 16.86 -20.43 17.51 -19.98 18.15 -19.51 18.79 -19.02 19.43 -18.53 20.06 -18 20.69 -17.48 21.32 -16.92 21.95 -4.98 7.07 -4.85 6.8 -4.76 6.62 -4.71 6.52 -4.71 6.53 -4.75 6.63 -4.85 6.8 -4.98 7.08 -5.73 8.94 -6.25 10.04 -6.69 11.02 -7 11.83 -7.21 12.5 -7.33 13.02 -2.02 3.67 179.12 -74.85 -10.92 11.49 -11.23 12.25 -11.5 13.01 -11.74 13.79 -11.93 14.57 -12.09 15.36 -5.71 7.56 720.27 0 15.74 0.8 15.29 2.33 14.75 3.79 14.14 5.17 13.45 6.48 12.68 7.71 11.84 8.86 10.92 9.93 9.93 10.92 8.85 11.84 7.71 12.69 6.48 13.45 5.17 14.15 0.67 2.62 776.64 0 -770.4 297.9 0 371.88 770.4 0 -770.4 279.06 0 340.58 10.11 -1.34 17.39 -2.65 17.38 -2.97 17.35 -3.3 17.33 -3.63 17.3 -3.96 17.25 -4.3 17.21 -4.63 17.16 -4.98 17.1 -5.32 17.04 -5.66 -182.66 63.68 0 1418.81 -0.8 15.74 -2.33 15.28 -3.78 14.76 -5.17 14.14 -6.48 13.45 -7.71 12.69 -8.85 11.85 -9.93 10.92 -10.92 9.93 -11.84 8.87 -12.68 7.71 -13.45 6.48 -14.14 5.17 -326.19 94.93 333.91 0 16.66 -0.84 16.18 -2.47 15.62 -4.02 -66.18 19 243.02 0 0 30.25 18.94 0 -18.94 5.36 0 590.57 -116.22 30.34 135.17 0 -1957.62 508.53 -125.27 0 -642.54 0 -44.39 0 -194.81 0 -0.61 0 -6.75 0 -43.34 0 -150.97 0 -174.47 0 -135.62 0 -7.49 0 -34.54 0 -41.5 0 -159.07 0 -121.21 0 -40.25 0 -24.38 0 -72.8 0 -29.9 0 -106.54 0 -8.52 0 -127.54 0 -69.77 0 -19.39 0 -101.35 0 -101.21 0 -16.87 0 -31.5 0 -31.41 0 -55.03 0 -19.73 0 -75.26 0 -24.84 0 -25.96 0 -124.57 0 -27.73 0 -158.41 0 -1.75 0 -149.78 0 -184.02 0 -41.18 0 -98.55 0 -171.46 0 -89.08 0 0 -48.44 0 -25.52 0 -114.65 0 -2.69 0 -34.63 0 -202.69 0 -593.35 0 -29.42 0 -442.05 0 -101.37 0 -63.67 0 -0.04 0 -2.18 0 -9.72 0 -82.01 0 -48.7 0 -118.74 0 -56.88 0 -52.52 0 -88.6 0 -62.85 0 -13.8 0 -10 0 -0.92 0 -0.03 0 -1.57 0 -81.09 0 -43.43 0 -30.72zm6495.51 -1115.77l0 0z"/>
  <path class="fil2" d="M578.49 4627.69c17.95,27.21 29.6,53.36 40.96,82.43 8.45,16.91 12.93,48.09 52.57,48.09 11.61,0 28.28,-3.42 43.06,-11.61 16.63,-8.73 29.32,-21.94 35.94,-42l15.85 -53.36 38.57 -19.02 2.64 2.64c-5.27,20.09 -6.59,39.36 -6.59,54.43 0,44.63 38.57,61.56 69.22,61.56 17.95,0 34.09,-8.73 34.09,-25.11 0,-21.13 -8.98,-57.06 -20.62,-89.29 17.95,-17.95 35.94,-35.94 56.53,-50.47l3.17 1.6c8.98,38.04 14,75.56 14,100.66 0,24.57 -10.83,51.79 -19.81,69.49 -18.49,34.87 -51.25,62.62 -90.87,62.62 -30.1,0 -63.65,-15.07 -86.66,-43.06l-1.32 0c-21.66,26.96 -55.22,51.25 -108.86,51.25l-16.63 0c-2.64,35.41 -10.29,60.49 -21.94,82.95 -31.95,62.34 -126.81,106.47 -216.1,106.47 -124.17,0 -186.51,-71.59 -186.51,-166.96 0,-58.91 19.27,-113.6 48.88,-152.42l24.29 10.04c-18.49,35.41 -30.91,68.68 -30.91,101.45 0,89.29 72.66,131.83 156.4,131.83 77.68,0 173.83,-49.41 191.28,-106.72 -6.59,-62.62 -30.1,-91.93 -66.04,-148.99 10.83,-19.02 24.83,-38.04 42.28,-58.38l3.17 0 0 0 0 0 -0.02 -0.09zm1432.13 -336.04c26.15,16.39 51.79,35.66 76.87,57.85 -14,19.81 -31.45,37.79 -53.11,53.64 -25.11,-20.34 -50.19,-37.79 -75.84,-56.27 17.42,-19.55 34.62,-38.29 52.04,-55.22l0 0 0 0 0 0 0 0 0 0 0.03 0zm13.47 244.11c-42.28,0 -76.87,27.75 -76.87,48.34 0,44.13 84.53,57.85 185.72,57.31 -12.68,-51.79 -57.06,-105.68 -108.86,-105.68l0.01 0.03zm-94.86 236.19c54.96,0 103.04,-1.6 139.74,-10.83 40.96,-10.29 75.56,-30.91 75.56,-45.17 0,-3.7 0,-8.19 -1.32,-11.89 -22.98,2.11 -49.41,2.11 -72.38,2.11 -74.49,0 -131.55,-16.91 -154.02,-58.66 -5.55,-11.61 -9.51,-24.57 -9.51,-39.36 0,-40.43 17.42,-79.79 48.09,-107 25.61,-22.45 53.89,-36.44 82.67,-36.44 52.04,0 93.51,41.75 122.57,107.54 15.85,35.94 26.68,77.4 26.68,129.72 0,34.87 -9.51,64.19 -31.17,85.85 -40.43,39.11 -114.92,53.89 -229.04,53.89l-51.79 0 0 0 -13.47 0c-28.28,0 -48.62,-5.02 -64.72,-17.42l-2.64 0c0.79,6.59 1.32,12.93 1.32,19.02 0,25.61 -8.45,58.38 -25.61,84.53 -50.72,75.3 -105.68,108.04 -153.24,108.04 -48.09,0 -107,-18.49 -160.11,-42.54l9.51 -18.49c17.17,7.13 40.96,11.89 73.7,11.89 85.85,0 198.66,-82.43 212.66,-163 -3.17,-6.59 -8.98,-15.32 -17.17,-24.57 -25.11,-29.85 -40.96,-54.68 -55.75,-80.83 12.68,-25.11 24.29,-45.17 35.13,-63.4l4.49 -0.53c36.72,74.77 69.99,117.55 144.23,117.55l11.61 0 0 0 53.89 0 0 0 0 0 0 0 0 0 0 0 0.09 0.01zm-371.98 79c6.34,-34.34 6.87,-72.91 6.87,-108.86l0 -53.36c0,-99.6 -12.68,-244.36 -22.98,-338.68 17.95,-19.27 43.06,-42 62.87,-57.31l5.81 1.6c13.47,118.62 16.63,256 16.63,383.06 0,33.3 -1.32,65.79 -4.49,89.55 -1.85,30.1 -19.27,52.83 -56.53,87.7l-8.19 -3.7zm-382.8 -157.19c1.85,46.77 24.83,83.49 105.15,83.49 49.93,0 92.19,-12.93 138.96,-35.13 8.45,-3.7 12.93,-8.73 12.93,-12.93 0,-29.32 -22.45,-68.15 -60.23,-103.55 -36.72,-33.3 -85.34,-62.62 -130.76,-82.18 -15.6,-6.59 -20.62,-13.47 -20.62,-20.09 0,-13.47 17.95,-41.75 32.77,-62.09l5.02 -0.53c52.04,27.21 110.17,67.64 153.24,112.53 39.11,41.47 63.4,83.49 63.4,129.19 0,33.81 -10.29,65.51 -26.96,95.11 -57.06,28.79 -117.83,50.72 -178.06,50.72 -73.17,0 -123.1,-34.34 -123.1,-114.92 0,-8.73 0,-22.19 3.17,-39.64l25.11 0 0 0 0 0 0 0 0 0 0 0 -0.02 0zm-132.37 -132.9l45.45 73.45c16.63,27.21 32.23,56.81 32.23,103.55l0 59.7c0,48.34 -30.91,100.13 -80.83,151.38 -39.11,34.62 -73.7,49.41 -105.68,49.41 -47.55,0 -101.98,-14.79 -164.85,-41.75l7.13 -18.49c19.81,5.27 42.79,9.77 71.06,9.77 90.36,-0.53 182.8,-66.57 225.08,-147.15 5.02,-9.26 6.87,-17.95 6.87,-24.04 0,-9.26 -5.02,-19.55 -8.98,-28.79 -22.98,-43.31 -48.62,-82.95 -76.87,-119.68 14.79,-23.25 29.6,-45.7 45.7,-67.9l3.7 0.53 0 0 0 0 0 0 0 0 0 0 -0.02 0.01z"/>
  <g id="_2638617478368">
   <path class="fil3" d="M5624.72 937.08l-2089.35 0 0 3169.85 2089.35 0c90,0 162.89,-72.94 162.89,-162.94l0 -2843.95c0,-90 -72.89,-162.95 -162.89,-162.95z"/>
   <path class="fil4" d="M5571.23 1025.11l-1973.31 0 0 2993.82 1973.31 0c85.01,0 153.86,-68.91 153.86,-153.91l0 -2686.02c0,-85 -68.85,-153.89 -153.86,-153.89z"/>
   <path class="fil3" d="M5365.33 1100.03l0 2843.95c0,90 -72.9,162.94 -162.9,162.94l-2089.35 0 0 -3169.85 2089.35 0c90,0 162.9,72.95 162.9,162.95z"/>
   <path class="fil5" d="M5365.33 1100.03l0 2843.95c0,90 -72.9,162.94 -162.9,162.94l-2089.35 0 0 -42.88c90.6,-122.77 258.77,-280.57 461.43,-384.66 289.35,-148.56 125.12,-711.62 484.82,-868.05 359.75,-156.41 500.54,-445.77 547.46,-1087.05 30.93,-422.64 204.55,-668.63 319.31,-787.22l276.33 0c90,0 162.9,72.95 162.9,162.95z"/>
   <polygon class="fil6" points="5443.55,2983.4 5474.83,2983.4 5474.83,1325.49 5443.55,1325.49 "/>
   <polygon class="fil6" points="5550.43,3960.94 5581.71,3960.94 5581.71,2303.03 5550.43,2303.03 "/>
   <polygon class="fil6" points="5633.85,2897.37 5665.12,2897.37 5665.12,1239.46 5633.85,1239.46 "/>
   <polygon class="fil4" points="4646.71,4744.79 5850.02,4744.79 5850.02,4118.6 4646.71,4118.6 "/>
   <path class="fil7" d="M4855.97 4269.56c-27.56,49.05 -43.29,105.63 -43.29,165.92 0,96.17 40.04,182.98 104.31,244.66 16.4,15.81 34.39,29.95 53.7,42.18l898.28 0 0 52.82 -1086.47 0 0 -0.18 -1591.85 0c-93.75,0 -178.62,-38.01 -240.05,-99.43 -12.89,-12.9 -24.74,-26.82 -35.42,-41.67 -40.3,-55.82 -64.01,-124.33 -64.01,-198.38 0,-187.49 151.99,-339.48 339.48,-339.48l1938.89 0 0 0.07 739.42 0 0 52.79 -898.65 0c-47.39,30.13 -86.76,71.65 -114.35,120.7z"/>
   <polygon class="fil6" points="5048.45,4486.4 5840.6,4486.4 5840.6,4473.19 5048.45,4473.19 "/>
   <polygon class="fil6" points="4931.5,4592.02 5723.66,4592.02 5723.66,4578.82 4931.5,4578.82 "/>
   <path class="fil8" d="M5868.96 4775.13l-1086.47 0 0 -0.18 -1591.85 0c-93.75,0 -178.62,-38.01 -240.05,-99.43 -12.89,-12.9 -24.74,-26.82 -35.42,-41.67 50.82,17.8 128.46,35.24 245.29,43.03 37.62,2.51 74.6,3.61 110.78,3.61 235.9,0 438.9,-47.1 579.54,-60.2 17.88,-1.67 37.91,-2.42 59.84,-2.42 176.96,0 477.21,48.52 762.5,55.23 60.28,1.41 145.38,3.92 243.85,7.02 16.4,15.81 34.39,29.95 53.7,42.18l898.28 0 0 52.82z"/>
   <polygon class="fil9" points="5031.47,4348.71 5056,4588.24 5140.87,4523.18 5228.56,4593.91 5197.45,4348.71 "/>
   <polygon class="fil6" points="4944.71,4344.94 5736.86,4344.94 5736.86,4331.74 4944.71,4331.74 "/>
   <polygon class="fil4" points="5039.01,4214.81 5831.16,4214.81 5831.16,4201.6 5039.01,4201.6 "/>
   <path class="fil4" d="M3703.67 4578.97c-198.67,0 -397.33,0 -596,0 -32.66,-100.51 -32.66,-208.79 0,-309.31 198.67,0 397.33,0 596,0 -32.66,100.52 -32.66,208.8 0,309.31z"/>
   <path class="fil10" d="M4664.15 4522.54c-284.79,0 -569.59,0 -854.38,0 -21.82,-67.11 -21.82,-139.41 0,-206.53 284.79,0 569.59,0 854.38,0 -21.8,67.12 -21.8,139.42 0,206.53z"/>
   <g>
    <path class="fil11" d="M4692.71 1805.63l1802.78 0c1.93,-3.84 0,0 3.84,-7.73 13.52,-32.8 32.81,-111.96 38.61,-144.76 28.96,-146.7 19.29,-368.66 -38.61,-505.72l-5.78 -9.63 -1802.78 0 -7.73 15.44c-1.93,7.73 -3.84,11.59 -5.81,19.29 -27.03,81.05 -42.47,175.64 -46.32,268.28l0 69.49c1.93,48.24 7.74,94.56 15.45,138.96 7.73,34.73 25.09,110 38.61,144.76l5.8 9.64 1.93 1.93 0.01 0.05z"/>
    <path class="fil12" d="M4692.71 1135.85l1802.78 0c-7.73,-28.96 -40.52,-102.3 -57.91,-129.33 -75.28,-127.37 -140.92,-212.3 -268.28,-306.9 -162.13,-121.6 -351.3,-183.37 -542.39,-191.08l-65.64 0c-281.8,9.66 -555.88,140.92 -733.45,378.31 -13.52,19.29 -25.1,34.73 -38.61,54.05 -28.96,44.4 -84.93,142.84 -96.52,193.02l0 1.93 0.03 0.01z"/>
    <path class="fil13" d="M6495.48 1805.63l-1802.78 0c5.81,21.23 17.36,48.25 27.03,67.57 152.5,341.63 494.13,548.16 851.2,559.75l59.84 0c185.28,-5.79 374.46,-65.61 536.6,-189.16 73.35,-55.98 137.05,-117.74 193.01,-191.09 13.52,-19.29 25.1,-34.73 38.61,-54.05 13.52,-21.25 23.17,-38.61 36.68,-61.77 17.37,-28.96 52.13,-100.37 59.84,-131.25l0 0 -0.03 0z"/>
   </g>
  </g>
 </g>
</svg>
