<svg width="104" height="94" viewBox="0 0 104 94" fill="none" xmlns="http://www.w3.org/2000/svg">
<path opacity="0.2" d="M20.3137 73.6784C20.3171 76.6317 19.8073 79.5627 18.8077 82.3374H14.6967C12.4254 82.3374 10.2472 81.4247 8.64111 79.8C7.03507 78.1753 6.13281 75.9716 6.13281 73.674V50.8965C10.3797 52.9546 13.9646 56.1857 16.4738 60.2168C18.983 64.2479 20.3143 68.9147 20.3137 73.6784Z" fill="url(#paint0_linear_447_46097)"/>
<path opacity="0.2" d="M73.8961 72.0879V73.298C73.8958 75.6846 72.9584 77.9733 71.2901 79.6607C69.6219 81.3482 67.3593 82.2962 65.0002 82.2962C64.8701 79.7561 65.7283 77.2654 67.3909 75.3574C69.0536 73.4495 71.3887 72.2758 73.8961 72.0879Z" fill="url(#paint1_linear_447_46097)"/>
<path d="M73.1542 45.0022V71.0586C73.2326 72.4357 73.1736 73.8174 72.9782 75.1827C72.2933 78.5332 69.5733 81.6755 66.0322 81.7438C63.4328 81.793 60.8312 81.7438 58.2263 81.7438H16.0387C14.8208 81.7778 13.6087 81.5614 12.4758 81.1077C11.343 80.654 10.3129 79.9725 9.44806 79.1044C8.58317 78.2362 7.90145 77.1995 7.44416 76.0571C6.98686 74.9146 6.76351 73.6902 6.78763 72.4579C6.74005 63.5157 6.78763 54.5735 6.78763 45.6325V44.7974C6.78763 44.4425 4.38301 44.7738 4.38301 45.45V72.1042C4.25041 74.1528 4.67769 76.1988 5.61799 78.0182C6.47513 79.4558 7.68644 80.6437 9.13346 81.4656C10.5805 82.2876 12.2136 82.7156 13.8731 82.7076C16.5201 82.7501 19.1715 82.7076 21.8184 82.7076H55.0537C58.1378 82.7076 61.2241 82.7277 64.3092 82.7076C70.131 82.6684 75.4858 78.8365 75.5588 72.5967C75.6695 63.4754 75.5588 54.344 75.5588 45.2216V44.3552C75.5588 44.0003 73.1542 44.3316 73.1542 45.0067V45.0022Z" fill="#080F21"/>
<path d="M38.0728 18.1181V45.9387L39.2015 45.3197H7.26204L7.73121 45.6018L10.8297 26.8364C10.9441 26.3709 11.0222 25.8971 11.0632 25.4192C11.0632 25.2938 11.134 25.1628 11.1251 25.0385C11.113 24.8426 10.605 25.2625 10.9746 25.1673C11.7334 24.8143 12.4408 24.3578 13.0771 23.8105L14.6596 22.7907C17.0078 21.275 19.357 19.7603 21.7074 18.2468L29.8519 12.9944L28.7232 13.1713L38.231 18.2591C38.6294 18.4718 40.1122 17.855 39.5257 17.5427C36.3535 15.8456 33.1842 14.1493 30.0179 12.4537C29.8277 12.4033 29.6293 12.3929 29.435 12.4232C29.2407 12.4534 29.0546 12.5236 28.8881 12.6294L13.9824 22.241L10.5918 24.4285C9.7563 24.9669 9.56705 25.0722 9.41102 26.017L7.68697 36.4793L6.14326 45.8413C6.10121 46.0988 6.43653 46.1234 6.61358 46.1234H38.5508C38.8828 46.1234 39.6795 45.9522 39.6795 45.5044V17.6838C39.6751 17.2864 38.0728 17.5573 38.0728 18.1181Z" fill="#080F21"/>
<path opacity="0.2" d="M35.7773 16.3151V45.722H29.7354V13.0811L35.7773 16.3151Z" fill="url(#paint2_linear_447_46097)"/>
<path opacity="0.3" d="M24.6367 16.7627L23.2048 45.7218H21.0381V18.1766L24.6367 16.7627Z" fill="url(#paint3_linear_447_46097)"/>
<path opacity="0.2" d="M19.5692 19.123V45.7223H15.041L14.1602 22.6113L19.5692 19.123Z" fill="url(#paint4_linear_447_46097)"/>
<path d="M12.2424 45.7222H1.67557C1.46149 45.7215 1.24979 45.677 1.05318 45.5914C0.856566 45.5057 0.67911 45.3806 0.531559 45.2237C0.384008 45.0668 0.269411 44.8814 0.194631 44.6784C0.119852 44.4755 0.0864508 44.2594 0.0964608 44.043C0.947428 23.322 17.4566 5.82048 37.9418 4.96074C38.1556 4.95061 38.3693 4.98437 38.5699 5.06002C38.7705 5.13567 38.9538 5.25163 39.1089 5.4009C39.264 5.55016 39.3876 5.72965 39.4723 5.92854C39.557 6.12744 39.601 6.34164 39.6017 6.5582V18.0471C36.009 18.047 32.4514 18.7627 29.1321 20.1534C25.8128 21.5441 22.7967 23.5826 20.2562 26.1525C17.7156 28.7224 15.7003 31.7733 14.3253 35.1311C12.9503 38.4889 12.2425 42.0877 12.2424 45.7222Z" fill="#080F21"/>
<path d="M26.5561 45.947C26.5213 45.9467 26.4869 45.9393 26.4549 45.9253C26.423 45.9113 26.3942 45.8908 26.3702 45.8653C26.2706 45.7656 26.1743 45.5619 26.1843 44.3137V21.6056C26.1743 20.2097 26.3038 20.0787 26.3724 20.0093L26.4377 19.9421L26.5561 19.9287C26.5911 19.9288 26.6258 19.9361 26.6579 19.9502C26.69 19.9642 26.719 19.9847 26.7431 20.0104C26.8427 20.1112 26.9379 20.3138 26.929 21.562V44.2701C26.9379 45.666 26.8095 45.797 26.7409 45.8664L26.6756 45.9336L26.5561 45.947Z" fill="#080F21"/>
<path d="M38.8074 33.4699C38.7534 33.469 38.6994 33.4653 38.6458 33.4587H38.5739H14.1603C13.918 33.4587 13.918 33.18 13.918 33.0624C13.918 32.9449 13.918 32.6628 14.1603 32.6628C14.2608 32.641 14.3644 32.6387 14.4657 32.6561C14.4934 32.6561 14.5188 32.6561 14.5377 32.6561H38.9512C39.1936 32.6561 39.1936 32.9337 39.1936 33.0523C39.1936 33.171 39.1936 33.452 38.9512 33.452C38.9043 33.4643 38.8559 33.4703 38.8074 33.4699Z" fill="#080F21"/>
<path d="M66.7127 46.6095L44.8597 38.1229L41.6916 36.8915L41.9826 37.4848L51.8125 11.8975L53.2067 8.2705L51.8224 8.64551L60.6474 14.0547L66.3453 17.5474C66.9307 17.9056 67.505 18.3041 68.1092 18.6277C68.2386 18.6873 68.3605 18.7625 68.4721 18.8516C68.3405 18.7273 68.4046 18.6366 68.4234 19.0385C68.6185 20.6352 68.9262 22.2158 69.3441 23.7682C69.713 25.6504 70.0789 27.5322 70.4419 29.4136C71.1161 32.8884 71.7912 36.3631 72.4669 39.8379C72.5491 40.1553 72.6116 40.4776 72.6539 40.8029C72.6296 40.4211 72.6915 40.579 72.3662 40.8197C71.5013 41.5393 70.6729 42.3026 69.8841 43.1067C69.1095 43.8176 68.3526 44.5419 67.5703 45.2337C67.3766 45.4061 67.6964 45.1217 67.5116 45.2829C67.3003 45.4654 67.0845 45.6423 66.8698 45.8214L65.7189 46.7875C64.8835 47.4883 66.1804 47.9528 66.7658 47.4592C67.983 46.4427 69.1582 45.4162 70.3212 44.3437L72.9981 41.8809C73.3024 41.6011 74.1235 41.0503 74.2507 40.6283C74.2717 40.0009 74.1702 39.3755 73.952 38.7879L73.2471 35.162C72.952 33.6567 72.6591 32.1514 72.3684 30.6461C71.7045 27.2452 71.0435 23.8443 70.3854 20.4434C70.2493 19.7449 70.2604 18.5303 69.7735 17.9806C69.5288 17.7848 69.2607 17.6208 68.9756 17.4925L63.9838 14.432L53.0684 7.74211C52.8323 7.62196 52.5607 7.59389 52.3054 7.66326C52.0501 7.73262 51.8289 7.89457 51.6841 8.11824L41.8532 33.7056L40.46 37.3326C40.433 37.3902 40.4193 37.4532 40.4199 37.517C40.4205 37.5807 40.4354 37.6435 40.4634 37.7006C40.4914 37.7577 40.5318 37.8076 40.5816 37.8466C40.6314 37.8856 40.6894 37.9127 40.751 37.9259L62.605 46.4125L65.7721 47.6439C66.4072 47.8946 67.6466 46.9722 66.7127 46.6095Z" fill="#080F21"/>
<path opacity="0.2" d="M74.0879 16.0372L63.9372 45.5348L58.2803 43.3888L69.7191 10.4131C71.3391 12.1515 72.8013 14.0338 74.0879 16.0372Z" fill="url(#paint5_linear_447_46097)"/>
<path opacity="0.2" d="M62.2328 6.94922L48.8586 39.6473L46.8291 38.8782L58.2303 7.37796L62.2328 6.94922Z" fill="url(#paint6_linear_447_46097)"/>
<path d="M50.2412 11.919L54.2249 1.16103C54.3008 0.958476 54.4163 0.773569 54.5647 0.617429C54.7131 0.461289 54.8912 0.33716 55.0883 0.252535C55.2854 0.167909 55.4974 0.124511 55.7115 0.125004C55.9256 0.125497 56.1374 0.169872 56.3341 0.255404C75.2191 8.33673 85.3433 30.8702 78.9483 50.5725C78.8822 50.7783 78.7757 50.9684 78.635 51.1315C78.4944 51.2945 78.3226 51.4271 78.13 51.5212C77.9374 51.6153 77.728 51.6691 77.5143 51.6792C77.3007 51.6893 77.0872 51.6556 76.8868 51.58L66.2524 47.55C68.7995 40.6771 68.5436 33.0622 65.541 26.3801C62.5383 19.6981 57.0349 14.4963 50.2412 11.919Z" fill="#3063BA"/>
<path d="M53.2482 42.5125L53.1221 42.2786L53.2073 42.1397C53.2526 42.0707 53.2929 41.9985 53.3279 41.9237L53.2383 41.8789L53.2471 41.6136L60.7852 21.2765C61.3385 19.7451 61.5222 19.7451 61.6705 19.7451L61.7568 19.7787L61.9117 19.9086C61.9692 20.0406 61.9936 20.2836 61.5288 21.5094L53.9741 41.8901C53.9741 41.8901 53.5946 42.5125 53.3788 42.5125H53.2482Z" fill="#080F21"/>
<path d="M68.6535 37.0033L44.3838 27.7981L44.4181 27.5742C44.4402 27.4555 44.5287 27.0693 44.7689 27.0693L46.1554 27.5798L69.0795 36.2757L69.0452 36.4996C69.0231 36.6182 68.9346 37.0033 68.6944 37.0033H68.6535Z" fill="#080F21"/>
<path opacity="0.3" d="M42.7263 56.9902L41.7935 81.2823L41.7713 81.8835H39.6035V58.8564C40.5086 58.0265 41.571 57.3916 42.7263 56.9902Z" fill="url(#paint7_linear_447_46097)"/>
<path opacity="0.3" d="M53.4345 60.871L53.1744 81.2865L53.1667 81.8876H52.4463V58.5762C52.5569 58.7654 52.6676 58.9691 52.7783 59.1829L52.8093 59.2445C53.06 59.769 53.2691 60.3129 53.4345 60.871Z" fill="url(#paint8_linear_447_46097)"/>
<path opacity="0.3" d="M51.7365 59.4284L50.8357 81.4726L50.8103 82.0738H48.502V56.8066C49.8449 57.2277 50.9842 58.1406 51.6967 59.3668L51.7365 59.4284Z" fill="url(#paint9_linear_447_46097)"/>
<path d="M55.5455 81.4067H35.9811L36.7169 81.9183V73.2515C36.5605 70.2937 36.5867 67.3288 36.7955 64.3742C37.0296 62.4249 37.878 60.6037 39.2152 59.1802C40.5523 57.7567 42.3071 56.8067 44.2196 56.4709C46.0658 56.222 47.9432 56.5464 49.6032 57.401C51.2631 58.2556 52.6273 59.6002 53.515 61.2566C55.1903 64.3463 54.6603 68.4378 54.6603 71.8443V82.0504C54.6603 82.881 56.2814 82.6258 56.2814 81.9183V72.2194C56.2814 68.6215 56.8513 64.2567 55.1937 60.9521C51.8197 54.2354 42.4092 53.3622 37.61 59.0031C34.7328 62.3828 35.0947 66.49 35.0947 70.6096V82.0504C35.0947 82.4679 35.4853 82.562 35.8306 82.562H55.3995C56.2991 82.562 56.6366 81.4067 55.5455 81.4067Z" fill="#080F21"/>
<path d="M81.2057 59.7865C80.9722 59.294 80.7354 58.8014 80.502 58.3066L83.1213 55.2841C83.3939 54.9693 83.7329 54.7205 84.1132 54.5558C84.4936 54.3911 84.9056 54.3149 85.3189 54.3326C85.4296 55.452 85.5403 56.5804 85.6443 57.7055C85.6834 58.1152 85.7228 58.5257 85.7627 58.9369C85.8044 59.3014 85.7575 59.6708 85.626 60.0128C85.4944 60.3548 85.2823 60.6591 85.008 60.8993C84.9571 60.9418 84.9039 60.9821 84.8486 61.0213C84.4355 61.3012 83.9475 61.4464 83.4504 61.4374C82.9532 61.4284 82.4707 61.2656 82.0678 60.9709C81.6842 60.658 81.3873 60.2499 81.2057 59.7865Z" fill="#080F21"/>
<path d="M96.4067 71.7449C95.7766 74.2929 95.741 76.9542 96.3027 79.5184C94.1862 80.7338 91.8477 81.5016 89.4291 81.7752C87.0105 82.0489 84.5621 81.8226 82.2325 81.1103L81.9326 79.5016C81.6133 77.7817 80.8648 76.1729 79.7581 74.8279L78.6516 73.4846C77.4113 71.9762 76.511 70.2124 76.0134 68.3161L71.9611 52.8676C71.8973 52.6271 71.889 52.3749 71.9369 52.1306C71.9849 51.8863 72.0877 51.6564 72.2374 51.4587C72.3872 51.261 72.5798 51.1008 72.8006 50.9905C73.0213 50.8802 73.2641 50.8226 73.5103 50.8224H73.5325C74.3869 50.8221 75.2254 51.0565 75.9586 51.5004C76.6918 51.9444 77.292 52.5814 77.6954 53.3434L78.1602 54.2233C78.8293 55.6263 79.497 57.0309 80.1632 58.4369C80.5217 59.1892 80.8791 59.9437 81.2365 60.6948C81.4156 61.1456 81.6889 61.5519 82.0377 61.8859C82.4308 62.2169 82.9171 62.4139 83.4274 62.4489C83.9376 62.4839 84.4458 62.355 84.8794 62.0807C86.5105 61.0284 86.09 58.8466 85.9307 57.182C85.8289 56.1129 85.7237 55.045 85.6219 53.9725H85.6087L85.5722 53.5169L85.5589 53.3434C85.3714 50.9443 84.7329 48.6034 83.6777 46.4464L81.0893 41.1391C80.8688 40.6862 80.8147 40.1686 80.9368 39.679C81.0589 39.1894 81.3491 38.7597 81.7557 38.4668C82.1622 38.1739 82.6585 38.0368 83.1558 38.0801C83.6531 38.1234 84.1189 38.3443 84.47 38.7032L88.3751 42.6918C89.8713 44.2199 91.0474 46.0376 91.8332 48.0361L94.5742 55.0136C94.582 55.0673 94.5909 55.12 94.6019 55.1692C94.9339 56.7902 95.2758 58.41 95.5978 60.0355C95.6388 60.2381 95.6742 60.4418 95.6963 60.6478C95.6963 60.6557 95.6963 60.7139 95.7052 60.7598C95.7035 60.7307 95.7035 60.7015 95.7052 60.6725C95.7052 60.5695 95.7052 60.7116 95.7052 60.743C95.7052 60.8124 95.7052 60.8068 95.7052 60.7754C95.7052 60.9993 95.7052 61.2232 95.7052 61.4415C95.7052 61.5725 95.6831 62.833 95.8557 62.833C96.0283 62.833 96.0073 61.4896 96.0073 61.4415C96.0339 60.078 95.929 58.7152 95.6941 57.3723L95.8048 57.4473C96.8412 58.1508 97.6378 59.1607 98.0858 60.3391C98.5338 61.5176 98.6113 62.8072 98.3079 64.0319L96.4067 71.7449Z" fill="#080F21"/>
<path d="M85.6187 53.9663H85.6088L85.5723 53.5107C85.5889 53.663 85.6088 53.8186 85.6187 53.9663Z" fill="white"/>
<path d="M74.0643 51.7891L74.507 52.9846C74.6644 53.4116 74.6717 53.8805 74.5276 54.3123C74.3835 54.7441 74.0968 55.1125 73.7158 55.3556L73.4668 55.5146" fill="#3A1E44"/>
<path d="M74.0547 52.1251C74.2052 52.5314 74.3624 52.9356 74.5051 53.3453C74.5449 53.4572 74.5571 53.5781 74.5903 53.6946C74.6147 53.783 74.6147 53.5826 74.5903 53.6666C74.5726 53.7237 74.5704 53.7886 74.556 53.8468C74.4999 54.065 74.4071 54.2718 74.2816 54.458C74.0625 54.7496 73.7849 54.9911 73.4671 55.1666C73.4052 55.2058 73.4295 55.4521 73.4295 55.5148C73.4295 55.5428 73.4605 55.8663 73.4671 55.8629C73.8477 55.6538 74.1677 55.3478 74.3956 54.9752C74.6517 54.4317 74.7392 53.8225 74.6467 53.2277C74.5289 52.6149 74.3371 52.019 74.0757 51.4534C74.0614 51.4131 74.0304 51.6773 74.0293 51.6963C74.0132 51.8397 74.0211 51.9848 74.0547 52.1251Z" fill="white"/>
<path d="M81.957 39.2656L82.86 40.216C83.1587 40.5298 83.5568 40.7276 83.9848 40.775C84.4129 40.8225 84.8438 40.7166 85.2026 40.4757" fill="#3A1E44"/>
<path d="M81.9571 39.436C82.257 39.7506 82.5535 40.0685 82.8556 40.3809C83.1561 40.6929 83.5544 40.8899 83.9824 40.9381C84.4104 40.9862 84.8417 40.8827 85.2027 40.645C85.2337 40.6249 85.2215 40.504 85.2215 40.4715C85.2215 40.457 85.2049 40.2958 85.2027 40.298C84.8416 40.5355 84.4102 40.6389 83.9822 40.5905C83.5542 40.5421 83.156 40.345 82.8556 40.0327C82.5535 39.7204 82.257 39.4025 81.9571 39.0879C81.9571 39.0879 81.9383 39.2446 81.9383 39.2614C81.9383 39.3039 81.925 39.4013 81.9571 39.436Z" fill="white"/>
<path d="M95.7112 60.7393C95.7112 60.8087 95.7112 60.803 95.7112 60.7717C95.7098 60.7694 95.709 60.7667 95.709 60.7639C95.709 60.7611 95.7098 60.7583 95.7112 60.756C95.7097 60.7269 95.7097 60.6978 95.7112 60.6687C95.7112 60.5657 95.7112 60.7079 95.7112 60.7393Z" fill="white"/>
<path d="M102.078 88.336C97.2862 90.4395 92.1538 92.5395 86.923 93.106C84.7568 93.4738 82.5314 93.1811 80.5302 92.2653C79.7423 91.8287 78.8095 91.2578 78.8061 90.266C78.8328 89.7384 78.8871 89.2126 78.9688 88.6909C79.1038 87.3744 79.199 86.0478 79.3761 84.737C79.4598 83.866 79.8076 83.0426 80.372 82.3794C81.5029 81.1223 82.7379 81.7536 84.1897 81.9316C86.7098 82.2276 89.2619 82.0631 91.7245 81.4458C92.9586 81.1419 94.1682 80.7441 95.343 80.2558C95.6295 80.1811 95.9033 80.0634 96.1553 79.9065C96.5835 79.5225 95.7281 79.8908 96.2172 79.8147C96.7396 79.7156 97.2759 79.7179 97.7974 79.8214C99.838 80.3051 100.499 82.0525 101.108 83.819C101.396 84.6519 103.026 87.727 101.922 88.4177C101.258 88.8353 102.85 88.6595 103.151 88.4714C104.633 87.5445 103.549 85.8083 103.107 84.5288C102.595 83.0444 102.227 81.2622 101.025 80.1741C100.24 79.5576 99.2994 79.1764 98.3105 79.0739C97.3216 78.9714 96.3242 79.1516 95.4316 79.5942C91.8875 81.2626 87.9193 81.7781 84.0735 81.0696C83.0457 80.7687 81.9504 80.8023 80.9424 81.1655C79.9345 81.5287 79.0649 82.2032 78.4565 83.0936C77.6188 84.3855 77.6664 86.1587 77.5126 87.6475C77.3765 88.9741 76.7379 90.9152 77.7903 91.9507C79.4657 93.5907 82.106 93.9042 84.3258 93.8728C90.7573 93.781 97.1833 91.1089 103 88.5554C103.969 88.1345 102.466 88.1659 102.078 88.336Z" fill="#080F21"/>
<path d="M69.4403 90.6984C70.2843 90.6984 70.9685 90.0062 70.9685 89.1524C70.9685 88.2986 70.2843 87.6064 69.4403 87.6064C68.5963 87.6064 67.9121 88.2986 67.9121 89.1524C67.9121 90.0062 68.5963 90.6984 69.4403 90.6984Z" fill="#3A1E44"/>
<path d="M96.2384 15.5342C96.4788 16.1882 96.8557 16.7821 97.3434 17.2755C97.8311 17.7689 98.4182 18.1502 99.0646 18.3933C99.1726 18.4331 99.2659 18.5055 99.3318 18.6007C99.3977 18.6959 99.4331 18.8094 99.4331 18.9256C99.4331 19.0419 99.3977 19.1553 99.3318 19.2506C99.2659 19.3458 99.1726 19.4182 99.0646 19.4579C98.4181 19.701 97.8309 20.0822 97.3432 20.5756C96.8555 21.069 96.4787 21.663 96.2384 22.317C96.1989 22.4262 96.1271 22.5204 96.0329 22.5869C95.9387 22.6535 95.8266 22.6892 95.7117 22.6892C95.5968 22.6892 95.4846 22.6535 95.3904 22.5869C95.2962 22.5204 95.2245 22.4262 95.1849 22.317C94.9447 21.663 94.5678 21.069 94.0801 20.5756C93.5924 20.0822 93.0052 19.701 92.3587 19.4579C92.2507 19.4182 92.1574 19.3458 92.0915 19.2506C92.0256 19.1553 91.9902 19.0419 91.9902 18.9256C91.9902 18.8094 92.0256 18.6959 92.0915 18.6007C92.1574 18.5055 92.2507 18.4331 92.3587 18.3933C93.0052 18.1502 93.5922 17.7689 94.0799 17.2755C94.5677 16.7821 94.9446 16.1882 95.1849 15.5342C95.2245 15.4251 95.2962 15.3309 95.3904 15.2644C95.4846 15.1978 95.5968 15.1621 95.7117 15.1621C95.8266 15.1621 95.9387 15.1978 96.0329 15.2644C96.1271 15.3309 96.1989 15.4251 96.2384 15.5342Z" fill="#080F21"/>
<path d="M87.8641 32.2062C88.7081 32.2062 89.3923 31.514 89.3923 30.6602C89.3923 29.8064 88.7081 29.1143 87.8641 29.1143C87.0201 29.1143 86.3359 29.8064 86.3359 30.6602C86.3359 31.514 87.0201 32.2062 87.8641 32.2062Z" fill="#080F21"/>
<path d="M44.8867 55.8844V82.1646C44.8867 82.8878 46.4957 82.5676 46.4957 81.9833V55.703C46.4957 54.9787 44.8867 55.2989 44.8867 55.8844Z" fill="#080F21"/>
<defs>
<linearGradient id="paint0_linear_447_46097" x1="6.13281" y1="66.617" x2="20.3137" y2="66.617" gradientUnits="userSpaceOnUse">
<stop offset="0.005" stop-color="#3063BA"/>
<stop offset="1" stop-color="#A3BFF6"/>
</linearGradient>
<linearGradient id="paint1_linear_447_46097" x1="64.9869" y1="77.1926" x2="73.8961" y2="77.1926" gradientUnits="userSpaceOnUse">
<stop offset="0.005" stop-color="#3063BA"/>
<stop offset="1" stop-color="#A3BFF6"/>
</linearGradient>
<linearGradient id="paint2_linear_447_46097" x1="29.7354" y1="29.4015" x2="35.7773" y2="29.4015" gradientUnits="userSpaceOnUse">
<stop offset="0.005" stop-color="#3063BA"/>
<stop offset="1" stop-color="#A3BFF6"/>
</linearGradient>
<linearGradient id="paint3_linear_447_46097" x1="21.0381" y1="31.2428" x2="24.6367" y2="31.2428" gradientUnits="userSpaceOnUse">
<stop offset="0.005" stop-color="#3063BA"/>
<stop offset="1" stop-color="#A3BFF6"/>
</linearGradient>
<linearGradient id="paint4_linear_447_46097" x1="14.1602" y1="32.4221" x2="19.5692" y2="32.4221" gradientUnits="userSpaceOnUse">
<stop offset="0.005" stop-color="#3063BA"/>
<stop offset="1" stop-color="#A3BFF6"/>
</linearGradient>
<linearGradient id="paint5_linear_447_46097" x1="58.2803" y1="27.975" x2="74.0879" y2="27.975" gradientUnits="userSpaceOnUse">
<stop offset="0.005" stop-color="#3063BA"/>
<stop offset="1" stop-color="#A3BFF6"/>
</linearGradient>
<linearGradient id="paint6_linear_447_46097" x1="46.8291" y1="23.2988" x2="62.2328" y2="23.2988" gradientUnits="userSpaceOnUse">
<stop offset="0.005" stop-color="#3063BA"/>
<stop offset="1" stop-color="#A3BFF6"/>
</linearGradient>
<linearGradient id="paint7_linear_447_46097" x1="27.7675" y1="80.6745" x2="51.0775" y2="62.4869" gradientUnits="userSpaceOnUse">
<stop offset="0.005" stop-color="#3063BA"/>
<stop offset="1" stop-color="#A3BFF6"/>
</linearGradient>
<linearGradient id="paint8_linear_447_46097" x1="32.3594" y1="86.5591" x2="55.6694" y2="68.3713" gradientUnits="userSpaceOnUse">
<stop offset="0.005" stop-color="#3063BA"/>
<stop offset="1" stop-color="#A3BFF6"/>
</linearGradient>
<linearGradient id="paint9_linear_447_46097" x1="30.7688" y1="84.5209" x2="54.0789" y2="66.3332" gradientUnits="userSpaceOnUse">
<stop offset="0.005" stop-color="#3063BA"/>
<stop offset="1" stop-color="#A3BFF6"/>
</linearGradient>
</defs>
</svg>
