<?xml version="1.0" encoding="UTF-8"?>
<!DOCTYPE svg PUBLIC "-//W3C//DTD SVG 1.1//EN" "http://www.w3.org/Graphics/SVG/1.1/DTD/svg11.dtd">
<!-- Creator: CorelDRAW 2020 (64-Bit) -->
<svg xmlns="http://www.w3.org/2000/svg" xml:space="preserve" width="94.1916mm" height="52.9166mm" version="1.1" style="shape-rendering:geometricPrecision; text-rendering:geometricPrecision; image-rendering:optimizeQuality; fill-rule:evenodd; clip-rule:evenodd" viewBox="0 0 9404.92 5283.66" xmlns:xlink="http://www.w3.org/1999/xlink" xmlns:xodm="http://www.corel.com/coreldraw/odm/2003">
 <defs>
  <style type="text/css">
   <![CDATA[
    .fil6 {fill:#0A87B9}
    .fil3 {fill:#254E68}
    .fil0 {fill:#E6E7E8}
    .fil4 {fill:#0A87B9;fill-rule:nonzero}
    .fil5 {fill:#ED3237;fill-rule:nonzero}
    .fil2 {fill:#373435;fill-opacity:0.031373}
    .fil1 {fill:#2B2A29;fill-opacity:0.101961}
   ]]>
  </style>
 </defs>
 <g id="Layer_x0020_1">
  <metadata id="CorelCorpID_0Corel-Layer"/>
  <polygon class="fil0" points="-0,0 9404.92,0 9404.92,5283.66 -0,5283.66 "/>
  <polygon class="fil1" points="6238.97,2091.34 6216.17,2100.4 6281.02,2205.21 6298.62,2215.17 6289.43,2218.78 6469.44,2509.66 6482.42,2504.72 6479.65,2505.84 6477.41,2507.79 6476.01,2510.42 6475.75,2513.52 6476.95,2516.91 6544.73,2626.42 6875.06,2502.15 6799.88,2638.84 6866.97,2638.84 6866.97,2644.86 6883.15,2638.84 6950.26,2638.84 6866.97,2669.74 6866.97,3110.03 6821.64,3126.22 6875.06,3126.22 6763.22,3166.08 6766.89,3172.83 6779.52,3188.13 6794.81,3200.75 6812.38,3210.29 6831.79,3216.32 6852.63,3218.42 6873.46,3216.32 6892.87,3210.29 6562.22,3327.19 6562.22,3871.47 7191.72,3871.47 2905.56,5283.66 2360.74,5283.66 1028.35,5283.66 1014.28,5283.66 953.34,5283.66 821.79,5283.66 815.73,5283.66 814.23,5283.66 778.61,5283.66 750.41,5283.66 694.82,5283.66 609.58,5283.66 598.59,5283.66 594.16,5283.66 561.86,5283.66 559.42,5283.66 557.18,5283.66 532.45,5283.66 490.21,5283.66 468.38,5283.66 447.79,5283.66 319.32,5283.66 263.09,5283.66 -0,5283.66 -0,5122.19 -0,5071.78 -0,5048.16 -0,5025.01 -0,5019.04 -0,4997.75 -0,4956.12 -0,4947.78 -0,4947.57 -0,4946.92 -0,4946.91 -0,4946.85 -0,4946.13 -0,4937.75 -0,4936.91 -0,4927.93 -0,4923.93 -0,4921.32 -0,4912.06 -0,4899.05 -0,4845.98 -0,4839.41 -0,4794.07 -0,4736.43 -0,4735.7 -0,4717.84 -0,4711.04 -0,4667.38 -0,4646.87 -0,4602.98 -0,4586.75 -0,4584.84 -0,4583.01 -0,4582.15 -0,4498.04 -0,4491.54 -0,4490.88 -0,4479.53 -0,4396.46 -0,4363.17 -0,4354.47 -0,4336.58 -0,4322.15 -0,4282.03 -0,4262.27 -0,4257.73 -0,4250.15 -0,4238.05 -0,4168.14 -0,4165.77 -0,4154.4 -0,4149.25 -0,4117.32 -0,4099.63 -0,4054.58 -0,4048.9 -0,4018.31 -0,4001.32 -0,3994.2 -0,3963.59 -0,3949.02 -0,3905.79 -0,3898.78 -0,3896.77 -0,3891.59 -0,3884.93 -0,3882.75 -0,3881.91 -0,3879.66 -0,3874.91 -0,3847.19 -0,3836.32 -0,3826.14 -0,3823.94 -0,3821.39 -0,3819.48 -0,3811.27 -0,3774.36 -0,3761.15 -0,3759.86 -0,3752.84 -0,3726.64 -0,3720.3 -0,3693.94 -0,3599.41 -0,3583.21 -0,3569.62 -0,3544.59 -0,3496.66 -0,3458.42 -0,3457.24 -0,3447.99 -0,3211.25 -0,3189.52 -0,3180.7 -0,3158.42 -0,3096.91 -0,3093.35 -0,3091.84 -0,3087.38 -0,3080.82 -0,3077.87 -0,3076.63 -0,3075.52 -0,3075.09 -0,3073.27 -0,3071.84 -0,3071.7 -0,3049.03 -0,2991.09 3553.97,1351.97 3536.41,1361.51 3521.11,1374.13 3508.48,1389.44 3498.95,1407 3492.92,1426.4 3490.83,1447.24 3492.92,1468.08 3494.03,1471.64 3625.72,1411.33 3623.16,1412.66 3620.93,1414.48 3619.16,1416.64 3618.02,1418.75 3625.98,1415.11 3624.86,1415.79 3623.83,1416.62 3622.9,1417.57 3622.07,1418.67 3620.73,1420.7 3626.53,1418.04 3622.71,1421.68 3621.77,1423.6 3772.66,1354.56 3635.96,1429.76 3645.92,1435.24 4807.42,1435.24 4849.43,1416.81 4845,1420.06 4842.35,1424.58 4841.47,1429.75 4842.35,1434.92 4842.54,1435.24 5446.66,1435.24 5634.52,1354.56 5634.52,1410 5770.19,1351.97 5752.63,1361.51 5737.32,1374.13 5724.7,1389.44 5715.17,1407 5709.14,1426.4 5708.25,1435.24 5749,1435.24 5804.65,1411.57 5802.27,1412.92 5800.15,1414.74 5798.39,1417.01 5797.5,1418.43 5799.53,1417.57 5795.35,1421.87 5788.18,1433.31 5810.34,1423.89 5806.38,1427.35 5803.88,1431.98 5803.61,1435.24 5804.52,1435.24 6210.52,2091.26 6290.82,2059.34 "/>
  <path class="fil2" d="M578.49 4627.69c17.95,27.21 29.6,53.36 40.96,82.43 8.45,16.91 12.93,48.09 52.57,48.09 11.61,0 28.28,-3.42 43.06,-11.61 16.63,-8.73 29.32,-21.94 35.94,-42l15.85 -53.36 38.57 -19.02 2.64 2.64c-5.27,20.09 -6.59,39.36 -6.59,54.43 0,44.63 38.57,61.56 69.22,61.56 17.95,0 34.09,-8.73 34.09,-25.11 0,-21.13 -8.98,-57.06 -20.62,-89.29 17.95,-17.95 35.94,-35.94 56.53,-50.47l3.17 1.6c8.98,38.04 14,75.56 14,100.66 0,24.57 -10.83,51.79 -19.81,69.49 -18.49,34.87 -51.25,62.62 -90.87,62.62 -30.1,0 -63.65,-15.07 -86.66,-43.06l-1.32 0c-21.66,26.96 -55.22,51.25 -108.86,51.25l-16.63 0c-2.64,35.41 -10.29,60.49 -21.94,82.95 -31.95,62.34 -126.81,106.47 -216.1,106.47 -124.17,0 -186.51,-71.59 -186.51,-166.96 0,-58.91 19.27,-113.6 48.88,-152.42l24.29 10.04c-18.49,35.41 -30.91,68.68 -30.91,101.45 0,89.29 72.66,131.83 156.4,131.83 77.68,0 173.83,-49.41 191.28,-106.72 -6.59,-62.62 -30.1,-91.93 -66.04,-148.99 10.83,-19.02 24.83,-38.04 42.28,-58.38l3.17 0 0 0 0 0 -0.02 -0.09zm1432.13 -336.04c26.15,16.39 51.79,35.66 76.87,57.85 -14,19.81 -31.45,37.79 -53.11,53.64 -25.11,-20.34 -50.19,-37.79 -75.84,-56.27 17.42,-19.55 34.62,-38.29 52.04,-55.22l0 0 0 0 0 0 0 0 0 0 0.03 0zm13.47 244.11c-42.28,0 -76.87,27.75 -76.87,48.34 0,44.13 84.53,57.85 185.72,57.31 -12.68,-51.79 -57.06,-105.68 -108.86,-105.68l0.01 0.03zm-94.86 236.19c54.96,0 103.04,-1.6 139.74,-10.83 40.96,-10.29 75.56,-30.91 75.56,-45.17 0,-3.7 0,-8.19 -1.32,-11.89 -22.98,2.11 -49.41,2.11 -72.38,2.11 -74.49,0 -131.55,-16.91 -154.02,-58.66 -5.55,-11.61 -9.51,-24.57 -9.51,-39.36 0,-40.43 17.42,-79.79 48.09,-107 25.61,-22.45 53.89,-36.44 82.67,-36.44 52.04,0 93.51,41.75 122.57,107.54 15.85,35.94 26.68,77.4 26.68,129.72 0,34.87 -9.51,64.19 -31.17,85.85 -40.43,39.11 -114.92,53.89 -229.04,53.89l-51.79 0 0 0 -13.47 0c-28.28,0 -48.62,-5.02 -64.72,-17.42l-2.64 0c0.79,6.59 1.32,12.93 1.32,19.02 0,25.61 -8.45,58.38 -25.61,84.53 -50.72,75.3 -105.68,108.04 -153.24,108.04 -48.09,0 -107,-18.49 -160.11,-42.54l9.51 -18.49c17.17,7.13 40.96,11.89 73.7,11.89 85.85,0 198.66,-82.43 212.66,-163 -3.17,-6.59 -8.98,-15.32 -17.17,-24.57 -25.11,-29.85 -40.96,-54.68 -55.75,-80.83 12.68,-25.11 24.29,-45.17 35.13,-63.4l4.49 -0.53c36.72,74.77 69.99,117.55 144.23,117.55l11.61 0 0 0 53.89 0 0 0 0 0 0 0 0 0 0 0 0.09 0.01zm-371.98 79c6.34,-34.34 6.87,-72.91 6.87,-108.86l0 -53.36c0,-99.6 -12.68,-244.36 -22.98,-338.68 17.95,-19.27 43.06,-42 62.87,-57.31l5.81 1.6c13.47,118.62 16.63,256 16.63,383.06 0,33.3 -1.32,65.79 -4.49,89.55 -1.85,30.1 -19.27,52.83 -56.53,87.7l-8.19 -3.7zm-382.8 -157.19c1.85,46.77 24.83,83.49 105.15,83.49 49.93,0 92.19,-12.93 138.96,-35.13 8.45,-3.7 12.93,-8.73 12.93,-12.93 0,-29.32 -22.45,-68.15 -60.23,-103.55 -36.72,-33.3 -85.34,-62.62 -130.76,-82.18 -15.6,-6.59 -20.62,-13.47 -20.62,-20.09 0,-13.47 17.95,-41.75 32.77,-62.09l5.02 -0.53c52.04,27.21 110.17,67.64 153.24,112.53 39.11,41.47 63.4,83.49 63.4,129.19 0,33.81 -10.29,65.51 -26.96,95.11 -57.06,28.79 -117.83,50.72 -178.06,50.72 -73.17,0 -123.1,-34.34 -123.1,-114.92 0,-8.73 0,-22.19 3.17,-39.64l25.11 0 0 0 0 0 0 0 0 0 0 0 -0.02 0zm-132.37 -132.9l45.45 73.45c16.63,27.21 32.23,56.81 32.23,103.55l0 59.7c0,48.34 -30.91,100.13 -80.83,151.38 -39.11,34.62 -73.7,49.41 -105.68,49.41 -47.55,0 -101.98,-14.79 -164.85,-41.75l7.13 -18.49c19.81,5.27 42.79,9.77 71.06,9.77 90.36,-0.53 182.8,-66.57 225.08,-147.15 5.02,-9.26 6.87,-17.95 6.87,-24.04 0,-9.26 -5.02,-19.55 -8.98,-28.79 -22.98,-43.31 -48.62,-82.95 -76.87,-119.68 14.79,-23.25 29.6,-45.7 45.7,-67.9l3.7 0.53 0 0 0 0 0 0 0 0 0 0 -0.02 0.01z"/>
  <g id="_3028890842656">
   <polygon class="fil3" points="2213.2,3123.05 2842.7,3123.05 2842.7,3871.47 2213.2,3871.47 "/>
   <polygon class="fil3" points="6562.22,3123.05 7191.72,3123.05 7191.72,3871.47 6562.22,3871.47 "/>
   <path class="fil4" d="M3630.97 1413.86l2179.46 -0.03c4.17,0 7.79,2.4 9.57,5.89l1047.59 1692.8c3.1,5 1.55,11.58 -3.45,14.68 -1.75,1.07 -3.69,1.59 -5.61,1.59l-4345.04 0.04c-5.9,0 -10.7,-4.79 -10.7,-10.7 0,-2.51 0.87,-4.81 2.32,-6.64l1116.97 -1692.81c2.04,-3.11 5.44,-4.79 8.91,-4.81zm2173.55 21.38l-2167.84 0 -1103.36 1672.18 4306.04 0 -1034.84 -1672.18z"/>
   <path class="fil4" d="M3619.1 1432.34c-4.3,-6.55 -2.49,-15.38 4.06,-19.68 6.56,-4.3 15.38,-2.49 19.68,4.06l1105.35 1675.14 1050.2 -1674.85c4.15,-6.65 12.92,-8.67 19.56,-4.52 6.64,4.15 8.67,12.92 4.51,19.57l-1061.6 1693.03c-1.08,1.92 -2.62,3.61 -4.57,4.91 -6.56,4.3 -15.39,2.48 -19.69,-4.07l-1117.5 -1693.59z"/>
   <path class="fil5" d="M5634.52 1354.56l136.7 75.2 -136.7 75.19 0 -60.92 -778.9 0c-18.87,-0.42 -18.87,-28.13 0,-28.55l778.9 0 0 -60.92z"/>
   <path class="fil5" d="M6290.82 2059.34l7.81 155.82 -135.78 -76.84 51.84 -32 -409.11 -662.87c-9.67,-16.39 14.31,-30.78 24.28,-14.98l409.12 662.87 51.84 -32z"/>
   <path class="fil5" d="M5457.4 2129.12l-136.33 75.88 8.91 -155.76 51.62 32.37 413.47 -659.44c10.51,-15.97 33.95,-0.69 24.19,15.16l-413.47 659.44 51.61 32.36z"/>
   <path class="fil5" d="M3772.66 1504.94l-136.7 -75.19 136.7 -75.2 0 60.92 778.89 0c18.88,0.42 18.88,28.13 0,28.55l-778.89 0 0 60.92z"/>
   <path class="fil5" d="M3264.88 2138.31l-135.78 76.83 7.81 -155.82 51.85 32 409.09 -662.84c9.97,-15.8 33.96,-1.41 24.29,14.99l-409.1 662.84 51.84 32z"/>
   <path class="fil5" d="M4129.76 2043.89l12.53 155.51 -138.06 -72.67 50.86 -33.57 -432.6 -655.53c-10.2,-15.52 13.03,-31.49 23.81,-15.73l432.6 655.54 50.85 -33.56z"/>
   <path class="fil5" d="M4959.82 2639.53l136.32 -75.87 -8.92 155.76 -51.62 -32.36 -275.04 438.63c-10.49,15.96 -33.93,0.7 -24.17,-15.16l275.05 -438.64 -51.62 -32.37z"/>
   <path class="fil5" d="M4401.71 2728.37l-13 -155.47 138.28 72.25 -50.75 33.72 286.54 431.37c10.26,15.6 -13.04,31.46 -23.76,15.79l-286.55 -431.37 -50.75 33.72z"/>
   <path class="fil5" d="M4281.28 3193.32l-136.69 -75.2 136.69 -75.19 0 60.92 469.61 0c18.87,0.42 18.87,28.13 0,28.55l-469.61 0 0 60.92z"/>
   <path class="fil5" d="M5146.02 3042.93l136.69 75.19 -136.69 75.2 0 -60.92 -397.54 0c-18.87,-0.42 -18.87,-28.13 0,-28.55l397.54 0 0 -60.92z"/>
   <path class="fil5" d="M2976.29 3042.93l136.7 75.19 -136.7 75.2 0 -67.1 -462.81 0c-49.08,-49.08 -8.09,-381.1 -8.09,-487.37l-67.11 0 75.2 -136.69 75.2 136.69 -67.11 0 0 471.19 454.72 0 0 -67.1z"/>
   <path class="fil5" d="M2710.47 2956.12l-138.05 72.68 12.52 -155.51 56.01 36.95 262.26 -397.46c5.86,-8.8 19.31,-0.2 13.51,8.92l-262.26 397.46 56.02 36.96z"/>
   <path class="fil5" d="M6412.25 3193.32l-136.7 -75.2 136.7 -75.19 0 67.1 454.72 0 0 -471.19 -67.1 0 75.19 -136.69 75.2 136.69 -67.11 0c0,106.34 41.04,438.24 -8.09,487.37l-462.81 0 0 67.1z"/>
   <path class="fil5" d="M6806.38 2890.93l7.99 155.81 -135.87 -76.66 57.07 -35.32 -258.61 -417.86c-5.45,-9.24 8.06,-17.46 13.76,-8.51l258.6 417.85 57.06 -35.32z"/>
   <polygon class="fil5" points="4818.51,3803.12 4743.31,3939.82 4668.11,3803.12 4729.04,3803.12 4729.04,3118.12 4757.58,3118.12 4757.58,3803.12 "/>
   <path class="fil6" d="M3594.22 1343.85c57.1,0 103.39,46.3 103.39,103.39 0,57.1 -46.29,103.4 -103.39,103.4 -57.1,0 -103.39,-46.3 -103.39,-103.4 0,-57.09 46.29,-103.39 103.39,-103.39z"/>
   <path class="fil6" d="M5810.43 1343.85c57.1,0 103.39,46.3 103.39,103.39 0,57.1 -46.29,103.4 -103.39,103.4 -57.09,0 -103.39,-46.3 -103.39,-103.4 0,-57.09 46.3,-103.39 103.39,-103.39z"/>
   <path class="fil6" d="M6852.63 3011.62c57.1,0 103.39,46.3 103.39,103.39 0,57.1 -46.29,103.4 -103.39,103.4 -57.1,0 -103.39,-46.3 -103.39,-103.4 0,-57.09 46.29,-103.39 103.39,-103.39z"/>
   <path class="fil6" d="M4750.89 3011.62c57.1,0 103.4,46.3 103.4,103.39 0,57.1 -46.3,103.4 -103.4,103.4 -57.09,0 -103.39,-46.3 -103.39,-103.4 0,-57.09 46.3,-103.39 103.39,-103.39z"/>
   <path class="fil6" d="M2515.34 3011.62c57.09,0 103.39,46.3 103.39,103.39 0,57.1 -46.3,103.4 -103.39,103.4 -57.11,0 -103.4,-46.3 -103.4,-103.4 0,-57.09 46.29,-103.39 103.4,-103.39z"/>
  </g>
 </g>
</svg>