<?xml version="1.0" encoding="UTF-8"?>
<!DOCTYPE svg PUBLIC "-//W3C//DTD SVG 1.1//EN" "http://www.w3.org/Graphics/SVG/1.1/DTD/svg11.dtd">
<!-- Creator: CorelDRAW 2020 (64-Bit) -->
<svg xmlns="http://www.w3.org/2000/svg" xml:space="preserve" width="94.1916mm" height="52.9166mm" version="1.1" style="shape-rendering:geometricPrecision; text-rendering:geometricPrecision; image-rendering:optimizeQuality; fill-rule:evenodd; clip-rule:evenodd" viewBox="0 0 9404.92 5283.66" xmlns:xlink="http://www.w3.org/1999/xlink" xmlns:xodm="http://www.corel.com/coreldraw/odm/2003">
 <defs>
  <style type="text/css">
   <![CDATA[
    .fil3 {fill:#434242}
    .fil6 {fill:#78082A}
    .fil8 {fill:#E51050}
    .fil0 {fill:#E6E7E8}
    .fil7 {fill:#E85984}
    .fil5 {fill:#1F6299;fill-rule:nonzero}
    .fil9 {fill:#FEFEFE;fill-rule:nonzero}
    .fil4 {fill:white;fill-rule:nonzero}
    .fil2 {fill:#373435;fill-opacity:0.031373}
    .fil1 {fill:#2B2A29;fill-opacity:0.101961}
   ]]>
  </style>
 </defs>
 <g id="Layer_x0020_1">
  <metadata id="CorelCorpID_0Corel-Layer"/>
  <polygon class="fil0" points="-0,0 9404.92,0 9404.92,5283.66 -0,5283.66 "/>
  <polygon class="fil1" points="4803.52,5283.66 1049.73,5283.66 -0,5283.66 -0,3960.6 -0,3927.1 -0,3927.07 -0,3431.85 -0,3042.26 -0,3032.61 -0,3032.57 -0,3032.54 4115.87,733.44 4115.87,733.51 4114.97,734.01 3834.08,902.14 3834.08,1929.71 5570.85,1024.94 5570.85,1024.97 3834.08,1929.74 3834.08,1968.65 2700.69,2557.49 2700.69,4550.23 6704.23,4550.23 "/>
  <path class="fil2" d="M578.49 4627.69c17.95,27.21 29.6,53.36 40.96,82.43 8.45,16.91 12.93,48.09 52.57,48.09 11.61,0 28.28,-3.42 43.06,-11.61 16.63,-8.73 29.32,-21.94 35.94,-42l15.85 -53.36 38.57 -19.02 2.64 2.64c-5.27,20.09 -6.59,39.36 -6.59,54.43 0,44.63 38.57,61.56 69.22,61.56 17.95,0 34.09,-8.73 34.09,-25.11 0,-21.13 -8.98,-57.06 -20.62,-89.29 17.95,-17.95 35.94,-35.94 56.53,-50.47l3.17 1.6c8.98,38.04 14,75.56 14,100.66 0,24.57 -10.83,51.79 -19.81,69.49 -18.49,34.87 -51.25,62.62 -90.87,62.62 -30.1,0 -63.65,-15.07 -86.66,-43.06l-1.32 0c-21.66,26.96 -55.22,51.25 -108.86,51.25l-16.63 0c-2.64,35.41 -10.29,60.49 -21.94,82.95 -31.95,62.34 -126.81,106.47 -216.1,106.47 -124.17,0 -186.51,-71.59 -186.51,-166.96 0,-58.91 19.27,-113.6 48.88,-152.42l24.29 10.04c-18.49,35.41 -30.91,68.68 -30.91,101.45 0,89.29 72.66,131.83 156.4,131.83 77.68,0 173.83,-49.41 191.28,-106.72 -6.59,-62.62 -30.1,-91.93 -66.04,-148.99 10.83,-19.02 24.83,-38.04 42.28,-58.38l3.17 0 0 0 0 0 -0.02 -0.09zm1432.13 -336.04c26.15,16.39 51.79,35.66 76.87,57.85 -14,19.81 -31.45,37.79 -53.11,53.64 -25.11,-20.34 -50.19,-37.79 -75.84,-56.27 17.42,-19.55 34.62,-38.29 52.04,-55.22l0 0 0 0 0 0 0 0 0 0 0.03 0zm13.47 244.11c-42.28,0 -76.87,27.75 -76.87,48.34 0,44.13 84.53,57.85 185.72,57.31 -12.68,-51.79 -57.06,-105.68 -108.86,-105.68l0.01 0.03zm-94.86 236.19c54.96,0 103.04,-1.6 139.74,-10.83 40.96,-10.29 75.56,-30.91 75.56,-45.17 0,-3.7 0,-8.19 -1.32,-11.89 -22.98,2.11 -49.41,2.11 -72.38,2.11 -74.49,0 -131.55,-16.91 -154.02,-58.66 -5.55,-11.61 -9.51,-24.57 -9.51,-39.36 0,-40.43 17.42,-79.79 48.09,-107 25.61,-22.45 53.89,-36.44 82.67,-36.44 52.04,0 93.51,41.75 122.57,107.54 15.85,35.94 26.68,77.4 26.68,129.72 0,34.87 -9.51,64.19 -31.17,85.85 -40.43,39.11 -114.92,53.89 -229.04,53.89l-51.79 0 0 0 -13.47 0c-28.28,0 -48.62,-5.02 -64.72,-17.42l-2.64 0c0.79,6.59 1.32,12.93 1.32,19.02 0,25.61 -8.45,58.38 -25.61,84.53 -50.72,75.3 -105.68,108.04 -153.24,108.04 -48.09,0 -107,-18.49 -160.11,-42.54l9.51 -18.49c17.17,7.13 40.96,11.89 73.7,11.89 85.85,0 198.66,-82.43 212.66,-163 -3.17,-6.59 -8.98,-15.32 -17.17,-24.57 -25.11,-29.85 -40.96,-54.68 -55.75,-80.83 12.68,-25.11 24.29,-45.17 35.13,-63.4l4.49 -0.53c36.72,74.77 69.99,117.55 144.23,117.55l11.61 0 0 0 53.89 0 0 0 0 0 0 0 0 0 0 0 0.09 0.01zm-371.98 79c6.34,-34.34 6.87,-72.91 6.87,-108.86l0 -53.36c0,-99.6 -12.68,-244.36 -22.98,-338.68 17.95,-19.27 43.06,-42 62.87,-57.31l5.81 1.6c13.47,118.62 16.63,256 16.63,383.06 0,33.3 -1.32,65.79 -4.49,89.55 -1.85,30.1 -19.27,52.83 -56.53,87.7l-8.19 -3.7zm-382.8 -157.19c1.85,46.77 24.83,83.49 105.15,83.49 49.93,0 92.19,-12.93 138.96,-35.13 8.45,-3.7 12.93,-8.73 12.93,-12.93 0,-29.32 -22.45,-68.15 -60.23,-103.55 -36.72,-33.3 -85.34,-62.62 -130.76,-82.18 -15.6,-6.59 -20.62,-13.47 -20.62,-20.09 0,-13.47 17.95,-41.75 32.77,-62.09l5.02 -0.53c52.04,27.21 110.17,67.64 153.24,112.53 39.11,41.47 63.4,83.49 63.4,129.19 0,33.81 -10.29,65.51 -26.96,95.11 -57.06,28.79 -117.83,50.72 -178.06,50.72 -73.17,0 -123.1,-34.34 -123.1,-114.92 0,-8.73 0,-22.19 3.17,-39.64l25.11 0 0 0 0 0 0 0 0 0 0 0 -0.02 0zm-132.37 -132.9l45.45 73.45c16.63,27.21 32.23,56.81 32.23,103.55l0 59.7c0,48.34 -30.91,100.13 -80.83,151.38 -39.11,34.62 -73.7,49.41 -105.68,49.41 -47.55,0 -101.98,-14.79 -164.85,-41.75l7.13 -18.49c19.81,5.27 42.79,9.77 71.06,9.77 90.36,-0.53 182.8,-66.57 225.08,-147.15 5.02,-9.26 6.87,-17.95 6.87,-24.04 0,-9.26 -5.02,-19.55 -8.98,-28.79 -22.98,-43.31 -48.62,-82.95 -76.87,-119.68 14.79,-23.25 29.6,-45.7 45.7,-67.9l3.7 0.53 0 0 0 0 0 0 0 0 0 0 -0.02 0.01z"/>
  <g id="_3029292470608">
   <g>
    <rect class="fil3" x="2700.69" y="1968.65" width="4003.54" height="2581.58"/>
    <path class="fil4" d="M5186.85 3969.75l3.31 0 0 -25.37 -2.93 0 -5.54 2.97 0.66 2.62 4.41 -2.39 0.08 0 0 22.18zm23.11 -7.8c1.4,0 2.35,-1.06 2.35,-2.46 -0.03,-1.44 -0.95,-2.47 -2.31,-2.47 -1.37,0 -2.35,1.06 -2.35,2.47 -0.03,1.4 0.95,2.46 2.31,2.46z"/>
    <path class="fil4" d="M5195.59 4062.45l0 -2.86 -11.39 0 0 -0.08 2.02 -1.86c5.34,-5.16 8.75,-8.95 8.75,-13.62 0,-3.63 -2.31,-7.39 -7.77,-7.39 -2.93,0 -5.42,1.1 -7.18,2.58l1.09 2.43c1.17,-0.98 3.1,-2.15 5.39,-2.15 3.78,0 5.03,2.39 5.03,4.95 -0.05,3.82 -2.97,7.11 -9.45,13.27l-2.7 2.62 0 2.11 16.21 0zm14.35 -7.8c1.41,0 2.35,-1.06 2.35,-2.46 -0.03,-1.44 -0.94,-2.46 -2.3,-2.46 -1.38,0 -2.36,1.05 -2.36,2.46 -0.03,1.4 0.95,2.46 2.31,2.46z"/>
    <path class="fil4" d="M5179.27 4153.87c1.26,0.82 3.75,1.72 6.6,1.72 6.09,0 9.25,-3.55 9.25,-7.61 0,-3.56 -2.53,-5.9 -5.65,-6.53l0 -0.07c3.13,-1.14 4.68,-3.36 4.68,-5.98 0,-3.08 -2.27,-6.04 -7.27,-6.04 -2.73,0 -5.3,0.97 -6.63,1.96l0.9 2.49c1.09,-0.77 3.06,-1.67 5.07,-1.67 3.17,0 4.44,1.79 4.44,3.81 0,3.01 -3.15,4.29 -5.64,4.29l-1.93 0 0 2.57 1.93 0c3.31,0 6.51,1.54 6.54,5.08 0.05,2.1 -1.33,4.9 -5.73,4.9 -2.38,0 -4.64,-0.96 -5.62,-1.59l-0.94 2.66 0 0.01zm30.68 -6.53c1.4,0 2.35,-1.05 2.35,-2.46 -0.03,-1.44 -0.95,-2.46 -2.31,-2.46 -1.37,0 -2.35,1.06 -2.35,2.46 -0.03,1.41 0.95,2.46 2.31,2.46z"/>
    <path class="fil4" d="M5193.25 4247.86l0 -6.91 3.54 0 0 -2.69 -3.54 0 0 -15.78 -3.7 0 -11.32 16.21 0 2.26 11.78 0 0 6.91 3.25 0zm-11.55 -9.6l0 -0.09 6.21 -8.63c0.69,-1.16 1.33,-2.26 2.1,-3.73l0.12 0c-0.07,1.33 -0.12,2.65 -0.12,3.97l0 8.48 -8.31 0zm28.26 1.79c1.4,0 2.35,-1.04 2.35,-2.46 -0.03,-1.44 -0.95,-2.45 -2.31,-2.45 -1.37,0 -2.35,1.05 -2.35,2.45 -0.03,1.42 0.95,2.46 2.31,2.46z"/>
    <path class="fil4" d="M5194.55 4315.19l-12.16 0 -1.63 12.18c0.94,-0.12 2.07,-0.28 3.51,-0.28 5.07,0 7.26,2.36 7.29,5.63 0,3.39 -2.77,5.49 -6,5.49 -2.31,0 -4.37,-0.78 -5.42,-1.4l-0.87 2.62c1.23,0.78 3.55,1.57 6.33,1.57 5.5,0 9.44,-3.7 9.44,-8.67 0,-3.22 -1.63,-5.38 -3.62,-6.53 -1.57,-0.93 -3.5,-1.36 -5.46,-1.36 -0.93,0 -1.49,0.08 -2.07,0.15l0.98 -6.52 9.69 0 0 -2.89zm15.41 17.57c1.4,0 2.35,-1.06 2.35,-2.47 -0.03,-1.43 -0.95,-2.45 -2.31,-2.45 -1.37,0 -2.35,1.05 -2.35,2.45 -0.03,1.41 0.95,2.47 2.31,2.47z"/>
    <polygon class="fil4" points="5257.14,4033.36 5552.14,4033.36 5552.14,4062.99 5257.14,4062.99 "/>
    <polygon class="fil4" points="5257.14,3939.78 5594.61,3939.78 5594.61,3969.41 5257.14,3969.41 "/>
    <polygon class="fil4" points="5257.14,4125.84 5503.82,4125.84 5503.82,4155.47 5257.14,4155.47 "/>
    <polygon class="fil4" points="5257.14,4218.32 5577.8,4218.32 5577.8,4247.96 5257.14,4247.96 "/>
    <polygon class="fil4" points="5257.14,4310.81 5594.61,4310.81 5594.61,4340.44 5257.14,4340.44 "/>
    <path class="fil4" d="M5713.09 3943.99c-0.63,0 -1.49,0.04 -2.51,0.19 -3.2,0.4 -6,1.69 -8.12,3.75 -2.5,2.5 -4.29,6.43 -4.29,11.43 0,6.6 3.55,10.81 8.98,10.81 5.28,0 8.43,-4.29 8.43,-8.94 0,-4.96 -3.15,-8.21 -7.64,-8.21 -2.82,0 -4.93,1.33 -6.14,2.94l-0.11 0c0.58,-4.18 3.43,-8.12 8.82,-9.02 0.98,-0.16 1.88,-0.2 2.58,-0.16l0 -2.81 0.01 0zm-5.94 23.53c-3.58,0 -5.5,-3.09 -5.58,-7.26 0,-0.63 0.16,-1.13 0.39,-1.52 0.95,-1.85 2.86,-3.13 4.92,-3.13 3.16,0 5.23,2.18 5.23,5.82 0,3.62 -2.01,6.08 -4.96,6.08zm22.01 -5.58c1.42,0 2.36,-1.06 2.36,-2.46 -0.04,-1.44 -0.94,-2.46 -2.31,-2.46 -1.37,0 -2.34,1.05 -2.34,2.46 -0.04,1.4 0.93,2.46 2.29,2.46z"/>
    <path class="fil4" d="M5699.07 4037.08l0 2.86 12.41 0 0 0.08 -11 22.44 3.54 0 11.04 -23.1 0 -2.28 -16 0zm30.08 17.57c1.42,0 2.36,-1.06 2.36,-2.46 -0.04,-1.44 -0.94,-2.46 -2.31,-2.46 -1.37,0 -2.34,1.05 -2.34,2.46 -0.04,1.4 0.93,2.46 2.29,2.46z"/>
    <path class="fil4" d="M5706.8 4155.59c4.84,0 8.63,-2.98 8.63,-7.38 0,-3.09 -1.96,-5.31 -5.11,-6.57l0 -0.11c3.12,-1.48 4.18,-3.78 4.18,-5.93 0,-3.17 -2.48,-6.24 -7.39,-6.24 -4.44,0 -7.85,2.73 -7.85,6.74 0,2.2 1.22,4.39 4.02,5.7l0.05 0.12c-3.15,1.33 -5.04,3.59 -5.04,6.8 0,3.7 3.2,6.87 8.51,6.87zm0.08 -2.51c-3.25,0 -5.19,-2.27 -5.08,-4.83 0,-2.43 1.61,-4.37 4.57,-5.23 3.43,0.97 5.58,2.46 5.58,5.54 0,2.62 -2,4.52 -5.07,4.52zm0.03 -21.28c3.1,0 4.3,2.12 4.3,4.14 0,2.3 -1.68,3.87 -3.87,4.61 -2.93,-0.79 -4.83,-2.15 -4.83,-4.69 0,-2.18 1.57,-4.06 4.4,-4.06zm22.25 15.54c1.42,0 2.36,-1.05 2.36,-2.46 -0.04,-1.44 -0.94,-2.46 -2.31,-2.46 -1.37,0 -2.34,1.06 -2.34,2.46 -0.04,1.41 0.93,2.46 2.29,2.46z"/>
    <polygon class="fil4" points="5122.28,3686.53 5122.28,3710.73 5097.7,3710.73 5097.7,3686.53 "/>
    <path class="fil4" d="M3779.42 2395.08l109.82 0c2.19,0 4.15,0.9 5.6,2.34 1.44,1.44 2.33,3.41 2.33,5.61l0 70.81c0,2.19 -0.89,4.16 -2.32,5.6 -1.44,1.44 -3.42,2.33 -5.61,2.33l-109.82 0c-2.19,0 -4.18,-0.89 -5.61,-2.33 -1.44,-1.44 -2.34,-3.41 -2.34,-5.6l0 -70.81c0,-2.2 0.9,-4.17 2.34,-5.61 1.44,-1.44 3.42,-2.34 5.61,-2.34zm109.82 6.15l-109.82 0c-0.5,0 -0.96,0.2 -1.28,0.52 -0.31,0.32 -0.52,0.78 -0.52,1.28l0 70.81c0,0.49 0.21,0.94 0.52,1.26 0.32,0.32 0.78,0.52 1.28,0.52l109.82 0c0.49,0 0.94,-0.2 1.26,-0.52 0.32,-0.32 0.53,-0.77 0.53,-1.26l0 -70.81c0,-0.5 -0.21,-0.96 -0.53,-1.28 -0.31,-0.32 -0.77,-0.52 -1.26,-0.52z"/>
    <path class="fil4" d="M3846.44 2414.25l30.59 0c3.37,0 6.44,1.37 8.66,3.58 2.21,2.22 3.58,5.28 3.58,8.66l0 34.29c0,3.38 -1.38,6.45 -3.58,8.67 -2.22,2.21 -5.28,3.57 -8.66,3.57l-30.59 0c-3.37,0 -6.44,-1.37 -8.66,-3.57 -2.21,-2.24 -3.58,-5.29 -3.58,-8.67l0 -34.29c0,-3.36 1.38,-6.43 3.58,-8.65 2.23,-2.22 5.29,-3.59 8.66,-3.59zm30.59 6.15l-30.59 0c-1.69,0 -3.23,0.68 -4.31,1.78 -1.1,1.09 -1.78,2.63 -1.78,4.31l0 34.29c0,1.69 0.68,3.23 1.78,4.32 1.11,1.1 2.63,1.78 4.31,1.78l30.59 0c1.69,0 3.21,-0.68 4.31,-1.79 1.1,-1.1 1.78,-2.63 1.78,-4.31l0 -34.29c0,-1.69 -0.68,-3.21 -1.78,-4.31 -1.11,-1.1 -2.63,-1.78 -4.31,-1.78z"/>
    <path class="fil4" d="M3858.68 2443.64c0,0.85 0.34,1.63 0.89,2.17 0.55,0.55 1.33,0.89 2.18,0.89 0.85,0 1.63,-0.33 2.18,-0.88 0.54,-0.55 0.89,-1.33 0.89,-2.18 0,-0.85 -0.34,-1.62 -0.89,-2.16 -0.55,-0.56 -1.33,-0.9 -2.18,-0.9 -0.85,0 -1.63,0.34 -2.18,0.89 -0.55,0.55 -0.89,1.33 -0.89,2.17zm-3.44 6.51c-1.67,-1.68 -2.71,-3.97 -2.71,-6.51 0,-2.54 1.04,-4.84 2.7,-6.51 1.68,-1.66 3.98,-2.7 6.52,-2.7 2.53,0 4.83,1.04 6.5,2.7 1.68,1.68 2.71,3.97 2.71,6.51 0,2.55 -1.03,4.84 -2.7,6.51 -1.68,1.67 -3.98,2.7 -6.51,2.7 -2.55,0 -4.84,-1.03 -6.51,-2.7z"/>
    <path class="fil4" d="M3791.71 2414.25l30.6 0c3.37,0 6.43,1.38 8.65,3.58 2.22,2.22 3.59,5.28 3.59,8.66l0 34.29c0,3.38 -1.38,6.45 -3.59,8.67 -2.21,2.21 -5.27,3.57 -8.65,3.57l-30.6 0c-3.37,0 -6.44,-1.37 -8.66,-3.57 -2.21,-2.24 -3.58,-5.29 -3.58,-8.67l0 -34.29c0,-3.36 1.38,-6.43 3.58,-8.65 2.23,-2.22 5.29,-3.59 8.66,-3.59zm30.59 6.15l-30.6 0c-1.68,0 -3.22,0.68 -4.31,1.78 -1.09,1.09 -1.77,2.63 -1.77,4.31l0 34.29c0,1.69 0.68,3.23 1.77,4.31 1.11,1.11 2.64,1.79 4.31,1.79l30.6 0c1.69,0 3.21,-0.68 4.31,-1.79 1.1,-1.1 1.78,-2.63 1.78,-4.31l0 -34.29c0,-1.69 -0.68,-3.21 -1.78,-4.31 -1.1,-1.1 -2.63,-1.78 -4.31,-1.78z"/>
    <path class="fil4" d="M3803.94 2443.64c0,0.85 0.34,1.63 0.88,2.17 0.57,0.55 1.34,0.89 2.18,0.89 0.85,0 1.63,-0.34 2.18,-0.89 0.55,-0.54 0.9,-1.32 0.9,-2.17 0,-0.84 -0.35,-1.62 -0.9,-2.17 -0.55,-0.55 -1.33,-0.89 -2.18,-0.89 -0.85,0 -1.62,0.34 -2.17,0.89 -0.55,0.55 -0.89,1.33 -0.89,2.17zm-3.44 6.51c-1.67,-1.68 -2.71,-3.97 -2.71,-6.51 0,-2.54 1.04,-4.84 2.7,-6.51 1.69,-1.66 3.98,-2.7 6.51,-2.7 2.55,0 4.85,1.03 6.52,2.7 1.67,1.67 2.71,3.97 2.71,6.51 0,2.55 -1.04,4.84 -2.71,6.51 -1.67,1.67 -3.97,2.7 -6.52,2.7 -2.54,0 -4.84,-1.03 -6.5,-2.7z"/>
    <path class="fil4" d="M3843.82 2408.25c0,2.04 1.66,3.69 3.69,3.69 2.05,0 3.7,-1.66 3.7,-3.69 0,-2.05 -1.66,-3.7 -3.7,-3.7 -2.04,0 -3.69,1.66 -3.69,3.7z"/>
    <path class="fil4" d="M3830.33 2408.25c0,2.04 1.66,3.69 3.7,3.69 2.03,0 3.69,-1.66 3.69,-3.69 0,-2.05 -1.67,-3.7 -3.69,-3.7 -2.05,0 -3.7,1.66 -3.7,3.7z"/>
    <path class="fil4" d="M3816.84 2408.25c0,2.04 1.66,3.69 3.69,3.69 2.05,0 3.69,-1.66 3.69,-3.69 0,-2.05 -1.65,-3.7 -3.69,-3.7 -2.04,0 -3.69,1.66 -3.69,3.7z"/>
    <path class="fil4" d="M3959.92 2724.86l-274.5 0c0.05,-81.9 0.01,-163.78 0.01,-245.67l525.93 0 0 -96.75 12.29 0 0 109.04 -525.94 0 0 221.09 262.21 0 0 12.29z"/>
    <polygon class="fil5" points="4134.45,2496.61 4014.9,2496.61 4014.9,2381.11 4134.45,2381.11 "/>
    <path class="fil4" d="M4134.45 2502.75l-125.7 0 0 -127.8 131.84 0 0 127.8 -6.14 0zm-113.41 -12.29l107.27 0 0 -103.21 -107.27 0 0 103.21z"/>
    <path class="fil4" d="M4055.1 2410.48c0,-2.85 -1.15,-5.43 -3.01,-7.28 -1.87,-1.86 -4.44,-3.02 -7.28,-3.02 -2.86,0 -5.43,1.16 -7.29,3.02 -1.87,1.85 -3.03,4.43 -3.03,7.28 0,2.84 1.17,5.42 3.03,7.28 1.85,1.86 4.43,3.01 7.29,3.01 2.84,0 5.41,-1.15 7.28,-3.01 1.86,-1.85 3.01,-4.43 3.01,-7.28zm1.33 -11.62c2.98,2.98 4.82,7.1 4.82,11.62 0,4.52 -1.85,8.64 -4.82,11.61 -2.98,2.99 -7.08,4.82 -11.61,4.82 -4.53,0 -8.65,-1.85 -11.63,-4.81 -2.98,-2.99 -4.82,-7.09 -4.82,-11.62 0,-4.52 1.85,-8.65 4.82,-11.62 2.97,-2.98 7.09,-4.81 11.63,-4.81 4.53,0 8.64,1.84 11.61,4.81z"/>
    <polygon class="fil4" points="4026.65,2407.41 4041.15,2407.41 4041.15,2413.56 4026.65,2413.56 "/>
    <polygon class="fil4" points="4049.22,2407.41 4063.73,2407.41 4063.73,2413.56 4049.22,2413.56 "/>
    <polygon class="fil4" points="4048.26,2391.94 4048.26,2406.45 4042.11,2406.45 4042.11,2391.94 "/>
    <polygon class="fil4" points="4048.26,2414.51 4048.26,2429.02 4042.11,2429.02 4042.11,2414.51 "/>
    <path class="fil4" d="M4112.98 2410.48c0,-2.85 -1.15,-5.43 -3.01,-7.28 -1.86,-1.87 -4.43,-3.02 -7.29,-3.02 -2.85,0 -5.43,1.16 -7.29,3.02 -1.86,1.85 -3.01,4.43 -3.01,7.28 0,2.84 1.15,5.42 3.01,7.28 1.86,1.86 4.45,3.01 7.29,3.01 2.86,0 5.43,-1.15 7.28,-3.01 1.87,-1.85 3.02,-4.43 3.02,-7.28zm1.32 -11.62c2.99,2.99 4.82,7.1 4.82,11.62 0,4.51 -1.84,8.64 -4.81,11.6 -2.99,3 -7.1,4.83 -11.62,4.83 -4.52,0 -8.65,-1.84 -11.61,-4.81 -3,-2.99 -4.83,-7.09 -4.83,-11.62 0,-4.52 1.84,-8.65 4.83,-11.62 2.97,-2.98 7.09,-4.81 11.61,-4.81 4.52,0 8.64,1.84 11.61,4.81z"/>
    <polygon class="fil4" points="4084.53,2407.41 4099.03,2407.41 4099.03,2413.56 4084.53,2413.56 "/>
    <polygon class="fil4" points="4107.1,2407.41 4121.61,2407.41 4121.61,2413.56 4107.1,2413.56 "/>
    <polygon class="fil4" points="4106.13,2391.94 4106.13,2406.45 4099.99,2406.45 4099.99,2391.94 "/>
    <polygon class="fil4" points="4106.13,2414.51 4106.13,2429.02 4099.99,2429.02 4099.99,2414.51 "/>
    <path class="fil4" d="M4055.1 2460.17c0,-2.85 -1.15,-5.42 -3.01,-7.28 -1.86,-1.87 -4.44,-3.02 -7.28,-3.02 -2.86,0 -5.44,1.16 -7.31,3.02 -1.85,1.85 -3.01,4.43 -3.01,7.28 0,2.85 1.16,5.42 3.01,7.27 1.87,1.87 4.45,3.02 7.31,3.02 2.84,0 5.41,-1.15 7.28,-3.01 1.86,-1.86 3.01,-4.44 3.01,-7.28zm1.33 -11.62c2.98,2.97 4.82,7.09 4.82,11.62 0,4.54 -1.85,8.65 -4.82,11.62 -2.98,2.98 -7.08,4.81 -11.61,4.81 -4.53,0 -8.65,-1.84 -11.63,-4.82 -2.98,-2.97 -4.82,-7.09 -4.82,-11.61 0,-4.52 1.85,-8.65 4.82,-11.62 2.99,-2.98 7.1,-4.81 11.63,-4.81 4.52,0 8.63,1.84 11.61,4.81z"/>
    <polygon class="fil4" points="4026.65,2457.09 4041.15,2457.09 4041.15,2463.24 4026.65,2463.24 "/>
    <polygon class="fil4" points="4049.22,2457.09 4063.73,2457.09 4063.73,2463.24 4049.22,2463.24 "/>
    <polygon class="fil4" points="4048.26,2441.62 4048.26,2456.13 4042.11,2456.13 4042.11,2441.62 "/>
    <polygon class="fil4" points="4048.26,2464.2 4048.26,2478.7 4042.11,2478.7 4042.11,2464.2 "/>
    <path class="fil4" d="M4114.91 2460.17c0,-3.5 -1.43,-6.67 -3.71,-8.97 -2.3,-2.3 -5.47,-3.71 -8.97,-3.71 -3.51,0 -6.69,1.42 -8.98,3.71 -2.3,2.28 -3.71,5.45 -3.71,8.97 0,3.5 1.42,6.68 3.7,8.97 2.3,2.29 5.47,3.7 8.99,3.7 3.49,0 6.67,-1.42 8.97,-3.7 2.29,-2.3 3.71,-5.47 3.71,-8.97zm1.64 -14.31c3.65,3.65 5.92,8.72 5.92,14.31 0,5.58 -2.27,10.64 -5.92,14.31 -3.67,3.65 -8.74,5.92 -14.31,5.92 -5.59,0 -10.65,-2.27 -14.32,-5.92 -3.66,-3.68 -5.93,-8.74 -5.93,-14.31 0,-5.57 2.27,-10.63 5.94,-14.3 3.65,-3.66 8.72,-5.93 14.31,-5.93 5.57,0 10.63,2.27 14.31,5.92z"/>
    <polygon class="fil4" points="4079.86,2456.38 4097.72,2456.38 4097.72,2463.94 4079.86,2463.94 "/>
    <polygon class="fil4" points="4107.66,2456.38 4125.5,2456.38 4125.5,2463.94 4107.66,2463.94 "/>
    <polygon class="fil4" points="4106.47,2437.34 4106.47,2455.18 4098.91,2455.18 4098.91,2437.34 "/>
    <polygon class="fil4" points="4106.47,2465.14 4106.47,2482.98 4098.91,2482.98 4098.91,2465.14 "/>
    <path class="fil4" d="M4381.62 2523.1l-163.52 0 0 -148.15 169.66 0 0 148.15 -6.14 0zm-151.24 -12.28l145.1 0 0 -123.57 -145.1 0 0 123.57z"/>
    <path class="fil4" d="M4304.34 2520.74l-83.88 0 0 -15.81 87.67 0 0 15.81 -3.78 0zm-76.33 -7.57l72.56 0 0 -0.7 -72.56 0 0 0.7z"/>
    <path class="fil4" d="M4308.13 2513.19l69.7 0 0 -0.7 -69.7 0 0 0.7zm73.49 7.56l-81.05 0 0 -15.8 84.82 0 0 15.8 -3.77 0z"/>
    <path class="fil4" d="M4727.93 2772.89l-189.29 0 0 -254.21 195.43 0 0 254.21 -6.14 0zm-177.01 -12.28l170.87 0 0 -229.65 -170.87 0 0 229.65z"/>
    <path class="fil4" d="M4684.11 2509.17c-15.27,-5.44 -31.26,-8.17 -47.26,-8.17 -16.01,0 -31.99,2.73 -47.26,8.17 -0.65,0.23 -1.27,0.34 -1.86,0.34 -0.98,0 -1.91,-0.3 -2.69,-0.84 -0.79,-0.55 -1.41,-1.33 -1.75,-2.29 -0.2,-0.55 -0.3,-1.15 -0.3,-1.77l0 -28.14c0,-1.35 0.51,-2.75 1.31,-3.88 0.8,-1.11 1.94,-2.04 3.25,-2.51 15.95,-5.68 32.62,-8.53 49.3,-8.53 16.66,0 33.36,2.85 49.31,8.53 1.29,0.47 2.44,1.4 3.24,2.52 0.8,1.13 1.3,2.52 1.3,3.87l0 28.14c0,0.65 -0.11,1.25 -0.29,1.78 -0.35,0.96 -0.95,1.74 -1.73,2.28 -0.77,0.54 -1.69,0.84 -2.7,0.84 -0.61,-0.01 -1.25,-0.11 -1.87,-0.34zm-47.26 -14.31c16.11,0 32.23,2.67 47.7,7.98l0 -26.35c0.01,-0.07 -0.05,-0.19 -0.15,-0.33 -0.1,-0.14 -0.21,-0.25 -0.29,-0.27 -15.27,-5.44 -31.26,-8.18 -47.26,-8.18 -16.01,0 -31.99,2.74 -47.26,8.18l-0.28 0.28 -0.16 0.32 0 26.35c15.46,-5.31 31.58,-7.98 47.7,-7.98z"/>
    <polygon class="fil5" points="4590.95,2524.85 4593.47,2483.49 4600.04,2483.49 4600.04,2524.85 "/>
    <path class="fil4" d="M4587.88 2524.68l2.7 -44.26 12.53 0 0 47.52 -15.42 0 0.19 -3.26zm8.46 -38.11l-2.15 35.22 2.76 0 0 -35.22 -0.61 0z"/>
    <polygon class="fil5" points="4682.75,2524.85 4680.23,2483.49 4673.67,2483.49 4673.67,2524.85 "/>
    <path class="fil4" d="M4679.49 2521.78l-2.14 -35.22 -0.61 0 0 35.22 2.75 0zm3.8 -38.47l2.71 44.61 -15.41 0 0 -47.52 12.52 0 0.18 2.91z"/>
    <path class="fil4" d="M4589.59 2782.97c15.28,5.44 31.27,8.17 47.26,8.17 15.99,0 31.98,-2.73 47.24,-8.17 0.68,-0.22 1.29,-0.34 1.87,-0.34 0.99,0 1.92,0.3 2.7,0.84 0.81,0.56 1.41,1.33 1.75,2.29 0.19,0.56 0.3,1.16 0.3,1.77l0 28.13c0,1.36 -0.51,2.75 -1.32,3.88 -0.79,1.12 -1.93,2.05 -3.23,2.51 -15.95,5.7 -32.63,8.54 -49.31,8.54 -16.67,0 -33.36,-2.84 -49.31,-8.54 -1.28,-0.45 -2.44,-1.39 -3.24,-2.51 -0.81,-1.13 -1.3,-2.52 -1.3,-3.88l-0.01 -28.13c0.01,-0.63 0.11,-1.23 0.28,-1.74l0.02 -0.04c0.34,-0.96 0.94,-1.74 1.73,-2.28 0.77,-0.54 1.69,-0.84 2.69,-0.84 0.61,0.02 1.25,0.12 1.88,0.34zm47.26 14.32c-16.12,0 -32.24,-2.66 -47.7,-7.97l0 26.33c-0.02,0.07 0.05,0.19 0.15,0.33 0.09,0.14 0.2,0.25 0.29,0.28 15.28,5.45 31.27,8.17 47.26,8.17 15.99,0 31.98,-2.72 47.24,-8.17 0.1,-0.03 0.21,-0.14 0.31,-0.27l0.15 -0.34 0 -26.33c-15.46,5.31 -31.58,7.97 -47.7,7.97z"/>
    <polygon class="fil5" points="4682.75,2767.28 4680.23,2808.65 4673.67,2808.65 4673.67,2767.28 "/>
    <path class="fil4" d="M4685.81 2767.46l-2.69 44.26 -12.52 0 0 -47.52 15.41 0 -0.2 3.26zm-8.46 38.12l2.14 -35.22 -2.75 0 0 35.22 0.61 0z"/>
    <polygon class="fil5" points="4590.95,2767.28 4593.47,2808.65 4600.04,2808.65 4600.04,2767.28 "/>
    <path class="fil4" d="M4594.2 2770.36l2.15 35.22 0.61 0 0 -35.22 -2.76 0zm-3.79 38.47l-2.72 -44.62 15.42 0 0 47.52 -12.53 0 -0.17 -2.9z"/>
    <path class="fil4" d="M4528.2 2537.27c-5.45,15.28 -8.17,31.27 -8.17,47.26 0,16.01 2.72,31.99 8.17,47.27 0.22,0.64 0.33,1.27 0.33,1.85 0,0.99 -0.3,1.91 -0.83,2.7 -0.55,0.79 -1.33,1.41 -2.29,1.74 -0.57,0.2 -1.15,0.3 -1.78,0.3l-28.13 0c-1.35,0 -2.75,-0.5 -3.88,-1.31 -1.12,-0.8 -2.05,-1.94 -2.51,-3.25 -5.69,-15.94 -8.54,-32.62 -8.54,-49.3 0,-16.65 2.85,-33.35 8.54,-49.3 0.46,-1.3 1.39,-2.45 2.5,-3.25 1.14,-0.8 2.53,-1.29 3.89,-1.29l28.13 -0.02c0.65,0.02 1.25,0.12 1.78,0.31 0.96,0.33 1.72,0.93 2.28,1.72 0.54,0.77 0.82,1.69 0.83,2.67 0,0.62 -0.1,1.28 -0.32,1.9zm-14.31 47.26c0,-16.11 2.66,-32.24 7.97,-47.69l-26.34 0c-0.07,-0.02 -0.19,0.04 -0.32,0.14l-0.29 0.29c-5.44,15.28 -8.17,31.27 -8.17,47.26 0,16.01 2.73,31.99 8.17,47.27l0.29 0.28 0.32 0.15 26.34 0c-5.31,-15.45 -7.97,-31.57 -7.97,-47.7z"/>
    <polygon class="fil5" points="4543.88,2630.44 4502.51,2627.91 4502.51,2621.34 4543.88,2621.34 "/>
    <path class="fil4" d="M4543.7 2633.49l-44.25 -2.7 0 -12.52 47.51 0 0 15.41 -3.26 -0.19zm-38.11 -8.46l35.22 2.15 0 -2.76 -35.22 0 0 0.61z"/>
    <polygon class="fil5" points="4543.88,2538.63 4502.51,2541.15 4502.51,2547.71 4543.88,2547.71 "/>
    <path class="fil4" d="M4540.81 2541.89l-35.22 2.15 0 0.6 35.22 0 0 -2.75zm-38.47 -3.8l44.61 -2.72 0 15.42 -47.51 0 0 -12.52 2.9 -0.18z"/>
    <path class="fil4" d="M4528.2 2655.65c-5.45,15.27 -8.17,31.25 -8.17,47.25 0,16.01 2.72,31.99 8.17,47.26 0.22,0.66 0.33,1.28 0.33,1.85 0,1 -0.3,1.92 -0.83,2.71 -0.55,0.79 -1.33,1.4 -2.29,1.74 -0.57,0.2 -1.15,0.3 -1.78,0.3l-28.13 0c-1.35,0 -2.75,-0.5 -3.88,-1.32 -1.12,-0.78 -2.05,-1.93 -2.51,-3.24 -5.69,-15.95 -8.54,-32.62 -8.54,-49.3 0,-16.66 2.85,-33.35 8.54,-49.3 0.46,-1.3 1.39,-2.45 2.5,-3.25 1.14,-0.8 2.53,-1.3 3.89,-1.3l28.13 0c0.65,0 1.25,0.11 1.78,0.29 0.96,0.34 1.72,0.93 2.28,1.73 0.54,0.77 0.82,1.69 0.83,2.66 0,0.63 -0.1,1.29 -0.32,1.92zm-14.31 47.25c0,-16.11 2.66,-32.24 7.97,-47.7l-26.34 0c-0.07,-0.01 -0.19,0.05 -0.32,0.14l-0.29 0.31c-5.44,15.27 -8.17,31.25 -8.17,47.25 0,16.01 2.73,31.99 8.17,47.26l0.29 0.28 0.32 0.16 26.34 0c-5.31,-15.46 -7.97,-31.58 -7.97,-47.7z"/>
    <polygon class="fil5" points="4543.88,2748.8 4502.51,2746.28 4502.51,2739.72 4543.88,2739.72 "/>
    <path class="fil4" d="M4543.7 2751.86l-44.25 -2.7 0 -12.53 47.51 0 0 15.42 -3.26 -0.19zm-38.11 -8.46l35.22 2.15 0 -2.75 -35.22 0 0 0.6z"/>
    <polygon class="fil5" points="4543.88,2657 4502.51,2659.51 4502.51,2666.08 4543.88,2666.08 "/>
    <path class="fil4" d="M4540.81 2660.26l-35.22 2.14 0 0.61 35.22 0 0 -2.75zm-38.47 -3.8l44.61 -2.73 0 15.43 -47.51 0 0 -12.53 2.9 -0.17z"/>
    <path class="fil4" d="M4743.48 2750.16c5.45,-15.27 8.17,-31.26 8.17,-47.26 0,-15.99 -2.72,-31.97 -8.17,-47.24 -0.22,-0.67 -0.33,-1.29 -0.33,-1.88 0,-0.98 0.29,-1.91 0.83,-2.69 0.55,-0.8 1.33,-1.41 2.29,-1.75 0.56,-0.19 1.14,-0.29 1.77,-0.29l28.13 0c1.36,0 2.76,0.5 3.88,1.31 1.12,0.8 2.06,1.94 2.52,3.23 5.69,15.95 8.54,32.64 8.54,49.31 0,16.68 -2.85,33.37 -8.54,49.32 -0.46,1.29 -1.4,2.44 -2.5,3.23 -1.14,0.81 -2.53,1.3 -3.9,1.3l-28.13 0.01c-0.66,-0.01 -1.24,-0.11 -1.75,-0.28 -0.98,-0.36 -1.74,-0.95 -2.3,-1.75 -0.53,-0.75 -0.82,-1.68 -0.83,-2.66 0,-0.63 0.1,-1.28 0.32,-1.91zm14.32 -47.26c0,16.12 -2.66,32.24 -7.97,47.7l26.33 0c0.07,0.02 0.19,-0.05 0.33,-0.14l0.28 -0.3c5.45,-15.27 8.18,-31.26 8.18,-47.26 0,-15.99 -2.73,-31.97 -8.18,-47.24 -0.02,-0.1 -0.13,-0.21 -0.27,-0.3l-0.34 -0.16 -26.33 0c5.31,15.46 7.97,31.58 7.97,47.7z"/>
    <polygon class="fil5" points="4727.8,2657 4769.16,2659.51 4769.16,2666.08 4727.8,2666.08 "/>
    <path class="fil4" d="M4727.97 2653.94l44.26 2.69 0 12.53 -47.52 0 0 -15.43 3.26 0.21zm38.12 8.46l-35.22 -2.14 0 2.75 35.22 0 0 -0.61z"/>
    <polygon class="fil5" points="4727.8,2748.8 4769.16,2746.28 4769.16,2739.72 4727.8,2739.72 "/>
    <path class="fil4" d="M4730.89 2745.54l35.21 -2.15 0 -0.6 -35.21 0 0 2.75zm38.45 3.79l-44.61 2.72 0 -15.42 47.52 0 0 12.53 -2.91 0.17z"/>
    <path class="fil4" d="M4743.48 2631.79c5.45,-15.28 8.17,-31.26 8.17,-47.26 0,-15.99 -2.72,-31.98 -8.17,-47.24 -0.22,-0.67 -0.33,-1.29 -0.33,-1.88 0,-0.98 0.29,-1.9 0.83,-2.69 0.55,-0.8 1.33,-1.41 2.29,-1.74 0.56,-0.2 1.14,-0.31 1.77,-0.31l28.13 0c1.36,0 2.76,0.51 3.88,1.32 1.12,0.79 2.06,1.94 2.52,3.23 5.69,15.95 8.54,32.64 8.54,49.31 0,16.68 -2.85,33.37 -8.54,49.32 -0.46,1.3 -1.4,2.44 -2.52,3.24 -1.12,0.8 -2.52,1.29 -3.88,1.29l-28.13 0.01c-0.66,-0.01 -1.27,-0.11 -1.79,-0.3 -0.95,-0.34 -1.72,-0.93 -2.27,-1.72 -0.52,-0.78 -0.81,-1.69 -0.82,-2.67 0,-0.62 0.1,-1.28 0.32,-1.91zm14.32 -47.26c0,16.13 -2.66,32.25 -7.97,47.7l26.33 0c0.07,0.02 0.2,-0.04 0.33,-0.15 0.15,-0.1 0.26,-0.21 0.28,-0.28 5.45,-15.29 8.18,-31.27 8.18,-47.27 0,-15.99 -2.73,-31.98 -8.18,-47.24 -0.02,-0.1 -0.13,-0.2 -0.27,-0.3l-0.34 -0.15 -26.33 0c5.31,15.45 7.97,31.57 7.97,47.69z"/>
    <polygon class="fil5" points="4727.8,2538.63 4769.16,2541.15 4769.16,2547.71 4727.8,2547.71 "/>
    <path class="fil4" d="M4727.97 2535.57l44.26 2.7 0 12.52 -47.52 0 0 -15.42 3.26 0.2zm38.12 8.47l-35.22 -2.15 0 2.75 35.22 0 0 -0.6z"/>
    <polygon class="fil5" points="4727.8,2630.44 4769.16,2627.91 4769.16,2621.34 4727.8,2621.34 "/>
    <path class="fil4" d="M4730.89 2627.17l35.21 -2.15 0 -0.61 -35.21 0 0 2.76zm38.45 3.8l-44.61 2.71 0 -15.41 47.52 0 0 12.52 -2.91 0.18z"/>
    <path class="fil4" d="M5467.45 2395.32l-358.38 0 0 109.44 9.91 0 0 -99.54 354.61 0 0 99.54 9.91 0 0 -109.44 -16.05 0zm-342.33 -12.28l370.67 0 0 134.02 -34.49 0 0 -99.55 -330.04 0 0 99.55 -34.48 0 0 -134.02 28.34 0z"/>
    <path class="fil4" d="M5467.45 2538.37l-348.47 0 0 -133.13 354.62 0 0 133.13 -6.15 0zm-336.19 -12.27l330.05 0 0 -108.59 -330.05 0 0 108.59z"/>
    <path class="fil4" d="M5467.45 2452.09l-348.47 0 0 -46.85 354.62 0 0 46.85 -6.15 0zm-336.19 -12.28l330.05 0 0 -22.3 -330.05 0 0 22.3z"/>
    <polygon class="fil4" points="5242.32,2445.68 5242.32,2531.42 5236.59,2531.42 5236.59,2445.68 "/>
    <polygon class="fil4" points="5357.67,2445.68 5357.67,2531.42 5351.93,2531.42 5351.93,2445.68 "/>
    <path class="fil4" d="M5634.31 2785.87l0 -269.65 -112.26 0 0 7.21 99.54 0 0 267.19 -99.54 0 0 7.23 112.26 0 0 -11.97zm9.47 -257.7l0 279.16 -131.21 0 0 -26.19 99.54 0 0 -248.22 -99.54 0 0 -26.18 131.21 0 0 21.44z"/>
    <path class="fil4" d="M5382.4 2785.87l-0.11 -90.97 107.56 0 0 -172.87 133.14 0 0 269.98 -240.58 0 -0.01 -6.15 0 0.01zm12.13 -78.69l0.1 72.55 216.07 0 0 -245.42 -108.58 0 0 172.88 -107.6 0 0 -0.01z"/>
    <path class="fil4" d="M5582.28 2522.03l40.72 0 0 269.99 -46.86 0 0 -269.99 6.14 0zm28.43 12.28l-22.3 0 0 245.43 22.3 0 0 -245.43z"/>
    <polygon class="fil4" points="5582.55,2616.74 5496.8,2616.74 5496.8,2611.76 5582.55,2611.76 "/>
    <polygon class="fil4" points="5582.55,2703.57 5496.8,2703.57 5496.8,2698.58 5582.55,2698.58 "/>
    <path class="fil4" d="M5584.82 2424.3l-45.76 0 0 45.76 45.76 0 0 -45.76zm-51.13 -10.74l61.88 0 0 67.24 -67.25 0 0 -67.24 5.37 0z"/>
    <path class="fil4" d="M5499.86 3023.5l-440.63 0 0 44.03 440.63 0 0 -44.03zm-446.01 -10.73l456.75 0 0 65.51 -462.12 0 0 -65.51 5.37 0z"/>
    <path class="fil4" d="M5421.85 2622.59c0,15.35 -14.79,28.79 -38.67,38.08 -22.37,8.7 -53.15,14.08 -87,14.08 -33.86,0 -64.63,-5.38 -87,-14.08 -23.89,-9.3 -38.68,-22.74 -38.68,-38.08 0,-15.36 14.8,-28.79 38.68,-38.08 22.38,-8.71 53.14,-14.09 87,-14.09 33.85,0 64.62,5.38 86.99,14.09 23.89,9.3 38.68,22.73 38.68,38.08zm-42.54 28.11c19.64,-7.64 31.79,-17.62 31.79,-28.11 0,-10.48 -12.16,-20.46 -31.8,-28.1 -21.16,-8.23 -50.54,-13.32 -83.12,-13.32 -32.58,0 -61.97,5.09 -83.13,13.32 -19.64,7.64 -31.79,17.61 -31.79,28.1 0,10.48 12.15,20.47 31.79,28.11 21.17,8.23 50.55,13.32 83.13,13.32 32.59,0 61.98,-5.09 83.13,-13.32z"/>
    <polygon class="fil4" points="5646.91,3053.79 5545.02,2952.4 5553.65,2943.72 5655.54,3045.11 "/>
    <path class="fil4" d="M5548.62 2948.72c0.01,-0.01 2.38,-4.09 8.02,-9.96l4.41 4.24c-5.08,5.29 -7.31,9.13 -7.32,9.13l-5.11 -3.4z"/>
    <path class="fil4" d="M5607.27 2909.21c-9.03,2.78 -18.15,6.36 -26.37,11.06l3.01 5.35c8.53,-4.51 15.86,-7.68 25.13,-10.52l-1.77 -5.89z"/>
    <path class="fil4" d="M5638.83 2903.11c2.09,-0.2 4.16,-0.38 6.17,-0.51 1.95,-0.13 4.04,-0.24 6.28,-0.31l0.22 6.11 -6.09 0.32c-2.13,0.14 -4.12,0.31 -5.98,0.49l-0.6 -6.1z"/>
    <polygon class="fil4" points="4766.41,3096.72 4861.48,3176.99 4853.57,3186.35 4758.51,3106.08 "/>
    <path class="fil4" d="M4858.51 3181.14c-0.01,0.01 -2.3,4.51 -7.77,10.51l-4.53 -4.13c4.94,-5.42 6.82,-9.11 6.82,-9.12l5.48 2.74z"/>
    <path class="fil4" d="M4804.95 3219.81c9.31,-2.97 17.71,-6.93 26.05,-11.94l-3.24 -5.21c-7.43,4.67 -16.37,8.66 -24.71,11.3l1.9 5.85z"/>
    <path class="fil4" d="M4783.41 3225.05c-1.92,0.32 -3.96,0.64 -6.1,0.93 -2.04,0.27 -4.14,0.52 -6.31,0.73l-0.6 -6.1c2.05,-0.19 4.09,-0.44 6.1,-0.71 1.94,-0.26 3.91,-0.56 5.88,-0.9l1.03 6.05z"/>
    <polygon class="fil4" points="4524.55,3106.08 4429.47,3186.35 4421.56,3176.99 4516.62,3096.72 "/>
    <path class="fil4" d="M4430.01 3178.41c0,0.01 1.88,3.69 6.82,9.12l-4.54 4.13c-5.46,-6 -7.75,-10.5 -7.75,-10.51l5.47 -2.74z"/>
    <path class="fil4" d="M4480 3213.95c-7.76,-2.21 -17.85,-6.99 -24.71,-11.3l-3.25 5.21c7.75,4.66 17.37,9.46 26.05,11.94l1.91 -5.85z"/>
    <path class="fil4" d="M4500.67 3219c1.97,0.34 3.93,0.64 5.88,0.9 2,0.27 4.04,0.52 6.1,0.71l-0.61 6.1c-2.17,-0.21 -4.27,-0.46 -6.3,-0.73 -2.15,-0.29 -4.18,-0.61 -6.11,-0.93l1.04 -6.05z"/>
    <polygon class="fil4" points="4540.46,3244.27 4623.75,3331.91 4614.88,3340.34 4531.59,3252.72 "/>
    <path class="fil4" d="M4615.69 3331.99c0.01,-0.01 3.58,-2.3 8.45,-7.74l4.56 4.08c-5.47,6.12 -9.6,8.76 -9.61,8.77l-3.4 -5.11z"/>
    <path class="fil4" d="M4645.99 3279.06c-1.71,8.55 -5.15,17.87 -8.92,25.68l5.51 2.72c3.9,-7.6 7.73,-18.68 9.41,-27.04l-6 -1.36z"/>
    <path class="fil4" d="M4649.11 3258.96c0.16,-1.81 0.3,-3.78 0.42,-5.91 0.11,-2.1 0.19,-4.16 0.24,-6.18l6.11 0.12c-0.05,2.25 -0.12,4.37 -0.23,6.38 -0.1,1.97 -0.25,4 -0.44,6.11l-6.1 -0.52z"/>
    <polygon class="fil4" points="3620.43,3408.87 3709.53,3495.72 3701,3504.48 3611.89,3417.65 "/>
    <path class="fil4" d="M3701.5 3495.98c0.01,0 3.61,-2.32 8.51,-7.7l4.53 4.11c-5.5,6.05 -9.62,8.69 -9.63,8.7l-3.41 -5.11z"/>
    <path class="fil4" d="M3732.12 3442.74c-2,9.2 -4.88,17.24 -8.87,25.7l5.51 2.71c4.17,-8.34 7.37,-17.95 9.35,-27.07l-5.99 -1.34z"/>
    <path class="fil4" d="M3735.14 3421.69c0.14,-2.02 0.25,-4 0.32,-5.9 0.08,-2.05 0.12,-4.11 0.12,-6.17l6.12 0c0,2.21 -0.05,4.34 -0.12,6.38 -0.08,2.2 -0.18,4.24 -0.32,6.12l-6.12 -0.43z"/>
    <polygon class="fil4" points="3619.86,3023.76 3703.76,3110.66 3696.36,3117.78 3612.46,3030.88 "/>
    <path class="fil4" d="M3696.41 3110.1c0.01,0 3.45,-2.35 8.15,-7.91l4.68 3.92c-5.3,6.31 -9.41,9.1 -9.42,9.1l-3.41 -5.11z"/>
    <path class="fil4" d="M3725.3 3056.22c-2,9.36 -4.43,17.27 -8.29,25.96l5.58 2.56c4.06,-8.69 6.71,-17.83 8.72,-27.24l-6.01 -1.28z"/>
    <path class="fil4" d="M3728.02 3035.77c0.14,-2.04 0.24,-4 0.3,-5.92 0.07,-2.06 0.11,-4.12 0.12,-6.18l6.11 0c0,2.22 -0.04,4.36 -0.11,6.39 -0.07,2.18 -0.18,4.23 -0.31,6.11l-6.11 -0.4z"/>
    <polygon class="fil4" points="3914.9,3031.36 3833.68,2948.38 3842.41,2939.78 3923.64,3022.77 "/>
    <path class="fil4" d="M3841.62 2948.14c-0.01,0.01 -3.74,2.27 -8.67,7.59l-4.48 -4.15c5.57,-6.02 9.74,-8.55 9.74,-8.55l3.41 5.11z"/>
    <path class="fil4" d="M3811.42 2999.1c1.68,-8.38 5.29,-17.97 9.19,-25.53l-5.46 -2.83c-4.15,8.64 -7.81,17.48 -9.71,26.99l5.98 1.37z"/>
    <path class="fil4" d="M3808.71 3015.8c-0.19,1.87 -0.35,3.83 -0.48,5.89 -0.13,2.09 -0.21,4.15 -0.27,6.16l-6.12 -0.14c0.05,-2.25 0.15,-4.38 0.27,-6.37 0.12,-2.04 0.3,-4.09 0.5,-6.14l6.1 0.6z"/>
    <polygon class="fil4" points="3592.55,2866.76 3690.1,2963.51 3681.48,2972.2 3583.91,2875.44 "/>
    <path class="fil4" d="M3686.58 2967.32c0,0 -2.52,4.1 -8.36,9.76l-4.27 -4.38c5.25,-5.08 7.52,-8.78 7.52,-8.79l5.11 3.41z"/>
    <path class="fil4" d="M3627.82 3004.02c1.2,-0.26 2.59,-0.69 3.78,-1.05 7.99,-2.24 15.53,-5.42 22.93,-9.12l-2.83 -5.45c-7.19,3.77 -17.61,7.94 -25.49,9.69l1.61 5.93z"/>
    <path class="fil4" d="M3599.04 3008.85c-1.86,0.16 -3.91,0.29 -6.12,0.4 -2.01,0.09 -4.13,0.16 -6.36,0.2l-0.1 -6.12 6.17 -0.2c1.87,-0.1 3.83,-0.23 5.9,-0.4l0.51 6.12z"/>
    <polygon class="fil4" points="4511.25,3590.08 4767.99,3590.08 4767.99,3602.38 4511.25,3602.38 "/>
    <path class="fil4" d="M4731.3 3701.24l-156.73 0c-13.33,0 -25.39,-5.4 -34.13,-14.14 -8.73,-8.75 -14.14,-20.82 -14.14,-34.12 0,-13.32 5.4,-25.4 14.14,-34.13 8.74,-8.73 20.8,-14.14 34.13,-14.14l156.73 0c4,0 7.66,1.65 10.3,4.29 2.66,2.63 4.29,6.28 4.29,10.3l0 67.33c0,4.03 -1.64,7.68 -4.27,10.32 -2.67,2.64 -6.32,4.27 -10.32,4.27zm-156.74 -12.28l156.73 0c0.66,0 1.24,-0.25 1.64,-0.65 0.42,-0.44 0.68,-1.03 0.68,-1.67l0 -67.33c0,-0.64 -0.26,-1.23 -0.68,-1.64 -0.4,-0.42 -0.98,-0.68 -1.64,-0.68l-156.73 0c-9.93,0 -18.94,4.03 -25.45,10.53 -6.5,6.51 -10.52,15.51 -10.52,25.45 0,9.94 4.01,18.95 10.5,25.44 6.53,6.51 15.54,10.53 25.47,10.53z"/>
    <path class="fil5" d="M4768.03 3648.02l-36.06 0c-1.46,-5.43 -6.37,-9.47 -12.27,-9.47 -7.03,0 -12.72,5.7 -12.72,12.73 0,7.03 5.69,12.74 12.72,12.74 5.9,0 10.81,-4.04 12.27,-9.48l36.06 0 0 -6.53z"/>
    <path class="fil4" d="M4764.96 3651.09l-35.34 0 -0.61 -2.28c-0.56,-2.1 -1.8,-3.93 -3.46,-5.22 -1.61,-1.23 -3.62,-1.98 -5.84,-1.98 -2.66,0 -5.08,1.09 -6.83,2.83 -1.74,1.75 -2.82,4.16 -2.82,6.84 0,2.68 1.08,5.1 2.82,6.84 1.75,1.74 4.17,2.83 6.83,2.83 2.22,0 4.23,-0.74 5.84,-1.99 1.67,-1.28 2.91,-3.11 3.46,-5.21l0.61 -2.28 35.34 0 0 -0.38zm-30.82 -6.15l36.97 0 0 12.67 -36.97 0c-1.07,2.45 -2.75,4.58 -4.85,6.19 -2.65,2.05 -5.97,3.29 -9.58,3.29 -4.36,0 -8.31,-1.78 -11.17,-4.63 -2.86,-2.88 -4.62,-6.83 -4.62,-11.18 0,-4.35 1.77,-8.31 4.62,-11.16 2.87,-2.88 6.81,-4.64 11.17,-4.64 3.6,0 6.93,1.23 9.58,3.28 2.11,1.62 3.78,3.74 4.85,6.2z"/>
    <path class="fil4" d="M4767.91 3498.09l97.94 0 0 218.59 -104.07 0 0 -218.59 6.13 0zm85.65 12.29l-79.51 0 0 194.02 79.51 0 0 -194.02z"/>
    <path class="fil4" d="M4776.91 3599.57c0,-12.6 4.1,-24.08 10.74,-32.47 6.98,-8.77 16.69,-14.19 27.51,-14.19 10.81,0 20.53,5.42 27.49,14.2 6.66,8.38 10.77,19.86 10.77,32.46 0,12.6 -4.11,24.09 -10.75,32.47 -6.98,8.76 -16.69,14.2 -27.51,14.2 -10.81,0 -20.53,-5.44 -27.49,-14.22 -6.66,-8.36 -10.76,-19.85 -10.76,-32.45zm20.34 -24.85c-4.98,6.3 -8.06,15.08 -8.06,24.85 0,9.78 3.08,18.56 8.06,24.84 4.66,5.9 11,9.54 17.91,9.54 6.91,0 13.25,-3.63 17.91,-9.52 4.97,-6.3 8.06,-15.09 8.06,-24.86 0,-9.78 -3.09,-18.55 -8.06,-24.83 -4.66,-5.91 -11,-9.55 -17.91,-9.55 -6.91,0 -13.25,3.63 -17.91,9.53z"/>
    <path class="fil4" d="M4800.07 3599.57c0,8.99 2.47,17.21 6.56,23.66 3.91,6.16 9.34,10.69 15.51,12.67 6.17,-1.98 11.59,-6.51 15.5,-12.68 4.1,-6.44 6.56,-14.67 6.56,-23.65 0,-8.99 -2.46,-17.2 -6.56,-23.65 -3.9,-6.17 -9.33,-10.7 -15.5,-12.67 -6.17,1.97 -11.59,6.5 -15.51,12.67 -4.09,6.45 -6.56,14.68 -6.56,23.65zm1.38 26.95c-4.7,-7.41 -7.53,-16.77 -7.53,-26.95 0,-10.17 2.83,-19.55 7.53,-26.94 4.89,-7.71 11.86,-13.3 19.86,-15.55l0.83 -0.23 0.83 0.23c8,2.25 14.97,7.85 19.86,15.55 4.7,7.39 7.52,16.76 7.52,26.94 0,10.17 -2.82,19.54 -7.52,26.95 -4.89,7.69 -11.86,13.3 -19.86,15.54l-0.83 0.23 -0.83 -0.23c-8,-2.24 -14.97,-7.84 -19.86,-15.54z"/>
    <path class="fil5" d="M4793.13 3595.32l21.53 0c2.41,0 4.36,1.97 4.36,4.37 0,2.41 -1.96,4.37 -4.36,4.37l-21.53 0c-2.42,0 -4.37,-1.97 -4.37,-4.37 0,-2.41 1.96,-4.37 4.37,-4.37z"/>
    <path class="fil4" d="M4793.13 3592.24l21.53 0c2.06,0 3.9,0.84 5.25,2.19 1.35,1.36 2.19,3.23 2.19,5.26 0,2.05 -0.84,3.9 -2.19,5.26 -1.35,1.36 -3.2,2.19 -5.25,2.19l-21.53 0c-2.04,0 -3.9,-0.83 -5.25,-2.19 -1.36,-1.36 -2.2,-3.22 -2.2,-5.26 0,-2.04 0.84,-3.9 2.19,-5.25 1.36,-1.36 3.23,-2.2 5.26,-2.2zm21.53 6.15l-21.53 0c-0.37,0 -0.7,0.14 -0.92,0.37 -0.23,0.23 -0.38,0.56 -0.38,0.93 0,0.37 0.15,0.7 0.37,0.92 0.23,0.24 0.56,0.38 0.93,0.38l21.53 0c0.35,0 0.68,-0.14 0.91,-0.38 0.23,-0.22 0.38,-0.55 0.38,-0.92 0,-0.37 -0.15,-0.7 -0.38,-0.93 -0.23,-0.23 -0.56,-0.37 -0.91,-0.37z"/>
    <path class="fil4" d="M4738.18 3577.48l-18.38 0c-4.3,0 -8.21,-1.75 -11.03,-4.56 -2.83,-2.84 -4.58,-6.74 -4.58,-11.04l0 -65.47c0,-4.27 1.76,-8.18 4.58,-11 2.86,-2.85 6.75,-4.6 11.03,-4.6l18.38 0c4.31,0 8.22,1.76 11.04,4.57 2.82,2.85 4.57,6.76 4.57,11.03l0 65.47c0,4.28 -1.76,8.19 -4.59,11.02 -2.81,2.84 -6.71,4.58 -11.02,4.58zm-18.38 -12.28l18.38 0c0.92,0 1.76,-0.38 2.36,-0.97 0.61,-0.59 0.98,-1.42 0.98,-2.36l0 -65.47c0,-0.93 -0.37,-1.77 -0.96,-2.36 -0.62,-0.6 -1.45,-0.97 -2.38,-0.97l-18.38 0c-0.93,0 -1.77,0.37 -2.36,0.96 -0.61,0.61 -0.97,1.44 -0.97,2.37l0 65.47c0,0.92 0.37,1.76 0.97,2.36 0.6,0.59 1.43,0.97 2.36,0.97z"/>
    <path class="fil4" d="M4716.47 3529.15c0,9.42 -4.52,17.88 -11.83,23.96 -7.01,5.81 -16.59,9.42 -27.11,9.42 -10.49,0 -20.09,-3.6 -27.08,-9.42 -7.31,-6.08 -11.84,-14.55 -11.84,-23.96 0,-9.42 4.53,-17.89 11.84,-23.97 6.99,-5.81 16.58,-9.42 27.08,-9.42 10.51,0 20.1,3.6 27.11,9.42 7.31,6.08 11.83,14.56 11.83,23.97zm-19.66 14.56c4.55,-3.78 7.37,-8.95 7.37,-14.56 0,-5.62 -2.82,-10.78 -7.37,-14.57 -4.86,-4.03 -11.67,-6.54 -19.28,-6.54 -7.6,0 -14.41,2.51 -19.26,6.54 -4.55,3.78 -7.37,8.94 -7.37,14.57 0,5.61 2.82,10.77 7.37,14.56 4.85,4.03 11.66,6.54 19.26,6.54 7.61,0 14.42,-2.51 19.28,-6.54z"/>
    <path class="fil4" d="M4731.13 3529.15c0,-0.27 -0.11,-0.52 -0.28,-0.68 -0.17,-0.18 -0.42,-0.28 -0.68,-0.28 -0.28,0 -0.53,0.1 -0.69,0.27 -0.16,0.18 -0.27,0.42 -0.27,0.69 0,0.26 0.11,0.5 0.28,0.68 0.17,0.17 0.41,0.28 0.68,0.28 0.26,0 0.51,-0.11 0.68,-0.28 0.17,-0.17 0.28,-0.42 0.28,-0.68zm4.04 -5.03c1.3,1.29 2.1,3.08 2.1,5.03 0,1.95 -0.81,3.72 -2.09,5.01 -1.28,1.29 -3.07,2.09 -5.02,2.09 -1.96,0 -3.74,-0.8 -5.02,-2.08 -1.29,-1.28 -2.1,-3.07 -2.1,-5.02 0,-1.96 0.81,-3.74 2.1,-5.03 1.29,-1.28 3.08,-2.08 5.02,-2.08 1.95,0 3.72,0.8 5.01,2.08z"/>
    <path class="fil4" d="M5095.28 3392.51l0 18.38c0,4.31 -1.75,8.21 -4.57,11.03 -2.82,2.83 -6.74,4.58 -11.03,4.58l-65.47 0c-4.29,0 -8.21,-1.76 -11.03,-4.58 -2.82,-2.83 -4.57,-6.72 -4.57,-11.03l0 -18.38c0,-4.31 1.76,-8.22 4.57,-11.04 2.86,-2.82 6.76,-4.57 11.03,-4.57l65.47 0c4.28,0 8.19,1.76 11.02,4.59 2.84,2.81 4.58,6.71 4.58,11.02zm-12.27 18.38l0 -18.39c0,-0.93 -0.38,-1.76 -0.98,-2.36 -0.58,-0.61 -1.42,-0.98 -2.36,-0.98l-65.47 0c-0.94,0 -1.77,0.37 -2.35,0.96 -0.6,0.62 -0.98,1.46 -0.98,2.38l0 18.39c0,0.92 0.38,1.75 0.98,2.36 0.6,0.59 1.43,0.96 2.35,0.96l65.47 0c0.92,0 1.76,-0.37 2.36,-0.96 0.59,-0.61 0.98,-1.44 0.98,-2.36z"/>
    <path class="fil4" d="M5046.94 3414.21c9.42,0 17.89,4.53 23.96,11.84 5.82,7 9.43,16.59 9.43,27.1 0,10.5 -3.6,20.09 -9.43,27.09 -6.07,7.31 -14.55,11.83 -23.96,11.83 -9.42,0 -17.89,-4.52 -23.96,-11.83 -5.82,-7 -9.43,-16.58 -9.43,-27.09 0,-10.5 3.6,-20.1 9.43,-27.1 6.07,-7.31 14.55,-11.84 23.96,-11.84zm14.56 19.66c-3.78,-4.55 -8.94,-7.37 -14.56,-7.37 -5.62,0 -10.77,2.82 -14.56,7.37 -4.04,4.86 -6.54,11.67 -6.54,19.28 0,7.6 2.51,14.41 6.54,19.26 3.78,4.55 8.94,7.37 14.56,7.37 5.62,0 10.77,-2.82 14.56,-7.37 4.03,-4.85 6.54,-11.66 6.54,-19.26 0,-7.61 -2.5,-14.42 -6.54,-19.28z"/>
    <path class="fil4" d="M5046.94 3399.55c-0.27,0 -0.51,0.11 -0.68,0.29 -0.18,0.17 -0.29,0.41 -0.29,0.68 0,0.26 0.11,0.5 0.29,0.67 0.17,0.18 0.41,0.29 0.68,0.29 0.26,0 0.51,-0.11 0.68,-0.29 0.18,-0.15 0.28,-0.41 0.28,-0.67 0,-0.28 -0.1,-0.52 -0.28,-0.69 -0.17,-0.17 -0.42,-0.28 -0.68,-0.28zm-5.03 -4.06c1.29,-1.28 3.07,-2.08 5.03,-2.08 1.96,0 3.74,0.8 5.02,2.08 1.29,1.3 2.08,3.08 2.08,5.03 0,1.95 -0.79,3.72 -2.08,5.01 -1.28,1.29 -3.07,2.09 -5.02,2.09 -1.97,0 -3.74,-0.8 -5.03,-2.08 -1.28,-1.28 -2.08,-3.07 -2.08,-5.02 0,-1.97 0.8,-3.75 2.08,-5.03z"/>
    <polygon class="fil4" points="5105.8,3694.28 5019.64,3610.32 5028.18,3601.55 5114.35,3685.5 "/>
    <path class="fil4" d="M5022.91 3606.17c0.01,-0.01 2.55,-4.18 8.51,-9.75l4.17 4.48c-5.32,4.97 -7.56,8.67 -7.57,8.68l-5.11 -3.41z"/>
    <path class="fil4" d="M5078.45 3572.62c-1.69,0 -11.68,3.3 -13.82,4.09 -4.56,1.64 -8.78,3.54 -13.1,5.71l2.83 5.46c7.34,-3.91 15.56,-6.72 23.62,-8.84 0.3,-0.07 1.71,-0.46 1.91,-0.46l-1.44 -5.97z"/>
    <path class="fil4" d="M5098.23 3569.39c2.07,-0.21 4.1,-0.37 6.12,-0.49 1.99,-0.12 4.12,-0.21 6.37,-0.27l0.18 6.11c-2.02,0.06 -4.09,0.16 -6.19,0.28 -2.06,0.13 -4.03,0.28 -5.87,0.46l-0.61 -6.09z"/>
    <path class="fil4" d="M5491.33 3716.87l-223.54 0 0 -292.49c0,-7.02 2.85,-13.4 7.47,-18.01 4.6,-4.6 10.97,-7.46 18,-7.46l178.74 0c7,0 13.38,2.86 17.98,7.46 4.63,4.63 7.49,11.01 7.49,18.01l0 292.49 -6.14 0zm-211.26 -12.28l205.12 0 0 -280.21c0,-3.64 -1.49,-6.96 -3.85,-9.34 -2.38,-2.38 -5.69,-3.85 -9.34,-3.85l-178.74 0c-3.64,0 -6.94,1.48 -9.33,3.86 -2.38,2.38 -3.86,5.68 -3.86,9.33l0 280.21z"/>
    <path class="fil4" d="M5491.33 3713.82l-220.48 0 0 -51.55 223.55 0 0 51.55 -3.08 0zm-214.33 -6.15l211.25 0 0 -39.26 -211.25 0 0 39.26z"/>
    <path class="fil4" d="M5383.89 3712.93l-112.15 0 0 -49.77 114.34 0 0 49.77 -2.19 0zm-107.78 -4.38l105.59 0 0 -41.02 -105.59 0 0 41.02z"/>
    <path class="fil4" d="M5488.25 3639.16l-211.25 0 0 23.11 211.25 0 0 -23.11zm-214.32 -6.15l220.47 0 0 35.4 -223.54 0 0 -35.4 3.08 0z"/>
    <path class="fil4" d="M5262.32 3707.3l-96.42 0 0 -79.37 102.57 0 0 79.37 -6.15 0zm-84.15 -12.28l78.01 0 0 -54.81 -78.01 0 0 54.81z"/>
    <path class="fil4" d="M5591.7 3707.3l-96.43 0 0 -79.37 102.58 0 0 79.37 -6.15 0zm-84.14 -12.28l78 0 0 -54.81 -78 0 0 54.81z"/>
    <path class="fil4" d="M5568.77 3178.14l-337.27 0 0 -102.76 343.41 0 0 102.76 -6.14 0zm-324.98 -12.28l318.84 0 0 -78.2 -318.84 0 0 78.2z"/>
    <path class="fil4" d="M5161.32 3549.89l-47.37 0 0 -272.01 53.52 0 0 272.01 -6.15 0zm-35.09 -12.28l28.95 0 0 -247.45 -28.95 0 0 247.45z"/>
    <path class="fil4" d="M4097.47 3068.46l223.55 0 0 292.49c0,7.01 -2.86,13.38 -7.47,17.98 -4.63,4.64 -11,7.49 -18.01,7.49l-178.74 0c-7.02,0 -13.4,-2.85 -18,-7.46 -4.61,-4.61 -7.46,-10.98 -7.46,-18.01l0 -292.49 6.13 0zm211.26 12.29l-205.12 0 0 280.2c0,3.64 1.49,6.95 3.87,9.34 2.38,2.38 5.68,3.86 9.32,3.86l178.74 0c3.65,0 6.96,-1.49 9.34,-3.85 2.38,-2.39 3.85,-5.7 3.85,-9.35l0 -280.2z"/>
    <path class="fil4" d="M4097.47 3071.54l220.49 0 0 51.54 -223.55 0 0 -51.54 3.07 0zm214.33 6.15l-211.26 0 0 39.25 211.26 0 0 -39.25z"/>
    <path class="fil4" d="M4204.91 3072.42l112.15 0 0 49.78 -114.35 0 0 -49.78 2.2 0zm107.77 4.38l-105.59 0 0 41.02 105.59 0 0 -41.02z"/>
    <path class="fil4" d="M4100.54 3146.18l211.26 0 0 -23.11 -211.26 0 0 23.11zm214.34 6.15l-220.48 0 0 -35.4 223.55 0 0 35.4 -3.08 0z"/>
    <path class="fil4" d="M3991.03 3078.05l96.43 0 0 79.37 -102.57 0 0 -79.37 6.14 0zm84.15 12.28l-78.01 0 0 54.81 78.01 0 0 -54.81z"/>
    <path class="fil4" d="M4411.69 3365.21l96.61 0 0 343.41 -102.75 0 0 -343.41 6.14 0zm84.33 12.29l-78.19 0 0 318.85 78.19 0 0 -318.85z"/>
    <path class="fil4" d="M3533.58 3042.41l48.26 0 0 -201.58 -48.26 0 0 201.58zm54.39 12.29l-66.68 0 0 -226.15 72.82 0 0 226.15 -6.14 0z"/>
    <path class="fil4" d="M3527.43 3054.71l-30.09 0 0 -226.15 36.24 0 0 226.15 -6.14 0zm-17.8 -12.29l11.66 0 0 -201.58 -11.66 0 0 201.58z"/>
    <path class="fil4" d="M3503.43 3054.71l-30.1 0 0 -226.15 36.25 0 0 226.15 -6.14 0zm-17.82 -12.29l11.67 0 0 -201.58 -11.67 0 0 201.58z"/>
    <path class="fil4" d="M5972.48 2952.57l-189.3 0 0 -384.41 195.43 0c0.07,128.14 0.07,256.28 0,384.41l-6.13 0zm-177.01 -12.28l170.86 0 0 -359.84 -170.86 0 0 359.84z"/>
    <path class="fil4" d="M5928.65 2558.66c-15.27,-5.45 -31.26,-8.18 -47.25,-8.18 -16.01,0 -32,2.73 -47.27,8.18 -0.64,0.22 -1.27,0.33 -1.86,0.33 -0.98,0 -1.9,-0.3 -2.69,-0.84 -0.79,-0.54 -1.41,-1.33 -1.74,-2.29 -0.2,-0.55 -0.31,-1.15 -0.31,-1.77l0 -28.14c0,-1.34 0.51,-2.75 1.31,-3.87 0.8,-1.12 1.94,-2.05 3.25,-2.51 15.95,-5.68 32.63,-8.54 49.31,-8.54 16.65,0 33.35,2.86 49.3,8.54 1.3,0.46 2.44,1.39 3.25,2.51 0.79,1.13 1.29,2.52 1.29,3.87l0.01 28.14c-0.01,0.65 -0.12,1.25 -0.3,1.78 -0.34,0.94 -0.93,1.73 -1.73,2.27 -0.76,0.54 -1.67,0.82 -2.66,0.84 -0.62,0.01 -1.28,-0.1 -1.91,-0.32zm-47.25 -14.33c16.11,0 32.23,2.67 47.69,7.98l0 -26.35c0.02,-0.07 -0.05,-0.18 -0.14,-0.32 -0.11,-0.14 -0.22,-0.25 -0.3,-0.28 -15.27,-5.44 -31.26,-8.18 -47.25,-8.18 -16.01,0 -32,2.74 -47.27,8.18l-0.28 0.28 -0.16 0.32 0 26.35c15.46,-5.31 31.58,-7.98 47.71,-7.98z"/>
    <polygon class="fil5" points="5835.5,2574.32 5838.02,2532.97 5844.58,2532.97 5844.58,2574.32 "/>
    <path class="fil4" d="M5832.43 2574.15l2.71 -44.26 12.52 0 0 47.51 -15.42 0 0.19 -3.25zm8.48 -38.11l-2.15 35.22 2.75 0 0 -35.22 -0.6 0z"/>
    <polygon class="fil5" points="5927.3,2574.32 5924.78,2532.97 5918.22,2532.97 5918.22,2574.32 "/>
    <path class="fil4" d="M5924.04 2571.26l-2.15 -35.22 -0.61 0 0 35.22 2.76 0zm3.8 -38.47l2.72 44.61 -15.42 0 0 -47.51 12.52 0 0.18 2.9z"/>
    <path class="fil4" d="M5834.14 2962.64c15.28,5.44 31.27,8.17 47.27,8.17 15.99,0 31.97,-2.73 47.24,-8.17 0.67,-0.23 1.3,-0.35 1.87,-0.35 0.99,0 1.93,0.3 2.71,0.84 0.79,0.55 1.39,1.34 1.73,2.29 0.19,0.55 0.3,1.15 0.3,1.78l0 28.13c0,1.35 -0.51,2.75 -1.31,3.88 -0.79,1.11 -1.93,2.04 -3.24,2.5 -15.95,5.7 -32.63,8.54 -49.3,8.54 -16.68,0 -33.37,-2.84 -49.32,-8.54 -1.27,-0.45 -2.42,-1.38 -3.23,-2.5 -0.81,-1.12 -1.31,-2.53 -1.3,-3.88l-0.02 -28.13c0.01,-0.66 0.12,-1.27 0.31,-1.8 0.34,-0.94 0.94,-1.72 1.72,-2.26 0.76,-0.53 1.68,-0.82 2.66,-0.82 0.63,-0.01 1.27,0.09 1.91,0.32zm47.27 14.31c-16.12,0 -32.24,-2.65 -47.7,-7.97l0 26.34c-0.01,0.07 0.04,0.18 0.14,0.32 0.1,0.14 0.21,0.25 0.3,0.29 15.28,5.44 31.27,8.17 47.26,8.17 16,0 31.98,-2.73 47.25,-8.17 0.08,-0.03 0.19,-0.15 0.3,-0.29l0.15 -0.32 0 -26.34c-15.46,5.32 -31.57,7.97 -47.7,7.97z"/>
    <polygon class="fil5" points="5927.3,2946.95 5924.78,2988.33 5918.22,2988.33 5918.22,2946.95 "/>
    <path class="fil4" d="M5930.36 2947.13l-2.7 44.27 -12.52 0 0 -47.52 15.42 0 -0.2 3.25zm-8.47 38.12l2.15 -35.21 -2.76 0 0 35.21 0.61 0z"/>
    <polygon class="fil5" points="5835.5,2946.95 5838.02,2988.33 5844.58,2988.33 5844.58,2946.95 "/>
    <path class="fil4" d="M5838.76 2950.03l2.15 35.21 0.6 0 0 -35.21 -2.75 0zm-3.8 38.46l-2.71 -44.61 15.41 0 0 47.52 -12.52 0 -0.18 -2.91z"/>
    <path class="fil4" d="M5772.75 2586.75c-5.44,15.27 -8.17,31.26 -8.17,47.25 0,16.01 2.73,32 8.17,47.27 0.22,0.65 0.33,1.27 0.33,1.86 0,0.99 -0.3,1.9 -0.83,2.69 -0.54,0.79 -1.33,1.41 -2.29,1.74 -0.56,0.2 -1.15,0.31 -1.78,0.31l-28.13 0c-1.34,0 -2.75,-0.51 -3.87,-1.32 -1.13,-0.79 -2.06,-1.93 -2.52,-3.24 -5.68,-15.95 -8.54,-32.63 -8.54,-49.31 0,-16.65 2.86,-33.35 8.54,-49.3 0.46,-1.3 1.39,-2.45 2.5,-3.25 1.14,-0.79 2.53,-1.29 3.89,-1.29l28.13 -0.01c0.65,0.01 1.26,0.12 1.78,0.3 0.96,0.34 1.73,0.93 2.28,1.73 0.54,0.76 0.83,1.68 0.83,2.66 0.01,0.62 -0.1,1.28 -0.32,1.91zm-14.31 47.26c0,-16.11 2.66,-32.23 7.98,-47.7l-26.35 0c-0.07,-0.01 -0.18,0.05 -0.32,0.14l-0.28 0.31c-5.45,15.27 -8.17,31.26 -8.17,47.25 0,16.01 2.72,31.99 8.17,47.26l0.28 0.29 0.32 0.16 26.35 0c-5.32,-15.47 -7.98,-31.59 -7.98,-47.71z"/>
    <polygon class="fil5" points="5788.43,2679.91 5747.07,2677.39 5747.07,2670.83 5788.43,2670.83 "/>
    <path class="fil4" d="M5788.26 2682.97l-44.26 -2.7 0 -12.52 47.51 0 0 15.41 -3.25 -0.19zm-38.12 -8.47l35.22 2.15 0 -2.75 -35.22 0 0 0.6z"/>
    <polygon class="fil5" points="5788.43,2588.1 5747.07,2590.63 5747.07,2597.19 5788.43,2597.19 "/>
    <path class="fil4" d="M5785.35 2591.37l-35.22 2.15 0 0.61 35.22 0 0 -2.76zm-38.47 -3.79l44.61 -2.72 0 15.42 -47.51 0 0 -12.53 2.9 -0.17z"/>
    <path class="fil4" d="M5772.75 2835.32c-5.44,15.27 -8.17,31.26 -8.17,47.26 0,16 2.73,31.99 8.17,47.26 0.23,0.64 0.33,1.26 0.33,1.85 0,1 -0.3,1.92 -0.83,2.7 -0.54,0.79 -1.33,1.41 -2.29,1.74 -0.56,0.2 -1.15,0.31 -1.78,0.31l-28.13 0c-1.34,0 -2.75,-0.5 -3.87,-1.32 -1.13,-0.79 -2.06,-1.94 -2.52,-3.24 -5.68,-15.95 -8.54,-32.63 -8.54,-49.3 0,-16.66 2.86,-33.36 8.54,-49.31 0.46,-1.3 1.39,-2.44 2.5,-3.24 1.15,-0.8 2.56,-1.31 3.89,-1.31l28.13 0c0.62,0 1.21,0.11 1.75,0.29l0.03 0.01c0.97,0.34 1.75,0.96 2.29,1.75 0.54,0.78 0.83,1.71 0.83,2.69 0,0.59 -0.11,1.23 -0.33,1.86zm-14.31 47.26c0,-16.12 2.66,-32.24 7.98,-47.71l-26.35 0 -0.32 0.15 -0.28 0.3c-5.45,15.27 -8.17,31.26 -8.17,47.26 0,16 2.72,31.99 8.17,47.26 0.02,0.07 0.13,0.18 0.27,0.28l0.33 0.16 26.35 0c-5.32,-15.46 -7.98,-31.58 -7.98,-47.7z"/>
    <polygon class="fil5" points="5788.43,2928.48 5747.07,2925.96 5747.07,2919.39 5788.43,2919.39 "/>
    <path class="fil4" d="M5788.26 2931.54l-44.26 -2.71 0 -12.52 47.51 0 0 15.42 -3.25 -0.19zm-38.12 -8.46l35.22 2.15 0 -2.76 -35.22 0 0 0.61z"/>
    <polygon class="fil5" points="5788.43,2836.67 5747.07,2839.19 5747.07,2845.75 5788.43,2845.75 "/>
    <path class="fil4" d="M5785.35 2839.93l-35.22 2.15 0 0.61 35.22 0 0 -2.76zm-38.47 -3.79l44.61 -2.72 0 15.42 -47.51 0 0 -12.53 2.9 -0.17z"/>
    <path class="fil4" d="M5988.02 2929.83c5.45,-15.28 8.18,-31.26 8.18,-47.26 0,-16 -2.73,-31.98 -8.18,-47.25 -0.21,-0.66 -0.33,-1.29 -0.33,-1.87 0,-0.98 0.3,-1.91 0.83,-2.69 0.55,-0.81 1.33,-1.41 2.29,-1.75 0.57,-0.19 1.15,-0.3 1.77,-0.3l28.14 0c1.36,0 2.75,0.51 3.88,1.31 1.12,0.8 2.06,1.94 2.51,3.24 5.69,15.95 8.54,32.63 8.54,49.31 0,16.67 -2.85,33.36 -8.54,49.31 -0.48,1.31 -1.4,2.45 -2.5,3.23 -1.16,0.82 -2.54,1.32 -3.89,1.32l-28.14 0c-0.62,0 -1.2,-0.11 -1.74,-0.29 -0.99,-0.35 -1.77,-0.96 -2.32,-1.75 -0.53,-0.79 -0.83,-1.72 -0.83,-2.71 0,-0.57 0.12,-1.2 0.33,-1.85zm14.33 -47.26c0,16.12 -2.67,32.24 -7.98,47.7l26.34 0 0.32 -0.15 0.3 -0.3c5.43,-15.27 8.16,-31.25 8.16,-47.25 0,-16 -2.73,-31.98 -8.17,-47.25 -0.03,-0.1 -0.13,-0.2 -0.27,-0.3l-0.34 -0.16 -26.34 0c5.31,15.47 7.98,31.59 7.98,47.71z"/>
    <polygon class="fil5" points="5972.35,2836.67 6013.72,2839.19 6013.72,2845.75 5972.35,2845.75 "/>
    <path class="fil4" d="M5972.53 2833.61l44.25 2.69 0 12.53 -47.51 0 0 -15.42 3.26 0.2zm38.11 8.47l-35.21 -2.15 0 2.76 35.21 0 0 -0.61z"/>
    <polygon class="fil5" points="5972.35,2928.48 6013.72,2925.96 6013.72,2919.39 5972.35,2919.39 "/>
    <path class="fil4" d="M5975.42 2925.22l35.22 -2.15 0 -0.61 -35.22 0 0 2.76zm38.46 3.79l-44.61 2.72 0 -15.42 47.51 0 0 12.52 -2.9 0.18z"/>
    <path class="fil4" d="M5988.02 2681.26c5.45,-15.28 8.18,-31.26 8.18,-47.26 0,-15.99 -2.73,-31.98 -8.18,-47.24 -0.21,-0.67 -0.33,-1.29 -0.33,-1.87 0,-0.98 0.3,-1.91 0.83,-2.7 0.55,-0.8 1.33,-1.41 2.29,-1.74 0.57,-0.2 1.15,-0.31 1.77,-0.31l28.14 0c1.35,0 2.75,0.51 3.88,1.32 1.12,0.79 2.06,1.93 2.51,3.23 5.69,15.95 8.54,32.64 8.54,49.31 0,16.68 -2.85,33.36 -8.54,49.32 -0.48,1.3 -1.41,2.44 -2.52,3.24 -1.13,0.8 -2.51,1.29 -3.87,1.29l-28.14 0.01c-0.65,-0.01 -1.24,-0.11 -1.75,-0.28 -0.98,-0.35 -1.76,-0.95 -2.3,-1.74 -0.53,-0.75 -0.82,-1.68 -0.83,-2.66 0,-0.62 0.11,-1.27 0.32,-1.92zm14.33 -47.26c0,16.13 -2.67,32.25 -7.98,47.7l26.34 0c0.06,0.02 0.19,-0.04 0.32,-0.14 0.15,-0.1 0.26,-0.21 0.3,-0.3 5.43,-15.28 8.16,-31.26 8.16,-47.26 0,-15.99 -2.73,-31.98 -8.17,-47.24 -0.03,-0.09 -0.13,-0.2 -0.27,-0.31l-0.34 -0.15 -26.34 0c5.31,15.46 7.98,31.58 7.98,47.7z"/>
    <polygon class="fil5" points="5972.35,2588.1 6013.72,2590.63 6013.72,2597.19 5972.35,2597.19 "/>
    <path class="fil4" d="M5972.53 2585.05l44.25 2.7 0 12.52 -47.51 0 0 -15.42 3.26 0.2zm38.11 8.47l-35.21 -2.15 0 2.75 35.21 0 0 -0.6z"/>
    <polygon class="fil5" points="5972.35,2679.91 6013.72,2677.39 6013.72,2670.83 5972.35,2670.83 "/>
    <path class="fil4" d="M5975.42 2676.65l35.22 -2.15 0 -0.6 -35.22 0 0 2.75zm38.46 3.8l-44.61 2.71 0 -15.41 47.51 0 0 12.52 -2.9 0.18z"/>
    <path class="fil4" d="M5772.75 2711.84c-5.44,15.27 -8.17,31.26 -8.17,47.26 0,16 2.73,31.99 8.17,47.26 0.23,0.64 0.33,1.26 0.33,1.86 0,0.99 -0.3,1.91 -0.83,2.69 -0.54,0.8 -1.33,1.41 -2.29,1.75 -0.56,0.2 -1.15,0.3 -1.78,0.3l-28.13 0c-1.34,0 -2.75,-0.5 -3.87,-1.32 -1.13,-0.79 -2.06,-1.94 -2.52,-3.23 -5.68,-15.95 -8.54,-32.64 -8.54,-49.31 0,-16.66 2.86,-33.35 8.54,-49.3 0.45,-1.29 1.39,-2.43 2.51,-3.24 1.12,-0.81 2.52,-1.31 3.88,-1.3l28.13 -0.02c0.66,0.01 1.28,0.12 1.8,0.31 0.95,0.35 1.73,0.94 2.26,1.71 0.53,0.76 0.83,1.68 0.83,2.67 0.01,0.62 -0.1,1.26 -0.32,1.91zm-14.31 47.26c0,-16.12 2.66,-32.24 7.98,-47.7l-26.35 0c-0.07,-0.01 -0.18,0.04 -0.32,0.14 -0.15,0.1 -0.25,0.22 -0.28,0.3 -5.45,15.27 -8.17,31.26 -8.17,47.26 0,16 2.72,31.99 8.17,47.26 0.02,0.08 0.13,0.19 0.27,0.29l0.33 0.15 26.35 0c-5.32,-15.46 -7.98,-31.58 -7.98,-47.7z"/>
    <polygon class="fil5" points="5788.43,2805 5747.07,2802.49 5747.07,2795.92 5788.43,2795.92 "/>
    <path class="fil4" d="M5788.26 2808.06l-44.26 -2.69 0 -12.52 47.51 0 0 15.41 -3.25 -0.2zm-38.12 -8.46l35.22 2.15 0 -2.75 -35.22 0 0 0.6z"/>
    <polygon class="fil5" points="5788.43,2713.19 5747.07,2715.72 5747.07,2722.29 5788.43,2722.29 "/>
    <path class="fil4" d="M5785.35 2716.47l-35.22 2.15 0 0.61 35.22 0 0 -2.76zm-38.47 -3.8l44.61 -2.72 0 15.42 -47.51 0 0 -12.52 2.9 -0.18z"/>
    <path class="fil4" d="M5988.02 2806.35c5.45,-15.27 8.18,-31.26 8.18,-47.25 0,-15.99 -2.73,-31.98 -8.18,-47.25 -0.21,-0.66 -0.33,-1.29 -0.33,-1.87 0,-0.99 0.3,-1.91 0.83,-2.7 0.55,-0.8 1.33,-1.4 2.29,-1.74 0.57,-0.2 1.15,-0.3 1.77,-0.3l28.14 0c1.36,0 2.75,0.51 3.88,1.31 1.12,0.8 2.06,1.94 2.51,3.24 5.69,15.95 8.54,32.63 8.54,49.31 0,16.67 -2.85,33.36 -8.54,49.31 -0.48,1.32 -1.41,2.46 -2.51,3.25 -1.13,0.79 -2.52,1.28 -3.88,1.28l-28.14 0.02c-0.65,-0.02 -1.24,-0.12 -1.75,-0.29 -0.98,-0.35 -1.74,-0.94 -2.3,-1.74 -0.53,-0.75 -0.82,-1.67 -0.83,-2.67 0,-0.61 0.11,-1.28 0.32,-1.91zm14.33 -47.25c0,16.12 -2.67,32.24 -7.98,47.7l26.34 0c0.07,0.01 0.18,-0.04 0.31,-0.14l0.31 -0.31c5.43,-15.27 8.16,-31.26 8.16,-47.25 0,-15.99 -2.73,-31.98 -8.17,-47.25 -0.03,-0.09 -0.13,-0.19 -0.27,-0.3l-0.34 -0.15 -26.34 0c5.31,15.46 7.98,31.58 7.98,47.7z"/>
    <polygon class="fil5" points="5972.35,2713.19 6013.72,2715.72 6013.72,2722.29 5972.35,2722.29 "/>
    <path class="fil4" d="M5972.53 2710.14l44.25 2.7 0 12.53 -47.51 0 0 -15.42 3.26 0.19zm38.11 8.47l-35.21 -2.15 0 2.76 35.21 0 0 -0.61z"/>
    <polygon class="fil5" points="5972.35,2805 6013.72,2802.49 6013.72,2795.92 5972.35,2795.92 "/>
    <path class="fil4" d="M5975.42 2801.74l35.22 -2.15 0 -0.6 -35.22 0 0 2.75zm38.46 3.81l-44.61 2.71 0 -15.41 47.51 0 0 12.52 -2.9 0.18z"/>
    <path class="fil4" d="M4376.27 3703.14l-282.37 0 0 15.19 282.37 0 0 -15.19zm-6.16 9.04l-270.07 0 0 -2.89 270.07 0 0 2.89z"/>
    <polygon class="fil4" points="4235.71,3718.34 4230.93,3718.34 4230.93,3703.15 4235.71,3703.15 "/>
    <path class="fil4" d="M3936.36 3276.35l-72.58 0c-3.71,0 -7.11,-1.51 -9.57,-3.97 -2.49,-2.49 -4,-5.88 -4,-9.59l0 -94.78c0,-3.74 1.52,-7.14 3.97,-9.6 2.48,-2.46 5.87,-3.97 9.6,-3.97l72.58 0c3.72,0 7.11,1.53 9.58,3.97 2.48,2.46 3.99,5.85 3.99,9.6l0 94.78c0,3.71 -1.53,7.11 -3.99,9.58 -2.44,2.47 -5.83,3.98 -9.58,3.98zm-72.58 -12.28l72.58 0c0.36,0 0.69,-0.14 0.91,-0.37 0.24,-0.21 0.38,-0.54 0.38,-0.91l0 -94.78c0,-0.36 -0.15,-0.69 -0.38,-0.92 -0.22,-0.23 -0.54,-0.37 -0.91,-0.37l-72.58 0c-0.38,0 -0.71,0.14 -0.92,0.35 -0.22,0.25 -0.37,0.58 -0.37,0.94l0 94.78c0,0.37 0.14,0.7 0.35,0.91 0.23,0.23 0.56,0.37 0.94,0.37z"/>
    <path class="fil4" d="M3936.36 3395.39l-72.58 0c-3.71,0 -7.11,-1.51 -9.57,-3.96 -2.49,-2.5 -4,-5.89 -4,-9.6l0 -94.78c0,-3.71 1.52,-7.11 3.97,-9.57 2.49,-2.49 5.88,-4 9.6,-4l72.58 0c3.74,0 7.14,1.52 9.6,3.97 2.45,2.48 3.97,5.88 3.97,9.6l0 94.78c0,3.71 -1.53,7.11 -3.99,9.58 -2.44,2.47 -5.83,3.98 -9.58,3.98zm-72.58 -12.28l72.58 0c0.36,0 0.69,-0.14 0.91,-0.37 0.24,-0.21 0.38,-0.54 0.38,-0.91l0 -94.78c0,-0.37 -0.14,-0.7 -0.35,-0.91 -0.25,-0.23 -0.58,-0.38 -0.94,-0.38l-72.58 0c-0.38,0 -0.71,0.14 -0.92,0.35 -0.23,0.24 -0.37,0.57 -0.37,0.94l0 94.78c0,0.37 0.14,0.7 0.35,0.91 0.23,0.23 0.56,0.37 0.94,0.37z"/>
    <path class="fil4" d="M3922.17 3626.67c0,-14.11 -5.71,-26.87 -14.94,-36.1 -9.22,-9.22 -21.99,-14.94 -36.09,-14.94 -14.1,0 -26.88,5.72 -36.1,14.94 -9.23,9.24 -14.94,22.01 -14.94,36.1 0,14.09 5.71,26.84 14.95,36.08 9.21,9.24 21.99,14.94 36.09,14.94 14.1,0 26.87,-5.7 36.09,-14.93 9.23,-9.23 14.94,-21.99 14.94,-36.09zm-6.27 -44.75c11.46,11.47 18.55,27.29 18.55,44.75 0,17.45 -7.09,33.28 -18.54,44.73 -11.48,11.47 -27.3,18.56 -44.76,18.56 -17.46,0 -33.29,-7.09 -44.75,-18.54 -11.47,-11.45 -18.56,-27.29 -18.56,-44.75 0,-17.47 7.09,-33.31 18.54,-44.76 11.48,-11.45 27.31,-18.55 44.77,-18.55 17.46,0 33.28,7.1 44.75,18.56z"/>
    <path class="fil4" d="M3912.8 3556.41l-72.59 0c-3.71,0 -7.1,-1.52 -9.57,-3.97 -2.49,-2.49 -3.99,-5.87 -3.99,-9.6l0 -94.77c0,-3.71 1.51,-7.11 3.97,-9.57 2.49,-2.5 5.87,-4 9.59,-4l72.59 0c3.74,0 7.13,1.52 9.6,3.97 2.45,2.48 3.96,5.87 3.96,9.6l0 94.77c0,3.72 -1.52,7.12 -3.98,9.58 -2.45,2.48 -5.83,3.99 -9.58,3.99zm-72.59 -12.28l72.59 0c0.36,0 0.68,-0.14 0.91,-0.38 0.23,-0.21 0.37,-0.54 0.37,-0.91l0 -94.77c0,-0.38 -0.14,-0.71 -0.35,-0.92 -0.25,-0.23 -0.57,-0.37 -0.93,-0.37l-72.59 0c-0.37,0 -0.7,0.14 -0.91,0.35 -0.24,0.23 -0.38,0.56 -0.38,0.94l0 94.77c0,0.37 0.14,0.7 0.36,0.91 0.23,0.24 0.56,0.38 0.93,0.38z"/>
    <path class="fil4" d="M4308.97 2773.27l-236.14 0 0 -146.8 242.29 0 0 146.8 -6.15 0zm-223.87 -12.28l217.73 0 0 -122.23 -217.73 0 0 122.23z"/>
    <path class="fil4" d="M4164.19 2803.69c0,-5.56 -2.26,-10.6 -5.89,-14.24 -3.64,-3.64 -8.68,-5.89 -14.24,-5.89 -5.57,0 -10.59,2.25 -14.24,5.89 -3.63,3.63 -5.89,8.68 -5.89,14.24 0,5.56 2.26,10.6 5.89,14.24 3.64,3.64 8.67,5.89 14.24,5.89 5.56,0 10.59,-2.26 14.23,-5.89 3.64,-3.63 5.9,-8.68 5.9,-14.24zm-1.56 -18.57c4.75,4.76 7.7,11.33 7.7,18.58 0,7.25 -2.95,13.83 -7.7,18.58 -4.75,4.74 -11.32,7.7 -18.58,7.7 -7.24,0 -13.81,-2.96 -18.57,-7.7 -4.76,-4.75 -7.71,-11.33 -7.71,-18.58 0,-7.25 2.95,-13.82 7.7,-18.57 4.77,-4.76 11.34,-7.72 18.58,-7.72 7.25,0 13.81,2.96 18.58,7.71z"/>
    <path class="fil4" d="M4157.43 2850l-26.75 0c-2.57,0 -4.92,-1.07 -6.62,-2.76 -1.69,-1.7 -2.75,-4.05 -2.75,-6.63 0,-2.58 1.06,-4.93 2.75,-6.63 1.7,-1.7 4.04,-2.75 6.62,-2.75l26.75 0c2.58,0 4.93,1.05 6.63,2.75 1.7,1.7 2.76,4.04 2.76,6.63 0,2.59 -1.06,4.93 -2.76,6.63 -1.7,1.7 -4.05,2.76 -6.63,2.76zm-26.75 -6.16l26.75 0c0.9,0 1.72,-0.36 2.29,-0.94 0.58,-0.58 0.95,-1.4 0.95,-2.29 0,-0.89 -0.37,-1.71 -0.95,-2.28 -0.58,-0.59 -1.39,-0.95 -2.29,-0.95l-26.75 0c-0.89,0 -1.69,0.36 -2.28,0.95 -0.58,0.57 -0.94,1.39 -0.94,2.28 0,0.9 0.36,1.71 0.94,2.29 0.59,0.58 1.4,0.94 2.28,0.94z"/>
    <path class="fil4" d="M4258.67 2803.69c0,-5.56 -2.25,-10.6 -5.88,-14.24 -3.64,-3.64 -8.68,-5.89 -14.24,-5.89 -5.56,0 -10.6,2.26 -14.24,5.89 -3.63,3.63 -5.88,8.68 -5.88,14.24 0,5.57 2.25,10.6 5.88,14.24 3.63,3.63 8.68,5.89 14.24,5.89 5.56,0 10.59,-2.26 14.23,-5.89 3.63,-3.63 5.89,-8.68 5.89,-14.24zm-1.55 -18.57c4.75,4.76 7.71,11.33 7.71,18.58 0,7.25 -2.96,13.83 -7.7,18.58 -4.76,4.74 -11.33,7.7 -18.58,7.7 -7.26,0 -13.83,-2.96 -18.58,-7.7 -4.75,-4.75 -7.69,-11.33 -7.69,-18.58 0,-7.24 2.94,-13.82 7.69,-18.57 4.75,-4.76 11.32,-7.72 18.58,-7.72 7.24,0 13.81,2.96 18.57,7.71z"/>
    <path class="fil4" d="M4251.92 2850l-26.75 0c-2.57,0 -4.92,-1.07 -6.62,-2.76 -1.7,-1.7 -2.75,-4.05 -2.75,-6.63 0,-2.58 1.05,-4.93 2.75,-6.63 1.7,-1.7 4.04,-2.75 6.62,-2.75l26.75 0c2.57,0 4.93,1.05 6.63,2.75 1.7,1.71 2.76,4.05 2.76,6.63 0,2.58 -1.06,4.92 -2.76,6.62 -1.71,1.71 -4.06,2.77 -6.63,2.77zm-26.75 -6.16l26.75 0c0.9,0 1.71,-0.36 2.29,-0.94 0.58,-0.58 0.94,-1.39 0.94,-2.29 0,-0.9 -0.35,-1.71 -0.94,-2.28 -0.58,-0.59 -1.39,-0.95 -2.29,-0.95l-26.75 0c-0.89,0 -1.69,0.36 -2.28,0.95 -0.58,0.57 -0.94,1.39 -0.94,2.28 0,0.9 0.36,1.71 0.94,2.29 0.59,0.58 1.39,0.94 2.28,0.94z"/>
    <polygon class="fil4" points="3308.3,3823.63 6144.97,3823.63 6144.97,3835.92 3308.3,3835.92 "/>
    <polygon class="fil4" points="3302.17,3869.69 3314.45,3869.69 3314.45,3789.85 3302.17,3789.85 "/>
    <polygon class="fil4" points="3591.45,2235.04 6144.97,2235.04 6144.97,2247.32 3591.45,2247.32 "/>
    <polygon class="fil4" points="3585.31,2281.1 3597.59,2281.1 3597.59,2201.25 3585.31,2201.25 "/>
    <polygon class="fil4" points="6151.1,2281.1 6138.82,2281.1 6138.82,2201.25 6151.1,2201.25 "/>
    <polygon class="fil4" points="3591.45,2292.84 5645.26,2292.84 5645.26,2305.13 3591.45,2305.13 "/>
    <polygon class="fil4" points="3585.31,2338.91 3597.59,2338.91 3597.59,2259.07 3585.31,2259.07 "/>
    <polygon class="fil4" points="5651.39,2338.91 5639.12,2338.91 5639.12,2259.07 5651.39,2259.07 "/>
    <path class="fil4" d="M4653.99 3910.47l4.11 0 0 -31.55 -3.63 0 -6.89 3.69 0.83 3.25 5.48 -2.96 0.1 0 0 27.57zm34.46 -31.55l-15.11 0 -2.04 15.16c1.17,-0.15 2.58,-0.35 4.37,-0.35 6.3,0 9.03,2.92 9.07,6.99 0,4.22 -3.43,6.84 -7.47,6.84 -2.86,0 -5.43,-0.97 -6.74,-1.75l-1.08 3.26c1.52,0.97 4.42,1.95 7.88,1.95 6.84,0 11.73,-4.61 11.73,-10.77 0,-3.99 -2.04,-6.7 -4.51,-8.13 -1.94,-1.14 -4.36,-1.69 -6.8,-1.69 -1.16,0 -1.84,0.1 -2.57,0.19l1.23 -8.1 12.03 0 0 -3.59zm16.6 -0.54c-6.4,0 -10.97,5.82 -10.97,16.42 0.1,10.43 4.27,16.22 10.43,16.22 6.99,0 10.97,-5.93 10.97,-16.65 0,-10.04 -3.77,-15.98 -10.43,-15.98zm-0.24 3.3c4.41,0 6.4,5.08 6.4,12.86 0,8.05 -2.08,13.15 -6.45,13.15 -3.87,0 -6.41,-4.66 -6.41,-12.86 0,-8.59 2.72,-13.15 6.46,-13.15zm25.13 -3.3c-6.4,0 -10.96,5.82 -10.96,16.42 0.1,10.43 4.26,16.22 10.43,16.22 6.98,0 10.97,-5.93 10.97,-16.65 0,-10.04 -3.78,-15.98 -10.44,-15.98zm-0.24 3.3c4.42,0 6.4,5.08 6.4,12.86 0,8.05 -2.08,13.15 -6.45,13.15 -3.87,0 -6.41,-4.66 -6.41,-12.86 0,-8.59 2.72,-13.15 6.46,-13.15z"/>
    <path class="fil4" d="M4653.99 2207.58l4.11 0 0 -31.55 -3.63 0 -6.89 3.68 0.83 3.25 5.48 -2.96 0.1 0 0 27.58zm32.85 0l0 -8.59 4.42 0 0 -3.35 -4.42 0 0 -19.61 -4.6 0 -14.07 20.14 0 2.83 14.65 0 0 8.59 4.02 0zm-14.36 -11.94l0 -0.1 7.72 -10.73c0.87,-1.44 1.65,-2.81 2.62,-4.64l0.15 0c-0.1,1.64 -0.15,3.3 -0.15,4.95l0 10.52 -10.33 0zm32.57 -20.15c-6.39,0 -10.96,5.82 -10.96,16.42 0.1,10.43 4.26,16.21 10.43,16.21 6.99,0 10.97,-5.93 10.97,-16.64 0,-10.04 -3.77,-15.98 -10.44,-15.98zm-0.23 3.3c4.41,0 6.4,5.08 6.4,12.86 0,8.06 -2.08,13.16 -6.45,13.16 -3.88,0 -6.42,-4.67 -6.42,-12.87 0,-8.58 2.73,-13.15 6.47,-13.15zm25.13 -3.3c-6.4,0 -10.96,5.82 -10.96,16.42 0.09,10.43 4.25,16.21 10.43,16.21 6.98,0 10.97,-5.93 10.97,-16.64 0,-10.04 -3.78,-15.98 -10.44,-15.98zm-0.24 3.3c4.41,0 6.4,5.08 6.4,12.86 0,8.06 -2.08,13.16 -6.45,13.16 -3.88,0 -6.42,-4.67 -6.42,-12.87 0,-8.58 2.73,-13.15 6.47,-13.15z"/>
    <path class="fil4" d="M3173.54 3192.81l-8.58 0 0 -4.41 -3.36 0 0 4.41 -19.6 0 0 4.61 20.14 14.08 2.83 0 0 -14.66 8.58 0 0 -4.03zm-11.95 14.37l-0.09 0 -10.73 -7.72c-1.45,-0.87 -2.81,-1.65 -4.65,-2.62l0 -0.15c1.66,0.1 3.3,0.15 4.95,0.15l10.52 0 0 10.33zm-20.13 -32.57c0,6.39 5.82,10.95 16.42,10.95 10.42,-0.09 16.21,-4.25 16.21,-10.41 0,-6.99 -5.92,-10.98 -16.64,-10.98 -10.04,0 -15.98,3.77 -15.98,10.44zm3.3 0.23c0,-4.41 5.09,-6.4 12.86,-6.4 8.05,0 13.15,2.08 13.15,6.46 0,3.87 -4.65,6.41 -12.85,6.41 -8.6,0 -13.16,-2.73 -13.16,-6.47zm-3.3 -25.13c0,6.39 5.82,10.96 16.42,10.96 10.42,-0.1 16.21,-4.27 16.21,-10.43 0,-6.99 -5.92,-10.97 -16.64,-10.97 -10.04,0 -15.98,3.78 -15.98,10.44zm3.3 0.24c0,-4.41 5.09,-6.4 12.86,-6.4 8.05,0 13.15,2.08 13.15,6.45 0,3.88 -4.65,6.41 -12.85,6.41 -8.6,0 -13.16,-2.73 -13.16,-6.46z"/>
    <path class="fil4" d="M3475.02 2544.86l0 -4.11 -31.55 0 0 3.63 3.68 6.89 3.25 -0.82 -2.96 -5.49 0 -0.1 27.58 0zm-32.09 -26.16c0,6.4 5.82,10.97 16.42,10.97 10.43,-0.1 16.21,-4.27 16.21,-10.43 0,-6.99 -5.93,-10.97 -16.64,-10.97 -10.04,0 -15.98,3.78 -15.98,10.43zm3.3 0.24c0,-4.42 5.08,-6.4 12.86,-6.4 8.06,0 13.16,2.08 13.16,6.45 0,3.88 -4.67,6.41 -12.87,6.41 -8.59,0 -13.15,-2.73 -13.15,-6.46zm-3.3 -25.14c0,6.4 5.82,10.97 16.42,10.97 10.43,-0.11 16.21,-4.27 16.21,-10.43 0,-6.99 -5.93,-10.97 -16.64,-10.97 -10.04,0 -15.98,3.77 -15.98,10.43zm3.3 0.24c0,-4.42 5.08,-6.4 12.86,-6.4 8.06,0 13.16,2.08 13.16,6.45 0,3.87 -4.67,6.41 -12.87,6.41 -8.59,0 -13.15,-2.72 -13.15,-6.46z"/>
    <polygon class="fil4" points="3308.3,3771.18 3578.5,3771.18 3578.5,3783.45 3308.3,3783.45 "/>
    <polygon class="fil4" points="3302.17,3817.24 3314.45,3817.24 3314.45,3737.4 3302.17,3737.4 "/>
    <polygon class="fil4" points="3584.64,3817.24 3572.36,3817.24 3572.36,3737.4 3584.64,3737.4 "/>
    <polygon class="fil4" points="3982.21,3771.18 4484.43,3771.18 4484.43,3783.45 3982.21,3783.45 "/>
    <polygon class="fil4" points="3976.07,3817.24 3988.35,3817.24 3988.35,3737.4 3976.07,3737.4 "/>
    <polygon class="fil4" points="4490.57,3817.24 4478.29,3817.24 4478.29,3737.4 4490.57,3737.4 "/>
    <polygon class="fil4" points="4783.22,3771.18 5097.79,3771.18 5097.79,3783.45 4783.22,3783.45 "/>
    <polygon class="fil4" points="4777.08,3817.24 4789.35,3817.24 4789.35,3737.4 4777.08,3737.4 "/>
    <polygon class="fil4" points="5103.94,3817.24 5091.66,3817.24 5091.66,3737.4 5103.94,3737.4 "/>
    <polygon class="fil4" points="5664.94,3771.18 6106.61,3771.18 6106.61,3783.45 5664.94,3783.45 "/>
    <polygon class="fil4" points="5658.79,3817.24 5671.07,3817.24 5671.07,3737.4 5658.79,3737.4 "/>
    <path class="fil4" d="M3403.88 3762.58l3.59 0 0 -27.61 -3.18 0 -6.03 3.23 0.72 2.84 4.81 -2.59 0.08 0 0 24.13zm22.9 -28.08c-5.6,0 -9.6,5.09 -9.6,14.36 0.08,9.13 3.73,14.18 9.13,14.18 6.11,0 9.61,-5.18 9.61,-14.56 0,-8.8 -3.3,-13.98 -9.14,-13.98zm-0.21 2.89c3.87,0 5.6,4.44 5.6,11.24 0,7.05 -1.82,11.52 -5.64,11.52 -3.39,0 -5.61,-4.09 -5.61,-11.26 0,-7.51 2.39,-11.5 5.65,-11.5zm22.01 -2.89c-5.6,0 -9.6,5.09 -9.6,14.36 0.08,9.13 3.72,14.18 9.13,14.18 6.1,0 9.6,-5.18 9.6,-14.56 0,-8.8 -3.3,-13.98 -9.13,-13.98zm-0.22 2.89c3.87,0 5.6,4.44 5.6,11.24 0,7.05 -1.82,11.52 -5.64,11.52 -3.39,0 -5.61,-4.09 -5.61,-11.26 0,-7.51 2.39,-11.5 5.65,-11.5z"/>
    <path class="fil4" d="M4208.34 3762.58l0 -3.11 -12.41 0 0 -0.09 2.21 -2.04c5.81,-5.61 9.52,-9.73 9.52,-14.82 0,-3.95 -2.51,-8.03 -8.45,-8.03 -3.19,0 -5.91,1.19 -7.82,2.81l1.19 2.64c1.28,-1.08 3.35,-2.34 5.86,-2.34 4.12,0 5.48,2.59 5.48,5.39 -0.05,4.15 -3.23,7.73 -10.28,14.44l-2.93 2.84 0 2.31 17.63 0zm20.64 -27.61l-13.22 0 -1.79 13.26c1.04,-0.13 2.26,-0.31 3.83,-0.31 5.51,0 7.9,2.56 7.94,6.12 0,3.69 -3.02,5.98 -6.54,5.98 -2.51,0 -4.75,-0.84 -5.9,-1.53l-0.94 2.86c1.33,0.84 3.86,1.69 6.89,1.69 5.98,0 10.27,-4.02 10.27,-9.42 0,-3.49 -1.79,-5.87 -3.96,-7.11 -1.69,-1.01 -3.8,-1.49 -5.94,-1.49 -1.01,0 -1.62,0.09 -2.25,0.18l1.07 -7.1 10.53 0 0 -3.14zm14.52 -0.47c-5.59,0 -9.59,5.09 -9.59,14.36 0.07,9.13 3.72,14.18 9.12,14.18 6.12,0 9.62,-5.18 9.62,-14.56 0,-8.8 -3.32,-13.98 -9.15,-13.98zm-0.2 2.89c3.85,0 5.6,4.44 5.6,11.24 0,7.05 -1.83,11.52 -5.65,11.52 -3.39,0 -5.61,-4.09 -5.61,-11.26 0,-7.51 2.39,-11.5 5.66,-11.5z"/>
    <path class="fil4" d="M4930.65 3762.58l0 -3.11 -12.4 0 0 -0.09 2.21 -2.04c5.81,-5.61 9.52,-9.73 9.52,-14.82 0,-3.95 -2.51,-8.03 -8.45,-8.03 -3.19,0 -5.91,1.19 -7.82,2.81l1.19 2.64c1.28,-1.08 3.35,-2.34 5.86,-2.34 4.12,0 5.47,2.59 5.47,5.39 -0.04,4.15 -3.22,7.73 -10.27,14.44l-2.93 2.84 0 2.31 17.62 0zm13.38 -28.08c-5.6,0 -9.6,5.09 -9.6,14.36 0.08,9.13 3.73,14.18 9.13,14.18 6.11,0 9.61,-5.18 9.61,-14.56 0,-8.8 -3.31,-13.98 -9.14,-13.98zm-0.21 2.89c3.86,0 5.6,4.44 5.6,11.24 0,7.05 -1.82,11.52 -5.64,11.52 -3.39,0 -5.61,-4.09 -5.61,-11.26 0,-7.51 2.38,-11.5 5.65,-11.5zm22 -2.89c-5.59,0 -9.59,5.09 -9.59,14.36 0.07,9.13 3.72,14.18 9.12,14.18 6.11,0 9.61,-5.18 9.61,-14.56 0,-8.8 -3.31,-13.98 -9.14,-13.98zm-0.21 2.89c3.86,0 5.6,4.44 5.6,11.24 0,7.05 -1.82,11.52 -5.64,11.52 -3.39,0 -5.61,-4.09 -5.61,-11.26 0,-7.51 2.39,-11.5 5.65,-11.5z"/>
    <polygon class="fil4" points="6225.43,3704.59 6225.43,2388.78 6237.72,2388.78 6237.72,3704.59 "/>
    <polygon class="fil4" points="6271.49,2394.93 6191.65,2394.93 6191.65,2382.65 6271.49,2382.65 "/>
    <polygon class="fil4" points="3220.45,3704.59 3220.45,2667.69 3232.75,2667.69 3232.75,3704.59 "/>
    <polygon class="fil4" points="3266.52,3698.45 3186.68,3698.45 3186.68,3710.72 3266.52,3710.72 "/>
    <polygon class="fil4" points="3266.52,2673.84 3186.68,2673.84 3186.68,2661.56 3266.52,2661.56 "/>
    <polygon class="fil4" points="3508.32,2625.81 3508.32,2388.79 3520.59,2388.79 3520.59,2625.81 "/>
    <polygon class="fil4" points="3554.37,2619.66 3474.53,2619.66 3474.53,2631.95 3554.37,2631.95 "/>
    <polygon class="fil4" points="3554.37,2394.93 3474.53,2394.93 3474.53,2382.65 3554.37,2382.65 "/>
    <polygon class="fil4" points="4770.73,3360.75 4975.04,3501.41 4971.56,3506.44 4767.25,3365.79 "/>
    <path class="fil5" d="M4880.01 3433.6c0,-4.9 -3.97,-8.88 -8.88,-8.88 -4.89,0 -8.87,3.97 -8.87,8.88 0,4.9 3.97,8.87 8.87,8.87 4.9,0 8.88,-3.96 8.88,-8.87z"/>
    <path class="fil4" d="M4873.86 3433.6c0,-0.77 -0.3,-1.46 -0.78,-1.95 -0.51,-0.48 -1.19,-0.79 -1.95,-0.79 -0.75,0 -1.44,0.31 -1.93,0.79 -0.49,0.48 -0.79,1.18 -0.79,1.95 0,0.77 0.3,1.46 0.78,1.95 0.5,0.48 1.19,0.78 1.94,0.78 0.76,0 1.44,-0.3 1.94,-0.79 0.49,-0.48 0.79,-1.17 0.79,-1.94zm7.89 -10.6c2.72,2.73 4.4,6.48 4.4,10.6 0,4.12 -1.69,7.87 -4.4,10.58 -2.72,2.75 -6.47,4.43 -10.61,4.43 -4.13,0 -7.9,-1.7 -10.6,-4.4 -2.72,-2.75 -4.4,-6.49 -4.4,-10.61 0,-4.12 1.69,-7.88 4.4,-10.59 2.71,-2.74 6.47,-4.42 10.6,-4.42 4.14,0 7.9,1.69 10.61,4.41z"/>
    <path class="fil5" d="M4769.03 3435.68l36.06 0c1.46,5.43 6.38,9.47 12.27,9.47 7.04,0 12.73,-5.7 12.73,-12.73 0,-7.03 -5.69,-12.74 -12.73,-12.74 -5.89,0 -10.81,4.03 -12.27,9.48l-36.06 0 0 6.53z"/>
    <path class="fil4" d="M4772.13 3432.6l35.33 0 0.62 2.28c0.56,2.11 1.8,3.93 3.46,5.22 1.6,1.23 3.61,1.98 5.83,1.98 2.68,0 5.09,-1.08 6.83,-2.83 1.74,-1.75 2.83,-4.16 2.83,-6.84 0,-2.69 -1.09,-5.1 -2.83,-6.85 -1.74,-1.73 -4.15,-2.82 -6.83,-2.82 -2.22,0 -4.23,0.74 -5.84,1.99 -1.66,1.28 -2.9,3.11 -3.45,5.21l-0.62 2.28 -35.33 0 0 0.38zm30.81 6.15l-36.97 0 0 -12.68 36.97 0c1.08,-2.45 2.76,-4.58 4.85,-6.19 2.66,-2.05 5.97,-3.28 9.58,-3.28 4.35,0 8.31,1.78 11.17,4.63 2.86,2.87 4.62,6.82 4.62,11.17 0,4.35 -1.77,8.31 -4.62,11.16 -2.87,2.87 -6.82,4.64 -11.17,4.64 -3.6,0 -6.92,-1.22 -9.58,-3.28 -2.1,-1.62 -3.77,-3.74 -4.85,-6.19z"/>
    <path class="fil4" d="M4973.31 3510.07l-210.46 0 0 -152.93 216.6 0 0 152.93 -6.14 0zm-198.18 -12.28l192.02 0 0 -128.37 -192.02 0 0 128.37z"/>
    <polygon class="fil4" points="4975.03,3365.79 4770.73,3506.44 4767.24,3501.41 4971.55,3360.75 "/>
    <path class="fil4" d="M4757.47 3360.69c0,12.25 -3.97,23.39 -10.41,31.51 -6.68,8.41 -15.98,13.62 -26.3,13.62 -10.34,0 -19.65,-5.2 -26.32,-13.62 -6.42,-8.13 -10.4,-19.28 -10.4,-31.51 0,-12.23 3.98,-23.38 10.4,-31.5 6.67,-8.43 15.98,-13.63 26.32,-13.63 10.32,0 19.62,5.21 26.29,13.62 6.45,8.12 10.42,19.27 10.42,31.51zm-17.62 25.8c5.19,-6.55 8.41,-15.68 8.41,-25.8 0,-10.13 -3.22,-19.25 -8.41,-25.79 -4.94,-6.26 -11.7,-10.12 -19.1,-10.12 -7.4,0 -14.16,3.86 -19.11,10.11 -5.19,6.54 -8.4,15.67 -8.4,25.8 0,10.13 3.21,19.26 8.39,25.81 4.96,6.24 11.72,10.1 19.12,10.1 7.4,0 14.16,-3.86 19.1,-10.11z"/>
    <path class="fil4" d="M4735.85 3360.69c0,-8.98 -2.47,-17.21 -6.57,-23.66 -3.92,-6.16 -9.34,-10.69 -15.51,-12.67 -6.16,1.98 -11.58,6.51 -15.5,12.67 -4.09,6.45 -6.56,14.68 -6.56,23.66 0,8.99 2.47,17.21 6.56,23.66 3.91,6.16 9.34,10.69 15.5,12.66 6.17,-1.97 11.58,-6.5 15.51,-12.66 4.1,-6.45 6.57,-14.69 6.57,-23.66zm-1.4 -26.95c4.71,7.41 7.53,16.77 7.53,26.95 0,10.17 -2.82,19.54 -7.53,26.95 -4.88,7.7 -11.85,13.3 -19.86,15.54l-0.83 0.23 -0.83 -0.23c-8,-2.24 -14.96,-7.85 -19.85,-15.54 -4.7,-7.41 -7.52,-16.77 -7.52,-26.95 0,-10.17 2.82,-19.54 7.52,-26.95 4.89,-7.69 11.85,-13.3 19.85,-15.54l0.83 -0.23 0.83 0.23c8.01,2.24 14.98,7.84 19.86,15.54z"/>
    <path class="fil5" d="M4742.77 3364.95l-21.52 0c-2.42,0 -4.36,-1.96 -4.36,-4.37 0,-2.42 1.95,-4.37 4.36,-4.37l21.52 0c2.43,0 4.38,1.96 4.38,4.37 0,2.42 -1.96,4.37 -4.38,4.37z"/>
    <path class="fil4" d="M4742.77 3368.02l-21.52 0c-2.05,0 -3.91,-0.84 -5.26,-2.2 -1.34,-1.34 -2.18,-3.21 -2.18,-5.25 0,-2.04 0.84,-3.9 2.18,-5.25 1.35,-1.36 3.22,-2.2 5.26,-2.2l21.52 0c2.05,0 3.91,0.84 5.26,2.19 1.36,1.36 2.19,3.23 2.19,5.26 0,2.04 -0.83,3.9 -2.18,5.25 -1.36,1.36 -3.23,2.2 -5.27,2.2zm-21.52 -6.15l21.52 0c0.37,0 0.7,-0.14 0.93,-0.37 0.23,-0.23 0.38,-0.57 0.38,-0.93 0,-0.36 -0.15,-0.69 -0.38,-0.92 -0.23,-0.23 -0.56,-0.38 -0.93,-0.38l-21.52 0c-0.36,0 -0.69,0.14 -0.92,0.36 -0.22,0.24 -0.37,0.58 -0.37,0.94 0,0.37 0.15,0.71 0.37,0.93 0.23,0.23 0.56,0.37 0.92,0.37z"/>
    <path class="fil4" d="M4767.99 3462.17l-97.93 0 0 -218.58 104.08 0 0 218.58 -6.15 0zm-85.65 -12.28l79.51 0 0 -194.02 -79.51 0 0 194.02z"/>
    <polygon class="fil4" points="5639.12,2908.72 5639.12,2798.74 5663.69,2798.74 5663.69,2908.72 "/>
    <path class="fil4" d="M5658.99 2522.97l-15.19 0 0 282.37 15.19 0 0 -282.37zm-6.14 276.21l-2.89 0 0 -270.06 2.89 0 0 270.06z"/>
    <polygon class="fil4" points="5658.99,2682.49 5643.81,2682.49 5643.81,2676.75 5658.99,2676.75 "/>
    <polygon class="fil4" points="5639.12,2527.04 5639.12,2394.05 5457.7,2394.05 5457.7,2369.47 5663.68,2369.47 5663.69,2527.04 "/>
    <path class="fil4" d="M5469.23 2374.19l-282.37 0 0 15.19 282.37 0 0 -15.19zm-6.17 9.05l-270.06 0 0 -2.89 270.06 0 0 2.89z"/>
    <polygon class="fil4" points="5328.26,2389.37 5323.5,2389.37 5323.5,2374.19 5328.26,2374.19 "/>
    <polygon class="fil4" points="5191.37,2394.06 4731.34,2394.06 4731.34,2369.48 5191.37,2369.48 "/>
    <path class="fil4" d="M4739.84 2374.19l-282.36 0 0 15.19 282.36 0 0 -15.19zm-6.15 9.05l-270.06 0 0 -2.89 270.06 0 0 2.89z"/>
    <polygon class="fil4" points="4601.04,2389.37 4596.27,2389.37 4596.27,2374.19 4601.04,2374.19 "/>
    <path class="fil4" d="M4986.15 3243.56c3.39,0 6.14,2.75 6.14,6.14 0,3.38 -2.75,6.13 -6.14,6.13l-12.27 0c-3.39,0 -6.14,-2.75 -6.14,-6.13 0,-3.39 2.75,-6.14 6.14,-6.14l12.27 0z"/>
    <path class="fil4" d="M4947.77 3255.83c4.85,0 7.83,-5.45 5.13,-9.51 -1.13,-1.69 -2.99,-2.77 -5.13,-2.77l-27.99 0c-4.86,0 -7.84,5.45 -5.13,9.51 1.13,1.7 2.98,2.77 5.13,2.77l27.99 0zm-83.97 -12.27c-4.85,0 -7.84,5.45 -5.13,9.51 1.13,1.7 3,2.77 5.13,2.77l27.99 0c4.86,0 7.84,-5.45 5.13,-9.51 -1.12,-1.69 -2.98,-2.77 -5.13,-2.77l-27.99 0z"/>
    <path class="fil4" d="M4843.33 3243.56c3.39,0 6.14,2.75 6.14,6.14 0,3.38 -2.75,6.13 -6.14,6.13l-12.27 0c-3.39,0 -6.14,-2.75 -6.14,-6.13 0,-3.39 2.75,-6.14 6.14,-6.14l12.27 0z"/>
    <polygon class="fil4" points="4467.71,2394.06 3600.3,2394.06 3600.3,2684.6 3434.66,2684.6 3434.66,2660.02 3575.73,2660.02 3575.73,2369.48 4467.71,2369.48 "/>
    <polygon class="fil4" points="5639.12,3296.44 5639.12,3045.91 5663.69,3045.91 5663.69,3296.44 "/>
    <polygon class="fil4" points="4373.54,3698.45 5639.11,3698.45 5639.11,3570.84 5663.68,3570.84 5663.68,3723.02 4373.54,3723.02 "/>
    <path class="fil4" d="M3446.76 2684.6l-130.29 0 0 1013.85 779.99 0 0 24.57 -804.56 0c0,-354.32 0.09,-708.66 0,-1062.99l154.87 0 0 24.57z"/>
    <polygon class="fil4" points="3600.29,2672.31 3600.29,2873.43 3575.72,2873.43 3575.72,2672.31 "/>
    <polygon class="fil4" points="3600.29,3005.22 3600.29,3710.73 3575.72,3710.73 3575.72,3005.22 "/>
    <polygon class="fil4" points="3968.77,3060.87 4533.12,3060.87 4533.12,3105.44 4508.54,3105.44 4508.54,3085.44 3968.77,3085.44 "/>
    <polygon class="fil4" points="5650.72,3085.44 4773.23,3085.44 4773.23,3105.44 4748.65,3105.44 4748.65,3060.87 5650.72,3060.87 "/>
    <polygon class="fil4" points="3913.52,3013.79 3980.95,3013.79 3980.95,3151.35 3750.57,3151.35 3750.57,3026.08 3775.14,3026.08 3775.14,3126.78 3956.38,3126.78 3956.38,3038.36 3913.52,3038.36 "/>
    <polygon class="fil4" points="3730.58,3013.79 3805.92,3013.79 3805.92,3038.36 3730.58,3038.36 "/>
    <polygon class="fil4" points="3588,3013.79 3618.93,3013.79 3618.93,3038.36 3588,3038.36 "/>
    <polygon class="fil4" points="3588,3399.83 3618.93,3399.83 3618.93,3424.41 3588,3424.41 "/>
    <polygon class="fil4" points="3737.97,3399.83 3965.31,3399.83 3965.31,3424.41 3737.97,3424.41 "/>
    <polygon class="fil4" points="3957.06,3710.06 3957.06,3655.59 3957.1,3655.59 3956.42,3460.04 3956.38,3460.04 3956.38,3139.07 3980.95,3139.07 3980.95,3460.04 3980.9,3460.04 3981.57,3655.59 3981.63,3655.59 3981.63,3710.06 "/>
    <polygon class="fil4" points="4499.47,3709.72 4499.47,3222.97 4524.04,3222.97 4524.04,3709.72 "/>
    <polygon class="fil4" points="4755.71,3709.72 4755.71,3222.97 4780.28,3222.97 4780.28,3709.72 "/>
    <polygon class="fil4" points="4511.25,3237.41 4537.99,3237.41 4537.99,3261.98 4511.25,3261.98 "/>
    <polygon class="fil4" points="4651.99,3237.41 4831.06,3237.41 4831.06,3261.98 4651.99,3261.98 "/>
    <polygon class="fil4" points="5027.26,3237.41 5122.28,3237.41 5122.28,3573.53 5097.7,3573.53 5097.7,3261.98 5027.26,3261.98 "/>
    <polygon class="fil4" points="4768.99,3350.99 5110.66,3350.99 5110.66,3375.56 4768.99,3375.56 "/>
    <polygon class="fil4" points="4985.75,3363.03 4985.75,3509.64 4961.18,3509.64 4961.18,3363.03 "/>
    <path class="fil4" d="M3600.31 2840.94l384.33 0 0 -123.71 -11.76 0 0 104.91 -372.57 0 0 18.8zm396.61 24.57l-421.19 0 0.01 -67.96 372.57 0 0 -104.91 60.91 0 0 172.87 -12.29 0 0 0z"/>
    <path class="fil4" d="M4501.49 3048.12l-520.43 0 0 12.75 520.43 0 0 -12.75zm-532.72 -24.57l557.3 0 0 61.9 -569.58 0 0 -61.9 12.28 0z"/>
    <path class="fil4" d="M5663.69 2394.06l0 17.14 461.76 0 0 1270.09 -461.76 0 0 17.15 477.15 0 0 -1304.39 -477.15 0zm-24.56 29.44l0 -54.01 526.29 0 0 1353.53 -526.29 0 0 -66.3 461.76 0 0 -1220.93 -461.76 0 0 -12.29z"/>
    <path class="fil4" d="M5658.99 3290.66l-15.19 0 0 282.36 15.19 0 0 -282.36zm-6.14 276.2l-2.89 0 0 -270.06 2.89 0 0 270.06z"/>
    <polygon class="fil4" points="5658.99,3431.29 5643.81,3431.29 5643.81,3425.54 5658.99,3425.54 "/>
    <path class="fil4" d="M4342.89 2362.98l4.11 0 0 -31.54 -3.63 0 -6.89 3.67 0.82 3.25 5.49 -2.96 0.1 0 0 27.58zm26.15 -32.08c-6.39,0 -10.95,5.82 -10.95,16.42 0.09,10.42 4.25,16.2 10.42,16.2 6.99,0 10.98,-5.92 10.98,-16.64 0,-10.04 -3.78,-15.97 -10.45,-15.97zm-0.23 3.29c4.41,0 6.4,5.09 6.4,12.87 0,8.05 -2.08,13.15 -6.45,13.15 -3.88,0 -6.42,-4.66 -6.42,-12.86 0,-8.59 2.74,-13.16 6.47,-13.16zm25.14 -3.29c-6.4,0 -10.96,5.82 -10.96,16.42 0.09,10.42 4.26,16.2 10.42,16.2 6.99,0 10.97,-5.92 10.97,-16.64 0,-10.04 -3.77,-15.97 -10.43,-15.97zm-0.23 3.29c4.41,0 6.39,5.09 6.39,12.87 0,8.05 -2.08,13.15 -6.45,13.15 -3.88,0 -6.41,-4.66 -6.41,-12.86 0,-8.59 2.73,-13.16 6.47,-13.16zm25.13 -3.29c-6.4,0 -10.96,5.82 -10.96,16.42 0.1,10.42 4.26,16.2 10.42,16.2 6.99,0 10.98,-5.92 10.98,-16.64 0,-10.04 -3.78,-15.97 -10.44,-15.97zm-0.23 3.29c4.41,0 6.39,5.09 6.39,12.87 0,8.05 -2.08,13.15 -6.45,13.15 -3.87,0 -6.41,-4.66 -6.41,-12.86 0,-8.59 2.73,-13.16 6.47,-13.16z"/>
    <path class="fil4" d="M4181.61 4091.28l-1327.15 0 0 318.03 1327.15 0 0 -318.03zm-1333.22 -12.17l1345.38 0 0 342.36 -1351.47 0 0 -342.36 6.09 0z"/>
    <path class="fil4" d="M6550.43 2109.56l-3695.97 0 0 2299.76 3695.97 0 0 -2299.76zm-3702.05 -12.16l3714.21 0 0 2324.08 -3720.3 0 0 -2324.08 6.09 0z"/>
    <polygon class="fil4" points="2846.9,4188.15 4187.5,4188.15 4187.5,4200.31 2846.9,4200.31 "/>
    <polygon class="fil4" points="3780.69,4085.03 3780.69,4194.24 3768.52,4194.24 3768.52,4085.03 "/>
    <polygon class="fil4" points="2955.94,4085.03 2955.94,4193.19 2943.77,4193.19 2943.77,4085.03 "/>
    <polygon class="fil4" points="2848.98,4300.48 4187.5,4300.48 4187.5,4312.64 2848.98,4312.64 "/>
    <polygon class="fil4" points="2882.32,4124.98 2905.18,4124.98 2905.18,4154.61 2882.32,4154.61 "/>
    <polygon class="fil4" points="3008.87,4124.98 3674.58,4124.98 3674.58,4154.61 3008.87,4154.61 "/>
    <polygon class="fil4" points="2907.99,4221.83 3573.7,4221.83 3573.7,4251.46 2907.99,4251.46 "/>
    <polygon class="fil4" points="2907.99,4258.24 4092.9,4258.24 4092.9,4287.87 2907.99,4287.87 "/>
    <polygon class="fil4" points="2907.99,4345.58 3888.44,4345.58 3888.44,4375.21 2907.99,4375.21 "/>
    <polygon class="fil4" points="3815.31,4124.98 4092.23,4124.98 4092.23,4154.61 3815.31,4154.61 "/>
   </g>
   <g>
    <path class="fil6" d="M5570.85 1024.97l-1584.17 0 0 1167.1c0,68.1 55.72,123.8 123.82,123.8l1460.35 0 0 -1290.94 0 0.03z"/>
    <path class="fil7" d="M4196.65 1934.5c-4.77,14.31 -80.79,88.02 -80.79,88.02l-281.78 172.04 0 -1292.41 281.78 -168.66 370.33 937.32 -289.56 263.71 0.02 -0.01z"/>
    <path class="fil8" d="M4115.87 733.46l1226.95 0c54.49,0 99.06,44.59 99.06,99.06l0 1189.97 -1326.01 0 0 -1289.05 0 0.02z"/>
    <path class="fil9" d="M5155.61 1753.7l-163.88 0 -64.88 -171.07 -301.35 0 -62.44 171.07 -160.92 0 291.74 -751.37 160.74 0 301.01 751.37 -0.02 0zm-278.09 -298.03l-104.42 -278.1 -101.45 278.1 205.87 0z"/>
   </g>
  </g>
 </g>
</svg>