<svg width="106" height="106" viewBox="0 0 106 106" fill="none" xmlns="http://www.w3.org/2000/svg">
<path d="M26.6814 27.0384V77.6462C26.6814 78.4775 25.0627 78.8166 24.4393 78.8166H21.6721C20.6549 78.8166 19.3752 78.6087 18.5002 79.2103C17.885 79.6799 17.401 80.2997 17.0945 81.0104C16.7881 81.721 16.6695 82.4984 16.7502 83.2681H13.5674V33.4161C13.6273 31.6676 14.3784 30.0142 15.6559 28.8188C16.9333 27.6233 18.6328 26.9835 20.3814 27.0395L26.6814 27.0384Z" fill="#080F21"/>
<path opacity="0.2" d="M43.0551 88.4859H20.3456C19.6552 88.4959 18.9697 88.3685 18.3289 88.1113C17.6881 87.854 17.1049 87.4719 16.6132 86.9872C16.1214 86.5025 15.7309 85.9249 15.4644 85.2879C15.1978 84.6509 15.0605 83.9674 15.0605 83.2769C15.0605 82.5864 15.1978 81.9028 15.4644 81.2659C15.7309 80.6289 16.1214 80.0513 16.6132 79.5666C17.1049 79.0819 17.6881 78.6998 18.3289 78.4425C18.9697 78.1852 19.6552 78.0579 20.3456 78.0679L26.2781 77.9137V67.4946C26.6643 67.3443 27.0817 67.2917 27.4932 67.3415C35.1035 67.3415 41.4702 76.3868 43.0551 88.4859Z" fill="url(#paint0_linear_822_17201)"/>
<path opacity="0.2" d="M83.3061 40.701V60.8402C79.7231 61.7262 75.9666 61.6207 72.439 60.535C68.9114 59.4494 65.7456 57.4246 63.2807 54.6774C60.8158 51.9302 59.1447 48.5642 58.4465 44.94C57.7482 41.3157 58.0491 37.5698 59.3168 34.1035H76.7075C77.574 34.1034 78.432 34.2739 79.2326 34.6054C80.0331 34.9369 80.7606 35.4229 81.3733 36.0355C81.9861 36.6482 82.4721 37.3755 82.8037 38.176C83.1354 38.9765 83.3061 39.8345 83.3061 40.701Z" fill="url(#paint1_linear_822_17201)"/>
<path d="M81.7195 53.8908V41.1158C81.7405 39.5266 81.1489 37.9903 80.0676 36.8254C78.9863 35.6606 77.4981 34.9567 75.9117 34.8596C74.9055 34.8268 73.8883 34.8596 72.8711 34.8596H26.682V77.6471C26.682 78.4783 25.0633 78.8174 24.4398 78.8174H21.6726C20.6555 78.8174 19.3758 78.6096 18.5008 79.2111C17.8856 79.6807 17.4016 80.3006 17.0951 81.0112C16.7886 81.7218 16.6701 82.4993 16.7508 83.2689C16.7872 83.8721 16.9394 84.4625 17.1992 85.008C17.6033 85.833 18.2328 86.5266 19.0148 87.0086C19.7968 87.4906 20.6994 87.7412 21.618 87.7314C24.3742 87.7643 27.1195 87.7314 29.8648 87.7314H73.1336C75.2117 87.7314 78.143 88.2346 79.7945 86.7252C80.5273 86.0534 81.0641 85.1953 81.3476 84.2424C81.512 83.6999 81.6255 83.1434 81.6867 82.5799C82.2226 82.569 82.7695 82.558 83.3055 82.5361C83.8218 82.5276 84.3313 82.4161 84.8039 82.208C84.7471 82.8245 84.6111 83.431 84.3992 84.0127C84.2282 84.508 83.9928 84.9787 83.6992 85.4127C82.8092 86.6215 81.6429 87.5998 80.2976 88.2657C78.9524 88.9317 77.4673 89.266 75.9664 89.2408C68.3976 89.3721 60.807 89.2408 53.2383 89.2408H23.193C20.0648 89.2408 16.4883 89.6127 14.4758 86.6268C13.7664 85.6218 13.444 84.3944 13.568 83.1705C13.8523 80.5674 16.2039 78.3033 18.9273 77.5924C20.4327 77.2736 21.9747 77.1632 23.5101 77.2643V34.5314C23.5101 33.6893 25.1398 33.3502 25.7523 33.3502H75.868C76.6117 33.3502 77.3555 33.3283 78.0992 33.3721C79.8748 33.4604 81.5536 34.2076 82.8076 35.4677C84.0616 36.7278 84.8007 38.4102 84.8805 40.1861C84.8894 40.2106 84.8932 40.2367 84.8914 40.2627V50.6971C83.8305 51.758 82.7805 52.8299 81.7195 53.8908Z" fill="#080F21"/>
<path d="M55.7104 72.3344L54.8889 68.2876L54.6964 67.3284L54.3683 65.7151L54.1736 64.7559L53.8346 63.0868C53.7745 62.7925 53.6369 62.5196 53.4359 62.2963C53.235 62.0731 52.978 61.9076 52.6916 61.8169L52.5363 61.0513C52.7688 60.8645 52.9454 60.6173 53.0467 60.3368C53.1479 60.0563 53.17 59.7533 53.1105 59.461L51.3364 50.711L49.6477 42.3876L47.4044 31.3407C46.9741 31.1391 46.5978 30.8402 46.3029 30.4676C46.0081 30.0949 45.8041 29.6588 45.7069 29.1937C46.7352 28.8846 47.6368 28.2529 48.2785 27.392C48.9202 26.5311 49.2679 25.4866 49.2704 24.4129V24.1055C49.2704 23.9495 49.2084 23.7998 49.098 23.6895C48.9877 23.5791 48.838 23.5171 48.6819 23.5171H46.0722C46.3137 23.2873 46.5061 23.011 46.6377 22.7047C46.7693 22.3985 46.8374 22.0687 46.8379 21.7354V19.2307C46.8448 18.9009 46.7858 18.5731 46.6644 18.2664C46.543 17.9597 46.3616 17.6803 46.1308 17.4446C45.9 17.2089 45.6245 17.0217 45.3204 16.8939C45.0164 16.766 44.6898 16.7002 44.36 16.7002C44.0301 16.7002 43.7036 16.766 43.3995 16.8939C43.0954 17.0217 42.8199 17.2089 42.5891 17.4446C42.3584 17.6803 42.1769 17.9597 42.0555 18.2664C41.9341 18.5731 41.8751 18.9009 41.8821 19.2307V21.7354C41.8826 22.0687 41.9506 22.3985 42.0822 22.7047C42.2138 23.011 42.4062 23.2873 42.6477 23.5171H39.8171C39.661 23.5171 39.5113 23.5791 39.401 23.6895C39.2906 23.7998 39.2286 23.9495 39.2286 24.1055V24.4129C39.2299 25.4803 39.5734 26.5191 40.2086 27.3768C40.8439 28.2346 41.7375 28.866 42.7582 29.1784C42.663 29.6465 42.4596 30.0858 42.1642 30.4612C41.8689 30.8367 41.4899 31.1379 41.0574 31.3407L38.8141 42.3876L37.1254 50.711L35.3502 59.461C35.2926 59.7533 35.3158 60.0558 35.4172 60.336C35.5185 60.6162 35.6942 60.8635 35.9255 61.0513L35.7702 61.8169C35.4835 61.907 35.2263 62.0724 35.0252 62.2957C34.8242 62.5191 34.6868 62.7923 34.6272 63.0868L34.2882 64.7559L34.0924 65.7151L33.7643 67.3262L33.5685 68.2854L32.7471 72.3323C32.9179 72.3663 33.0802 72.4341 33.2246 72.5315C33.369 72.629 33.4925 72.7542 33.588 72.8999C33.6835 73.0455 33.749 73.2088 33.7808 73.38C33.8125 73.5513 33.8099 73.7272 33.773 73.8974L33.7413 74.0505H33.75L33.5947 74.8873C33.5879 74.9214 33.5893 74.9566 33.5988 74.9901C33.6083 75.0236 33.6256 75.0543 33.6494 75.0798C33.6783 75.1119 33.7166 75.1341 33.7588 75.1432H33.773C33.8014 75.1505 33.831 75.152 33.8599 75.1477C33.8889 75.1433 33.9167 75.1332 33.9417 75.1179C33.9667 75.1026 33.9884 75.0824 34.0054 75.0586C34.0225 75.0348 34.0346 75.0077 34.041 74.9791L34.2072 74.0877C34.6033 74.0661 34.9816 73.9164 35.2852 73.6612C35.5888 73.4059 35.8012 73.0589 35.8905 72.6724L37.9314 63.7627C37.9914 63.4681 37.9713 63.1628 37.8734 62.8786C37.7755 62.5943 37.6033 62.3414 37.3747 62.1462L37.5322 61.3674C37.8137 61.2829 38.0669 61.1235 38.2648 60.9062C38.4627 60.6888 38.5977 60.4218 38.6555 60.1337L40.4307 51.3837L42.1194 43.0613L44.2325 32.639L46.3468 43.0613L48.0322 51.3837L49.8074 60.1337C49.8655 60.422 50.0009 60.6892 50.1991 60.9065C50.3974 61.1238 50.651 61.2831 50.9329 61.3674L51.0904 62.1462C50.8614 62.3411 50.6889 62.594 50.591 62.8783C50.493 63.1627 50.4732 63.4681 50.5336 63.7627L52.5757 72.6724C52.664 73.0588 52.8757 73.4059 53.1788 73.6613C53.4819 73.9166 53.8599 74.0663 54.2557 74.0877L54.4941 74.9791C54.506 75.0351 54.5393 75.0842 54.5869 75.1159C54.6346 75.1476 54.6927 75.1593 54.7489 75.1487H54.7632C54.8194 75.1368 54.8686 75.1033 54.9004 75.0554C54.9321 75.0075 54.9437 74.9491 54.9327 74.8927L54.7139 74.0582H54.726L54.691 73.9051C54.6681 73.8025 54.6596 73.6972 54.6658 73.5923C54.672 73.2953 54.7786 73.0093 54.9683 72.7809C55.158 72.5524 55.4196 72.395 55.7104 72.3344Z" fill="#3063BA"/>
<path d="M34.2788 68.4306C35.293 68.4306 36.1152 67.6084 36.1152 66.5942C36.1152 65.58 35.293 64.7578 34.2788 64.7578C33.2646 64.7578 32.4424 65.58 32.4424 66.5942C32.4424 67.6084 33.2646 68.4306 34.2788 68.4306Z" fill="white"/>
<path d="M34.2789 68.7053C34.1382 68.7054 33.9979 68.6915 33.86 68.6637C33.3118 68.5517 32.8304 68.2268 32.5214 67.7604C32.2124 67.2939 32.101 66.7239 32.2117 66.1755C32.3245 65.6279 32.6494 65.1471 33.1153 64.8381C33.5813 64.5291 34.1505 64.417 34.6989 64.5261C35.2112 64.6307 35.6665 64.9217 35.9766 65.3428C36.2866 65.7639 36.4293 66.2851 36.377 66.8055C36.3247 67.3258 36.0812 67.8081 35.6935 68.1591C35.3059 68.5101 34.8018 68.7048 34.2789 68.7053ZM34.2789 65.0314C33.9184 65.0322 33.5692 65.1573 33.2902 65.3857C33.0113 65.614 32.8196 65.9316 32.7476 66.2848C32.6863 66.5878 32.7162 66.9021 32.8335 67.188C32.9508 67.474 33.1503 67.7188 33.4067 67.8914C33.6631 68.064 33.9649 68.1567 34.274 68.1578C34.583 68.1589 34.8855 68.0683 35.1431 67.8976C35.4007 67.7268 35.6019 67.4834 35.7213 67.1983C35.8406 66.9132 35.8728 66.5991 35.8136 66.2958C35.7545 65.9924 35.6067 65.7134 35.389 65.494C35.1713 65.2746 34.8935 65.1246 34.5906 65.0631C34.4884 65.0418 34.3832 65.0312 34.2789 65.0314Z" fill="#3063BA"/>
<path d="M34.2798 67.4932C34.7757 67.4932 35.1778 67.0912 35.1778 66.5952C35.1778 66.0993 34.7757 65.6973 34.2798 65.6973C33.7839 65.6973 33.3818 66.0993 33.3818 66.5952C33.3818 67.0912 33.7839 67.4932 34.2798 67.4932Z" fill="#080F21"/>
<path d="M54.1831 68.4306C55.1973 68.4306 56.0195 67.6084 56.0195 66.5942C56.0195 65.58 55.1973 64.7578 54.1831 64.7578C53.1689 64.7578 52.3467 65.58 52.3467 66.5942C52.3467 67.6084 53.1689 68.4306 54.1831 68.4306Z" fill="white"/>
<path d="M54.1851 68.7053C53.7854 68.7058 53.3938 68.5929 53.0558 68.3796C52.7177 68.1663 52.4472 67.8614 52.2757 67.5005C52.1041 67.1395 52.0385 66.7372 52.0866 66.3404C52.1347 65.9436 52.2944 65.5686 52.5473 65.2591C52.8001 64.9495 53.1356 64.7181 53.5148 64.5917C53.8939 64.4653 54.3012 64.4492 54.6892 64.5452C55.0772 64.6412 55.4299 64.8453 55.7065 65.1339C55.983 65.4225 56.1719 65.7837 56.2512 66.1754C56.3625 66.7238 56.2515 67.2939 55.9426 67.7605C55.6338 68.2271 55.1523 68.552 54.604 68.6637C54.466 68.6909 54.3257 68.7048 54.1851 68.7053ZM54.1851 65.0314C54.0807 65.0312 53.9766 65.0418 53.8745 65.0631C53.5716 65.1246 53.2937 65.2745 53.076 65.4939C52.8583 65.7134 52.7106 65.9924 52.6514 66.2957C52.5923 66.5991 52.6244 66.9132 52.7438 67.1983C52.8631 67.4834 53.0643 67.7267 53.3219 67.8975C53.5795 68.0683 53.882 68.1589 54.1911 68.1578C54.5002 68.1567 54.802 68.0639 55.0584 67.8913C55.3148 67.7187 55.5142 67.474 55.6315 67.188C55.7488 66.9021 55.7787 66.5877 55.7174 66.2848C55.6453 65.931 55.4532 65.613 55.1736 65.3846C54.8939 65.1562 54.544 65.0314 54.1829 65.0314H54.1851Z" fill="#3063BA"/>
<path d="M54.1831 67.4932C54.6791 67.4932 55.0811 67.0912 55.0811 66.5952C55.0811 66.0993 54.6791 65.6973 54.1831 65.6973C53.6872 65.6973 53.2852 66.0993 53.2852 66.5952C53.2852 67.0912 53.6872 67.4932 54.1831 67.4932Z" fill="#080F21"/>
<path d="M44.248 27.6787C44.9125 27.6787 45.4512 27.1401 45.4512 26.4756C45.4512 25.8111 44.9125 25.2725 44.248 25.2725C43.5836 25.2725 43.0449 25.8111 43.0449 26.4756C43.0449 27.1401 43.5836 27.6787 44.248 27.6787Z" fill="#080F21"/>
<path fill-rule="evenodd" clip-rule="evenodd" d="M78.0683 25.616C77.7144 25.645 77.3864 25.8131 77.1561 26.0835C76.9259 26.3539 76.8122 26.7046 76.8401 27.0586L77.0894 30.306C77.1034 30.4814 77.1519 30.6524 77.2319 30.8091C77.312 30.9658 77.4222 31.1053 77.5562 31.2194C77.6901 31.3336 77.8453 31.4202 78.0127 31.4744C78.1802 31.5286 78.3566 31.5493 78.5321 31.5353C78.7075 31.5213 78.8785 31.4729 79.0352 31.3928C79.192 31.3127 79.3314 31.2026 79.4456 31.0686C79.5597 30.9347 79.6464 30.7795 79.7006 30.6121C79.7548 30.4446 79.7755 30.2681 79.7615 30.0927L79.5121 26.8453C79.4814 26.4918 79.3127 26.1645 79.0425 25.9344C78.7723 25.7043 78.4223 25.5899 78.0683 25.616Z" fill="#3063BA"/>
<path fill-rule="evenodd" clip-rule="evenodd" d="M91.0114 36.6791L87.7629 36.9295C87.4086 36.9578 87.08 37.1257 86.8495 37.3962C86.6189 37.6668 86.5053 38.0179 86.5335 38.3722C86.5618 38.7265 86.7297 39.0551 87.0003 39.2857C87.2708 39.5162 87.6219 39.6298 87.9762 39.6016L91.2246 39.3511C91.579 39.3228 91.9076 39.1549 92.1381 38.8844C92.3687 38.6138 92.4823 38.2628 92.454 37.9084C92.4257 37.5541 92.2579 37.2255 91.9873 36.995C91.7168 36.7644 91.3657 36.6508 91.0114 36.6791Z" fill="#3063BA"/>
<path fill-rule="evenodd" clip-rule="evenodd" d="M84.9265 33.6024C85.1017 33.5895 85.2724 33.5413 85.4284 33.4606C85.5844 33.38 85.7225 33.2686 85.8343 33.1332L87.9518 30.6548C88.1722 30.3844 88.278 30.0385 88.2467 29.6911C88.2154 29.3437 88.0494 29.0224 87.7842 28.7958C87.5191 28.5692 87.1757 28.4553 86.8277 28.4786C86.4797 28.5018 86.1546 28.6603 85.9218 28.9201L83.8065 31.3985C83.6917 31.5314 83.6044 31.6857 83.5496 31.8526C83.4949 32.0194 83.4737 32.1955 83.4875 32.3705C83.5012 32.5456 83.5495 32.7162 83.6296 32.8724C83.7097 33.0287 83.8201 33.1675 83.9542 33.2809C84.0862 33.3972 84.2404 33.4857 84.4075 33.5409C84.5746 33.5962 84.7511 33.6171 84.9265 33.6024Z" fill="#3063BA"/>
<path opacity="0.2" d="M87.182 47.8809V82.1207C86.3568 82.6568 85.3935 82.9415 84.4094 82.9399H79.9786L79.8867 74.3824C80.479 73.9249 80.9586 73.3379 81.2889 72.6663C81.6062 72.0946 81.7764 71.4531 81.7844 70.7993C81.7898 70.7041 81.792 70.6101 81.792 70.5116V63.6713C81.7918 63.6258 81.7781 63.5813 81.7525 63.5436C81.727 63.5059 81.6909 63.4767 81.6487 63.4595C81.6065 63.4424 81.5601 63.4382 81.5155 63.4475C81.471 63.4568 81.4301 63.4791 81.3983 63.5116L81.1161 63.796L81.0898 54.0113L87.182 47.8809Z" fill="url(#paint2_linear_822_17201)"/>
<path opacity="0.2" d="M77.9112 56.6768V66.4877L75.3857 69.0317V59.2154L77.9112 56.6768Z" fill="url(#paint3_linear_822_17201)"/>
<path opacity="0.2" d="M77.629 75.1523V83.2308H75.1035V75.7014H75.3846C76.1661 75.7021 76.9361 75.5137 77.629 75.1523Z" fill="url(#paint4_linear_822_17201)"/>
<path d="M79.3664 71.0408C79.4018 71.8986 79.1529 72.7441 78.6585 73.446C78.164 74.1479 77.4517 74.6669 76.6321 74.9225C75.8777 75.0347 75.1133 75.0633 74.3527 75.0078H69.0283L69.6058 75.0669L69.6463 75.0767L69.9132 75.4234C70.0018 75.6422 69.5752 75.8927 69.8672 75.6323C69.9952 75.5175 70.1122 75.3851 70.2336 75.2626L71.4805 74.007L74.7377 70.7258L78.8447 66.5903L80.0052 65.4222C80.1605 65.2658 80.3169 65.1094 80.4722 64.9519L80.8507 64.5712C80.901 64.5209 80.9502 64.4684 81.0016 64.4181C81.0935 64.3306 81.2827 64.2409 81.0486 64.3853L80.1539 64.7134L80.2579 64.7069L79.6804 64.6489L79.7766 64.6883L79.3796 64.428C79.303 64.3438 79.3796 64.0998 79.3664 64.2836C79.3664 64.3569 79.3664 64.4312 79.3664 64.5023V71.0408C79.3664 72.2384 81.7727 71.8513 81.7727 70.8373V64.9158C81.8215 64.5016 81.8083 64.0824 81.7333 63.6722C81.4402 62.8387 80.2316 62.9667 79.6268 63.2959C79.261 63.5367 78.9317 63.8288 78.6489 64.1633L77.3846 65.4364L74.8296 68.0089L69.6616 73.2119L68.2638 74.6195C67.9839 74.8444 67.7468 75.1178 67.5638 75.4267C67.1263 76.4614 68.3666 76.6681 69.1038 76.6681H71.02C72.5229 76.6681 74.0279 76.6911 75.5296 76.6681C77.1175 76.6755 78.6482 76.076 79.8087 74.9921C80.9692 73.9083 81.6718 72.422 81.7727 70.8373C81.7836 69.6408 79.3796 70.0236 79.3664 71.0408Z" fill="#080F21"/>
<path d="M89.494 50.632C89.5651 49.4116 89.5651 48.1882 89.494 46.9679C89.3409 45.732 88.1159 45.5242 87.1206 46.0163C87.0878 46.0163 87.0659 46.0382 87.0331 46.0492C86.8887 46.1242 86.756 46.22 86.6393 46.3335C86.6113 46.348 86.5855 46.3664 86.5628 46.3882C86.005 46.946 85.4472 47.5148 84.8893 48.0726C83.8284 49.1335 82.7675 50.2054 81.7175 51.2663L69.4478 63.6049C63.9025 69.1831 58.3535 74.7648 52.8009 80.3503C52.1884 80.9737 51.4556 81.5752 50.9087 82.2534C50.0447 83.3362 50.9087 84.1455 52.0572 84.2002C53.1728 84.2549 54.2993 84.2002 55.415 84.2002H71.7337C74.9275 84.2002 78.1431 84.2877 81.3478 84.244C81.9056 84.2331 82.4634 84.2221 83.0212 84.2002C83.486 84.1882 83.948 84.1259 84.3993 84.0143C85.7858 83.7472 87.0421 83.0218 87.9666 81.9545C88.891 80.8873 89.4297 79.5403 89.4962 78.1299C89.529 76.9706 89.4962 75.8002 89.4962 74.6299L89.494 50.632ZM84.8018 82.2085C84.3292 82.4166 83.8197 82.5282 83.3034 82.5366C82.7675 82.5585 82.2206 82.5695 81.6847 82.5804C79.005 82.6242 76.3143 82.5366 73.6456 82.5366H53.4112C53.8597 82.0991 54.3737 81.3882 54.6034 81.1585C60.0503 75.6898 65.4935 70.2174 70.9331 64.7414L81.7175 53.8913C82.7784 52.8304 83.8284 51.7585 84.8893 50.6976C85.5565 50.0304 86.2237 49.3523 86.8909 48.6851L87.0878 48.4882V72.6382C87.0878 75.5366 87.8993 80.8523 84.804 82.2085H84.8018Z" fill="#080F21"/>
<defs>
<linearGradient id="paint0_linear_822_17201" x1="15.1338" y1="77.9115" x2="43.0551" y2="77.9115" gradientUnits="userSpaceOnUse">
<stop offset="0.005" stop-color="#3063BA"/>
<stop offset="1" stop-color="#A3BFF6"/>
</linearGradient>
<linearGradient id="paint1_linear_822_17201" x1="58.0787" y1="47.771" x2="83.3061" y2="47.771" gradientUnits="userSpaceOnUse">
<stop offset="0.005" stop-color="#3063BA"/>
<stop offset="1" stop-color="#A3BFF6"/>
</linearGradient>
<linearGradient id="paint2_linear_822_17201" x1="79.8834" y1="65.4104" x2="87.182" y2="65.4104" gradientUnits="userSpaceOnUse">
<stop offset="0.005" stop-color="#3063BA"/>
<stop offset="1" stop-color="#A3BFF6"/>
</linearGradient>
<linearGradient id="paint3_linear_822_17201" x1="75.3857" y1="62.8543" x2="77.9112" y2="62.8543" gradientUnits="userSpaceOnUse">
<stop offset="0.005" stop-color="#3063BA"/>
<stop offset="1" stop-color="#A3BFF6"/>
</linearGradient>
<linearGradient id="paint4_linear_822_17201" x1="75.1035" y1="79.1916" x2="77.629" y2="79.1916" gradientUnits="userSpaceOnUse">
<stop offset="0.005" stop-color="#3063BA"/>
<stop offset="1" stop-color="#A3BFF6"/>
</linearGradient>
</defs>
</svg>
