<?xml version="1.0" encoding="UTF-8"?>
<!DOCTYPE svg PUBLIC "-//W3C//DTD SVG 1.1//EN" "http://www.w3.org/Graphics/SVG/1.1/DTD/svg11.dtd">
<!-- Creator: CorelDRAW 2020 (64-Bit) -->
<svg xmlns="http://www.w3.org/2000/svg" xml:space="preserve" width="94.1916mm" height="52.9166mm" version="1.1" style="shape-rendering:geometricPrecision; text-rendering:geometricPrecision; image-rendering:optimizeQuality; fill-rule:evenodd; clip-rule:evenodd" viewBox="0 0 9404.92 5283.66" xmlns:xlink="http://www.w3.org/1999/xlink" xmlns:xodm="http://www.corel.com/coreldraw/odm/2003">
 <defs>
  <style type="text/css">
   <![CDATA[
    .fil4 {fill:#FEFEFE}
    .fil5 {fill:#742F81}
    .fil0 {fill:#E6E7E8}
    .fil3 {fill:#FF8400}
    .fil2 {fill:#373435;fill-opacity:0.031373}
    .fil1 {fill:#2B2A29;fill-opacity:0.101961}
   ]]>
  </style>
 </defs>
 <g id="Layer_x0020_1">
  <metadata id="CorelCorpID_0Corel-Layer"/>
  <polygon class="fil0" points="-0,0 9404.92,0 9404.92,5283.66 -0,5283.66 "/>
  <polygon class="fil1" points="-0,3683.38 -0,3681.54 -0,3662.57 -0,3654.48 -0,3642.93 -0,3637.2 -0,3635.75 -0,3634.66 -0,3610.36 -0,3604.63 -0,3604.26 -0,3597.63 -0,3589.27 -0,3582.34 -0,3557.67 -0,3554.4 -0,3530.5 -0,3528.04 -0,3517.35 -0,3500.46 -0,3479.18 -0,3468.02 -0,3452.47 -0,3421.81 -0,3363.06 -0,3353.39 -0,3317.49 -0,3290.87 -0,3288.86 -0,3286.47 -0,3259.74 -0,3255.53 -0,3234.23 -0,3212.13 -0,3209.59 -0,3173.2 -0,3168.75 -0,3168.07 -0,3102.44 -0,3102.24 -0,3089.78 -0,3087.25 -0,3084.52 -0,3075.95 3621.59,1384.8 3629.18,1381.28 3636.77,1378.11 3644.39,1375.29 3652.03,1372.81 3659.68,1370.68 3667.36,1368.91 3675.05,1367.48 3682.75,1366.39 3690.48,1365.66 3696.5,1365.78 4401.05,1037.19 4408.64,1033.86 4416.51,1030.88 4424.68,1028.22 4433.14,1025.9 4441.88,1023.9 4450.9,1022.24 4460.22,1020.9 4469.81,1019.91 4480.57,1018.39 4491.05,1017.19 4501.27,1016.3 4511.21,1015.72 4520.89,1015.46 4530.3,1015.51 4539.44,1015.88 4548.31,1016.56 4556.92,1017.55 4565.26,1018.86 4573.33,1020.48 4581.12,1022.41 4588.65,1024.66 4595.91,1027.22 4602.91,1030.1 4609.63,1033.29 4623.63,1041.16 4636.99,1050.29 4649.71,1060.68 4652.25,1063.13 5253.29,785.82 5261.07,782.48 5268.79,779.58 5276.46,777.11 5284.09,775.08 5291.65,773.49 5299.17,772.33 5306.63,771.6 5314.02,771.31 5321.38,771.46 5328.67,772.04 5335.92,773.06 5343.11,774.52 5352.71,777.83 5363.16,782.19 5374.48,787.59 5386.65,794.04 5399.7,801.54 5413.58,810.07 5428.34,819.66 5443.96,830.28 5448.26,834.09 5453.16,838.23 5458.66,842.73 5464.74,847.58 5471.41,852.77 5478.67,858.31 5486.51,864.2 5494.96,870.44 5503.99,877.02 5513.61,883.96 5523.84,891.25 5534.64,898.88 5546.03,906.86 5549.49,909.25 6078.88,669.68 6086.7,667.34 6094.67,665.35 6102.81,663.72 6111.11,662.43 6119.58,661.48 6128.19,660.89 6136.98,660.65 6145.93,660.75 6155.03,661.2 6164.3,662.01 6173.72,663.16 6183.32,664.65 6193.06,666.5 6202.98,668.7 6213.05,671.24 6223.29,674.14 6233.4,677.32 6243.13,680.76 6252.45,684.43 6261.39,688.36 6269.94,692.52 6278.09,696.93 6285.83,701.59 6293.19,706.48 6300.16,711.62 6306.73,717 6312.91,722.64 6318.69,728.51 6324.09,734.63 6329.08,740.99 6333.68,747.59 6337.88,754.44 6341.48,760.7 6344.79,767.2 6347.85,773.94 6350.64,780.93 6353.15,788.16 6355.4,795.64 6357.39,803.35 6359.09,811.32 6360.53,819.53 6361.71,827.99 6362.62,836.68 6363.25,845.62 6363.62,854.81 6363.72,864.23 6363.55,873.91 6363.11,883.82 6362.86,887.25 6362.68,891.39 6362.57,896.24 6362.54,901.81 6362.57,908.1 6362.68,915.09 6362.86,922.8 6363.11,931.23 6363.43,940.37 6363.83,950.22 6364.28,960.8 6364.82,972.08 6365.43,984.08 6366.11,996.79 6366.87,1010.22 6367.69,1024.36 6370.22,1050.02 6374.35,1074.03 6380.1,1096.38 6387.46,1117.08 6396.43,1136.12 6407.01,1153.5 6419.21,1169.23 6433.01,1183.31 6448.43,1195.72 6465.46,1206.48 6484.1,1215.59 6504.35,1223.04 6526.22,1228.84 6549.69,1232.97 6574.79,1235.46 6601.49,1236.29 6617.68,1236.28 6633.04,1236.25 6647.55,1236.21 6661.23,1236.15 6674.06,1236.07 6686.04,1235.97 6697.19,1235.86 6707.5,1235.73 6716.96,1235.58 6725.58,1235.41 6733.36,1235.23 6740.3,1235.03 6746.4,1234.81 6751.65,1234.57 6756.06,1234.32 6759.64,1234.05 6769.83,1232.82 6779.77,1231.92 6789.45,1231.36 6798.9,1231.13 6808.08,1231.22 6817.02,1231.65 6825.7,1232.4 6834.13,1233.49 6842.32,1234.92 6850.25,1236.67 6857.94,1238.75 6865.37,1241.16 6872.55,1243.91 6879.47,1246.98 6886.15,1250.4 6892.59,1254.13 6899.1,1258.23 6905.45,1262.71 6911.63,1267.57 6917.66,1272.81 6923.52,1278.44 6929.22,1284.46 6934.76,1290.86 6940.14,1297.63 6945.37,1304.79 6950.43,1312.34 6955.32,1320.27 6960.06,1328.58 6964.64,1337.28 6969.05,1346.35 6973.3,1355.82 6977.4,1365.66 6980.9,1374.8 6983.99,1383.8 6986.63,1392.64 6988.86,1401.36 6990.65,1409.94 6992,1418.37 6992.93,1426.67 6993.44,1434.82 6993.51,1442.84 6993.15,1450.71 6992.36,1458.45 6991.15,1466.05 6989.5,1473.51 6987.42,1480.83 6984.92,1488.01 6981.98,1495.05 6977.68,1505.78 6971.67,1516.79 6963.93,1528.09 6954.47,1539.66 6943.3,1551.51 6930.41,1563.64 6915.8,1576.05 6899.46,1588.74 6891.38,1594.71 6883.17,1600.88 6874.83,1607.25 6866.37,1613.84 6857.79,1620.64 6849.07,1627.64 6840.23,1634.85 6831.28,1642.27 6822.18,1649.91 6812.98,1657.75 6803.63,1665.81 6794.16,1674.07 6784.58,1682.54 6774.86,1691.22 6765.02,1700.11 6755.05,1709.2 6740.76,1725.67 6728.26,1742.17 6717.56,1758.72 6708.64,1775.29 6701.51,1791.9 6696.17,1808.54 6692.63,1825.22 6690.88,1841.93 6690.91,1858.68 6692.74,1875.46 6696.35,1892.28 6701.76,1909.13 6708.96,1926.01 6717.95,1942.94 6728.73,1959.89 6741.3,1976.89 6749.13,1988.02 6757.13,1999.09 6765.32,2010.12 6773.68,2021.09 6782.22,2032 6790.94,2042.87 6799.85,2053.68 6808.92,2064.44 6818.18,2075.16 6827.61,2085.81 6837.23,2096.42 6847.02,2106.97 6857,2117.47 6867.15,2127.92 6877.49,2138.31 6888,2148.66 6897.75,2160.06 6906.33,2171.42 6913.78,2182.73 6920.09,2193.97 6925.25,2205.17 6929.26,2216.31 6932.13,2227.41 6933.84,2238.45 6934.41,2249.43 6933.84,2260.37 6932.13,2271.25 6929.26,2282.09 6925.25,2292.87 6920.08,2303.59 6913.78,2314.27 6906.33,2324.89 6895.81,2342.56 6886,2358.77 6876.9,2373.52 6868.52,2386.79 6860.85,2398.61 6853.9,2408.95 6847.67,2417.85 6842.16,2425.27 6836.61,2430.62 6830.84,2435.51 6824.86,2439.96 6818.67,2443.95 6812.26,2447.49 6805.63,2450.58 6798.79,2453.21 6469.38,2579.67 6471.84,2581.98 6480.07,2590.73 6487.99,2600.24 6495.61,2610.53 6502.92,2621.58 6508.07,2630.03 6512.63,2638.66 6516.59,2647.46 6519.97,2656.44 6522.75,2665.58 6524.95,2674.91 6526.55,2684.41 6527.56,2694.08 6527.99,2703.93 6527.82,2713.94 6527.05,2724.14 6525.7,2734.51 6523.76,2745.05 6521.23,2755.77 6518.1,2766.66 6514.39,2777.72 6510.77,2788.69 6506.79,2799.26 6502.46,2809.47 6497.76,2819.27 6492.72,2828.7 6487.31,2837.74 6481.54,2846.41 6475.42,2854.69 6468.94,2862.59 6462.1,2870.09 6454.9,2877.22 6447.34,2883.96 6439.42,2890.32 6431.15,2896.31 6422.52,2901.9 6413.53,2907.11 6398.59,2913.17 6384.16,2919.1 6370.23,2924.88 6356.8,2930.53 6343.88,2936.05 6331.44,2941.41 6319.51,2946.64 6308.09,2951.73 6297.17,2956.67 6286.74,2961.49 6276.83,2966.16 6267.4,2970.69 6258.49,2975.08 6250.07,2979.33 6242.15,2983.44 6234.74,2987.42 6222.38,2994.26 6210.53,3001.4 6199.17,3008.82 6188.32,3016.55 6177.98,3024.58 6168.12,3032.91 6158.78,3041.53 6149.93,3050.44 6141.59,3059.65 6133.74,3069.15 6126.41,3078.96 6119.57,3089.05 6113.22,3099.45 6107.38,3110.14 6102.05,3121.13 6097.22,3132.42 6094.34,3139.15 6090.88,3144.83 6086.82,3149.46 6084.97,3150.9 6378.86,3042.21 6390.82,3039.04 6403.22,3037.05 6416.04,3036.25 6429.3,3036.63 6442.98,3038.2 6457.08,3040.96 6470.97,3045.84 6484.01,3051.55 6496.19,3058.11 6507.51,3065.5 6517.96,3073.73 6527.56,3082.78 6536.3,3092.69 6544.18,3103.42 6548.52,3112.76 6552.35,3122.94 6555.68,3133.96 6558.51,3145.81 6560.84,3158.49 6562.66,3172.02 6563.99,3186.38 6564.81,3201.57 6566.33,3220.33 6568.04,3238.14 6569.91,3254.98 6571.97,3270.87 6574.21,3285.8 6576.62,3299.76 6579.22,3312.77 6582,3324.83 6584.95,3335.91 6588.09,3346.04 6591.4,3355.22 6594.9,3363.44 6598.56,3370.7 6602.41,3377 6606.44,3382.34 6610.65,3386.72 6616.27,3391.03 6622.83,3395.02 6630.31,3398.69 6638.73,3402.06 6648.09,3405.1 6658.36,3407.85 6669.57,3410.27 6681.71,3412.37 6694.78,3414.17 6708.78,3415.66 6723.72,3416.83 6739.59,3417.68 6756.38,3418.22 6774.1,3418.44 6792.77,3418.35 6812.36,3417.96 6826.4,3417.53 6839.86,3417.92 6852.76,3419.13 6865.08,3421.16 6876.83,3424.01 6888,3427.68 6898.6,3432.16 6908.63,3437.48 6918.09,3443.6 6926.96,3450.55 6935.27,3458.3 6943.01,3466.89 6950.17,3476.3 6956.76,3486.51 6962.78,3497.55 6968.22,3509.42 6971.77,3519.94 6974.38,3530.34 6976.07,3540.58 6976.82,3550.68 6976.64,3560.66 6975.53,3570.48 6973.49,3580.18 6970.52,3589.73 6967.72,3596.14 6963.93,3603.11 6959.12,3610.63 6953.32,3618.72 6946.52,3627.37 6938.72,3636.56 6929.91,3646.33 6920.09,3656.64 6903.99,3671.14 6888.9,3685.09 6874.83,3698.47 6861.78,3711.3 6849.76,3723.56 6838.76,3735.28 6828.77,3746.43 6819.82,3757.03 6811.87,3767.07 6804.95,3776.54 6799.05,3785.47 6794.16,3793.84 6790.31,3801.64 6787.47,3808.89 6785.66,3815.58 6784.86,3821.71 6784.74,3827.15 6785.54,3833.39 6787.24,3840.46 6789.87,3848.34 6793.41,3857.05 6797.86,3866.58 6803.22,3876.92 6809.49,3888.08 6816.68,3900.07 6824.79,3912.87 6833.8,3926.49 6843.73,3940.92 6854.57,3956.18 6866.33,3972.26 6879.01,3989.16 6892.59,4006.87 6900.28,4017.71 6907.34,4027.92 6913.75,4037.51 6919.51,4046.46 6924.64,4054.79 6929.11,4062.5 6932.94,4069.57 6936.13,4076.02 6937.85,4085.56 6938.43,4095.26 6937.86,4105.09 6936.13,4115.06 6933.26,4125.16 6929.26,4135.41 6924.1,4145.8 6917.8,4156.33 6907.98,4168.98 6899.18,4180.17 6891.37,4189.9 6884.56,4198.15 6878.76,4204.95 6873.96,4210.29 6870.17,4214.15 6867.37,4216.56 6859.21,4222.21 6850.76,4226.88 6842.01,4230.58 6473.27,4350.64 6470.83,4363.79 6468.62,4380.21 6466.54,4394.89 6464.6,4407.82 6462.82,4419 6461.17,4428.45 6459.66,4436.15 6458.3,4442.11 6457.08,4446.33 6452.28,4457.62 6447.05,4468.08 6441.4,4477.7 6435.31,4486.49 6428.79,4494.43 6421.84,4501.53 6414.46,4507.82 6406.65,4513.25 6390.23,4521.63 6374.2,4528.37 6358.57,4533.48 4020.2,5283.66 4006.4,5283.66 3861.84,5283.66 3642.3,5283.66 3631.21,5283.66 3607.89,5283.66 3592.08,5283.66 3575.48,5283.66 3472.65,5283.66 3426.31,5283.66 3317.64,5283.66 3272.53,5283.66 3077.24,5283.66 3063.62,5283.66 3058.72,5283.66 3050.79,5283.66 3037.18,5283.66 2862.75,5283.66 2612.43,5283.66 2600.05,5283.66 2595.67,5283.66 2517.78,5283.66 2493.24,5283.66 2479.11,5283.66 2436.97,5283.66 2401.81,5283.66 2393.81,5283.66 2375.62,5283.66 2265.88,5283.66 2201.68,5283.66 2182.09,5283.66 2143.34,5283.66 2111.63,5283.66 2077.1,5283.66 2060.58,5283.66 2058.89,5283.66 1999.86,5283.66 1946.2,5283.66 1864.35,5283.66 1853.36,5283.66 1802.74,5283.66 1802.71,5283.66 1798.26,5283.66 1744.44,5283.66 1744.43,5283.66 1725.17,5283.66 1725.15,5283.66 1722.12,5283.66 1719.34,5283.66 1719.31,5283.66 1683.32,5283.66 1683.3,5283.66 1666.45,5283.66 1652.34,5283.66 1642.04,5283.66 1582.77,5283.66 1573.2,5283.66 1568.64,5283.66 1566.4,5283.66 1563.7,5283.66 1560.45,5283.66 1559.68,5283.66 1557.31,5283.66 1549.84,5283.66 1540.55,5283.66 1533.41,5283.66 1527.49,5283.66 1524.56,5283.66 1517.54,5283.66 1515.44,5283.66 1492.16,5283.66 1492.15,5283.66 1490.35,5283.66 1479.94,5283.66 1479.15,5283.66 1426.94,5283.66 1416.71,5283.66 1407.73,5283.66 1406.03,5283.66 1367.75,5283.66 1359.01,5283.66 1358.01,5283.66 1352.31,5283.66 1347.27,5283.66 1340.69,5283.66 1337.74,5283.66 1337.72,5283.66 1337.71,5283.66 1334.67,5283.66 1317.91,5283.66 1316.53,5283.66 1314.18,5283.66 1312.35,5283.66 1305.5,5283.66 1300.76,5283.66 1300.43,5283.66 1288.51,5283.66 1287.74,5283.66 1277.89,5283.66 1272.67,5283.66 1261.71,5283.66 1247.09,5283.66 1236.42,5283.66 1233.75,5283.66 1232.69,5283.66 1199.92,5283.66 1193.88,5283.66 1182.85,5283.66 1176.21,5283.66 1167.17,5283.66 1151.5,5283.66 1145.16,5283.66 1145.15,5283.66 1126.49,5283.66 1118.59,5283.66 1114.96,5283.66 1090.94,5283.66 1071.6,5283.66 1071.32,5283.66 1062.57,5283.66 1058.38,5283.66 1054.68,5283.66 1043.48,5283.66 1042.86,5283.66 1016.15,5283.66 1003.32,5283.66 1000.54,5283.66 990.97,5283.66 987.85,5283.66 985.79,5283.66 981.83,5283.66 970.12,5283.66 968.1,5283.66 966.54,5283.66 965.99,5283.66 963.49,5283.66 958.18,5283.66 956.69,5283.66 956.21,5283.66 954.42,5283.66 949.67,5283.66 949.59,5283.66 940.18,5283.66 934.65,5283.66 934.35,5283.66 912.79,5283.66 901.76,5283.66 898.63,5283.66 896.51,5283.66 894.7,5283.66 892.41,5283.66 892.4,5283.66 889.8,5283.66 879.04,5283.66 864.97,5283.66 863.89,5283.66 855.57,5283.66 850.74,5283.66 845.39,5283.66 844.22,5283.66 840.63,5283.66 839.87,5283.66 838.67,5283.66 832.53,5283.66 830.08,5283.66 827.87,5283.66 823.48,5283.66 822.78,5283.66 818.27,5283.66 817.51,5283.66 788.93,5283.66 786.36,5283.66 774.93,5283.66 773.27,5283.66 763.3,5283.66 761.46,5283.66 757.1,5283.66 752.68,5283.66 743.68,5283.66 737.38,5283.66 732.54,5283.66 730.2,5283.66 721.58,5283.66 714.62,5283.66 714.52,5283.66 710.85,5283.66 707.19,5283.66 668.49,5283.66 667.34,5283.66 662.47,5283.66 662.15,5283.66 645.48,5283.66 641.46,5283.66 636.69,5283.66 633.76,5283.66 631.74,5283.66 630.25,5283.66 629.47,5283.66 612.87,5283.66 612.62,5283.66 601,5283.66 599.64,5283.66 590.17,5283.66 588.9,5283.66 585.51,5283.66 584.92,5283.66 583.77,5283.66 581.46,5283.66 577.02,5283.66 573.72,5283.66 566.49,5283.66 555.7,5283.66 544.85,5283.66 538.84,5283.66 532.65,5283.66 530,5283.66 524.92,5283.66 520.81,5283.66 511.88,5283.66 509.73,5283.66 509.45,5283.66 501.72,5283.66 493.8,5283.66 478.15,5283.66 472.65,5283.66 467.53,5283.66 450.9,5283.66 447.33,5283.66 446.4,5283.66 443.3,5283.66 443.13,5283.66 443.12,5283.66 427.05,5283.66 422.71,5283.66 421.9,5283.66 420.94,5283.66 419.92,5283.66 417.28,5283.66 416.01,5283.66 414.96,5283.66 409.05,5283.66 408.68,5283.66 405.16,5283.66 401.85,5283.66 401.22,5283.66 393.05,5283.66 381.87,5283.66 381.41,5283.66 378.6,5283.66 364.75,5283.66 360.17,5283.66 359.79,5283.66 352.16,5283.66 346.94,5283.66 338.5,5283.66 334.5,5283.66 333.39,5283.66 333.03,5283.66 332.74,5283.66 329.97,5283.66 321.44,5283.66 320.94,5283.66 317.87,5283.66 317.63,5283.66 317.41,5283.66 310.23,5283.66 310.08,5283.66 308.79,5283.66 308.68,5283.66 304.92,5283.66 302.04,5283.66 295.24,5283.66 289.36,5283.66 287.22,5283.66 268.08,5283.66 263.32,5283.66 255.84,5283.66 249.01,5283.66 248.97,5283.66 248.55,5283.66 248.24,5283.66 246.39,5283.66 242.9,5283.66 241.15,5283.66 235.23,5283.66 228.38,5283.66 227.12,5283.66 226.29,5283.66 224.77,5283.66 224.38,5283.66 213.95,5283.66 193.58,5283.66 164.11,5283.66 161.29,5283.66 160.7,5283.66 160.44,5283.66 160.3,5283.66 159.64,5283.66 156.71,5283.66 155.26,5283.66 154.29,5283.66 153.59,5283.66 151.19,5283.66 147.97,5283.66 146.69,5283.66 140.65,5283.66 137.91,5283.66 133.84,5283.66 115.65,5283.66 108.46,5283.66 108.3,5283.66 92.99,5283.66 85.26,5283.66 83.96,5283.66 68,5283.66 65.92,5283.66 64.11,5283.66 62.78,5283.66 59.47,5283.66 58.58,5283.66 58.48,5283.66 55.69,5283.66 50.69,5283.66 48.55,5283.66 44.35,5283.66 37.45,5283.66 36.13,5283.66 26.32,5283.66 26.28,5283.66 21.74,5283.66 17.31,5283.66 -0,5283.66 -0,5282.8 -0,5273.77 -0,5272.69 -0,5272.21 -0,5270.05 -0,5266.79 -0,5265.99 -0,5264.86 -0,5261.25 -0,5260.85 -0,5260.51 -0,5259.21 -0,5253.63 -0,5252.58 -0,5250.19 -0,5240.77 -0,5233 -0,5232.43 -0,5232.13 -0,5231 -0,5230.26 -0,5228.07 -0,5226.1 -0,5225.47 -0,5221.78 -0,5217.82 -0,5217.47 -0,5217.01 -0,5215.93 -0,5213.4 -0,5213.32 -0,5207.1 -0,5207 -0,5206.15 -0,5205.62 -0,5205.54 -0,5205.49 -0,5205.02 -0,5205.01 -0,5202.54 -0,5200.33 -0,5198.51 -0,5197.23 -0,5196.16 -0,5195.5 -0,5193.5 -0,5192.77 -0,5192.67 -0,5192.47 -0,5190.63 -0,5189.93 -0,5188.81 -0,5188.49 -0,5188.03 -0,5188.01 -0,5185.53 -0,5182.87 -0,5181.11 -0,5180.4 -0,5177.17 -0,5174.61 -0,5172.73 -0,5172.35 -0,5169.94 -0,5169.55 -0,5164.9 -0,5164.56 -0,5163.38 -0,5162.08 -0,5162.01 -0,5161.68 -0,5158.01 -0,5157.23 -0,5155.22 -0,5153.24 -0,5152.41 -0,5151.33 -0,5148.78 -0,5145.03 -0,5142.6 -0,5141.88 -0,5139.51 -0,5138.28 -0,5138.16 -0,5137.88 -0,5133.4 -0,5132.25 -0,5131.81 -0,5131.44 -0,5131.43 -0,5126.47 -0,5121.16 -0,5119.39 -0,5118.29 -0,5117.32 -0,5116.79 -0,5112.28 -0,5112.24 -0,5108.56 -0,5107.36 -0,5105.57 -0,5100.96 -0,5093.54 -0,5092.12 -0,5086.41 -0,5077.11 -0,5067.8 -0,5066.07 -0,5062.52 -0,5060.08 -0,5053.98 -0,5045.56 -0,5043.49 -0,5039.29 -0,5036.38 -0,5034.52 -0,5034.44 -0,5032.96 -0,5032.89 -0,5032.55 -0,5029.92 -0,5029.86 -0,5026.97 -0,5022.9 -0,5022.04 -0,5020.78 -0,5019.57 -0,5017.55 -0,5017.08 -0,5016.85 -0,5016.84 -0,5016.49 -0,5015.18 -0,5008.93 -0,5006.72 -0,5005.23 -0,5004.96 -0,5002.64 -0,5002.19 -0,5001.34 -0,4999.7 -0,4998.69 -0,4998.55 -0,4997.34 -0,4996.18 -0,4995.58 -0,4993.88 -0,4987.95 -0,4987.24 -0,4986.94 -0,4986.16 -0,4985.58 -0,4983.64 -0,4983.34 -0,4983.33 -0,4983.24 -0,4979.82 -0,4977.47 -0,4976.31 -0,4975.59 -0,4974.81 -0,4974.48 -0,4972.75 -0,4968.07 -0,4965.43 -0,4965.18 -0,4964.23 -0,4964.16 -0,4964.12 -0,4963.17 -0,4962.71 -0,4962.58 -0,4961.25 -0,4961.03 -0,4960.39 -0,4959.95 -0,4958.22 -0,4958.15 -0,4956.68 -0,4956.6 -0,4956.47 -0,4955.75 -0,4955.05 -0,4953.54 -0,4953.36 -0,4951.22 -0,4949.74 -0,4949.62 -0,4948.35 -0,4945.97 -0,4945.63 -0,4938.82 -0,4937.81 -0,4937.06 -0,4936.34 -0,4934.98 -0,4934.08 -0,4934.07 -0,4930.45 -0,4929.87 -0,4929.78 -0,4928.37 -0,4916.26 -0,4916.07 -0,4915.52 -0,4909.69 -0,4904.54 -0,4901.5 -0,4901.35 -0,4901.2 -0,4896.94 -0,4892.5 -0,4891.58 -0,4891.28 -0,4887.9 -0,4886.69 -0,4877.16 -0,4875.73 -0,4872.64 -0,4871.87 -0,4871.4 -0,4870.63 -0,4869.7 -0,4869.56 -0,4867.65 -0,4864.61 -0,4860.06 -0,4857.45 -0,4855.68 -0,4848.41 -0,4847.58 -0,4845.2 -0,4844.86 -0,4844.11 -0,4840.84 -0,4838.77 -0,4834.01 -0,4826.45 -0,4825.67 -0,4825.62 -0,4824.47 -0,4823.83 -0,4822.73 -0,4820.38 -0,4820.1 -0,4818.58 -0,4817.87 -0,4816.6 -0,4806.25 -0,4803.75 -0,4802.97 -0,4799.32 -0,4796.31 -0,4795.88 -0,4794.14 -0,4794.07 -0,4793.96 -0,4792.65 -0,4791.78 -0,4789.37 -0,4788.1 -0,4787.29 -0,4787.08 -0,4785.86 -0,4784.83 -0,4783.32 -0,4782.33 -0,4780.9 -0,4780.59 -0,4780.36 -0,4780.21 -0,4778.19 -0,4777.73 -0,4777.19 -0,4777.01 -0,4770.15 -0,4768.43 -0,4767.89 -0,4766.65 -0,4766.44 -0,4765.38 -0,4763.6 -0,4762.52 -0,4761.63 -0,4761.62 -0,4760.34 -0,4759.15 -0,4758.42 -0,4756.32 -0,4756.11 -0,4756.06 -0,4755.76 -0,4754.85 -0,4749.35 -0,4749.01 -0,4746.55 -0,4746.54 -0,4745.68 -0,4741.48 -0,4737.49 -0,4735.8 -0,4735.51 -0,4730.19 -0,4728.09 -0,4725.15 -0,4722.12 -0,4720.47 -0,4718.73 -0,4715.38 -0,4714.78 -0,4714.67 -0,4714.57 -0,4707.48 -0,4702.66 -0,4702.11 -0,4702 -0,4700.33 -0,4697.41 -0,4695.27 -0,4694.28 -0,4691.85 -0,4689.98 -0,4688.91 -0,4688.64 -0,4687.16 -0,4685.02 -0,4681.09 -0,4678.97 -0,4677.45 -0,4677.31 -0,4676.28 -0,4676.13 -0,4674.68 -0,4674.64 -0,4671.77 -0,4669.6 -0,4667.76 -0,4667.64 -0,4666.64 -0,4666.13 -0,4665.99 -0,4659.19 -0,4653.41 -0,4653.13 -0,4652.77 -0,4651.5 -0,4650.69 -0,4649.69 -0,4648.68 -0,4646.51 -0,4646.15 -0,4644.68 -0,4642.58 -0,4641.57 -0,4637.96 -0,4636.38 -0,4635.07 -0,4631.8 -0,4631.02 -0,4627.25 -0,4626.23 -0,4620.93 -0,4619.2 -0,4618.2 -0,4617.94 -0,4617.36 -0,4617.29 -0,4615.03 -0,4612.24 -0,4611.12 -0,4608.06 -0,4605.49 -0,4604.31 -0,4604.08 -0,4602.16 -0,4598.11 -0,4597.6 -0,4597.23 -0,4594.01 -0,4593.92 -0,4592.63 -0,4590.07 -0,4587.23 -0,4584.29 -0,4579.32 -0,4577.83 -0,4576.89 -0,4576.46 -0,4575.15 -0,4573.87 -0,4572.84 -0,4570.07 -0,4569.51 -0,4566.86 -0,4566.71 -0,4565.48 -0,4565.09 -0,4562.9 -0,4558.14 -0,4557.99 -0,4554.08 -0,4550.15 -0,4549.92 -0,4549.84 -0,4549.83 -0,4547 -0,4546.94 -0,4546.72 -0,4545.94 -0,4544.89 -0,4542.74 -0,4541.89 -0,4540.41 -0,4537.18 -0,4536.49 -0,4536.33 -0,4529.82 -0,4527.86 -0,4525.64 -0,4524.48 -0,4523.83 -0,4522.41 -0,4521.38 -0,4520.73 -0,4520.67 -0,4519.85 -0,4519.04 -0,4517.12 -0,4516.93 -0,4516.66 -0,4516.24 -0,4516.21 -0,4513.01 -0,4509.47 -0,4508.97 -0,4502.79 -0,4501.16 -0,4498.57 -0,4497.03 -0,4496.95 -0,4494.1 -0,4493.38 -0,4491.38 -0,4491.17 -0,4490.6 -0,4488.59 -0,4488.44 -0,4482.11 -0,4481.01 -0,4477.91 -0,4477.43 -0,4475.82 -0,4474.78 -0,4474.71 -0,4474.07 -0,4473.26 -0,4472.99 -0,4466.26 -0,4465.8 -0,4461.31 -0,4460.49 -0,4459.16 -0,4454.28 -0,4453.68 -0,4453.57 -0,4447.08 -0,4442.11 -0,4438.39 -0,4437.05 -0,4435.61 -0,4435.41 -0,4434.48 -0,4433.31 -0,4432.93 -0,4430.85 -0,4425.65 -0,4424.42 -0,4419.73 -0,4419.6 -0,4419.55 -0,4419.46 -0,4415.97 -0,4410.66 -0,4408.72 -0,4406.91 -0,4396.91 -0,4391.87 -0,4391.76 -0,4390.53 -0,4387.85 -0,4381.97 -0,4381.09 -0,4380.73 -0,4378.29 -0,4376.96 -0,4375.86 -0,4370.94 -0,4370.54 -0,4369.32 -0,4365.49 -0,4362.48 -0,4356.88 -0,4356.42 -0,4354.38 -0,4354.37 -0,4352.82 -0,4346.82 -0,4346.18 -0,4344.04 -0,4337.9 -0,4334.7 -0,4330.1 -0,4329.22 -0,4328.78 -0,4328.33 -0,4322.93 -0,4322.82 -0,4322.79 -0,4321.09 -0,4317.15 -0,4315.68 -0,4315.09 -0,4309.69 -0,4308.92 -0,4303.06 -0,4302.57 -0,4301.16 -0,4291.25 -0,4289.53 -0,4287.57 -0,4286.8 -0,4286.01 -0,4285.2 -0,4284.63 -0,4284.12 -0,4283.86 -0,4279.44 -0,4279.2 -0,4278.33 -0,4277.59 -0,4276.84 -0,4270.14 -0,4262.48 -0,4253.18 -0,4251.15 -0,4249.63 -0,4247.75 -0,4247.21 -0,4245.56 -0,4243.85 -0,4243.82 -0,4241.06 -0,4235.81 -0,4235.65 -0,4233.65 -0,4232.59 -0,4231.78 -0,4231.72 -0,4231.24 -0,4230.77 -0,4224.93 -0,4224.72 -0,4224.44 -0,4224.39 -0,4224.36 -0,4222.91 -0,4221.38 -0,4218.18 -0,4215.3 -0,4213.07 -0,4210.68 -0,4208.32 -0,4208.31 -0,4208.26 -0,4207.79 -0,4207.67 -0,4207.27 -0,4206.8 -0,4206.65 -0,4205.44 -0,4203.75 -0,4201.17 -0,4189.55 -0,4188.11 -0,4186.29 -0,4186.12 -0,4185.24 -0,4184.12 -0,4183.81 -0,4182.79 -0,4181.52 -0,4181.43 -0,4179.49 -0,4176.93 -0,4175.73 -0,4173.01 -0,4171.28 -0,4169.5 -0,4165.71 -0,4165.7 -0,4164.33 -0,4163.97 -0,4159.13 -0,4159.05 -0,4157.48 -0,4156.93 -0,4156.91 -0,4156.23 -0,4156.07 -0,4155.47 -0,4154.73 -0,4153.18 -0,4152.48 -0,4151.53 -0,4149.86 -0,4147.02 -0,4144.35 -0,4144.16 -0,4143.19 -0,4142.23 -0,4141.34 -0,4138.97 -0,4138.34 -0,4137.28 -0,4136.57 -0,4130.1 -0,4126.98 -0,4124.62 -0,4116.65 -0,4113.89 -0,4113.69 -0,4113.25 -0,4109.98 -0,4107.21 -0,4105.69 -0,4104.99 -0,4102.6 -0,4097.42 -0,4097.07 -0,4096.86 -0,4096.73 -0,4091.89 -0,4091.71 -0,4091.23 -0,4087.79 -0,4087.26 -0,4082.73 -0,4080.51 -0,4079.13 -0,4071.61 -0,4069.83 -0,4063.96 -0,4059.94 -0,4059.88 -0,4059.85 -0,4059.69 -0,4058.99 -0,4058.91 -0,4056.51 -0,4054.38 -0,4054.09 -0,4053.81 -0,4038.37 -0,4035.46 -0,4033.76 -0,4033.72 -0,4030.07 -0,4025.5 -0,4007.94 -0,4005.8 -0,4003.71 -0,3999.94 -0,3995.87 -0,3993.71 -0,3993.62 -0,3993.47 -0,3992.95 -0,3990.93 -0,3990.32 -0,3990.23 -0,3981.61 -0,3981.53 -0,3981.48 -0,3979.87 -0,3977.14 -0,3977.06 -0,3976.47 -0,3969.31 -0,3964.26 -0,3962 -0,3955.86 -0,3955.13 -0,3954.95 -0,3952.53 -0,3942.04 -0,3941.61 -0,3937.52 -0,3937.33 -0,3935.99 -0,3922.95 -0,3922.76 -0,3868.57 -0,3854.1 -0,3854.09 -0,3817.77 -0,3761.78 -0,3745.97 -0,3712.32 "/>
  <path class="fil2" d="M578.49 4627.69c17.95,27.21 29.6,53.36 40.96,82.43 8.45,16.91 12.93,48.09 52.57,48.09 11.61,0 28.28,-3.42 43.06,-11.61 16.63,-8.73 29.32,-21.94 35.94,-42l15.85 -53.36 38.57 -19.02 2.64 2.64c-5.27,20.09 -6.59,39.36 -6.59,54.43 0,44.63 38.57,61.56 69.22,61.56 17.95,0 34.09,-8.73 34.09,-25.11 0,-21.13 -8.98,-57.06 -20.62,-89.29 17.95,-17.95 35.94,-35.94 56.53,-50.47l3.17 1.6c8.98,38.04 14,75.56 14,100.66 0,24.57 -10.83,51.79 -19.81,69.49 -18.49,34.87 -51.25,62.62 -90.87,62.62 -30.1,0 -63.65,-15.07 -86.66,-43.06l-1.32 0c-21.66,26.96 -55.22,51.25 -108.86,51.25l-16.63 0c-2.64,35.41 -10.29,60.49 -21.94,82.95 -31.95,62.34 -126.81,106.47 -216.1,106.47 -124.17,0 -186.51,-71.59 -186.51,-166.96 0,-58.91 19.27,-113.6 48.88,-152.42l24.29 10.04c-18.49,35.41 -30.91,68.68 -30.91,101.45 0,89.29 72.66,131.83 156.4,131.83 77.68,0 173.83,-49.41 191.28,-106.72 -6.59,-62.62 -30.1,-91.93 -66.04,-148.99 10.83,-19.02 24.83,-38.04 42.28,-58.38l3.17 0 0 0 0 0 -0.02 -0.09zm1432.13 -336.04c26.15,16.39 51.79,35.66 76.87,57.85 -14,19.81 -31.45,37.79 -53.11,53.64 -25.11,-20.34 -50.19,-37.79 -75.84,-56.27 17.42,-19.55 34.62,-38.29 52.04,-55.22l0 0 0 0 0 0 0 0 0 0 0.03 0zm13.47 244.11c-42.28,0 -76.87,27.75 -76.87,48.34 0,44.13 84.53,57.85 185.72,57.31 -12.68,-51.79 -57.06,-105.68 -108.86,-105.68l0.01 0.03zm-94.86 236.19c54.96,0 103.04,-1.6 139.74,-10.83 40.96,-10.29 75.56,-30.91 75.56,-45.17 0,-3.7 0,-8.19 -1.32,-11.89 -22.98,2.11 -49.41,2.11 -72.38,2.11 -74.49,0 -131.55,-16.91 -154.02,-58.66 -5.55,-11.61 -9.51,-24.57 -9.51,-39.36 0,-40.43 17.42,-79.79 48.09,-107 25.61,-22.45 53.89,-36.44 82.67,-36.44 52.04,0 93.51,41.75 122.57,107.54 15.85,35.94 26.68,77.4 26.68,129.72 0,34.87 -9.51,64.19 -31.17,85.85 -40.43,39.11 -114.92,53.89 -229.04,53.89l-51.79 0 0 0 -13.47 0c-28.28,0 -48.62,-5.02 -64.72,-17.42l-2.64 0c0.79,6.59 1.32,12.93 1.32,19.02 0,25.61 -8.45,58.38 -25.61,84.53 -50.72,75.3 -105.68,108.04 -153.24,108.04 -48.09,0 -107,-18.49 -160.11,-42.54l9.51 -18.49c17.17,7.13 40.96,11.89 73.7,11.89 85.85,0 198.66,-82.43 212.66,-163 -3.17,-6.59 -8.98,-15.32 -17.17,-24.57 -25.11,-29.85 -40.96,-54.68 -55.75,-80.83 12.68,-25.11 24.29,-45.17 35.13,-63.4l4.49 -0.53c36.72,74.77 69.99,117.55 144.23,117.55l11.61 0 0 0 53.89 0 0 0 0 0 0 0 0 0 0 0 0.09 0.01zm-371.98 79c6.34,-34.34 6.87,-72.91 6.87,-108.86l0 -53.36c0,-99.6 -12.68,-244.36 -22.98,-338.68 17.95,-19.27 43.06,-42 62.87,-57.31l5.81 1.6c13.47,118.62 16.63,256 16.63,383.06 0,33.3 -1.32,65.79 -4.49,89.55 -1.85,30.1 -19.27,52.83 -56.53,87.7l-8.19 -3.7zm-382.8 -157.19c1.85,46.77 24.83,83.49 105.15,83.49 49.93,0 92.19,-12.93 138.96,-35.13 8.45,-3.7 12.93,-8.73 12.93,-12.93 0,-29.32 -22.45,-68.15 -60.23,-103.55 -36.72,-33.3 -85.34,-62.62 -130.76,-82.18 -15.6,-6.59 -20.62,-13.47 -20.62,-20.09 0,-13.47 17.95,-41.75 32.77,-62.09l5.02 -0.53c52.04,27.21 110.17,67.64 153.24,112.53 39.11,41.47 63.4,83.49 63.4,129.19 0,33.81 -10.29,65.51 -26.96,95.11 -57.06,28.79 -117.83,50.72 -178.06,50.72 -73.17,0 -123.1,-34.34 -123.1,-114.92 0,-8.73 0,-22.19 3.17,-39.64l25.11 0 0 0 0 0 0 0 0 0 0 0 -0.02 0zm-132.37 -132.9l45.45 73.45c16.63,27.21 32.23,56.81 32.23,103.55l0 59.7c0,48.34 -30.91,100.13 -80.83,151.38 -39.11,34.62 -73.7,49.41 -105.68,49.41 -47.55,0 -101.98,-14.79 -164.85,-41.75l7.13 -18.49c19.81,5.27 42.79,9.77 71.06,9.77 90.36,-0.53 182.8,-66.57 225.08,-147.15 5.02,-9.26 6.87,-17.95 6.87,-24.04 0,-9.26 -5.02,-19.55 -8.98,-28.79 -22.98,-43.31 -48.62,-82.95 -76.87,-119.68 14.79,-23.25 29.6,-45.7 45.7,-67.9l3.7 0.53 0 0 0 0 0 0 0 0 0 0 -0.02 0.01z"/>
  <g id="_2646078788736">
   <g>
    <path class="fil3" d="M6514.39 2777.72c21.39,-59.48 17.56,-111.53 -11.46,-156.14 -38.2,-60.98 -89.39,-89.23 -153.58,-84.77 -29.03,2.98 -48.13,16.36 -57.3,40.15 0,4.46 -6.11,27.52 -18.33,69.16 -7.64,44.61 -13.76,77.33 -18.34,98.15 -18.33,78.82 -29.03,120.47 -32.08,124.92 -21.4,44.62 -61.13,71.39 -119.2,80.31 -88.63,11.9 -152.04,13.39 -190.24,4.46 -59.6,-16.36 -102.38,-60.98 -128.36,-133.85 -3.07,-4.46 -23.69,-41.64 -61.89,-111.53 -55.02,-102.61 -126.84,-143.51 -215.46,-122.69 -50.42,11.9 -84.04,36.43 -100.86,73.62 -12.22,25.28 -20.63,66.18 -25.21,122.68 -13.75,217.13 -116.13,381.46 -307.15,492.99 -194.07,114.52 -395.77,127.16 -605.11,37.92 -157.39,-66.92 -269.71,-175.48 -336.95,-325.69 -67.24,-150.2 -73.35,-303.38 -18.33,-459.53 58.06,-162.09 161.97,-281.07 311.73,-356.92 146.7,-77.33 306.38,-95.18 479.05,-53.54 13.75,2.98 38.96,12.64 75.64,29.01 29.04,5.95 48.91,-5.95 59.6,-35.7 16.8,-44.61 -15.28,-85.51 -96.27,-122.69 -85.57,-41.64 -151.28,-72.12 -197.12,-91.45 -93.21,-32.72 -130.65,-94.44 -112.31,-185.16 10.69,-29.73 19.1,-77.33 25.21,-142.76 16.81,-50.56 58.83,-81.8 126.07,-93.69 29.03,-4.46 74.88,-12.64 137.52,-24.54 56.54,-16.36 103.15,-46.85 139.82,-91.46 -93.21,11.9 -169.61,-6.69 -229.2,-55.77 -41.27,-32.72 -84.81,-89.97 -130.65,-171.77 -24.45,-46.1 -55.78,-78.82 -93.98,-98.15 -35.15,-17.84 -81.76,-22.31 -139.82,-13.38 -51.96,4.45 -91.69,23.05 -119.2,55.77 -18.33,20.82 -33.61,55.77 -45.84,104.84l-52.72 160.62c-22.92,60.98 -60.36,103.35 -112.31,127.15 -50.42,22.32 -105.44,23.06 -165.03,2.24 -59.6,-17.84 -112.32,-40.9 -158.16,-69.16 -45.84,-23.79 -87.87,-35.7 -126.07,-35.7 -41.26,2.98 -81.75,20.83 -121.48,53.54 -79.46,66.93 -100.09,143.51 -61.89,229.77 19.86,46.1 35.15,101.13 45.84,165.07 16.8,65.44 8.4,121.21 -25.21,167.31 -30.56,49.08 -79.46,80.31 -146.7,93.7 -73.35,10.4 -130.65,16.36 -171.91,17.84 -96.27,7.44 -161.97,64.69 -197.12,171.77 -12.23,44.61 -9.93,84.02 6.87,118.22 12.23,20.83 38.2,49.09 77.93,84.77 61.13,41.65 108.5,81.05 142.11,118.23 44.31,44.61 66.47,92.2 66.47,142.76 0,55.03 -21.39,103.36 -64.17,145 -62.66,53.54 -109.25,94.44 -139.82,122.69 -41.26,34.21 -68.01,60.97 -80.23,80.31 -21.4,34.2 -24.44,73.61 -9.17,118.23 18.33,56.5 39.73,97.4 64.17,122.68 30.56,29.74 74.88,44.61 132.95,44.61 13.75,0 74.88,10.41 183.37,31.23 64.17,14.88 110.78,44.62 139.82,89.23 30.56,46.1 37.43,100.38 20.63,162.84 -13.76,74.36 -29.04,129.38 -45.84,165.07 -24.45,50.56 -29.04,95.92 -13.76,136.08 13.76,32.71 45.08,71.38 93.98,115.99 47.37,38.66 96.27,51.3 146.7,37.92 21.4,-4.46 64.18,-25.28 128.36,-62.47 105.44,-63.94 196.36,-79.56 272.77,-46.84 79.46,32.71 131.41,113.77 155.86,243.15 9.17,29.74 15.28,51.3 18.33,64.69 21.4,89.22 82.53,139.79 183.37,151.69 85.57,11.89 152.05,-20.82 199.42,-98.15 44.31,-77.33 84.04,-136.08 119.19,-176.23 74.88,-87.75 165.8,-100.39 272.76,-37.92 24.45,16.36 76.41,58.74 155.87,127.15 38.19,32.72 70.28,53.54 96.26,62.47 35.15,13.39 74.88,9.67 119.19,-11.15 51.95,-20.82 88.63,-46.1 110.02,-75.85 24.45,-31.23 35.15,-72.13 32.09,-122.69 0,-32.71 -0.77,-78.07 -2.3,-136.07 -12.22,-47.59 -45.84,-79.56 -100.85,-95.92 -81,-25.28 -116.13,-87.74 -105.44,-187.38 7.64,-72.87 53.48,-121.21 137.52,-145 97.8,-26.77 155.11,-52.05 171.91,-75.85 15.29,-23.79 12.23,-81.8 -9.17,-174 -12.22,-49.08 -11.46,-89.97 2.3,-122.69 15.28,-31.23 44.31,-61.72 87.1,-91.46 35.15,-28.26 71.05,-37.92 107.73,-29 21.4,5.95 52.72,23.79 93.98,53.54 64.18,50.56 103.14,56.51 116.9,17.84 24.44,-60.98 70.28,-109.3 137.52,-145 38.2,-20.82 97.8,-47.59 178.79,-80.31 48.9,-26.77 82.52,-69.89 100.86,-129.38l0 0zm405.71 878.92c27.5,-28.26 44.31,-50.56 50.42,-66.92 9.17,-25.28 8.41,-52.05 -2.3,-80.31 -27.5,-65.44 -79.46,-95.92 -155.86,-91.46 -106.96,2.98 -174.2,-7.44 -201.7,-31.23 -22.93,-20.82 -38.2,-82.54 -45.84,-185.15 -1.53,-41.65 -8.41,-74.36 -20.63,-98.15 -19.87,-29.74 -48.91,-50.56 -87.1,-62.47 -38.2,-8.93 -71.82,-5.2 -100.86,11.15 -13.75,11.9 -35.15,34.95 -64.18,69.16 -62.65,77.33 -110.78,118.23 -144.4,122.69 -35.15,4.45 -93.98,-20.08 -176.49,-73.62 -44.31,-29.74 -71.82,-47.59 -82.52,-53.54 -30.56,-8.93 -61.13,-1.49 -91.69,22.31 -36.66,23.79 -57.3,52.05 -61.89,84.77 -7.64,22.31 -6.11,54.28 4.58,95.92 21.4,101.13 22.16,164.33 2.3,189.61 -16.8,28.26 -76.4,57.25 -178.79,87 -76.4,20.82 -118.42,59.48 -126.06,115.99 -7.65,60.98 24.44,107.82 96.26,140.54 105.44,53.54 165.8,95.18 181.08,124.92 10.7,28.26 -6.11,92.21 -50.42,191.85 -15.28,37.17 -21.4,66.92 -18.33,89.22 0,26.77 12.98,53.54 38.96,80.31 45.84,41.64 102.38,46.85 169.61,15.62 110.02,-49.08 179.56,-69.89 208.58,-62.47 27.51,7.44 70.29,60.24 128.37,158.39 55.01,90.71 126.83,111.53 215.45,62.46 21.4,-13.38 38.2,-35.69 50.43,-66.92 3.06,-8.93 7.64,-36.43 13.75,-82.54 19.86,-130.87 94.74,-181.44 224.63,-151.69l98.56 22.31c27.51,4.46 51.95,-1.49 73.35,-17.85 6.11,-4.45 22.92,-24.53 50.42,-60.23 18.33,-28.26 24.45,-55.03 18.33,-80.31 -7.64,-16.36 -22.15,-39.41 -43.54,-69.15 -74.88,-96.67 -110.79,-158.39 -107.73,-185.16 1.53,-31.22 46.6,-86.25 135.24,-165.07l0 0zm-841.22 -22.31c44.32,-41.65 94.75,-60.98 151.28,-58 58.07,1.49 106.21,20.82 144.4,58 38.2,40.15 57.3,87 57.3,140.54 3.07,56.51 -17.56,105.59 -61.89,147.23 -39.73,41.64 -88.63,61.72 -146.69,60.23 -55.02,0 -103.15,-21.57 -144.41,-64.69 -39.73,-38.66 -59.59,-84.02 -59.59,-136.07 0,-55.03 19.86,-104.1 59.59,-147.23l0 0zm898.52 -2268.68c-21.4,-53.53 -49.66,-90.71 -84.81,-111.53 -33.62,-20.82 -77.93,-27.52 -132.95,-20.08 -16.8,1.49 -69.52,2.24 -158.15,2.24 -146.7,0 -224.63,-70.64 -233.8,-211.93 -4.58,-77.33 -6.11,-124.17 -4.58,-140.54 3.06,-53.54 -5.35,-96.66 -25.22,-129.38 -21.39,-37.17 -59.59,-63.94 -114.6,-80.3 -55.02,-16.37 -103.15,-17.85 -144.41,-4.46 -32.09,16.36 -62.65,48.33 -91.68,95.92 -19.87,29.73 -53.49,71.38 -100.86,124.92 -84.04,102.61 -184.89,116.74 -302.56,42.38 -71.82,-49.08 -118.42,-83.27 -139.82,-102.61 -42.79,-29.73 -76.4,-48.33 -100.85,-55.77 -38.2,-8.92 -78.7,0.75 -121.49,29.01 -48.9,34.2 -81.75,66.92 -98.56,98.15 -21.4,37.17 -22.16,81.05 -2.3,131.61 18.34,68.41 32.86,117.48 43.55,147.23 38.2,147.23 -14.52,243.9 -158.16,290 -84.04,23.79 -140.58,37.92 -169.61,42.39 -58.07,4.45 -97.79,25.28 -119.19,62.46 -13.75,28.26 -25.21,72.87 -34.38,133.85 -4.59,49.08 6.11,87 32.08,113.77 18.34,16.36 51.96,36.43 100.86,60.23l151.28 60.23c131.41,58 169.61,153.18 114.61,285.54 -32.09,81.8 -55.01,133.1 -68.77,153.92 -25.98,47.6 -35.91,88.5 -29.79,122.69 7.64,35.7 32.09,72.87 73.35,111.54 39.73,37.17 77.93,55.77 114.61,55.77 33.62,2.98 75.64,-7.44 126.07,-31.23 161.97,-86.25 267.41,-121.2 316.31,-104.84 50.42,14.87 122.24,101.13 215.45,258.77l6.88 15.62c16.81,50.56 48.14,81.79 93.98,93.69 21.4,4.46 65.71,5.2 132.94,2.23 50.43,-5.94 86.34,-24.53 107.74,-55.77 18.33,-20.82 31.32,-55.77 38.96,-104.84 7.64,-34.21 16.05,-85.51 25.21,-153.93 38.2,-144.25 135.24,-202.25 291.1,-174l201.71 37.92c47.37,8.93 85.57,-1.49 114.61,-31.23 13.75,-17.84 35.15,-51.3 64.17,-100.38 42.79,-56.51 36.67,-115.26 -18.33,-176.23 -56.54,-55.03 -105.44,-112.28 -146.7,-171.77 -71.82,-90.71 -67.24,-179.94 13.75,-267.68 53.49,-49.08 101.63,-89.23 144.41,-120.46 45.84,-34.21 73.34,-65.44 82.52,-93.7 16.8,-37.17 15.28,-80.3 -4.58,-129.38l0 0zm-1116.27 716.08c-87.1,0 -161.22,-29.74 -222.33,-89.23 -61.13,-57.99 -92.45,-129.38 -93.98,-214.15 0,-86.26 32.09,-160.62 96.26,-223.07 62.66,-63.95 138.3,-95.92 226.93,-95.92 88.63,0 164.26,31.97 226.92,95.92 64.18,62.46 94.75,136.81 91.69,223.07 0,86.25 -30.56,158.38 -91.69,216.38 -65.7,60.97 -143.63,89.97 -233.8,87z"/>
   </g>
   <g id="_2646078786288">
    <path class="fil4" d="M4904.98 3386.65c-2.19,-25.88 -11.82,-71.43 -15.33,-87.57 4.3,-25.02 18.2,-119.82 -5.1,-180.51 -22.27,-57.74 -89.81,-115.45 -113.49,-134.38 -7.64,-28.7 -32.1,-111.4 -69.62,-158.68 -39.27,-49.47 -126.05,-98.21 -150,-111.14 -7.27,-9.81 -22.96,-30.23 -36.39,-43.5 -11.82,-11.62 -48.96,-40.8 -73.69,-59.89 -11.36,-8.77 -21.17,-19.09 -29.41,-30.85 -16.08,-22.96 -43.68,-57.53 -74.13,-74.15 -30.2,-16.5 -81.83,-22.64 -119.84,-24.34 -7.57,-0.34 -14.79,-3.02 -20.75,-7.71 -31.26,-24.59 -98.72,-74.49 -153.66,-92.71 -66.95,-22.37 -210.88,-14.48 -242.56,-12.4 -15,-3.73 -59.29,-14.11 -87.66,-14.45 -26.45,-0.46 -80.18,14.01 -98.69,19.46 -32.4,-4.07 -172.72,-17.67 -288.48,35.2 -159.6,72.82 -250.31,204.51 -267.32,230.92 -18.88,15.39 -100.7,83.16 -145.03,140.5 -43.92,56.62 -103.18,177.13 -117.56,206.83 -24.32,18.22 -106.11,81.73 -135.46,132.59 -26.64,46.15 -36.69,119.96 -39.89,150.65 -29.52,21.26 -104.1,77.96 -128.83,125.29 -25.82,49.54 -25.68,127.71 -24.83,153.87 -12.92,26.18 -53.37,111.56 -55.7,156.79 -2.26,43.84 19.7,100.01 28.65,120.78 -3.07,29.37 -10.93,122.72 4.62,172.14 17.76,56.43 77.41,119.2 84.36,126.35 4.62,4.72 114.62,115.86 179.29,153.99 52.96,31.22 136.24,55.29 168.14,63.79 7.89,7.34 19.74,26.18 25.97,35.32 80.8,119.2 150.51,222.13 309.67,239.62 58.71,6.55 173.4,-8.08 198.48,-11.5 19.39,3.58 91.82,16.1 159.6,16.1 19.07,0 37.7,-0.99 54.73,-3.42 76.63,-10.97 182.39,-62.17 207.8,-74.84 24.78,-1.71 117.38,-9.32 177.93,-30.53 57.72,-20.27 131.07,-61.17 230.76,-128.75 78.91,-53.63 120.58,-90.82 187.34,-152.02 12.01,-11 28.4,-23.33 46.78,-37.23 32.07,-24.24 71.98,-54.43 105.34,-89.56 45.3,-47.57 78.66,-102.36 89.86,-121.7 15.44,-9.49 50.45,-32.79 68.15,-59.78 16.7,-25.58 24.96,-64 28.16,-82.86 19.56,-18.84 68.73,-71.25 92.42,-142.64 27.66,-82.98 48.48,-277.99 45.39,-313.05z"/>
    <path class="fil5" d="M4904.98 3386.64c-2.2,-25.88 -11.83,-71.43 -15.32,-87.56 4.3,-25.03 18.19,-119.81 -5.12,-180.52 -22.26,-57.74 -89.8,-115.45 -113.49,-134.38 -7.64,-28.68 -32.08,-111.4 -69.6,-158.67 -39.27,-49.46 -126.06,-98.22 -150.01,-111.14 -7.26,-9.8 -22.95,-30.23 -36.38,-43.51 -11.83,-11.61 -48.96,-40.79 -73.7,-59.88 -11.35,-8.77 -21.16,-19.09 -29.4,-30.84 -16.08,-22.98 -43.69,-57.54 -74.14,-74.15 -30.21,-16.51 -81.84,-22.66 -119.83,-24.34 -7.58,-0.35 -14.79,-3.02 -20.76,-7.72 -31.26,-24.58 -98.73,-74.49 -153.66,-92.71 -66.96,-22.37 -210.87,-14.47 -242.56,-12.41 -15,-3.72 -59.28,-14.1 -87.67,-14.44 -26.46,-0.45 -80.17,14.02 -98.67,19.46 -32.4,-4.06 -172.73,-17.66 -288.48,35.2 -159.6,72.83 -250.33,204.51 -267.34,230.92 -18.88,15.39 -100.68,83.17 -145.02,140.5 -43.91,56.61 -103.19,177.13 -117.55,206.84 -24.32,18.22 -106.13,81.73 -135.46,132.58 -26.64,46.16 -36.7,119.96 -39.9,150.64 -29.52,21.26 -104.11,77.98 -128.83,125.3 -25.82,49.54 -25.69,127.72 -24.82,153.87 -12.93,26.19 -53.39,111.56 -55.72,156.79 -2.24,43.85 19.7,100 28.66,120.78 -3.07,29.37 -10.93,122.73 4.62,172.14 17.76,56.42 77.42,119.19 84.36,126.35 4.62,4.72 114.63,115.86 179.3,154 52.97,31.21 136.24,55.27 168.12,63.79 7.9,7.34 19.76,26.17 25.99,35.31 80.8,119.19 150.51,222.12 309.66,239.61 58.72,6.57 173.4,-8.06 198.49,-11.49 19.38,3.59 91.81,16.11 159.59,16.11 19.07,0 37.71,-1 54.72,-3.42 76.65,-10.99 182.41,-62.17 207.82,-74.84 24.76,-1.72 117.37,-9.33 177.92,-30.55 57.72,-20.25 131.07,-61.16 230.75,-128.73 78.93,-53.63 120.58,-90.83 187.36,-152.04 12.01,-10.98 28.38,-23.31 46.76,-37.2 32.08,-24.27 71.98,-54.46 105.36,-89.57 45.28,-47.58 78.66,-102.38 89.85,-121.7 15.45,-9.49 50.46,-32.8 68.16,-59.79 16.68,-25.58 24.95,-64 28.15,-82.85 19.57,-18.85 68.74,-71.27 92.42,-142.64 27.65,-82.99 48.48,-278 45.39,-313.07zm-222.81 -363.92c-25.38,-21.02 -55.59,-33.33 -85.1,-34.67 -18.7,-1.14 -36.54,2.85 -52.47,10.21 -1.19,0.56 -2.57,0.42 -3.62,-0.34 -1.05,-0.77 -1.61,-2.04 -1.45,-3.33 7.84,-65.11 5.07,-134.35 -8.19,-197.08 -0.29,-1.35 0.16,-2.75 1.16,-3.72 1.01,-0.96 2.41,-1.33 3.75,-1.01 30.79,7.85 55.53,26.91 71.37,42.78 23.71,23.79 42.33,53.5 59.34,81.89 8.05,13.44 15.82,26.7 21.57,40.46 17.59,42.3 21.68,134.38 18.11,169.12 -0.15,1.53 -1.45,2.67 -2.98,2.62 -0.74,-0.03 -1.48,-0.03 -2.22,0 -16.51,0.79 -37.39,3.4 -52.6,17.1 -21.79,19.62 -28.76,66.26 -30.42,103.83 -0.08,1.85 -1.3,3.48 -3.04,4.11 -1.75,0.64 -3.72,0.16 -4.96,-1.24 -19.54,-21.39 -41.09,-40.4 -65.14,-54.87 -6.08,-3.69 -14.03,-1.72 -17.56,4.38 -3.69,6.07 -1.69,13.92 4.3,17.55 60.47,36.36 108.24,99.13 131.13,172.22 21.12,67.73 22.08,144.04 2.62,220.73 -7.87,31.29 -17,53.26 -29.72,71.13 -6.78,9.54 -30.89,33.51 -45.44,37.2 -1.9,0.48 -3.93,-0.02 -5.38,-1.32 -1.46,-1.32 -2.17,-3.28 -1.91,-5.22 3.64,-26.01 5.23,-52.34 2.65,-78.74 -8.06,-80.78 -43.38,-114.11 -96.91,-157.59 -2.56,-2.09 -3.53,-5.54 -2.43,-8.64 4.83,-13.68 8.74,-27.94 10.87,-43.14 5.81,-41.19 2.25,-85.82 -11.06,-140.61 -3.3,-13.44 -7.29,-27.02 -12.78,-39.85 -12.88,-58.56 10.88,-121.47 33.57,-170.15 6.44,-13.66 12.94,-26.78 22.02,-36.89 15.69,-17.45 39.27,-27.22 66.73,-26.03 23.95,1.13 48.78,11.35 69.97,28.86 5.44,4.54 13.52,3.77 18.01,-1.72 4.46,-5.46 3.72,-13.55 -1.8,-18.03zm-313.04 -390.88l17.63 19.72c1.32,1.48 2.94,2.59 4.75,3.35 9.19,3.69 18.67,7.77 28.07,12.15 23.9,18.64 47.83,37.75 54.93,44.8 0.9,0.88 1.93,2.12 2.85,3.1 5.49,9.61 10.11,19.8 13.71,29.99 28.23,79.46 35.68,187.91 19.49,277.29 -0.11,0.1 -0.24,0.18 -0.35,0.29 -11.43,12.72 -18.95,27.67 -26.19,43.17 -17.5,37.59 -35.68,83.3 -39.19,130.54 -0.13,1.83 -1.24,3.4 -2.88,4.17 -1.64,0.77 -3.59,0.58 -5.07,-0.48 -12.88,-9.32 -27.25,-15.84 -40.69,-21.36 -1.69,-0.69 -2.86,-2.25 -3.1,-4.04 -13.04,-105.51 -69.24,-209.86 -146.21,-280.76 -0.97,-0.9 -1.32,-2.33 -0.82,-3.59 3.78,-9.67 5.76,-22.05 6.34,-35.89 0.11,-2.4 1.4,-4.61 3.46,-5.86 8.71,-5.28 19.93,-7.87 32.79,-9.88 24.64,-3.85 48.72,-7 72.3,-4.85 25,2.38 46.58,11.35 60.84,25.27 2.51,2.43 5.7,3.66 8.95,3.66 3.33,0 6.63,-1.32 9.15,-3.88 4.98,-5.04 4.88,-13.15 -0.19,-18.11 -23.58,-23.05 -54.48,-30.36 -76.28,-32.45 -26.78,-2.43 -52.42,0.98 -78.61,5.04 -10.32,1.62 -20.28,3.64 -29.58,7.03 -0.79,0.29 -1.67,0.18 -2.38,-0.27 -0.71,-0.45 -1.16,-1.21 -1.24,-2.04 -0.53,-6.6 -1.25,-13.04 -2.04,-19.3 -0.26,-2.19 0.5,-4.38 2.12,-5.88 4.22,-3.99 8.71,-7.74 13.22,-11.46 9.83,-8.03 19.89,-16.35 28.02,-27.23 5.12,-6.86 9.2,-14.47 13.21,-22.13l27.57 -52.62c3.32,-6.26 0.87,-14.02 -5.39,-17.29 -6.18,-3.28 -14,-0.88 -17.26,5.41l-27.57 52.62c-3.38,6.42 -6.68,12.89 -11.06,18.7 -6.26,8.42 -14.77,15.39 -23.76,22.76 -0.14,0.11 -0.3,0.24 -0.43,0.35 -0.87,0.73 -2.06,0.97 -3.14,0.6 -1.09,-0.37 -1.91,-1.27 -2.15,-2.38 -0.98,-4.3 -1.87,-7.89 -2.67,-10.21 -13.12,-38.95 -47.45,-64.4 -78.61,-85.21 -5.88,-3.88 -13.89,-2.36 -17.76,3.56 -3.93,5.88 -2.38,13.81 3.5,17.76 27.65,18.41 58.04,40.75 68.61,72.06 7.45,22.11 14.1,81.63 9.67,111.72 -0.16,1.14 -0.96,2.12 -2.01,2.54 -1.09,0.43 -2.31,0.27 -3.23,-0.45 -22.21,-17.34 -45.52,-32.5 -70.03,-43.46 -6.62,-2.88 -14.07,0 -16.94,6.47 -2.89,6.45 0,14.05 6.44,16.93 110.53,49.4 200.84,174.8 224.18,305.35 0.32,1.8 -0.37,3.64 -1.8,4.78 -1.42,1.14 -3.35,1.45 -5.06,0.76l-32.85 -13.36c-6.39,-2.72 -13.95,0.48 -16.69,7.03 -2.61,6.52 0.51,14.02 7.08,16.65l68.74 27.97c16.87,6.87 34.33,13.97 47.03,26.01 16.16,15.34 25.79,44.17 31.07,65.62 12.57,51.48 15.96,93.08 10.56,130.94 -6.44,46.21 -26.69,85.58 -57.03,110.87 -5.44,4.54 -6.18,12.62 -1.64,18.03 2.51,3.07 6.13,4.62 9.83,4.62 2.88,0 5.81,-1 8.19,-2.96 15.9,-13.26 29.31,-29.73 39.97,-48.59 0.74,-1.32 2.07,-2.25 3.56,-2.54 1.51,-0.26 3.05,0.13 4.23,1.11 50.8,42.02 74.75,69.52 81.22,134.94 7.08,71.37 -11.69,146.52 -51.46,206.15 -17.34,25.95 -45.79,46.42 -75.15,56.16 -1.03,0.34 -2.17,0.1 -2.99,-0.61 -0.82,-0.71 -1.22,-1.8 -1.01,-2.88 5.07,-26.91 7.29,-54.58 3.78,-82.29 -6.92,-53.76 -42.28,-116.49 -103.85,-132.95 -4.17,-1.11 -7.35,-4.56 -8.06,-8.82 -5.84,-33.77 -26.43,-64.37 -56.45,-81.12 -2.28,-1.27 -3.69,-3.67 -3.69,-6.26 -0.03,-3.35 -0.06,-6.71 -0.11,-10.06 -0.02,-1.19 0.64,-2.3 1.67,-2.88 1.06,-0.58 2.32,-0.5 3.32,0.16 13.65,9.17 30.2,15.53 50.14,18.22 5.07,0.69 9.83,1.03 14.31,1.03 14.9,0 26.7,-3.75 35.89,-11.33 5.44,-4.45 6.26,-12.54 1.75,-18 -4.49,-5.55 -12.62,-6.29 -18.01,-1.75 -6.12,5.04 -16.45,6.68 -30.52,4.65 -19.64,-2.67 -35.28,-8.98 -46.53,-18.67 -7.84,-6.84 -12.12,-15.79 -14.84,-26.12 -0.77,-9.88 -1.61,-19.51 -2.43,-28.86l-9.75 -111.38c-0.35,-3.98 -0.77,-8 -1.25,-12.04 -0.21,-1.95 0.56,-3.9 2.07,-5.14 1.5,-1.27 3.56,-1.69 5.46,-1.11 7.47,2.24 15.29,3.3 23.15,3.3 18.88,0 37.89,-5.65 52.1,-13.54 25.27,-14.11 42.28,-41.91 43.41,-70.82 0.23,-7.08 -5.25,-13.04 -12.33,-13.28 -8.01,-0.24 -13.02,5.22 -13.31,12.27 -0.74,20.21 -12.62,39.61 -30.26,49.44 -19.7,11.01 -47.13,15.98 -61.79,5.81 -22.05,-15.29 -42.92,-77.07 -50.04,-89.19l-39.9 -67.63c-7.28,-12.38 -15.15,-24.87 -24.23,-36.75 -0.82,-1.09 -0.87,-2.54 -0.16,-3.67 0.74,-1.13 2.11,-1.69 3.43,-1.37 3.2,0.74 6.36,1.35 9.48,1.35 17.13,0 33.46,-5.13 47.35,-15.48 18,-13.55 46.97,-56.82 40.82,-82.94 -1.56,-6.84 -8.08,-11.16 -15.39,-9.54 -6.87,1.65 -11.15,8.51 -9.52,15.43 2.84,12.12 -17.26,46.02 -31.31,56.56 -16.95,12.77 -49.15,17.79 -84.1,-10.06 -5.99,-4.78 -12.25,-9.06 -18.51,-13.31 -16.71,-11.46 -31.13,-22.45 -44.78,-38.58 -13.44,-15.95 -27.38,-32.45 -43.51,-46.87 -12.17,-10.9 -25.35,-19.77 -38.95,-27.67 -2.99,-1.75 -4.83,-4.91 -4.85,-8.37 -0.37,-32.88 1.87,-63.66 19.24,-85.69 51.78,-65.75 81.63,-66.22 139.59,-61.47 6.99,0.29 13.2,-4.62 13.81,-11.7 0.63,-7.02 -4.62,-13.23 -11.7,-13.81 -61.47,-5.33 -102.19,-4.56 -161.83,71.13 -2.7,3.41 -4.94,7 -6.95,10.67 -0.69,1.24 -2.11,1.9 -3.5,1.64 -1.41,-0.29 -2.46,-1.46 -2.6,-2.86 -6.91,-66.86 -8.5,-137.75 11.99,-187.69 2.01,-4.88 5.2,-9.22 9.3,-12.57 6.26,-5.12 12.44,-10.27 18.48,-15.4 13.02,-11.08 26.09,-22.21 39.85,-32.37 120.21,-88.86 277.72,-116.53 353.87,13.68zm-259.84 1317.84c-19.64,-1.04 -36.51,8.47 -54.1,28.46 -29.16,33.17 -42.52,123.52 -39.08,144.04 1.05,6.29 6.44,10.72 12.62,10.72 0.68,0 1.37,-0.05 2.14,-0.19 6.94,-1.16 11.69,-7.76 10.5,-14.73 -1.69,-10.32 3.48,-49.28 13.71,-82.05 0.47,-1.53 1.66,-2.75 3.2,-3.23 1.53,-0.5 3.2,-0.21 4.48,0.77 36.7,27.62 43.76,77.66 32.91,117.34 -15.59,57.25 -63.98,98.39 -101.8,122.81 -52.71,34.09 -105.7,54.61 -160.74,63.69 -1.29,0.21 -2.59,-0.37 -3.28,-1.45 -0.71,-1.09 -0.68,-2.52 0.06,-3.59 19.8,-29.45 34.7,-63.05 42.59,-99.23 14.4,-65.91 6.58,-139.77 -20.86,-210.14 -1.35,-3.45 0.16,-7.34 3.46,-9 7.76,-3.91 15.13,-8.64 21.84,-14.63 24.89,-22.22 34.33,-53.11 37.83,-75.1 0.19,-1.17 0.29,-2.33 0.37,-3.49 0.24,-4.56 3.33,-8.53 7.72,-9.88 34.88,-10.85 69.36,-23.65 102.6,-38.26l62.3 -27.62c24,-7.82 32.9,-12.94 75.18,21.29 45.71,37.01 55.69,139.42 32.08,178.6 -3.69,6.08 -1.74,13.95 4.3,17.61 2.06,1.25 4.38,1.86 6.63,1.86 4.3,0 8.56,-2.23 10.93,-6.18 7.87,-13.05 11.77,-27.2 13.89,-41.75 0.24,-1.67 1.35,-3.07 2.91,-3.67 1.56,-0.61 3.32,-0.32 4.62,0.77 15,12.41 32.76,19.75 50.88,20.12 0.05,0 0.18,0 0.23,0 6.95,0 12.71,-5.57 12.81,-12.57 0.13,-7.07 -5.49,-12.91 -12.57,-13.07 -17.95,-0.34 -36.78,-11.48 -49.09,-29.08 -4.88,-6.97 -7.61,-11.98 -9.64,-17.1 -2.14,-15.93 -5.12,-31.74 -9.01,-46.85 -7.87,-30.73 -14.98,-43.4 -31.18,-58.27 -1.33,-1.22 -1.96,-2.99 -1.72,-4.75 0.24,-1.77 1.32,-3.32 2.88,-4.14 1.22,-0.64 2.49,-1.33 3.8,-2.07l9.32 -5.06c24.45,-12.86 52.6,-29.11 75.55,-52.1 21.9,-21.71 36.16,-47.48 41.52,-73.49 0.39,-1.85 1.56,-3.45 3.22,-4.35 1.67,-0.93 3.62,-1.06 5.42,-0.42 43.75,16.16 71.84,64.53 77.55,108.66 6.99,55.14 -11.2,112.54 -28.84,162.02 -3.56,10.03 -6.63,18.32 -11.33,25.66 -8.87,14.26 -23.81,24.95 -38.34,34.68 -75.05,50.24 -137.89,73.72 -197.62,73.72 -0.6,0 -1.21,-0.02 -1.82,-0.08 -2.51,-0.21 -4.46,-2.24 -4.54,-4.75 -1.32,-40.61 -18.38,-80.56 -54.4,-103.21 -1.95,-1.24 -2.54,-3.8 -1.35,-5.76 1.4,-2.3 2.86,-4.4 4.36,-6.12 12.12,-13.79 22.63,-20.41 33.21,-19.81 6.77,-0.79 13.08,-4.93 13.58,-11.98 0.53,-7.06 -4.83,-13.13 -11.91,-13.6zm-59.2 -512.74c-1.19,-2.25 -2.96,-3.96 -4.32,-6.07 10.37,1.08 20.73,2.51 31.26,2.51 0.87,0 1.82,0 2.69,0 38.77,-0.45 72.86,-10.37 98.68,-28.81 5.76,-4.09 7.08,-12.1 3.02,-17.85 -4.07,-5.73 -12.07,-7.13 -17.88,-2.96 -27.2,19.38 -60.73,23.73 -84.04,23.97 -0.82,0.02 -1.64,0.02 -2.44,0.02 -23.97,0 -48.14,-4.01 -71.98,-8.45 -1.13,-0.32 -2.3,-0.37 -3.45,-0.63 -5.04,-0.96 -10.16,-1.75 -15.16,-2.73 -20.92,-4.03 -41.83,-9.22 -56.04,-20.46 -5.68,-4.49 -7.87,-12.09 -5.49,-18.93 8.9,-25.54 9.54,-52.6 0.93,-76.18 -3.62,-10 -8.64,-18.64 -14.82,-25.72 -3.67,-4.19 -7.74,-7.73 -11.96,-10.92 -1.85,-1.43 -2.43,-3.96 -1.35,-6.05 2.62,-4.99 5.36,-12.57 7.55,-17.32 18.67,-40.24 50.38,-74.83 89,-96.53 6.17,-3.46 8.37,-11.25 4.93,-17.45 -3.5,-6.18 -11.43,-8.38 -17.45,-4.89 -47.66,26.75 -85.68,71.03 -105.41,121.95 -0.37,0.92 -1.14,1.66 -2.09,1.95 -0.95,0.32 -1.98,0.16 -2.83,-0.37 -1.56,-1 -3.07,-2.03 -4.49,-3.2 -10.05,-8.21 -18.05,-19.14 -26.59,-30.73 -5.8,-7.95 -11.61,-15.9 -18.19,-23.12 -1.93,-2.17 -4.14,-3.93 -6.33,-5.73 -2.38,-1.96 -3.8,-4.86 -3.93,-7.93 -1.7,-46.6 5.46,-94.37 20.78,-138.55 2.38,-6.65 -1.19,-13.97 -7.87,-16.3 -6.81,-2.27 -14.02,1.22 -16.27,7.93 -13.47,38.71 -20.63,80.01 -21.87,121.1 -0.05,1.8 -1.08,3.43 -2.7,4.22 -1.58,0.82 -3.5,0.69 -4.98,-0.32 -6.1,-4.17 -12.25,-8.24 -18.41,-12.14 -8.77,-5.57 -17.5,-11.09 -25.87,-17.03 -23.09,-16.25 -51.15,-42.36 -53.85,-74.76 -0.63,-7.02 -5.7,-13.07 -13.81,-11.69 -7.07,0.6 -12.25,6.78 -11.69,13.81 2.83,33.93 24.58,65.4 64.59,93.58 8.77,6.15 17.82,11.91 26.88,17.69 20.94,13.36 40.82,25.98 56.34,43.24 5.99,6.63 11.25,13.92 16.58,21.13 9.01,12.38 18.37,25.16 31.07,35.49 5.81,4.73 12.12,8.77 18.51,12.76 8.56,5.38 16.63,10.45 22.45,17.08 4.12,4.69 7.5,10.63 10.06,17.61 9.88,27.3 3.51,61.15 -16.69,88.41 -30.12,40.56 -57.21,65.9 -80.53,75.31 0,0 0,0 -0.03,0 -13.44,2.64 -27.49,6.26 -43.88,12.22 -32.54,11.86 -62.79,27.36 -90.49,45.52 -0.93,0.61 -2.12,0.64 -3.05,0.08 -0.95,-0.55 -1.5,-1.61 -1.42,-2.72 2.43,-32.32 1.08,-67.07 -14.48,-98.23 -3.2,-6.41 -11,-9.03 -17.13,-5.73 -6.39,3.18 -8.95,10.85 -5.75,17.16 15.77,31.63 13.81,70.21 9.88,104.49 -0.64,5.62 -3.4,10.77 -7.74,14.42 -11.38,9.56 -22.21,19.59 -32.11,30.23 -46.08,49.63 -76.46,111.43 -85.66,174.09l-0.82 5.89c-1.24,9.51 -2.43,18.48 -5.57,26.43 -4.62,11.83 -13.81,21.87 -23.49,32.48 -6.95,7.58 -14.13,15.4 -20.07,24.34 -11.88,17.77 -17.45,37.79 -21.13,54.08 -4.35,-4.99 -9.62,-9.77 -15.85,-14.47 -24.45,-18.46 -54.71,-29.02 -85.23,-29.71 -7.77,-1.53 -12.89,5.38 -13.13,12.46 -0.13,7.11 5.44,12.94 12.52,13.1 25.19,0.58 50.22,9.32 70.47,24.58 9.01,6.84 15.13,13.6 18.64,20.7 3.69,7.5 4.59,16.38 4.65,25.59 -6.55,74.36 6.81,153.15 38.81,226.72 0.82,1.9 0.43,4.14 -1.06,5.62 -1.48,1.48 -3.69,1.93 -5.62,1.11 -4.85,-2.06 -9.85,-3.93 -15.05,-5.38 -24.82,-6.92 -50.64,-8.27 -74.87,-8.72 -27.83,-0.5 -55.72,-0.03 -83.27,1.64 -10.62,0.61 -21.42,2.17 -32.03,4.81 12.33,-34.76 18.19,-71.48 23.28,-105.18 1.01,-6.99 -3.79,-13.54 -10.82,-14.57 -7.18,-1.17 -13.44,3.74 -14.58,10.74 -6.6,44.09 -14.02,89.27 -34.41,128.44 -15.45,18.14 -31.26,39.24 -44.41,53 -20.25,14.6 -44.44,23.52 -70.1,20.01 -27.78,-3.74 -54.35,-22.26 -71.16,-49.56 -14.76,-24 -22.58,-55.13 -22.64,-89.96 -0.13,-59.99 22.4,-120.36 61.72,-165.53 29.1,-33.49 69.36,-61.4 121.92,-85.43 7.02,15.98 16.35,30.69 26.72,44.34 14.32,18.9 27.89,36.77 29.94,57.4 0.69,6.6 6.26,11.54 12.75,11.54 0.45,0 0.87,-0.03 1.32,-0.06 7,-0.71 12.12,-7 11.44,-14.05 -2.84,-27.8 -19.25,-49.43 -35.1,-70.31 -13.2,-17.37 -25.64,-33.8 -29.66,-52.55 -4.01,-19.19 1.32,-40.11 7.63,-59.83 14.45,-44.97 49.28,-69.08 52.6,-76.55 2.89,-6.44 0,-13.99 -6.44,-16.92 -17.45,-7.79 -62.81,61.71 -70.52,85.61 -6.79,21.23 -12.1,43.93 -8.91,66.88 -57.19,25.85 -101.03,56.27 -133.06,93.11 -32.79,37.62 -54.32,84.81 -63.05,134.12 -0.29,1.71 -1.51,3.12 -3.17,3.69 -1.64,0.55 -3.46,0.18 -4.75,-0.98 -13.23,-12.01 -24.21,-26.72 -32.72,-43.01 -7.66,-14.66 -11.43,-30.76 -11.14,-47.29 0.82,-44.1 3.48,-88.44 13.89,-130.23 4.17,-9.54 8.64,-19.2 13.97,-29.42 75.39,-143.89 190.97,-238.95 326.51,-270.16 1.14,-0.26 2.36,-0.02 3.3,0.66 0.95,0.66 1.58,1.72 1.72,2.89 1.24,11.14 3.5,22.28 6.94,33.21 13.31,42.44 43.01,82.16 83.54,111.78 2.33,1.66 4.94,2.48 7.59,2.48 3.93,0 7.81,-1.85 10.32,-5.25 4.19,-5.73 2.93,-13.73 -2.75,-17.93 -36.21,-26.43 -62.54,-61.5 -74.28,-98.73 -12.84,-41.14 -7.77,-85.18 13.7,-117.74 15.21,-22.97 37.39,-40.03 60.97,-58.03 2.59,-1.99 5.07,-4.04 7.63,-6.05 1.99,-0.32 4.02,-0.63 5.76,-1.9 15.45,-11.51 38.26,-10.72 60.66,-9.8l6.62 0.21c40.64,1.42 74.23,-3.51 103.7,-14.58 6.62,-2.49 10,-9.88 7.5,-16.48 -2.52,-6.61 -9.88,-9.98 -16.51,-7.48 -26.33,9.88 -57.72,14.1 -93.8,12.94l-6.49 -0.24c-8.38,-0.31 -17.08,-0.39 -25.85,-0.1 27.65,-30.63 41.17,-63.4 36.99,-94.62 -0.96,-6.99 -7.64,-11.93 -14.4,-11 -6.99,0.95 -11.93,7.36 -11,14.39 5.38,40.14 -28.95,75.73 -49.85,93.4 -8.56,7.23 -17.51,14.07 -26.46,20.91 -24.26,18.54 -49.28,37.68 -66.86,64.32 -13.87,21.05 -21.42,46.08 -23.55,72.17 -0.16,1.8 -1.46,3.3 -3.23,3.66 -44.68,9.54 -87.62,26.33 -128.15,49.12 -1.38,0.77 -3.07,0.69 -4.35,-0.21 -1.3,-0.9 -1.96,-2.46 -1.72,-4.01 7.89,-50.09 22.71,-108.79 51.78,-151.91l5.49 -8.16c45.28,-67.44 120.89,-179.16 260.89,-173.43 7.5,-0.03 13.07,-5.12 13.44,-12.17 0.32,-7.08 -5.12,-13.08 -12.2,-13.42 -21.89,-1.03 -41.83,1.25 -60.76,5.12 -2.48,0.5 -5.07,-0.18 -6.94,-1.88 -1.91,-1.69 -2.89,-4.14 -2.68,-6.68 2.68,-31.31 -7.89,-46.31 15.48,-87.4 5.57,-9.85 12.81,-18.83 20.84,-28.71 14.81,-18.29 31.58,-39.05 53.39,-49.04 7.85,-3.61 16.43,-5.86 25.51,-7.79 2.25,-0.47 4.59,0.08 6.41,1.48 1.83,1.43 2.91,3.56 2.99,5.86 0.37,10.93 1.4,22.43 3.56,33.88 5.47,29.29 18.72,57.91 38.53,86.35 1.79,2.57 3.61,5.12 5.51,7.69 2.78,3.71 4.3,8.18 4.46,12.8 1.09,30.92 28.26,105.78 55.75,130.2 2.43,2.17 5.49,3.26 8.5,3.26 3.51,0 7.08,-1.48 9.57,-4.3 4.69,-5.28 4.25,-13.39 -1.06,-18.06 -12.78,-11.38 -26.72,-40.01 -36.29,-68.4 -0.47,-1.4 0.08,-2.93 1.35,-3.71 1.25,-0.77 2.89,-0.59 3.93,0.45 6.23,6.25 12.68,12.51 19.94,18.77 32.77,28.2 68.23,53.71 105.49,75.87 2.06,1.21 4.3,1.82 6.57,1.82 4.38,0 8.64,-2.25 11.01,-6.28 3.62,-6.08 1.64,-13.95 -4.43,-17.53 -36.02,-21.39 -70.29,-46.03 -101.88,-73.25 -59.09,-50.78 -92.36,-99.97 -101.79,-150.35 -3.8,-20.36 -4.3,-42.6 -1.51,-72.06 2.96,-31.05 9.11,-56.9 17.9,-78.9 1.95,-4.88 5.6,-9.03 10.21,-11.54 13.13,-7.13 26.88,-13.46 40.64,-19.83 34.28,-15.9 69.79,-32.29 99.31,-60.47 5.18,-4.91 9.67,-10.4 14.37,-15.74 1.24,-0.24 2.43,-0.5 3.64,-0.77 1.08,-0.23 2.25,0.06 3.09,0.8 0.85,0.74 1.27,1.85 1.17,2.96 -1.38,14.1 -1.59,28.28 0.26,42.33 0.87,6.44 6.39,11.14 12.7,11.14 0.56,0 1.14,-0.05 1.7,-0.13 6.99,-0.95 11.93,-7.37 11,-14.39 -3.64,-27.41 0.59,-55.49 10.35,-81.44 1.56,-4.14 4.3,-7.77 7.87,-10.37 17.35,-12.68 36.67,-23.71 57.62,-34.46 31.21,-16.01 39.21,-20.79 50.66,-27.94 0.98,-0.61 2.25,-0.59 3.18,0.08 0.95,0.66 1.43,1.85 1.16,2.96 -15.74,73.54 -2.41,174.94 6.31,239.26 0.16,1.19 -0.32,2.38 -1.27,3.15 -0.95,0.74 -2.22,0.95 -3.35,0.5 -59.65,-23.31 -124.34,-26.83 -175.09,-23.79 -7.07,0.45 -12.43,6.5 -12.01,13.55 0.37,7.02 5.49,11.77 13.52,12.04 69.73,-4.15 167.28,3.58 235.14,64.24 14.82,13.23 27.57,28.33 41.03,44.33 13.95,16.51 28.39,33.59 45.21,48.35 6.07,5.28 12.38,10.24 18.69,15.21 9.88,7.77 19.2,15.06 27.33,23.5 13.26,13.87 23.4,31.13 33.22,47.85l39.85 67.6c11.01,18.67 22.31,37.97 28.84,58.12 6.68,20.78 8.64,43.48 10.56,65.43 15.53,177.21 26.96,260.81 -9.06,339.29 -2.94,6.44 -0.14,14.05 6.31,16.97 1.69,0.82 3.5,1.19 5.3,1.19 4.81,0 9.51,-2.78 11.62,-7.47 15.39,-33.57 22.39,-69.76 25.05,-105.97 0.11,-1.43 1.01,-2.7 2.36,-3.25 1.32,-0.56 2.85,-0.32 3.95,0.63 21.74,18.67 35.13,47.64 32.11,75.99 -2.51,23.92 -15.32,48.54 -36.15,69.24 -20.57,20.58 -46.66,35.6 -69.35,47.56l-9.75 5.28c-5.83,3.23 -9.32,5.02 -13.38,6.13 -6.13,1.64 -12.65,0.63 -17.98,-2.8 -20.07,-12.89 -33.25,-15.35 -49.41,-12.34 -1.88,0.35 -3.8,-0.34 -5.02,-1.85 -1.22,-1.48 -1.51,-3.5 -0.79,-5.28 14.89,-36.88 11.59,-81.83 -3.32,-117.16 -8.78,-20.65 -19.52,-35.54 -32.91,-45.57 -3.12,-2.35 -6.39,-4.28 -9.74,-5.97 -4.2,-2.14 -6.13,-7.07 -4.41,-11.45 1.4,-3.59 2.51,-7.27 3.45,-10.85 9.28,-35.73 13.89,-72.62 13.81,-109.53 -0.1,-20.25 -1.66,-46.63 -13.73,-69.41zm-1055.67 134.54c-13.46,-25.85 -36.28,-46.29 -62.81,-58.3 -1.4,-0.64 -2.46,-1.8 -2.96,-3.23 -0.5,-1.43 -0.4,-3.01 0.26,-4.35 2.57,-5.1 5.15,-10.19 7.93,-15.16 0.47,-0.85 1.42,-1.33 2.4,-1.19 0.98,0.13 1.75,0.84 1.99,1.79 2.61,10.62 6.94,20.44 13.17,27.65 12.12,13.89 31.32,22.24 52.84,22.82 6.71,0.19 13.65,-0.71 20.68,-2.19 0.9,-0.19 1.82,0.16 2.38,0.87 0.55,0.71 0.66,1.69 0.23,2.51 -6.17,12.23 -12.46,24.48 -18.56,36.62l-5.43 10.85c-0.45,0.87 -1.35,1.38 -2.31,1.3 -0.95,-0.08 -1.79,-0.72 -2.08,-1.64 -2.15,-6.29 -4.62,-12.47 -7.72,-18.35zm394.02 -354.65c0.96,5.2 -1.93,10.32 -6.86,12.22 -91.15,35.1 -146.42,117.32 -180.3,167.76l-5.44 8.11c-36.05,53.39 -52.07,128.02 -59.28,184.63 -0.63,5.06 -3.4,9.67 -7.58,12.62 -30.76,21.65 -59.52,47.32 -86.11,76.17 -1.38,1.51 -3.64,1.75 -5.33,0.61 -1.69,-1.16 -2.25,-3.38 -1.35,-5.2l32.93 -65.65c57.66,-115 117.37,-233.93 196.79,-336.45 30.63,-39.56 64.72,-77.21 101.11,-111.8l8.56 -8.06c4.7,-4.38 9.43,-8.85 14.13,-13.41 0.9,-0.88 2.25,-1.03 3.3,-0.4 1.05,0.63 1.58,1.9 1.24,3.09 -3.5,13.02 -9.54,55.7 -5.81,75.77zm260.29 -787.12c10.24,-5.65 21.2,-10.06 32.48,-13.23 0.6,-0.14 1.21,-0.27 1.82,-0.37 9.7,-2.59 19.7,-3.38 29.71,-4.09 17.77,0.18 48.51,6.63 67.34,11.03 7.95,3.32 16.22,5.99 23.36,10.85 3.88,2.59 8.96,2.83 13.07,0.79 9.67,-5.01 20.1,-8.26 30.76,-10.45 4.15,-0.13 8.43,-0.24 12.84,-0.34 2.08,-0.06 3.95,1.32 4.51,3.35 0.58,2.03 -0.32,4.16 -2.12,5.2 -19.01,11.01 -32.71,25.08 -39.76,41.64 -0.85,1.96 -2.89,3.1 -4.99,2.73 -12.39,-2.12 -25.48,-3.49 -39.48,-3.62 -19.33,-0.18 -44.65,0.4 -68.79,6.97 -4.85,1.33 -9.67,3.07 -14.42,5.04 -2.64,1.12 -5.7,-0.02 -6.97,-2.59 -8.16,-16.24 -26.51,-34.54 -39.98,-45.36 -1.22,-0.95 -1.85,-2.46 -1.72,-3.96 0.11,-1.48 0.98,-2.85 2.33,-3.58zm-470.24 155c6.77,-6.92 13.6,-13.86 21.29,-21.05 6.07,-5.35 12.09,-10.26 17.77,-14.52 39.02,-29.08 84.68,-50.09 128.88,-70.42 16.58,-7.64 36.54,-16.01 57.61,-23.66 1.96,-0.71 4.12,-0.03 5.34,1.67 1.19,1.69 1.11,3.98 -0.21,5.57 -4.28,5.17 -8.27,10.58 -11.75,16.37 -3.7,6.08 -1.75,13.95 4.3,17.61 5.94,3.62 13.89,1.67 17.55,-4.35 13.71,-22.63 34.47,-41.06 58.39,-53.15 14.28,-7.21 29.72,-11.04 45.73,-11.38 17.45,-0.37 33.19,-0.08 46.45,0.58 6.94,0.34 13.73,1.67 20.3,3.93 39.4,13.57 53.55,33.85 75.21,62.87 0.87,1.16 1.24,2.64 1.03,4.09 -0.21,1.45 -1,2.75 -2.19,3.58 -8.03,5.84 -15.64,12.57 -22.82,19.89 -1.48,1.5 -3.8,1.79 -5.62,0.71 -56.22,-33.77 -125.67,-32.03 -173.12,-27.49 -24.64,2.35 -50.54,6.15 -73.54,17.98 -16.33,8.43 -30.52,20.73 -41.91,30.63 -6.47,5.62 -12.57,11.61 -18.78,17.53 -4.35,4.16 -9.74,6.99 -15.66,8.24 -0.21,0.05 -0.45,0.1 -0.66,0.18 -46.66,15.43 -109.05,38.18 -151.83,55.35 -2.78,1.12 -5.49,2.28 -8.22,3.43 -1,0.43 -2.17,0.19 -2.9,-0.63 -0.74,-0.82 -0.88,-2.01 -0.32,-2.97 8.58,-15.18 18.9,-28.7 29.65,-40.61zm-232.21 251.25c30.21,-43.59 65.7,-78.79 103.88,-104.43 0.87,-0.59 2.01,-0.59 2.88,0.02 0.87,0.61 1.27,1.67 1.03,2.7 -1.48,6.31 -2.62,12.68 -2.91,19.12 -1.56,35.78 14.32,69.65 40.09,91.84 0.6,0.52 0.95,1.29 0.87,2.08 -0.08,0.8 -0.48,1.54 -1.14,1.99 -3.74,2.48 -7.21,5.17 -10.34,8.11 -0.72,0.66 -1.78,0.87 -2.68,0.5 -29.5,-11.48 -65.82,-6.58 -97.77,13.84 -23.29,14.86 -42.39,36.26 -60.02,58.67 -11.81,15 -19.25,25 -30.31,40.56l-24.21 33.98c-0.29,0.4 -0.74,0.64 -1.25,0.64 -0.71,0 -1.5,0 -2.32,0 -0.66,0 -1.27,-0.32 -1.62,-0.85 -0.37,-0.53 -0.42,-1.22 -0.18,-1.82 18.3,-45.1 48.75,-113.18 86,-166.94zm-256.39 371.05c14.18,-36.18 33.21,-71.5 56.55,-101.21 22.27,-22.24 48.54,-44.36 68.79,-60.32 7.43,-3.79 14.87,-7.02 22.32,-9.3 1.03,-0.31 2.17,0.06 2.8,0.93 0.64,0.87 0.67,2.06 0.06,2.96 -22.85,33.11 -45.02,66.7 -66.25,100.77 -17.32,27.89 -32.83,55.56 -32.72,87.46 0.03,9.01 2.33,19.03 5.52,29.39 0.23,0.74 0.1,1.53 -0.32,2.19 -0.45,0.64 -1.14,1.06 -1.91,1.12 -21.44,1.71 -42.3,7.02 -62.66,14.92 -0.82,0.32 -1.77,0.18 -2.49,-0.35 -0.71,-0.55 -1.08,-1.42 -0.98,-2.3 1.88,-17.4 5.52,-41.99 11.28,-66.25zm-159.6 258.64c9.22,-24.76 21.92,-49.27 39.61,-71.37 12.41,-15.5 25.24,-28.62 38.26,-40.8 8.13,-6.81 16.08,-13.23 23.68,-19.11 37.15,-28.36 76.31,-45.23 117.48,-48.06 4.9,-0.35 9.53,2.38 11.64,6.84 3.48,7.44 7.18,14.84 11.01,22.1 1.87,3.53 1.85,7.77 -0.06,11.27 -20.78,38.48 -38.68,76.05 -49.54,114.85 -0.45,1.66 -1.96,2.83 -3.66,2.9 -47.93,1.78 -103.3,43.33 -124.08,67.47 -26.28,30.63 -25.75,15.16 -67.42,43.51 -0.39,0.27 -0.92,0.32 -1.37,0.11 -0.45,-0.21 -0.74,-0.66 -0.77,-1.14 -0.93,-16.55 -0.77,-54.5 5.2,-88.57zm-28.68 146.71c17.05,-21.12 38.79,-38.52 63.5,-49.48 1.27,-0.56 2.78,-0.37 3.85,0.5 1.09,0.87 1.62,2.27 1.35,3.64 -6.34,33.27 -0.42,68.95 20.33,95.92 0.32,0.43 0.96,0.27 1.3,0.64 -1.24,3.17 -2.8,6.54 -3.93,9.56 -21.31,57.56 -33.56,118.69 -36.99,180.17 -0.11,1.58 -1.01,3.01 -2.41,3.72 -1.4,0.74 -3.09,0.66 -4.43,-0.19 -19.06,-11.93 -35.47,-28.04 -48.48,-46.53 -8.01,-17.47 -28.23,-69.16 -26.62,-100.95 1.03,-20.12 16.52,-60.86 32.53,-97.01zm124.08 503.85c0.05,1.67 -0.8,3.23 -2.28,4.06 -1.45,0.82 -3.23,0.77 -4.64,-0.13 -26.2,-16.82 -49.69,-40.14 -68.87,-69.36 -22.29,-33.99 -39,-75.15 -50.99,-125.88 -2.4,-10.21 -4.35,-21.47 -5.28,-32.87 0.4,-11.33 0.96,-22.37 1.64,-32.35 0.32,-1.66 1.49,-2.98 3.04,-3.48 1.56,-0.5 3.26,-0.13 4.44,1.01 13.46,12.56 28.55,23.28 45.12,31.28 1.56,0.74 2.54,2.33 2.54,4.01 0.03,14.56 -0.03,29.11 1.11,43.57 4.38,55.67 21.23,127.35 72.64,168.99 1.14,0.93 1.78,2.33 1.65,3.77 -0.17,2.41 -0.22,4.86 -0.11,7.37zm251.41 154.24c0,0.79 -0.32,1.53 -0.9,2.09 -0.59,0.53 -1.35,0.82 -2.15,0.76 -19.69,-1.34 -39.21,-7.2 -56.53,-16.97 -1.56,-0.87 -2.35,-2.64 -2.01,-4.38 0.35,-1.75 1.78,-3.07 3.54,-3.3 19.14,-2.48 37.38,-7.31 54.02,-17 0.9,-0.52 1.99,-0.52 2.89,0 0.9,0.53 1.42,1.49 1.42,2.52l-0.28 36.31zm0.52 -75.1c0,0.24 -0.1,0.47 -0.26,0.66 -3.98,4.17 -8.37,7.98 -13.18,11.17 -24.89,16.45 -57.53,18.24 -91.6,18.74 -2.03,0.06 -4.03,0.08 -6.01,0.11 -24.22,0.08 -47.62,-7.98 -66.73,-22.88 -2.65,-2.06 -5.31,-4.19 -8.03,-6.39 -15.43,-17.98 -31.05,-43.48 -37.6,-65.16 -0.5,-1.67 0,-3.46 1.29,-4.62 1.3,-1.16 3.12,-1.48 4.73,-0.82 30.55,12.65 64.03,16.11 94.11,17.69 7.45,0.39 15,0.71 22.58,0.71 17,0 34.2,-1.64 50.59,-7.66 16.14,-5.94 31.53,-16.08 48.54,-31.92 0.39,-0.4 0.74,-0.79 1.06,-1.22 0.15,-0.23 0.47,-0.31 0.73,-0.21 0.27,0.11 0.46,0.35 0.46,0.64l-0.67 91.15zm1.25 -181.12l-0.19 25.87c-0.1,17.51 -7.42,34.17 -20.2,46.14 -14.39,13.44 -27.07,21.89 -39.9,26.64 -19.14,7.07 -40.64,6.47 -62.89,5.38 -33.7,-1.79 -72.22,-5.2 -102.51,-23.28 -55.03,-33.01 -71.79,-105.76 -76.14,-160.89 -6.68,-84.92 5.38,-172.06 35.01,-252.02 5.39,-14.47 12.2,-31.23 22.03,-45.63 24.47,-35.78 69.29,-56.01 112.28,-52.31 2.14,0.19 4.06,1.38 5.2,3.18 1.13,1.82 1.35,4.06 0.58,6.07 -4.59,11.93 -8.51,24.34 -11.35,37.28 -10.69,48.65 -9.38,103.24 3.88,162.23 5.7,25.59 16.5,59.81 41.4,82.55 1.38,1.27 1.93,3.2 1.43,5.02 -0.53,1.79 -2.01,3.14 -3.85,3.48 -4.83,0.87 -9.64,1.98 -14.26,3.77 -36.57,14.15 -64.4,49.85 -69.16,88.78 -0.88,7 4.11,13.41 11.14,14.29 0.5,0.05 1.06,0.1 1.56,0.1 6.39,0 11.88,-4.75 12.7,-11.24 3.69,-29.84 25,-57.17 53.02,-68 19.51,-7.63 41.33,-7.95 64.16,-7.53 9.35,0.13 18.75,0.4 28.15,0.77 3.26,0.13 6.31,1.59 8.48,4.01 2.17,2.43 3.23,5.65 2.97,8.9 -2.73,32.37 -3.3,64.66 -3.51,96.43zm19.83 -192.63c-3.17,10.74 -5.62,21.55 -7.74,32.34 -1.32,6.76 -6.1,12.36 -12.57,14.71 -0.74,0.27 -1.53,0.56 -2.35,0.8 -22.9,7.34 -46.84,5.44 -63.71,-5.1 -26.51,-16.32 -37.07,-51.8 -42.71,-77.07 -12.43,-55.35 -13.76,-106.18 -3.87,-151.14 11.56,-52.15 38.52,-96.35 75.92,-124.5 5.62,-4.25 6.81,-12.25 2.56,-17.93 -4.3,-5.68 -12.33,-6.81 -17.95,-2.54 -22.77,17.11 -41.54,39.74 -56.43,65.72 -1.64,2.89 -5.09,4.12 -8.21,3.02 -34.67,-12.44 -110.88,6.76 -148.71,62.06 -2.44,3.53 -4.28,7.26 -6.23,10.95 -0.32,0.58 -0.93,0.98 -1.62,0.95 -0.66,0 -1.29,-0.39 -1.58,-0.98 -16.85,-33.19 -13.87,-76.01 10.53,-104.48 16.81,-19.54 61.68,-51.83 97.33,-57.75 1.29,-0.21 2.61,0.21 3.5,1.16 0.93,0.96 1.3,2.28 1.03,3.56 -1.61,7.72 -3.4,15.4 -4.11,23.37 -0.64,7.02 4.62,13.23 11.61,13.86 0.37,0.03 0.74,0.06 1.14,0.06 6.57,0 12.2,-5.05 12.75,-11.73 5.65,-64.66 35.2,-124.28 71.56,-188.63 0.82,-1.46 2.49,-2.25 4.12,-1.96 1.66,0.27 2.96,1.56 3.25,3.2 4.85,26.75 18.11,50.83 51.88,57.4 1.51,0.3 2.73,1.46 3.1,2.94 0.37,1.51 -0.16,3.1 -1.35,4.04 -17.88,14.44 -36.7,32.21 -56.5,54.58 -4.7,5.28 -4.25,13.39 1.05,18.06 2.44,2.19 5.49,3.25 8.51,3.25 3.51,0 7.08,-1.48 9.56,-4.3 41.97,-47.32 107.4,-103.77 170.85,-100.95 6.76,-0.16 13.07,-5.2 13.39,-12.25 0.26,-7.08 -5.21,-13.04 -12.26,-13.31 -41.16,-2.64 -86.18,26.62 -122.88,24.24 -32.8,-2.09 -43.36,-20.6 -42.23,-77.42 0.13,-6.63 2.01,-13.02 5.41,-18.72 43.91,-73.09 89.43,-136.73 153.82,-180.28 5.81,-3.93 7.37,-11.9 3.43,-17.76 -4.01,-5.94 -12.02,-7.45 -17.82,-3.43 -82.42,55.75 -134.57,139.63 -189.41,235.51 -0.9,1.58 -1.77,3.14 -2.62,4.69 -0.45,0.85 -1.35,1.35 -2.3,1.33 -0.95,-0.03 -1.82,-0.56 -2.25,-1.43 -9.66,-19.33 -20.51,-44.47 -20.57,-61.58 -0.13,-25.11 13.58,-49.25 28.84,-73.84 42.28,-67.86 88.12,-134.3 136.2,-197.48 18.88,-24.79 37.83,-48.3 61.85,-63.66 17.55,-11.19 43.19,-19.22 67.04,-13.39 0.74,0.19 1.38,0.69 1.69,1.38 0.35,0.68 0.35,1.48 0.03,2.17 -4.7,10.37 -8.16,20.96 -10.48,30.3 -6.26,25.64 -12.01,50.83 -13.44,77.13 -3.17,55.17 8.11,101.19 34.46,140.61 -14.29,33.86 -22.74,69.6 -29.02,103.64 -1.33,6.97 3.25,13.63 10.24,14.95 0.74,0.13 1.56,0.21 2.32,0.21 6.08,0 11.43,-4.3 12.57,-10.48 6.5,-35.02 14.63,-72.03 29.89,-105.57 9.95,-21.84 22.95,-42.14 38.52,-60.41 4.57,-5.39 3.93,-13.47 -1.42,-18.06 -5.44,-4.57 -13.44,-3.93 -18.06,1.43 -12.15,14.23 -22.27,29.96 -31.34,46.26 -17.43,-31.79 -25.09,-67.39 -22.64,-111.17 1.38,-24.1 6.87,-48.06 12.81,-72.45 3.12,-12.73 6.76,-27.15 14.5,-37.57 11.43,-15.4 33.08,-24.56 66.17,-28 17.66,-1.79 44.22,-0.13 60.5,1.09 8.21,0.61 15.92,4.01 21.94,9.64 15.43,14.45 36.52,20.02 58.38,24.53 19.7,4.09 43.7,9.06 67.92,9.06 2.62,0 5.25,-0.05 7.87,-0.19 30.39,-1.4 57.09,-11.93 75.18,-29.68 5.07,-4.94 5.12,-13.04 0.19,-18.11 -4.88,-5.04 -13.07,-5.12 -18.06,-0.16 -13.63,13.28 -34.33,21.23 -58.46,22.37 -22.13,0.82 -43.46,-3.02 -69.41,-8.38 -20.76,-4.3 -40.35,-9.32 -50.59,-23.05 -10.01,-13.55 -9.38,-33.67 -7.77,-54.87 0.56,-7.08 -4.7,-13.23 -11.75,-13.76 -8.32,-1.01 -13.25,4.75 -13.76,11.75 -0.92,11.88 -1.66,27.33 1.14,42.64 0.16,0.8 -0.1,1.62 -0.66,2.2 -0.56,0.58 -1.35,0.9 -2.14,0.79 -20.97,-2.32 -39.14,-3.88 -63.13,-1.37 -12.44,1.29 -23.21,3.64 -33.2,6.49 -0.66,0.19 -1.37,0.11 -1.98,-0.24 -26.94,-15.34 -44.7,-47.74 -43.2,-80.61 1.51,-33.06 20.94,-65.59 50.78,-84.95 12.75,-8.21 27.2,-14.29 42.22,-20.28 25.93,-10.4 59.1,-22.84 91.55,-34.43 1.62,-0.58 3.43,0.08 4.3,1.53 0.9,1.48 0.64,3.38 -0.66,4.54 -14.55,13.34 -29.26,26.51 -43.06,40.32 -4.99,4.99 -4.99,13.13 0,18.14 2.51,2.51 5.81,3.75 9.06,3.75 3.25,0 6.57,-1.25 9.06,-3.75 39.71,-39.71 81.41,-78.69 123.94,-115.84 10.88,-9.48 23.21,-20.2 36.83,-27.19 18.01,-9.3 38.71,-12.81 64.17,-15.24 42.67,-4.04 103.56,-5.52 152.54,21.52 1.14,0.63 1.96,1.72 2.25,2.96 0.29,1.27 0.06,2.59 -0.69,3.67 -18.53,26.83 -28.04,54.55 -29.93,71.95 -0.24,2.17 -1.62,4.06 -3.59,5.02 -5.78,2.72 -11.49,5.67 -17.16,8.92 -3.35,1.93 -7.63,0.9 -9.75,-2.35 -33.77,-51.96 -108.56,-71.29 -135.56,-58.28 -6.44,3.02 -9.14,10.64 -6.13,17.03 3.02,6.34 10.56,9.19 17,6.1 14.9,-7.08 76.81,7.4 103.75,49.41 2.06,3.23 1.29,7.47 -1.75,9.75 -25.11,18.82 -48.32,40.53 -68.26,60.07 -2.75,2.7 -7.08,2.81 -9.92,0.27 -23.69,-20.97 -73.17,-37.97 -84.6,-39.45 -2.07,-0.27 -3.88,-1.4 -5.07,-3.12 -1.17,-1.72 -1.56,-3.83 -1.06,-5.86 0.53,-2.17 1.03,-4.33 1.51,-6.55 4.38,-20.94 8.5,-40.75 22.02,-52.81 5.25,-4.73 5.71,-12.81 1.01,-18.06 -4.81,-5.36 -12.94,-5.7 -18.14,-1 -19.7,17.66 -24.95,42.59 -29.94,66.67 -0.85,4.06 -1.75,8.08 -2.72,12.07 -1.12,4.48 -4.91,7.76 -9.51,8.21 -31.21,2.99 -64.38,13.23 -99.21,30.79 -18.32,9.19 -37.2,20.28 -57.67,33.93 -5.94,3.9 -7.5,11.88 -3.56,17.77 3.88,5.83 11.88,7.42 17.69,3.56 19.65,-13.05 37.65,-23.63 55.03,-32.38 46.29,-23.31 88.54,-32.63 126.38,-27.83 40.35,5.23 70.63,24.74 85.42,52.44 0.37,0.69 0.4,1.51 0.11,2.22 -0.32,0.72 -0.93,1.25 -1.67,1.46 -21.55,5.96 -40.8,17.45 -57.82,28.04 -6,3.75 -7.87,11.62 -4.12,17.64 2.43,3.9 6.63,6.07 10.88,6.07 2.32,0 4.69,-0.63 6.76,-1.93 17.82,-11.06 36.21,-22.53 56.09,-26.83 6.86,-1.48 13.81,-2.09 20.75,-2.48 30.95,-1.59 62.03,2.03 92,10.98 7,2.04 13.94,-1.88 15.95,-8.64 2.07,-6.79 -1.82,-13.92 -8.55,-15.95 -32.77,-9.72 -66.92,-13.87 -100.74,-11.99 -1.06,0.05 -2.07,-0.53 -2.49,-1.51 -0.69,-1.56 -1.48,-3.09 -2.3,-4.56 -1.56,-2.86 -1.03,-6.37 1.29,-8.66 41.15,-40.75 98.39,-94.38 151.1,-102.01 5.99,-0.87 12.06,-1.35 18.19,-1.83 10.63,-0.84 21.63,-1.69 32.63,-4.54 23.13,-5.96 40.33,-20.49 46.08,-38.76 2.06,-6.76 -1.69,-13.94 -8.45,-16.03 -6.81,-2.28 -13.94,1.66 -16.09,8.42 -3.56,11.54 -16.76,18.7 -27.96,21.58 -8.88,2.28 -18.32,3.04 -28.26,3.8 -6.68,0.53 -13.31,1.06 -19.88,2.04 -2.28,0.31 -4.51,0.92 -6.79,1.53 -1.11,0.32 -2.3,0 -3.09,-0.82 -0.82,-0.82 -1.11,-2.01 -0.8,-3.12 13.89,-48.06 54.67,-92.98 97.97,-104.7 21.07,-5.65 43.01,-6.31 61.84,-6.04 57.54,0.55 100.42,21.94 119.62,40.11 5.25,4.88 13.31,4.64 18.14,-0.53 4.88,-5.12 4.62,-13.26 -0.5,-18.11 -13.47,-12.7 -35.68,-25.4 -63.66,-34.54 -1.3,-0.43 -2.36,-1.43 -2.86,-2.73 -0.5,-1.29 -0.39,-2.72 0.29,-3.93 11.83,-20.8 37.6,-32.26 53.63,-37.28 29.78,-9.35 64.56,-10.9 91.5,-5.83 1.32,0.23 2.33,1.27 2.56,2.59 0.24,1.32 -0.37,2.64 -1.53,3.32 -7.08,4.2 -14.02,9.06 -20.62,14.95 -17.64,15.82 -31.21,34.78 -43.28,52.89 -3.93,5.89 -2.38,13.81 3.51,17.77 2.19,1.42 4.7,2.17 7.13,2.17 4.12,0 8.19,-2.02 10.64,-5.73 11.19,-16.71 23.63,-34.12 39.13,-48.04 11.19,-10 29.08,-22.53 50.77,-25.32 1.64,-0.21 3.35,-0.29 5.1,-0.26 7.13,0.02 14.05,1.82 20.28,5.3 17.13,9.54 33.96,20.49 49.38,31.26 2.41,1.67 3.64,4.59 3.17,7.48 -0.47,2.88 -2.56,5.25 -5.38,6.07 -50.06,14.66 -97.94,36.67 -137.89,66.2 -14.95,11.03 -29.16,23.05 -43.27,35.04 -3.43,2.94 -6.84,5.78 -10.22,8.61 -6.81,5.65 -15.69,8.27 -24.45,7.16 -2.54,-0.32 -5.09,-0.58 -7.66,-0.74 -11.01,-0.69 -22.02,-0.61 -32.77,-0.34 -11.93,0.13 -23.81,0.37 -35.78,-0.72 -16.69,-1.53 -39.45,-6.65 -53.34,-22.44 -4.75,-5.36 -12.81,-5.89 -18.06,-1.14 -5.31,4.64 -5.81,12.75 -1.19,18.06 15.45,17.47 39.71,28.23 70.24,31.02 12.8,1.22 25.5,0.98 38.52,0.82 4.64,-0.1 9.3,-0.08 13.94,0 1.25,0.03 2.33,0.85 2.65,2.06 0.34,1.19 -0.16,2.46 -1.22,3.15 -15.19,9.61 -27.99,16.08 -45.71,25.16 -29.44,15.11 -59.73,30.71 -86,54.03 -4.36,3.85 -10.03,5.91 -15.85,5.73 -28.33,-0.87 -56.37,-9.14 -74.44,-28.39 -4.8,-5.15 -13.02,-5.49 -18.06,-0.61 -5.2,4.86 -5.44,12.94 -0.55,18.11 17.53,18.72 42.01,29.64 68.07,34.41 2.28,0.42 4.17,2.04 4.94,4.22 0.77,2.2 0.32,4.65 -1.22,6.39 -5.17,5.97 -10.5,11.96 -15.61,16.82 -21.89,20.86 -51.09,34.38 -82.04,48.69 -3.43,1.59 -6.77,3.38 -10.19,4.97 -24.69,1.5 -55.19,-5.49 -68.5,-21.1 -4.52,-5.44 -12.57,-6.05 -18.06,-1.49 -5.39,4.57 -5.99,12.68 -1.43,18.04 5.12,6.04 24.77,17.76 40.06,21.73 1.3,0.34 2.27,1.4 2.51,2.7 0.24,1.32 -0.32,2.64 -1.43,3.4 -6.04,4.19 -12.83,8.69 -23.81,16.38 -25.24,17.45 -48.09,37.94 -68.69,60.65 -55.53,23.76 -119.75,24.03 -177.86,22.98 -50.46,-0.79 -94.99,-3.4 -128.88,-27.39 -5.81,-4.11 -13.76,-2.75 -17.83,3.05 -4.06,5.78 -2.75,13.75 3.07,17.84 24.61,17.48 53.32,24.9 81.76,28.39 1.51,0.19 2.7,1.35 2.88,2.86 0.21,1.51 -0.61,2.93 -2.01,3.5 -22.92,9.54 -44.75,21.47 -63.92,37.1 -5.49,4.46 -6.31,12.54 -1.88,18.01 4.51,5.49 12.51,6.25 18,1.82 52.6,-42.86 123.95,-62.64 190.99,-52.94 10.46,1.53 22.22,3.93 30.13,10.53 3.3,2.72 5.62,6.15 7.37,9.91 0.92,2.01 0.82,4.32 -0.32,6.25 -0.19,0.32 -0.37,0.61 -0.56,0.93 -8.64,15.13 -17.13,30.34 -27.88,44.09 -11.2,14.4 -25.01,27.36 -39.72,41.09l-8.78 8.48c-3.72,3.56 -8.25,6.01 -13.23,7.29 -29.61,7.39 -62.3,0.73 -86.22,-18.49 -5.49,-4.3 -13.52,-3.5 -18.01,2.01 -4.43,5.49 -3.5,13.58 2.01,18.01 18.99,15.21 43.15,25.06 70.21,26.75 1.8,0.1 3.35,1.24 4.01,2.93 0.67,1.67 0.3,3.56 -0.95,4.89 -22.98,24.31 -45.15,49.35 -65.54,75.65 -23.49,30.31 -44.88,61.95 -65.3,94.14 0.96,-23.57 1.06,-46.92 0.77,-69.05 -0.13,-7 -5.81,-12.62 -12.83,-12.62 -0.06,0 -0.14,0 -0.19,0 -7.08,0.13 -12.7,5.94 -12.62,13.01 0.53,38.18 0.5,79.62 -5.83,119.67 -21.63,37.05 -42.26,74.52 -61.88,112.23 -4.61,8.9 -12.25,15.87 -21.52,19.7 -9.54,3.9 -19.11,6.33 -28.04,6.49 -14.32,-0.45 -26.78,-5.54 -34.15,-14.05 -7.23,-8.34 -9.88,-23.89 -10.08,-37.07 -0.13,-8.21 2.09,-16.21 6.44,-23.18 4.3,-6.89 5.55,-13.7 -3.35,-18.64 -17.95,-10.18 -32.29,22.22 -44.46,41.73 -27.28,43.75 -51.25,104.54 -59.28,165.43 -0.95,7.02 4.01,13.44 11.01,14.39 0.55,0.06 1.13,0.13 1.69,0.13 6.31,0 11.83,-4.69 12.7,-11.14 4.25,-32.21 13.04,-63.87 25.22,-94.13 0.55,-1.41 1.69,-2.54 3.09,-3.1 1.4,-0.56 2.99,-0.53 4.38,0.08 21.44,9.67 39.79,26.11 50.62,46.92 5.67,10.9 9.11,22.82 10.5,35.02 1.25,10.8 -0.69,21.58 -5.54,31.29l-29.58 58.96c-17.9,35.65 -36.41,72.51 -48.35,112.99zm531.44 632.41c-16.68,25.64 -24.69,59.7 -6.79,87.53 1.06,1.67 2.41,3.18 3.83,4.65 0.85,0.87 1.03,2.17 0.47,3.23 -0.55,1.05 -1.74,1.64 -2.93,1.42 -4.65,-0.82 -7.53,-1.37 -7.69,-1.4 -1.82,-0.37 -3.69,-0.55 -5.57,-0.55 -1.32,0 -2.7,0.1 -4.01,0.29 -1.32,0.21 -131.13,18.35 -188.98,11.9 -49.56,-5.43 -88.28,-21.02 -121.68,-44.04 -1.16,-0.79 -1.53,-2.32 -0.87,-3.56 0.63,-1.24 2.11,-1.79 3.42,-1.32 8.88,3.35 17.93,6.63 27.2,9.88 1.43,0.5 2.83,0.74 4.25,0.74 5.31,0 10.24,-3.3 12.07,-8.56 2.38,-6.68 -1.14,-13.96 -7.82,-16.32 -43.49,-15.29 -82.47,-31.15 -114.1,-53.42 -22.77,-28.17 -44.89,-60.02 -68.82,-95.32 -1.32,-3.96 -3.2,-8.43 -4.3,-12.07 -3.01,-9.75 -4.67,-19.91 -6.97,-29.89l1.61 -232.98c0.03,-2.08 1.38,-3.93 3.35,-4.59 1.99,-0.66 4.17,0 5.41,1.67 9.49,12.46 22.72,27.57 33.91,34.3 3.51,2.12 5.52,6.07 5.09,10.14 -0.1,0.97 -0.16,1.95 -0.16,2.93 0.06,39.56 9.25,75.29 26.51,103.35 20.76,33.75 54.22,56.71 89.54,61.5 4.88,0.66 9.7,0.98 14.5,0.98 11.01,0 21.68,-1.88 31.92,-4.96 1.51,-0.45 3.15,-0.06 4.25,1.06 1.14,1.11 1.56,2.72 1.11,4.22 -1.19,4.16 -2.19,8.42 -2.64,12.88 -0.4,3.72 -0.24,7.32 -0.11,10.93 0.06,1.22 -0.42,2.38 -1.27,3.23 -35.36,34.88 -84.49,48.22 -96.98,45.47 -6.81,-1.46 -13.71,2.96 -15.13,9.88 -1.51,6.94 2.93,13.73 9.88,15.21 30.41,6.26 79.69,-19.43 104.11,-38.84 1.06,-0.85 2.49,-1.14 3.77,-0.8 1.32,0.35 2.38,1.3 2.88,2.57 10.17,25.61 29.66,47.16 51.55,62.11 1.08,0.74 1.77,1.96 1.85,3.28 0.08,1.32 -0.45,2.62 -1.46,3.48 -6.65,5.86 -13.94,11.88 -17.34,13.92 -16.32,9.91 -35.2,20.17 -52.28,16.43 -6.82,-1.43 -13.71,2.96 -15.14,9.88 -1.5,6.94 2.94,13.73 9.88,15.19 4.25,0.87 8.46,1.32 12.62,1.32 20.39,0 39.9,-9.86 58.15,-20.86 7.55,-4.54 22.31,-17.4 30.63,-25.62 1.21,-1.21 3.04,-1.58 4.64,-0.92 38.42,15.69 80.43,19.8 118.24,22.84l65.09 5.31c0.53,0.05 1.01,0.37 1.24,0.82 0.35,0.52 0.32,1.08 0.03,1.53zm-64.11 -33.14c-40.77,-3.3 -86.98,-7.03 -124.95,-26.73 -31.95,-16.63 -64.4,-53.04 -60.23,-93.76 1.66,-16.41 9.11,-31.53 19.25,-46.58 0,0 38.84,-50.7 53.05,-58.83 14.2,-8.14 41.03,-8.46 41.03,-8.46 26.96,-1.58 54.29,-2.32 81.31,-1.56 22.52,0.4 46.39,1.64 68.47,7.8 46.84,13.07 83.36,46.34 121.94,81.57 20.02,18.27 40.72,37.14 63.11,53.1 5.7,4.06 13.76,2.72 17.87,-3.02 4.07,-5.78 2.75,-13.76 -3.01,-17.87 -21.13,-15.05 -41.27,-33.4 -60.74,-51.12 -16.32,-14.87 -32.9,-29.81 -50.48,-43.35 -10.03,-7.74 -18.06,-17.45 -23.84,-28.74 -36.1,-70.6 -53.5,-147.68 -50.83,-221.04 0.08,-0.4 0.48,-0.64 0.53,-1.06 0.69,-7.55 1.06,-15.26 0.93,-22.95 1.4,-14.21 3.37,-28.28 6.39,-42.04 3.12,-14.5 8.05,-33.11 18.19,-48.35 4.93,-7.34 11.14,-14.13 17.69,-21.29 4.22,-4.59 8.34,-9.46 12.35,-14.39 8.69,11.3 20.57,17.9 32.06,22.84 20.2,8.62 42.15,10.56 61.6,12.28l151.6 13.63c0.37,0.02 0.74,0.05 1.14,0.05 6.57,0 12.11,-5.04 12.75,-11.67 0.63,-7.08 -4.57,-13.28 -11.62,-13.92l-151.59 -13.62c-18.38,-1.64 -37.34,-3.35 -53.79,-10.32 -16.77,-7.19 -23.55,-13.44 -26.65,-24.11 0.19,-0.45 0.53,-0.76 0.72,-1.21 4.19,-10.83 5.7,-21.79 7.08,-32.4l0.82 -5.6c8.37,-57.51 36.46,-114.45 79.03,-160.31 7.87,-8.48 16.57,-16.32 25.42,-24.08 0.11,-0.05 0.21,0.05 0.32,0 12.83,-4.96 19.46,-5.36 29.39,-2.06 12.89,4.35 24.77,11.67 37.26,19.38l51.59 31.89c2.15,1.33 4.44,1.93 6.76,1.93 4.25,0 8.46,-2.17 10.88,-6.1 3.75,-5.99 1.88,-13.89 -4.12,-17.61l-51.59 -31.92c-13.26,-8.16 -26.96,-16.6 -42.65,-21.89 -0.5,-0.16 -0.87,-0.61 -0.95,-1.14 -0.08,-0.53 0.16,-1.06 0.61,-1.35 27.14,-18.32 57,-33.96 89.32,-45.73 21.39,-7.77 38.76,-12.2 54.85,-13.94 40.96,-4.54 84.73,8.32 116.76,34.48 5.62,4.46 13.57,3.72 18.06,-1.82 4.43,-5.46 3.61,-13.55 -1.82,-18.01 -27.1,-22.07 -60.34,-35.67 -94.59,-39.71 -1.3,-0.16 -2.38,-1.03 -2.78,-2.27 -0.4,-1.25 -0.05,-2.6 0.87,-3.49 14.32,-13.46 29.18,-30.46 44.84,-51.59 0.07,-0.11 0.15,-0.21 0.23,-0.32 0.53,-0.79 1.4,-1.35 2.36,-1.45 0.98,-0.13 1.93,0.18 2.67,0.82 19.04,17.1 45.73,24.42 70.66,29.26 1.27,0.24 2.59,0.45 3.82,0.69 0.79,0.16 1.19,0.68 2.04,0.76 1.85,-0.16 3.72,0.4 5.57,0.61 2.38,0.45 4.78,0.85 7.16,1.27 10.79,3.69 20.99,12.59 27.27,24.47 9.38,17.69 10.64,39.06 10.64,57.62 0.05,34.78 -4.3,69.44 -12.94,103.11 -0.87,3.37 -1.98,6.94 -3.43,10.06 -2.11,4.56 -6.84,7.34 -11.85,6.91 -13.84,-1.16 -28.12,-0.45 -42.25,0.85 -49.15,4.54 -98.49,13.15 -146.53,25.64 -6.89,1.75 -11.01,8.77 -9.19,15.61 1.82,6.81 8.87,10.98 15.58,9.17 46.77,-12.09 94.7,-20.49 142.51,-24.9 27.38,-2.62 55.77,-2.88 75.23,11.83 9.7,7.26 17.77,18.72 24.64,35.09 18,42.47 16.5,100.98 -21.03,130.65 -9.88,7.82 -22.07,13.44 -33.64,18.54 -28.81,12.65 -58.64,23.44 -88.75,33.17 -2.14,0.68 -4.49,0.34 -6.34,-0.96 -1.82,-1.29 -2.96,-3.37 -3.04,-5.62 -0.32,-10.45 -1,-20.86 -1.72,-31.26l-5.88 -85.63c-0.51,-7 -4.94,-12.41 -13.63,-11.91 -7.08,0.5 -12.38,6.6 -11.88,13.65l5.89 86.27c1.69,24.4 3.42,49.61 -0.37,73.33 -4.07,25.32 -14.58,46.66 -29.58,60.07 -26.97,24.11 -67.37,25.62 -110.51,24.93 -12.7,-0.16 -22.95,-0.69 -30.26,-5.47 -5.94,-3.77 -13.81,-2.19 -17.76,3.72 -3.8,5.94 -2.2,13.89 3.74,17.72 14.13,9.22 31.34,9.48 43.91,9.67 4.12,0.02 8.27,0.1 12.38,0.1 20.1,0 40.2,-1.03 59.1,-4.98 2.62,-0.56 5.2,0.87 6.2,3.32 26.51,66.59 34.31,136.46 20.76,198.38 -16.09,73.41 -61.92,136.04 -122.62,167.49 -6.31,3.26 -8.77,11.01 -5.49,17.27 2.32,4.41 6.76,6.94 11.38,6.94 2.01,0 4.01,-0.47 5.88,-1.45 22.37,-11.59 41.99,-27.97 59.97,-46.37 2.3,-2.35 5.33,-3.77 8.59,-4.06 34.19,-2.96 67.44,-10.43 100.18,-21.95 1.66,-0.58 3.51,-0.1 4.67,1.22 1.16,1.32 1.43,3.23 0.64,4.8 -16.58,33.27 -39.53,69.22 -64.49,88.62 -34.51,26.89 -77.15,37.5 -113.67,28.26 -13.13,-3.28 -25.64,-9.01 -38.9,-15.08 -5.57,-2.54 -11.14,-5.07 -16.68,-7.42 -49.23,-20.86 -103.61,-29.08 -156.64,-23.37 -42.33,4.41 -92.44,-59.88 -105.94,-103.98 -2.06,-6.76 -9.19,-10.5 -16,-8.5 -6.77,2.09 -10.56,9.27 -8.51,16 12.01,39.24 37.2,73.97 69.92,98.68 0.53,0.4 0.71,1.09 0.5,1.69 -0.21,0.61 -0.79,1.03 -1.46,1.01 -9.24,-0.16 -18.56,-0.53 -27.7,-1.25l-65.05 -5.27zm338.26 117c-29.75,11.09 -61.03,20.89 -87.43,24.66 -25.59,3.69 -56.32,3.3 -85.98,1.35 -17.63,-2.22 -35.7,-5.97 -52.97,-12.84 -16.27,-6.44 -27.07,-14.07 -33.01,-23.31 -13.3,-20.83 -3.06,-49.98 12.12,-68.31 3.23,-3.91 8.06,-6.13 13.1,-6 1.19,0.03 2.41,0.03 3.61,-0.02 10.69,-0.45 21.39,-1.88 32.03,-3.28 5.76,-0.79 11.43,-1.56 17.13,-2.17 49.04,-5.12 98.73,2.33 144.02,21.47 5.38,2.27 10.69,4.72 16,7.13 13.76,6.28 27.97,12.75 43.33,16.6 1.91,0.48 3.85,0.69 5.81,0.87 1.59,0.14 2.96,1.04 3.75,2.41 0.79,1.38 0.84,3.04 0.15,4.46 -6.73,13.95 -17.68,26.75 -31.68,36.97zm655.15 -328.46c-0.69,6.55 -3.77,12.6 -8.66,16.98 -45.18,40.5 -82.26,71.03 -141.67,111.35 -95.44,64.69 -164.53,103.45 -217.51,122.05 -61.1,21.47 -167.09,27.73 -168.15,27.81 -4.06,0.21 -8,1.32 -11.56,3.17 -0.48,0.24 -20.26,10.27 -48.22,22.74 -1.09,0.47 -2.38,0.24 -3.23,-0.61 -0.85,-0.84 -1.06,-2.14 -0.56,-3.23 1.33,-2.83 2.54,-5.67 3.59,-8.58 0.95,-2.62 3.32,-4.43 6.1,-4.62 31.98,-2.22 64.48,-14.44 92.32,-36.18 38.15,-29.73 79.08,-102.06 85.6,-128.31 0.66,-2.67 2.49,-4.88 4.94,-6.07 18.51,-8.9 36.94,-18.88 55.3,-30.73 25.08,-16.22 53.71,-40.03 76.89,-70.13 2.72,-3.53 6.62,-6.02 11,-6.94 17.37,-3.72 24.85,-7.27 47.14,-4.04 20.44,2.91 37.89,13.12 46.66,27.38 2.38,3.91 6.57,6.1 10.88,6.1 2.32,0 4.61,-0.63 6.68,-1.9 6.07,-3.72 7.95,-11.59 4.19,-17.64 -12.7,-20.62 -36.88,-35.33 -64.77,-39.34 -11.83,-1.64 -21.89,-1.35 -31.61,-0.08 -1.56,0.21 -3.12,-0.47 -4.01,-1.74 -0.92,-1.3 -1.05,-2.97 -0.37,-4.38 3.91,-7.93 7.64,-15.98 10.03,-24.82 1.59,-5.84 2.62,-11.94 3.54,-18.03 1.98,0.29 4.03,1.03 5.83,1.05 0.82,0 1.56,0 2.38,0 59.84,0 122.08,-22 193.45,-66.83 2.81,-1.77 6.34,-1.88 9.25,-0.29 11.96,6.52 22.29,17.95 25.87,53.68 3.17,31.68 0.37,65.67 -1.35,82.2zm323.23 -327.87c-3.01,6.92 -6.44,14 -11.24,18.9 -6.63,6.63 -16.82,9.67 -25.77,7.82 -9.15,-1.82 -17.19,-8.61 -20.71,-17.18 -2.56,-6.5 -3.07,-14.58 -3.5,-22.32l-2.2 -41.46c-0.37,-7.1 -7.13,-12.54 -13.52,-12.09 -7.08,0.37 -12.51,6.41 -12.12,13.47l2.33 41.48c0.45,8.91 1.06,20.02 5.25,30.44 6.15,15.32 19.46,28.02 37.76,32.22 0.79,0.18 1.37,0.82 1.51,1.61 0.13,0.79 -0.21,1.59 -0.9,2.01 -1.51,0.95 -2.94,1.83 -4.14,2.51 -4.7,2.67 -8.56,6.6 -11.2,11.33 -0.32,0.66 -35.46,64.64 -84.97,116.65 -30.12,31.74 -66.41,59.15 -98.36,83.34 -20.01,15.15 -37.89,28.73 -50.9,40.69 -0.72,0.63 -1.72,0.79 -2.6,0.37 -0.87,-0.43 -1.37,-1.32 -1.29,-2.28 1.85,-21.47 2.35,-43.01 0.18,-64.4 -3.5,-34.7 -13.65,-53.18 -26.22,-64.45 -1.4,-1.24 -2.16,-3.07 -2.08,-4.94 0.07,-1.87 0.98,-3.61 2.48,-4.75 11.14,-8.37 21.66,-17.79 29.37,-30.23 5.99,-9.53 9.83,-19.56 13.76,-30.73 6.12,-17.19 11.93,-35.52 17.16,-54.32 0.71,-2.51 2.75,-4.43 5.3,-4.96 40.48,-8.58 80.52,-35.15 104.23,-70.79 21.57,-32.32 37.01,-68.05 46.47,-105.33 0.69,-2.72 3.12,-4.67 5.94,-4.7 15.74,-0.26 38.79,-14.76 51.54,-25.48 1.72,-1.45 4.25,-1.37 5.86,0.19 3.12,2.99 6.21,6.31 9.36,10.11 21.2,25.34 44.01,55.24 46.15,88.96 1.05,17 -3.1,35.55 -12.92,58.33zm122.26 -200.08c-24.22,72.86 -82.91,124.16 -83.55,124.66 -0.58,0.5 -1.35,0.66 -2.09,0.43 -0.71,-0.24 -1.24,-0.82 -1.4,-1.56 -7,-32.4 -26.93,-61.11 -48.8,-87.22 -3.66,-4.41 -7.55,-8.56 -11.64,-12.47 -1.59,-1.5 -1.83,-3.98 -0.48,-5.83 12.84,-18.09 22.32,-39.58 30.34,-67.81 0.69,-2.46 2.51,-4.46 4.91,-5.39 59.94,-23.31 111.51,-81.22 143.48,-137.75 0.56,-0.98 1.72,-1.46 2.81,-1.09 1.08,0.35 1.77,1.4 1.64,2.54 -7.61,65.56 -20.31,146.71 -35.23,191.49zm38.33 -280.89c-9,56.44 -68.07,153.25 -141.96,192.89 -1.16,0.61 -2.56,0.53 -3.61,-0.27 -1.06,-0.76 -1.59,-2.08 -1.35,-3.37 13.41,-71.11 11.03,-141.33 -8.8,-204.64 -8.9,-28.47 -22.1,-54.85 -37.57,-79.48 -3.77,-6 -5.88,-12.78 -6.26,-19.83 -2.19,-41.81 4.65,-104.12 22.29,-120.05 9.14,-8.21 23.63,-9.95 36.7,-10.55 24.4,-1.14 48.59,0.5 72.3,4.96 7.37,1.08 13.71,-3.35 14.95,-10.22 1.32,-6.97 -3.25,-13.65 -10.19,-14.97 -13.76,-2.59 -27.73,-4.04 -41.75,-4.81 -1.53,-0.08 -2.96,-0.76 -3.96,-1.93 -1,-1.13 -1.51,-2.64 -1.4,-4.16 1.27,-17.35 1.11,-41.67 -0.63,-67.68 -0.11,-1.75 0.66,-3.43 2.09,-4.46 1.42,-1.03 3.28,-1.27 4.91,-0.64 47.1,18.62 73.06,72.96 82.52,97.6 4.88,12.75 10.64,29.6 11.24,46.66 1.14,27.35 -10.82,56.95 -33.69,83.28 -21.34,24.58 -49.09,43.75 -75.92,62.29 -5.81,4.04 -7.32,12.01 -3.32,17.82 2.51,3.59 6.49,5.54 10.55,5.54 2.52,0 5.07,-0.74 7.27,-2.27 28.2,-19.46 57.27,-39.56 80.8,-66.57 0.74,-0.87 1.9,-1.32 3.04,-1.19 1.14,0.13 2.17,0.82 2.7,1.82 4.96,9.2 8.82,18.88 12.09,28.82 2.96,14.28 6.39,32.05 8.8,47.4 0.24,9.32 -0.34,18.69 -1.83,28.02z"/>
   </g>
  </g>
 </g>
</svg>