<svg width="106" height="106" viewBox="0 0 106 106" fill="none" xmlns="http://www.w3.org/2000/svg">
<path d="M34.7988 81.3684V63.8902C34.7974 62.5104 35.0679 61.1439 35.595 59.8687C36.122 58.5935 36.8952 57.4347 37.8703 56.4586C38.8455 55.4824 40.0035 54.708 41.2781 54.1796C42.5528 53.6513 43.919 53.3793 45.2988 53.3793L51.5551 53.3902L62.0113 53.4012C63.3918 53.4016 64.7588 53.13 66.0342 52.602C67.3097 52.0739 68.4685 51.2997 69.4447 50.3236C70.4208 49.3474 71.195 48.1886 71.7231 46.9131C72.2511 45.6377 72.5227 44.2707 72.5223 42.8902V33.4621H74.1629L82.4645 33.4512C83.0698 33.4505 83.6739 33.5054 84.2692 33.6152C84.4004 33.6371 84.5316 33.659 84.6629 33.6918C84.7504 33.7137 84.827 33.7246 84.9145 33.7465L85.0457 33.7793C85.364 33.8575 85.678 33.9524 85.9863 34.0637C86.1757 34.1233 86.3619 34.1927 86.5441 34.2715C86.8941 34.4356 87.2332 34.5996 87.5613 34.7637C87.7363 34.8621 87.9004 34.9606 88.0645 35.0699C88.3892 35.2761 88.7032 35.4988 89.0051 35.7371C89.0331 35.7516 89.0589 35.77 89.0816 35.7918C89.6517 36.2507 90.169 36.7716 90.6238 37.3449C90.6484 37.3681 90.6704 37.3937 90.6895 37.4215C91.0366 37.8546 91.3475 38.3155 91.6191 38.7996C91.6325 38.8163 91.6435 38.8347 91.652 38.8543C91.7723 39.0949 91.9035 39.3356 92.0129 39.5871C92.1153 39.8047 92.2065 40.0274 92.2863 40.2543C92.3304 40.3372 92.3635 40.4254 92.3848 40.5168C92.4723 40.7574 92.5488 41.009 92.6145 41.2496C92.7811 41.8352 92.8873 42.4362 92.9317 43.0434C92.9629 43.3449 92.9775 43.648 92.9754 43.9512V62.3262C92.9754 62.5449 92.9645 62.7637 92.9535 62.9824C92.9118 63.677 92.8019 64.3657 92.6254 65.0387C92.5598 65.2465 92.4942 65.4652 92.4285 65.6621C92.352 65.8809 92.2754 66.0887 92.1988 66.2856C92.0299 66.6943 91.8363 67.0925 91.6191 67.4777C91.5098 67.6746 91.4004 67.8606 91.2801 68.0356C91.1598 68.2106 91.0395 68.4074 90.9082 68.5824C90.777 68.7574 90.6457 68.9215 90.5035 69.0965C90.3613 69.2715 90.2192 69.4246 90.066 69.5777C89.9129 69.7309 89.7598 69.8949 89.6067 70.0371C89.3332 70.2887 89.0488 70.5184 88.7535 70.7481C88.6223 70.8465 88.491 70.9449 88.3488 71.0324L88.0535 71.2293H88.0426C87.8425 71.3624 87.6342 71.483 87.4192 71.5902C87.2113 71.6996 86.9926 71.809 86.7738 71.9074C86.5551 72.0059 86.3363 72.0934 86.1067 72.1809C85.8502 72.2827 85.5871 72.3667 85.3192 72.4324C85.118 72.495 84.9135 72.5461 84.7066 72.5856C84.466 72.6402 84.2254 72.684 83.9738 72.7168C83.7988 72.7496 83.6238 72.7606 83.4379 72.7824C83.3285 72.7934 83.2082 72.8043 83.0988 72.8043C82.891 72.8152 82.6723 72.8262 82.4645 72.8262H54.5191C54.3408 72.8189 54.1629 72.8478 53.996 72.911C53.8291 72.9743 53.6767 73.0706 53.548 73.1942C53.4192 73.3178 53.3168 73.4662 53.2468 73.6303C53.1769 73.7945 53.1408 73.9711 53.1408 74.1496C53.1408 74.3281 53.1769 74.5047 53.2468 74.6689C53.3168 74.8331 53.4192 74.9814 53.548 75.105C53.6767 75.2286 53.8291 75.325 53.996 75.3882C54.1629 75.4515 54.3408 75.4803 54.5191 75.4731H74.1738V81.3793C74.1731 82.0922 74.0998 82.8032 73.9551 83.5012C73.858 84.0124 73.7152 84.5139 73.5285 84.9996C73.1766 85.9533 72.6905 86.852 72.0848 87.6684C71.7826 88.0759 71.4499 88.4598 71.0895 88.8168C70.1152 89.7933 68.9575 90.5675 67.683 91.0949C66.4085 91.6224 65.0423 91.8927 63.6629 91.8902H45.2332C44.981 91.892 44.7289 91.8774 44.4785 91.8465C44.4273 91.8542 44.375 91.8505 44.3254 91.8356C44.0538 91.8196 43.7835 91.7867 43.516 91.7371C43.5027 91.7295 43.4876 91.7257 43.4723 91.7262C43.1991 91.6847 42.9288 91.6263 42.6629 91.5512C42.4879 91.5074 42.3238 91.4527 42.1598 91.3981C41.8937 91.317 41.6322 91.2213 41.3766 91.1115C41.2922 91.0901 41.2112 91.057 41.136 91.0131C41.0048 90.9584 40.8626 90.8927 40.7313 90.8271C40.5563 90.7396 40.3813 90.6521 40.2173 90.5646C40.086 90.4881 39.9548 90.4224 39.8345 90.3459C39.5664 90.181 39.3071 90.0021 39.0579 89.8099C38.9266 89.7115 38.7845 89.6131 38.6641 89.5037C37.4558 88.5199 36.4822 87.2789 35.8143 85.8712C35.1463 84.4634 34.8009 82.9244 34.8032 81.3662L34.7988 81.3684Z" fill="#3063BA"/>
<path d="M66.5413 86.0729C67.8014 86.0729 68.8229 85.0514 68.8229 83.7913C68.8229 82.5313 67.8014 81.5098 66.5413 81.5098C65.2813 81.5098 64.2598 82.5313 64.2598 83.7913C64.2598 85.0514 65.2813 86.0729 66.5413 86.0729Z" fill="white"/>
<path opacity="0.2" d="M51.0752 15.0764C50.9622 18.8556 49.381 22.4421 46.6671 25.0745C43.9531 27.707 40.3202 29.1782 36.5393 29.176C35.397 29.1758 34.2587 29.0395 33.1486 28.7702H33.1377V25.5885C33.1383 24.8756 33.2116 24.1646 33.3564 23.4666C33.4534 22.955 33.5962 22.4531 33.783 21.967C33.9542 21.4825 34.1664 21.0134 34.4174 20.5649C34.651 20.1203 34.9217 19.6962 35.2268 19.2972C35.5286 18.8895 35.8614 18.5055 36.2221 18.1488C37.1963 17.1722 38.3539 16.3978 39.6284 15.8701C40.903 15.3425 42.2692 15.072 43.6486 15.0742L51.0752 15.0764Z" fill="url(#paint0_linear_822_17138)"/>
<path opacity="0.2" d="M55.7563 53.5762L45.3001 53.5663C43.9197 53.5658 42.5527 53.8372 41.2773 54.3652C40.0018 54.8931 38.8429 55.6672 37.8668 56.6432C36.8907 57.6193 36.1164 58.7781 35.5884 60.0535C35.0603 61.3289 34.7887 62.6958 34.7891 64.0762V73.5021H33.1485L24.8469 73.512C24.2416 73.5132 23.6374 73.4582 23.0422 73.3479C22.911 73.326 22.7797 73.3041 22.6485 73.2724C22.561 73.2506 22.4844 73.2385 22.3969 73.2177L22.2657 73.1849C21.2094 70.3073 20.8383 67.2231 21.1819 64.177C21.5255 61.131 22.5742 58.2069 24.2449 55.6368C25.9156 53.0667 28.1623 50.9214 30.8067 49.371C33.4511 47.8207 36.4204 46.9079 39.4791 46.7052C42.5401 46.5022 45.6061 47.0178 48.4324 48.2108C51.2586 49.4038 53.7667 51.2412 55.7563 53.5762Z" fill="url(#paint1_linear_822_17138)"/>
<path d="M71.3049 25.6784V38.8657C71.3049 40.479 71.3738 42.1087 71.2885 43.7209C71.203 45.7196 70.4843 47.6394 69.2362 49.203C67.9882 50.7666 66.2755 51.893 64.3454 52.4195C61.9665 53.0112 59.2135 52.6743 56.7854 52.6699C55.1812 52.6699 53.5749 52.6681 51.9663 52.6645C49.7854 52.6645 47.6023 52.6262 45.4224 52.6579C43.5937 52.6729 41.7919 53.0999 40.1509 53.9072C38.5099 54.7144 37.072 55.8811 35.944 57.3206C33.937 59.9456 33.5859 62.8823 33.5859 66.0574V73.5846L34.8885 72.6002C32.0448 72.6002 29.1974 72.6032 26.3463 72.609C24.617 72.7051 22.8873 72.4249 21.2768 71.7876C20.0779 71.2431 19.002 70.461 18.1141 69.4887C17.2261 68.5163 16.5447 67.374 16.111 66.1307C15.1901 63.4849 15.539 60.3568 15.539 57.5995V46.8906C15.539 45.951 15.5084 45.006 15.5532 44.0676C15.6309 42.5098 16.0801 40.9933 16.8632 39.6445C17.6464 38.2957 18.7408 37.1537 20.0551 36.314L19.1615 36.6421C19.8692 36.6421 20.6042 35.9946 21.2396 35.7234C22.0484 35.3831 22.9045 35.1688 23.7782 35.0879C24.277 35.0409 24.7757 35.0452 25.2756 35.0441C26.8746 35.0441 28.4726 35.0441 30.0717 35.0441H51.3418C52.6642 35.0441 54.1648 35.1448 55.0146 33.8902C55.1713 33.6598 55.2801 33.4003 55.3349 33.1271C55.3896 32.8539 55.3891 32.5725 55.3333 32.2995C55.2776 32.0265 55.1677 31.7674 55.0102 31.5376C54.8527 31.3077 54.6508 31.1117 54.4163 30.9612C53.8263 30.6561 53.1619 30.5245 52.5001 30.5817C50.6407 30.5696 48.7813 30.5817 46.922 30.5817H33.2326L34.3438 31.4096C34.3438 28.4335 33.8998 24.9565 34.9235 22.1193C35.4198 20.719 36.2451 19.4584 37.33 18.4436C38.4149 17.4287 39.7277 16.6892 41.1579 16.2874C42.2548 16.0385 43.3799 15.9362 44.5037 15.9834C50.1912 15.9834 55.8918 15.8926 61.5815 15.9834C64.1472 16.0111 66.6005 17.0404 68.4179 18.8517C70.2353 20.6629 71.2729 23.1128 71.3093 25.6784C71.3356 26.9624 73.7462 26.6365 73.7232 25.5176C73.6897 22.6818 72.6073 19.9589 70.6847 17.8742C68.7621 15.7894 66.1356 14.4905 63.3118 14.2279C60.7776 14.0026 58.1712 14.1677 55.6337 14.1677H45.1085C40.8834 14.1677 36.8671 15.3774 34.2235 18.9201C31.429 22.6662 31.9267 27.1812 31.9267 31.5737C31.9267 32.1971 32.4976 32.4006 33.0379 32.4006H50.3093C50.772 32.4006 53.5785 32.044 52.9584 33.1716C52.849 33.374 51.1712 33.2318 50.7709 33.2318H30.3713C26.2282 33.2318 22.1682 32.861 18.4713 35.1612L19.3638 34.8331C18.2252 34.8331 16.9696 36.2549 16.2423 37.014C15.274 38.0346 14.5037 39.2262 13.9706 40.5282C13.3734 42.0763 13.0872 43.7268 13.1284 45.3856V56.2137C13.1284 59.1099 12.8002 62.284 13.3045 65.1584C13.8375 67.8017 15.2781 70.1755 17.3768 71.8687C19.4755 73.5619 22.1002 74.468 24.7965 74.4301C28.0952 74.464 31.3951 74.4202 34.6927 74.4202C35.1795 74.4202 35.9954 74.0035 35.9954 73.4359V66.9795C35.9954 64.3424 35.8499 61.7568 37.1362 59.3374C37.942 57.8369 39.1467 56.5882 40.6175 55.7293C42.0882 54.8704 43.7677 54.4347 45.4706 54.4702C47.9096 54.4604 50.3487 54.4702 52.7878 54.4779L57.4909 54.4834C60.1345 54.4888 62.9443 54.7502 65.496 53.9245C67.2918 53.3576 68.927 52.3716 70.2664 51.0479C71.6059 49.7243 72.6112 48.1009 73.1993 46.312C73.6743 44.4012 73.8514 42.4285 73.7243 40.4637L73.7232 25.5176C73.7178 24.2357 71.3049 24.5562 71.3049 25.6784Z" fill="#080F21"/>
<path d="M40.7708 25.4537C42.0309 25.4537 43.0524 24.4323 43.0524 23.1722C43.0524 21.9121 42.0309 20.8906 40.7708 20.8906C39.5107 20.8906 38.4893 21.9121 38.4893 23.1722C38.4893 24.4323 39.5107 25.4537 40.7708 25.4537Z" fill="#080F21"/>
<path d="M24.7349 85.2973C25.7723 84.2597 25.7583 82.5637 24.7036 81.5092C23.6489 80.4547 21.9529 80.441 20.9155 81.4786C19.8781 82.5163 19.8921 84.2123 20.9468 85.2667C22.0015 86.3212 23.6975 86.3349 24.7349 85.2973Z" fill="#080F21"/>
<path d="M79.4703 27.0852C80.9533 27.0852 82.1555 25.883 82.1555 24.4C82.1555 22.917 80.9533 21.7148 79.4703 21.7148C77.9873 21.7148 76.7852 22.917 76.7852 24.4C76.7852 25.883 77.9873 27.0852 79.4703 27.0852Z" fill="#080F21"/>
<path d="M84.0982 17.087C84.7753 17.087 85.3243 16.538 85.3243 15.8609C85.3243 15.1837 84.7753 14.6348 84.0982 14.6348C83.421 14.6348 82.8721 15.1837 82.8721 15.8609C82.8721 16.538 83.421 17.087 84.0982 17.087Z" fill="#3A1E44"/>
<defs>
<linearGradient id="paint0_linear_822_17138" x1="33.1377" y1="22.1267" x2="51.0752" y2="22.1267" gradientUnits="userSpaceOnUse">
<stop offset="0.005" stop-color="#3063BA"/>
<stop offset="1" stop-color="#A3BFF6"/>
</linearGradient>
<linearGradient id="paint1_linear_822_17138" x1="21.0625" y1="60.0895" x2="55.7563" y2="60.0895" gradientUnits="userSpaceOnUse">
<stop offset="0.005" stop-color="#3063BA"/>
<stop offset="1" stop-color="#A3BFF6"/>
</linearGradient>
</defs>
</svg>
