<?xml version="1.0" encoding="UTF-8"?>
<!DOCTYPE svg PUBLIC "-//W3C//DTD SVG 1.1//EN" "http://www.w3.org/Graphics/SVG/1.1/DTD/svg11.dtd">
<!-- Creator: CorelDRAW 2017 -->
<svg xmlns="http://www.w3.org/2000/svg" xml:space="preserve" width="3.70333in" height="2.08333in" version="1.1" style="shape-rendering:geometricPrecision; text-rendering:geometricPrecision; image-rendering:optimizeQuality; fill-rule:evenodd; clip-rule:evenodd"
viewBox="0 0 3703 2083"
 xmlns:xlink="http://www.w3.org/1999/xlink">
 <defs>
  <style type="text/css">
   <![CDATA[
    .fil3 {fill:#FEFEFE}
    .fil8 {fill:#F58634}
    .fil9 {fill:#E95637}
    .fil6 {fill:#0A92C8}
    .fil7 {fill:#3E4095}
    .fil5 {fill:black}
    .fil0 {fill:#E6E7E8}
    .fil4 {fill:#DB040B;fill-rule:nonzero}
    .fil2 {fill:#373435;fill-opacity:0.031373}
    .fil1 {fill:#373435;fill-opacity:0.101961}
   ]]>
  </style>
 </defs>
 <g id="Layer_x0020_1">
  <metadata id="CorelCorpID_0Corel-Layer"/>
  <polygon class="fil0" points="-1,0 3704,0 3704,2083 -1,2083 "/>
  <polygon class="fil1" points="-1,2079 -1,2076 -1,2075 -1,2058 -1,2025 -1,2007 -1,2005 -1,1943 -1,1842 -1,1842 -1,1814 -1,1797 -1,1785 -1,1760 -1,1715 -1,1710 -1,1651 -1,1634 -1,1500 -1,1442 -1,1410 1562,390 1541,404 1522,418 1503,434 1485,451 1468,468 1451,486 1436,505 1432,510 1552,432 1556,430 1560,427 1565,425 1569,422 1574,420 1578,418 1583,416 1587,414 1592,412 1597,410 1602,409 1607,407 1612,405 1617,404 1622,403 1627,401 1633,400 1638,399 1643,398 1649,397 1654,397 1660,396 1665,395 1671,395 1676,395 1682,394 1688,394 1694,394 1699,394 1705,394 1711,395 1717,395 1722,395 1727,396 1732,396 1737,397 1743,398 1748,399 1753,400 1758,401 1763,402 1767,403 1772,405 1777,406 1782,408 1787,409 1791,411 1796,413 1800,415 1805,417 1809,419 1814,421 1818,424 1823,426 1827,428 1831,431 1835,434 1840,437 1844,439 1848,442 1852,445 1856,449 1860,452 1863,454 1866,457 1869,460 1872,463 1902,444 1905,442 1908,441 1912,439 1916,438 1920,436 1925,435 1929,434 1934,432 1939,431 1944,430 1949,429 1954,428 1959,428 1964,427 1970,426 1975,426 1980,425 1986,425 1991,424 1996,424 2001,424 2007,424 2011,424 2016,423 2021,424 2026,424 2030,424 2034,424 2038,424 2042,425 2050,425 2058,427 2066,428 2074,430 2082,432 2090,434 2098,437 2106,440 2114,443 2122,446 2130,450 2137,453 2145,457 2152,462 2159,466 2166,471 2173,476 2179,482 2185,487 2191,493 2196,499 2201,505 2206,512 2210,519 2214,526 2217,533 2220,541 2223,548 2225,556 2226,564 2227,573 2227,581 2227,590 2227,599 2225,607 2224,614 2222,621 2219,628 2216,634 2213,640 2210,645 2206,651 2202,656 2198,661 2194,666 2189,672 2184,677 2180,682 2178,684 2176,685 2175,686 2174,687 2172,688 2171,689 2170,690 2168,692 2168,693 2168,695 2169,698 2169,703 2170,708 2170,713 2170,720 2169,727 2169,734 2167,742 2165,750 2162,758 2159,766 2154,773 2149,781 2142,788 2140,790 2138,792 2136,794 2134,796 2097,819 2100,819 2107,819 2114,820 2120,821 2127,823 2133,825 2139,827 2145,829 2151,832 2157,835 2163,838 2168,841 2173,845 2178,849 2183,853 2188,858 2192,862 2196,867 2200,872 2204,877 2208,883 2211,888 2214,894 2217,900 2219,906 2221,912 2223,919 2224,925 2225,932 2226,939 2227,945 2227,952 2227,959 2226,966 2225,973 2224,979 2223,986 2221,992 2219,998 2217,1004 2214,1010 2211,1016 2208,1022 2204,1027 2200,1032 2196,1037 2192,1042 2188,1047 2183,1051 2178,1055 2173,1059 2168,1063 2163,1067 2126,1088 2126,1088 2136,1090 2146,1092 2156,1095 2166,1098 2175,1102 2184,1106 2193,1111 2202,1116 2210,1121 2218,1127 2226,1133 2234,1140 2241,1146 2248,1154 2254,1161 2260,1169 2266,1177 2271,1185 2276,1194 2281,1203 2285,1212 2289,1222 2292,1231 2295,1241 2297,1251 2299,1261 2300,1272 2301,1282 2301,1293 2301,1293 2301,1294 2301,1294 2301,1294 2301,1295 2301,1295 2301,1296 2301,1296 2263,1317 2301,1317 2154,1400 2156,1400 2159,1401 2162,1402 2165,1403 2167,1405 2170,1406 2172,1408 2174,1410 2176,1413 2177,1415 2179,1418 2180,1422 2181,1425 2181,1429 2223,1428 2126,1482 2127,1482 2131,1483 2135,1484 2141,1486 2146,1487 2151,1488 2156,1490 2160,1491 2163,1492 2166,1492 2168,1493 2170,1494 2173,1495 2175,1496 2177,1498 2179,1499 2180,1500 2182,1501 2183,1502 2184,1503 2185,1505 2186,1506 2186,1508 2187,1509 2187,1511 2187,1513 2187,1514 2187,1517 2187,1520 2186,1523 2185,1525 2184,1528 2182,1530 2180,1532 2177,1534 2175,1536 2172,1538 2111,1571 2113,1572 2117,1573 2121,1574 2125,1575 2129,1576 2133,1576 2138,1576 2142,1577 2147,1577 2150,1577 2154,1577 2157,1576 2160,1576 2163,1576 2166,1576 2169,1575 2172,1575 2175,1574 2177,1574 2180,1573 2182,1573 2185,1572 2187,1571 2190,1570 2192,1569 2196,1567 1996,1676 1996,1691 2050,1661 2050,1681 2084,1663 2080,1665 2077,1667 2074,1670 2071,1673 2050,1685 2050,1695 2081,1679 2082,1678 2084,1677 2085,1677 2086,1677 2088,1677 2089,1676 2091,1676 2092,1676 2093,1677 2094,1677 2095,1677 2096,1677 2097,1678 2097,1678 2098,1679 2099,1679 2100,1680 2101,1680 2101,1681 2102,1682 2102,1683 2103,1684 2103,1685 2103,1686 2103,1687 2104,1689 2104,1691 2104,1693 2104,1696 2104,1699 2104,1700 2171,1664 2168,1666 2165,1668 2162,1671 2160,1674 2158,1677 2156,1680 2155,1684 2154,1688 2153,1693 2153,1694 2213,1661 2213,1673 2202,1679 2203,1679 2204,1680 2206,1682 2207,1683 2208,1685 2210,1687 2211,1689 2211,1691 2212,1694 2212,1696 2212,1699 2212,1702 2212,1705 2212,1708 2212,1711 2211,1713 2211,1715 2210,1718 2208,1720 2207,1721 2206,1723 2204,1724 2203,1725 2171,1742 2171,1742 2175,1744 2178,1745 2182,1745 2186,1746 2212,1732 2212,1744 2212,1746 2212,1747 2212,1749 2212,1750 2212,1751 2211,1752 2211,1753 2211,1754 2211,1755 2210,1756 2210,1756 2209,1757 2209,1758 2208,1758 2207,1759 2206,1759 2174,1777 2175,1777 2179,1778 2183,1779 2188,1779 2193,1779 2196,1779 2199,1779 2202,1779 2204,1779 2206,1778 2209,1778 2211,1777 2212,1777 2214,1776 2216,1776 2218,1775 2219,1774 1638,2083 1637,2083 1623,2083 1600,2083 1594,2083 1580,2083 1577,2083 1563,2083 1556,2083 1556,2083 1538,2083 1534,2083 1533,2083 1532,2083 1505,2083 1503,2083 1498,2083 1497,2083 1476,2083 1468,2083 1467,2083 1465,2083 1453,2083 1447,2083 1445,2083 1441,2083 1437,2083 1432,2083 1424,2083 1401,2083 1400,2083 1396,2083 1394,2083 1372,2083 1368,2083 1353,2083 1351,2083 1342,2083 1337,2083 1327,2083 1318,2083 1311,2083 1295,2083 1277,2083 1277,2083 1274,2083 1252,2083 1252,2083 1251,2083 1240,2083 1230,2083 1227,2083 1226,2083 1223,2083 1215,2083 1214,2083 1214,2083 1211,2083 1206,2083 1206,2083 1204,2083 1190,2083 1190,2083 1181,2083 1180,2083 1179,2083 1177,2083 1174,2083 1171,2083 1164,2083 1157,2083 1156,2083 1154,2083 1149,2083 1144,2083 1137,2083 1136,2083 1135,2083 1131,2083 1129,2083 1127,2083 1124,2083 1117,2083 1112,2083 1108,2083 1100,2083 1097,2083 1097,2083 1096,2083 1093,2083 1091,2083 1087,2083 1085,2083 1077,2083 1072,2083 1068,2083 1067,2083 1057,2083 1054,2083 1052,2083 1051,2083 1051,2083 1051,2083 1042,2083 1040,2083 1039,2083 1036,2083 1030,2083 1028,2083 1024,2083 1021,2083 1013,2083 1009,2083 1006,2083 1001,2083 1001,2083 999,2083 997,2083 985,2083 979,2083 977,2083 969,2083 964,2083 960,2083 958,2083 934,2083 934,2083 933,2083 932,2083 931,2083 930,2083 923,2083 918,2083 909,2083 907,2083 903,2083 898,2083 892,2083 890,2083 889,2083 880,2083 876,2083 874,2083 869,2083 862,2083 852,2083 845,2083 843,2083 842,2083 841,2083 840,2083 839,2083 818,2083 812,2083 810,2083 805,2083 802,2083 791,2083 785,2083 773,2083 764,2083 747,2083 744,2083 736,2083 724,2083 701,2083 695,2083 691,2083 663,2083 662,2083 650,2083 634,2083 634,2083 625,2083 586,2083 555,2083 528,2083 512,2083 458,2083 426,2083 414,2083 333,2083 333,2083 260,2083 115,2083 77,2083 -1,2083 "/>
  <path class="fil2" d="M220 1825c7,11 12,21 16,32 3,7 5,19 21,19 5,0 11,-1 17,-5 7,-3 12,-9 14,-17l6 -21 15 -7 1 1c-2,8 -2,15 -2,21 0,18 15,24 27,24 7,0 13,-3 13,-10 0,-8 -4,-22 -8,-35 7,-7 14,-14 22,-20l1 1c4,15 6,30 6,40 0,10 -4,20 -8,27 -7,14 -20,25 -36,25 -12,0 -25,-6 -34,-17l-1 0c-9,11 -22,20 -43,20l-7 0c-1,14 -4,24 -9,33 -13,25 -50,42 -85,42 -49,0 -73,-28 -73,-66 0,-23 7,-45 19,-60l10 4c-7,14 -12,27 -12,40 0,35 29,52 61,52 30,0 68,-20 75,-42 -2,-25 -12,-36 -26,-59 4,-7 10,-15 17,-23l1 0 0 0 0 0 0 0 0 0 2 1 0 0 0 0 0 0 0 0 0 0zm563 -132c10,6 20,14 30,23 -6,8 -12,15 -21,21 -10,-8 -20,-15 -30,-22 7,-8 14,-15 20,-22l0 0 1 0 0 0 0 0 0 0zm5 96c-17,0 -30,11 -30,19 0,17 33,23 73,23 -5,-20 -22,-42 -43,-42l0 0zm-37 93c22,0 41,-1 55,-4 16,-4 30,-12 30,-18 0,-2 0,-3 -1,-5 -9,1 -19,1 -29,1 -29,0 -52,-7 -60,-23 -2,-4 -4,-10 -4,-15 0,-16 7,-32 19,-42 10,-9 21,-14 33,-14 20,0 37,17 48,42 6,14 11,30 11,51 0,14 -4,25 -12,34 -16,15 -45,21 -90,21l-20 0 0 0 -5 0c-11,0 -19,-2 -25,-7l-1 0c0,2 1,5 1,7 0,10 -3,23 -10,33 -20,30 -42,43 -60,43 -19,0 -42,-7 -63,-17l4 -7c7,3 16,5 29,5 34,0 78,-33 84,-64 -1,-3 -3,-6 -7,-10 -10,-12 -16,-22 -22,-32 5,-10 10,-18 14,-25l2 0c14,29 28,46 57,46l4 0 0 0 21 0 0 0 0 0 0 0 0 0 -3 0 0 0 0 0 0 0 0 0 0 0zm-146 31c2,-14 3,-29 3,-43l0 -21c0,-39 -5,-96 -9,-133 7,-8 17,-17 25,-23l2 1c5,47 7,101 7,151 0,13 -1,26 -2,35 -1,12 -8,21 -22,35l-3 -1 0 0 0 0 0 0 -1 -1 0 0 0 0 0 0 0 0 0 0zm-151 -62c1,18 10,33 41,33 20,0 36,-5 55,-14 3,-2 5,-3 5,-5 0,-12 -9,-27 -24,-41 -14,-13 -34,-25 -51,-32 -6,-3 -8,-5 -8,-8 0,-5 7,-17 13,-24l2 0c20,11 43,27 60,44 15,16 25,33 25,51 0,13 -4,26 -11,38 -22,11 -46,20 -70,20 -29,0 -48,-13 -48,-45 0,-3 0,-9 1,-16l10 0 0 0 0 0 0 0 0 0 0 -1 0 0 0 0 0 0 0 0 0 0zm-52 -52l18 29c7,11 13,22 13,41l0 24c0,19 -12,39 -32,60 -15,14 -29,20 -42,20 -19,0 -40,-6 -65,-17l3 -7c8,2 17,4 28,4 35,0 72,-26 88,-58 2,-4 3,-7 3,-9 0,-4 -2,-8 -4,-11 -9,-17 -19,-33 -30,-47 6,-9 12,-18 18,-27l2 0 0 0 0 0 0 0 0 -2 0 0 0 0 0 0 0 0 0 0z"/>
  <ellipse class="fil3" cx="1852" cy="805" rx="519" ry="500"/>
  <g id="_2044168618384">
   <path class="fil4" d="M1474 1574l0 -205 42 0 0 205 -42 0zm81 0l0 -205 151 0 0 35 -110 0 0 46 103 0 0 35 -103 0 0 56 114 0 0 35 -156 0 1 -2zm193 0l0 -203 42 0 0 169 103 0 0 35 -145 0 0 -1zm199 0l0 -170 -61 0 0 -35 163 0 0 35 -60 0 0 170 -42 0zm118 -66l40 -4c2,14 8,24 14,30 8,6 18,9 30,9 13,0 24,-3 30,-8 7,-5 10,-12 10,-20 0,-5 -2,-9 -5,-12 -3,-3 -8,-6 -15,-9 -5,-2 -16,-5 -33,-9 -22,-5 -37,-12 -46,-21 -13,-11 -19,-25 -19,-41 0,-11 3,-21 9,-30 6,-9 14,-16 26,-21 11,-5 24,-7 40,-7 26,0 45,5 58,17 13,11 20,27 21,46l-42 2c-2,-11 -5,-18 -11,-23 -6,-5 -14,-7 -26,-7 -12,0 -21,2 -28,8 -5,3 -7,8 -7,13 0,5 2,9 6,12 5,5 18,9 38,14 20,5 35,10 45,14 10,5 18,12 23,21 5,9 8,20 8,33 0,11 -3,23 -10,33 -7,10 -16,18 -27,23 -12,5 -27,8 -45,8 -26,0 -46,-6 -59,-18 -14,-12 -22,-30 -25,-53l1 2z"/>
   <path class="fil4" d="M1468 1707l23 -2c2,8 4,13 8,17 5,4 10,5 17,5 8,0 13,-2 17,-5 4,-3 6,-7 6,-11 0,-3 -1,-5 -2,-7 -2,-2 -5,-4 -8,-5 -3,-1 -9,-2 -19,-5 -12,-3 -21,-7 -27,-11 -7,-6 -11,-14 -11,-24 0,-6 2,-11 5,-17 3,-5 8,-9 14,-11 6,-3 14,-4 23,-4 14,0 25,3 33,10 8,6 11,15 11,26l-24 1c-1,-6 -3,-11 -6,-13 -3,-2 -8,-4 -14,-4 -7,0 -12,2 -16,5 -2,2 -4,5 -4,8 0,3 2,5 4,7 3,2 10,5 21,8 11,3 20,5 25,8 5,3 10,7 13,12 3,5 5,11 5,18 0,7 -2,13 -5,19 -4,6 -9,10 -16,13 -7,3 -15,5 -25,5 -14,0 -26,-3 -33,-10 -8,-7 -12,-17 -14,-30l-1 -2zm123 -46l21 0 0 12c3,-5 6,-8 11,-10 5,-2 10,-4 15,-4 10,0 18,4 25,11 7,8 10,18 10,32 0,14 -4,25 -11,33 -7,8 -15,11 -25,11 -5,0 -9,-1 -13,-3 -4,-2 -8,-5 -12,-9l0 42 -22 0 0 -116 2 0zm22 41c0,9 2,17 5,21 4,5 8,7 14,7 5,0 9,-2 13,-6 4,-4 5,-11 5,-21 0,-9 -2,-15 -5,-20 -4,-5 -8,-6 -13,-6 -5,0 -10,2 -14,6 -4,5 -5,11 -5,19l0 -1zm135 17l22 4c-3,8 -8,14 -14,18 -6,5 -14,6 -23,6 -14,0 -25,-5 -33,-14 -5,-8 -8,-18 -8,-29 0,-14 4,-25 11,-33 8,-8 17,-12 27,-12 12,0 22,4 30,12 7,8 11,21 11,38l-56 0c0,7 2,11 5,15 3,4 8,5 13,5 4,0 6,-1 8,-3 2,-2 4,-5 5,-9l1 2zm2 -23c0,-6 -2,-11 -5,-14 -3,-3 -7,-5 -11,-5 -5,0 -9,2 -12,5 -3,4 -5,8 -5,14l33 0 0 0zm65 -9l-20 -4c2,-8 6,-14 11,-18 5,-4 14,-6 24,-6 10,0 18,2 22,4 5,2 8,5 10,9 2,4 3,10 3,20l0 26c0,8 0,13 1,16 1,4 2,8 4,11l-22 0c-1,-2 -2,-4 -2,-7 0,-2 -1,-2 -1,-2 -4,4 -8,7 -12,8 -5,2 -9,3 -14,3 -8,0 -15,-2 -21,-7 -5,-5 -8,-11 -8,-18 0,-5 1,-9 3,-13 2,-4 5,-7 10,-8 4,-2 10,-4 18,-5 11,-2 18,-4 21,-5l0 -2c0,-5 -1,-8 -3,-9 -2,-2 -6,-3 -12,-3 -4,0 -7,1 -9,2 -2,2 -4,5 -5,8l2 0zm30 18c-3,1 -8,2 -14,3 -6,2 -10,2 -12,4 -3,2 -5,5 -5,8 0,3 2,6 4,8 2,2 5,3 9,3 4,0 8,-2 11,-4 3,-2 5,-5 5,-8 1,-2 1,-5 1,-11l0 -5 0 1zm52 40l0 -116 22 0 0 62 26 -30 27 0 -29 30 30 53 -24 0 -21 -38 -11 11 0 27 -22 0 2 1zm100 -95l0 -21 22 0 0 21 -22 0zm0 95l0 -84 22 0 0 84 -22 0zm130 0l-22 0 0 -43c0,-9 -1,-15 -2,-18 -1,-3 -2,-5 -5,-6 -2,-2 -5,-2 -8,-2 -4,0 -8,1 -11,3 -3,2 -5,5 -6,8 -2,4 -2,10 -2,19l0 38 -22 0 0 -84 21 0 0 12c8,-9 17,-14 28,-14 5,0 9,1 14,2 4,2 7,4 9,7 2,3 4,6 5,9 1,4 2,8 2,15l0 53 -2 0zm29 5l25 3c1,3 2,5 3,6 2,2 5,2 10,2 6,0 10,-1 13,-2 2,-2 4,-3 5,-5 1,-2 1,-5 1,-10l0 -12c-7,9 -15,14 -25,14 -11,0 -21,-5 -27,-14 -5,-8 -8,-17 -8,-28 0,-14 3,-25 10,-32 7,-8 15,-11 25,-11 11,0 19,5 26,14l0 -12 21 0 0 75c0,10 -1,18 -2,22 -2,5 -4,8 -7,11 -3,3 -7,5 -12,7 -5,2 -11,2 -19,2 -14,0 -24,-2 -30,-8 -6,-5 -9,-11 -9,-18 0,-1 0,-2 0,-3l2 0zm20 -49c0,9 2,15 5,20 4,4 8,6 13,6 5,0 10,-2 14,-6 4,-5 5,-11 5,-19 0,-8 -2,-15 -5,-19 -4,-5 -8,-6 -14,-6 -5,0 -10,2 -13,6 -4,4 -5,11 -5,19l0 -1z"/>
  </g>
  <g id="_2044168618480">
   <path class="fil5" d="M1611 701c32,4 41,13 92,11 80,-3 164,-38 197,-112 28,-62 -8,-122 -40,-148 -42,-35 -91,-54 -149,-57 -63,-3 -120,11 -163,40 -34,23 -79,67 -71,133 8,61 56,90 58,96 3,7 -11,42 15,81 5,8 17,24 26,25 26,2 7,-41 34,-69z"/>
   <path class="fil5" d="M1897 448c3,5 2,2 5,7 11,14 23,34 28,51 17,52 5,101 -26,142 -13,17 -20,22 -35,35 -4,4 -8,7 -13,9 6,10 37,24 47,29 64,28 125,24 189,9 28,34 11,63 28,68 12,4 16,-5 21,-9 39,-38 25,-95 26,-96 5,-6 7,-5 12,-10 26,-28 48,-51 48,-101 -1,-93 -101,-148 -186,-157 -38,-4 -120,2 -145,23z"/>
  </g>
  <g id="_2044168615920">
   <circle class="fil6" cx="1608" cy="952" r="134"/>
   <path class="fil7" d="M1609 1086c114,0 207,93 207,207 0,1 0,2 0,3l-414 0c0,-1 0,-2 0,-3 0,-114 93,-207 207,-207z"/>
   <circle class="fil8" cx="2093" cy="952" r="134"/>
   <path class="fil9" d="M2094 1086c114,0 207,93 207,207 0,1 0,2 0,3l-414 0c0,-1 0,-2 0,-3 0,-114 93,-207 207,-207z"/>
   <rect class="fil5" x="1402" y="1293" width="899" height="25"/>
  </g>
 </g>
</svg>
