<?xml version="1.0" encoding="UTF-8"?>
<!DOCTYPE svg PUBLIC "-//W3C//DTD SVG 1.1//EN" "http://www.w3.org/Graphics/SVG/1.1/DTD/svg11.dtd">
<!-- Creator: CorelDRAW -->
<svg xmlns="http://www.w3.org/2000/svg" xml:space="preserve" width="3.70833in" height="2.08333in" version="1.1" style="shape-rendering:geometricPrecision; text-rendering:geometricPrecision; image-rendering:optimizeQuality; fill-rule:evenodd; clip-rule:evenodd"
viewBox="0 0 3708.33 2083.33"
 xmlns:xlink="http://www.w3.org/1999/xlink"
 xmlns:xodm="http://www.corel.com/coreldraw/odm/2003">
 <defs>
  <style type="text/css">
   <![CDATA[
    .fil0 {fill:#E6E7E8}
    .fil7 {fill:#373435;fill-rule:nonzero}
    .fil5 {fill:#079044;fill-rule:nonzero}
    .fil4 {fill:#5B4BE2;fill-rule:nonzero}
    .fil3 {fill:#F48E1F;fill-rule:nonzero}
    .fil6 {fill:#FEFEFE;fill-rule:nonzero}
    .fil2 {fill:#373435;fill-opacity:0.031373}
    .fil1 {fill:#373435;fill-opacity:0.101961}
   ]]>
  </style>
 </defs>
 <g id="Layer_x0020_1">
  <metadata id="CorelCorpID_0Corel-Layer"/>
  <polygon class="fil0" points="-0,0 3708.33,0 3708.33,2083.33 -0,2083.33 "/>
  <polygon class="fil1" points="-0,1949.7 -0,1924.56 -0,1924.55 -0,1889.07 -0,1862.81 -0,1862.8 -0,1862.78 -0,1860.09 -0,1837.85 -0,1829.79 -0,1810.41 -0,1712.63 -0,1694.07 -0,1685.29 -0,1682.05 -0,1662.1 -0,1660.76 -0,1555.74 -0,1540.92 -0,1531.27 -0,1504.28 -0,1377.86 -0,1376.48 -0,1367.24 -0,1364.43 -0,1338 -0,1038.58 -0,1037.41 -0,1037.39 -0,1033.98 -0,1025.53 -0,1024.44 -0,1020.96 -0,1008.44 -0,941.49 -0,922.5 -0,922.36 1123.07,290.38 1113.43,295.96 1104.17,301.52 1094.99,307.23 1085.92,313.09 1076.95,319.09 1068.08,325.23 1059.31,331.5 1050.65,337.92 1042.1,344.47 1033.65,351.16 1025.32,357.97 1017.1,364.92 1008.99,372 1001,379.2 998.55,381.48 1127.41,309.21 1145.85,298.96 1164.62,289.3 1183.69,280.26 1203.06,271.82 1222.69,264.01 1242.59,256.83 1262.74,250.29 1283.12,244.41 1303.71,239.18 1324.5,234.61 1345.48,230.73 1366.62,227.54 1387.92,225.04 1409.35,223.24 1430.91,222.15 1452.58,221.79 1454.41,221.6 1456.1,221.07 1457.64,220.24 1061.72,438.97 1041.35,458.39 1021.25,479.48 1002.16,501.51 984.13,524.45 967.2,548.26 951.41,572.9 936.78,598.33 923.37,624.51 911.21,651.41 900.34,678.99 890.79,707.2 882.61,736.02 875.83,765.4 870.48,795.31 866.62,825.7 864.28,856.54 863.49,887.79 863.58,898.35 863.85,908.87 864.16,916.14 1948.13,353.81 1922.7,368.44 1898.06,384.23 1874.26,401.16 1854.23,416.9 1866.82,427.45 1879.19,438.39 1891.24,449.66 1903,461.25 1914.43,473.15 1925.54,485.37 1936.32,497.88 1946.76,510.68 1956.86,523.77 1966.61,537.14 1976,550.78 1985.02,564.69 1993.67,578.85 2001.94,593.26 2009.82,607.93 2017.31,622.82 2024.4,637.95 2031.09,653.3 2037.35,668.87 2043.2,684.64 2048.62,700.62 2053.61,716.8 2058.15,733.16 2062.24,749.7 2065.88,766.42 2069.06,783.31 2071.77,800.36 2074,817.56 2075.74,834.91 2076.72,848.56 2179.46,800.02 2188.04,796.88 2197,794.58 2206.28,793.17 2215.83,792.68 2225.39,793.17 2234.67,794.58 2243.63,796.88 2252.21,800.03 2260.38,803.96 2268.09,808.64 2275.28,814.02 2281.92,820.06 2287.94,826.69 2293.33,833.89 2298.01,841.59 2301.94,849.76 2305.08,858.35 2307.39,867.3 2308.8,876.58 2309.28,886.13 2308.8,895.69 2307.39,904.96 2306.67,907.73 2541.37,800.02 2549.96,796.88 2558.92,794.58 2568.19,793.17 2577.75,792.68 2587.3,793.17 2596.59,794.58 2605.54,796.88 2614.13,800.03 2622.3,803.96 2630,808.64 2637.2,814.02 2643.83,820.06 2649.86,826.69 2655.24,833.89 2659.93,841.59 2663.86,849.76 2667,858.35 2669.3,867.3 2670.72,876.58 2671.2,886.13 2670.72,895.69 2669.3,904.96 2667,913.92 2663.85,922.51 2659.92,930.68 2655.24,938.38 2649.86,945.57 2643.83,952.21 2637.19,958.24 2630,963.63 2622.29,968.31 2614.12,972.24 1943.2,1269.25 1936.33,1277.67 1925.55,1290.18 1914.43,1302.39 1903,1314.3 1891.25,1325.89 1879.19,1337.16 1866.82,1348.1 1854.21,1358.66 1874.26,1374.41 1898.06,1391.34 1922.7,1407.14 1948.13,1421.76 1974.32,1435.17 2001.22,1447.33 2028.8,1458.2 2057.01,1467.75 2085.83,1475.94 2115.21,1482.72 2145.11,1488.06 2175.5,1491.92 2206.34,1494.26 2237.59,1495.06 2249.02,1494.95 2260.4,1494.63 2271.72,1494.11 2283,1493.39 2294.21,1492.45 2305.36,1491.31 2316.46,1489.98 2327.49,1488.45 2338.46,1486.72 2349.36,1484.8 2359.44,1482.83 2568.76,1396.87 2568.79,1396.87 2863.89,1495.06 2261.5,1732.19 2261.5,1745.96 2335.63,1716.86 2335.63,1747.05 2408.82,1718.5 2406.06,1719.59 2403.46,1720.78 2401.04,1722.07 2398.78,1723.48 2396.69,1724.99 2394.76,1726.61 2393,1728.34 2391.41,1730.19 2389.96,1732.16 2388.61,1734.28 2387.37,1736.56 2386.24,1738.97 2385.22,1741.54 2384.3,1744.26 2383.87,1745.75 2415.52,1733.45 2417.74,1732.61 2420.19,1731.93 2422.87,1731.39 2425.77,1731.01 2428.91,1730.78 2432.27,1730.7 2435.87,1730.81 2439.24,1731.12 2442.38,1731.63 2445.3,1732.36 2447.98,1733.29 2450.44,1734.43 2452.67,1735.78 2454.67,1737.33 2455.98,1738.67 2457.11,1740.23 2458.07,1742 2458.85,1744 2459.46,1746.22 2459.53,1746.59 2535.14,1717.38 2531.98,1718.69 2528.95,1720.24 2526.04,1722.04 2523.28,1724.04 2520.68,1726.25 2518.26,1728.65 2516,1731.26 2513.91,1734.06 2511.99,1737.06 2510.24,1740.26 2508.66,1743.66 2507.5,1746.6 2544.93,1732.2 2547.9,1731.37 2549.65,1731.09 2586.62,1716.86 2586.62,1731.15 2572,1736.76 2574.52,1738.94 2576.94,1741.46 2579.16,1744.32 2581.07,1747.5 2581.55,1748.52 2660.24,1718.43 2655.51,1720.69 2651.06,1723.46 2646.89,1726.74 2642.99,1730.52 2641.17,1732.58 2639.48,1734.74 2637.89,1737.01 2636.43,1739.38 2635.08,1741.85 2633.85,1744.43 2632.89,1746.75 2669.64,1732.74 2672.54,1731.76 2675.58,1731.05 2678.76,1730.63 2682.07,1730.48 2685.71,1730.66 2689.18,1731.2 2692.47,1732.08 2695.59,1733.33 2698.54,1734.92 2701.31,1736.87 2703.91,1739.17 2706.33,1741.83 2707.78,1743.77 2709.08,1745.94 2710.23,1748.34 2711.23,1750.96 2712.09,1753.81 2712.79,1756.9 2713.34,1760.21 2713.74,1763.75 2671.13,1779.83 2734.39,1779.83 2639.38,1815.49 2641.05,1817.57 2642.85,1819.57 2644.47,1821.11 2713.51,1795.23 2712.35,1798.25 2711.08,1801.06 2709.72,1803.65 2708.26,1806.03 2706.7,1808.2 2705.04,1810.15 2703.28,1811.89 2701.42,1813.43 2699.47,1814.76 2697.42,1815.92 2695.27,1816.9 2658.7,1830.56 2660.32,1831.29 2665.5,1833 2671.02,1834.22 2676.87,1834.95 2683.04,1835.2 2687.96,1835.04 2692.66,1834.58 2697.13,1833.82 2701.37,1832.74 2705.39,1831.37 2028.43,2083.33 2018.7,2083.33 1982.17,2083.33 1972.87,2083.33 1944.82,2083.33 1925.87,2083.33 1894.77,2083.33 1879.57,2083.33 1867.82,2083.33 1866.61,2083.33 1853.5,2083.33 1845.03,2083.33 1824.25,2083.33 1804.79,2083.33 1777.81,2083.33 1765.07,2083.33 1749.45,2083.33 1740.89,2083.33 1706,2083.33 1700.28,2083.33 1683.57,2083.33 1668.58,2083.33 1663.27,2083.33 1662.6,2083.33 1656.54,2083.33 1641.14,2083.33 1637.76,2083.33 1634.14,2083.33 1632.44,2083.33 1622.66,2083.33 1619.01,2083.33 1617.88,2083.33 1592.73,2083.33 1587.78,2083.33 1549.17,2083.33 1542.07,2083.33 1527.83,2083.33 1524.85,2083.33 1515.39,2083.33 1514.24,2083.33 1501.96,2083.33 1473.62,2083.33 1465.68,2083.33 1447.07,2083.33 1435.24,2083.33 1402.06,2083.33 1395.25,2083.33 1376.64,2083.33 1369.52,2083.33 1353.77,2083.33 1334.31,2083.33 1333.52,2083.33 1323.11,2083.33 1307.46,2083.33 1296.02,2083.33 1289.68,2083.33 1286.89,2083.33 1271.96,2083.33 1243.29,2083.33 1237.41,2083.33 1191.73,2083.33 1178.15,2083.33 1171.89,2083.33 1158.52,2083.33 1155.7,2083.33 1142.88,2083.33 1139.88,2083.33 1128.3,2083.33 1104.29,2083.33 1097.47,2083.33 1086.48,2083.33 1062.42,2083.33 1054.54,2083.33 1054.46,2083.33 1054.06,2083.33 1052.46,2083.33 1035.44,2083.33 1014.11,2083.33 983.63,2083.33 980.26,2083.33 980.26,2083.33 980.26,2083.33 965.02,2083.33 930.44,2083.33 921.75,2083.33 916.7,2083.33 897.1,2083.33 897.08,2083.33 875.89,2083.33 830.9,2083.33 815.67,2083.33 812.29,2083.33 808.28,2083.33 783.5,2083.33 778.13,2083.33 775.26,2083.33 772.95,2083.33 766.28,2083.33 764.88,2083.33 750.74,2083.33 743.8,2083.33 738.36,2083.33 731.91,2083.33 696,2083.33 683.95,2083.33 665.95,2083.33 658.72,2083.33 656.64,2083.33 619.1,2083.33 617.71,2083.33 606.06,2083.33 600.49,2083.33 553.39,2083.33 548.68,2083.33 530.06,2083.33 524.44,2083.33 506.36,2083.33 504.69,2083.33 494.27,2083.33 463.27,2083.33 458.31,2083.33 457.74,2083.33 416.69,2083.33 412.44,2083.33 391.75,2083.33 386.72,2083.33 359.18,2083.33 356.2,2083.33 348.87,2083.33 335.13,2083.33 329.31,2083.33 313.42,2083.33 277.88,2083.33 252.85,2083.33 249.85,2083.33 201.59,2083.33 196.43,2083.33 137.51,2083.33 109.75,2083.33 104.24,2083.33 97.85,2083.33 51.47,2083.33 -0,2083.33 -0,1998.57 "/>
  <path class="fil2" d="M223.13 1823.64c6.98,10.94 11.98,20.94 15.94,31.98 3.02,6.98 5,18.96 21.04,18.96 5,0 11.04,-0.94 16.98,-5 6.98,-2.92 12.19,-8.96 14.17,-16.98l5.94 -20.94 15 -7.07 1.04 1.04c-1.98,8.02 -1.98,15 -1.98,21.04 0,17.93 15,23.96 26.98,23.96 6.98,0 13.02,-3.02 13.02,-10 0,-8.02 -4.06,-21.98 -8.02,-35 6.98,-6.98 13.96,-13.96 22.08,-20l1.04 1.04c3.96,15 5.94,30 5.94,40 0,10 -3.96,20 -7.92,26.98 -7.19,13.96 -20.1,25 -36.15,25 -11.98,0 -25,-6.04 -34.06,-16.98l-0.94 0c-9.17,10.94 -22.08,20 -43.13,20l-6.98 0c-1.04,13.96 -4.06,23.96 -9.06,33.02 -12.92,25 -50.09,41.98 -85.09,41.98 -49.06,0 -73.13,-28.02 -73.13,-66.04 0,-23.02 6.98,-45 19.06,-60l10 4.06c-7.07,13.96 -11.98,26.98 -11.98,40 0,35 29.06,51.98 61.04,51.98 30,0 68.13,-20 75.1,-41.98 -1.98,-25 -11.98,-36.04 -26.04,-59.06 4.06,-6.98 10.1,-15 17.07,-23.02l0.94 0 0 0 0 0 2.08 1.04 0 0 0 0 0 0 0 0 0 0 0.02 0 0 0 -0.04 0.02 0.04 -0.03zm563.85 -132.08c10,6.04 20,14.06 30,23.02 -6.04,8.02 -12.08,15 -21.04,21.04 -10,-8.02 -20,-15 -30.1,-21.98 7.07,-8.02 14.06,-15 20.1,-22.08l1.04 0 0 0 0 0 0 0 0 0zm4.89 96.05c-16.98,0 -30.1,11.04 -30.1,19.06 0,16.98 33.13,22.92 73.13,22.92 -5,-20 -21.98,-41.98 -43.02,-41.98l0 0 -0.01 0 0 0zm-37.08 93.02c22.19,0 41.15,-1.04 55.1,-3.96 16.04,-4.06 30,-12.08 30,-18.02 0,-1.98 0,-3.02 -0.94,-5 -9.06,0.94 -19.06,0.94 -29.06,0.94 -28.96,0 -52.07,-6.98 -60.09,-22.92 -1.98,-4.06 -3.96,-10 -3.96,-15 0,-16.04 6.98,-32.08 18.96,-42.08 10.1,-8.96 21.15,-13.96 33.13,-13.96 20,0 36.98,16.98 48.02,41.98 6.15,14.06 11.15,30 11.15,51.04 0,13.96 -4.06,25 -12.19,33.96 -15.94,15 -45,21.04 -90.1,21.04l-20 0 0 0 -5 0c-10.94,0 -18.96,-1.98 -25,-6.98l-0.94 0c0,1.98 0.94,5 0.94,6.98 0,10 -3.02,23.02 -10,33.02 -20.1,30 -42.08,43.02 -60.09,43.02 -18.96,0 -42.08,-7.07 -63.13,-17.07l4.06 -6.98c6.98,3.02 15.94,5 28.96,5 34.17,0 78.13,-33.02 84.17,-63.96 -1.04,-3.02 -3.02,-6.04 -7.07,-10 -10,-11.98 -15.94,-21.98 -21.98,-31.98 5,-10.1 10,-18.02 14.06,-25.1l1.98 0c13.96,29.06 28.13,46.04 57.08,46.04l4.06 0 0 0 20.94 0 0 0 0 0 -3.02 0 0 0 0 0 0 0 0 0 0 -0.01 -0.01 0.01 0 0 -0.02 -0.01zm-146.15 31.04c1.98,-14.06 3.02,-29.06 3.02,-43.02l0 -21.04c0,-38.96 -5,-96.04 -9.06,-133.02 7.07,-8.02 17.07,-16.98 25.1,-23.02l1.98 1.04c5,46.98 6.98,101.04 6.98,151.04 0,13.02 -0.94,25.94 -1.98,35 -1.04,11.98 -8.02,20.94 -22.08,35l-2.92 -1.04 0 0 0 0 -1.04 -0.94 0 0 0 0 0 0 0 0 0 0 0 0zm-151.15 -62.07c0.94,18.02 10,33.02 40.94,33.02 20,0 36.15,-5 55.1,-13.96 3.02,-1.98 5,-3.02 5,-5 0,-11.98 -8.96,-26.98 -23.96,-41.04 -14.06,-13.02 -34.17,-25 -51.15,-31.98 -5.94,-3.02 -8.02,-5 -8.02,-8.02 0,-5 7.07,-16.98 13.02,-23.96l1.98 0c20,10.94 43.13,26.98 60.09,43.96 15.09,16.04 25.1,33.02 25.1,51.04 0,13.02 -4.06,25.94 -11.04,38.02 -21.98,10.94 -46.15,20 -70.1,20 -29.06,0 -48.13,-13.02 -48.13,-45 0,-3.02 0,-9.06 1.15,-16.04l10 0 0 0 0 0 0 -1.04 0 0 0 0 0 0 0 0 0 0 0.01 0 0 0 0.01 0zm-52.19 -51.98l18.02 29.06c6.98,10.94 13.02,21.98 13.02,40.94l0 24.06c0,18.96 -11.98,38.96 -31.98,60 -15,13.96 -29.06,20 -42.19,20 -18.96,0 -40,-6.04 -65,-16.98l3.02 -7.07c8.02,2.08 16.98,4.06 28.02,4.06 35,0 72.07,-26.04 88.13,-58.02 1.98,-4.06 3.02,-6.98 3.02,-8.96 0,-4.06 -1.98,-8.02 -4.06,-11.04 -8.96,-16.98 -18.96,-33.02 -30,-46.98 6.04,-9.06 12.08,-18.02 18.02,-27.07l1.98 0 0 0 0 0 0 -1.98 0 0 0 0 0 0 0 0 0.01 0 -0.01 0 0 0 0 -0.02z"/>
  <g id="_1692867964128">
   <g>
    <path class="fil3" d="M2078.01 887.79c0,335.39 -271.89,607.27 -607.27,607.27 -122.18,0 -235.94,-36.07 -331.17,-98.19l-0.03 0 -295.09 98.19 103.51 -298.13c-53.67,-90.56 -84.47,-196.24 -84.47,-309.13 0,-335.38 271.89,-607.27 607.27,-607.27 335.39,0 607.27,271.89 607.27,607.27l-0.02 0z"/>
    <path class="fil3" d="M881.05 551.68c-1.54,0 -3.1,-0.39 -4.52,-1.21 -4.31,-2.5 -5.79,-8.03 -3.29,-12.34 57.75,-99.85 140.81,-183.58 240.19,-242.17 102.38,-60.34 219.65,-92.25 339.15,-92.25 4.99,0 9.04,4.04 9.04,9.04 0,4.98 -4.04,9.04 -9.04,9.04 -231.61,0 -447.6,124.67 -563.7,325.38 -1.66,2.91 -4.7,4.51 -7.83,4.51l0 0.02 -0 -0.02z"/>
    <path class="fil4" d="M1630.33 887.79c0,335.39 271.88,607.27 607.27,607.27 122.17,0 235.93,-36.07 331.17,-98.19l0.02 0 295.1 98.19 -103.49 -298.13c53.67,-90.56 84.47,-196.24 84.47,-309.13 0,-335.38 -271.89,-607.27 -607.27,-607.27 -335.39,0 -607.27,271.89 -607.27,607.27l0 0z"/>
    <path class="fil5" d="M2078.01 887.77c0,190 -87.24,359.59 -223.85,470.94 -136.62,-111.35 -223.84,-280.94 -223.84,-470.94 0,-189.97 87.24,-359.59 223.84,-470.93 136.61,111.35 223.85,280.96 223.85,470.93z"/>
    <path class="fil6" d="M1399.42 886.13c0,51.61 41.83,93.45 93.45,93.45 51.61,0 93.45,-41.85 93.45,-93.45 0,-51.61 -41.83,-93.45 -93.45,-93.45 -51.6,0 -93.45,41.83 -93.45,93.45z"/>
    <path class="fil6" d="M1761.33 886.13c0,51.61 41.83,93.45 93.45,93.45 51.6,0 93.45,-41.85 93.45,-93.45 0,-51.61 -41.83,-93.45 -93.45,-93.45 -51.61,0 -93.45,41.83 -93.45,93.45z"/>
    <path class="fil6" d="M1037.51 886.13c0,51.61 41.83,93.45 93.44,93.45 51.61,0 93.45,-41.85 93.45,-93.45 0,-51.61 -41.83,-93.45 -93.45,-93.45 -51.61,0 -93.44,41.83 -93.44,93.45z"/>
    <path class="fil6" d="M2122.38 886.13c0,51.61 41.85,93.45 93.45,93.45 51.61,0 93.45,-41.85 93.45,-93.45 0,-51.61 -41.83,-93.45 -93.45,-93.45 -51.61,0 -93.45,41.83 -93.45,93.45z"/>
    <path class="fil6" d="M2484.3 886.13c0,51.61 41.85,93.45 93.45,93.45 51.61,0 93.45,-41.85 93.45,-93.45 0,-51.61 -41.83,-93.45 -93.45,-93.45 -51.61,0 -93.45,41.83 -93.45,93.45z"/>
    <path class="fil4" d="M2230.63 1573.75c-16.92,0 -33.85,-0.64 -50.76,-1.93 -118.48,-9.04 -232.94,-49.91 -330.98,-118.26 -4.09,-2.85 -5.11,-8.48 -2.25,-12.59 2.85,-4.09 8.49,-5.11 12.59,-2.24 190,132.41 438.5,153.63 648.5,55.37 4.52,-2.12 9.91,-0.16 12.02,4.36 2.12,4.52 0.16,9.9 -4.36,12.02 -89.11,41.69 -186.63,63.27 -284.76,63.27l0.01 0 -0.01 0z"/>
   </g>
   <path class="fil7" d="M973.84 1832.74l0 -159.86 115.43 0 0 18.76 -94.22 0 0 49.12 88.19 0 0 18.76 -88.19 0 0 54.48 98.02 0 0 18.76 -119.22 0zm146.02 0l0 -115.88 17.64 0 0 16.45c8.48,-12.61 20.76,-18.91 36.8,-18.91 7,0 13.4,1.27 19.24,3.76 5.85,2.49 10.24,5.81 13.14,9.86 2.9,4.06 4.95,8.89 6.1,14.47 0.71,3.65 1.08,10.01 1.08,19.09l0 71.15 -19.65 0 0 -70.4c0,-8 -0.74,-13.99 -2.27,-17.94 -1.52,-3.94 -4.24,-7.11 -8.11,-9.49 -3.87,-2.35 -8.44,-3.54 -13.65,-3.54 -8.34,0 -15.52,2.65 -21.58,7.96 -6.07,5.28 -9.08,15.37 -9.08,30.18l0 63.22 -19.65 0zm120.56 9.6l18.98 2.68c0.78,5.88 3.02,10.16 6.66,12.87 4.87,3.61 11.54,5.43 19.98,5.43 9.08,0 16.11,-1.82 21.06,-5.43 4.95,-3.61 8.3,-8.71 10.05,-15.22 1,-3.98 1.49,-12.35 1.41,-25.12 -8.59,10.12 -19.28,15.18 -32.07,15.18 -15.93,0 -28.28,-5.73 -36.99,-17.23 -8.75,-11.46 -13.1,-25.23 -13.1,-41.27 0,-11.05 2.01,-21.25 5.99,-30.59 3.98,-9.34 9.79,-16.52 17.38,-21.62 7.59,-5.1 16.52,-7.63 26.8,-7.63 13.66,0 24.93,5.58 33.79,16.75l0 -14.29 18.08 0 0 100.06c0,18.05 -1.82,30.81 -5.5,38.33 -3.65,7.52 -9.49,13.47 -17.42,17.83 -7.96,4.35 -17.75,6.55 -29.36,6.55 -13.81,0 -24.93,-3.09 -33.42,-9.3 -8.52,-6.18 -12.61,-15.52 -12.32,-27.98zm16.08 -69.51c0,15.14 3.01,26.19 9.04,33.15 6.07,6.96 13.62,10.46 22.7,10.46 9.04,0 16.6,-3.46 22.74,-10.38 6.1,-6.92 9.15,-17.79 9.15,-32.6 0,-14.14 -3.16,-24.82 -9.45,-32 -6.29,-7.18 -13.88,-10.76 -22.74,-10.76 -8.74,0 -16.15,3.54 -22.29,10.61 -6.11,7.07 -9.15,17.56 -9.15,31.52zm111.26 59.91l0 -159.86 19.65 0 0 159.86 -19.65 0zm50.05 -137.54l0 -22.33 19.65 0 0 22.33 -19.65 0zm0 137.54l0 -115.88 19.65 0 0 115.88 -19.65 0zm41.79 -34.61l19.43 -3.13c1.08,7.78 4.13,13.73 9.11,17.9 4.99,4.13 11.98,6.21 20.91,6.21 9.04,0 15.74,-1.82 20.13,-5.5 4.35,-3.65 6.55,-7.96 6.55,-12.91 0,-4.43 -1.97,-7.93 -5.88,-10.46 -2.76,-1.75 -9.45,-3.94 -20.09,-6.66 -14.36,-3.61 -24.3,-6.74 -29.88,-9.38 -5.54,-2.68 -9.75,-6.33 -12.61,-11.01 -2.87,-4.65 -4.31,-9.82 -4.31,-15.48 0,-5.17 1.19,-9.94 3.53,-14.33 2.38,-4.39 5.58,-8.04 9.64,-10.94 3.05,-2.23 7.22,-4.13 12.46,-5.69 5.29,-1.56 10.91,-2.35 16.93,-2.35 9.08,0 17.04,1.3 23.89,3.94 6.89,2.61 11.94,6.18 15.22,10.65 3.24,4.5 5.51,10.49 6.74,18.01l-19.2 2.68c-0.85,-6.03 -3.39,-10.76 -7.55,-14.14 -4.17,-3.39 -10.05,-5.06 -17.68,-5.06 -8.97,0 -15.41,1.49 -19.24,4.46 -3.83,2.98 -5.77,6.47 -5.77,10.46 0,2.53 0.78,4.84 2.38,6.89 1.6,2.08 4.1,3.83 7.52,5.2 1.97,0.74 7.7,2.42 17.3,5.02 13.84,3.69 23.52,6.74 29.02,9.08 5.51,2.34 9.83,5.8 12.95,10.27 3.17,4.5 4.73,10.09 4.73,16.78 0,6.51 -1.9,12.65 -5.73,18.42 -3.83,5.76 -9.34,10.23 -16.52,13.39 -7.22,3.17 -15.37,4.73 -24.45,4.73 -15.03,0 -26.53,-3.13 -34.42,-9.34 -7.89,-6.25 -12.91,-15.48 -15.11,-27.72zm119.45 34.61l0 -159.86 19.65 0 0 57.53c9.11,-10.68 20.61,-16 34.53,-16 8.52,0 15.93,1.68 22.25,5.06 6.29,3.39 10.79,8.04 13.51,13.99 2.72,5.95 4.06,14.62 4.06,25.94l0 73.34 -19.65 0 0 -73.27c0,-9.78 -2.12,-16.93 -6.32,-21.39 -4.24,-4.46 -10.2,-6.7 -17.94,-6.7 -5.77,0 -11.2,1.49 -16.3,4.5 -5.1,3.02 -8.7,7.11 -10.9,12.28 -2.16,5.14 -3.24,12.24 -3.24,21.32l0 63.26 -19.65 0zm187.77 0l0 -159.86 21.21 0 0 141.11 78.59 0 0 18.76 -99.8 0zm198.3 -14.51c-7.3,6.21 -14.33,10.57 -21.06,13.13 -6.73,2.57 -13.95,3.83 -21.69,3.83 -12.73,0 -22.51,-3.09 -29.36,-9.3 -6.85,-6.18 -10.27,-14.11 -10.27,-23.74 0,-5.66 1.3,-10.83 3.87,-15.52 2.6,-4.69 5.99,-8.41 10.16,-11.24 4.2,-2.83 8.89,-4.99 14.14,-6.44 3.87,-1 9.71,-1.97 17.49,-2.94 15.85,-1.86 27.57,-4.13 35.06,-6.73 0.07,-2.68 0.11,-4.39 0.11,-5.1 0,-7.96 -1.86,-13.58 -5.58,-16.85 -5.02,-4.43 -12.51,-6.63 -22.4,-6.63 -9.27,0 -16.11,1.64 -20.5,4.88 -4.43,3.24 -7.67,8.97 -9.79,17.23l-19.2 -2.68c1.75,-8.22 4.61,-14.88 8.63,-19.94 4.02,-5.06 9.82,-8.93 17.41,-11.69 7.55,-2.71 16.37,-4.09 26.35,-4.09 9.9,0 17.97,1.16 24.19,3.5 6.18,2.35 10.76,5.25 13.66,8.78 2.9,3.54 4.95,8 6.14,13.4 0.63,3.35 0.97,9.38 0.97,18.05l0 26.05c0,18.19 0.41,29.69 1.22,34.57 0.78,4.87 2.42,9.53 4.8,13.99l-20.54 0c-1.97,-4.13 -3.24,-8.97 -3.8,-14.51zm-1.56 -43.54c-7.15,2.9 -17.86,5.36 -32.15,7.37 -8.11,1.15 -13.84,2.46 -17.19,3.91 -3.35,1.45 -5.92,3.57 -7.74,6.33 -1.82,2.79 -2.75,5.88 -2.75,9.3 0,5.17 1.97,9.52 5.95,12.99 3.98,3.46 9.79,5.21 17.42,5.21 7.55,0 14.29,-1.64 20.2,-4.95 5.88,-3.28 10.23,-7.78 12.99,-13.47 2.12,-4.43 3.16,-10.94 3.16,-19.54l0.11 -7.14zm50.05 58.05l0 -115.88 17.64 0 0 16.45c8.48,-12.61 20.76,-18.91 36.8,-18.91 7,0 13.39,1.27 19.24,3.76 5.84,2.49 10.23,5.81 13.13,9.86 2.91,4.06 4.95,8.89 6.11,14.47 0.7,3.65 1.08,10.01 1.08,19.09l0 71.15 -19.65 0 0 -70.4c0,-8 -0.74,-13.99 -2.27,-17.94 -1.52,-3.94 -4.24,-7.11 -8.11,-9.49 -3.87,-2.35 -8.44,-3.54 -13.66,-3.54 -8.33,0 -15.52,2.65 -21.58,7.96 -6.07,5.28 -9.08,15.37 -9.08,30.18l0 63.22 -19.65 0zm120.56 9.6l18.98 2.68c0.78,5.88 3.01,10.16 6.66,12.87 4.87,3.61 11.53,5.43 19.98,5.43 9.08,0 16.11,-1.82 21.06,-5.43 4.95,-3.61 8.3,-8.71 10.05,-15.22 1,-3.98 1.49,-12.35 1.42,-25.12 -8.6,10.12 -19.28,15.18 -32.07,15.18 -15.93,0 -28.28,-5.73 -36.99,-17.23 -8.74,-11.46 -13.1,-25.23 -13.1,-41.27 0,-11.05 2.01,-21.25 5.99,-30.59 3.98,-9.34 9.79,-16.52 17.38,-21.62 7.59,-5.1 16.52,-7.63 26.79,-7.63 13.66,0 24.93,5.58 33.79,16.75l0 -14.29 18.09 0 0 100.06c0,18.05 -1.82,30.81 -5.51,38.33 -3.65,7.52 -9.49,13.47 -17.41,17.83 -7.96,4.35 -17.75,6.55 -29.36,6.55 -13.8,0 -24.93,-3.09 -33.41,-9.3 -8.52,-6.18 -12.62,-15.52 -12.32,-27.98zm16.07 -69.51c0,15.14 3.02,26.19 9.04,33.15 6.06,6.96 13.62,10.46 22.7,10.46 9.04,0 16.59,-3.46 22.74,-10.38 6.1,-6.92 9.15,-17.79 9.15,-32.6 0,-14.14 -3.17,-24.82 -9.45,-32 -6.29,-7.18 -13.88,-10.76 -22.74,-10.76 -8.74,0 -16.15,3.54 -22.29,10.61 -6.11,7.07 -9.16,17.56 -9.16,31.52zm187.4 59.91l0 -17.23c-9,13.13 -21.21,19.69 -36.65,19.69 -6.81,0 -13.17,-1.3 -19.09,-3.91 -5.92,-2.65 -10.31,-5.92 -13.18,-9.87 -2.86,-3.98 -4.87,-8.81 -6.03,-14.55 -0.78,-3.87 -1.19,-9.97 -1.19,-18.31l0 -71.71 19.65 0 0 64.11c0,10.24 0.41,17.16 1.19,20.69 1.23,5.17 3.83,9.19 7.85,12.13 3.98,2.94 8.89,4.43 14.78,4.43 5.88,0 11.39,-1.49 16.52,-4.5 5.13,-3.02 8.78,-7.15 10.94,-12.32 2.12,-5.17 3.2,-12.72 3.2,-22.59l0 -61.96 19.65 0 0 115.88 -17.64 0zm124.17 -14.51c-7.29,6.21 -14.33,10.57 -21.06,13.13 -6.74,2.57 -13.95,3.83 -21.7,3.83 -12.72,0 -22.51,-3.09 -29.36,-9.3 -6.85,-6.18 -10.27,-14.11 -10.27,-23.74 0,-5.66 1.3,-10.83 3.87,-15.52 2.6,-4.69 5.99,-8.41 10.16,-11.24 4.2,-2.83 8.89,-4.99 14.14,-6.44 3.87,-1 9.71,-1.97 17.49,-2.94 15.85,-1.86 27.57,-4.13 35.06,-6.73 0.07,-2.68 0.11,-4.39 0.11,-5.1 0,-7.96 -1.86,-13.58 -5.58,-16.85 -5.02,-4.43 -12.5,-6.63 -22.4,-6.63 -9.27,0 -16.11,1.64 -20.5,4.88 -4.43,3.24 -7.67,8.97 -9.79,17.23l-19.2 -2.68c1.75,-8.22 4.61,-14.88 8.63,-19.94 4.02,-5.06 9.82,-8.93 17.41,-11.69 7.56,-2.71 16.37,-4.09 26.35,-4.09 9.9,0 17.97,1.16 24.19,3.5 6.17,2.35 10.75,5.25 13.66,8.78 2.9,3.54 4.94,8 6.14,13.4 0.63,3.35 0.97,9.38 0.97,18.05l0 26.05c0,18.19 0.41,29.69 1.22,34.57 0.78,4.87 2.42,9.53 4.8,13.99l-20.54 0c-1.97,-4.13 -3.24,-8.97 -3.8,-14.51zm-1.56 -43.54c-7.14,2.9 -17.86,5.36 -32.15,7.37 -8.11,1.15 -13.84,2.46 -17.19,3.91 -3.35,1.45 -5.92,3.57 -7.74,6.33 -1.83,2.79 -2.76,5.88 -2.76,9.3 0,5.17 1.97,9.52 5.95,12.99 3.98,3.46 9.79,5.21 17.42,5.21 7.55,0 14.29,-1.64 20.2,-4.95 5.88,-3.28 10.23,-7.78 12.99,-13.47 2.12,-4.43 3.16,-10.94 3.16,-19.54l0.11 -7.14zm46.44 67.65l18.98 2.68c0.78,5.88 3.01,10.16 6.66,12.87 4.87,3.61 11.54,5.43 19.98,5.43 9.08,0 16.11,-1.82 21.06,-5.43 4.95,-3.61 8.3,-8.71 10.05,-15.22 1,-3.98 1.49,-12.35 1.42,-25.12 -8.6,10.12 -19.28,15.18 -32.08,15.18 -15.93,0 -28.28,-5.73 -36.99,-17.23 -8.74,-11.46 -13.1,-25.23 -13.1,-41.27 0,-11.05 2.01,-21.25 5.99,-30.59 3.98,-9.34 9.79,-16.52 17.38,-21.62 7.59,-5.1 16.52,-7.63 26.79,-7.63 13.66,0 24.93,5.58 33.79,16.75l0 -14.29 18.09 0 0 100.06c0,18.05 -1.82,30.81 -5.51,38.33 -3.65,7.52 -9.49,13.47 -17.41,17.83 -7.96,4.35 -17.75,6.55 -29.36,6.55 -13.8,0 -24.93,-3.09 -33.41,-9.3 -8.52,-6.18 -12.62,-15.52 -12.32,-27.98zm16.07 -69.51c0,15.14 3.02,26.19 9.04,33.15 6.06,6.96 13.62,10.46 22.7,10.46 9.04,0 16.59,-3.46 22.74,-10.38 6.1,-6.92 9.15,-17.79 9.15,-32.6 0,-14.14 -3.16,-24.82 -9.45,-32 -6.29,-7.18 -13.88,-10.76 -22.74,-10.76 -8.74,0 -16.15,3.54 -22.29,10.61 -6.11,7.07 -9.16,17.56 -9.16,31.52zm190.75 22.4l20.31 2.68c-3.16,11.8 -9.08,20.99 -17.71,27.5 -8.63,6.51 -19.65,9.79 -33.08,9.79 -16.89,0 -30.29,-5.21 -40.19,-15.63 -9.9,-10.38 -14.85,-25 -14.85,-43.8 0,-19.43 4.99,-34.54 14.99,-45.25 10.01,-10.76 23,-16.11 38.96,-16.11 15.44,0 28.06,5.25 37.84,15.78 9.79,10.53 14.7,25.34 14.7,44.43 0,1.16 -0.04,2.91 -0.11,5.21l-86.29 0c0.74,12.69 4.31,22.44 10.79,29.17 6.44,6.73 14.51,10.12 24.15,10.12 7.18,0 13.32,-1.89 18.38,-5.69 5.1,-3.8 9.11,-9.86 12.09,-18.19zm-64.3 -31.48l64.53 0c-0.86,-9.75 -3.35,-17.04 -7.41,-21.92 -6.22,-7.55 -14.33,-11.35 -24.26,-11.35 -9.01,0 -16.56,3.02 -22.7,9.04 -6.1,6.03 -9.49,14.1 -10.16,24.22z"/>
  </g>
 </g>
</svg>
