<?xml version="1.0" encoding="UTF-8"?>
<!DOCTYPE svg PUBLIC "-//W3C//DTD SVG 1.1//EN" "http://www.w3.org/Graphics/SVG/1.1/DTD/svg11.dtd">
<!-- Creator: CorelDRAW 2020 (64-Bit) -->
<svg xmlns="http://www.w3.org/2000/svg" xml:space="preserve" width="94.1916mm" height="52.9166mm" version="1.1" style="shape-rendering:geometricPrecision; text-rendering:geometricPrecision; image-rendering:optimizeQuality; fill-rule:evenodd; clip-rule:evenodd" viewBox="0 0 9404.92 5283.66" xmlns:xlink="http://www.w3.org/1999/xlink" xmlns:xodm="http://www.corel.com/coreldraw/odm/2003">
 <defs>
  <style type="text/css">
   <![CDATA[
    .fil6 {fill:black}
    .fil8 {fill:#A9B1BC}
    .fil9 {fill:#CCD1D9}
    .fil0 {fill:#E6E7E8}
    .fil3 {fill:#FB6D51}
    .fil10 {fill:#FBD670}
    .fil4 {fill:#FD816D}
    .fil7 {fill:#FEC629}
    .fil5 {fill:#FEE9A6}
    .fil2 {fill:#373435;fill-opacity:0.031373}
    .fil1 {fill:#2B2A29;fill-opacity:0.101961}
   ]]>
  </style>
 </defs>
 <g id="Layer_x0020_1">
  <metadata id="CorelCorpID_0Corel-Layer"/>
  <polygon class="fil0" points="-0,0 9404.92,0 9404.92,5283.66 -0,5283.66 "/>
  <polygon class="fil1" points="-0,3088.49 -0,3053.82 -0,3003.83 -0,3001.3 -0,2976.53 -0,2957.27 -0,2917.63 -0,2790.27 -0,2789.1 -0,2756.52 -0,2750.24 -0,2735.92 -0,2733.39 -0,2713.62 -0,2712.46 -0,2711.84 -0,2710.23 -0,2706.48 -0,2704.65 -0,2606.23 -0,2580.62 -0,2575.42 4054.89,740.33 4042.96,745.83 4031.05,751.45 4019.16,757.18 4007.29,763.05 3995.45,769.04 3983.62,775.15 3971.8,781.39 3959.98,787.75 3948.17,794.25 3780.22,897.82 3760.94,911.71 3742.88,925.11 3725.92,938.1 3709.88,950.79 3694.64,963.26 3680.03,975.62 3665.91,987.94 3652.14,1000.35 3638.57,1012.92 3625.05,1025.74 3611.42,1038.91 3597.56,1052.53 3583.3,1066.7 3568.5,1081.49 3553,1097.02 3536.68,1113.37 3533.26,1116.88 4060.34,879.75 4039.24,889.84 4018.96,900.36 3999.52,911.16 4063.14,882.54 4085.05,873.04 4107.74,864.23 4107.74,864.9 4233.75,808.23 4365.32,771.84 4365.32,790.17 4499.65,729.87 4499.65,736.72 4502.46,735.46 4897.17,735.46 4897.17,827.45 5028.73,769.05 5028.73,771.85 5028.75,771.84 5157.52,808.23 5158.01,819.8 5158.44,831.41 5158.81,843.07 5159.13,854.78 5159.39,866.52 5159.6,878.29 5159.76,890.09 5159.88,901.91 5159.96,913.78 5159.98,918.24 5289.07,861.43 5289.07,865.46 5291.88,864.22 5313.17,872.1 5333.95,880.93 5354.22,890.55 5373.93,900.79 5393.06,911.49 5411.55,922.48 5429.39,933.61 5446.54,944.7 5462.97,955.6 5478.65,966.14 5493.53,976.14 5507.6,985.47 5520.81,993.94 5533.14,1001.39 5544.56,1007.66 5555.01,1012.59 5555.32,1042.55 5555.68,1070.55 5556.05,1096.64 5556.4,1120.9 5556.67,1143.39 5556.83,1164.19 5556.83,1179.41 5683.79,1124.56 5683.74,1127.39 5683.81,1127.36 5696.73,1135.93 5711.17,1147.73 5726.93,1162.41 5743.73,1179.58 5761.36,1198.89 5779.57,1219.97 5798.12,1242.44 5816.78,1265.92 5835.31,1290.08 5853.47,1314.51 5871.02,1338.86 5887.73,1362.77 5903.35,1385.85 5917.65,1407.75 5930.39,1428.08 5941.35,1446.49 5947.41,1457.09 5953.51,1467.91 5959.63,1478.91 5965.78,1490.11 5971.93,1501.5 5978.08,1513.06 5984.22,1524.79 5990.34,1536.68 5996.42,1548.74 6002.46,1560.94 6008.44,1573.28 6014.37,1585.75 6020.22,1598.35 6025.99,1611.07 6031.66,1623.91 6037.22,1636.85 6042.67,1649.89 6048,1663.02 6053.2,1676.23 6058.24,1689.52 6063.13,1702.88 6067.85,1716.31 6072.4,1729.78 6076.76,1743.31 6080.92,1756.88 6084.88,1770.48 6088.62,1784.11 6092.13,1797.76 6095.4,1811.42 6098.43,1825.08 6101.2,1838.75 6103.19,1849.6 6103.68,1849.6 6103.22,1849.79 6103.7,1852.4 5791.23,1982.28 5847.56,1982.5 5940.85,1982.95 6023.2,1983.46 6093.51,1984.03 6150.69,1984.64 6193.64,1985.29 6221.26,1986.01 6232.46,1986.77 6242.31,1991.11 6250.85,1996.66 6258.09,2003.24 6264.04,2010.7 6268.71,2018.86 6272.11,2027.57 6274.26,2036.64 6275.15,2045.91 6274.78,2055.22 6273.18,2064.38 6270.36,2073.25 6266.31,2081.65 6261.04,2089.41 6254.58,2096.35 6246.91,2102.33 6238.06,2107.15 5896.76,2247.1 6008.53,2247.1 6007.09,2267.51 6005.36,2287.78 6003.36,2307.91 6003.08,2310.39 6151.27,2249.91 6232.45,2249.91 6247.43,2249.27 6261.92,2247.4 6275.88,2244.35 6289.3,2240.18 6302.17,2234.96 5996.93,2359.27 5995.77,2367.47 5992.72,2387.04 5989.42,2406.45 5985.87,2425.71 5982.06,2444.82 5978.02,2463.77 5973.75,2482.56 5969.22,2501.19 5964.48,2519.66 5959.5,2537.95 5954.3,2556.08 5948.87,2574.03 5943.23,2591.82 5937.37,2609.42 5931.3,2626.84 5925.03,2644.09 5918.55,2661.14 5911.87,2678.02 5905,2694.69 5897.93,2711.18 5890.68,2727.47 5883.23,2743.56 5875.61,2759.45 5867.82,2775.14 5859.84,2790.63 5851.69,2805.9 5843.37,2820.97 5833.1,2839.11 5823.21,2855.85 5813.68,2871.35 5804.4,2885.8 5795.35,2899.36 5786.45,2912.21 5777.63,2924.51 5768.85,2936.45 5760.03,2948.19 5751.11,2959.91 5742.05,2971.77 5732.76,2983.95 5723.2,2996.62 5713.29,3009.96 5702.99,3024.14 5692.21,3039.33 5681.84,3054.09 5671.71,3068.98 5661.84,3084.01 5652.21,3099.17 5642.84,3114.45 5633.71,3129.87 5624.84,3145.42 5616.24,3161.1 5607.89,3176.91 5599.79,3192.86 5591.96,3208.93 5584.41,3225.14 5577.1,3241.47 5570.07,3257.94 5563.3,3274.54 5556.8,3291.27 5550.57,3308.13 5544.62,3325.13 5538.92,3342.25 5533.52,3359.5 5528.39,3376.89 5523.54,3394.4 5518.96,3412.05 5514.67,3429.84 5510.67,3447.74 5506.94,3465.78 5503.51,3483.96 5500.35,3502.27 5497.49,3520.7 5494.92,3539.27 5492.64,3557.96 5490.66,3576.79 5488.3,3600.98 5486.34,3624.18 5484.63,3646.45 5482.96,3667.78 5481.15,3688.19 5479.05,3707.69 5476.44,3726.31 5473.15,3744.06 5469.03,3760.96 5463.86,3777.02 5457.49,3792.26 5449.71,3806.7 5440.36,3820.35 5429.26,3833.23 5416.23,3845.35 5401.07,3856.73 5393.04,3861.51 5384.69,3865.91 5376.04,3869.91 5367.11,3873.57 4988.31,4019.11 5224.69,4019.11 5224.7,4019.11 5224.7,4065.85 5361.84,4013.51 5376.96,4012.26 5391.85,4009.61 5406.47,4005.71 5420.8,4000.65 5224.7,4075.47 5224.7,4150.67 4878.57,4282.24 5224.69,4282.24 5224.7,4282.24 5224.69,4282.24 5224.14,4311.56 5224.13,4311.56 5222.48,4338.7 5222.47,4338.7 5219.72,4363.75 5215.86,4386.78 5210.93,4407.87 5210.92,4407.87 5204.92,4427.11 5197.84,4444.57 5189.7,4460.35 5180.53,4474.52 5170.29,4487.16 5159.04,4498.36 5159.03,4498.36 5146.76,4508.19 5146.75,4508.19 5133.45,4516.75 5133.45,4516.76 5119.14,4524.12 5103.83,4530.37 4704.38,4679.76 5056.71,4679.76 5085.05,4678.02 5113.23,4672.96 5141.01,4664.79 3473.95,5283.66 3431.3,5283.66 3089.52,5283.66 3089.48,5283.66 2744.29,5283.66 2573.32,5283.66 2573.31,5283.66 2244.07,5283.66 2244.06,5283.66 2057.75,5283.66 2034.05,5283.66 1919,5283.66 1918.99,5283.66 1696.98,5283.66 1687.79,5283.66 1685.21,5283.66 1678.23,5283.66 1572.07,5283.66 1572.06,5283.66 1449.05,5283.66 1100.22,5283.66 930.42,5283.66 796.03,5283.66 767.14,5283.66 378.14,5283.66 316.56,5283.66 40.98,5283.66 -0,5283.66 -0,5158.43 -0,5143.86 -0,5080.88 -0,5078.16 -0,5075.78 -0,5073.32 -0,5073.08 -0,5062.15 -0,5034.14 -0,4986.58 -0,4981.46 -0,4948.42 -0,4946.57 -0,4946.24 -0,4945.18 -0,4935.9 -0,4933 -0,4932.14 -0,4931.47 -0,4929.6 -0,4880.48 -0,4858.61 -0,4858.51 -0,4856.06 -0,4840 -0,4801.68 -0,4789.75 -0,4779.29 -0,4760.34 -0,4746.68 -0,4744.72 -0,4744.48 -0,4739.24 -0,4738.98 -0,4728.26 -0,4724.19 -0,4715.44 -0,4706.9 -0,4705.94 -0,4682.39 -0,4679.85 -0,4665.1 -0,4664.08 -0,4623.56 -0,4621.01 -0,4595.22 -0,4575.75 -0,4567.44 -0,4556.22 -0,4537.12 -0,4532.09 -0,4525.01 -0,4489.27 -0,4486.74 -0,4485.25 -0,4466.64 -0,4389.71 -0,4389.46 -0,4386.97 -0,4385.68 -0,4336.48 -0,4336.04 -0,4284.48 -0,4250.16 -0,4246.06 -0,4228.14 -0,4210.57 -0,4157.76 -0,4142.01 -0,4090.1 -0,4055.08 -0,4040.52 -0,4036.44 -0,3967.12 -0,3954.63 -0,3954.62 -0,3935.41 -0,3931.31 -0,3880.93 -0,3861.14 -0,3861.13 -0,3835.11 -0,3835.1 -0,3816.3 -0,3814.56 -0,3811.53 -0,3810.12 -0,3753.36 -0,3750.8 -0,3741.77 -0,3715.59 -0,3708.95 -0,3699.08 -0,3693.85 -0,3690.45 -0,3688.93 -0,3684.49 -0,3655.55 -0,3648.69 -0,3640.92 -0,3630.12 -0,3626.04 -0,3623.49 -0,3615.84 -0,3603.52 -0,3599.73 -0,3596.08 -0,3583.13 -0,3580.6 -0,3574.45 -0,3535 -0,3509.44 -0,3509.43 -0,3482.69 -0,3482.68 -0,3480.94 -0,3434.19 -0,3430.54 -0,3430.01 -0,3418.16 -0,3414.46 -0,3392.44 -0,3388.75 -0,3387.64 -0,3370.48 -0,3367.84 -0,3366.69 -0,3360.73 -0,3341.29 -0,3338.66 -0,3293.42 -0,3248.57 -0,3247.43 -0,3241.59 -0,3237.01 -0,3230.09 -0,3192.68 -0,3189.04 -0,3160.6 -0,3116.5 -0,3112.78 -0,3110.44 -0,3099.53 "/>
  <path class="fil2" d="M578.49 4627.69c17.95,27.21 29.6,53.36 40.96,82.43 8.45,16.91 12.93,48.09 52.57,48.09 11.61,0 28.28,-3.42 43.06,-11.61 16.63,-8.73 29.32,-21.94 35.94,-42l15.85 -53.36 38.57 -19.02 2.64 2.64c-5.27,20.09 -6.59,39.36 -6.59,54.43 0,44.63 38.57,61.56 69.22,61.56 17.95,0 34.09,-8.73 34.09,-25.11 0,-21.13 -8.98,-57.06 -20.62,-89.29 17.95,-17.95 35.94,-35.94 56.53,-50.47l3.17 1.6c8.98,38.04 14,75.56 14,100.66 0,24.57 -10.83,51.79 -19.81,69.49 -18.49,34.87 -51.25,62.62 -90.87,62.62 -30.1,0 -63.65,-15.07 -86.66,-43.06l-1.32 0c-21.66,26.96 -55.22,51.25 -108.86,51.25l-16.63 0c-2.64,35.41 -10.29,60.49 -21.94,82.95 -31.95,62.34 -126.81,106.47 -216.1,106.47 -124.17,0 -186.51,-71.59 -186.51,-166.96 0,-58.91 19.27,-113.6 48.88,-152.42l24.29 10.04c-18.49,35.41 -30.91,68.68 -30.91,101.45 0,89.29 72.66,131.83 156.4,131.83 77.68,0 173.83,-49.41 191.28,-106.72 -6.59,-62.62 -30.1,-91.93 -66.04,-148.99 10.83,-19.02 24.83,-38.04 42.28,-58.38l3.17 0 0 0 0 0 -0.02 -0.09zm1432.13 -336.04c26.15,16.39 51.79,35.66 76.87,57.85 -14,19.81 -31.45,37.79 -53.11,53.64 -25.11,-20.34 -50.19,-37.79 -75.84,-56.27 17.42,-19.55 34.62,-38.29 52.04,-55.22l0 0 0 0 0 0 0 0 0 0 0.03 0zm13.47 244.11c-42.28,0 -76.87,27.75 -76.87,48.34 0,44.13 84.53,57.85 185.72,57.31 -12.68,-51.79 -57.06,-105.68 -108.86,-105.68l0.01 0.03zm-94.86 236.19c54.96,0 103.04,-1.6 139.74,-10.83 40.96,-10.29 75.56,-30.91 75.56,-45.17 0,-3.7 0,-8.19 -1.32,-11.89 -22.98,2.11 -49.41,2.11 -72.38,2.11 -74.49,0 -131.55,-16.91 -154.02,-58.66 -5.55,-11.61 -9.51,-24.57 -9.51,-39.36 0,-40.43 17.42,-79.79 48.09,-107 25.61,-22.45 53.89,-36.44 82.67,-36.44 52.04,0 93.51,41.75 122.57,107.54 15.85,35.94 26.68,77.4 26.68,129.72 0,34.87 -9.51,64.19 -31.17,85.85 -40.43,39.11 -114.92,53.89 -229.04,53.89l-51.79 0 0 0 -13.47 0c-28.28,0 -48.62,-5.02 -64.72,-17.42l-2.64 0c0.79,6.59 1.32,12.93 1.32,19.02 0,25.61 -8.45,58.38 -25.61,84.53 -50.72,75.3 -105.68,108.04 -153.24,108.04 -48.09,0 -107,-18.49 -160.11,-42.54l9.51 -18.49c17.17,7.13 40.96,11.89 73.7,11.89 85.85,0 198.66,-82.43 212.66,-163 -3.17,-6.59 -8.98,-15.32 -17.17,-24.57 -25.11,-29.85 -40.96,-54.68 -55.75,-80.83 12.68,-25.11 24.29,-45.17 35.13,-63.4l4.49 -0.53c36.72,74.77 69.99,117.55 144.23,117.55l11.61 0 0 0 53.89 0 0 0 0 0 0 0 0 0 0 0 0.09 0.01zm-371.98 79c6.34,-34.34 6.87,-72.91 6.87,-108.86l0 -53.36c0,-99.6 -12.68,-244.36 -22.98,-338.68 17.95,-19.27 43.06,-42 62.87,-57.31l5.81 1.6c13.47,118.62 16.63,256 16.63,383.06 0,33.3 -1.32,65.79 -4.49,89.55 -1.85,30.1 -19.27,52.83 -56.53,87.7l-8.19 -3.7zm-382.8 -157.19c1.85,46.77 24.83,83.49 105.15,83.49 49.93,0 92.19,-12.93 138.96,-35.13 8.45,-3.7 12.93,-8.73 12.93,-12.93 0,-29.32 -22.45,-68.15 -60.23,-103.55 -36.72,-33.3 -85.34,-62.62 -130.76,-82.18 -15.6,-6.59 -20.62,-13.47 -20.62,-20.09 0,-13.47 17.95,-41.75 32.77,-62.09l5.02 -0.53c52.04,27.21 110.17,67.64 153.24,112.53 39.11,41.47 63.4,83.49 63.4,129.19 0,33.81 -10.29,65.51 -26.96,95.11 -57.06,28.79 -117.83,50.72 -178.06,50.72 -73.17,0 -123.1,-34.34 -123.1,-114.92 0,-8.73 0,-22.19 3.17,-39.64l25.11 0 0 0 0 0 0 0 0 0 0 0 -0.02 0zm-132.37 -132.9l45.45 73.45c16.63,27.21 32.23,56.81 32.23,103.55l0 59.7c0,48.34 -30.91,100.13 -80.83,151.38 -39.11,34.62 -73.7,49.41 -105.68,49.41 -47.55,0 -101.98,-14.79 -164.85,-41.75l7.13 -18.49c19.81,5.27 42.79,9.77 71.06,9.77 90.36,-0.53 182.8,-66.57 225.08,-147.15 5.02,-9.26 6.87,-17.95 6.87,-24.04 0,-9.26 -5.02,-19.55 -8.98,-28.79 -22.98,-43.31 -48.62,-82.95 -76.87,-119.68 14.79,-23.25 29.6,-45.7 45.7,-67.9l3.7 0.53 0 0 0 0 0 0 0 0 0 0 -0.02 0.01z"/>
  <g id="_3029281968544">
   <polygon class="fil3" points="4435.28,1454.89 4435.28,1586.46 4499.65,1586.46 4499.65,1718.04 4435.28,1718.04 4435.28,1849.61 4958.75,1849.61 4958.75,1718.04 4894.37,1718.04 4894.37,1586.46 4958.75,1586.46 4958.75,1454.89 4894.37,1454.89 4894.37,729.87 4499.65,729.87 4499.65,1454.89 "/>
   <path class="fil3" d="M3161.57 1986.77c-61.59,28 -53.19,100.78 2.8,120.38 33.59,11.19 1366.08,5.59 1433.27,5.59 173.56,0 1595.63,11.2 1637.62,-5.59 50.38,-22.4 47.59,-100.78 -5.6,-120.38 -27.99,-8.4 -3045.7,-8.4 -3068.09,2.81l0 -2.81z"/>
   <path class="fil3" d="M3841.8 1009.8c-2.8,226.75 -55.98,358.32 204.36,313.54 81.19,-14 58.78,-120.38 58.78,-195.96 0,-89.58 0,-176.35 0,-265.94 -123.17,44.78 -212.76,125.97 -263.14,148.37z"/>
   <path class="fil3" d="M5378.66 1323.32c195.96,0 173.56,14 173.56,-313.53 -50.38,-22.4 -148.37,-106.38 -263.14,-148.37 0,89.58 0,181.95 0,271.53 0,100.79 -25.19,190.36 89.58,190.36z"/>
   <path class="fil4" d="M4435.28 1849.61l0 -131.57 -67.19 0 0 -131.57 67.19 0 0 -131.57 -67.19 0 0 -683.05 -131.57 36.39c-5.6,117.57 0,249.13 0,369.51 0,139.97 -16.79,215.55 -117.57,263.14 -81.19,36.38 -257.54,25.19 -324.73,-16.79 -89.58,-58.78 -83.99,-159.57 -83.99,-296.73 -64.38,36.38 -201.55,221.16 -254.73,313.54 -64.39,109.17 -139.97,268.73 -165.16,411.5l1144.94 0 0.01 -2.8z"/>
   <path class="fil4" d="M4958.75 1454.89l0 131.57 67.19 0 0 131.57 -67.19 0 0 131.57 1144.93 0c-25.19,-145.57 -97.98,-293.94 -162.35,-405.91 -53.19,-89.58 -193.17,-282.73 -257.54,-319.14 -2.81,131.57 5.59,232.35 -78.39,291.13 -67.19,47.59 -240.75,58.78 -324.73,22.4 -103.57,-41.99 -123.17,-117.57 -123.17,-254.73 0,-123.17 5.6,-254.74 0,-377.92l-128.77 -36.38 0 685.84 -67.19 0 -2.79 0z"/>
   <path class="fil5" d="M3385.5 2244.31c19.6,366.71 137.17,551.47 316.34,797.81 50.38,67.19 95.18,151.16 128.77,240.75 36.38,95.18 58.78,190.36 69.98,299.53 14,134.37 2.81,218.35 95.19,274.33 83.98,50.38 229.55,30.79 338.73,30.79 243.54,0 487.08,0 730.62,0 109.18,0 251.95,19.59 335.93,-36.39 89.58,-58.78 78.38,-148.37 89.58,-279.93 19.59,-201.56 89.57,-380.71 201.55,-537.48 58.78,-83.98 95.18,-117.57 151.16,-218.35 89.58,-159.56 151.16,-355.52 165.16,-573.87l-459.09 0c0,83.98 8.4,139.97 -30.79,207.16 -50.38,81.18 -86.78,55.98 -131.57,97.97 -95.18,83.99 83.98,209.96 -69.98,347.12 -41.99,39.19 -61.59,81.19 -142.76,95.19 -95.19,16.79 -128.78,-41.99 -195.96,-16.79 -72.79,25.19 -47.59,75.59 -106.38,131.57 -86.78,83.98 -265.94,78.38 -349.92,-2.81 -55.99,-53.18 -30.79,-100.78 -103.57,-128.77 -67.19,-25.19 -103.58,36.38 -204.36,13.99 -78.38,-16.79 -92.38,-55.98 -137.16,-95.18 -153.97,-137.17 22.39,-265.94 -69.99,-347.12 -16.79,-16.79 -55.99,-22.4 -81.19,-41.99 -95.18,-69.98 -83.98,-170.75 -83.98,-263.13l-456.3 0 0.01 5.59z"/>
   <path class="fil5" d="M4676.02 2249.91c-89.58,41.99 -22.4,148.37 47.58,117.57 78.39,-33.59 25.19,-153.96 -47.58,-117.57z"/>
   <path class="fil6" d="M4172.13 4282.24l1052.57 0c0,324.73 -190.36,263.14 -526.28,263.14 -335.92,0 -526.27,61.58 -526.27,-263.14l-0.01 0zm0 -263.13l1052.57 0 0 131.56 -1052.57 0 0 -131.56zm1248.51 -1774.79c0,170.76 0,131.57 -86.78,184.75 -41.99,25.19 -64.39,53.19 -86.79,100.78 -78.38,179.16 75.59,179.16 -36.38,291.13 -114.78,114.78 -109.17,-44.78 -296.73,39.19 -165.16,75.59 -53.18,170.76 -223.95,170.76 -139.97,0 -44.78,-109.18 -223.95,-179.16 -173.55,-69.98 -167.96,92.38 -299.53,-53.18 -64.38,-69.99 64.39,-159.56 -39.18,-313.54 -33.59,-50.38 -58.78,-50.38 -114.78,-83.98 -50.38,-30.79 -39.19,-86.79 -36.38,-159.56l268.73 0c-8.4,81.19 -2.8,145.56 22.4,218.35 170.75,487.09 937.78,372.32 890.19,-218.35l265.93 0 -2.8 2.81zm-2035.14 0l456.3 0c0,92.38 -11.19,193.16 83.98,263.14 25.19,19.59 64.39,25.19 81.19,41.99 95.19,83.98 -83.98,209.95 69.99,347.12 41.99,39.18 55.98,75.59 137.16,95.18 100.78,22.4 134.37,-39.19 204.36,-14 72.79,25.19 47.58,75.59 103.57,128.78 83.98,81.19 263.14,86.78 349.92,2.8 58.78,-55.99 36.39,-106.38 106.38,-131.57 67.19,-25.19 100.78,33.59 195.96,16.79 81.19,-13.99 100.78,-55.98 142.76,-95.18 153.96,-139.97 -25.19,-265.94 69.98,-347.12 47.59,-41.99 81.19,-16.79 131.57,-97.98 41.99,-67.19 30.79,-123.16 30.79,-207.16l459.09 0c-14,218.36 -75.59,414.3 -165.16,573.87 -55.98,100.79 -92.38,134.38 -151.16,218.36 -111.97,156.76 -181.95,335.92 -201.55,537.47 -14,131.57 -2.81,221.16 -89.58,279.94 -83.98,53.18 -223.95,36.38 -335.92,36.38 -243.55,0 -487.09,0 -730.63,0 -109.17,0 -254.74,19.6 -338.73,-30.78 -92.38,-55.99 -81.19,-139.97 -95.18,-274.33 -11.2,-109.18 -33.59,-204.36 -69.99,-299.53 -36.38,-89.58 -78.38,-173.56 -128.77,-240.75 -181.95,-246.35 -296.73,-431.1 -316.33,-797.81l-0.02 -5.6zm1290.52 5.6c72.78,-36.38 125.97,83.98 47.58,117.57 -69.98,30.79 -137.16,-75.59 -47.58,-117.57zm344.32 -5.6c67.19,517.88 -711.03,517.88 -643.85,0l134.37 0c-78.39,344.33 450.7,347.12 372.32,0l137.16 0zm-1855.97 -254.73c22.4,-11.2 3040.1,-11.2 3068.1,-2.81 55.98,19.6 55.98,97.98 5.59,120.38 -41.99,16.79 -1461.26,5.59 -1637.61,5.59 -69.99,0 -1399.68,5.6 -1433.28,-5.59 -55.98,-19.6 -61.58,-89.58 -2.8,-120.38l0 2.81zm1273.7 -531.88l64.39 0 0 -722.24 394.7 0 0 722.24 64.39 0 67.19 0 0 -685.85 128.78 36.38c5.59,123.17 0,254.74 0,377.92 0,137.16 19.59,212.75 123.16,254.73 83.99,33.59 257.54,22.4 324.74,-22.39 86.78,-58.78 78.38,-159.56 78.38,-291.13 64.39,36.38 204.36,226.75 257.54,319.13 64.39,111.98 137.16,260.35 162.35,405.91l-1144.93 0 -526.27 0 -1144.94 0c25.19,-142.76 100.78,-302.32 165.16,-411.5 55.98,-92.39 190.36,-277.14 254.73,-313.54 0,137.16 -5.59,237.94 83.99,296.72 67.19,44.79 243.54,53.19 324.73,16.79 100.78,-44.78 117.57,-123.16 117.57,-263.13 0,-120.38 -5.6,-249.14 0,-369.52l131.57 -36.38 0 683.05 67.19 0 5.56 2.81zm943.38 -131.57c-114.77,0 -89.57,-86.79 -89.57,-190.36 0,-89.58 0,-181.95 0,-271.54 114.77,39.19 209.95,125.97 263.13,148.37 2.81,330.33 22.4,313.54 -173.56,313.54zm-1536.84 -313.53c50.38,-22.4 139.96,-103.57 263.13,-148.37 0,89.58 0,176.35 0,265.94 0,75.59 22.4,181.95 -58.78,195.96 -260.34,44.78 -207.16,-86.79 -204.35,-313.54zm-853.81 1021.76c0,125.97 81.19,212.76 181.95,212.76l81.19 0c0,271.53 128.77,601.86 296.72,811.81 78.39,97.98 131.57,190.36 173.56,310.74 81.19,235.14 14,389.1 120.38,520.67 39.18,47.59 117.57,120.38 198.75,123.17l0 361.11c0,151.17 151.17,305.13 305.13,305.13l708.24 0c151.16,0 305.13,-151.16 305.13,-305.13l0 -361.11c81.19,-2.8 153.96,-69.99 195.96,-117.57 22.39,-25.19 41.99,-64.39 55.98,-100.78 28,-92.38 -11.19,-366.71 167.96,-635.46 22.4,-33.59 41.99,-58.78 67.19,-89.58 25.19,-30.78 44.79,-61.58 67.2,-95.18 86.78,-128.77 162.35,-291.13 195.95,-445.11 16.79,-78.38 39.19,-184.75 39.19,-279.93l81.19 0c162.35,0 243.54,-221.16 125.97,-338.73 -47.59,-47.59 -92.38,-36.38 -111.98,-69.98l-89.57 -279.94c-39.19,-89.58 -72.79,-159.56 -125.98,-235.14 -25.19,-39.19 -47.58,-69.99 -75.59,-106.38 -16.79,-19.59 -25.19,-30.79 -41.99,-50.38 -204.35,-229.55 -411.5,-386.31 -708.24,-484.29 -100.78,-33.59 -142.76,-36.39 -215.55,-55.99 -30.79,-8.4 -44.78,-25.19 -72.79,-25.19l-428.29 0 -142.76 39.19c-145.57,33.59 -271.54,81.18 -397.51,151.16l-167.96 103.57c-106.38,75.59 -153.97,125.97 -243.54,215.55 -151.17,151.16 -305.13,436.71 -358.33,646.65 -41.99,165.16 -27.99,53.18 -128.77,142.76 -25.19,22.4 -58.78,81.19 -58.78,128.78l0 2.8z"/>
   <polygon class="fil6" points="4435.28,1718.04 4499.65,1718.04 4499.65,1586.46 4435.28,1586.46 4368.09,1586.46 4368.09,1718.04 "/>
   <polygon class="fil6" points="4958.75,1718.04 5025.94,1718.04 5025.94,1586.46 4958.75,1586.46 4894.37,1586.46 4894.37,1718.04 "/>
   <path class="fil7" d="M4690.01 3033.73c167.96,0 58.78,-95.18 223.95,-170.75 187.57,-86.79 181.95,72.78 296.73,-39.19 111.97,-111.98 -41.99,-111.98 36.38,-291.13 22.4,-50.38 44.79,-78.39 86.79,-100.78 89.57,-53.19 86.78,-11.2 86.78,-184.75l-265.94 0c47.59,590.67 -719.43,705.43 -890.19,218.35 -25.19,-72.79 -30.78,-137.17 -22.39,-218.35l-268.74 0c0,72.78 -13.99,128.77 36.39,159.56 55.98,33.59 78.38,30.78 114.77,83.98 103.58,153.96 -25.19,243.54 39.19,313.54 131.57,145.56 125.97,-16.79 299.53,53.18 179.16,72.79 81.19,179.15 223.95,179.15l2.8 -2.81z"/>
   <path class="fil8" d="M4172.13 4282.24c0,324.73 190.36,263.14 526.27,263.14 335.93,0 526.28,61.58 526.28,-263.14l-1052.57 0 0.01 0z"/>
   <polygon class="fil9" points="4172.13,4150.67 5224.69,4150.67 5224.69,4019.11 4172.13,4019.11 "/>
   <path class="fil10" d="M5020.34 2244.31l-137.16 0c78.38,347.12 -450.71,344.33 -372.32,0l-134.37 0c-67.19,517.88 711.03,517.88 643.85,0z"/>
  </g>
 </g>
</svg>