<?xml version="1.0" encoding="UTF-8"?>
<!DOCTYPE svg PUBLIC "-//W3C//DTD SVG 1.1//EN" "http://www.w3.org/Graphics/SVG/1.1/DTD/svg11.dtd">
<!-- Creator: CorelDRAW 2020 (64-Bit) -->
<svg xmlns="http://www.w3.org/2000/svg" xml:space="preserve" width="94.1916mm" height="52.9166mm" version="1.1" style="shape-rendering:geometricPrecision; text-rendering:geometricPrecision; image-rendering:optimizeQuality; fill-rule:evenodd; clip-rule:evenodd"
viewBox="0 0 9404.92 5283.66"
 xmlns:xlink="http://www.w3.org/1999/xlink"
 xmlns:xodm="http://www.corel.com/coreldraw/odm/2003">
 <defs>
  <style type="text/css">
   <![CDATA[
    .fil5 {fill:#A2D9F7}
    .fil10 {fill:#001D36}
    .fil8 {fill:#001E36}
    .fil6 {fill:#005BDB}
    .fil7 {fill:#1C9EFE}
    .fil9 {fill:#31A7FE}
    .fil3 {fill:#3A4B66}
    .fil0 {fill:#E6E7E8}
    .fil4 {fill:#FFA63A}
    .fil2 {fill:#373435;fill-opacity:0.031373}
    .fil1 {fill:#2B2A29;fill-opacity:0.101961}
   ]]>
  </style>
 </defs>
 <g id="Layer_x0020_1">
  <metadata id="CorelCorpID_0Corel-Layer"/>
  <polygon class="fil0" points="-0,0 9404.92,0 9404.92,5283.66 -0,5283.66 "/>
  <polygon class="fil1" points="5860.1,1504.31 5338.55,1777.34 5338.55,1265.5 5339.83,1252.89 5343.5,1241.14 5349.3,1230.48 5356.98,1221.18 5366.28,1213.5 3421.82,2272.64 3416.24,2254.32 3408.41,2232.55 3399.56,2211.42 3389.73,2190.98 3378.9,2171.33 3367.12,2152.51 3350.96,2129.9 3333.81,2108.92 3315.73,2089.53 3296.76,2071.67 3276.94,2055.28 3256.32,2040.29 3234.94,2026.66 3212.86,2014.31 3190.1,2003.2 3166.73,1993.25 3142.76,1984.42 3118.27,1976.64 3093.29,1969.85 3067.86,1963.99 3042.02,1959 3015.83,1954.84 2989.33,1951.43 2962.56,1948.7 2935.57,1946.61 2908.4,1945.11 2881.09,1944.12 2853.7,1943.58 2826.26,1943.44 2798.81,1943.64 2771.41,1944.12 2744.11,1944.82 2716.93,1945.67 2689.93,1946.63 2663.15,1947.63 2636.63,1948.62 2610.43,1949.52 2584.58,1950.29 2558.76,1950.71 2536.75,1950.69 2518.27,1950.55 2503.01,1950.6 2490.68,1951.13 2480.97,1952.46 2473.62,1954.9 1844.52,2320.36 1844.52,1657.02 1845.21,1629.89 1847.24,1603.11 1850.6,1576.72 1855.24,1550.75 1861.12,1525.24 1868.23,1500.22 1876.53,1475.72 1885.97,1451.77 1896.54,1428.41 1908.18,1405.67 1920.88,1383.59 1934.6,1362.19 1949.31,1341.52 1964.97,1321.59 1981.54,1302.46 1999,1284.14 2017.32,1266.68 2036.46,1250.1 2056.38,1234.44 2077.06,1219.74 2098.45,1206.02 -0,2514.65 -0,2783.19 -0,3391.89 -0,3445.05 -0,3750.56 -0,4007.67 -0,4131.44 -0,4141.16 -0,4245.06 -0,4325.86 -0,4347.04 -0,4393.99 -0,4505.68 -0,4549.74 -0,4558.46 -0,4646.01 -0,4725.94 -0,4738.13 -0,4747.24 -0,4754.41 -0,4852.03 -0,4852.84 -0,4867.17 -0,5082.13 -0,5087.47 -0,5205.4 -0,5283.66 54.95,5283.66 63.54,5283.66 64.47,5283.66 160.82,5283.66 965.01,5283.66 1517.89,5283.66 1996.06,5283.66 2092.29,5283.66 2280.31,5283.66 2874.21,5283.66 3491.6,5283.66 4509.45,5283.66 7522.01,4075.93 7510.26,4079.6 7497.65,4080.88 6369.95,4080.88 7089.3,3780.29 7093.86,3777.8 7097.84,3774.52 7101.14,3770.53 7103.63,3765.96 7105.19,3760.92 7105.74,3755.51 7105.74,3659.06 7105.19,3653.66 7103.63,3648.62 7101.14,3644.05 7097.84,3640.07 7093.86,3636.77 7089.3,3634.29 7084.25,3632.72 7078.85,3632.17 6724.86,3632.17 7089.3,3475.87 7093.86,3473.38 7097.84,3470.1 7101.14,3466.11 7103.63,3461.54 7105.19,3456.5 7105.74,3451.1 7105.74,3354.64 7105.19,3349.24 7103.63,3344.2 7101.14,3339.63 7097.84,3335.65 7093.86,3332.36 7089.3,3329.87 7084.25,3328.3 7078.85,3327.75 6725.13,3327.75 7089.3,3167.5 7093.86,3165.02 7097.84,3161.72 7101.14,3157.74 7103.63,3153.18 7105.19,3148.13 7105.74,3142.72 7105.74,3046.27 7105.19,3040.87 7103.63,3035.82 7101.14,3031.26 7097.84,3027.28 7093.86,3023.98 7089.3,3021.5 7084.25,3019.93 7078.85,3019.38 6506.49,3019.38 7062.58,2766.36 7060.09,2332.14 7060.09,1540.05 7059.3,1532.25 7057.03,1524.98 7053.44,1518.39 7048.7,1512.64 7042.95,1507.9 7036.36,1504.31 7029.09,1502.04 7021.29,1501.25 5875.17,1501.25 5867.37,1502.04 "/>
  <path class="fil2" d="M564.26 4628.75c17.95,27.21 29.6,53.36 40.96,82.43 8.45,16.91 12.93,48.09 52.57,48.09 11.61,0 28.28,-3.42 43.06,-11.61 16.63,-8.73 29.32,-21.94 35.94,-42l15.85 -53.36 38.57 -19.02 2.64 2.64c-5.27,20.09 -6.59,39.36 -6.59,54.43 0,44.63 38.57,61.56 69.22,61.56 17.95,0 34.09,-8.73 34.09,-25.11 0,-21.13 -8.98,-57.06 -20.62,-89.29 17.95,-17.95 35.94,-35.94 56.53,-50.47l3.17 1.6c8.98,38.04 14,75.56 14,100.66 0,24.57 -10.83,51.79 -19.81,69.49 -18.49,34.87 -51.25,62.62 -90.87,62.62 -30.1,0 -63.65,-15.07 -86.66,-43.06l-1.32 0c-21.66,26.96 -55.22,51.25 -108.86,51.25l-16.63 0c-2.64,35.41 -10.29,60.49 -21.94,82.95 -31.95,62.34 -126.81,106.47 -216.1,106.47 -124.17,0 -186.51,-71.59 -186.51,-166.96 0,-58.91 19.27,-113.6 48.88,-152.42l24.29 10.04c-18.49,35.41 -30.91,68.68 -30.91,101.45 0,89.29 72.66,131.83 156.4,131.83 77.68,0 173.83,-49.41 191.28,-106.72 -6.59,-62.62 -30.1,-91.93 -66.04,-148.99 10.83,-19.02 24.83,-38.04 42.28,-58.38l3.17 0 0 0 0 0 -0.02 -0.09zm1432.14 -336.04c26.15,16.39 51.79,35.66 76.87,57.85 -14,19.81 -31.45,37.79 -53.11,53.64 -25.11,-20.34 -50.19,-37.79 -75.84,-56.27 17.42,-19.55 34.62,-38.29 52.04,-55.22l0 0 0 0 0 0 0 0 0 0 0.03 0zm13.47 244.11c-42.28,0 -76.87,27.75 -76.87,48.34 0,44.13 84.53,57.85 185.72,57.31 -12.68,-51.79 -57.06,-105.68 -108.86,-105.68l0.01 0.03zm-94.86 236.19c54.96,0 103.04,-1.6 139.74,-10.83 40.96,-10.29 75.56,-30.91 75.56,-45.17 0,-3.7 0,-8.19 -1.32,-11.89 -22.98,2.11 -49.41,2.11 -72.38,2.11 -74.49,0 -131.55,-16.91 -154.02,-58.66 -5.55,-11.61 -9.51,-24.57 -9.51,-39.36 0,-40.43 17.42,-79.79 48.09,-107 25.61,-22.45 53.89,-36.44 82.67,-36.44 52.04,0 93.51,41.75 122.57,107.54 15.85,35.94 26.68,77.4 26.68,129.72 0,34.87 -9.51,64.19 -31.17,85.85 -40.43,39.11 -114.92,53.89 -229.04,53.89l-51.79 0 0 0 -13.47 0c-28.28,0 -48.62,-5.02 -64.72,-17.42l-2.64 0c0.79,6.59 1.32,12.93 1.32,19.02 0,25.61 -8.45,58.38 -25.61,84.53 -50.72,75.3 -105.68,108.04 -153.24,108.04 -48.09,0 -107,-18.49 -160.11,-42.54l9.51 -18.49c17.17,7.13 40.96,11.89 73.7,11.89 85.85,0 198.66,-82.43 212.66,-163 -3.17,-6.59 -8.98,-15.32 -17.17,-24.57 -25.11,-29.85 -40.96,-54.68 -55.75,-80.83 12.68,-25.11 24.29,-45.17 35.13,-63.4l4.49 -0.53c36.72,74.77 69.99,117.55 144.23,117.55l11.61 0 0 0 53.89 0 0 0 0 0 0 0 0 0 0 0 0.09 0.01zm-371.98 79c6.34,-34.34 6.87,-72.91 6.87,-108.86l0 -53.36c0,-99.6 -12.68,-244.36 -22.98,-338.68 17.95,-19.27 43.06,-42 62.87,-57.31l5.81 1.6c13.47,118.62 16.63,256 16.63,383.06 0,33.3 -1.32,65.79 -4.49,89.55 -1.85,30.1 -19.27,52.83 -56.53,87.7l-8.19 -3.7zm-382.8 -157.19c1.85,46.77 24.83,83.49 105.15,83.49 49.93,0 92.19,-12.93 138.96,-35.13 8.45,-3.7 12.93,-8.73 12.93,-12.93 0,-29.32 -22.45,-68.15 -60.23,-103.55 -36.72,-33.3 -85.34,-62.62 -130.76,-82.18 -15.6,-6.59 -20.62,-13.47 -20.62,-20.09 0,-13.47 17.95,-41.75 32.77,-62.09l5.02 -0.53c52.04,27.21 110.17,67.64 153.24,112.53 39.11,41.47 63.4,83.49 63.4,129.19 0,33.81 -10.29,65.51 -26.96,95.11 -57.06,28.79 -117.83,50.72 -178.06,50.72 -73.17,0 -123.1,-34.34 -123.1,-114.92 0,-8.73 0,-22.19 3.17,-39.64l25.11 0 0 0 0 0 0 0 0 0 0 0 -0.02 0zm-132.37 -132.9l45.45 73.45c16.63,27.21 32.23,56.81 32.23,103.55l0 59.7c0,48.34 -30.91,100.13 -80.83,151.38 -39.11,34.62 -73.7,49.41 -105.68,49.41 -47.55,0 -101.98,-14.79 -164.85,-41.75l7.13 -18.49c19.81,5.27 42.79,9.77 71.06,9.77 90.36,-0.53 182.8,-66.57 225.08,-147.15 5.02,-9.26 6.87,-17.95 6.87,-24.04 0,-9.26 -5.02,-19.55 -8.98,-28.79 -22.98,-43.31 -48.62,-82.95 -76.87,-119.68 14.79,-23.25 29.6,-45.7 45.7,-67.9l3.7 0.53 0 0 0 0 0 0 0 0 0 0 -0.02 0.01z"/>
  <g id="_2387591950384">
   <g>
    <rect class="fil3" x="5338.54" y="1202.75" width="2221.86" height="2878.13" rx="62.76" ry="62.76"/>
    <rect class="fil4" x="5793.19" y="3019.38" width="1312.56" height="150.23" rx="26.9" ry="26.9"/>
    <rect class="fil4" x="5793.19" y="3327.76" width="1312.56" height="150.23" rx="26.9" ry="26.9"/>
    <rect class="fil4" x="5793.19" y="3632.18" width="1312.56" height="150.23" rx="26.9" ry="26.9"/>
    <rect class="fil5" x="5836.36" y="1501.25" width="1223.73" height="1262.9" rx="38.81" ry="38.81"/>
    <polygon class="fil6" points="6256.17,2340.7 6630.5,1940.7 7060.09,2332.14 7062.58,2766.36 6448.23,2764.15 "/>
    <polygon class="fil7" points="5836.36,2297.91 6202.7,1790.97 6831.57,2764.15 5836.92,2764.22 "/>
   </g>
   <g>
    <path class="fil8" d="M2371.87 1129.66l2047.19 0c291.19,0 527.35,236.16 527.35,527.36l0 1969.63c0,291.19 -236.16,527.34 -527.35,527.34l-2047.19 0.01c-291.19,-0.01 -527.34,-236.16 -527.34,-527.36l-0.01 -1969.62c0.01,-291.2 236.16,-527.36 527.36,-527.36z"/>
    <path class="fil9" d="M2745.14 2635.49c0,-64.22 -7.38,-399.6 2.95,-433.4 200.27,-21.56 416.33,4.98 410.4,219.38 -6.01,217.2 -253.36,233.79 -413.34,214.03zm-1.29 245.09c167.16,0 298.53,10.56 443.76,-54.88 279,-125.69 310.32,-477.21 179.51,-673.19 -167.06,-250.27 -508.87,-209.45 -782.55,-202.22 -148.44,3.91 -121.27,-23.67 -121.27,127l0 741.55c0,62.22 -10.83,467.57 6.14,487.99 11.13,9.92 13.06,6.96 32.33,7.08 51.38,0.29 214.4,2.62 241.82,-3.69l0.25 -429.63z"/>
    <path class="fil9" d="M3582.06 3276.27c139.51,81.8 444.63,86.84 589.58,5.25 68.26,-38.42 133.3,-107.94 152.54,-206.56 44.31,-227.16 -134.15,-330.55 -313.26,-393.24 -34.64,-12.12 -95.85,-39.41 -121.75,-57.7 -36.96,-26.11 -60.88,-77.87 -9.54,-109.48 63.31,-39 243.63,-6.16 309.86,17.61 55.97,20.09 85.49,50.14 87.76,1.41 1.49,-31.9 1.34,-204.22 -3.91,-215.01 -30.17,-42.08 -212.64,-52.51 -273.59,-53.08 -397.35,-3.79 -502.93,306.12 -357.52,498.92l39.59 42.67c11.89,10.1 33,24.89 48.27,34.27 34.13,20.93 65.02,37.91 104.02,55.92 63.22,29.18 188.46,62.5 210.9,114.11 23.56,54.26 -27.58,80.37 -69.9,88.49 -114.11,21.9 -264.48,-14.7 -365.71,-70.34l-24.57 -4.32c-0.64,-1.28 -2.67,0.66 -3.85,1.31 -6.21,24.76 -4.36,223.26 1.08,249.8z"/>
    <path class="fil10" d="M2745.14 2635.49c159.99,19.76 407.33,3.18 413.34,-214.03 5.93,-214.4 -210.13,-240.94 -410.4,-219.38 -10.32,33.81 -2.95,369.18 -2.95,433.4z"/>
   </g>
  </g>
 </g>
</svg>
