<svg width="106" height="106" viewBox="0 0 106 106" fill="none" xmlns="http://www.w3.org/2000/svg">
<path opacity="0.2" d="M67.8525 60.5605V89.6542H68.4804C69.09 89.6528 69.6931 89.5271 70.2525 89.2848C70.812 89.0425 71.3162 88.6887 71.7343 88.2449C72.1523 87.8011 72.4755 87.2767 72.6841 86.7038C72.8926 86.1309 72.9822 85.5215 72.9472 84.9128L71.416 60.7617C71.398 60.418 71.248 60.0945 70.9974 59.8585C70.7468 59.6226 70.4148 59.4924 70.0707 59.4952C70.0608 60.0213 69.1333 60.3745 67.8525 60.5605Z" fill="url(#paint0_linear_822_17177)"/>
<path opacity="0.2" d="M63.749 60.6758V89.6602H65.2901V60.7272C64.7759 60.7362 64.2615 60.719 63.749 60.6758Z" fill="url(#paint1_linear_822_17177)"/>
<path opacity="0.2" d="M59.1541 88.5222L62.5239 60.5222C61.3612 60.3264 60.5388 59.9873 60.5388 59.5039C60.1952 59.5033 59.8644 59.6342 59.6143 59.8697C59.3641 60.1052 59.2135 60.4275 59.1934 60.7705L57.6622 84.9216C57.6169 85.5961 57.728 86.2719 57.9868 86.8964C58.2456 87.521 58.645 88.0773 59.1541 88.5222Z" fill="url(#paint2_linear_822_17177)"/>
<path opacity="0.2" d="M55.0123 46.569L45.5295 54.1061C45.0161 54.5157 44.4254 54.8178 43.7926 54.9942C43.132 54.2685 42.6302 53.4127 42.3195 52.4818C42.0088 51.5509 41.896 50.5654 41.9883 49.5883C42.0806 48.6113 42.376 47.6643 42.8555 46.808C43.3351 45.9518 43.9882 45.2051 44.7731 44.616C45.558 44.0268 46.4573 43.6081 47.4134 43.3867C48.3695 43.1653 49.3613 43.1461 50.3253 43.3303C51.2892 43.5144 52.2041 43.898 53.0112 44.4563C53.8183 45.0146 54.4999 45.7353 55.0123 46.5723V46.569Z" fill="url(#paint3_linear_822_17177)"/>
<path opacity="0.2" d="M23.2465 49.4274C23.2447 50.8298 22.8246 52.1999 22.0399 53.3622C21.2551 54.5246 20.1415 55.4264 18.8414 55.9523C17.5413 56.4782 16.1138 56.6043 14.7417 56.3144C13.3695 56.0246 12.115 55.332 11.1387 54.3252L22.2271 45.7939C22.8995 46.8862 23.2526 48.1448 23.2465 49.4274Z" fill="url(#paint4_linear_822_17177)"/>
<path opacity="0.2" d="M60.7865 32.4741C60.7864 33.2745 60.4877 34.0461 59.9489 34.6381C59.4101 35.23 58.6699 35.5997 57.873 35.6749C57.0761 35.7501 56.2798 35.5254 55.6398 35.0447C54.9997 34.564 54.562 33.8619 54.4121 33.0756L58.8658 29.5352C59.4375 29.7847 59.9238 30.1958 60.265 30.7179C60.6062 31.24 60.7874 31.8504 60.7865 32.4741Z" fill="url(#paint5_linear_822_17177)"/>
<path opacity="0.2" d="M97.7738 19.5838L97.251 21.8303C97.1643 21.8416 97.0769 21.846 96.9896 21.8435C96.4255 21.8436 95.8715 21.6953 95.383 21.4133C94.8945 21.1314 94.4888 20.7258 94.2068 20.2374C93.9248 19.749 93.7763 19.1949 93.7764 18.6309C93.7764 18.0669 93.925 17.5128 94.2071 17.0244L95.7492 17.0375C96.0619 17.0376 96.3706 17.1081 96.6522 17.244C96.9338 17.3799 97.1811 17.5776 97.3757 17.8223C97.5703 18.0671 97.7071 18.3526 97.7761 18.6575C97.845 18.9625 97.8442 19.2791 97.7738 19.5838Z" fill="url(#paint6_linear_822_17177)"/>
<path opacity="0.2" d="M78.3538 34.12C75.976 35.0475 73.1684 33.8323 71.2871 31.3254C72.0962 31.1904 72.8566 30.8482 73.4943 30.3323L74.588 29.3786L80.1924 24.5464L80.7666 24.0498L81.0018 24.5967C82.5855 28.66 81.3966 32.9311 78.3538 34.12Z" fill="url(#paint7_linear_822_17177)"/>
<path d="M69.483 50.0281L69.8658 59.8992C69.2669 60.2795 68.5829 60.5051 67.8752 60.5554C67.0346 60.6774 66.186 60.7366 65.3366 60.7326C64.8072 60.7326 64.2877 60.7031 63.7878 60.6637C63.3569 60.6243 62.9446 60.585 62.5629 60.5172C61.9022 60.4668 61.2681 60.236 60.7297 59.85L61.4647 47.1625L58.1025 44.0846C59.1158 43.3051 60.3951 42.9556 61.664 43.1116C62.9329 43.2675 64.0894 43.9164 64.8838 44.9181C65.4891 45.682 66.3097 46.2466 67.2394 46.5391C68.1691 46.8316 69.1652 46.8384 70.0988 46.5587C70.2458 46.9471 70.3221 47.3586 70.3241 47.7739C70.325 48.6022 70.0263 49.4028 69.483 50.0281Z" fill="#080F21"/>
<path d="M69.4729 49.9295L68.4043 49.469L66.9737 48.8707L60.2679 43.6853C60.2975 43.6951 60.2679 43.4993 60.21 43.1559C60.4944 43.1048 60.7828 43.0785 61.0718 43.0771C61.8051 43.079 62.5286 43.2456 63.1888 43.5648C63.849 43.884 64.4289 44.3476 64.8858 44.9212C65.4911 45.6851 66.3116 46.2497 67.2413 46.5422C68.1711 46.8347 69.1671 46.8415 70.1007 46.5618C70.1106 46.5618 70.1106 46.5618 70.1204 46.552C70.3177 47.1224 70.3617 47.7345 70.2481 48.3273C70.1344 48.92 69.8671 49.4725 69.4729 49.9295Z" fill="#080F21"/>
<path d="M28.9588 53.4808L21.5366 59.083L16.9888 62.5152C15.9957 63.2644 14.8986 64.3417 13.608 64.427C11.0344 64.5988 8.57676 61.452 8.75614 59.0185C8.90707 56.925 10.5061 55.9472 12.0013 54.7988C14.8173 52.6361 17.6308 50.4693 20.4417 48.2986C25.0224 44.7713 29.5199 41.0974 34.2066 37.7155C34.5729 37.4086 34.9994 37.1818 35.4587 37.05C35.918 36.9181 36.3999 36.884 36.8732 36.9499C38.6133 37.2299 39.2586 38.7392 40.5919 39.635C41.7309 40.3468 43.0614 40.6907 44.4027 40.6199C45.7439 40.549 47.0308 40.0669 48.0885 39.2391C50.5079 37.4377 52.8222 35.4766 55.1847 33.5997L59.0763 30.5044C60.7541 29.1711 62.4352 27.7831 64.6096 29.2302C65.9341 30.1117 66.6057 31.41 68.2135 31.946C69.7642 32.4465 71.4458 32.3521 72.9308 31.6813C74.247 30.9329 75.4526 30.0049 76.5128 28.9239L80.8025 25.2205C81.9302 24.246 83.6091 23.15 82.908 21.4153C82.5153 20.4408 79.6104 17.8224 82.1129 17.4592C83.6974 17.3544 85.2875 17.3639 86.8707 17.4877L92.9158 17.5249C94.0284 17.4283 95.1477 17.4385 96.2583 17.5555C98.0269 17.9613 96.9375 20.5961 96.6718 21.7478C96.3072 23.3411 95.9426 24.9347 95.578 26.5286L94.2797 32.1767C94.2201 32.5659 94.132 32.9501 94.0161 33.3263C93.443 34.758 92.4969 33.3624 91.9675 32.6919C91.4865 31.8444 90.6894 31.2218 89.7505 30.9605C89.2935 30.8937 88.8277 30.9223 88.3823 31.0445C87.9369 31.1667 87.5217 31.3798 87.1627 31.6703C86.3282 32.3003 85.545 33.0167 84.7411 33.6861L75.1719 41.6475L71.5888 44.6291C70.1046 45.8639 68.3907 46.4239 66.6603 45.0753C65.4835 44.1588 64.8097 43.0388 63.3025 42.5302C61.6794 42.0073 59.9165 42.1368 58.3872 42.8911C56.9012 43.7791 55.5139 44.8226 54.2485 46.0039C51.7022 48.0339 49.1501 50.0599 46.5922 52.0819C45.3891 53.0367 43.9672 54.5746 42.2982 54.1939C42.0036 54.1066 41.6907 54.1025 41.394 54.182C41.0973 54.2616 40.8284 54.4216 40.6171 54.6445C40.3207 55.0361 40.3414 55.6519 40.9222 55.7831C41.9963 56.0044 43.1076 55.9655 44.1636 55.6699C45.2196 55.3742 46.1895 54.8302 46.9925 54.0834L51.7941 50.2685C54.1282 48.4146 56.4163 46.4195 58.8269 44.6663C60.8077 43.2269 62.6025 44.2058 64.0594 45.7458C65.1366 46.8801 66.6133 47.5502 68.1763 47.6139C69.9839 47.6497 71.7362 46.9895 73.0708 45.7699L82.1238 38.2481L86.8335 34.3292C87.2808 33.9563 88.438 32.6295 88.9674 32.7827C89.57 32.9566 90.1399 34.2592 90.5675 34.711C91.0012 35.1591 91.5507 35.4781 92.1549 35.6326C92.7591 35.7871 93.3943 35.771 93.9899 35.586C95.8569 35.0642 96.3239 33.568 96.7046 31.9142C97.5066 28.4142 98.3117 24.9106 99.1196 21.4033C99.5418 19.5713 100.346 17.328 98.2227 16.2069C97.0414 15.5824 95.4096 15.8252 94.0872 15.8164C90.2416 15.7934 86.3949 15.7245 82.5493 15.7464C80.6243 15.7563 78.393 17.0513 78.7704 19.2814C78.9508 20.3544 79.7853 20.9844 80.353 21.8474C81.03 22.8744 80.1561 23.3611 79.4419 23.978L75.6761 27.2297C74.5824 28.1736 73.2229 29.753 71.8852 30.3053C69.7327 31.1946 68.4497 29.59 67.0235 28.3311C65.8898 27.353 64.433 26.831 62.9361 26.8666C60.7082 26.9038 59.1539 28.1331 57.5057 29.4434L49.6164 35.715C48.4133 36.6764 46.9389 38.3061 45.4175 38.7841C43.6533 39.3386 42.3277 38.2755 41.211 37.0767C40.1991 35.996 38.8221 35.3295 37.3468 35.2064C35.3966 35.123 33.4912 35.8057 32.0377 37.1085L27.4068 40.6675C25.2091 42.3563 23.0117 44.0454 20.8147 45.7349L11.2455 53.1045C10.3705 53.7816 9.45941 54.4302 8.60191 55.1324C7.44155 56.0216 6.66819 57.3236 6.44233 58.7679C6.21647 60.2123 6.55546 61.6882 7.38895 62.8892C8.96176 65.0767 11.1077 66.5084 13.9099 66.0895C15.4649 65.7485 16.9049 65.0098 18.0891 63.9458L28.0805 56.3989L30.5305 54.5494C31.8167 53.5792 29.8918 52.7764 28.9588 53.4808Z" fill="#080F21"/>
<path d="M67.9047 49.1286C68.3751 47.8374 68.3198 46.4131 67.7507 45.1623C67.1817 43.9114 66.1443 42.934 64.8619 42.4403L63.8556 37.1903C63.8159 36.9754 63.7306 36.7714 63.6054 36.5922C63.4803 36.413 63.3183 36.2626 63.1302 36.1513C62.9422 36.0399 62.7324 35.97 62.5151 35.9464C62.2979 35.9229 62.078 35.9461 61.8705 36.0145C61.6857 36.0765 61.523 36.1911 61.4024 36.3442C61.2817 36.4973 61.2083 36.6822 61.1912 36.8764C60.9951 39.3662 61.0519 41.8694 61.3608 44.3478" fill="#080F21"/>
<path d="M62.6404 36.3797C62.6404 36.5241 62.6536 36.6674 62.6536 36.7975V36.9813C62.6536 37.0065 62.6404 37.0327 62.6404 37.0721C62.6251 37.1392 62.6035 37.2047 62.5759 37.2679C62.4689 37.4984 62.2837 37.6837 62.0531 37.7907C61.8955 37.8601 61.7279 37.904 61.5565 37.9208C61.4001 37.9471 61.2437 37.9602 61.0862 37.9864C61.0469 37.9864 61.0731 38.3146 61.0862 38.3146C61.2306 38.3014 61.387 38.2752 61.5303 38.2621C61.7196 38.2465 61.9048 38.1976 62.0772 38.1177C62.3141 37.9945 62.4995 37.7909 62.6 37.5435C62.6818 37.3088 62.7128 37.0593 62.6908 36.8117C62.6908 36.6422 62.6776 36.4727 62.6776 36.29C62.6776 36.2769 62.6776 36.1588 62.6514 36.1719C62.6349 36.2403 62.6304 36.3109 62.6382 36.3808L62.6404 36.3797Z" fill="#DDDEDF"/>
<path d="M42.2477 56.733C42.2634 56.0362 42.0377 55.3553 41.6089 54.8058C40.98 54.1408 40.046 53.8827 39.3941 53.1893C38.9609 52.6643 38.4604 52.1987 37.9055 51.8046C37.2153 51.3671 36.068 51.2741 35.66 50.5708C34.8736 49.2124 35.3199 47.2579 34.633 45.836C34.369 45.3456 33.9254 44.9766 33.3952 44.8063C32.8649 44.636 32.2894 44.6777 31.7892 44.9227C30.4286 45.5877 30.7207 47.4963 30.7185 48.7574C30.7185 49.6871 30.8071 50.6168 30.8213 51.5421C30.8646 51.8009 30.8428 52.0664 30.7579 52.3146C30.6729 52.5629 30.5274 52.7861 30.3345 52.964C30.1739 53.0934 30.0319 53.2443 29.9124 53.4124C29.4618 54.2338 30.1814 54.7687 30.7207 55.2641C31.0958 55.6076 31.4589 55.9762 31.8516 56.301C31.9763 56.4034 32.095 56.513 32.2071 56.6291C32.3263 56.756 32.1075 56.2769 32.1097 56.3972C32.1097 56.6587 32.0824 56.9244 32.0692 57.1847L31.8505 61.3946L31.1833 74.4813L30.7239 83.4796C30.7262 83.59 30.7719 83.6951 30.8512 83.7721C30.9304 83.8491 31.0368 83.8917 31.1472 83.8908L41.3902 84.4487C41.656 84.464 42.2652 84.3261 42.2521 83.9411L41.4919 61.2896C41.4155 60.6689 41.3947 60.0426 41.4296 59.4182C41.5652 58.5519 42.1952 57.876 42.2521 56.8566C42.2892 56.2004 41.0008 56.3808 40.968 56.954C40.9122 57.9383 40.2439 58.564 40.1433 59.4521C40.1248 59.943 40.1412 60.4346 40.1925 60.9232L40.3828 66.5899L40.8564 80.6993L40.9658 84.0352L41.8277 83.5266L31.5836 82.9677L32.0058 83.379L32.9497 64.876L33.2243 59.4794C33.3331 58.5066 33.3831 57.5281 33.3741 56.5493C33.3074 55.6294 32.2661 55.0596 31.6022 54.4493C30.6867 53.6104 31.6132 53.4649 31.9839 52.6402C32.1784 51.8564 32.1945 51.039 32.031 50.2482C31.9861 49.1993 31.9806 48.1493 32.0364 47.1015C32.0572 46.7219 31.961 44.8243 33.2494 46.0285C33.5414 46.3008 33.4594 46.5021 33.5381 46.781C33.6475 47.1693 33.6913 47.5838 33.7667 47.9841C33.8893 48.886 34.0609 49.7806 34.2808 50.6638C34.7478 52.1732 36.4475 52.0507 37.5128 52.9935C38.0597 53.4726 38.4556 54.0796 39.0353 54.5247C39.2814 54.7033 39.5398 54.8641 39.8086 55.006C40.182 55.2039 40.4904 55.5051 40.6972 55.8736C40.904 56.2421 41.0002 56.6624 40.9746 57.0841C41.0194 57.6474 42.2893 57.3466 42.2477 56.733Z" fill="#080F21"/>
<path d="M31.7117 45.828C31.7117 45.9713 31.6264 45.9023 31.6264 46.0336C31.6264 46.0861 31.5575 46.1692 31.5575 46.2217C31.5575 46.1823 31.5411 46.3934 31.5411 46.3934C31.5411 46.4197 31.6439 46.4569 31.6439 46.4962C31.6308 46.5619 31.447 46.4963 31.4252 46.5652C31.3158 46.7839 31.6603 46.4558 31.4252 46.5652C31.2688 46.6428 31.7533 46.6745 31.5794 46.6986C31.4055 46.7227 31.353 48.4891 31.1966 48.5153C31.1572 48.5153 31.1835 48.8434 31.1966 48.8434C31.3399 48.8303 31.4974 48.8041 31.6406 48.7909C31.8297 48.7744 32.0146 48.7259 32.1875 48.6476C32.4274 48.5286 32.6137 48.3236 32.7092 48.0734C32.7914 47.8386 32.8285 47.5903 32.8186 47.3417C32.8186 47.1722 32.8055 47.0016 32.8055 46.8189C32.8055 46.8058 32.8055 46.6888 32.7792 46.7019C32.4905 45.6409 31.7183 45.7908 31.7183 45.8269L31.7117 45.828Z" fill="#080F21"/>
<path d="M46.3147 83.3496C46.2893 84.4927 45.8425 85.586 45.0602 86.4198C43.3758 88.3524 40.1383 89.6584 36.4272 89.6584C32.5346 89.6584 29.1647 88.2223 27.558 86.1321C27.1022 85.5638 26.7847 84.8973 26.6305 84.1853C26.5783 83.9142 26.5519 83.6388 26.5518 83.3628C26.5518 79.8759 30.9804 77.054 36.4272 77.054C38.1241 77.0431 39.8094 77.3349 41.4038 77.9159C44.3427 78.9867 46.3147 81.0243 46.3147 83.3496Z" fill="#3063BA"/>
<path d="M46.0657 77.3416C46.0657 80.0453 43.2701 82.3313 39.4168 83.0881C39.1554 83.1406 38.8951 83.18 38.6337 83.2194C37.9813 83.3086 37.3234 83.3521 36.6649 83.3496H36.4298C34.8834 83.3329 33.3509 83.0548 31.8973 82.5271C31.1758 82.2585 30.4876 81.9076 29.8465 81.4814C29.2134 81.0652 28.6529 80.5479 28.1873 79.9502C27.5952 79.2075 27.2687 78.288 27.2598 77.3383C27.2612 76.8226 27.3633 76.312 27.5605 75.8355C27.9171 74.9998 28.4733 74.2645 29.1804 73.6939C31.3363 72.0722 33.9805 71.2335 36.677 71.3161C41.8471 71.3325 46.0657 74.0231 46.0657 77.3416Z" fill="#3063BA"/>
<path d="M44.5378 71.8265C44.5378 74.4646 41.4282 76.6598 37.4185 76.9595C37.0904 76.9857 36.7623 76.9988 36.4342 76.9988C35.5921 76.9989 34.752 76.9157 33.9262 76.7505C32.0465 76.4498 30.3366 75.486 29.106 74.0337C28.6164 73.4061 28.3456 72.6355 28.335 71.8396C28.3555 71.2655 28.4992 70.7024 28.7562 70.1886C29.0132 69.6748 29.3776 69.2221 29.8246 68.8613C30.1668 68.5494 30.5437 68.2778 30.9479 68.052C31.3767 67.7996 31.8269 67.5855 32.2932 67.4121C32.2539 69.4498 40.9273 69.6062 40.9656 67.5685C41.8044 67.9153 42.5709 68.4161 43.2253 69.0451C43.6253 69.392 43.9486 69.8186 44.1746 70.2975C44.4006 70.7764 44.5243 71.2971 44.5378 71.8265Z" fill="#3063BA"/>
<path d="M58.5403 88.9682C59.9237 89.9598 61.6251 90.4043 63.3167 90.2161C64.9388 90.2161 66.563 90.238 68.1861 90.2161C68.9573 90.2373 69.724 90.0935 70.4351 89.7944C71.1462 89.4953 71.7852 89.0478 72.3094 88.4818C72.8336 87.9158 73.2308 87.2443 73.4745 86.5124C73.7183 85.7805 73.8029 85.0049 73.7227 84.2377C73.3245 77.9027 72.9235 71.5677 72.5195 65.2327L72.2702 61.3017C72.1914 60.0516 71.8031 59.1274 70.3648 58.9447C70.1407 58.9094 69.9113 58.9519 69.7147 59.0651C69.5181 59.1784 69.3662 59.3555 69.2842 59.5671C69.1169 60.2955 65.6355 60.1785 65.0897 60.1643C64.3448 60.1457 61.5952 60.2036 61.3709 59.2892C61.3009 59.0049 60.9028 58.9119 60.6556 58.9447C58.7098 59.1963 58.4528 60.5066 58.3522 62.1079L57.9628 68.2536L57.0255 83.0696C56.8898 85.2133 56.6974 87.2029 58.4277 88.8664C58.922 89.3422 60.4216 88.7002 59.8823 88.1807C58.4353 86.7872 58.4824 85.2352 58.595 83.4458L58.9516 77.8097L59.8266 63.9289C59.8539 63.5046 59.6614 60.1654 60.4992 60.0571L59.7828 59.7125C60.228 61.515 64.1884 61.2974 65.5195 61.2821C66.9305 61.2646 70.4535 61.3072 70.8855 59.4336L69.8049 60.056C71.1841 60.231 70.845 64.268 70.8986 65.1168L71.487 74.4136L72.0241 82.8902C72.1761 85.3041 72.3916 88.488 69.2088 89.0425C67.803 89.1804 66.3882 89.2001 64.9792 89.1016C63.11 89.1016 61.3174 89.3521 59.7653 88.0768C59.2502 87.6524 57.8502 88.4016 58.5403 88.9682Z" fill="#080F21"/>
<path d="M85.3808 50.8265C85.522 51.2131 85.7459 51.5642 86.0368 51.8553C86.3277 52.1464 86.6787 52.3705 87.0652 52.5119C87.1285 52.5363 87.183 52.5793 87.2214 52.6353C87.2598 52.6912 87.2804 52.7574 87.2804 52.8253C87.2804 52.8931 87.2598 52.9594 87.2214 53.0154C87.183 53.0713 87.1285 53.1143 87.0652 53.1387C86.6788 53.28 86.3279 53.5039 86.037 53.7948C85.7461 54.0857 85.5221 54.4366 85.3808 54.823C85.3565 54.8864 85.3135 54.9408 85.2575 54.9792C85.2016 55.0176 85.1353 55.0382 85.0675 55.0382C84.9996 55.0382 84.9334 55.0176 84.8774 54.9792C84.8215 54.9408 84.7785 54.8864 84.7541 54.823C84.6126 54.4366 84.3884 54.0857 84.0973 53.7948C83.8062 53.5039 83.4552 53.2799 83.0687 53.1387C83.0053 53.1143 82.9509 53.0713 82.9125 53.0154C82.8741 52.9594 82.8535 52.8931 82.8535 52.8253C82.8535 52.7574 82.8741 52.6912 82.9125 52.6353C82.9509 52.5793 83.0053 52.5363 83.0687 52.5119C83.4553 52.3706 83.8065 52.1465 84.0976 51.8554C84.3887 51.5643 84.6128 51.2131 84.7541 50.8265C84.7785 50.7631 84.8215 50.7087 84.8774 50.6703C84.9334 50.6319 84.9996 50.6113 85.0675 50.6113C85.1353 50.6113 85.2016 50.6319 85.2575 50.6703C85.3135 50.7087 85.3565 50.7631 85.3808 50.8265Z" fill="#080F21"/>
<path d="M13.1503 31.4823C13.3681 32.0678 13.7094 32.5996 14.151 33.0414C14.5927 33.4832 15.1243 33.8247 15.7097 34.0428C15.8072 34.0786 15.8913 34.1435 15.9507 34.2287C16.0102 34.3139 16.042 34.4152 16.042 34.5191C16.042 34.623 16.0102 34.7243 15.9507 34.8095C15.8913 34.8947 15.8072 34.9596 15.7097 34.9954C15.1242 35.2133 14.5925 35.5548 14.1508 35.9966C13.7091 36.4385 13.3679 36.9703 13.1503 37.5559C13.1147 37.6538 13.0498 37.7383 12.9645 37.798C12.8792 37.8577 12.7776 37.8898 12.6734 37.8898C12.5693 37.8898 12.4677 37.8577 12.3824 37.798C12.297 37.7383 12.2322 37.6538 12.1966 37.5559C11.9789 36.9702 11.6375 36.4382 11.1956 35.9963C10.7538 35.5545 10.2218 35.2131 9.63608 34.9954C9.53859 34.9596 9.45446 34.8947 9.39502 34.8095C9.33558 34.7243 9.30371 34.623 9.30371 34.5191C9.30371 34.4152 9.33558 34.3139 9.39502 34.2287C9.45446 34.1435 9.53859 34.0786 9.63608 34.0428C10.2218 33.8251 10.7538 33.4837 11.1956 33.0419C11.6375 32.6 11.9789 32.0681 12.1966 31.4823C12.2322 31.3845 12.297 31.2999 12.3824 31.2402C12.4677 31.1805 12.5693 31.1484 12.6734 31.1484C12.7776 31.1484 12.8792 31.1805 12.9645 31.2402C13.0498 31.2999 13.1147 31.3845 13.1503 31.4823Z" fill="#080F21"/>
<path d="M17.2002 27.3272C17.9505 27.3272 18.5587 26.719 18.5587 25.9688C18.5587 25.2185 17.9505 24.6104 17.2002 24.6104C16.45 24.6104 15.8418 25.2185 15.8418 25.9688C15.8418 26.719 16.45 27.3272 17.2002 27.3272Z" fill="#080F21"/>
<defs>
<linearGradient id="paint0_linear_822_17177" x1="67.8525" y1="74.5791" x2="72.9538" y2="74.5791" gradientUnits="userSpaceOnUse">
<stop offset="0.005" stop-color="#3063BA"/>
<stop offset="1" stop-color="#A3BFF6"/>
</linearGradient>
<linearGradient id="paint1_linear_822_17177" x1="63.7523" y1="75.1669" x2="65.2934" y2="75.1669" gradientUnits="userSpaceOnUse">
<stop offset="0.005" stop-color="#3063BA"/>
<stop offset="1" stop-color="#A3BFF6"/>
</linearGradient>
<linearGradient id="paint2_linear_822_17177" x1="57.6545" y1="74.0114" x2="62.5228" y2="74.0114" gradientUnits="userSpaceOnUse">
<stop offset="0.005" stop-color="#3063BA"/>
<stop offset="1" stop-color="#A3BFF6"/>
</linearGradient>
<linearGradient id="paint3_linear_822_17177" x1="41.9508" y1="49.1033" x2="55.0123" y2="49.1033" gradientUnits="userSpaceOnUse">
<stop offset="0.005" stop-color="#3063BA"/>
<stop offset="1" stop-color="#A3BFF6"/>
</linearGradient>
<linearGradient id="paint4_linear_822_17177" x1="11.1387" y1="51.1325" x2="23.2465" y2="51.1325" gradientUnits="userSpaceOnUse">
<stop offset="0.005" stop-color="#3063BA"/>
<stop offset="1" stop-color="#A3BFF6"/>
</linearGradient>
<linearGradient id="paint5_linear_822_17177" x1="54.4121" y1="32.6119" x2="60.7865" y2="32.6119" gradientUnits="userSpaceOnUse">
<stop offset="0.005" stop-color="#3063BA"/>
<stop offset="1" stop-color="#A3BFF6"/>
</linearGradient>
<linearGradient id="paint6_linear_822_17177" x1="93.7761" y1="19.4339" x2="97.8274" y2="19.4339" gradientUnits="userSpaceOnUse">
<stop offset="0.005" stop-color="#3063BA"/>
<stop offset="1" stop-color="#A3BFF6"/>
</linearGradient>
<linearGradient id="paint7_linear_822_17177" x1="71.2871" y1="29.2396" x2="81.7051" y2="29.2396" gradientUnits="userSpaceOnUse">
<stop offset="0.005" stop-color="#3063BA"/>
<stop offset="1" stop-color="#A3BFF6"/>
</linearGradient>
</defs>
</svg>
