<?xml version="1.0" encoding="UTF-8"?>
<!DOCTYPE svg PUBLIC "-//W3C//DTD SVG 1.0//EN" "http://www.w3.org/TR/2001/REC-SVG-20010904/DTD/svg10.dtd">
<!-- Creator: CorelDRAW -->
<svg xmlns="http://www.w3.org/2000/svg" xml:space="preserve" width="94.1916mm" height="52.9166mm" version="1.0" style="shape-rendering:geometricPrecision; text-rendering:geometricPrecision; image-rendering:optimizeQuality; fill-rule:evenodd; clip-rule:evenodd"
viewBox="0 0 9404.92 5283.66"
 xmlns:xlink="http://www.w3.org/1999/xlink"
 xmlns:xodm="http://www.corel.com/coreldraw/odm/2003">
 <defs>
  <style type="text/css">
   <![CDATA[
    .fil9 {fill:black}
    .fil13 {fill:#73A89D}
    .fil11 {fill:#74AA9C}
    .fil8 {fill:#D80027}
    .fil10 {fill:#FFD943}
    .fil12 {fill:white}
    .fil5 {fill:#FEFEFE;fill-rule:nonzero}
    .fil4 {fill:#0C74A8;fill-rule:nonzero}
    .fil7 {fill:#CCCACA;fill-rule:nonzero}
    .fil6 {fill:#FECD04;fill-rule:nonzero}
    .fil3 {fill:black;fill-rule:nonzero;fill-opacity:0.011765}
    .fil2 {fill:#373435;fill-opacity:0.031373}
    .fil1 {fill:#2B2A29;fill-opacity:0.101961}
    .fil0 {fill:#E6E7E8}
   ]]>
  </style>
 </defs>
 <g id="Layer_x0020_1">
  <metadata id="CorelCorpID_0Corel-Layer"/>
  <polygon class="fil0" points="-0,0 9404.92,0 9404.92,5283.66 -0,5283.66 "/>
  <path class="fil1" d="M6248.78 3390.53c167.6,272.93 547.19,663.56 547.19,663.56l-2477.89 1229.58 -4318.08 0 0 -1549.79 0 -905.56 3336.96 -1590.76 2911.82 2152.98z"/>
  <path class="fil2" d="M548.54 4627.69c17.95,27.21 29.6,53.36 40.96,82.43 8.45,16.91 12.93,48.09 52.57,48.09 11.61,0 28.28,-3.42 43.06,-11.61 16.63,-8.73 29.32,-21.94 35.94,-42l15.85 -53.36 38.57 -19.02 2.64 2.64c-5.27,20.09 -6.59,39.36 -6.59,54.43 0,44.63 38.57,61.56 69.22,61.56 17.95,0 34.09,-8.73 34.09,-25.11 0,-21.13 -8.98,-57.06 -20.62,-89.29 17.95,-17.95 35.94,-35.94 56.53,-50.47l3.17 1.6c8.98,38.04 14,75.56 14,100.66 0,24.57 -10.83,51.79 -19.81,69.49 -18.49,34.87 -51.25,62.62 -90.87,62.62 -30.1,0 -63.65,-15.07 -86.66,-43.06l-1.32 0c-21.66,26.96 -55.22,51.25 -108.86,51.25l-16.63 0c-2.64,35.41 -10.29,60.49 -21.94,82.95 -31.95,62.34 -126.81,106.47 -216.1,106.47 -124.17,0 -186.51,-71.59 -186.51,-166.96 0,-58.91 19.27,-113.6 48.88,-152.42l24.29 10.04c-18.49,35.41 -30.91,68.68 -30.91,101.45 0,89.29 72.66,131.83 156.4,131.83 77.68,0 173.83,-49.41 191.28,-106.72 -6.59,-62.62 -30.1,-91.93 -66.04,-148.99 10.83,-19.02 24.83,-38.04 42.28,-58.38l3.17 0 0 0 0 0 -0.02 -0.09zm1432.13 -336.04c26.15,16.39 51.79,35.66 76.87,57.85 -14,19.81 -31.45,37.79 -53.11,53.64 -25.11,-20.34 -50.19,-37.79 -75.84,-56.27 17.42,-19.55 34.62,-38.29 52.04,-55.22l0 0 0 0 0 0 0 0 0 0 0.03 0zm13.47 244.11c-42.28,0 -76.87,27.75 -76.87,48.34 0,44.13 84.53,57.85 185.72,57.31 -12.68,-51.79 -57.06,-105.68 -108.86,-105.68l0.01 0.03zm-94.86 236.19c54.96,0 103.04,-1.6 139.74,-10.83 40.96,-10.29 75.56,-30.91 75.56,-45.17 0,-3.7 0,-8.19 -1.32,-11.89 -22.98,2.11 -49.41,2.11 -72.38,2.11 -74.49,0 -131.55,-16.91 -154.02,-58.66 -5.55,-11.61 -9.51,-24.57 -9.51,-39.36 0,-40.43 17.42,-79.79 48.09,-107 25.61,-22.45 53.89,-36.44 82.67,-36.44 52.04,0 93.51,41.75 122.57,107.54 15.85,35.94 26.68,77.4 26.68,129.72 0,34.87 -9.51,64.19 -31.17,85.85 -40.43,39.11 -114.92,53.89 -229.04,53.89l-51.79 0 0 0 -13.47 0c-28.28,0 -48.62,-5.02 -64.72,-17.42l-2.64 0c0.79,6.59 1.32,12.93 1.32,19.02 0,25.61 -8.45,58.38 -25.61,84.53 -50.72,75.3 -105.68,108.04 -153.24,108.04 -48.09,0 -107,-18.49 -160.11,-42.54l9.51 -18.49c17.17,7.13 40.96,11.89 73.7,11.89 85.85,0 198.66,-82.43 212.66,-163 -3.17,-6.59 -8.98,-15.32 -17.17,-24.57 -25.11,-29.85 -40.96,-54.68 -55.75,-80.83 12.68,-25.11 24.29,-45.17 35.13,-63.4l4.49 -0.53c36.72,74.77 69.99,117.55 144.23,117.55l11.61 0 0 0 53.89 0 0 0 0 0 0 0 0 0 0 0 0.09 0.01zm-371.98 79c6.34,-34.34 6.87,-72.91 6.87,-108.86l0 -53.36c0,-99.6 -12.68,-244.36 -22.98,-338.68 17.95,-19.27 43.06,-42 62.87,-57.31l5.81 1.6c13.47,118.62 16.63,256 16.63,383.06 0,33.3 -1.32,65.79 -4.49,89.55 -1.85,30.1 -19.27,52.83 -56.53,87.7l-8.19 -3.7zm-382.8 -157.19c1.85,46.77 24.83,83.49 105.15,83.49 49.93,0 92.19,-12.93 138.96,-35.13 8.45,-3.7 12.93,-8.73 12.93,-12.93 0,-29.32 -22.45,-68.15 -60.23,-103.55 -36.72,-33.3 -85.34,-62.62 -130.76,-82.18 -15.6,-6.59 -20.62,-13.47 -20.62,-20.09 0,-13.47 17.95,-41.75 32.77,-62.09l5.02 -0.53c52.04,27.21 110.17,67.64 153.24,112.53 39.11,41.47 63.4,83.49 63.4,129.19 0,33.81 -10.29,65.51 -26.96,95.11 -57.06,28.79 -117.83,50.72 -178.06,50.72 -73.17,0 -123.1,-34.34 -123.1,-114.92 0,-8.73 0,-22.19 3.17,-39.64l25.11 0 0 0 0 0 0 0 0 0 0 0 -0.02 0zm-132.37 -132.9l45.45 73.45c16.63,27.21 32.23,56.81 32.23,103.55l0 59.7c0,48.34 -30.91,100.13 -80.83,151.38 -39.11,34.62 -73.7,49.41 -105.68,49.41 -47.55,0 -101.98,-14.79 -164.85,-41.75l7.13 -18.49c19.81,5.27 42.79,9.77 71.06,9.77 90.36,-0.53 182.8,-66.57 225.08,-147.15 5.02,-9.26 6.87,-17.95 6.87,-24.04 0,-9.26 -5.02,-19.55 -8.98,-28.79 -22.98,-43.31 -48.62,-82.95 -76.87,-119.68 14.79,-23.25 29.6,-45.7 45.7,-67.9l3.7 0.53 0 0 0 0 0 0 0 0 0 0 -0.02 0.01z"/>
  <g id="_1472371941360">
   <g>
    <g>
     <path class="fil3" d="M6501.03 1988l0 -517.63c0,-114.19 -91.35,-205.53 -205.53,-205.53l-53.29 0c-7.62,-121.78 -106.56,-213.13 -220.75,-213.13l-1065.66 0c-106.56,7.63 -205.53,60.91 -258.81,137.03 -53.28,-83.72 -152.25,-129.4 -258.81,-129.4l-1065.66 0c-121.79,0 -213.13,91.34 -220.75,213.13l-53.29 0c-114.18,0 -205.53,91.34 -205.53,205.53l0 517.62 3608.06 -7.62z"/>
     <path class="fil4" d="M2976.69 3609.34l0 -2024.77c0,-83.71 68.5,-144.62 144.62,-144.62l3151.37 0c83.71,0 144.62,68.5 144.62,144.62l0 2024.77c0,83.72 -68.5,144.63 -144.62,144.63l-3151.37 0c-83.71,7.62 -144.62,-60.91 -144.62,-144.63z"/>
     <path class="fil5" d="M4697 3761.59c0,-144.62 114.19,-258.81 258.81,-258.81l1042.84 0c91.34,0 167.47,-76.12 167.47,-167.47l0 -1941.06c0,-91.34 -76.12,-167.47 -167.47,-167.47l-1050.46 0c-137.03,0 -251.19,114.19 -251.19,251.19l0 2283.61z"/>
     <path class="fil5" d="M4697 3761.59c0,-144.62 -114.19,-258.81 -258.81,-258.81l-1042.84 0c-91.34,0 -167.47,-76.12 -167.47,-167.47l0 -1941.06c0,-91.34 76.12,-167.47 167.47,-167.47l1050.46 0c137.03,0 251.19,114.19 251.19,251.19l0 2283.61z"/>
     <polygon class="fil6" points="3806.41,1668.28 3654.16,1531.25 3501.91,1668.28 3501.91,1226.78 3806.41,1226.78 "/>
     <path class="fil7" d="M3966.26 1965.15l-411.07 0c-30.43,0 -60.9,-22.85 -60.9,-60.91 0,-30.43 22.84,-60.9 60.9,-60.9l411.07 0.02c30.43,0 60.9,22.85 60.9,60.91 -7.62,38.06 -30.43,60.91 -60.9,60.91l0 -0.03z"/>
     <path class="fil7" d="M4384.91 2269.62l-837.31 0c-30.44,0 -60.91,-22.85 -60.91,-60.91 0,-38.06 22.85,-60.9 60.91,-60.9l829.68 0.02c30.43,0 60.91,22.85 60.91,60.91 0,38.06 -22.85,60.91 -53.28,60.91l0 -0.03z"/>
     <path class="fil7" d="M4384.91 2574.12l-837.31 0c-30.44,0 -60.91,-22.85 -60.91,-60.91 0,-30.43 22.85,-60.91 60.91,-60.91l829.68 0c30.43,0 60.91,22.85 60.91,60.91 0,38.06 -22.85,60.91 -53.28,60.91z"/>
     <path class="fil7" d="M4384.91 2878.59l-837.31 0c-30.44,0 -60.91,-22.85 -60.91,-60.91 0,-30.43 22.85,-60.91 60.91,-60.91l829.68 0.03c30.43,0 60.91,22.85 60.91,60.91 0,30.43 -22.85,60.91 -53.28,60.91l0 -0.03z"/>
     <path class="fil7" d="M4384.91 3183.06l-837.31 0c-30.44,0 -60.91,-22.85 -60.91,-60.91 0,-30.43 22.85,-60.91 60.91,-60.91l829.68 0.03c30.43,0 60.91,22.85 60.91,60.91 0,30.43 -22.85,60.91 -53.28,60.91l0 -0.03z"/>
     <path class="fil7" d="M5846.4 1965.15l-829.68 0c-30.43,0 -60.91,-22.85 -60.91,-60.91 0,-30.43 22.85,-60.9 60.91,-60.9l829.68 0.02c30.44,0 60.91,22.85 60.91,60.91 -7.63,38.06 -30.43,60.91 -60.91,60.91l0 -0.03z"/>
     <path class="fil7" d="M5846.4 2269.62l-829.68 0c-30.43,0 -60.91,-22.85 -60.91,-60.91 0,-38.06 22.85,-60.9 60.91,-60.9l829.68 0.02c30.44,0 60.91,22.85 60.91,60.91 0,38.06 -30.43,60.91 -60.91,60.91l0 -0.03z"/>
     <path class="fil7" d="M5450.59 1660.69l-433.87 0c-30.43,0 -60.91,-22.85 -60.91,-60.91 0,-30.43 22.85,-60.9 60.91,-60.9l433.87 0c30.44,0 60.91,22.84 60.91,60.9 -7.63,38.06 -30.44,60.91 -60.91,60.91z"/>
     <path class="fil7" d="M5846.4 2574.12l-829.68 0c-30.43,0 -60.91,-22.85 -60.91,-60.91 0,-30.43 22.85,-60.91 60.91,-60.91l829.68 0c30.44,0 60.91,22.85 60.91,60.91 -7.63,38.06 -30.43,60.91 -60.91,60.91z"/>
     <path class="fil7" d="M5846.4 2878.59l-829.68 0c-30.43,0 -60.91,-22.85 -60.91,-60.91 0,-30.43 22.85,-60.91 60.91,-60.91l829.68 0.03c30.44,0 60.91,22.85 60.91,60.91 -7.63,30.43 -30.43,60.91 -60.91,60.91l0 -0.03z"/>
     <path class="fil7" d="M5846.4 3183.06l-829.68 0c-30.43,0 -60.91,-22.85 -60.91,-60.91 0,-30.43 22.85,-60.91 60.91,-60.91l829.68 0.03c30.44,0 60.91,22.85 60.91,60.91 -7.63,30.43 -30.43,60.91 -60.91,60.91l0 -0.03z"/>
    </g>
    <path class="fil8" d="M5409.4 3642.11l1695.08 0c1.82,-3.61 0,0 3.62,-7.27 12.7,-30.83 30.84,-105.28 36.31,-136.11 27.22,-137.93 18.13,-346.64 -36.31,-475.51l-5.44 -9.06 -1695.08 0 -7.28 14.51c-1.81,7.28 -3.6,10.9 -5.45,18.15 -25.42,76.2 -39.93,165.15 -43.55,252.26l0 65.33c1.81,45.37 7.28,88.93 14.52,130.67 7.27,32.65 23.59,103.42 36.31,136.1l5.46 9.07 1.81 1.81 0.01 0.05z"/>
    <path class="fil9" d="M5409.4 3012.36l1695.08 0c-7.26,-27.23 -38.08,-96.2 -54.45,-121.61 -70.78,-119.77 -132.5,-199.63 -252.26,-288.58 -152.45,-114.33 -330.31,-172.41 -509.99,-179.66l-61.71 0c-264.98,9.08 -522.69,132.5 -689.66,355.71 -12.7,18.13 -23.59,32.66 -36.31,50.81 -27.22,41.75 -79.85,134.33 -90.75,181.5l0 1.81 0.03 0.02z"/>
    <path class="fil10" d="M7104.48 3642.11l-1695.09 0c5.46,19.96 16.33,45.36 25.41,63.53 143.39,321.21 464.62,515.42 800.36,526.31l56.26 0c174.21,-5.44 352.1,-61.7 504.55,-177.87 68.98,-52.63 128.86,-110.7 181.49,-179.67 12.7,-18.14 23.58,-32.65 36.31,-50.82 12.7,-19.98 21.78,-36.31 34.48,-58.07 16.34,-27.23 49.03,-94.38 56.27,-123.41l0 0 -0.03 0z"/>
   </g>
   <g>
    <path class="fil11" d="M2636.06 2485.76l901.34 0c214.72,0 390.41,175.67 390.41,390.4l0 1291.74 -1291.74 0c-214.73,0 -390.41,-175.67 -390.41,-390.4l0 -901.35c0,-214.72 175.67,-390.4 390.41,-390.4z"/>
    <path class="fil12" d="M3195.07 3710.24c92.35,-55.12 87.11,-34.75 87.12,-112.97 0,-41.41 -1.7,-281.68 0.61,-301.25l107.64 61.69c2.33,37.53 0.23,82.11 0.23,120.42 0,40.18 0,80.37 0,120.55 0,40.88 1.1,72.55 -10.39,110.27 -26.51,87.04 -102.39,152.59 -193.7,165.26 -36.4,5.05 -74.1,0.58 -106.62,-9.83 -25.16,-8.05 -64.26,-28.54 -76.93,-42.82l192.05 -111.32zm-579.39 -209.37c9.05,3.15 27.71,15.61 37.2,21 12.86,7.3 23.84,14.04 36.41,21.06 25.02,13.97 48.12,28.27 72.85,42.09 25.09,14.03 49.48,27.93 73.83,42.56 31.56,18.96 54.16,37.65 82.26,21.67 24.72,-14.07 48.86,-28.47 73.68,-42.65l219.57 -126.18 0 122.46c-2.63,5.45 -14.53,10.26 -20.34,13.68l-147.68 85.01c-64.11,38.1 -116.79,75.14 -196.83,75.14 -140.43,0 -253.95,-125.22 -230.95,-275.83zm346.84 -244.22c2.23,-4.34 -0.58,-0.76 3.52,-4l120.52 -69.19c3.98,-0.19 108.76,63.18 124.54,70.68l-0.01 144.27c-17.31,7.22 -118.68,70.92 -124.46,70.59 -2.75,-0.16 -54.75,-30.94 -62.34,-35.38l-61.78 -35.05 0 -141.93 0 -0.01zm52.77 253.72c-0.27,0.25 -0.64,0.56 -0.82,0.71l-98.52 57.44c-10.93,6.37 -5.29,6.28 -24.73,-4.63l-174.32 -100.45c-43.74,-25.03 -84.18,-45.05 -113.63,-81.21 -48.27,-59.24 -70.15,-133.45 -50.36,-211.83 11.65,-46.16 31.77,-74.52 54.74,-102.29 16.87,-20.39 59.12,-51.57 93.3,-62.26 2.58,66.27 0.15,137.67 0.15,204.52 0,16.3 -1.02,91.45 0.67,101.4 2.42,14.33 12.1,24.13 21.89,29.98 19.9,11.91 286.16,163.44 291.64,168.6zm143.05 -368.33c8.7,-6.63 25.2,-15.02 35.21,-20.68l52.4 -30.28c3.9,-2.25 13.38,-8.41 16.95,-9.82 5.7,-2.27 13.24,4.27 18.31,7.13l155.74 89.58c60.23,34.44 116.74,59.89 154.48,120.28 52.55,84.08 47.81,191.99 -10.44,269.43 -7.54,10.03 -25.59,29.82 -34.62,36.87 -26.17,20.43 -35.81,28.32 -72.63,42.67 -1.57,-14.67 -0.36,-227.33 -0.36,-257.41 0,-37.65 6.8,-61.65 -23.45,-79.05l-291.59 -168.72zm-195.76 -91.46c2.66,-5.12 14.81,-10.32 20.42,-13.61l145.67 -84.19c62.24,-36.39 112.26,-73.34 186.15,-76.4 146.6,-6.08 269.32,122.9 243.84,276.41 -17.5,-7.81 -190.92,-110.62 -220.41,-127.03 -33.46,-18.61 -51.83,-37.69 -82.16,-21.3 -24.74,13.38 -48.79,28.53 -73.78,42.58l-145.8 84.1c-12.21,6.9 -23.87,13.87 -36.44,21.02 -9.41,5.35 -27.77,17.51 -37.49,20.97l0 -122.54zm-178.73 245.16c-0.53,-80.25 -0.03,-160.67 -0.03,-240.94 0,-40.98 -1.19,-72.11 10.24,-110.01 24.86,-82.41 97.8,-152.4 194.56,-165.59 35.91,-4.89 74.46,-0.74 106.61,10.17 19.75,6.7 65.55,28.4 76.27,42.55 -3.29,3.74 -54.79,32.22 -63.43,37.17l-191.15 110.19c-30.09,17.41 -24.67,36.4 -24.67,76.91l0 300.96c-7.44,-1.02 -92.68,-53.39 -108.4,-61.43zm-68 -381.6c-7.32,6.44 -60.68,7.27 -135.02,65.49 -6.14,4.81 -12.89,10.46 -18.29,15.41l-15.81 16.4c-10.02,12.2 -20.03,23.35 -29.38,37.95 -73.76,115.09 -72.65,242.56 -0.93,355.25 31.99,50.23 32.04,18.31 20.89,64.17 -2.23,9.15 -3.81,17.78 -5.19,27.2 -29.72,203.72 146.76,389.51 359.52,360.73 8.07,-1.1 21.19,-5.76 26.55,-1.69l24.45 24.65c22.77,19.06 41.6,32.74 69.81,46.58 65.9,32.27 142.82,41.86 221.68,22.04 67.33,-16.92 120.87,-54.09 163.44,-102.87 18.87,-21.64 37.57,-50.81 50.71,-82.45 13.27,-31.95 1.5,-21.03 34.84,-31 155.76,-46.64 251.36,-201.9 222.97,-363.43 -8.61,-48.98 -32.59,-102.32 -62.09,-138.33l-14.37 -18.62c-0.99,-7.15 66,-173.38 -75.83,-321.52 -44.94,-46.93 -105.42,-79.5 -173.26,-91.67 -60.73,-10.9 -74.4,-1.5 -121.83,1.62 -5.15,-4.58 -8.73,-9.62 -13.84,-14.56 -11.67,-11.27 -31.59,-27.29 -44.95,-36.35 -74.8,-50.72 -169.5,-66.65 -260.01,-43.92 -68.42,17.18 -121.9,54.39 -166.08,105.82 -8.45,9.85 -14.84,19.59 -22.46,30.84 -7.7,11.37 -13.08,22.39 -19.5,35.19 -3.28,6.51 -13.34,34.16 -16.07,37.08z"/>
    <path class="fil13" d="M3015.3 3510.37c-5.48,-5.16 -271.74,-156.69 -291.64,-168.6 -9.79,-5.85 -19.47,-15.66 -21.89,-29.98 -1.69,-9.94 -0.67,-85.1 -0.67,-101.4 0,-66.85 2.43,-138.25 -0.15,-204.52 -34.18,10.68 -76.42,41.87 -93.3,62.26 -22.97,27.77 -43.08,56.13 -54.74,102.29 -19.79,78.38 2.1,152.59 50.36,211.83 29.45,36.16 69.88,56.17 113.63,81.21l174.32 100.45c19.44,10.91 13.8,11 24.73,4.63l98.52 -57.44c0.18,-0.15 0.55,-0.46 0.82,-0.71z"/>
    <path class="fil13" d="M3003.02 3821.56c12.67,14.28 51.77,34.77 76.93,42.82 32.52,10.4 70.21,14.88 106.62,9.83 91.3,-12.67 167.19,-78.22 193.7,-165.26 11.49,-37.72 10.39,-69.39 10.39,-110.27 0,-40.18 0,-80.37 0,-120.55 0,-38.31 2.1,-82.88 -0.23,-120.42l-107.64 -61.69c-2.31,19.57 -0.61,259.85 -0.61,301.25 -0.01,78.22 5.23,57.85 -87.12,112.97l-192.05 111.32z"/>
    <path class="fil13" d="M2783.86 3295.72c15.72,8.04 100.96,60.41 108.4,61.43l0 -300.96c0,-40.51 -5.42,-59.5 24.67,-76.91l191.15 -110.19c8.65,-4.95 60.15,-33.43 63.43,-37.17 -10.72,-14.15 -56.52,-35.85 -76.27,-42.55 -32.15,-10.92 -70.7,-15.07 -106.61,-10.17 -96.75,13.19 -169.69,83.18 -194.56,165.59 -11.43,37.9 -10.24,69.04 -10.24,110 0,80.27 -0.5,160.7 0.03,240.95z"/>
    <path class="fil13" d="M2962.58 3050.57l0 122.54c9.73,-3.45 28.09,-15.62 37.49,-20.97 12.57,-7.15 24.23,-14.12 36.44,-21.02l145.8 -84.1c24.99,-14.05 49.04,-29.2 73.78,-42.58 30.32,-16.4 48.7,2.69 82.16,21.3 29.49,16.41 202.9,119.22 220.41,127.03 25.48,-153.51 -97.24,-282.49 -243.84,-276.41 -73.89,3.07 -123.91,40.01 -186.15,76.4l-145.67 84.19c-5.61,3.29 -17.76,8.49 -20.42,13.61z"/>
    <path class="fil13" d="M3158.35 3142.03l291.59 168.72c30.25,17.4 23.45,41.4 23.45,79.05 0,30.08 -1.21,242.74 0.36,257.41 36.82,-14.35 46.46,-22.24 72.63,-42.67 9.03,-7.05 27.08,-26.84 34.62,-36.87 58.25,-77.44 62.99,-185.35 10.44,-269.43 -37.73,-60.39 -94.25,-85.84 -154.48,-120.28l-155.74 -89.58c-5.07,-2.86 -12.61,-9.4 -18.31,-7.13 -3.57,1.41 -13.05,7.57 -16.95,9.82l-52.4 30.28c-10,5.66 -26.51,14.05 -35.21,20.68z"/>
    <path class="fil13" d="M2615.68 3500.87c-23,150.61 90.52,275.83 230.95,275.83 80.04,0 132.72,-37.03 196.83,-75.14l147.68 -85.01c5.81,-3.41 17.71,-8.23 20.34,-13.68l0 -122.46 -219.57 126.18c-24.82,14.18 -48.96,28.58 -73.68,42.65 -28.1,15.99 -50.69,-2.71 -82.26,-21.67 -24.35,-14.63 -48.74,-28.53 -73.83,-42.56 -24.73,-13.82 -47.83,-28.12 -72.85,-42.09 -12.57,-7.02 -23.55,-13.76 -36.41,-21.06 -9.5,-5.39 -28.16,-17.85 -37.2,-21z"/>
    <path class="fil13" d="M2962.52 3256.65l0 141.93 61.78 35.05c7.59,4.43 59.59,35.22 62.34,35.38 5.78,0.34 107.15,-63.36 124.46,-70.59l0.01 -144.27c-15.79,-7.5 -120.56,-70.87 -124.54,-70.68l-120.52 69.19c-4.1,3.25 -1.3,-0.34 -3.52,4l0 0.01z"/>
   </g>
  </g>
 </g>
</svg>
