<?xml version="1.0" encoding="UTF-8"?>
<!DOCTYPE svg PUBLIC "-//W3C//DTD SVG 1.1//EN" "http://www.w3.org/Graphics/SVG/1.1/DTD/svg11.dtd">
<!-- Creator: CorelDRAW 2017 -->
<svg xmlns="http://www.w3.org/2000/svg" xml:space="preserve" width="3.70333in" height="2.08333in" version="1.1" style="shape-rendering:geometricPrecision; text-rendering:geometricPrecision; image-rendering:optimizeQuality; fill-rule:evenodd; clip-rule:evenodd"
viewBox="0 0 3703 2083"
 xmlns:xlink="http://www.w3.org/1999/xlink"
 xmlns:svg="http://www.w3.org/2000/svg"
 enable-background="new 0 0 512 512">
 <defs>
  <style type="text/css">
   <![CDATA[
    .fil4 {fill:#2B3B4E}
    .fil10 {fill:#2C9984}
    .fil6 {fill:#324A5E}
    .fil14 {fill:#42BDA4}
    .fil7 {fill:#ACB3BA}
    .fil8 {fill:#CED5E0}
    .fil13 {fill:#D0C8C3}
    .fil16 {fill:#DAD0CB}
    .fil0 {fill:#E6E7E8}
    .fil9 {fill:#E6E9EE}
    .fil12 {fill:#E7DFDD}
    .fil11 {fill:#F4F1F1}
    .fil3 {fill:#FF5C38}
    .fil15 {fill:#FF8D73}
    .fil5 {fill:#FFC338}
    .fil2 {fill:#373435;fill-opacity:0.031373}
    .fil1 {fill:#373435;fill-opacity:0.101961}
   ]]>
  </style>
 </defs>
 <g id="Layer_x0020_1">
  <metadata id="CorelCorpID_0Corel-Layer"/>
  <polygon class="fil0" points="-3,0 3706,0 3706,2083 -3,2083 "/>
  <path class="fil1" d="M2653 1073l5 0 5 1 5 1 5 2 5 2 4 3 4 3 4 3 3 4 3 4 3 4 2 5 2 5 1 5 0 0 1 5 0 0 0 5 0 0 0 598 0 0 0 0 0 2m0 -2l0 5 0 0 -1 5 0 0 -1 5 0 0 -2 5 0 0 -2 5 -3 4 -3 4 0 0 -3 4 0 0 -2 2 -1 1 -4 3 -4 3 -88 53m97 -60l64 -38 0 0 -64 38m17 -38l0 0m0 0l0 0m-1012 360l-11 0 0 0 -26 0 -47 0 -31 0 -6 0 -19 0 -19 0 -71 0 -55 0 -170 0 0 0 -41 0 -8 0 -19 0 -44 0 -1 0 -7 0 -21 0 -15 0 -1 0 -147 0 -12 0 -58 0 -14 0 -5 0 -67 0 -140 0 0 0 -3 0 -7 0 -1 0 -15 0 -57 0 -2 0 -31 0 -7 0 -14 0 -15 0 -10 0 -15 0 -40 0 -43 0 -10 0 -27 0 -1 0 -77 0 -3 0 -7 0 -14 0 -3 0 -61 0 -20 0 -28 0 -2 0 -43 0 -20 0 -57 0 -6 0 0 -87 0 -257 0 -9 0 -70 0 -26 0 -201 0 0 1242 -1001 -3 3 8 -6 0 227 259 -203 3 -2 3 -2 3 -2 3 -1 4 -1 4 -1 4 0 4 0 4 1 4 1 4 1 4 2 791 435 -29 32 -6 6 -6 6 -6 6 -7 5 -7 5 -239 165 -2 4 0 1 -1 0 -784 543 20 16 31 22 22 14 977 -667 -8 6 -7 6 -6 7 -6 8 -5 8 -4 9 -3 9 -2 9 -1 10 -1 10 0 4 69 -47 4 -3 5 -2 5 -2 5 -1 5 -1 5 0 5 1 5 2 5 2 4 3 3 4 2 5 2 5 1 5 0 7 0 2 122 -82 0 140 135 -89 5 -2 5 -2 5 -1 -150 99 0 1 50 0 7 0 7 -1 7 -2 7 -2 6 -3 6 -4 -91 60 0 6 0 271 125 0 -125 78 0 22 25 0 -25 16 0 38 0 125 119 0 29 0 -77 47 16 0 63 0 10 -1 10 -1 9 -2 9 -3 9 -4 -458 274 -26 0 -61 0 -2 0 0 0 -14 0 -31 0 0 0 0 0 -37 0 -74 0 -71 0 -4 0 0 0 -67 0 -8 0 -43 0 -40 0 -11 0 0 0 -6 0 0 0 -23 0 -24 0 -2 0 -6 0z"/>
  <path class="fil2" d="M215 1826c7,11 12,21 16,32 3,7 5,19 21,19 5,0 11,-1 17,-5 7,-3 12,-9 14,-17l6 -21 15 -7 1 1c-2,8 -3,16 -3,21 0,18 15,24 27,24 7,0 13,-4 13,-10 0,-8 -4,-23 -8,-35 7,-7 14,-14 22,-20l1 1c4,15 6,30 6,40 0,10 -4,20 -8,27 -7,14 -20,25 -36,25 -12,0 -25,-6 -34,-17l-1 0c-9,11 -22,20 -43,20l-7 0c-1,14 -4,24 -9,33 -13,25 -50,42 -85,42 -49,0 -73,-28 -73,-66 0,-23 8,-45 19,-60l10 4c-7,14 -12,27 -12,40 0,35 29,52 62,52 31,0 68,-19 75,-42 -3,-25 -12,-36 -26,-59 4,-7 10,-15 17,-23l1 0 0 0 0 0 2 1 0 0 0 0 0 0zm565 -133c10,6 20,14 30,23 -6,8 -12,15 -21,21 -10,-8 -20,-15 -30,-22 7,-8 14,-15 20,-22l0 0 0 0 1 0 0 0 0 0 0 0zm5 96c-17,0 -30,11 -30,19 0,17 33,23 73,23 -5,-20 -22,-42 -43,-42zm-37 93c22,0 41,-1 55,-4 16,-4 30,-12 30,-18 0,-2 0,-3 -1,-5 -9,1 -19,1 -29,1 -29,0 -52,-7 -61,-23 -2,-5 -4,-10 -4,-16 0,-16 7,-32 19,-42 10,-9 21,-14 33,-14 20,0 37,16 48,42 6,14 11,30 11,51 0,14 -4,25 -12,34 -16,15 -45,21 -90,21l-20 0 0 0 -5 0c-11,0 -19,-2 -25,-7l-1 0c0,3 1,5 1,7 0,10 -3,23 -10,33 -20,30 -42,43 -60,43 -19,0 -42,-7 -63,-17l4 -7c7,3 16,5 29,5 34,0 78,-33 84,-64 -1,-3 -4,-6 -7,-10 -10,-12 -16,-22 -22,-32 5,-10 10,-18 14,-25l2 0c14,29 28,46 57,46l5 0 0 0 21 0 0 0 0 0 -3 1 0 0 0 0 0 0zm-146 31c2,-14 3,-29 3,-43l0 -21c0,-39 -5,-96 -9,-133 7,-8 17,-17 25,-23l2 1c5,47 7,101 7,151 0,13 -1,26 -2,35 -1,12 -8,21 -22,35l-3 -1 0 0 0 0 -1 -1 0 0 0 0 0 0zm-151 -62c1,18 10,33 41,33 20,0 36,-5 55,-14 3,-1 5,-3 5,-5 0,-12 -9,-27 -24,-41 -14,-13 -34,-25 -51,-32 -6,-3 -8,-5 -8,-8 0,-5 7,-16 13,-24l2 0c20,11 43,27 60,44 15,16 25,33 25,51 0,13 -4,26 -11,38 -22,11 -46,20 -70,20 -29,0 -48,-14 -48,-45 0,-3 0,-9 1,-16l10 0 0 0 0 0 0 -1 0 0 0 0 0 0zm-52 -52l18 29c7,11 13,22 13,41l0 24c0,19 -12,39 -32,60 -15,14 -29,20 -42,20 -19,0 -40,-6 -65,-17l3 -7c8,2 17,4 28,4 36,0 72,-26 89,-58 2,-4 3,-7 3,-9 0,-4 -2,-8 -4,-11 -9,-17 -19,-33 -30,-47 6,-9 12,-18 18,-27l1 0 0 -2 0 0 0 0 0 0z"/>
  <g id="_2410828913296">
  </g>
  <g id="_2410828914320">
  </g>
  <g id="_2410828914160">
  </g>
  <g id="_2410828914032">
  </g>
  <g id="_2410828910512">
  </g>
  <g id="_2410828911184">
  </g>
  <g id="_2410828911728">
  </g>
  <g id="_2410828912240">
  </g>
  <g id="_2410828911760">
  </g>
  <g id="_2410828910576">
  </g>
  <g id="_2410828911536">
  </g>
  <g id="_2410828909200">
  </g>
  <g id="_2410828910096">
  </g>
  <g id="_2410828910288">
  </g>
  <g id="_2410828909424">
  </g>
  <g id="_2410828904240">
   <circle class="fil3" cx="1741" cy="1042" r="789"/>
   <path class="fil4" d="M1275 1399l-3 -62 168 -9 97 -310 59 18 -104 331c-4,12 -15,21 -28,22l-189 10z"/>
   <path class="fil5" d="M1244 429c-178,145 -292,365 -292,612 0,247 114,468 292,612l0 -1225z"/>
   <path class="fil6" d="M1244 1548l0 0 0 -379 0 0c32,0 58,26 58,58l0 263c0,32 -26,58 -58,58z"/>
   <path class="fil7" d="M1524 1104l0 0c-45,-25 -61,-81 -37,-126l88 -160 163 90 -88 160c-25,45 -81,62 -126,37z"/>
   <path class="fil6" d="M1866 1025l164 90c2,1 4,0 5,-1l82 -149c1,-2 0,-4 -1,-5l-164 -90c-2,-1 -4,0 -5,1l-82 149c-1,2 0,4 1,5z"/>
   <path class="fil8" d="M1909 1128l-540 -296c-7,-4 -9,-12 -5,-18l134 -244c4,-7 12,-9 18,-5l540 296c7,4 9,12 5,18l-134 244c-4,7 -12,9 -18,5z"/>
   <g>
    <path class="fil9" d="M1450 622l610 335c82,45 184,28 247,-41l29 -32 -791 -435c-19,-10 -42,-3 -52,15l-58 105c-11,19 -4,42 15,53z"/>
    <circle class="fil9" cx="1566" cy="1027" r="39"/>
   </g>
   <circle class="fil10" cx="1883" cy="1015" r="27"/>
   <g>
    <path class="fil6" d="M2653 1821l-299 0c-54,0 -98,-44 -98,-98l0 -598c0,-54 44,-98 98,-98l299 0c54,0 98,44 98,98l0 598c0,54 -44,98 -98,98l0 0z"/>
    <path class="fil4" d="M2751 1723l0 -598c0,-54 -44,-98 -98,-98l-150 0 0 795 150 0c54,0 98,-44 98,-98l0 0z"/>
    <path class="fil11" d="M2653 1073c-15,0 -27,12 -27,27 0,40 -33,73 -73,73l-100 0c-40,0 -73,-33 -73,-73 0,-15 -12,-27 -27,-27 -28,0 -52,23 -52,52l0 598c0,29 23,52 52,52l299 0c28,0 52,-23 52,-52l0 -598c0,-29 -23,-52 -52,-52l0 0z"/>
    <path class="fil12" d="M2704 1723l0 -598c0,-29 -23,-52 -52,-52 -15,0 -27,12 -27,27 0,40 -33,73 -73,73l-50 0 0 602 150 0c28,0 52,-23 52,-52l0 0z"/>
    <circle class="fil13" cx="2628" cy="1574" r="23"/>
    <path class="fil12" d="M2528 1597l-150 0c-13,0 -23,-10 -23,-23 0,-13 10,-23 23,-23l150 0c13,0 23,10 23,23 0,13 -10,23 -23,23l0 0z"/>
    <path class="fil14" d="M2628 1497l-249 0c-13,0 -23,-10 -23,-23l0 -224c0,-13 10,-23 23,-23l249 0c13,0 23,10 23,23l0 224c0,13 -10,23 -23,23l0 0z"/>
    <path class="fil15" d="M2628 1650l-249 0c-13,0 -23,10 -23,23l0 101 296 0 0 -101c0,-13 -10,-23 -23,-23l0 0z"/>
    <path class="fil16" d="M2552 1574c0,-13 -10,-23 -23,-23l-25 0 0 47 25 0c13,0 23,-10 23,-23l0 0z"/>
    <path class="fil10" d="M2651 1474l0 -224c0,-13 -10,-23 -23,-23l-125 0 0 271 125 0c13,0 23,-10 23,-23l0 0z"/>
    <path class="fil3" d="M2651 1673c0,-13 -10,-23 -23,-23l-125 0 0 125 148 0 0 -101z"/>
   </g>
  </g>
 </g>
</svg>
