<?xml version="1.0" encoding="UTF-8"?>
<!DOCTYPE svg PUBLIC "-//W3C//DTD SVG 1.1//EN" "http://www.w3.org/Graphics/SVG/1.1/DTD/svg11.dtd">
<!-- Creator: CorelDRAW 2020 (64-Bit) -->
<svg xmlns="http://www.w3.org/2000/svg" xml:space="preserve" width="94.1916mm" height="52.9166mm" version="1.1" style="shape-rendering:geometricPrecision; text-rendering:geometricPrecision; image-rendering:optimizeQuality; fill-rule:evenodd; clip-rule:evenodd"
viewBox="0 0 9404.92 5283.66"
 xmlns:xlink="http://www.w3.org/1999/xlink"
 xmlns:xodm="http://www.corel.com/coreldraw/odm/2003">
 <defs>
  <style type="text/css">
   <![CDATA[
    .fil3 {fill:#061E26}
    .fil4 {fill:#5AD7FA}
    .fil0 {fill:#E6E7E8}
    .fil2 {fill:#373435;fill-opacity:0.031373}
    .fil1 {fill:#2B2A29;fill-opacity:0.101961}
   ]]>
  </style>
 </defs>
 <g id="Layer_x0020_1">
  <metadata id="CorelCorpID_0Corel-Layer"/>
  <polygon class="fil0" points="-0,0 9404.92,0 9404.92,5283.66 -0,5283.66 "/>
  <g id="_2682032511072">
   <polygon class="fil0" points="1335.38,5283.66 197.96,5283.66 5790.38,2935.18 5802.1,2947.51 5813.16,2960.42 5823.59,2973.87 5833.38,2987.84 5842.53,3002.27 5851.05,3017.17 5858.94,3032.47 5866.21,3048.16 5872.84,3064.19 5878.85,3080.55 5884.23,3097.18 5889,3114.07 5893.15,3131.17 5896.68,3148.46 5899.61,3165.92 5901.91,3183.49 5903.62,3201.14 5904.71,3218.87 5905.2,3236.6 5905.09,3254.33 5904.38,3272.03 5903.07,3289.65 5901.17,3307.16 5898.67,3324.55 5895.58,3341.75 5891.91,3358.76 5887.65,3375.52 5882.79,3392.02 5877.36,3408.23 5871.36,3424.1 5864.77,3439.6 5857.61,3454.71 "/>
   <polygon class="fil0" points="847.14,5283.66 391.2,5283.66 5038.58,3344.67 5049.42,3349.72 5060.16,3354.55 5070.81,3359.18 5081.39,3363.61 5091.89,3367.83 5102.35,3371.87 5112.75,3375.69 5123.11,3379.33 5133.45,3382.79 5143.77,3386.05 5154.09,3389.14 5164.41,3392.04 5174.75,3394.78 5185.1,3397.35 5195.48,3399.74 5205.92,3401.97 5216.4,3404.04 5226.96,3405.94 5237.58,3407.7 5248.28,3409.31 5259.09,3410.77 5269.99,3412.08 5281.01,3413.25 5292.16,3414.29 5303.44,3415.19 5314.86,3415.96 5326.44,3416.6 5338.18,3417.12 5350.09,3417.52 5362.19,3417.8 5374.48,3417.97 5386.98,3418.02 "/>
   <polygon class="fil0" points="391.2,5283.66 231.46,5283.66 4954.37,3302.56 4963.04,3303.91 4974.42,3308.76 4988.1,3316.2 5003.63,3325.29 5020.61,3335.08 5038.58,3344.67 "/>
   <polygon class="fil0" points="1593.76,5283.66 1509.93,5283.66 5784.27,3564.71 5768.42,3579.74 5751.81,3593.88 5734.51,3607.17 5716.54,3619.6 5697.93,3631.19 5678.76,3641.98 5659.04,3651.96 5638.83,3661.16 5618.16,3669.58 "/>
   <polygon class="fil0" points="1509.93,5283.66 1480.66,5283.66 5796.49,3546.38 5794.47,3548.68 5792.87,3550.96 5791.55,3553.26 5790.38,3555.55 5789.22,3557.84 5787.9,3560.13 5786.3,3562.43 5784.27,3564.71 "/>
   <polygon class="fil0" points="1480.66,5283.66 1335.38,5283.66 5857.61,3454.71 5849.22,3472.68 5842.05,3486.22 5835.6,3496.61 5829.34,3505.12 5822.81,3513.07 5815.51,3521.74 5806.89,3532.41 5796.49,3546.38 "/>
   <polygon class="fil0" points="886.91,5283.66 847.14,5283.66 5386.98,3418.02 5402.01,3417.52 5417.18,3416.01 5432.38,3413.5 5447.44,3410 5462.27,3405.48 5476.71,3399.96 "/>
   <polygon class="fil0" points="197.96,5283.66 71.46,5283.66 5741.49,2892.39 5790.38,2935.18 "/>
   <polygon class="fil0" points="71.46,5283.66 -0,5283.66 -0,5042.8 5429.79,2702.92 5449.4,2713.24 5469.25,2723.6 5489.28,2734.03 5509.43,2744.56 5529.66,2755.25 5549.9,2766.1 5570.11,2777.18 5590.23,2788.5 5610.2,2800.11 5629.98,2812.04 5649.51,2824.32 5668.73,2837.01 5687.59,2850.13 5706.04,2863.69 5724.02,2877.77 5741.49,2892.39 "/>
   <polygon class="fil0" points="-0,4991.79 -0,4741.79 5827.07,2171.18 5827.14,2203.82 5827.32,2234.17 5827.6,2262.3 5827.94,2288.29 5828.33,2312.21 5828.72,2334.14 5829.11,2354.14 5829.45,2372.3 5829.74,2388.68 5829.93,2403.37 5830.02,2416.44 5829.96,2427.95 5829.74,2437.99 5829.33,2446.62 5828.7,2453.92 5827.83,2459.97 5826.69,2464.84 5825.25,2468.59 5823.49,2471.32 5821.4,2473.08 "/>
   <polygon class="fil0" points="-0,4834.35 -0,4766.77 5325.88,2421.77 5316.49,2431 5306.97,2440.59 5297.73,2450.89 5289.21,2462.26 5281.83,2475.07 5276.03,2489.66 5272.23,2506.42 5270.87,2525.67 "/>
   <polygon class="fil0" points="-0,4766.77 -0,4765.02 5346.8,2410.5 5335.98,2415.8 5325.88,2421.77 "/>
   <polygon class="fil0" points="-0,5042.8 -0,4834.35 5270.87,2525.67 5271.92,2541.29 5274.94,2556.1 5279.78,2570.14 5286.25,2583.45 5294.18,2596.08 5303.43,2608.08 5313.8,2619.48 5325.12,2630.34 5337.23,2640.7 5349.96,2650.6 5363.14,2660.08 5376.6,2669.21 5390.16,2678.01 5403.66,2686.53 5416.93,2694.82 5429.79,2702.92 "/>
   <polygon class="fil0" points="-0,4741.79 -0,4557.27 5497.03,2097.84 5502.81,2097.89 5509.8,2098.06 5517.89,2098.34 5527,2098.74 5537.04,2099.25 5547.91,2099.9 5559.52,2100.67 5571.79,2101.57 5584.64,2102.61 5597.95,2103.78 5611.63,2105.08 5625.62,2106.54 5639.81,2108.15 5654.11,2109.91 5668.43,2111.81 5682.68,2113.89 5696.76,2116.12 5710.59,2118.51 5724.08,2121.07 5737.14,2123.8 5749.68,2126.71 5761.6,2129.8 5772.81,2133.07 5783.23,2136.52 5792.77,2140.16 5801.33,2143.98 5808.82,2148.02 5815.15,2152.24 5820.23,2156.66 5823.96,2161.3 5826.28,2166.13 5827.07,2171.18 "/>
   <polygon class="fil0" points="-0,4557.27 -0,4536.49 5442.02,2097.84 5497.03,2097.84 "/>
   <polygon class="fil0" points="-0,4536.49 -0,4489.27 5197.54,2151.85 5208.31,2147.06 5219.3,2142.44 5230.48,2138 5241.85,2133.75 5253.4,2129.7 5265.12,2125.84 5276.99,2122.21 5289.02,2118.79 5301.2,2115.61 5313.51,2112.65 5325.95,2109.95 5338.5,2107.49 5351.15,2105.29 5363.91,2103.37 5376.76,2101.71 5389.68,2100.34 5402.68,2099.26 5415.74,2098.48 5428.86,2098 5442.02,2097.84 "/>
   <line class="fil0" x1="4946.92" y1="2537.91" x2="4946.92" y2= "2537.91" />
   <line class="fil0" x1="4946.92" y1="2537.91" x2="4946.92" y2= "2537.91" />
   <polygon class="fil0" points="-0,4723.33 -0,4720.41 4953.03,2531.8 4946.92,2537.91 "/>
   <polygon class="fil0" points="-0,4720.41 -0,4720.39 4953.05,2531.77 4953.03,2531.8 "/>
   <polygon class="fil0" points="-0,4779.05 -0,4379.51 4775.8,2213.96 4775.3,2247.32 4773.8,2279.79 4771.33,2311.38 4767.86,2342.1 4763.43,2371.96 4758.04,2400.97 4751.68,2429.11 4744.38,2456.43 4736.14,2482.91 4726.96,2508.56 4716.87,2533.4 4705.86,2557.44 4693.93,2580.66 4681.11,2603.1 4667.39,2624.75 4652.8,2645.61 4637.32,2665.72 4620.96,2685.06 4603.76,2703.65 4585.69,2721.48 4566.79,2738.58 4547.04,2754.95 4526.46,2770.6 4505.05,2785.53 4482.83,2799.75 4459.82,2813.28 4435.99,2826.11 4411.38,2838.26 4385.98,2849.74 "/>
   <polygon class="fil0" points="-0,4379.51 -0,3874.56 4567.99,1724.97 4581.49,1736.05 4594.5,1747.51 4607.02,1759.36 4619.04,1771.55 4630.58,1784.1 4641.64,1796.98 4652.23,1810.19 4662.35,1823.72 4672,1837.55 4681.19,1851.68 4689.93,1866.08 4698.21,1880.76 4706.05,1895.7 4713.43,1910.89 4720.38,1926.3 4726.9,1941.96 4732.99,1957.83 4738.66,1973.89 4743.9,1990.15 4748.73,2006.59 4753.14,2023.21 4757.15,2039.97 4760.75,2056.9 4763.96,2073.95 4766.77,2091.12 4769.19,2108.42 4771.23,2125.82 4772.88,2143.31 4774.17,2160.88 4775.08,2178.51 4775.62,2196.22 4775.8,2213.96 "/>
   <line class="fil0" x1="3883.41" y1="2617.34" x2="3883.41" y2= "2617.34" />
   <line class="fil0" x1="3883.41" y1="2617.34" x2="3883.41" y2= "2617.34" />
   <polygon class="fil0" points="-0,4475.35 -0,4378.39 3883.41,2617.34 3907.03,2617.26 3930.82,2616.98 3954.74,2616.45 3978.74,2615.62 4002.73,2614.43 4026.67,2612.82 4050.5,2610.76 4074.13,2608.17 4097.54,2605.01 4120.63,2601.22 4143.36,2596.76 4165.66,2591.56 4187.48,2585.57 4208.75,2578.74 4229.4,2571.01 4249.39,2562.33 "/>
   <polygon class="fil0" points="-0,4378.43 -0,4378.4 3883.41,2617.35 3883.41,2617.38 "/>
   <polygon class="fil0" points="30.19,5283.66 -0,5283.66 -0,5280.5 3840.63,3656.41 3840.34,3660.98 3839.48,3665.39 3838.05,3669.51 3836.04,3673.22 3833.47,3676.34 3830.31,3678.76 "/>
   <polygon class="fil0" points="-0,5280.5 -0,4631.6 3840.63,2922.94 3840.63,3656.41 "/>
   <polygon class="fil0" points="-0,4378.4 -0,4358.77 3834.51,2617.35 3842.63,2617.35 3849.03,2617.35 3854.28,2617.35 3858.97,2617.35 3863.65,2617.35 3868.89,2617.35 3875.29,2617.35 3883.41,2617.35 "/>
   <polygon class="fil0" points="-0,3874.56 -0,3357.27 3669.52,1566.06 3699.42,1565.98 3729.5,1565.76 3759.74,1565.46 3790.1,1565.12 3820.56,1564.78 3851.08,1564.49 3881.62,1564.29 3912.19,1564.24 3942.71,1564.38 3973.18,1564.75 4003.57,1565.4 4033.84,1566.38 4063.96,1567.73 4093.9,1569.49 4123.64,1571.72 4153.13,1574.46 4182.36,1577.75 4211.28,1581.65 4239.89,1586.19 4268.13,1591.42 4295.98,1597.39 4323.41,1604.15 4350.39,1611.74 4376.89,1620.21 4402.88,1629.59 4428.34,1639.95 4453.22,1651.31 4477.49,1663.74 4501.15,1677.27 4524.13,1691.96 4546.42,1707.84 4567.99,1724.97 "/>
   <polygon class="fil0" points="-0,4358.77 -0,3693.55 3834.51,1865.56 3834.51,2617.35 "/>
   <polygon class="fil0" points="-0,3357.27 -0,3313.63 3542.34,1579.27 3554.16,1575.23 3566.93,1572.33 3580.47,1570.35 3594.63,1569.1 3609.27,1568.35 3624.23,1567.89 3639.36,1567.49 3654.51,1566.96 3669.52,1566.06 "/>
   <line class="fil0" x1="3498.38" y1="3662.49" x2="3498.38" y2= "3662.49" />
   <polygon class="fil0" points="-0,5156.55 -0,5151.08 3498.38,3656.36 3498.38,3662.49 "/>
   <polygon class="fil0" points="4274.29,5283.66 4155.47,5283.66 5973.78,4609.95 6009.66,4609.04 6045.07,4606.36 6079.96,4601.92 6114.28,4595.8 6148.01,4588.02 6181.08,4578.64 6213.47,4567.69 "/>
   <polygon class="fil0" points="4155.47,5283.66 1743.28,5283.66 3431.15,4609.95 5973.78,4609.95 "/>
   <polygon class="fil0" points="1743.28,5283.66 -0,5283.66 -0,5087.34 2734.34,3913.15 2735.25,3949.03 2737.93,3984.44 2742.37,4019.33 2748.49,4053.65 2756.27,4087.38 2765.65,4120.45 2776.6,4152.84 2789.07,4184.48 2803.02,4215.36 2818.4,4245.4 2835.17,4274.59 2853.29,4302.86 2872.71,4330.17 2893.39,4356.49 2915.29,4381.77 2938.35,4405.96 2962.54,4429.02 2987.83,4450.92 3014.15,4471.6 3041.47,4491.02 3069.73,4509.13 3098.92,4525.91 3128.96,4541.28 3159.84,4555.23 3191.48,4567.69 3223.86,4578.65 3256.94,4588.03 3290.66,4595.8 3324.99,4601.93 3359.86,4606.36 3395.27,4609.04 3431.15,4609.95 "/>
   <polygon class="fil0" points="-0,5087.34 -0,2760.59 2734.34,1370.52 2734.34,3913.15 "/>
   <polygon class="fil0" points="-0,2760.59 -0,2373.85 3098.89,757.77 3069.7,774.54 3041.44,792.66 3014.12,812.08 2987.8,832.76 2962.52,854.66 2938.33,877.72 2915.27,901.91 2893.37,927.2 2872.69,953.52 2853.27,980.84 2835.16,1009.1 2818.38,1038.29 2803.01,1068.33 2789.06,1099.21 2776.6,1130.85 2765.64,1163.23 2756.26,1196.31 2748.49,1230.03 2742.36,1264.36 2737.93,1299.23 2735.25,1334.64 2734.34,1370.52 "/>
  </g>
  <polygon class="fil1" points="1578.42,5283.66 1119.08,5283.66 1075.75,5283.66 609.71,5283.66 447.98,5283.66 447.73,5283.66 319.41,5283.66 202.08,5283.66 165.32,5283.66 -0,5283.66 -0,5223.32 -0,5217.7 -0,5138.98 -0,5137.37 -0,5090.12 -0,4918.33 -0,4848.85 -0,4848.61 -0,4847.32 -0,4829.53 -0,4798.63 -0,4795.68 -0,4795.66 -0,4688.85 -0,4633.17 -0,4610.89 -0,4558.89 -0,4533.07 -0,4440.16 -0,4428.73 -0,4428.7 -0,4407.93 -0,3915.45 -0,3723.13 -0,3376.2 -0,3330.77 -0,2762.18 -0,2366.28 3098.89,757.77 3069.7,774.54 3041.44,792.66 3014.12,812.08 2987.8,832.76 2962.52,854.66 2938.33,877.72 2915.27,901.91 2893.37,927.2 2872.69,953.52 2853.27,980.84 2835.16,1009.1 2818.38,1038.29 2803.01,1068.33 2789.06,1099.21 2776.6,1130.85 2765.64,1163.23 2756.26,1196.31 2748.49,1230.03 2742.36,1264.36 2737.93,1299.23 2735.25,1334.64 2734.34,1370.52 2734.34,1978.78 3542.34,1579.27 3554.16,1575.23 3566.93,1572.33 3580.47,1570.35 3594.63,1569.1 3609.27,1568.35 3624.23,1567.89 3639.36,1567.49 3654.51,1566.96 3669.52,1566.06 3699.42,1565.98 3729.5,1565.76 3759.74,1565.46 3790.1,1565.12 3820.56,1564.78 3851.08,1564.49 3881.62,1564.29 3912.19,1564.24 3942.71,1564.38 3973.18,1564.75 4003.57,1565.4 4033.84,1566.38 4063.96,1567.73 4093.9,1569.49 4123.64,1571.72 4153.13,1574.46 4182.36,1577.75 4211.28,1581.65 4239.89,1586.19 4268.13,1591.42 4295.98,1597.39 4323.41,1604.15 4350.39,1611.74 4376.89,1620.21 4402.88,1629.59 4428.34,1639.95 4453.22,1651.31 4477.49,1663.74 4501.15,1677.27 4524.13,1691.96 4546.42,1707.84 4567.99,1724.97 4581.49,1736.05 4594.5,1747.51 4607.02,1759.36 4619.04,1771.55 4630.58,1784.1 4641.64,1796.98 4652.23,1810.19 4662.35,1823.72 4672,1837.55 4681.19,1851.68 4689.93,1866.08 4698.21,1880.76 4706.05,1895.7 4713.43,1910.89 4720.38,1926.3 4726.9,1941.96 4732.99,1957.83 4738.66,1973.89 4743.9,1990.15 4748.73,2006.59 4753.14,2023.21 4757.15,2039.97 4760.75,2056.9 4763.96,2073.95 4766.77,2091.12 4769.19,2108.42 4771.23,2125.82 4772.88,2143.31 4774.17,2160.88 4775.08,2178.51 4775.62,2196.22 4775.8,2213.96 4775.3,2247.32 4773.8,2279.79 4771.33,2311.38 4767.86,2342.1 4766.46,2351.49 5197.54,2151.85 5208.31,2147.06 5219.3,2142.44 5230.48,2138 5241.85,2133.75 5253.4,2129.7 5265.12,2125.84 5276.99,2122.21 5289.02,2118.79 5301.2,2115.61 5313.51,2112.65 5325.95,2109.95 5338.5,2107.49 5351.15,2105.29 5363.91,2103.37 5376.76,2101.71 5389.68,2100.34 5402.68,2099.26 5415.74,2098.48 5428.86,2098 5442.02,2097.84 5497.03,2097.84 5502.81,2097.89 5509.8,2098.06 5517.89,2098.34 5527,2098.74 5537.04,2099.25 5547.91,2099.9 5559.52,2100.67 5571.79,2101.57 5584.64,2102.61 5597.95,2103.78 5611.63,2105.08 5625.62,2106.54 5639.81,2108.15 5654.11,2109.91 5668.43,2111.81 5682.68,2113.89 5696.76,2116.12 5710.59,2118.51 5724.08,2121.07 5737.14,2123.8 5749.68,2126.71 5761.6,2129.8 5772.81,2133.07 5783.23,2136.52 5792.77,2140.16 5801.33,2143.98 5808.82,2148.02 5815.15,2152.24 5820.23,2156.66 5823.96,2161.3 5826.28,2166.13 5827.07,2171.18 5827.14,2203.82 5827.32,2234.17 5827.6,2262.3 5827.94,2288.29 5828.33,2312.21 5828.72,2334.14 5829.11,2354.14 5829.45,2372.3 5829.74,2388.68 5829.93,2403.37 5830.02,2416.44 5829.96,2427.95 5829.74,2437.99 5829.33,2446.62 5828.7,2453.92 5827.83,2459.97 5826.69,2464.84 5825.25,2468.59 5823.49,2471.32 5821.4,2473.08 5380.08,2671.47 5390.16,2678.01 5403.66,2686.53 5416.93,2694.82 5429.79,2702.92 5449.4,2713.24 5469.25,2723.6 5489.28,2734.03 5509.43,2744.56 5529.66,2755.25 5549.9,2766.1 5570.11,2777.18 5590.23,2788.5 5610.2,2800.11 5629.98,2812.04 5649.51,2824.32 5668.73,2837.01 5687.59,2850.13 5706.04,2863.69 5724.02,2877.77 5741.49,2892.39 5790.38,2935.18 5802.1,2947.51 5813.16,2960.42 5823.59,2973.87 5833.38,2987.84 5842.53,3002.27 5851.05,3017.17 5858.94,3032.47 5866.21,3048.16 5872.84,3064.19 5878.85,3080.55 5884.23,3097.18 5889,3114.07 5893.15,3131.17 5896.68,3148.46 5899.61,3165.92 5901.91,3183.49 5903.62,3201.14 5904.71,3218.87 5905.2,3236.6 5905.09,3254.33 5904.38,3272.03 5903.07,3289.65 5901.17,3307.16 5898.67,3324.55 5895.58,3341.75 5891.91,3358.76 5887.65,3375.52 5882.79,3392.02 5877.36,3408.23 5871.36,3424.1 5864.77,3439.6 5857.61,3454.71 5849.22,3472.68 5842.05,3486.22 5835.6,3496.61 5829.34,3505.12 5822.81,3513.07 5815.51,3521.74 5806.89,3532.41 5796.49,3546.38 5794.47,3548.68 5792.87,3550.96 5791.55,3553.26 5790.38,3555.55 5789.22,3557.84 5787.9,3560.13 5786.3,3562.43 5784.27,3564.71 5768.42,3579.74 5751.81,3593.88 5734.51,3607.17 5716.54,3619.6 5697.93,3631.19 5678.76,3641.98 5659.04,3651.96 5638.83,3661.16 3407.2,4609.34 3431.15,4609.95 5973.78,4609.95 6009.66,4609.04 6045.07,4606.36 6079.96,4601.92 6114.28,4595.8 6148.01,4588.02 6181.08,4578.64 6213.47,4567.69 6245.12,4555.22 4421.92,5283.66 4292.56,5283.66 1844.58,5283.66 1820.15,5283.66 1745.92,5283.66 1717.88,5283.66 "/>
  <path class="fil2" d="M578.49 4627.69c17.95,27.21 29.6,53.36 40.96,82.43 8.45,16.91 12.93,48.09 52.57,48.09 11.61,0 28.28,-3.42 43.06,-11.61 16.63,-8.73 29.32,-21.94 35.94,-42l15.85 -53.36 38.57 -19.02 2.64 2.64c-5.27,20.09 -6.59,39.36 -6.59,54.43 0,44.63 38.57,61.56 69.22,61.56 17.95,0 34.09,-8.73 34.09,-25.11 0,-21.13 -8.98,-57.06 -20.62,-89.29 17.95,-17.95 35.94,-35.94 56.53,-50.47l3.17 1.6c8.98,38.04 14,75.56 14,100.66 0,24.57 -10.83,51.79 -19.81,69.49 -18.49,34.87 -51.25,62.62 -90.87,62.62 -30.1,0 -63.65,-15.07 -86.66,-43.06l-1.32 0c-21.66,26.96 -55.22,51.25 -108.86,51.25l-16.63 0c-2.64,35.41 -10.29,60.49 -21.94,82.95 -31.95,62.34 -126.81,106.47 -216.1,106.47 -124.17,0 -186.51,-71.59 -186.51,-166.96 0,-58.91 19.27,-113.6 48.88,-152.42l24.29 10.04c-18.49,35.41 -30.91,68.68 -30.91,101.45 0,89.29 72.66,131.83 156.4,131.83 77.68,0 173.83,-49.41 191.28,-106.72 -6.59,-62.62 -30.1,-91.93 -66.04,-148.99 10.83,-19.02 24.83,-38.04 42.28,-58.38l3.17 0 0 0 0 0 -0.02 -0.09zm1432.13 -336.04c26.15,16.39 51.79,35.66 76.87,57.85 -14,19.81 -31.45,37.79 -53.11,53.64 -25.11,-20.34 -50.19,-37.79 -75.84,-56.27 17.42,-19.55 34.62,-38.29 52.04,-55.22l0 0 0 0 0 0 0 0 0 0 0.03 0zm13.47 244.11c-42.28,0 -76.87,27.75 -76.87,48.34 0,44.13 84.53,57.85 185.72,57.31 -12.68,-51.79 -57.06,-105.68 -108.86,-105.68l0.01 0.03zm-94.86 236.19c54.96,0 103.04,-1.6 139.74,-10.83 40.96,-10.29 75.56,-30.91 75.56,-45.17 0,-3.7 0,-8.19 -1.32,-11.89 -22.98,2.11 -49.41,2.11 -72.38,2.11 -74.49,0 -131.55,-16.91 -154.02,-58.66 -5.55,-11.61 -9.51,-24.57 -9.51,-39.36 0,-40.43 17.42,-79.79 48.09,-107 25.61,-22.45 53.89,-36.44 82.67,-36.44 52.04,0 93.51,41.75 122.57,107.54 15.85,35.94 26.68,77.4 26.68,129.72 0,34.87 -9.51,64.19 -31.17,85.85 -40.43,39.11 -114.92,53.89 -229.04,53.89l-51.79 0 0 0 -13.47 0c-28.28,0 -48.62,-5.02 -64.72,-17.42l-2.64 0c0.79,6.59 1.32,12.93 1.32,19.02 0,25.61 -8.45,58.38 -25.61,84.53 -50.72,75.3 -105.68,108.04 -153.24,108.04 -48.09,0 -107,-18.49 -160.11,-42.54l9.51 -18.49c17.17,7.13 40.96,11.89 73.7,11.89 85.85,0 198.66,-82.43 212.66,-163 -3.17,-6.59 -8.98,-15.32 -17.17,-24.57 -25.11,-29.85 -40.96,-54.68 -55.75,-80.83 12.68,-25.11 24.29,-45.17 35.13,-63.4l4.49 -0.53c36.72,74.77 69.99,117.55 144.23,117.55l11.61 0 0 0 53.89 0 0 0 0 0 0 0 0 0 0 0 0.09 0.01zm-371.98 79c6.34,-34.34 6.87,-72.91 6.87,-108.86l0 -53.36c0,-99.6 -12.68,-244.36 -22.98,-338.68 17.95,-19.27 43.06,-42 62.87,-57.31l5.81 1.6c13.47,118.62 16.63,256 16.63,383.06 0,33.3 -1.32,65.79 -4.49,89.55 -1.85,30.1 -19.27,52.83 -56.53,87.7l-8.19 -3.7zm-382.8 -157.19c1.85,46.77 24.83,83.49 105.15,83.49 49.93,0 92.19,-12.93 138.96,-35.13 8.45,-3.7 12.93,-8.73 12.93,-12.93 0,-29.32 -22.45,-68.15 -60.23,-103.55 -36.72,-33.3 -85.34,-62.62 -130.76,-82.18 -15.6,-6.59 -20.62,-13.47 -20.62,-20.09 0,-13.47 17.95,-41.75 32.77,-62.09l5.02 -0.53c52.04,27.21 110.17,67.64 153.24,112.53 39.11,41.47 63.4,83.49 63.4,129.19 0,33.81 -10.29,65.51 -26.96,95.11 -57.06,28.79 -117.83,50.72 -178.06,50.72 -73.17,0 -123.1,-34.34 -123.1,-114.92 0,-8.73 0,-22.19 3.17,-39.64l25.11 0 0 0 0 0 0 0 0 0 0 0 -0.02 0zm-132.37 -132.9l45.45 73.45c16.63,27.21 32.23,56.81 32.23,103.55l0 59.7c0,48.34 -30.91,100.13 -80.83,151.38 -39.11,34.62 -73.7,49.41 -105.68,49.41 -47.55,0 -101.98,-14.79 -164.85,-41.75l7.13 -18.49c19.81,5.27 42.79,9.77 71.06,9.77 90.36,-0.53 182.8,-66.57 225.08,-147.15 5.02,-9.26 6.87,-17.95 6.87,-24.04 0,-9.26 -5.02,-19.55 -8.98,-28.79 -22.98,-43.31 -48.62,-82.95 -76.87,-119.68 14.79,-23.25 29.6,-45.7 45.7,-67.9l3.7 0.53 0 0 0 0 0 0 0 0 0 0 -0.02 0.01z"/>
  <g id="_2682039777968">
   <path class="fil3" d="M3431.15 673.71l2542.63 0c385.04,0 696.81,311.7 696.81,696.81l0 2542.63c0,385.04 -311.7,696.81 -696.81,696.81l-2542.63 0c-385.04,0 -696.81,-311.7 -696.81,-696.81l0 -2542.63c0,-385.04 311.7,-696.81 696.81,-696.81z"/>
   <path class="fil4" d="M3883.41 2617.35c-24.44,0 -24.44,0 -48.9,0l0 -751.79c24.45,0 30.56,0 55.01,0 122.22,0 244.48,-12.22 360.62,42.78 110,55.01 177.25,158.92 177.25,287.27l0 55.01c0,342.29 -293.38,366.73 -543.99,366.73l0 0 0 0 0 0.04 0 -0.03zm-391.15 1045.18c0,12.22 6.11,18.33 18.33,18.33l311.7 0c12.22,0 18.33,-12.22 18.33,-24.44l0 -733.47 146.71 6.12 165.03 -12.23c55.01,-6.11 103.88,-18.33 152.81,-36.66 299.49,-97.78 470.63,-305.62 470.63,-666.21 0,-189.48 -61.12,-372.86 -207.81,-488.99 -226.15,-189.47 -580.66,-158.91 -898.47,-158.91 -79.44,6.11 -171.14,-12.22 -171.14,91.66 0,342.29 0,1803.08 0,2004.76l0 0 0 -6.12 -6.13 6.14 0.01 0.02z"/>
   <path class="fil4" d="M4953.05 2531.77c0,213.92 73.34,311.7 238.37,421.73 152.82,97.77 397.27,158.92 378.93,336.18 -12.22,85.55 -103.88,128.34 -183.36,128.34 -134.45,0 -232.26,-18.34 -348.4,-73.35 -48.89,-24.44 -91.66,-61.12 -91.66,-30.55l0 299.49c0,30.55 134.45,67.23 165.03,73.34 207.81,55.01 507.31,42.79 672.32,-122.22 6.11,-6.11 6.11,-12.22 12.22,-18.33 30.56,-42.79 36.67,-36.67 61.12,-91.67 79.44,-158.91 61.12,-391.18 -67.23,-519.53l-48.9 -42.79c-91.66,-79.44 -207.81,-134.45 -311.7,-189.47 -67.23,-42.79 -158.92,-91.67 -158.92,-177.25 0,-55.01 30.56,-79.44 55.01,-103.89 103.89,-67.23 336.15,-18.33 433.96,24.45 91.66,42.78 67.23,85.55 67.23,-275.04 0,-55.01 -275.04,-73.34 -330.04,-73.34l-55.01 0c-140.59,0 -275.03,55.01 -354.51,122.22 -134.45,134.45 -140.59,317.84 -140.59,317.84l0 0 0 0 6.11 -6.11 0.02 -0.03z"/>
  </g>
 </g>
</svg>
