<svg width="106" height="106" viewBox="0 0 106 106" fill="none" xmlns="http://www.w3.org/2000/svg">
<path opacity="0.2" fill-rule="evenodd" clip-rule="evenodd" d="M58.1707 17.21C57.0853 19.3981 55.4105 21.2396 53.3348 22.527C51.2592 23.8144 48.8652 24.4965 46.4227 24.4965C43.9803 24.4965 41.5863 23.8144 39.5107 22.527C37.435 21.2396 35.7602 19.3981 34.6748 17.21H58.1707Z" fill="url(#paint0_linear_822_17223)"/>
<path opacity="0.2" fill-rule="evenodd" clip-rule="evenodd" d="M82.286 66.6361V76.6612C82.2767 79.8747 80.996 82.954 78.7237 85.2263C76.4513 87.4986 73.3721 88.7793 70.1586 88.7887H52.1475C53.5423 82.4758 57.0503 76.8282 62.091 72.7799C67.1318 68.7317 73.4033 66.5253 79.8685 66.5257C80.6757 66.5218 81.4825 66.5587 82.286 66.6361Z" fill="url(#paint1_linear_822_17223)"/>
<path d="M104.377 52.8218C104 52.3989 103.481 52.129 102.918 52.0634C102.355 51.9978 101.788 52.141 101.324 52.4658C99.8354 53.4873 98.1954 54.268 96.4641 54.7794C95.9164 54.9382 95.4472 55.295 95.1478 55.7805C94.8484 56.2659 94.7402 56.8453 94.8442 57.406C94.9023 57.7258 95.0276 58.0296 95.2118 58.2974C95.396 58.5652 95.6348 58.7908 95.9126 58.9595C96.1904 59.1282 96.5009 59.2361 96.8234 59.276C97.146 59.3159 97.4733 59.287 97.7839 59.1911C99.9832 58.5357 102.067 57.541 103.959 56.2428C104.227 56.0577 104.453 55.8179 104.621 55.5393C104.79 55.2606 104.897 54.9494 104.937 54.6262C104.976 54.303 104.947 53.9751 104.85 53.6641C104.754 53.353 104.593 53.066 104.377 52.8218Z" fill="#080F21"/>
<path d="M90.9233 61.4257C92.1247 61.4257 93.0986 60.4518 93.0986 59.2505C93.0986 58.0491 92.1247 57.0752 90.9233 57.0752C89.7219 57.0752 88.748 58.0491 88.748 59.2505C88.748 60.4518 89.7219 61.4257 90.9233 61.4257Z" fill="#080F21"/>
<path d="M11.9107 45.9758C13.7847 45.9758 15.3039 44.4566 15.3039 42.5826C15.3039 40.7086 13.7847 39.1895 11.9107 39.1895C10.0367 39.1895 8.51758 40.7086 8.51758 42.5826C8.51758 44.4566 10.0367 45.9758 11.9107 45.9758Z" fill="#080F21"/>
<path d="M81.1186 29.4623V72.928C81.2728 75.1952 81.1522 77.4728 80.7595 79.7111C80.1636 82.1258 78.7654 84.2666 76.794 85.7829C74.8225 87.2992 72.3946 88.1011 69.9078 88.0573H35.9505C34.6427 88.1043 33.3345 87.9755 32.061 87.6746C30.4574 87.2252 28.969 86.4365 27.6968 85.3618C26.4246 84.2872 25.3982 82.9517 24.6871 81.4457C23.4789 78.862 23.5614 76.2365 23.5614 73.4876V35.392C23.5614 33.3551 23.5389 31.3127 23.5614 29.2736C23.6268 23.3707 27.9956 18.0681 34.1076 17.9406C41.0976 17.7958 48.1058 17.9406 55.098 17.9406H67.1365C67.9684 17.9406 68.8014 17.932 69.6334 17.9406C72.3955 17.9386 75.0637 18.9437 77.138 20.7677C78.3667 21.8629 79.3549 23.201 80.0401 24.6976C80.7252 26.1941 81.0925 27.8166 81.1186 29.4623C81.1347 30.5344 83.4772 30.0777 83.459 29.2125C83.4134 25.8926 82.0905 22.7178 79.7652 20.3478C77.4399 17.9777 74.2909 16.5946 70.9724 16.4857C68.5784 16.4075 66.1716 16.4793 63.7776 16.4793H37.1898C33.237 16.4793 29.4901 16.891 26.2341 19.4469C24.5904 20.7699 23.2805 22.4607 22.4101 24.3828C21.5397 26.305 21.1332 28.4048 21.2232 30.513V54.4634C21.2232 61.7783 21.2061 69.0921 21.2232 76.4059C21.1696 78.9504 21.8727 81.4535 23.2435 83.5979C24.6143 85.7422 26.591 87.4313 28.9229 88.4508C31.8916 89.7126 34.9974 89.5229 38.1354 89.5229H65.3107C68.2343 89.5229 71.3144 89.7641 74.1276 88.8453C76.7973 88.0093 79.1355 86.3531 80.81 84.112C82.4845 81.871 83.4099 79.1591 83.4547 76.3619C83.4933 69.3365 83.4547 62.31 83.4547 55.2846V29.2125C83.459 28.1469 81.1186 28.5928 81.1186 29.4623Z" fill="#080F21"/>
<path d="M51.5311 52.9272L50.5234 50.5021L42.5266 50.575L41.669 53.0741C41.4572 53.7646 41.1612 54.4264 40.7877 55.0446C40.634 55.2253 40.4401 55.3674 40.2215 55.4596C40.0029 55.5517 39.7658 55.5914 39.5291 55.5752C39.0298 55.5781 38.5484 55.3897 38.1836 55.0488C38 54.8979 37.8504 54.7099 37.7447 54.497C37.639 54.2841 37.5796 54.0513 37.5704 53.8138C37.5685 53.534 37.6046 53.2552 37.6776 52.9851C37.7909 52.5865 37.9283 52.1951 38.0893 51.8133L42.7711 39.1701C42.9094 38.8088 43.0638 38.3693 43.2535 37.8611C43.4041 37.4157 43.6101 36.9911 43.8668 36.5971C44.0873 36.2525 44.3897 35.9679 44.7469 35.7684C45.1703 35.5461 45.6433 35.4354 46.1214 35.4468C46.6026 35.4318 47.0805 35.5321 47.5151 35.7395C47.8752 35.9354 48.1907 36.2041 48.4414 36.5285C48.6724 36.8554 48.8744 37.202 49.0449 37.5642C49.2143 37.9297 49.4191 38.4422 49.6785 39.0651L55.1591 51.5388C55.5003 52.1854 55.7222 52.8881 55.8141 53.6133C55.8159 53.8458 55.7692 54.0762 55.6769 54.2896C55.5846 54.503 55.4488 54.6948 55.2781 54.8527C55.1044 55.0392 54.8926 55.186 54.6571 55.2833C54.4216 55.3806 54.1679 55.4261 53.9133 55.4166C53.6375 55.4175 53.3638 55.3677 53.106 55.2697C52.8861 55.165 52.6907 55.0152 52.5324 54.8302C52.3325 54.5623 52.1601 54.2749 52.0178 53.9725C51.8259 53.5704 51.6651 53.2316 51.5311 52.9272ZM44.8402 47.5968L47.9546 47.5635C48.1114 47.5618 48.2654 47.522 48.4033 47.4474C48.5412 47.3728 48.6588 47.2657 48.746 47.1354C48.8333 47.0051 48.8874 46.8556 48.9038 46.6997C48.9202 46.5437 48.8984 46.3861 48.8402 46.2406L47.1473 42.009C47.0738 41.8257 46.9458 41.6693 46.7805 41.5611C46.6152 41.4528 46.4207 41.3979 46.2233 41.4038C46.0258 41.4096 45.8349 41.4759 45.6763 41.5938C45.5177 41.7116 45.3992 41.8752 45.3366 42.0626L43.9161 46.3285C43.8678 46.4741 43.855 46.6292 43.8787 46.7808C43.9023 46.9324 43.9618 47.0761 44.0522 47.2001C44.1425 47.3241 44.2612 47.4248 44.3982 47.4938C44.5353 47.5628 44.6868 47.5981 44.8402 47.5968Z" fill="#080F21"/>
<path d="M67.1632 54.9903L61.1595 55.0514C60.8247 55.0897 60.4856 55.06 60.1625 54.9642C59.8394 54.8684 59.539 54.7085 59.2791 54.4939C58.8497 53.9837 58.6345 53.3271 58.6787 52.6617L58.2778 38.0663C58.2348 37.7387 58.2581 37.4058 58.3463 37.0874C58.4346 36.7689 58.5859 36.4715 58.7913 36.2127C59.3032 35.7846 59.9627 35.5748 60.6278 35.6284L67.0035 35.5801C67.8188 35.5672 68.6338 35.617 69.4414 35.7292C70.1029 35.8259 70.7407 36.044 71.3229 36.3724C71.7994 36.6431 72.2285 36.9896 72.5934 37.3984C72.957 37.8028 73.2453 38.269 73.4446 38.775C73.886 39.8901 73.8688 41.1345 73.397 42.2371C72.9251 43.3397 72.0367 44.2112 70.9252 44.6618C73.5261 45.453 74.8791 47.0204 74.9305 49.3693C74.9754 50.4018 74.7075 51.4238 74.1618 52.3015C73.6386 53.1643 72.8584 53.8417 71.9308 54.2387C71.2737 54.5133 70.5811 54.6938 69.8735 54.7748C68.9774 54.9202 68.071 54.9923 67.1632 54.9903ZM62.3174 39.9811L62.3807 42.2485C62.3908 42.6099 62.5426 42.9527 62.8034 43.2031C63.0641 43.4534 63.4129 43.5911 63.7744 43.5865L66.0794 43.564C66.8521 43.5814 67.6231 43.482 68.3661 43.2691C68.8964 43.0834 69.3338 42.699 69.5862 42.1971C69.7977 41.815 69.9008 41.3823 69.8842 40.9459C69.9174 40.547 69.8281 40.1474 69.6283 39.8005C69.4285 39.4536 69.1277 39.1759 68.766 39.0044C67.7224 38.6339 66.6141 38.4803 65.509 38.553L63.6865 38.5605C63.5027 38.5614 63.3211 38.5991 63.1521 38.6713C62.9832 38.7436 62.8305 38.8489 62.7029 38.9811C62.5753 39.1133 62.4755 39.2697 62.4093 39.441C62.343 39.6124 62.3118 39.7953 62.3174 39.9789V39.9811ZM66.6293 46.3632L63.8944 46.3836C63.7115 46.3849 63.5306 46.4227 63.3624 46.4948C63.1942 46.5669 63.0421 46.6718 62.9149 46.8034C62.7877 46.935 62.6881 47.0905 62.6217 47.2611C62.5554 47.4316 62.5238 47.6136 62.5286 47.7966L62.6079 50.6987C62.6178 51.0602 62.7695 51.4034 63.0303 51.654C63.2911 51.9045 63.64 52.0424 64.0017 52.0378L66.9263 52.0056C69.6269 51.9852 70.9359 51.0053 70.8791 49.1013C70.8976 48.6797 70.8046 48.2606 70.6094 47.8864C70.4142 47.5122 70.1237 47.1961 69.7673 46.97C68.7901 46.5037 67.7101 46.2942 66.6293 46.361V46.3632Z" fill="#080F21"/>
<path d="M33.698 17.2402V88.7603C30.6337 88.545 27.7643 87.178 25.6665 84.9338C23.5688 82.6897 22.3981 79.7348 22.3896 76.6629V29.3366C22.3983 26.2649 23.5692 23.3102 25.6669 21.0663C27.7646 18.8224 30.6338 17.4555 33.698 17.2402Z" fill="#080F21"/>
<path d="M101.388 46.1628C101.001 43.727 94.0741 42.5241 83.4176 42.5852V45.9302C86.3412 46.3654 88.0694 47.0923 88.242 48.1129C88.7652 51.4278 72.6281 56.5824 52.1941 59.6132C31.7601 62.644 14.7535 62.4328 14.2196 59.1286C13.9988 57.7542 16.6608 56.056 21.3136 54.3278V51.2563C8.65872 54.6516 0.624487 58.3299 1.06404 61.0788C1.78663 65.5762 24.8194 65.8689 52.5361 61.7563C80.2313 57.6331 102.101 50.6495 101.388 46.1628Z" fill="#3063BA"/>
<defs>
<linearGradient id="paint0_linear_822_17223" x1="34.6748" y1="20.8529" x2="58.1707" y2="20.8529" gradientUnits="userSpaceOnUse">
<stop offset="0.005" stop-color="#3063BA"/>
<stop offset="1" stop-color="#A3BFF6"/>
</linearGradient>
<linearGradient id="paint1_linear_822_17223" x1="52.1496" y1="77.6572" x2="82.286" y2="77.6572" gradientUnits="userSpaceOnUse">
<stop offset="0.005" stop-color="#3063BA"/>
<stop offset="1" stop-color="#A3BFF6"/>
</linearGradient>
</defs>
</svg>
