<svg width="106" height="106" viewBox="0 0 106 106" fill="none" xmlns="http://www.w3.org/2000/svg">
<path d="M80.1946 60.201C78.7046 59.8748 77.359 59.078 76.3567 57.9283C76.1028 57.6005 75.9095 57.2301 75.7857 56.8345C74.7106 53.5686 78.4107 49.2001 84.7807 45.4715C85.2999 45.1692 85.7473 44.7579 86.0922 44.266C86.4371 43.7741 86.6712 43.2133 86.7785 42.6222C86.8858 42.0311 86.8637 41.4237 86.7136 40.842C86.5636 40.2602 86.2892 39.718 85.9095 39.2525C85.8963 39.2394 85.8832 39.2251 85.8832 39.212C76.2757 27.6183 55.0067 29.3868 38.3773 43.1582C34.4205 46.415 30.9473 50.2182 28.0621 54.4534C20.2112 66.0745 18.564 79.1645 24.7426 87.9145C25.028 88.3235 25.3277 88.7042 25.6405 89.099C33.4062 98.4878 48.8281 99.1145 63.2524 91.712C66.7774 89.8882 70.0944 87.6879 73.1454 85.1495C77.7515 81.3706 81.6893 76.8438 84.7938 71.7587C85.4131 70.7266 85.7859 69.5655 85.8831 68.3658C85.9803 67.166 85.7993 65.9601 85.3543 64.8418C84.9093 63.7234 84.2121 62.7229 83.3172 61.918C82.4223 61.113 81.3537 60.5255 80.1946 60.201ZM72.4793 74.2875C68.5331 77.0218 63.8923 77.1586 62.1237 74.6003C60.3551 72.042 62.1095 67.7556 66.0699 65.0201C70.0304 62.2846 74.6559 62.1491 76.4256 64.7073C78.1952 67.2656 76.4256 71.5531 72.4793 74.2875Z" fill="white"/>
<path d="M80.9249 59.5716C79.1683 59.0445 77.2247 58.0404 76.8539 56.0596C76.7092 54.7751 77.0493 53.4828 77.8077 52.436C78.8334 50.9165 80.1054 49.5787 81.5713 48.4777C83.1375 47.2287 85.1347 46.3898 86.5697 45.0084C91.7246 40.0449 82.6322 34.3902 78.6947 32.8152C65.4297 27.5226 49.7453 33.477 39.0594 41.6856C32.1403 46.8934 26.6168 53.7319 22.9813 61.5918C19.9089 68.465 18.4892 76.6702 21.2422 83.8901C22.4876 87.0135 24.4674 89.7908 27.0139 91.9868C29.5604 94.1828 32.5985 95.7327 35.8711 96.5054C43.1796 98.4107 51.0644 97.2174 58.06 94.6657C66.2648 91.5943 73.6283 86.6288 79.5511 80.1735C83.7533 75.6377 90.4307 68.2516 85.0844 62.1266C84.0295 60.9471 82.6656 60.0863 81.1469 59.6417C80.8665 59.5577 80.5713 59.5349 80.2813 59.5747C79.9913 59.6145 79.7132 59.716 79.4658 59.8724C79.2274 60.0332 78.6728 60.5921 79.2471 60.7682C80.6988 61.1866 81.9924 62.029 82.9621 63.1875C83.9318 64.3461 84.5333 65.7679 84.6896 67.2705C85.0439 70.7705 82.5272 73.7904 80.5191 76.399C75.3192 83.1674 68.5695 88.5877 60.8382 92.2037C54.1586 95.2815 46.5243 97.0162 39.1928 95.6588C35.9679 95.1464 32.9145 93.8622 30.2927 91.9155C27.671 89.9688 25.5585 87.4175 24.1352 84.4785C21.1821 78.0331 21.8777 70.5781 24.2303 64.0648C27.2108 56.2592 32.1442 49.3487 38.5585 43.9944C48.4022 35.5409 63.3713 28.9127 76.3366 33.769C80.1582 35.1996 90.1342 41.4252 83.3924 45.541C80.0017 47.6082 71.0057 53.9126 75.5699 58.7601C76.6627 59.7822 78.0052 60.4989 79.4625 60.8382C80.1921 61.0537 82.2374 59.9665 80.9249 59.5716Z" fill="#080F21"/>
<path d="M71.7472 73.953C69.6691 75.3639 66.4775 76.6786 64.1336 75.0577C62.0555 73.6216 62.4514 70.803 63.5451 68.8824C64.2858 67.5882 65.2829 66.4589 66.4752 65.5636C67.6676 64.6682 69.0302 64.0255 70.4795 63.6751C72.7458 63.1927 75.3894 63.9857 75.852 66.5309C76.3869 69.4698 73.9751 72.3802 71.7472 73.953C71.4191 74.1805 71.0504 74.5644 71.5284 74.8488C71.8077 74.9408 72.1043 74.9678 72.3957 74.9278C72.687 74.8878 72.9653 74.7819 73.2095 74.618C75.8006 72.7904 78.442 69.9007 78.2944 66.5013C78.1467 63.1019 74.6095 62.0082 71.7319 62.2707C69.7773 62.4907 67.8902 63.1162 66.1912 64.1072C64.4922 65.0983 63.0188 66.433 61.8651 68.026C60.2923 70.2474 59.2631 73.8075 61.7284 75.8266C64.9561 78.4702 70.1908 76.6699 73.2128 74.618C73.5409 74.3938 73.9051 74.0033 73.4315 73.7222C73.1517 73.6301 72.8546 73.6031 72.5627 73.6431C72.2708 73.6831 71.9919 73.789 71.7472 73.953Z" fill="#080F21"/>
<path d="M70.3 74.9548C69.0279 75.6065 67.5837 75.8436 66.17 75.633C65.68 73.1567 65.3082 71.2777 64.7777 68.4066C64.6552 67.7405 64.5327 67.0733 64.396 66.393C62.9271 58.5278 59.5835 37.6613 57.9068 27.415C57.5119 25.0197 57.9199 22.9098 58.8047 22.4209C58.8882 22.3711 58.9808 22.3385 59.0771 22.3247L60.4104 22.106C61.4855 21.943 62.7072 23.9435 63.1316 26.5696C64.629 35.9594 67.6346 56.1587 68.6693 63.6159C68.7644 64.2416 68.8464 64.8814 68.9274 65.4939C69.4316 69.1285 69.9194 71.8934 70.3 74.9548Z" fill="#3063BA"/>
<path opacity="0.2" d="M84.7815 45.4648C78.4126 49.1934 74.7114 53.5585 75.7865 56.8266C75.9163 57.2198 76.1091 57.5892 76.3575 57.9204C69.7962 61.8742 62.2731 63.9456 54.6126 63.9076C44.9229 63.9841 35.5167 60.6401 28.0498 54.4642C30.9351 50.2289 34.4083 46.4257 38.365 43.169C55.0075 29.3976 76.2765 27.629 85.8698 39.2228C85.884 39.2359 85.8972 39.2501 85.8972 39.2632C86.28 39.7253 86.5573 40.2653 86.7098 40.8456C86.8623 41.426 86.8863 42.0326 86.78 42.6232C86.6738 43.2137 86.4399 43.774 86.0947 44.2648C85.7496 44.7556 85.3014 45.1651 84.7815 45.4648Z" fill="url(#paint0_linear_820_15446)"/>
<path opacity="0.2" d="M63.253 91.7041C48.8429 99.1066 33.4111 98.4854 25.6411 89.0912C25.3283 88.7106 25.029 88.3161 24.7432 87.9078C27.1034 84.8388 30.2063 82.4213 33.7594 80.8835C37.3126 79.3456 41.1988 78.738 45.0518 79.1178C48.9047 79.4976 52.5975 80.8525 55.7819 83.0545C58.9663 85.2566 61.5375 88.2333 63.253 91.7041Z" fill="url(#paint1_linear_820_15446)"/>
<path d="M71.1503 95.4562C70.7128 95.524 69.9527 93.401 68.9453 89.3869C69.7208 88.8696 70.4831 88.3259 71.2422 87.7539C71.6403 92.6637 71.6272 95.3741 71.1503 95.4562Z" fill="#3063BA"/>
<path d="M63.7314 12.7002L63.1058 24.1364C63.1101 24.4561 63.0034 24.7674 62.804 25.0173C62.6046 25.2672 62.3247 25.4402 62.0121 25.507L58.2332 26.0614C57.9143 26.0867 57.5964 26.0007 57.3338 25.8181C57.0712 25.6354 56.88 25.3674 56.7927 25.0596L52.876 14.2883C53.1943 14.8101 55.6016 14.915 58.4541 14.4972C59.2904 14.3759 60.1199 14.2113 60.9391 14.004L61.6358 13.8104C62.8488 13.4483 63.6439 13.0382 63.7314 12.7002Z" fill="#3063BA"/>
<path d="M52.2852 12.5195L52.3267 12.6147C52.3125 12.5873 52.2994 12.5469 52.2852 12.5195Z" fill="#3063BA"/>
<path d="M60.9345 14.0042C60.1096 14.2142 59.2733 14.3768 58.4298 14.4909C55.4187 14.9284 52.9053 14.7982 52.8178 14.1955C52.7303 13.5929 55.1004 12.7485 58.1115 12.3099C61.1226 11.8713 63.6372 12.0026 63.7247 12.6042C63.7793 12.9804 63.0465 13.4048 61.6312 13.8073" fill="#3063BA"/>
<path d="M37.8748 54.0089C38.3212 53.7605 38.8222 53.6264 39.333 53.6185C39.8438 53.6106 40.3487 53.7291 40.8026 53.9635C41.2565 54.1979 41.6455 54.5408 41.9348 54.9619C42.2241 55.3829 42.4048 55.869 42.4609 56.3768C42.5014 56.7717 42.5418 57.2343 42.5703 57.7505C42.5397 58.2736 42.4004 58.7845 42.1615 59.2508C41.9225 59.717 41.589 60.1284 41.1823 60.4587C40.526 61.0438 38.706 61.7712 38.0793 62.527C36.3928 64.5548 39.2496 65.9176 37.6582 67.59C35.4259 69.9306 34.0379 67.766 32.3098 69.6035C30.3509 71.6718 29.874 72.584 29.0285 71.9004C27.4229 70.5256 27.4634 61.5579 31.8045 58.1192C33.6617 56.5466 35.6825 55.1782 37.8321 54.0373C37.8473 54.0294 37.8616 54.0198 37.8748 54.0089Z" fill="#080F21"/>
<path d="M38.0113 88.8055C35.8752 88.5059 34.5419 85.7025 37.168 83.5118C37.6966 83.0814 38.2559 82.6903 38.8415 82.3414C40.0843 81.6492 41.5433 81.4538 42.9244 81.7946C43.8902 82.0527 45.0201 83.2635 45.9454 83.5501C47.1327 83.7884 48.363 83.6891 49.4968 83.2635C50.0595 83.0532 50.6623 82.9721 51.2606 83.0262C51.8588 83.0804 52.4373 83.2684 52.953 83.5763C54.2185 84.6383 53.7285 85.2509 53.2812 85.8087C52.7912 86.3665 52.3559 86.8696 52.9268 87.6046C54.1518 89.2922 54.5466 89.8369 53.2396 90.0546C51.4163 90.1217 49.601 90.3309 47.8102 90.6802C46.069 90.993 45.2115 91.5552 43.5916 90.6255C41.8253 89.8216 39.9775 89.2103 38.0802 88.8023L38.0113 88.8055Z" fill="#3063BA"/>
<path d="M72.14 74.5157C70.9925 75.2688 69.7276 75.8255 68.3972 76.163C67.0497 73.8901 65.6526 71.5086 64.206 69.0185C63.9205 68.5285 63.635 68.0255 63.3485 67.5212C61.9605 65.115 60.5452 62.6223 59.1036 60.0837C56.273 55.0754 53.6195 50.2586 51.2286 45.795C49.9489 43.427 48.7523 41.1553 47.6192 39.0137C47.3338 38.4668 47.0472 37.92 46.7759 37.395C46.3942 36.66 46.0103 35.925 45.6592 35.2315C40.9561 26.044 38.2567 19.977 38.8692 19.6368C39.4817 19.2967 43.1009 24.4942 48.3269 32.9314C48.8847 33.8294 49.4567 34.7689 50.055 35.7347C50.3678 36.252 50.6806 36.7693 51.0077 37.3129C51.3205 37.8303 51.6475 38.3607 51.9603 38.9054C55.3072 44.4836 59.0774 50.9487 62.982 57.8886C64.2617 60.1614 65.5141 62.4057 66.7106 64.5834C67.0103 65.1139 67.2958 65.6454 67.5856 66.1759C69.2142 69.0732 70.7247 71.8623 72.14 74.5157Z" fill="white"/>
<path d="M71.6281 74.2043C70.5892 74.8628 69.4563 75.3596 68.2681 75.6776L69.1278 75.8296C64.1972 67.5076 59.4058 59.104 54.7537 50.6187C50.3055 42.4965 45.8681 34.3306 41.9744 25.9251C41.375 24.6312 40.7855 23.3296 40.267 22.0018C40.0953 21.5643 39.9269 21.1268 39.7902 20.6718C39.7548 20.3713 39.6851 20.0759 39.5823 19.7914C39.5703 19.7749 39.5998 19.7279 39.5823 19.7148L39.5714 19.7345C39.3942 20.0786 39.0296 20.2026 38.4777 20.1064C38.4908 20.1578 38.6384 20.1807 38.6614 20.2376C38.7773 20.5209 39.2487 20.8556 39.45 21.0973C40.2845 22.1036 41.0348 23.1842 41.7764 24.2604C46.7169 31.4332 51.128 38.9867 55.5216 46.5018C60.9859 55.8505 66.2793 65.2997 71.4017 74.8496C71.6959 75.3965 73.2239 74.8628 72.8608 74.1824C67.9549 64.9949 62.8694 55.9022 57.6041 46.9043C52.9338 38.886 48.2569 30.7999 42.9478 23.1809C42.2314 22.1021 41.4513 21.067 40.6116 20.0812C40.2855 19.5938 39.7914 19.2433 39.2236 19.0968C37.1334 18.8868 38.3191 21.5261 38.6767 22.4284C41.8716 30.614 46.333 38.4026 50.4892 46.1256C56.001 56.3689 61.7249 66.4934 67.6611 76.499C67.8098 76.7495 68.2955 76.7101 68.5208 76.6499C69.9793 76.254 71.3697 75.6404 72.6453 74.8299C73.5619 74.2634 72.2253 73.8336 71.6281 74.2043Z" fill="#080F21"/>
<path d="M51.9718 46.1526C50.6932 43.7846 48.7605 41.1509 47.6307 39.0137C47.3452 38.4669 47.0598 37.9199 46.7874 37.3949C46.4068 36.6599 41.066 25.8942 40.7117 25.2007C40.6843 24.5445 40.8112 24.8136 41.0824 24.5139C41.1503 24.4437 41.2285 24.3843 41.3143 24.3378L42.512 23.711C42.1838 23.6017 42.757 23.5885 42.512 23.711C43.0698 24.609 49.4682 34.7688 50.0665 35.7346C50.3804 36.252 50.6932 36.7693 51.0191 37.3129C51.332 37.8302 51.659 38.3608 51.9718 38.9055C50.0391 38.7414 50.7501 42.7379 51.9718 46.1526Z" fill="#080F21"/>
<path d="M82.8273 97.2015C82.2552 97.5296 78.9488 92.8473 74.1309 85.1309C75.0059 84.3828 75.8459 83.6073 76.6618 82.834C80.9898 91.3226 83.4255 96.8613 82.8273 97.2015Z" fill="white"/>
<path d="M82.3579 97.0506C82.1041 97.1665 83.2887 96.8383 83.2996 96.858C83.3313 96.9116 83.2908 96.8646 83.2624 96.8318C83.1969 96.7711 83.127 96.7151 83.0535 96.6644C82.8364 96.4668 82.6338 96.2537 82.4476 96.0268C81.7913 95.2611 81.2018 94.4463 80.621 93.6271C78.6151 90.7976 76.7612 87.8587 74.9237 84.9176L74.7476 85.191C75.6466 84.4144 76.5264 83.6168 77.3868 82.7979L75.8698 83.0429C77.5508 86.3438 79.2199 89.6601 80.7008 93.0573C81.1219 94.022 81.5387 94.9965 81.8635 95.9995C81.966 96.2885 82.0443 96.5856 82.0976 96.8876C82.0972 96.9845 82.106 97.0811 82.1238 97.1763C82.1533 97.2441 82.0232 97.2682 82.2102 97.1402C81.9302 97.3327 82.0483 97.5001 82.3196 97.5613C82.7168 97.5988 83.1142 97.4924 83.4396 97.2616C83.8771 96.962 83.678 96.3757 83.561 95.9557C83.2624 94.9746 82.8999 94.0141 82.476 93.0802C80.9557 89.5245 79.2057 86.0627 77.4513 82.6185C77.2227 82.1701 76.1738 82.636 75.9343 82.8635C75.1413 83.6149 74.3374 84.3554 73.5105 85.0696C73.4733 85.1024 73.2787 85.2511 73.3355 85.343C75.3447 88.5586 77.3671 91.783 79.6027 94.8499C80.1444 95.6479 80.7521 96.3991 81.4194 97.0954C81.6533 97.3488 81.9682 97.5128 82.3099 97.5593C82.6516 97.6058 82.9988 97.5319 83.2919 97.3502C83.5238 97.2409 83.7426 97.0319 83.4669 96.8668C83.1913 96.7016 82.6127 96.9335 82.3579 97.0506Z" fill="#080F21"/>
<path d="M42.3926 23.9904L40.787 24.8884C40.6141 24.9865 40.4234 25.0491 40.226 25.0728C40.0287 25.0964 39.8286 25.0805 39.6374 25.026C39.4463 24.9716 39.2678 24.8796 39.1126 24.7555C38.9573 24.6314 38.8282 24.4777 38.7329 24.3032C31.8062 11.8793 35.9154 9.56606 42.9647 21.9222C43.162 22.2725 43.2126 22.6867 43.1054 23.0743C42.9982 23.4619 42.7419 23.7912 42.3926 23.9904Z" fill="#080F21"/>
<path d="M38.8549 11.7429C40.2175 12.4506 41.3483 13.5348 42.1128 14.8664C42.8773 16.198 43.2434 17.7212 43.1675 19.2548C43.2388 20.0738 43.0728 20.8959 42.6894 21.623C42.3059 22.3501 41.7212 22.9515 41.0051 23.3552C40.2891 23.7589 39.4719 23.9479 38.6513 23.8996C37.8307 23.8513 37.0413 23.5678 36.3775 23.0829C35.0237 22.3556 33.9076 21.2544 33.1622 19.9105C32.4167 18.5666 32.0734 17.0368 32.1731 15.5033L32.5942 8.42773L38.8549 11.7429Z" fill="#080F21"/>
<path d="M21.0874 55.6059C21.4712 55.7235 21.8847 55.6971 22.2505 55.5319C22.6163 55.3666 22.9094 55.0737 23.0748 54.7079C23.6117 53.5492 24.3228 52.4795 25.1835 51.536C25.4565 51.2409 25.6103 50.855 25.6154 50.453C25.6204 50.051 25.4763 49.6614 25.2109 49.3595C25.0588 49.1869 24.872 49.0485 24.6626 48.9532C24.4533 48.8579 24.2262 48.808 23.9962 48.8067C23.7662 48.8053 23.5385 48.8526 23.3281 48.9454C23.1176 49.0382 22.9292 49.1745 22.7751 49.3453C21.6837 50.5426 20.7839 51.9014 20.1074 53.3735C20.0115 53.5829 19.9609 53.8101 19.959 54.0404C19.9572 54.2706 20.0041 54.4987 20.0966 54.7095C20.1892 54.9204 20.3253 55.1093 20.4961 55.2638C20.6669 55.4182 20.8684 55.5349 21.0874 55.6059Z" fill="#080F21"/>
<path d="M19.4265 60.8042C20.2758 60.8042 20.9643 60.1156 20.9643 59.2663C20.9643 58.417 20.2758 57.7285 19.4265 57.7285C18.5772 57.7285 17.8887 58.417 17.8887 59.2663C17.8887 60.1156 18.5772 60.8042 19.4265 60.8042Z" fill="#080F21"/>
<defs>
<linearGradient id="paint0_linear_820_15446" x1="28.0498" y1="47.731" x2="86.8509" y2="47.731" gradientUnits="userSpaceOnUse">
<stop offset="0.005" stop-color="#3063BA"/>
<stop offset="1" stop-color="#A3BFF6"/>
</linearGradient>
<linearGradient id="paint1_linear_820_15446" x1="24.7432" y1="87.8804" x2="63.253" y2="87.8804" gradientUnits="userSpaceOnUse">
<stop offset="0.005" stop-color="#3063BA"/>
<stop offset="1" stop-color="#A3BFF6"/>
</linearGradient>
</defs>
</svg>
