<?xml version="1.0" encoding="UTF-8"?>
<!DOCTYPE svg PUBLIC "-//W3C//DTD SVG 1.1//EN" "http://www.w3.org/Graphics/SVG/1.1/DTD/svg11.dtd">
<!-- Creator: CorelDRAW 2020 (64-Bit) -->
<svg xmlns="http://www.w3.org/2000/svg" xml:space="preserve" width="94.1916mm" height="52.9166mm" version="1.1" style="shape-rendering:geometricPrecision; text-rendering:geometricPrecision; image-rendering:optimizeQuality; fill-rule:evenodd; clip-rule:evenodd"
viewBox="0 0 9404.92 5283.66"
 xmlns:xlink="http://www.w3.org/1999/xlink"
 xmlns:xodm="http://www.corel.com/coreldraw/odm/2003">
 <defs>
  <style type="text/css">
   <![CDATA[
    .str0 {stroke:#373435;stroke-width:17.6;stroke-miterlimit:22.9256}
    .fil8 {fill:#DB0303}
    .fil0 {fill:#E6E7E8}
    .fil3 {fill:#FEFEFE}
    .fil4 {fill:#144D91;fill-rule:nonzero}
    .fil5 {fill:#74DEC3;fill-rule:nonzero}
    .fil6 {fill:#999999;fill-rule:nonzero}
    .fil7 {fill:#DB0303;fill-rule:nonzero}
    .fil2 {fill:#373435;fill-opacity:0.031373}
    .fil1 {fill:#2B2A29;fill-opacity:0.101961}
   ]]>
  </style>
 </defs>
 <g id="Layer_x0020_1">
  <metadata id="CorelCorpID_0Corel-Layer"/>
  <polygon class="fil0" points="-0,0 9404.92,0 9404.92,5283.66 -0,5283.66 "/>
  <polygon class="fil1" points="2084.65,5283.66 2084.64,5283.66 2084.63,5283.66 2079.65,5283.66 2031.77,5283.66 1975.69,5283.66 1946.82,5283.66 1946.68,5283.66 1907.56,5283.66 1857.72,5283.66 1809.91,5283.66 1788.5,5283.66 1672.29,5283.66 1589.43,5283.66 1474.99,5283.66 1471.29,5283.66 1442.54,5283.66 1433.68,5283.66 1393.47,5283.66 1382.18,5283.66 1311.24,5283.66 1280.39,5283.66 1240.03,5283.66 1156.17,5283.66 1143.21,5283.66 1113.99,5283.66 1113.94,5283.66 1035.49,5283.66 1010,5283.66 879.73,5283.66 813.94,5283.66 671.8,5283.66 630.61,5283.66 534.9,5283.66 484.46,5283.66 478.92,5283.66 381.23,5283.66 372.1,5283.66 344.38,5283.66 341.92,5283.66 314.13,5283.66 176.35,5283.66 156.59,5283.66 89.59,5283.66 77.8,5283.66 67.73,5283.66 31.24,5283.66 30.6,5283.66 -0,5283.66 -0,5269.01 -0,5268.99 -0,5268.98 -0,5267.68 -0,5249.56 -0,5241.88 -0,5192.63 -0,5179.2 -0,5178.3 -0,5164.13 -0,5160.74 -0,5121.72 -0,5121.27 -0,5119.28 -0,5099.19 -0,5000.43 -0,5000.02 -0,4985.19 -0,4787.56 -0,4759.64 -0,4753.7 -0,4751.37 -0,4743.83 -0,4738.15 -0,4738.14 -0,4737.95 -0,4730.08 -0,4706.32 -0,4698.18 -0,4697.42 -0,4684.94 -0,4679.11 -0,4670.97 -0,4598.81 -0,4540.77 -0,4540.76 -0,4513.29 -0,4502.1 -0,4489.3 -0,4475.73 -0,4445.59 -0,4357.53 -0,4351.44 -0,4334.91 -0,4321.5 -0,4316.84 -0,4269.32 -0,4221.98 -0,4166.63 -0,4154.26 -0,4107.62 -0,4087.75 -0,4078.74 -0,4073.6 -0,3835.55 -0,3746.47 -0,3433.89 -0,3433.88 -0,3433.86 -0,3384.28 -0,3308.54 -0,3232.32 -0,3230.98 -0,3183.48 -0,3080.08 -0,3012.63 2931.14,1118.67 2913.63,1131.13 2896.75,1144.41 2880.54,1158.46 2865.01,1173.25 2850.21,1188.78 2836.17,1204.99 2822.9,1221.87 2810.43,1239.38 2798.8,1257.51 2788.03,1276.22 2780.65,1290.6 3000.76,1148.95 2982.43,1160.9 2964.73,1173.71 2947.68,1187.36 2931.29,1201.8 2915.62,1217.02 2900.66,1232.98 2886.47,1249.65 2873.06,1267.01 2860.48,1285.03 2848.73,1303.68 2837.85,1322.92 2827.88,1342.73 2818.84,1363.09 2810.75,1383.95 2809.95,1386.4 3020.74,1251.59 3044.35,1237.23 3069.37,1225.16 3095.66,1215.51 3123.08,1208.45 3151.48,1204.1 3180.7,1202.62 5329.1,1191.33 5604.75,1027.55 5604.75,1187.89 5711.39,1187.89 5984.57,1027.52 5984.57,1027.54 5711.42,1187.89 5982.67,1187.89 5984.57,1187.88 5984.55,1187.89 6173.28,1187.89 6202.51,1189.37 6230.91,1193.72 6258.33,1200.78 6284.62,1210.43 6309.64,1222.5 6333.25,1236.86 6355.3,1253.36 6375.64,1271.85 6394.13,1292.19 6410.63,1314.24 6424.99,1337.85 6437.06,1362.88 6446.71,1389.17 6453.77,1416.59 6458.12,1444.98 6459.6,1474.21 6459.6,2502.87 6460.97,2502.14 6460.97,2940.47 6619.94,2940.47 6619.95,2940.47 6619.96,2940.47 6460.97,3022.61 6460.97,3070.67 6459.49,3099.9 6455.14,3128.29 6448.07,3155.71 6438.43,3182 6426.35,3207.02 6411.99,3230.64 6395.5,3252.69 6377.01,3273.02 6356.66,3291.52 6334.61,3308.02 6311,3322.38 6098.66,3430.62 6147.23,3430.62 6170.46,3430.02 6193.38,3428.24 6215.98,3425.32 6238.21,3421.28 6260.05,3416.15 6281.47,3409.96 6302.45,3402.73 6322.96,3394.5 6342.95,3385.29 6082.47,3517.43 6174.65,3517.32 6197.6,3516.75 6220.25,3515.02 6242.58,3512.17 6264.56,3508.23 6286.14,3503.24 6307.33,3497.21 6328.07,3490.18 6348.35,3482.17 6368.13,3473.21 4815.16,4256.16 5388.92,4256.16 6657.47,3628.35 6657.47,3628.35 6657.48,3628.35 5388.93,4256.16 7051.54,4256.16 7070.59,4254.43 7088.16,4249.49 4885.8,5283.66 4864.87,5283.66 3312.75,5283.66 3312.74,5283.66 2777.11,5283.66 2682.68,5283.66 2600.74,5283.66 2506.47,5283.66 2463.42,5283.66 2314.43,5283.66 2260.22,5283.66 2214.01,5283.66 2196.65,5283.66 2182.38,5283.66 2182.34,5283.66 2182.33,5283.66 2165.31,5283.66 2153.25,5283.66 "/>
  <path class="fil2" d="M578.49 4627.69c17.95,27.21 29.6,53.36 40.96,82.43 8.45,16.91 12.93,48.09 52.57,48.09 11.61,0 28.28,-3.42 43.06,-11.61 16.63,-8.73 29.32,-21.94 35.94,-42l15.85 -53.36 38.57 -19.02 2.64 2.64c-5.27,20.09 -6.59,39.36 -6.59,54.43 0,44.63 38.57,61.56 69.22,61.56 17.95,0 34.09,-8.73 34.09,-25.11 0,-21.13 -8.98,-57.06 -20.62,-89.29 17.95,-17.95 35.94,-35.94 56.53,-50.47l3.17 1.6c8.98,38.04 14,75.56 14,100.66 0,24.57 -10.83,51.79 -19.81,69.49 -18.49,34.87 -51.25,62.62 -90.87,62.62 -30.1,0 -63.65,-15.07 -86.66,-43.06l-1.32 0c-21.66,26.96 -55.22,51.25 -108.86,51.25l-16.63 0c-2.64,35.41 -10.29,60.49 -21.94,82.95 -31.95,62.34 -126.81,106.47 -216.1,106.47 -124.17,0 -186.51,-71.59 -186.51,-166.96 0,-58.91 19.27,-113.6 48.88,-152.42l24.29 10.04c-18.49,35.41 -30.91,68.68 -30.91,101.45 0,89.29 72.66,131.83 156.4,131.83 77.68,0 173.83,-49.41 191.28,-106.72 -6.59,-62.62 -30.1,-91.93 -66.04,-148.99 10.83,-19.02 24.83,-38.04 42.28,-58.38l3.17 0 0 0 0 0 -0.02 -0.09zm1432.13 -336.04c26.15,16.39 51.79,35.66 76.87,57.85 -14,19.81 -31.45,37.79 -53.11,53.64 -25.11,-20.34 -50.19,-37.79 -75.84,-56.27 17.42,-19.55 34.62,-38.29 52.04,-55.22l0 0 0 0 0 0 0 0 0 0 0.03 0zm13.47 244.11c-42.28,0 -76.87,27.75 -76.87,48.34 0,44.13 84.53,57.85 185.72,57.31 -12.68,-51.79 -57.06,-105.68 -108.86,-105.68l0.01 0.03zm-94.86 236.19c54.96,0 103.04,-1.6 139.74,-10.83 40.96,-10.29 75.56,-30.91 75.56,-45.17 0,-3.7 0,-8.19 -1.32,-11.89 -22.98,2.11 -49.41,2.11 -72.38,2.11 -74.49,0 -131.55,-16.91 -154.02,-58.66 -5.55,-11.61 -9.51,-24.57 -9.51,-39.36 0,-40.43 17.42,-79.79 48.09,-107 25.61,-22.45 53.89,-36.44 82.67,-36.44 52.04,0 93.51,41.75 122.57,107.54 15.85,35.94 26.68,77.4 26.68,129.72 0,34.87 -9.51,64.19 -31.17,85.85 -40.43,39.11 -114.92,53.89 -229.04,53.89l-51.79 0 0 0 -13.47 0c-28.28,0 -48.62,-5.02 -64.72,-17.42l-2.64 0c0.79,6.59 1.32,12.93 1.32,19.02 0,25.61 -8.45,58.38 -25.61,84.53 -50.72,75.3 -105.68,108.04 -153.24,108.04 -48.09,0 -107,-18.49 -160.11,-42.54l9.51 -18.49c17.17,7.13 40.96,11.89 73.7,11.89 85.85,0 198.66,-82.43 212.66,-163 -3.17,-6.59 -8.98,-15.32 -17.17,-24.57 -25.11,-29.85 -40.96,-54.68 -55.75,-80.83 12.68,-25.11 24.29,-45.17 35.13,-63.4l4.49 -0.53c36.72,74.77 69.99,117.55 144.23,117.55l11.61 0 0 0 53.89 0 0 0 0 0 0 0 0 0 0 0 0.09 0.01zm-371.98 79c6.34,-34.34 6.87,-72.91 6.87,-108.86l0 -53.36c0,-99.6 -12.68,-244.36 -22.98,-338.68 17.95,-19.27 43.06,-42 62.87,-57.31l5.81 1.6c13.47,118.62 16.63,256 16.63,383.06 0,33.3 -1.32,65.79 -4.49,89.55 -1.85,30.1 -19.27,52.83 -56.53,87.7l-8.19 -3.7zm-382.8 -157.19c1.85,46.77 24.83,83.49 105.15,83.49 49.93,0 92.19,-12.93 138.96,-35.13 8.45,-3.7 12.93,-8.73 12.93,-12.93 0,-29.32 -22.45,-68.15 -60.23,-103.55 -36.72,-33.3 -85.34,-62.62 -130.76,-82.18 -15.6,-6.59 -20.62,-13.47 -20.62,-20.09 0,-13.47 17.95,-41.75 32.77,-62.09l5.02 -0.53c52.04,27.21 110.17,67.64 153.24,112.53 39.11,41.47 63.4,83.49 63.4,129.19 0,33.81 -10.29,65.51 -26.96,95.11 -57.06,28.79 -117.83,50.72 -178.06,50.72 -73.17,0 -123.1,-34.34 -123.1,-114.92 0,-8.73 0,-22.19 3.17,-39.64l25.11 0 0 0 0 0 0 0 0 0 0 0 -0.02 0zm-132.37 -132.9l45.45 73.45c16.63,27.21 32.23,56.81 32.23,103.55l0 59.7c0,48.34 -30.91,100.13 -80.83,151.38 -39.11,34.62 -73.7,49.41 -105.68,49.41 -47.55,0 -101.98,-14.79 -164.85,-41.75l7.13 -18.49c19.81,5.27 42.79,9.77 71.06,9.77 90.36,-0.53 182.8,-66.57 225.08,-147.15 5.02,-9.26 6.87,-17.95 6.87,-24.04 0,-9.26 -5.02,-19.55 -8.98,-28.79 -22.98,-43.31 -48.62,-82.95 -76.87,-119.68 14.79,-23.25 29.6,-45.7 45.7,-67.9l3.7 0.53 0 0 0 0 0 0 0 0 0 0 -0.02 0.01z"/>
  <g id="_1958813088816">
   <path class="fil3" d="M3234.82 1082.43l2912.41 0c249.3,0 451.49,205.78 451.49,459.52l0 1429.16c0,253.73 -202.18,459.5 -451.49,459.5l-2912.41 0c-249.3,0 -451.46,-205.78 -451.46,-459.52l-0.03 -1429.16c0.03,-253.75 202.2,-459.52 451.51,-459.52l-0.02 0.02z"/>
   <path class="fil4" d="M6657.48 3628.35l-3910.08 0c-25.81,0 -50.89,10.2 -70.93,29.11l-393.91 370.4c-81.53,76.55 -34.46,228.3 70.83,228.3l4698.16 0c105.28,0 152.32,-151.76 70.84,-228.3l-394.05 -370.4c-19.9,-18.9 -45,-29.11 -70.86,-29.11l0 0 0.01 0z"/>
   <polygon class="fil5" points="3095.54,2388.76 6241.23,2388.76 6241.23,1428.59 3095.54,1428.59 "/>
   <polygon class="fil6" points="3095.54,2566.13 3846.65,2566.13 3846.65,2472.8 3095.54,2472.8 "/>
   <polygon class="fil5" points="3095.54,3122.18 4643.84,3122.18 4643.84,2650.72 3095.54,2650.72 "/>
   <polygon class="fil6" points="3893.71,2566.13 4644.78,2566.13 4644.78,2472.8 3893.71,2472.8 "/>
   <polygon class="fil6" points="4691.86,2566.13 5443.06,2566.13 5443.06,2472.8 4691.86,2472.8 "/>
   <polygon class="fil6" points="4691.86,2716.1 6240.12,2716.1 6240.12,2645.24 4691.86,2645.24 "/>
   <polygon class="fil6" points="4691.86,2837.5 6240.12,2837.5 6240.12,2766.8 4691.86,2766.8 "/>
   <polygon class="fil6" points="4691.86,2959.07 6240.12,2959.07 6240.12,2888.31 4691.86,2888.31 "/>
   <polygon class="fil6" points="4691.86,3080.65 6223.06,3080.65 6223.06,3009.81 4691.86,3009.81 "/>
   <polygon class="fil6" points="5490.02,2566.13 6241.23,2566.13 6241.23,2472.8 5490.02,2472.8 "/>
   <path class="fil7" d="M5069.77 2435.58c11.35,5.55 20.71,13.45 27.98,22.79 52.46,-124.71 89.69,-266.64 110.41,-422.78l0.04 -0.52c15.21,-128.25 -14.01,-233.61 -86.8,-313.14 -76.41,-83.44 -186.08,-121.7 -275.18,-139.15 -10.31,-42.96 -48.89,-74.92 -94.97,-74.92 -54.02,0 -97.81,43.77 -97.81,97.78 0,54 43.79,97.77 97.81,97.77 35.19,0 65.91,-18.64 83.14,-46.57 77.15,15.41 170,47.77 232.09,115.74 57.31,62.71 80.03,147.99 67.62,253.46 -19.74,148.76 -54.97,283.56 -104.34,401.58 13.39,-0.81 27.17,1.66 40.04,7.96l-0.03 0 0 -0.01z"/>
   <path class="fil7" d="M3976.14 2434.3c12.93,-6.32 26.71,-8.78 40.08,-7.93 -49.16,-117.7 -84.21,-252.08 -103.85,-400.32 -12.43,-105.47 10.31,-190.75 67.63,-253.46 55.66,-60.93 136.05,-93.27 207.67,-110.39 17.73,24.91 46.77,41.22 79.65,41.22 54.02,0 97.77,-43.77 97.77,-97.77 0,-54.01 -43.75,-97.78 -97.77,-97.78 -48.33,0 -88.41,35.15 -96.24,81.26 -82.97,19.83 -177.75,58.3 -246.01,132.82 -72.79,79.55 -102.04,184.89 -86.8,313.14l0.04 0.52c20.62,155.57 57.67,297.07 109.86,421.47 7.28,-9.34 16.67,-17.25 27.98,-22.76l0 0 0 -0.01z"/>
   <path class="fil4" d="M2733.56 1712.13l0 1397.95c0,246.28 200.39,446.65 446.65,446.65l1072.27 0c193.5,0 350.9,-157.4 350.9,-350.92l0 -288.15c105.35,-16.05 206.91,-63.89 289.73,-143.62 84.21,-81.07 156.04,-181.68 213.43,-299.07 13.93,-28.44 9.4,-61.05 -8.79,-84.45 -7.27,-9.33 -16.62,-17.25 -27.98,-22.79 -12.86,-6.31 -26.67,-8.79 -40.03,-7.96 -27.86,1.7 -54.07,17.87 -67.21,44.73 -49.16,100.5 -109.89,185.96 -180.59,254.02 -145.1,139.62 -372.31,139.62 -517.41,0 -70.94,-68.3 -131.89,-154.17 -181.2,-255.19 -13.09,-26.87 -39.26,-43.08 -67.12,-44.83 -13.36,-0.84 -27.14,1.62 -40.07,7.92 -11.31,5.53 -20.71,13.43 -27.98,22.77 -18.25,23.37 -22.79,55.97 -8.9,84.42 57.49,117.95 129.55,219.02 214.07,300.4 82.83,79.71 184.39,127.56 289.73,143.62l0 288.15c0,105.09 -85.49,190.58 -190.58,190.58l-1072.27 0c-157.85,0 -286.3,-128.46 -286.3,-286.32l0 -1397.95 -160.37 0 -0.02 0.04 0.01 0z"/>
   <path class="fil4" d="M5984.57 1027.53l-2803.87 14.74c-246.29,0 -446.66,200.4 -446.66,446.66l0 568.53 160.35 0 0 -568.53c0,-157.86 128.46,-286.32 286.32,-286.32l2803.87 -14.74 0 -160.36 0 0.02 0 -0.01z"/>
   <path class="fil4" d="M6619.95 2940.47l0 -1466.26c0,-246.28 -200.4,-446.65 -446.66,-446.65l-568.53 0 0 160.34 568.53 0c157.86,0 286.32,128.46 286.32,286.32l0 1466.26 160.36 0 -0.02 0 0.01 0z"/>
   <path class="fil4" d="M5611.82 3517.97l562.83 -0.65c246.29,0 446.66,-200.39 446.66,-446.65l0 -568.53 -160.35 0 0 568.53c0,157.86 -128.48,286.32 -286.32,286.32l-562.83 0.64 0 160.37 0 -0.03 0 0.01z"/>
   <circle class="fil8 str0" cx="5228.53" cy="3451.26" r="219.95"/>
   <path class="fil4" d="M5215.2 3569.99c-72.79,0 -132.02,-59.24 -132.02,-132.03 0,-72.79 59.23,-132.03 132.02,-132.03 72.79,0 131.99,59.24 131.99,132.03 0,72.79 -59.2,132.03 -131.99,132.03zm431.85 -212.2l-150.78 0c-34.92,-122.36 -147.66,-212.2 -281.06,-212.2 -161.21,0 -292.35,131.15 -292.35,292.37 0,161.22 131.16,292.38 292.35,292.38 133.41,0 246.17,-89.87 281.06,-212.2l150.78 0 0 -160.35z"/>
   <circle class="fil8" cx="5219.54" cy="3442.25" r="313.92"/>
   <circle class="fil3" cx="5219.51" cy="3442.25" r="169.9"/>
  </g>
 </g>
</svg>
