<?xml version="1.0" encoding="UTF-8"?>
<!DOCTYPE svg PUBLIC "-//W3C//DTD SVG 1.1//EN" "http://www.w3.org/Graphics/SVG/1.1/DTD/svg11.dtd">
<!-- Creator: CorelDRAW 2020 (64-Bit) -->
<svg xmlns="http://www.w3.org/2000/svg" xml:space="preserve" width="94.1916mm" height="52.9166mm" version="1.1" style="shape-rendering:geometricPrecision; text-rendering:geometricPrecision; image-rendering:optimizeQuality; fill-rule:evenodd; clip-rule:evenodd"
viewBox="0 0 9404.92 5283.66"
 xmlns:xlink="http://www.w3.org/1999/xlink"
 xmlns:xodm="http://www.corel.com/coreldraw/odm/2003">
 <defs>
  <style type="text/css">
   <![CDATA[
    .fil4 {fill:#FEFEFE}
    .fil5 {fill:#004680}
    .fil0 {fill:#E6E7E8}
    .fil3 {fill:#FF4F4F}
    .fil2 {fill:#373435;fill-opacity:0.031373}
    .fil1 {fill:#2B2A29;fill-opacity:0.101961}
   ]]>
  </style>
 </defs>
 <g id="Layer_x0020_1">
  <metadata id="CorelCorpID_0Corel-Layer"/>
  <polygon class="fil0" points="-0,0 9404.92,0 9404.92,5283.66 -0,5283.66 "/>
  <path class="fil1" d="M2784.71 5283.66l-221.4 0 -1.23 0 -1.28 0 -3.55 0 -0.1 0 -9.58 0 -242.07 0 -286.31 0 -136.37 0 -29.64 0 -30.12 0 -40.29 0 -435.76 0 -6.01 0 -44.76 0 -13.06 0 -111.27 0 -118.45 0 -201.88 0 -152.93 0 -169.54 0 -18.96 0 -73.68 0 -93.87 0 -42.24 0 -46.1 0 -254.26 0 0 -48.74 0 -96.7 0 -22.45 0 -25.72 0 -7.15 0 -54.92 0 -63.03 0 -1.3 0 -0.76 0 -36.5 0 -27.99 0 -7.91 0 -86.17 0 -100.75 0 -27.34 0 -44.35 0 -14.94 0 -46.92 0 -40.65 0 -72.97 0 -8.12 0 -116.66 0 -80.31 0 -52.13 0 -158.52 0 -0.66 0 -46.18 0 -25.42 0 -6.92 0 -23.22 0 -53.13 0 -660.65 0 -469.6 0 -109.27 0 -27.29 2424.6 -1541.01 -7.71 6.1 -6.21 7.57 -4.59 8.92 -2.85 10.14 -0.98 11.25 0 119.3 106.37 -67.05 840.3 0 0 805.12 1340.24 -784.23 -574.39 370.99 -5.49 4.16 -4.56 4.58 -3.68 4.95 -2.88 5.25 -2.13 5.5 -1.45 5.68 -0.82 5.81 -0.26 5.86 0.48 5.87 1.35 5.81 2.1 5.69 2.72 5.5 3.23 5.25 3.58 4.95 3.84 4.57 3.5 3.66 601.45 -349.59 478.65 308.27 -462.7 308.29 -114.47 64.21 45.34 29.84 0 17.6 648.84 -362.46 733.94 -0.02 0 721.09 -720.43 377.17 -9.91 13.24 -3.86 5.68 369.29 -193.2 35.52 -17.98 36.47 -16.32 37.36 -14.6 38.21 -12.81 39 -10.99 39.73 -9.11 40.41 -7.18 41.05 -5.19 41.62 -3.16 42.14 -1.06 42.14 1.06 41.62 3.16 41.05 5.19 40.42 7.18 39.73 9.11 39 10.99 38.2 12.81 37.37 14.6 36.46 16.32 35.53 17.98 34.52 19.6 33.46 21.16 32.35 22.68 31.19 24.13 29.96 25.55 28.71 26.89 27.37 28.2 26 29.45 24.56 30.64 23.09 31.78 21.54 32.88 19.95 33.91 18.3 34.9 16.6 35.84 14.85 36.7 13.05 37.54 11.18 38.31 9.28 39.04 7.3 39.7 5.28 40.33 3.22 40.89 1.08 41.4 -1.08 41.4 -3.22 40.89 -5.28 40.32 -7.3 39.71 -9.28 39.03 -11.18 38.32 -13.05 37.53 -14.85 36.71 -16.6 35.83 -18.3 34.9 -19.95 33.92 -21.54 32.87 -23.09 31.78 -24.56 30.64 -26 29.45 -27.37 28.2 -28.71 26.9 -29.96 25.54 -31.19 24.13 -32.35 22.68 -33.46 21.16 -34.52 19.6 -35.53 17.98 -394.02 183.99 38.03 0.92 47.59 -1.2 47.01 -3.56 46.35 -5.85 45.64 -8.1 44.86 -10.28 44.04 -12.4 43.14 -14.47 42.19 -16.47 41.18 -18.41 -2502.71 1159.8 -191.53 0 -37.14 0 -169.56 0 -788.29 0zm3361.71 -3671.2l0 0zm0 0l0 0zm0 0l0 0zm0 0l0 0zm0 0l0 0zm0 0l0 0zm0 0l0 0zm0 0l0 0z"/>
  <path class="fil2" d="M578.49 4627.69c17.95,27.21 29.6,53.36 40.96,82.43 8.45,16.91 12.93,48.09 52.57,48.09 11.61,0 28.28,-3.42 43.06,-11.61 16.63,-8.73 29.32,-21.94 35.94,-42l15.85 -53.36 38.57 -19.02 2.64 2.64c-5.27,20.09 -6.59,39.36 -6.59,54.43 0,44.63 38.57,61.56 69.22,61.56 17.95,0 34.09,-8.73 34.09,-25.11 0,-21.13 -8.98,-57.06 -20.62,-89.29 17.95,-17.95 35.94,-35.94 56.53,-50.47l3.17 1.6c8.98,38.04 14,75.56 14,100.66 0,24.57 -10.83,51.79 -19.81,69.49 -18.49,34.87 -51.25,62.62 -90.87,62.62 -30.1,0 -63.65,-15.07 -86.66,-43.06l-1.32 0c-21.66,26.96 -55.22,51.25 -108.86,51.25l-16.63 0c-2.64,35.41 -10.29,60.49 -21.94,82.95 -31.95,62.34 -126.81,106.47 -216.1,106.47 -124.17,0 -186.51,-71.59 -186.51,-166.96 0,-58.91 19.27,-113.6 48.88,-152.42l24.29 10.04c-18.49,35.41 -30.91,68.68 -30.91,101.45 0,89.29 72.66,131.83 156.4,131.83 77.68,0 173.83,-49.41 191.28,-106.72 -6.59,-62.62 -30.1,-91.93 -66.04,-148.99 10.83,-19.02 24.83,-38.04 42.28,-58.38l3.17 0 0 0 0 0 -0.02 -0.09zm1432.13 -336.04c26.15,16.39 51.79,35.66 76.87,57.85 -14,19.81 -31.45,37.79 -53.11,53.64 -25.11,-20.34 -50.19,-37.79 -75.84,-56.27 17.42,-19.55 34.62,-38.29 52.04,-55.22l0 0 0 0 0 0 0 0 0 0 0.03 0zm13.47 244.11c-42.28,0 -76.87,27.75 -76.87,48.34 0,44.13 84.53,57.85 185.72,57.31 -12.68,-51.79 -57.06,-105.68 -108.86,-105.68l0.01 0.03zm-94.86 236.19c54.96,0 103.04,-1.6 139.74,-10.83 40.96,-10.29 75.56,-30.91 75.56,-45.17 0,-3.7 0,-8.19 -1.32,-11.89 -22.98,2.11 -49.41,2.11 -72.38,2.11 -74.49,0 -131.55,-16.91 -154.02,-58.66 -5.55,-11.61 -9.51,-24.57 -9.51,-39.36 0,-40.43 17.42,-79.79 48.09,-107 25.61,-22.45 53.89,-36.44 82.67,-36.44 52.04,0 93.51,41.75 122.57,107.54 15.85,35.94 26.68,77.4 26.68,129.72 0,34.87 -9.51,64.19 -31.17,85.85 -40.43,39.11 -114.92,53.89 -229.04,53.89l-51.79 0 0 0 -13.47 0c-28.28,0 -48.62,-5.02 -64.72,-17.42l-2.64 0c0.79,6.59 1.32,12.93 1.32,19.02 0,25.61 -8.45,58.38 -25.61,84.53 -50.72,75.3 -105.68,108.04 -153.24,108.04 -48.09,0 -107,-18.49 -160.11,-42.54l9.51 -18.49c17.17,7.13 40.96,11.89 73.7,11.89 85.85,0 198.66,-82.43 212.66,-163 -3.17,-6.59 -8.98,-15.32 -17.17,-24.57 -25.11,-29.85 -40.96,-54.68 -55.75,-80.83 12.68,-25.11 24.29,-45.17 35.13,-63.4l4.49 -0.53c36.72,74.77 69.99,117.55 144.23,117.55l11.61 0 0 0 53.89 0 0 0 0 0 0 0 0 0 0 0 0.09 0.01zm-371.98 79c6.34,-34.34 6.87,-72.91 6.87,-108.86l0 -53.36c0,-99.6 -12.68,-244.36 -22.98,-338.68 17.95,-19.27 43.06,-42 62.87,-57.31l5.81 1.6c13.47,118.62 16.63,256 16.63,383.06 0,33.3 -1.32,65.79 -4.49,89.55 -1.85,30.1 -19.27,52.83 -56.53,87.7l-8.19 -3.7zm-382.8 -157.19c1.85,46.77 24.83,83.49 105.15,83.49 49.93,0 92.19,-12.93 138.96,-35.13 8.45,-3.7 12.93,-8.73 12.93,-12.93 0,-29.32 -22.45,-68.15 -60.23,-103.55 -36.72,-33.3 -85.34,-62.62 -130.76,-82.18 -15.6,-6.59 -20.62,-13.47 -20.62,-20.09 0,-13.47 17.95,-41.75 32.77,-62.09l5.02 -0.53c52.04,27.21 110.17,67.64 153.24,112.53 39.11,41.47 63.4,83.49 63.4,129.19 0,33.81 -10.29,65.51 -26.96,95.11 -57.06,28.79 -117.83,50.72 -178.06,50.72 -73.17,0 -123.1,-34.34 -123.1,-114.92 0,-8.73 0,-22.19 3.17,-39.64l25.11 0 0 0 0 0 0 0 0 0 0 0 -0.02 0zm-132.37 -132.9l45.45 73.45c16.63,27.21 32.23,56.81 32.23,103.55l0 59.7c0,48.34 -30.91,100.13 -80.83,151.38 -39.11,34.62 -73.7,49.41 -105.68,49.41 -47.55,0 -101.98,-14.79 -164.85,-41.75l7.13 -18.49c19.81,5.27 42.79,9.77 71.06,9.77 90.36,-0.53 182.8,-66.57 225.08,-147.15 5.02,-9.26 6.87,-17.95 6.87,-24.04 0,-9.26 -5.02,-19.55 -8.98,-28.79 -22.98,-43.31 -48.62,-82.95 -76.87,-119.68 14.79,-23.25 29.6,-45.7 45.7,-67.9l3.7 0.53 0 0 0 0 0 0 0 0 0 0 -0.02 0.01z"/>
  <g id="_3029035248304">
   <path class="fil3" d="M6146.42 2385.8l0 -773.34c0,0 0,0 0,0 0,0 0,0 0,0 0,-31.33 -21.3,-52.25 -53.19,-52.25l-787.14 0 -558.42 -365.77c-15.97,-10.44 -42.56,-10.44 -58.5,0l-574.39 370.99c-15.95,10.47 -21.27,26.14 -21.27,41.81 0,15.7 10.62,31.36 21.27,41.81l547.8 360.54 0 407.57 -590.34 -0.02c-31.91,0 -53.18,20.91 -53.18,52.24l0 475.49 -441.43 0c-31.91,0 -53.18,20.92 -53.18,52.28l0 240.36 -515.91 0 0 -710.62 388.24 0c31.92,0 53.19,-20.92 53.19,-52.25l0 -1353.33c0,-31.36 -21.27,-52.25 -53.19,-52.25l-941.33 0c-31.92,0 -53.19,20.89 -53.19,52.25l0 1353.3c0,31.36 21.27,52.28 53.19,52.28l452.05 0 0 768.1c0,31.35 21.27,52.25 53.19,52.25l563.77 0 0 235.13c0,31.35 21.27,52.24 53.18,52.24l946.67 0c31.91,0 53.18,-20.89 53.18,-52.24l0 -224.69 563.75 0c31.91,475.49 436.1,856.92 930.72,856.92 510.58,0 930.72,-412.78 930.72,-914.4 0,-480.71 -377.61,-872.62 -856.24,-914.41zm-74.48 1724.3c-452.06,0 -824.36,-365.77 -824.36,-809.89 0,-444.14 372.31,-809.9 824.36,-809.9 452.08,0 824.35,365.77 824.35,809.9 0,444.13 -372.28,809.89 -824.35,809.89zm-1600.83 -579.98l-840.31 0 0 -475.49 840.31 0 0 475.49zm53.18 -579.99l-398.88 0 0 -423.24 595.66 0c31.92,0 53.19,-20.92 53.19,-52.25 0,0 0,-5.22 0,-5.22 0,0 0,-5.22 0,-5.22l0 -449.38 537.15 -350.08 733.94 -0.02 0 721.09c-483.97,15.68 -872.22,397.11 -898.81,867.38l-569.07 0 0 -256.02c0,-26.14 -21.27,-47.03 -53.18,-47.03zm191.46 -1651.16l478.65 308.27 -462.7 308.29c-5.3,0 -10.62,0 -10.62,0 0,0 -10.64,0 -10.64,0l-462.7 -303.07 468.02 -313.5zm-2207.13 -125.41l840.3 0 0 1248.81 -840.3 0 0 -1248.81z"/>
   <polygon class="fil4" points="2508.63,1173.55 3348.93,1173.55 3348.93,2422.36 2508.63,2422.36 "/>
   <path class="fil4" d="M4715.76 1298.96l478.65 308.27 -462.7 308.29c-5.3,0 -10.62,0 -10.62,0 0,0 -10.64,0 -10.64,0l-462.7 -303.07 468.02 -313.5z"/>
   <polygon class="fil4" points="4471.12,3530.12 3630.81,3530.12 3630.81,3054.63 4471.12,3054.63 "/>
   <path class="fil4" d="M6071.95 4110.1c-452.06,0 -824.36,-365.77 -824.36,-809.89 0,-444.14 372.31,-809.9 824.36,-809.9 452.08,0 824.35,365.77 824.35,809.9 0,444.13 -372.28,809.89 -824.35,809.89z"/>
   <path class="fil5" d="M6391.06 3038.93c21.27,15.7 26.59,52.27 10.62,73.17l-356.33 470.27c0,0 0,0 0,0 0,0 0,0 0,5.22 -5.3,5.22 -5.3,5.22 -10.62,5.22 0,0 -5.32,5.22 -5.32,5.22 -5.33,5.22 -15.95,5.22 -21.27,5.22 0,0 0,0 0,0 0,0 0,0 0,0 -5.33,0 -10.65,0 -15.98,-5.22 0,0 -5.29,0 -5.29,-5.22 -5.33,0 -5.33,0 -10.65,-5.22 0,0 0,0 0,0 0,0 0,0 -5.32,0l-223.37 -209c-21.27,-20.91 -21.27,-52.25 0,-73.16 21.29,-20.89 53.18,-20.89 74.48,0l175.48 167.22 319.13 -423.24c15.95,-26.14 53.16,-31.36 74.45,-10.47z"/>
  </g>
 </g>
</svg>
