<svg width="379" height="321" viewBox="0 0 379 321" fill="none" xmlns="http://www.w3.org/2000/svg">
<g clip-path="url(#clip0_137_15353)">
<path opacity="0.3" d="M337.135 66.9648H88.1451C83.6465 66.9648 79.9998 70.6116 79.9998 75.1102V230.051C79.9998 234.549 83.6465 238.196 88.1451 238.196H337.135C341.634 238.196 345.281 234.549 345.281 230.051V75.1102C345.281 70.6116 341.634 66.9648 337.135 66.9648Z" fill="#1566C6"/>
<path d="M321.994 110.835V243.289L194.17 232.237L80.7098 248.528C79.5723 248.687 78.4139 248.601 77.3125 248.275C76.2111 247.949 75.1923 247.391 74.3245 246.639C73.4568 245.886 72.7602 244.957 72.2817 243.913C71.8032 242.868 71.5539 241.734 71.5505 240.585V100.966L194.88 94.4087H304.183C306.017 94.4187 307.789 95.0771 309.185 96.2676L319.324 104.954C320.163 105.687 320.835 106.591 321.296 107.605C321.756 108.619 321.994 109.721 321.994 110.835Z" fill="white"/>
<path d="M79.5939 249.103C78.4714 249.111 77.3582 248.898 76.3189 248.473C75.2796 248.049 74.3349 247.422 73.5396 246.63C72.7442 245.838 72.114 244.896 71.6854 243.858C71.2569 242.82 71.0385 241.708 71.043 240.585V100.492H71.55L194.845 93.9019H304.182C306.144 93.9047 308.039 94.6124 309.522 95.8959L319.662 104.582C320.553 105.362 321.267 106.323 321.757 107.402C322.246 108.48 322.5 109.65 322.501 110.835V243.864L321.96 243.796L194.203 232.744L80.8107 249.035L79.5939 249.103ZM72.057 101.439V240.585C72.061 241.661 72.2953 242.724 72.7442 243.702C73.1931 244.68 73.8461 245.55 74.6594 246.254C75.4727 246.959 76.4273 247.481 77.4592 247.786C78.4911 248.09 79.5762 248.171 80.6417 248.021L194.169 231.73H194.203L321.487 242.749V110.835C321.492 109.795 321.271 108.767 320.839 107.822C320.407 106.876 319.775 106.036 318.986 105.359L308.846 96.6733C307.55 95.5508 305.896 94.9276 304.182 94.9158H194.879L72.057 101.439Z" fill="#00244C"/>
<path d="M195.521 95.085H194.169V243.283H195.521V95.085Z" fill="#00244C"/>
<path d="M62.8984 243.289V102.96C62.9074 100.689 63.8158 98.5138 65.4248 96.9111C67.0337 95.3085 69.2122 94.4087 71.4831 94.4087H194.846" fill="white"/>
<path d="M63.4047 243.154V102.926C63.4385 99.6812 65.2636 96.5718 68.3392 95.2537C70.1981 94.4763 72.4288 94.6791 74.4229 94.6791H194.676C195.014 94.6791 195.724 94.1721 195.048 94.1721H72.0908C70.4301 94.1309 68.7839 94.4903 67.2915 95.2199C65.8298 95.97 64.6026 97.1078 63.7442 98.5087C62.8858 99.9095 62.4293 101.519 62.4246 103.162V243.424C62.4246 243.695 63.4047 243.526 63.4047 243.154Z" fill="#00244C"/>
<path d="M307.022 94.4087V103.771C307.022 104.757 307.413 105.702 308.111 106.4C308.808 107.097 309.753 107.489 310.74 107.489H321.994L307.022 94.4087Z" fill="#00244C"/>
<path d="M194.169 232.237H327.672C328.009 232.237 328.343 232.304 328.655 232.433C328.966 232.562 329.25 232.751 329.488 232.99C329.727 233.228 329.916 233.511 330.045 233.823C330.174 234.135 330.24 234.469 330.24 234.806V241.633C330.24 241.97 330.174 242.305 330.045 242.616C329.916 242.928 329.727 243.211 329.488 243.449C329.25 243.688 328.966 243.877 328.655 244.006C328.343 244.135 328.009 244.202 327.672 244.202H194.169V232.237Z" fill="#00244C"/>
<path d="M60.6673 232.237H194.17V244.168H60.6673C59.986 244.168 59.3327 243.897 58.851 243.416C58.3693 242.934 58.0986 242.281 58.0986 241.599V234.772C58.1075 234.097 58.3821 233.452 58.8628 232.978C59.3436 232.503 59.9919 232.237 60.6673 232.237Z" fill="#00244C"/>
<path d="M194.846 268.198C194.711 268.198 194.582 268.145 194.487 268.05C194.392 267.955 194.339 267.826 194.339 267.691V240.856C194.339 240.721 194.392 240.592 194.487 240.497C194.582 240.402 194.711 240.349 194.846 240.349C194.98 240.349 195.109 240.402 195.204 240.497C195.299 240.592 195.353 240.721 195.353 240.856V267.691C195.353 267.758 195.339 267.824 195.314 267.885C195.288 267.947 195.251 268.003 195.204 268.05C195.157 268.097 195.101 268.134 195.04 268.16C194.978 268.185 194.912 268.198 194.846 268.198Z" fill="#00244C"/>
<path d="M216.679 269.821C216.538 269.815 216.405 269.755 216.308 269.652L194.846 242.985L173.418 269.652C173.379 269.711 173.327 269.761 173.267 269.8C173.208 269.838 173.14 269.863 173.07 269.873C173 269.884 172.928 269.879 172.859 269.86C172.791 269.841 172.727 269.808 172.672 269.763C172.618 269.717 172.573 269.661 172.541 269.598C172.51 269.534 172.492 269.464 172.489 269.393C172.486 269.322 172.498 269.251 172.524 269.185C172.55 269.119 172.59 269.059 172.641 269.01L194.846 241.363L217.085 269.01C217.162 269.116 217.197 269.247 217.185 269.377C217.172 269.508 217.113 269.629 217.017 269.719C216.918 269.788 216.8 269.823 216.679 269.821Z" fill="#00244C"/>
<path d="M194.204 95.085L194.068 232.643L163.549 236.631L137.051 240.45L80.7098 248.528C79.5723 248.687 78.4139 248.601 77.3125 248.275C76.2111 247.95 75.1923 247.392 74.3245 246.639C73.4568 245.887 72.7602 244.957 72.2817 243.913C71.8032 242.869 71.5539 241.734 71.5505 240.586V108.57C71.5561 106.517 72.3469 104.543 73.7608 103.054C75.1746 101.565 77.1046 100.672 79.1551 100.56L194.204 95.085Z" fill="white"/>
<path d="M194.102 95.0847V227.066C194.069 228.857 194.069 230.649 194.069 232.406V232.643L194.17 231.798L174.635 234.366C169.937 234.975 165.239 235.549 160.541 236.225L137.896 239.47L126.946 241.059L101.327 244.709L81.9942 247.48L80.7437 247.683C79.4361 247.859 78.1053 247.718 76.8639 247.27C75.6226 246.823 74.5072 246.084 73.6123 245.114C72.1928 243.526 71.652 241.633 71.652 239.571V109.55C71.652 107.489 72.2266 105.562 73.6799 103.974C75.1332 102.385 77.6681 101.473 80.0677 101.371L84.6305 101.135L102.645 100.29L127.824 99.1067L154.795 97.8223L178.183 96.707L192.277 96.031L194.204 95.9296C194.339 95.9296 194.305 94.2397 194.204 94.2397L186.329 94.6453L166.557 95.5579L140.363 96.8084L113.528 98.0927L91.3901 99.1405L79.7973 99.6812C76.7555 99.8164 73.9841 101.168 72.497 103.94C71.5506 105.697 71.483 107.624 71.483 109.55V235.718C71.483 239.2 70.9422 243.391 73.2067 246.331C74.0902 247.44 75.245 248.303 76.5593 248.836C77.8737 249.369 79.3032 249.554 80.7099 249.373L81.8252 249.204L89.1594 248.156L114.542 244.506L135.125 241.565L148.272 239.673C153.747 238.895 159.223 238.05 164.698 237.341L187.884 234.299L194.069 233.488C194.204 233.488 194.17 232.677 194.17 232.643V100.661C194.17 98.9039 194.204 97.1126 194.17 95.3213V95.0847C194.183 94.8013 194.16 94.5175 194.102 94.2397C194.069 94.3073 194.102 95.0171 194.102 95.0847Z" fill="#00244C"/>
<path d="M66.2108 85.4861H322.468C323.617 85.4861 324.8 85.5875 325.949 85.4861H326.388C326.49 85.4861 326.49 84.2018 326.388 84.2018H70.1314C68.9823 84.2018 67.7655 84.1004 66.6502 84.2018H66.2108C66.1094 84.2018 66.1094 85.4861 66.2108 85.4861Z" fill="#00244C"/>
<path d="M97.8693 79.2585C99.3428 78.7797 99.9948 76.7222 99.3257 74.6629C98.6566 72.6036 96.9197 71.3223 95.4463 71.8011C93.9728 72.2799 93.3207 74.3374 93.9898 76.3967C94.6589 78.456 96.3958 79.7372 97.8693 79.2585Z" fill="white"/>
<path d="M304.352 139.733H213.097V140.409H304.352V139.733Z" fill="#00244C"/>
<path d="M304.352 152.238H213.097V152.914H304.352V152.238Z" fill="#00244C"/>
<path d="M304.352 177.282H213.097V177.958H304.352V177.282Z" fill="#00244C"/>
<path d="M304.352 164.743H213.097V165.419H304.352V164.743Z" fill="#00244C"/>
<path d="M108.202 213.937L81.0576 215.787L81.1036 216.462L108.248 214.611L108.202 213.937Z" fill="#00244C"/>
<path d="M99.1379 219.287L81.1045 220.611L81.154 221.285L99.1874 219.961L99.1379 219.287Z" fill="#00244C"/>
<path d="M99.1591 224.208L81.1257 225.532L81.1752 226.206L99.2086 224.882L99.1591 224.208Z" fill="#00244C"/>
<path d="M108.188 192.762V209.425L81.0479 211.25" fill="white"/>
<path d="M81.0818 211.588L81.0142 210.912L107.85 209.087V192.762H108.526V209.729L81.0818 211.588Z" fill="#00244C"/>
<path opacity="0.3" d="M143.406 131.756C159.257 131.756 172.1 148.926 172.1 170.151H143.406V131.756Z" fill="#1566C6"/>
<path opacity="0.3" d="M140.194 136.353C124.343 136.353 111.5 153.556 111.5 174.748C111.5 195.939 124.343 213.108 140.194 213.108C156.046 213.108 168.923 195.939 168.923 174.748H140.194V136.353Z" fill="#1566C6"/>
<path d="M311.314 215.169H283.87C280.828 215.169 278.361 217.636 278.361 220.679V226.728C278.361 229.771 280.828 232.237 283.87 232.237H311.314C314.357 232.237 316.823 229.771 316.823 226.728V220.679C316.823 217.636 314.357 215.169 311.314 215.169Z" fill="url(#paint0_linear_137_15353)"/>
<path d="M279.037 260.831L281.775 260.493C283.667 260.493 284.884 260.831 285.121 261.541C285.898 263.805 276.434 269.112 263.963 273.37C251.491 277.629 240.778 279.251 240 276.987C239.73 276.175 240.778 274.925 242.873 273.505L245.002 272.289" fill="#00244C"/>
<path d="M248.449 281.211L238.411 251.942L231.922 246.94C230.048 245.5 228.557 243.622 227.579 241.471C226.601 239.32 226.165 236.962 226.312 234.604L227.055 222.301C227.081 221.81 227.204 221.328 227.417 220.885C227.631 220.441 227.93 220.044 228.298 219.717C228.666 219.39 229.095 219.14 229.56 218.98C230.026 218.82 230.518 218.754 231.01 218.786C231.811 218.836 232.575 219.143 233.19 219.66C233.804 220.177 234.237 220.878 234.423 221.659C235.302 225.343 236.789 231.798 237.668 235.618C237.749 235.979 237.912 236.317 238.146 236.605C238.379 236.893 238.676 237.123 239.013 237.277C239.351 237.431 239.719 237.505 240.09 237.492C240.46 237.48 240.823 237.382 241.149 237.206L241.25 237.138C242.896 236.259 244.208 234.863 244.984 233.166C245.759 231.468 245.955 229.563 245.543 227.743C244.698 223.957 243.65 219.158 242.873 215.609C242.738 215.024 242.471 214.478 242.094 214.011C241.716 213.544 241.237 213.17 240.693 212.915C240.149 212.661 239.554 212.535 238.954 212.544C238.354 212.554 237.764 212.701 237.228 212.973L233.105 215.102C232.298 215.52 231.375 215.657 230.481 215.492C229.588 215.326 228.775 214.868 228.17 214.19L228.103 214.088C227.677 213.605 227.367 213.031 227.197 212.409C227.028 211.788 227.002 211.136 227.123 210.504C227.243 209.871 227.507 209.274 227.894 208.759C228.28 208.244 228.78 207.824 229.353 207.531L236.958 203.611C238.316 202.913 239.815 202.533 241.341 202.498C242.868 202.463 244.382 202.774 245.771 203.409C247.16 204.043 248.387 204.984 249.36 206.16C250.333 207.337 251.027 208.718 251.39 210.201L255.277 226.188L246.928 191.95C246.765 191.29 246.738 190.604 246.848 189.933C246.959 189.262 247.205 188.621 247.572 188.048C247.939 187.475 248.419 186.984 248.982 186.603C249.546 186.222 250.181 185.96 250.849 185.833C252.119 185.588 253.434 185.841 254.523 186.539C255.612 187.238 256.39 188.328 256.696 189.585L263.591 218.482L257.811 194.35C257.676 193.802 257.651 193.232 257.738 192.674C257.825 192.116 258.022 191.581 258.317 191.099C258.613 190.618 259.001 190.2 259.46 189.871C259.918 189.541 260.438 189.306 260.988 189.179C261.548 189.05 262.128 189.035 262.694 189.135C263.259 189.235 263.799 189.447 264.281 189.759C264.764 190.071 265.178 190.476 265.501 190.951C265.824 191.427 266.047 191.962 266.16 192.525L270.215 213.446L268.694 205.639L269.911 199.285C269.995 198.844 270.167 198.425 270.417 198.052C270.666 197.679 270.988 197.36 271.363 197.114C271.739 196.868 272.159 196.7 272.601 196.62C273.042 196.54 273.495 196.55 273.933 196.648C274.733 196.827 275.438 197.295 275.912 197.963C276.387 198.631 276.597 199.451 276.502 200.265L272.108 240.924L282.788 269.247" fill="#FFB000"/>
<path d="M239.966 277.02C240.743 279.284 251.457 277.696 263.929 273.404C276.4 269.111 285.864 263.839 285.086 261.574L309.218 301.05C309.218 301.05 292.725 294.933 282.247 310.446C271.77 325.96 249.091 318.49 249.091 318.49L239.966 277.02Z" fill="url(#paint1_linear_137_15353)"/>
<path d="M251.153 185.799C253.451 185.394 255.58 186.61 256.155 188.875C256.256 189.247 256.358 189.585 256.425 189.956L258.081 196.615L260.515 206.315L262.712 215.237C263.117 216.758 263.455 218.245 263.861 219.733V219.8C263.905 219.947 263.983 220.082 264.088 220.194C264.194 220.305 264.325 220.39 264.469 220.442C264.604 220.51 264.976 220.544 264.909 220.273L263.962 216.387L261.732 207.498L259.231 197.46L257.507 190.463L257.203 189.314C256.909 188.177 256.293 187.148 255.43 186.351C254.567 185.554 253.493 185.022 252.336 184.819C251.74 184.746 251.137 184.757 250.544 184.853C249.936 184.954 250.747 185.867 251.153 185.799Z" fill="white"/>
<path d="M261.394 181.067C263.726 180.932 265.551 182.521 265.856 184.853C265.917 185.177 265.962 185.504 265.991 185.833L266.836 192.457L268.052 202.124L269.168 211.08C269.371 212.567 269.506 214.088 269.742 215.575C269.744 215.601 269.757 215.625 269.776 215.643C269.812 215.789 269.883 215.924 269.983 216.036C270.083 216.148 270.209 216.234 270.351 216.285C270.554 216.386 270.858 216.386 270.824 216.082L270.317 212.229L269.202 203.273L267.917 193.268L267.039 186.374C267.012 186.011 266.967 185.65 266.903 185.292C266.718 183.814 265.981 182.46 264.841 181.502C263.7 180.543 262.24 180.05 260.752 180.121C260.448 180.155 260.516 180.459 260.651 180.628C260.729 180.757 260.837 180.865 260.967 180.941C261.097 181.018 261.244 181.061 261.394 181.067Z" fill="white"/>
<path d="M245.137 191.815L246.118 195.094L248.483 202.935L251.322 212.432L253.79 220.645C254.162 221.963 254.567 223.315 254.973 224.633V224.701C255.013 224.845 255.086 224.977 255.186 225.088C255.285 225.2 255.409 225.287 255.547 225.343C255.716 225.411 256.088 225.444 256.02 225.14L255.04 221.862L252.674 214.021L249.835 204.557L247.402 196.344L246.219 192.322V192.255C246.172 192.114 246.097 191.984 245.998 191.874C245.9 191.763 245.779 191.674 245.644 191.612C245.475 191.579 245.07 191.511 245.171 191.815H245.137Z" fill="white"/>
<path d="M181.24 171.871L179.886 173.38L244.99 231.795L246.345 230.285L181.24 171.871Z" fill="#00244C"/>
<path d="M148.407 266.137L150.537 267.421C151.922 268.503 152.598 269.382 152.362 270.024C151.686 272.085 141.952 270.632 130.63 266.813C119.307 262.994 110.756 258.161 111.432 256.099C111.703 255.355 113.156 255.051 115.42 255.186L117.651 255.524" fill="#00244C"/>
<path d="M111.432 271.173L122.044 246.872C122.588 245.653 122.753 244.299 122.518 242.985L116.603 210.573C116.437 209.649 116.627 208.696 117.135 207.906C117.643 207.116 118.431 206.547 119.341 206.314C120.268 206.074 121.252 206.204 122.085 206.677C122.918 207.151 123.534 207.93 123.802 208.849L128.534 224.565L127.08 195.972C127.005 194.877 127.364 193.795 128.078 192.961C128.792 192.126 129.805 191.606 130.9 191.511C131.466 191.465 132.037 191.535 132.576 191.716C133.115 191.897 133.611 192.187 134.035 192.566C134.459 192.946 134.801 193.407 135.04 193.923C135.28 194.439 135.412 194.998 135.429 195.567L136.037 224.363L135.293 191.207C135.265 190.055 135.687 188.938 136.47 188.092C137.252 187.246 138.334 186.739 139.484 186.678C140.079 186.641 140.675 186.726 141.236 186.929C141.796 187.131 142.31 187.447 142.744 187.855C143.177 188.264 143.523 188.757 143.759 189.304C143.995 189.852 144.116 190.442 144.115 191.038L144.385 224.667L144.148 195.296C144.144 194.765 144.245 194.239 144.445 193.747C144.645 193.255 144.94 192.808 145.314 192.43C145.688 192.053 146.133 191.754 146.623 191.55C147.114 191.346 147.639 191.241 148.17 191.241C149.237 191.241 150.26 191.664 151.014 192.419C151.769 193.173 152.192 194.196 152.192 195.263V228.216C152.204 229.912 152.787 231.556 153.848 232.88C155.01 234.304 156.658 235.247 158.474 235.528C160.29 235.809 162.146 235.407 163.684 234.401L168.652 231.122C169.159 230.785 169.731 230.558 170.331 230.454C170.931 230.35 171.546 230.371 172.137 230.518C172.728 230.664 173.282 230.931 173.765 231.303C174.247 231.675 174.647 232.143 174.938 232.677C175.452 233.606 175.611 234.689 175.387 235.727C175.164 236.765 174.572 237.686 173.722 238.321L153.341 253.699C152.289 254.497 151.5 255.592 151.077 256.843L144.081 277.392" fill="#FFB000"/>
<path d="M111.398 256.099C110.689 258.161 119.307 262.96 130.596 266.813C141.884 270.666 151.618 272.086 152.328 270.024L144.588 316.733C144.588 316.733 125.357 316.767 117.854 306.56C105.078 289.221 89.7 298.583 89.7 298.583L111.398 256.099Z" fill="url(#paint2_linear_137_15353)"/>
<path d="M307.36 295.812C305.061 294.967 302.425 294.663 299.958 294.629C294.499 294.525 289.189 296.411 285.019 299.935C283.674 301.117 282.451 302.43 281.369 303.856C280.321 305.242 279.409 306.661 278.226 307.946C276.208 310.081 273.768 311.773 271.06 312.914C266.329 314.942 260.989 315.347 255.885 314.908C253.976 314.733 252.08 314.44 250.207 314.029L248.382 313.59L247.368 313.319H247.267C247.165 313.286 246.962 314.469 247.267 314.57C249.567 315.29 251.933 315.777 254.33 316.023C259.265 316.665 264.436 316.496 269.202 314.908C271.894 314.038 274.395 312.662 276.57 310.852C277.756 309.852 278.822 308.718 279.747 307.472C280.862 305.985 281.876 304.464 283.126 303.112C285.284 300.754 287.924 298.887 290.866 297.637C293.247 296.67 295.77 296.099 298.335 295.947C300.315 295.851 302.299 295.976 304.25 296.319C305.264 296.522 306.244 296.826 307.224 297.063H307.36C307.427 297.096 307.664 295.913 307.36 295.812Z" fill="white"/>
<path d="M146.008 311.629C143.549 311.608 141.095 311.382 138.674 310.953C133.841 310.21 128.94 308.891 124.715 306.323C123.622 305.637 122.582 304.868 121.606 304.025C120.619 303.1 119.724 302.081 118.936 300.983C116.874 298.279 114.441 295.812 111.534 294.02C107.533 291.498 102.761 290.491 98.0823 291.181C96.4999 291.404 94.947 291.8 93.4519 292.364C92.6778 292.644 91.9311 292.995 91.2213 293.412L91.1199 293.48C90.9509 293.547 90.9847 293.919 90.9847 294.088C90.9847 294.257 91.0523 294.798 91.1199 294.73C92.8768 293.741 94.7832 293.044 96.7642 292.668C101.161 291.74 105.742 292.311 109.776 294.291C112.631 295.796 115.176 297.826 117.28 300.273C118.361 301.49 119.24 302.875 120.355 304.058C121.223 305 122.186 305.849 123.228 306.593C127.284 309.5 132.218 311.055 137.085 311.967C138.997 312.328 140.926 312.587 142.865 312.744C143.863 312.857 144.868 312.902 145.873 312.88H146.008C146.211 312.88 146.211 311.629 146.008 311.629Z" fill="white"/>
<path d="M144.757 224.667V221.152L144.689 213.006L144.622 203.746V195.364C144.604 194.855 144.688 194.349 144.87 193.874C145.052 193.399 145.328 192.965 145.681 192.599C146.035 192.233 146.458 191.942 146.927 191.744C147.395 191.545 147.898 191.443 148.407 191.443C148.61 191.443 148.644 191.207 148.576 191.038C148.541 190.94 148.477 190.855 148.393 190.794C148.308 190.734 148.207 190.701 148.103 190.7C147.079 190.728 146.098 191.117 145.331 191.796C144.565 192.476 144.062 193.404 143.912 194.417C143.867 194.878 143.856 195.341 143.878 195.803V202.022L143.946 211.283L144.013 219.935C144.013 221.388 143.98 222.875 144.047 224.329C144.035 224.44 144.062 224.551 144.124 224.644C144.186 224.737 144.278 224.805 144.385 224.836C144.52 224.87 144.791 224.836 144.791 224.633L144.757 224.667Z" fill="white"/>
<path d="M143.811 194.992V221.895C143.811 223.112 143.743 224.362 143.811 225.613C143.802 225.719 143.827 225.824 143.881 225.915C143.936 226.006 144.018 226.078 144.115 226.12C144.284 226.154 144.554 226.12 144.554 225.917V199.048C144.554 197.831 144.588 196.58 144.554 195.33C144.561 195.22 144.531 195.111 144.47 195.02C144.409 194.929 144.32 194.859 144.216 194.823C144.047 194.789 143.811 194.823 143.811 195.026V194.992Z" fill="white"/>
<path d="M136.409 224.498V220.544L136.308 211.351L136.173 200.907L136.071 192.998C136.071 192.39 136.071 191.815 136.038 191.241C136.014 190.438 136.225 189.645 136.645 188.961C137.066 188.277 137.677 187.73 138.403 187.388C138.927 187.161 139.489 187.035 140.059 187.016C140.296 187.016 140.33 186.779 140.262 186.61C140.226 186.516 140.161 186.435 140.076 186.38C139.991 186.326 139.89 186.3 139.789 186.306C138.608 186.323 137.48 186.798 136.641 187.63C135.803 188.462 135.32 189.587 135.294 190.768C135.294 191.139 135.328 191.511 135.328 191.883L135.395 199.048L135.531 209.492L135.632 219.259C135.666 220.882 135.632 222.504 135.7 224.126V224.194C135.693 224.304 135.723 224.412 135.784 224.504C135.845 224.595 135.934 224.664 136.038 224.701C136.206 224.735 136.443 224.701 136.443 224.498H136.409Z" fill="white"/>
<path d="M128.315 210.818L127.303 210.881L128.293 226.61L129.305 226.547L128.315 210.818Z" fill="white"/>
<path d="M231.753 206.754C232.294 206.99 232.327 207.937 232.26 208.444C232.145 209.089 231.865 209.695 231.449 210.201C230.739 211.08 229.556 212.128 228.339 212.026C228.214 212.012 228.088 212.033 227.975 212.087C227.862 212.141 227.765 212.225 227.697 212.33C227.596 212.533 227.765 212.668 227.967 212.702C229.657 212.837 231.246 211.688 232.26 210.438C232.799 209.82 233.141 209.055 233.24 208.241C233.308 207.565 233.206 206.551 232.53 206.213C232.416 206.164 232.291 206.144 232.167 206.156C232.043 206.168 231.924 206.211 231.82 206.281C231.685 206.382 231.516 206.619 231.753 206.754Z" fill="white"/>
<path d="M227.055 226.526C227.63 227.033 228.475 226.999 229.151 226.728C229.509 226.591 229.833 226.378 230.101 226.104C230.369 225.83 230.576 225.501 230.705 225.14C231.348 223.551 231.077 221.625 230.334 220.138C230.198 219.8 229.218 220.138 229.353 220.374C230.006 221.632 230.221 223.071 229.962 224.464C229.793 225.275 229.049 227.1 227.968 226.154C227.731 225.951 226.819 226.323 227.055 226.526Z" fill="white"/>
<path d="M170.951 232.035C169.997 232.51 169.12 233.125 168.348 233.86C167.672 234.502 167.064 235.313 166.996 236.26C166.961 236.674 167.06 237.089 167.279 237.442C167.498 237.795 167.826 238.068 168.213 238.22C169.193 238.558 170.376 238.152 171.221 237.713C172.24 237.196 173.138 236.47 173.857 235.584C173.959 235.448 173.486 235.482 173.486 235.482C173.486 235.482 173.013 235.584 172.911 235.753C172.365 236.429 171.701 237.002 170.951 237.443C170.275 237.848 169.464 238.186 168.72 237.713C168.455 237.495 168.25 237.213 168.126 236.893C168.001 236.574 167.962 236.227 168.01 235.888C168.078 235.043 168.653 234.333 169.227 233.759C169.977 233.086 170.805 232.507 171.694 232.035C171.863 231.933 171.83 231.866 171.661 231.832C171.412 231.848 171.17 231.917 170.951 232.035Z" fill="white"/>
<path d="M252.674 187.523L252.944 188.909C253.101 189.435 253.124 189.993 253.012 190.531C252.945 190.73 252.839 190.913 252.7 191.07C252.56 191.227 252.39 191.354 252.201 191.443L251.93 191.511C252.066 191.511 251.863 191.545 251.863 191.545H251.728C251.516 191.557 251.306 191.51 251.119 191.41C250.906 191.321 250.714 191.187 250.557 191.018C250.4 190.849 250.28 190.648 250.207 190.429C250.136 190.289 250.079 190.142 250.038 189.99L249.463 188.435C249.362 188.165 248.652 188.368 248.753 188.638L249.294 190.125C249.347 190.322 249.414 190.514 249.497 190.7C249.678 191.17 250.027 191.555 250.477 191.781C250.96 192.003 251.503 192.06 252.022 191.944C252.54 191.828 253.007 191.545 253.35 191.139C253.517 190.959 253.646 190.745 253.727 190.513C253.809 190.28 253.841 190.033 253.823 189.787C253.817 189.561 253.795 189.335 253.755 189.111L253.417 187.32C253.384 187.05 252.64 187.219 252.674 187.523Z" fill="white"/>
<path d="M149.86 193.641L149.759 195.06C149.691 195.635 149.725 196.243 149.353 196.716C149.235 196.865 149.089 196.989 148.922 197.08C148.755 197.171 148.572 197.228 148.382 197.247C148.193 197.266 148.002 197.246 147.821 197.19C147.639 197.134 147.471 197.042 147.326 196.919C146.979 196.613 146.751 196.194 146.683 195.736C146.683 195.567 146.65 195.398 146.65 195.229L146.481 193.573C146.481 193.303 145.737 193.472 145.771 193.776L145.906 195.364C145.912 195.569 145.934 195.772 145.974 195.973C146.038 196.458 146.278 196.903 146.65 197.223C147.063 197.533 147.564 197.703 148.081 197.709C148.597 197.715 149.102 197.557 149.522 197.257C149.932 196.972 150.231 196.554 150.367 196.074C150.418 195.84 150.452 195.603 150.469 195.364L150.604 193.539C150.604 193.235 149.894 193.336 149.86 193.641Z" fill="white"/>
<path d="M141.58 189.179L141.445 190.632C141.411 191.173 141.445 191.781 141.073 192.254C140.958 192.407 140.812 192.535 140.645 192.629C140.478 192.723 140.294 192.781 140.103 192.8C139.913 192.819 139.72 192.799 139.538 192.74C139.356 192.681 139.188 192.584 139.045 192.457C138.864 192.313 138.714 192.134 138.604 191.931C138.493 191.728 138.425 191.504 138.403 191.274C138.376 191.118 138.364 190.96 138.369 190.801L138.2 189.111C138.2 188.841 137.456 189.01 137.49 189.314L137.625 190.902C137.625 191.105 137.659 191.308 137.659 191.511C137.738 191.999 137.99 192.443 138.369 192.761C138.778 193.081 139.28 193.258 139.8 193.264C140.319 193.27 140.826 193.106 141.242 192.795C141.66 192.519 141.961 192.097 142.087 191.612C142.144 191.392 142.167 191.164 142.154 190.936L142.323 189.077C142.323 188.773 141.58 188.908 141.58 189.179Z" fill="white"/>
<path d="M132.86 193.641L132.759 195.06C132.725 195.635 132.725 196.243 132.387 196.716C132.269 196.865 132.122 196.989 131.955 197.08C131.789 197.171 131.605 197.228 131.416 197.247C131.227 197.266 131.036 197.246 130.854 197.19C130.673 197.134 130.504 197.042 130.359 196.919C130.175 196.778 130.023 196.599 129.912 196.396C129.802 196.192 129.735 195.967 129.717 195.736C129.683 195.567 129.683 195.398 129.649 195.229L129.514 193.573C129.48 193.303 128.737 193.472 128.771 193.776L128.906 195.364C128.94 195.567 128.94 195.77 128.973 195.973C129.052 196.461 129.304 196.905 129.683 197.223C130.089 197.535 130.585 197.707 131.097 197.713C131.609 197.719 132.109 197.559 132.522 197.257C132.932 196.972 133.23 196.554 133.367 196.074C133.417 195.84 133.451 195.603 133.469 195.364L133.604 193.539C133.638 193.235 132.894 193.336 132.86 193.641Z" fill="white"/>
<path d="M120.862 207.937L121.064 209.018C121.177 209.438 121.189 209.878 121.098 210.303C121.052 210.443 120.976 210.573 120.878 210.684C120.779 210.794 120.658 210.883 120.524 210.945L120.355 211.013C120.456 210.979 120.321 211.013 120.287 211.013H120.186C120.034 211.011 119.884 210.976 119.746 210.911C119.587 210.842 119.444 210.741 119.328 210.612C119.211 210.484 119.123 210.332 119.07 210.168C119.011 210.061 118.965 209.948 118.935 209.83L118.496 208.613C118.394 208.309 117.651 208.545 117.752 208.816L118.192 209.999C118.225 210.134 118.293 210.269 118.327 210.404C118.484 210.784 118.771 211.096 119.138 211.283C119.538 211.472 119.99 211.525 120.423 211.433C120.856 211.342 121.248 211.111 121.538 210.776C121.774 210.465 121.904 210.085 121.909 209.694C121.903 209.501 121.881 209.309 121.842 209.12L121.571 207.734C121.538 207.464 120.794 207.633 120.862 207.937Z" fill="white"/>
<path d="M274.711 198.744L274.441 199.791C274.339 200.197 274.272 200.636 273.967 200.907C273.882 200.998 273.776 201.066 273.658 201.108C273.541 201.149 273.415 201.161 273.291 201.143C272.986 201.101 272.708 200.944 272.514 200.704C272.41 200.578 272.332 200.432 272.286 200.275C272.24 200.118 272.225 199.954 272.244 199.791V199.453L272.379 198.203C272.413 197.865 271.669 198 271.635 198.271L271.534 199.487C271.506 199.632 271.495 199.779 271.5 199.927C271.479 200.12 271.498 200.317 271.557 200.503C271.615 200.689 271.711 200.861 271.838 201.008C272.117 201.307 272.487 201.505 272.89 201.572C273.294 201.64 273.708 201.572 274.069 201.38C274.45 201.219 274.753 200.916 274.914 200.535C274.985 200.371 275.042 200.202 275.083 200.028L275.421 198.676C275.522 198.372 274.779 198.473 274.711 198.744Z" fill="white"/>
<path d="M259.738 193.505C260.481 194.553 262.07 194.553 262.949 193.606C263.827 192.66 263.422 191.105 262.949 189.956C262.906 189.882 262.839 189.824 262.759 189.793C262.679 189.763 262.591 189.76 262.509 189.787C262.374 189.821 262.137 189.99 262.205 190.159C262.577 191.072 263.05 192.187 262.509 193.133C262.4 193.315 262.247 193.466 262.064 193.573C261.881 193.679 261.673 193.737 261.462 193.742C261.249 193.735 261.041 193.68 260.854 193.58C260.666 193.481 260.504 193.339 260.38 193.167C260.177 192.863 259.501 193.167 259.738 193.505Z" fill="white"/>
<path d="M371.745 14.2061H215.936C212.259 14.2061 209.278 17.187 209.278 20.8643V110.983C209.278 114.661 212.259 117.642 215.936 117.642H371.745C375.422 117.642 378.403 114.661 378.403 110.983V20.8643C378.403 17.187 375.422 14.2061 371.745 14.2061Z" fill="#00244C"/>
<path d="M367.689 11.5024H211.88C208.203 11.5024 205.222 14.4834 205.222 18.1607V108.28C205.222 111.957 208.203 114.938 211.88 114.938H367.689C371.366 114.938 374.347 111.957 374.347 108.28V18.1607C374.347 14.4834 371.366 11.5024 367.689 11.5024Z" fill="url(#paint3_linear_137_15353)"/>
<path d="M362.731 44.9027L331.419 114.574L332.036 114.851L363.347 45.1798L362.731 44.9027Z" fill="#FDFFFF"/>
<path d="M352.497 44.8846L321.186 114.556L321.802 114.833L353.114 45.1617L352.497 44.8846Z" fill="#FDFFFF"/>
<path d="M332.049 44.8788L300.737 114.55L301.354 114.827L332.665 45.1559L332.049 44.8788Z" fill="#FDFFFF"/>
<path d="M342.263 44.8661L310.951 114.537L311.568 114.814L342.879 45.1432L342.263 44.8661Z" fill="#FDFFFF"/>
<path d="M321.815 44.8944L290.504 114.565L291.12 114.843L322.432 45.1715L321.815 44.8944Z" fill="#FDFFFF"/>
<path d="M343.456 114.384L342.847 114.08L370.055 53.4123C370.441 52.5715 370.607 51.646 370.536 50.7235C370.465 49.8009 370.16 48.9117 369.649 48.1398C369.132 47.3377 368.422 46.6788 367.583 46.2239C366.744 45.769 365.804 45.5329 364.85 45.5373H321.521C319.156 45.528 316.838 46.2025 314.847 47.4797C312.856 48.7569 311.277 50.5824 310.3 52.7363L282.653 114.384L282.045 114.08L309.691 52.4659C310.721 50.1932 312.385 48.2664 314.483 46.9172C316.582 45.5681 319.026 44.8542 321.521 44.8614H364.85C365.917 44.8584 366.968 45.1228 367.907 45.6306C368.846 46.1383 369.642 46.8732 370.224 47.768C370.79 48.637 371.127 49.6348 371.203 50.6689C371.28 51.703 371.094 52.7397 370.663 53.6827L343.456 114.384Z" fill="#FDFFFF"/>
<path d="M271.432 39.0817C285.593 45.3005 294.415 36.1074 294.415 36.1074L316.823 114.958H264.233L271.432 39.0817Z" fill="white"/>
<path d="M297.185 33.3025L306.547 33.1335C310.729 33.0687 314.844 34.1898 318.415 36.3671C321.986 38.5444 324.867 41.6888 326.724 45.436C335.343 62.9434 346.463 74.1644 358.089 91.8745C367.857 106.712 352.005 125.03 335.918 117.426C328.076 113.708 320.81 109.889 313.983 105.935L324.933 111.511L330.814 114.959H305.972L303.404 104.887L288.702 48.8834C292.757 45.3346 294.38 43.3067 294.414 36.1077C294.422 35.3722 294.716 34.6687 295.233 34.1454C295.75 33.6222 296.45 33.32 297.185 33.3025Z" fill="#C2D1EB"/>
<path d="M272.006 41.0085C272.411 44.1179 273.358 46.4161 275.014 47.5991V114.959H254.093L236.214 121.786C233.555 122.802 230.699 123.193 227.865 122.927C225.032 122.66 222.298 121.745 219.875 120.251C217.453 118.757 215.407 116.725 213.898 114.312C212.388 111.9 211.454 109.172 211.169 106.34C210.73 102.067 211.768 97.7733 214.11 94.1728L239.019 55.812C243.807 48.424 250.609 42.5602 258.622 38.913L263.894 36.5133C264.714 36.1342 265.612 35.9538 266.515 35.9867C267.418 36.0197 268.3 36.2651 269.09 36.703C269.881 37.1409 270.556 37.759 271.063 38.5071C271.57 39.2552 271.893 40.1121 272.006 41.0085Z" fill="#C2D1EB"/>
<path d="M326.218 113.032C321.047 110.7 312.091 103.028 311.685 102.724L311.55 102.588V102.386C313.949 92.7532 310.096 88.5622 310.063 88.5284L309.792 88.258L310.096 88.0215C313.736 85.1409 318.356 83.7948 322.973 84.2699L337.912 85.757L337.845 86.4329L322.906 84.9458C318.585 84.4993 314.257 85.7204 310.806 88.3594C311.651 89.4748 314.355 93.7671 312.26 102.318C313.51 103.366 321.757 110.261 326.488 112.39L326.218 113.032Z" fill="white"/>
<path d="M321.148 84.5064L316.484 55.6091L321.655 38.9805L322.331 39.1833L317.16 55.6429L321.824 84.4051L321.148 84.5064Z" fill="white"/>
<path d="M302.255 54.5614L288.567 49.2213L288.804 48.5792L301.275 53.4461L296.543 33.4039L297.186 33.2349L302.255 54.5614Z" fill="white"/>
<path d="M294.237 50.7866L293.584 50.9604L310.62 114.987L311.273 114.813L294.237 50.7866Z" fill="white"/>
<path d="M320.404 42.3266L319.965 41.8534C318.632 40.463 317.032 39.3569 315.26 38.6018C313.489 37.8467 311.582 37.4582 309.656 37.4597H297.928V36.7837H309.656C311.671 36.7796 313.666 37.1849 315.519 37.975C317.372 38.7652 319.046 39.9237 320.438 41.3803L320.911 41.8534L320.404 42.3266Z" fill="white"/>
<path d="M266.091 54.7641L268.457 36.5132L269.133 36.6146L266.97 53.2432L274.811 47.3286L275.217 47.8693L266.091 54.7641Z" fill="white"/>
<path d="M270.343 50.8948L270.145 79.1831L270.821 79.1878L271.019 50.8995L270.343 50.8948Z" fill="white"/>
<path d="M270.553 96.4033H269.877V114.955H270.553V96.4033Z" fill="white"/>
<path d="M250.678 80.2329L236.771 85.4048L237.007 86.0384L250.914 80.8665L250.678 80.2329Z" fill="white"/>
<path d="M254.295 115.229L253.924 114.688L265.178 107.084L267.781 97.8229C262.035 91.8744 262.373 83.9657 262.508 81.3632V80.7211L262.069 80.1465L270.89 81.3632V81.6674C270.89 81.7688 270.248 89.6437 274.642 93.4967L274.98 93.8009L268.457 97.9581L265.753 107.523L254.295 115.229ZM263.184 80.9576V81.397C263.049 83.9319 262.745 91.5702 268.22 97.2821L273.831 93.6995C269.978 89.9817 270.079 83.4925 270.147 81.9378L263.184 80.9576Z" fill="white"/>
<path d="M242.3 51.5608L241.717 51.9028L248.635 63.6945L249.218 63.3525L242.3 51.5608Z" fill="white"/>
<path d="M245.643 54.291L245.271 53.7165L263.387 42.1237L268.119 40.6704L268.322 41.3126L263.658 42.7321L245.643 54.291Z" fill="white"/>
<path d="M311.685 102.69L307.156 98.6004L307.223 98.3976C308.136 95.2544 307.899 92.4491 306.547 90.3199C305.952 89.377 305.141 88.5892 304.181 88.0216L302.627 87.2104L310.366 87.954L310.299 88.63L305.533 88.1906C307.054 89.5087 309.521 92.6519 307.933 98.3976L312.158 102.217L311.685 102.69Z" fill="white"/>
<path d="M289.716 99.479H267.679L268.152 97.7215L274.371 93.7672L270.518 81.6337L260.379 80.1804L260.21 67.2695C260.201 66.4326 260.522 65.626 261.104 65.0248C261.687 64.4236 262.483 64.0764 263.319 64.0587L288.634 63.7207C288.915 63.7206 289.185 63.8299 289.387 64.0254C289.589 64.221 289.707 64.4875 289.716 64.7684V99.479Z" fill="#FF7C01"/>
<path d="M291.845 92.2463H290.966V66.1204C290.966 65.9591 290.902 65.8043 290.788 65.6902C290.674 65.5761 290.519 65.5121 290.358 65.5121H289.716V64.6333H290.358C290.752 64.6333 291.131 64.79 291.41 65.0689C291.688 65.3478 291.845 65.726 291.845 66.1204V92.2463Z" fill="#FF7C01"/>
<path d="M270.519 81.6339C270.519 81.6339 270.113 90.2186 274.372 93.7674L282.821 90.0496C284.599 88.9845 286.601 88.348 288.668 88.1907C290.696 88.0217 291.71 88.4611 291.947 89.4075V78.0851C291.939 77.7586 291.821 77.4443 291.612 77.1929C291.404 76.9415 291.117 76.7676 290.798 76.6994C289.074 76.3952 285.795 77.105 282.348 77.9161V76.3952C282.347 76.1725 282.282 75.9547 282.163 75.7669C282.043 75.5791 281.873 75.4289 281.671 75.3336C281.47 75.2383 281.246 75.2017 281.025 75.228C280.804 75.2544 280.595 75.3427 280.422 75.4827L270.519 81.6339Z" fill="#FFB000"/>
<path d="M304.35 87.7173L292.081 88.5284C291.877 88.5461 291.68 88.6151 291.51 88.7292C291.339 88.8432 291.2 88.9984 291.106 89.1806C291.012 89.3627 290.965 89.5657 290.97 89.7708C290.975 89.9759 291.032 90.1763 291.135 90.3535C291.574 91.0633 292.386 91.6379 293.771 91.2999L289.648 92.9898C288.546 93.4178 287.561 94.1012 286.775 94.9839L283.869 98.2961C283.714 98.4631 283.598 98.6619 283.529 98.8786C283.46 99.0952 283.439 99.3245 283.468 99.5501C283.497 99.7757 283.575 99.9922 283.697 100.184C283.819 100.376 283.981 100.539 284.173 100.662C284.476 100.869 284.842 100.962 285.207 100.925C285.572 100.888 285.912 100.723 286.167 100.459L288.634 98.0257C289.158 97.5043 289.763 97.0706 290.425 96.7414L293.771 95.0177L289.411 97.2483L285.051 101.372C284.891 101.527 284.762 101.712 284.674 101.916C284.585 102.121 284.538 102.341 284.535 102.564C284.531 102.788 284.573 103.009 284.655 103.216C284.738 103.423 284.861 103.612 285.018 103.771C285.312 104.076 285.713 104.253 286.136 104.266C286.559 104.279 286.97 104.125 287.282 103.839L290.594 100.899C290.902 100.603 291.242 100.342 291.608 100.121L295.833 97.5187L291.068 100.459L288.871 102.419C288.714 102.562 288.588 102.736 288.501 102.93C288.414 103.123 288.368 103.332 288.364 103.544C288.361 103.756 288.401 103.967 288.483 104.163C288.564 104.359 288.684 104.536 288.837 104.684C289.123 104.945 289.497 105.09 289.885 105.09C290.272 105.09 290.646 104.945 290.932 104.684L293.264 102.453L297.996 99.3776L295.36 103.095C295.263 103.235 295.196 103.393 295.164 103.56C295.132 103.727 295.135 103.899 295.173 104.064C295.211 104.23 295.284 104.385 295.386 104.521C295.488 104.657 295.617 104.77 295.765 104.853C296.018 104.996 296.314 105.044 296.599 104.988C296.884 104.933 297.14 104.777 297.32 104.549L301.646 99.0734L307.561 98.4989C307.561 98.4989 310.028 90.7929 304.35 87.7173Z" fill="#FFB000"/>
<path d="M282.382 69.9058H267.646V72.6502H282.382V69.9058Z" fill="white"/>
<path d="M292.388 18.0257C292.388 23.4333 286.439 29.5846 281.032 29.5846C275.624 29.5846 268.729 26.5428 268.729 21.1351C268.729 15.7274 275.658 10.0493 281.032 10.0493C286.405 10.0493 292.388 12.6518 292.388 18.0257Z" fill="#FFB000"/>
<path d="M277.043 14.4092C280.321 17.0793 283.194 17.2483 288.196 16.4371C288.453 16.6789 288.724 16.9046 289.008 17.1131C289.598 17.0314 290.199 17.1636 290.701 17.4859C291.203 17.8082 291.573 18.2993 291.745 18.8706C292.354 20.8647 291.306 22.0476 289.345 22.6222L287.588 27.0159L296.95 25.4612C301.513 24.7176 304.048 19.6817 301.817 15.6598C301.066 14.2867 299.921 13.17 298.529 12.4532C297.138 11.7364 295.564 11.4524 294.01 11.6378C294.043 2.41093 282.991 -0.5295 278.294 6.4667C269.675 0.653432 260.955 9.67751 264.673 17.3497C262.206 17.7214 260.55 18.972 259.603 20.6281C256.798 25.4612 261.124 31.3421 266.633 30.4633L276.232 28.8748L272.953 25.3936C271.365 26.4075 269.979 22.5546 271.568 21.5068L271.973 18.5326C274.373 17.8904 276.063 16.5047 277.043 14.4092Z" fill="#00244C"/>
<path d="M271.906 20.4589C271.876 20.5339 271.864 20.6151 271.872 20.6955C271.436 20.9804 271.098 21.3928 270.904 21.8766C270.711 22.3604 270.671 22.8921 270.79 23.3993C270.908 23.9111 271.177 24.3755 271.563 24.7314C271.949 25.0873 272.434 25.318 272.954 25.3934C273.861 27.0192 275.261 28.3161 276.95 29.0981C278.64 29.8802 280.534 30.1075 282.361 29.7473C284.188 29.3872 285.855 28.4581 287.121 27.0932C288.388 25.7283 289.19 23.9975 289.413 22.1488H289.717C290.338 22.044 290.901 21.7206 291.303 21.2371C291.706 20.7536 291.923 20.1419 291.914 19.5126C291.894 19.1338 291.792 18.7641 291.614 18.4291C291.436 18.0942 291.187 17.8022 290.884 17.5737C290.581 17.3451 290.232 17.1854 289.862 17.1058C289.491 17.0262 289.107 17.0286 288.737 17.1129L288.501 17.1805" fill="#FFB000"/>
<path d="M282.113 24.7173C281.908 25.0002 281.63 25.222 281.308 25.3589C280.987 25.4959 280.634 25.5428 280.288 25.4946" fill="#D0DBF0"/>
<path d="M282.045 24.5151C281.823 24.7438 281.56 24.9275 281.268 25.0558C280.95 25.1502 280.619 25.1958 280.288 25.191C280.153 25.191 280.153 25.4276 280.153 25.4952C280.153 25.5628 280.186 25.7656 280.288 25.7994C280.464 25.8453 280.648 25.8567 280.829 25.8332L281.336 25.6642C281.686 25.5245 281.982 25.2756 282.18 24.9544C282.211 24.898 282.23 24.8359 282.236 24.772C282.241 24.7081 282.234 24.6437 282.214 24.5827C282.18 24.5151 282.113 24.4137 282.045 24.5151Z" fill="#020202"/>
<path d="M277.077 14.1727C277.314 14.8824 278.091 15.5246 278.666 15.9302C279.372 16.4353 280.161 16.8127 280.998 17.0455C281.911 17.2656 282.86 17.2859 283.782 17.1051C284.704 16.9243 285.575 16.5465 286.338 15.9978C286.439 15.964 286.405 15.6598 286.304 15.6936C284.787 16.6823 282.941 17.0344 281.167 16.6737C280.343 16.5032 279.562 16.17 278.868 15.6936C278.506 15.4833 278.175 15.2215 277.888 14.9162C277.652 14.6796 277.381 14.2403 277.111 14.1051C276.84 13.9699 277.077 14.1727 277.077 14.1727Z" fill="#020202"/>
<path d="M276.908 14.3754C277.071 14.96 277.082 15.5764 276.942 16.1667C276.766 16.7388 276.439 17.2527 275.995 17.6538C275.523 18.0339 274.966 18.2938 274.372 18.4116C273.777 18.5293 273.163 18.5012 272.582 18.3298C272.48 18.296 272.48 18.5664 272.582 18.6002C273.047 18.7707 273.543 18.838 274.037 18.7973C274.531 18.7566 275.01 18.6089 275.441 18.3645C275.872 18.1201 276.244 17.7848 276.533 17.382C276.821 16.9791 277.018 16.5183 277.111 16.0315C277.243 15.4426 277.183 14.827 276.942 14.274C276.908 14.2064 276.908 14.3416 276.908 14.3754Z" fill="#020202"/>
<path d="M278.429 6.43281C278.293 3.59377 281.031 0.484353 283.971 0.619545C286.912 0.754737 288.94 4.16834 289.92 6.87219C289.987 7.10877 290.089 6.80459 290.055 6.7032C289.278 4.30353 288.061 1.70108 285.594 0.653343C283.126 -0.394397 280.963 0.788535 279.544 2.68123C278.767 3.76276 278.192 5.11469 278.327 6.46661C278.361 6.568 278.429 6.50041 278.429 6.43281Z" fill="#020202"/>
<path d="M264.741 17.4169C264.538 16.4029 263.457 15.9298 262.51 15.7946C261.976 15.7323 261.434 15.778 260.917 15.9289C260.4 16.0799 259.919 16.333 259.502 16.6733C259.435 16.7409 259.468 17.0451 259.536 16.9775C260.329 16.3763 261.315 16.0876 262.307 16.1664C263.254 16.234 264.268 16.6057 264.673 17.5521C264.707 17.6535 264.775 17.4507 264.741 17.4169Z" fill="#020202"/>
<path d="M296.748 16.1664C296.551 16.2491 296.393 16.4031 296.306 16.5974C296.218 16.7917 296.207 17.012 296.275 17.2141C296.345 17.4243 296.492 17.6004 296.686 17.7069C296.88 17.8134 297.108 17.8427 297.322 17.7887C297.564 17.683 297.757 17.4899 297.863 17.2479C297.868 17.1786 297.857 17.1091 297.829 17.0451C297.829 17.0113 297.796 17.0113 297.762 17.0451C297.713 17.1467 297.643 17.2359 297.555 17.3062C297.467 17.3764 297.364 17.4258 297.255 17.4507C297.145 17.4815 297.029 17.4853 296.917 17.4618C296.805 17.4382 296.701 17.3881 296.613 17.3155C296.531 17.2692 296.464 17.1994 296.422 17.1151C296.38 17.0308 296.364 16.9358 296.376 16.8423C296.403 16.7378 296.454 16.6409 296.524 16.5589C296.594 16.4769 296.682 16.412 296.782 16.3692C296.849 16.3354 296.849 16.1326 296.748 16.1664Z" fill="white"/>
<path d="M271.568 8.86636C271.678 8.93393 271.77 9.02807 271.835 9.14022C271.9 9.25237 271.936 9.37898 271.939 9.50853C271.916 9.64706 271.852 9.7756 271.756 9.87788C271.66 9.98016 271.535 10.0516 271.399 10.0831C271.331 10.1169 271.331 10.3535 271.399 10.3535C271.587 10.3233 271.76 10.23 271.889 10.0888C272.018 9.94763 272.095 9.76688 272.108 9.57612C272.125 9.38663 272.081 9.19682 271.984 9.03321C271.887 8.8696 271.742 8.74036 271.568 8.66357C271.5 8.66357 271.5 8.86636 271.568 8.86636Z" fill="white"/>
<path d="M264.571 24.481C264.518 24.6456 264.519 24.823 264.574 24.9872C264.628 25.1514 264.734 25.2937 264.876 25.3935C265.05 25.5039 265.245 25.5761 265.449 25.6052C265.653 25.6343 265.861 25.6198 266.059 25.5625C266.16 25.5287 266.16 25.2921 266.059 25.2921C265.709 25.3546 265.349 25.3314 265.011 25.2245C264.774 25.1231 264.538 24.8527 264.639 24.5824V24.481H264.571Z" fill="white"/>
<path d="M158.58 40.231H6.65749C2.98025 40.231 -0.000732422 43.2119 -0.000732422 46.8892V135.988C-0.000732422 139.665 2.98025 142.646 6.65749 142.646H158.58C162.257 142.646 165.238 139.665 165.238 135.988V46.8892C165.238 43.2119 162.257 40.231 158.58 40.231Z" fill="url(#paint4_linear_137_15353)"/>
<path d="M163.954 44.7261H12.0313C8.35403 44.7261 5.37305 47.7071 5.37305 51.3843V140.483C5.37305 144.16 8.35403 147.141 12.0313 147.141H163.954C167.631 147.141 170.612 144.16 170.612 140.483V51.3843C170.612 47.7071 167.631 44.7261 163.954 44.7261Z" fill="white"/>
<path d="M128.668 71.3249C140.323 75.0359 150.769 81.8054 158.917 90.9278L177.27 112.052C178.728 113.736 179.826 115.701 180.496 117.826C181.167 119.951 181.395 122.191 181.167 124.407C180.939 126.623 180.26 128.769 179.171 130.713C178.082 132.657 176.607 134.358 174.836 135.71C171.546 138.234 167.418 139.409 163.292 138.994C159.166 138.58 155.353 136.608 152.631 133.48L136.104 114.553L135.563 147.168H67.9669V135.203L58.2669 135.44C44.2407 135.778 36.1629 119.622 44.8828 108.638L65.9728 81.9713C70.853 75.8226 77.3499 71.1552 84.7346 68.4926C92.1194 65.8301 100.1 65.2777 107.781 66.8974L128.668 71.3249Z" fill="url(#paint5_linear_137_15353)"/>
<mask id="mask0_137_15353" style="mask-type:luminance" maskUnits="userSpaceOnUse" x="41" y="65" width="141" height="83">
<path d="M128.667 71.3249C140.322 75.0359 150.768 81.8054 158.916 90.9278L177.269 112.052C178.727 113.736 179.825 115.701 180.495 117.826C181.166 119.951 181.394 122.191 181.166 124.407C180.938 126.623 180.259 128.769 179.17 130.713C178.081 132.657 176.606 134.358 174.835 135.71C171.545 138.234 167.417 139.409 163.291 138.994C159.165 138.58 155.352 136.608 152.63 133.48L136.103 114.553L135.562 147.168H67.9659V135.203L58.2659 135.44C44.2397 135.778 36.162 119.622 44.8818 108.638L65.9718 81.9713C70.8521 75.8226 77.3489 71.1552 84.7337 68.4926C92.1184 65.8301 100.099 65.2777 107.78 66.8974L128.667 71.3249Z" fill="white"/>
</mask>
<g mask="url(#mask0_137_15353)">
<g opacity="0.32">
<path d="M95.5783 67.0327C95.5789 72.0922 94.0492 77.0336 91.19 81.2077C88.3309 85.3819 84.276 88.5936 79.5581 90.421C74.6176 92.3645 69.1696 92.6024 64.0786 91.097C59.2321 89.6204 54.9456 86.7125 51.7822 82.7551C48.6187 78.7978 46.7262 73.9761 46.3533 68.9235C45.9804 63.8709 47.1445 58.8236 49.6927 54.4447C52.2409 50.0658 56.054 46.5601 60.6311 44.388C65.3953 42.1152 70.772 41.4624 75.9417 42.5291C80.8726 43.6354 85.3566 46.1997 88.8105 49.8887C92.2644 53.5776 94.5284 58.2205 95.308 63.2135C95.4988 64.4775 95.5892 65.7545 95.5783 67.0327C95.8537 67.1052 96.1399 67.1281 96.4233 67.1003C96.4398 61.8801 94.8225 56.7856 91.7981 52.5308C88.7737 48.276 84.4937 45.0742 79.5581 43.3741C74.5733 41.6379 69.1842 41.4261 64.0786 42.7657C59.064 44.1014 54.5856 46.9559 51.2575 50.9375C47.9294 54.9191 45.9146 59.8329 45.4896 65.0048C45.0639 70.232 46.2855 75.4613 48.9828 79.959C51.6802 84.4566 55.718 87.9969 60.5298 90.083C65.3681 92.139 70.7043 92.7267 75.8741 91.7729C80.9792 90.8425 85.6692 88.3492 89.2959 84.6377C92.9226 80.9263 95.3068 76.1799 96.1191 71.0547C96.3224 69.7464 96.4241 68.4243 96.4233 67.1003C96.4233 66.9989 95.5783 66.9989 95.5783 67.0327Z" fill="white"/>
</g>
<g opacity="0.32">
<path d="M56.7448 112.761C56.7404 114.708 56.1604 116.61 55.0779 118.227C53.9955 119.845 52.4588 121.106 50.6612 121.853C46.9772 123.34 42.4482 122.495 39.8796 119.386C38.6214 117.854 37.8627 115.974 37.7056 113.998C37.5485 112.022 38.0005 110.045 39.0008 108.334C39.9976 106.635 41.4797 105.274 43.2565 104.425C45.0333 103.575 47.0236 103.277 48.9713 103.568C50.8986 103.868 52.6807 104.773 54.0599 106.152C55.4391 107.531 56.3439 109.313 56.6434 111.24C56.7108 111.745 56.7447 112.253 56.7448 112.761C56.7448 112.998 57.4208 113.404 57.4208 113.268C57.3752 111.196 56.7278 109.183 55.5576 107.472C54.3874 105.762 52.7448 104.429 50.8302 103.636C48.8895 102.813 46.7375 102.629 44.6852 103.11C42.6329 103.59 40.7867 104.711 39.4133 106.31C38.04 107.909 37.2108 109.904 37.0455 112.005C36.8802 114.106 37.3874 116.206 38.4939 118C40.6569 121.583 44.8817 123.746 49.0727 123.07C51.1173 122.718 53.0036 121.744 54.4736 120.28C55.9436 118.816 56.9257 116.934 57.2856 114.891C57.3642 114.353 57.4094 113.811 57.4208 113.268C57.4208 113.032 56.7448 112.626 56.7448 112.761Z" fill="white"/>
</g>
<g opacity="0.32">
<path d="M89.056 116.04C89.0368 116.904 88.7594 117.742 88.2594 118.447C87.7594 119.152 87.0598 119.691 86.2508 119.994C85.4354 120.288 84.5491 120.321 83.7139 120.09C82.8787 119.859 82.1357 119.375 81.5872 118.704C81.0386 118.033 80.7115 117.209 80.6509 116.344C80.5903 115.48 80.7991 114.618 81.2486 113.877C81.7103 113.149 82.3772 112.574 83.1653 112.226C83.9533 111.877 84.8271 111.769 85.6762 111.917C86.6276 112.111 87.4831 112.627 88.0987 113.378C88.7142 114.129 89.0523 115.069 89.056 116.04C89.056 116.547 89.8333 116.615 89.8333 116.074C89.8173 115.049 89.4971 114.052 88.9134 113.21C88.3297 112.367 87.5088 111.717 86.5549 111.342C85.5857 110.983 84.5291 110.934 83.5305 111.2C82.5319 111.466 81.6403 112.036 80.9783 112.829C80.3255 113.641 79.9367 114.633 79.8642 115.672C79.7917 116.711 80.0389 117.748 80.5727 118.642C81.1253 119.591 81.9766 120.33 82.9935 120.743C84.0103 121.157 85.1356 121.222 86.1934 120.929C87.2513 120.635 88.1822 120 88.8407 119.121C89.4992 118.243 89.8483 117.171 89.8333 116.074C89.8333 115.567 89.056 115.499 89.056 116.04Z" fill="white"/>
</g>
<g opacity="0.32">
<path d="M67.5933 136.927C67.5923 138.718 67.0582 140.468 66.059 141.955C65.0599 143.442 63.6409 144.597 61.9828 145.275C58.5692 146.627 54.5135 145.714 52.1814 142.842C51.0434 141.447 50.359 139.739 50.22 137.944C50.0811 136.15 50.4942 134.356 51.4041 132.804C52.3192 131.245 53.6826 129.999 55.3164 129.228C56.9502 128.456 58.7787 128.195 60.5633 128.477C62.5384 128.841 64.3235 129.886 65.6079 131.43C66.8924 132.973 67.5949 134.919 67.5933 136.927C67.5933 137.231 68.3369 137.637 68.3369 137.332C68.3187 135.406 67.7271 133.528 66.6376 131.939C65.5481 130.35 64.01 129.121 62.2194 128.41C60.4172 127.666 58.4262 127.511 56.5303 127.965C54.6344 128.419 52.9302 129.46 51.6605 130.939C50.3908 132.419 49.6204 134.261 49.459 136.204C49.2977 138.147 49.7536 140.091 50.7619 141.76C51.7637 143.422 53.2364 144.749 54.9933 145.574C56.7502 146.398 58.7123 146.682 60.6309 146.39C62.5195 146.063 64.2606 145.16 65.6159 143.805C66.9712 142.449 67.8744 140.708 68.2017 138.82C68.2984 138.33 68.3437 137.832 68.3369 137.332C68.3369 136.994 67.5933 136.623 67.5933 136.927Z" fill="white"/>
</g>
<g opacity="0.32">
<path d="M101.596 145.816C101.612 148.264 100.866 150.657 99.4613 152.663C98.0564 154.668 96.0622 156.187 93.7553 157.008C91.4485 157.829 88.9433 157.911 86.5873 157.244C84.2313 156.577 82.1413 155.194 80.6072 153.285C79.0592 151.375 78.1297 149.039 77.9425 146.588C77.7553 144.136 78.3193 141.686 79.5595 139.563C80.831 137.48 82.7141 135.84 84.952 134.866C87.1899 133.892 89.6737 133.632 92.0647 134.122C94.4296 134.633 96.5877 135.839 98.262 137.585C99.9362 139.332 101.05 141.539 101.461 143.923C101.556 144.549 101.601 145.182 101.596 145.816C101.596 146.323 102.407 146.12 102.373 145.714C102.371 143.132 101.575 140.612 100.094 138.497C98.6133 136.381 96.5183 134.771 94.0926 133.885C91.6236 133.027 88.9514 132.942 86.433 133.643C83.9146 134.343 81.6699 135.796 79.9988 137.806C78.3273 139.805 77.3204 142.276 77.1181 144.875C76.9159 147.473 77.5284 150.07 78.8704 152.304C80.2124 154.538 82.2173 156.299 84.6062 157.341C86.9952 158.383 89.6494 158.655 92.1999 158.118C94.7256 157.581 97.0322 156.299 98.8216 154.437C100.611 152.575 101.801 150.22 102.238 147.675C102.333 147.026 102.379 146.37 102.373 145.714C102.407 145.207 101.596 145.41 101.596 145.816Z" fill="white"/>
</g>
<g opacity="0.32">
<path d="M142.694 122.495C146.851 125.233 148.811 130.505 147.662 135.338C147.08 137.713 145.805 139.861 144 141.51C142.195 143.159 139.94 144.234 137.523 144.599C135.042 144.969 132.508 144.515 130.31 143.306C128.112 142.098 126.371 140.201 125.356 137.907C124.367 135.677 124.058 133.206 124.467 130.801C124.875 128.396 125.984 126.166 127.654 124.388C131.034 120.873 136.509 119.622 141.038 121.583C141.618 121.833 142.173 122.139 142.694 122.495C142.762 122.529 143.1 122.732 143.201 122.664C143.302 122.597 143.066 122.428 142.998 122.394C138.638 119.555 132.859 119.453 128.566 122.563C126.484 124.099 124.935 126.248 124.135 128.708C123.335 131.169 123.325 133.818 124.105 136.285C125.727 141.253 130.459 144.802 135.664 145.14C138.23 145.298 140.781 144.652 142.961 143.29C145.141 141.928 146.841 139.919 147.824 137.544C148.807 135.169 149.023 132.546 148.443 130.042C147.862 127.538 146.514 125.277 144.587 123.577C144.095 123.135 143.563 122.739 142.998 122.394C142.931 122.326 142.593 122.123 142.525 122.225C142.457 122.326 142.626 122.461 142.694 122.495Z" fill="white"/>
</g>
<g opacity="0.32">
<path d="M169.732 80.4845C171.756 81.8324 173.336 83.7482 174.274 85.9911C175.212 88.234 175.466 90.7041 175.005 93.0912C174.528 95.5693 173.273 97.8306 171.422 99.5466C169.619 101.215 167.313 102.238 164.865 102.453C162.414 102.688 159.949 102.177 157.793 100.988C155.637 99.799 153.889 97.987 152.779 95.789C151.669 93.591 151.249 91.1092 151.572 88.6681C151.895 86.227 152.947 83.9403 154.591 82.1068C157.971 78.389 163.547 77.5103 168.076 79.5719C168.659 79.8161 169.215 80.1221 169.732 80.4845C169.901 80.5859 170.442 80.0451 170.442 80.0113C168.25 78.6032 165.677 77.9068 163.074 78.0172C160.563 78.1747 158.149 79.0421 156.112 80.5183C153.972 81.9862 152.351 84.0932 151.481 86.5379C150.611 88.9827 150.536 91.6399 151.267 94.1298C151.998 96.6196 153.498 98.8144 155.552 100.4C157.606 101.986 160.109 102.882 162.702 102.96C165.254 102.99 167.761 102.286 169.924 100.932C172.087 99.5775 173.815 97.6303 174.903 95.3218C175.936 92.9686 176.214 90.3534 175.699 87.8357C175.185 85.3181 173.903 83.0215 172.031 81.2618C171.524 80.8162 170.994 80.3988 170.442 80.0113C170.273 79.9099 169.699 80.4507 169.732 80.4845Z" fill="white"/>
</g>
<g opacity="0.32">
<path d="M142.118 71.7984C142.968 72.3617 143.634 73.1605 144.037 74.097C144.439 75.0336 144.559 76.0671 144.383 77.0709C144.212 78.0799 143.723 79.0079 142.987 79.7193C142.251 80.4307 141.307 80.8883 140.293 81.0253C139.272 81.1195 138.245 80.9077 137.344 80.4168C136.443 79.9259 135.709 79.1781 135.234 78.2686C134.759 77.3591 134.566 76.3289 134.679 75.3092C134.791 74.2894 135.204 73.3262 135.866 72.542C137.454 70.7169 140.124 70.5479 142.118 71.7984C142.355 71.9336 143.031 71.4942 142.794 71.359C141.815 70.7435 140.675 70.434 139.519 70.4701C138.363 70.5062 137.244 70.8864 136.305 71.5618C135.355 72.2095 134.63 73.1364 134.231 74.2143C133.831 75.2921 133.776 76.4676 134.074 77.5779C134.388 78.6937 135.049 79.6811 135.96 80.3978C136.871 81.1145 137.986 81.5235 139.144 81.5661C140.299 81.5941 141.439 81.2908 142.427 80.6918C143.415 80.0929 144.211 79.2234 144.721 78.1862C145.269 77.0059 145.376 75.6682 145.023 74.4156C144.67 73.163 143.879 72.0786 142.794 71.359C142.592 71.19 141.882 71.6294 142.118 71.7984Z" fill="white"/>
</g>
<g opacity="0.32">
<path d="M183.658 126.619C185.707 127.96 187.297 129.897 188.214 132.168C189.131 134.44 189.33 136.938 188.785 139.326C188.241 141.714 186.978 143.879 185.167 145.528C183.356 147.178 181.084 148.234 178.655 148.554C176.203 148.823 173.728 148.328 171.568 147.136C169.408 145.944 167.669 144.114 166.59 141.895C165.544 139.681 165.192 137.203 165.578 134.785C165.964 132.367 167.07 130.121 168.753 128.342C170.428 126.603 172.595 125.418 174.964 124.947C177.332 124.476 179.788 124.741 182.001 125.706C182.584 125.95 183.14 126.256 183.658 126.619C183.749 126.676 183.854 126.706 183.962 126.706C184.069 126.706 184.175 126.676 184.266 126.619C184.401 126.517 184.435 126.348 184.266 126.247C182.095 124.828 179.545 124.098 176.952 124.152C174.359 124.207 171.843 125.043 169.733 126.551C167.644 128.085 166.079 130.226 165.251 132.681C164.422 135.136 164.37 137.787 165.102 140.273C165.886 142.753 167.409 144.934 169.469 146.523C171.528 148.112 174.024 149.033 176.622 149.162C179.22 149.291 181.795 148.621 184.001 147.244C186.207 145.866 187.939 143.847 188.964 141.456C189.931 139.076 190.149 136.458 189.587 133.951C189.025 131.444 187.711 129.169 185.821 127.43C185.34 126.988 184.82 126.592 184.266 126.247C183.996 126.044 183.252 126.315 183.658 126.619Z" fill="white"/>
</g>
</g>
<path d="M111.735 145.883L111.127 145.613C111.127 145.579 113.864 138.853 114.878 119.96C115.892 101.067 118.664 75.3807 118.697 75.1104L119.373 75.2117C119.34 75.4483 116.602 101.033 115.554 119.994C114.507 138.955 111.836 145.613 111.735 145.883Z" fill="white"/>
<path d="M157.092 84.1003L136.543 83.4243L114.202 78.9292L109.167 112.998L130.594 118.372H152.428L157.092 84.1003Z" fill="#FF7C01"/>
<path d="M120.084 75.5159C119.295 75.503 118.511 75.3894 117.752 75.1779C115.521 74.5695 113.493 72.981 111.803 70.6151C111.055 69.5454 110.442 68.3875 109.978 67.1677L110.62 66.9312C110.62 66.9987 112.918 73.1162 117.954 74.5357C121.131 75.4145 124.782 74.2653 128.736 71.0545L129.175 71.5953C125.931 74.1977 122.889 75.5159 120.084 75.5159Z" fill="white"/>
<path d="M163.345 111.071L159.56 103.94L154.761 101.135L154.355 104.075L143.033 103.129C142.841 103.115 142.648 103.14 142.466 103.203C142.284 103.266 142.117 103.366 141.975 103.495C141.833 103.625 141.718 103.782 141.639 103.957C141.559 104.133 141.516 104.322 141.512 104.515C141.509 104.864 141.635 105.201 141.866 105.463C142.097 105.725 142.416 105.893 142.762 105.934L151.448 106.982L140.937 105.698C140.727 105.674 140.514 105.705 140.319 105.786C140.124 105.867 139.953 105.996 139.821 106.162C139.689 106.327 139.602 106.523 139.566 106.732C139.531 106.94 139.549 107.154 139.619 107.354H139.653C139.719 107.563 139.843 107.751 140.011 107.894C140.178 108.037 140.382 108.131 140.599 108.165L151.448 110.125L142.965 108.604C142.794 108.574 142.619 108.586 142.454 108.639C142.288 108.691 142.138 108.782 142.015 108.905C141.893 109.028 141.801 109.178 141.749 109.343C141.697 109.508 141.685 109.684 141.715 109.855C141.752 110.065 141.854 110.258 142.005 110.409C142.156 110.56 142.349 110.662 142.559 110.7L150.333 112.39L144.824 112.187C144.629 112.182 144.437 112.231 144.269 112.33C144.101 112.428 143.964 112.571 143.872 112.743C143.781 112.915 143.74 113.109 143.753 113.303C143.765 113.498 143.832 113.684 143.945 113.843C144.101 114.054 144.33 114.198 144.587 114.248L151.448 115.702L156.113 122.056C156.113 122.056 162.433 121.515 163.345 111.071Z" fill="#FFB000"/>
<path d="M99.8043 103.365L105.989 98.0929L111.465 97.2817L111.262 100.29L121.638 103.399C121.825 103.46 121.997 103.558 122.145 103.687C122.293 103.816 122.413 103.974 122.499 104.15C122.584 104.327 122.632 104.52 122.641 104.716C122.65 104.912 122.619 105.108 122.55 105.292C122.421 105.616 122.178 105.881 121.866 106.036C121.555 106.192 121.197 106.228 120.86 106.137L112.377 103.94L122.618 106.576C122.825 106.628 123.014 106.732 123.17 106.879C123.325 107.025 123.44 107.208 123.504 107.411C123.568 107.614 123.58 107.831 123.537 108.039C123.494 108.248 123.399 108.443 123.26 108.604H123.226C123.079 108.775 122.888 108.903 122.674 108.975C122.46 109.046 122.23 109.058 122.01 109.01L111.228 106.847L119.678 108.503C119.848 108.537 120.007 108.612 120.142 108.721C120.278 108.83 120.385 108.97 120.454 109.129C120.524 109.288 120.554 109.462 120.542 109.635C120.531 109.809 120.478 109.977 120.387 110.125C120.277 110.306 120.115 110.451 119.923 110.541C119.731 110.631 119.516 110.663 119.306 110.632L111.465 109.314L116.636 111.173C116.82 111.231 116.984 111.34 117.109 111.489C117.233 111.637 117.312 111.818 117.337 112.01C117.362 112.202 117.332 112.397 117.249 112.572C117.167 112.747 117.036 112.895 116.872 112.998C116.656 113.149 116.389 113.209 116.129 113.167L109.166 112.018L103.083 116.073C103.083 116.073 96.83 113.403 99.8043 103.365Z" fill="#FFB000"/>
<path d="M175.816 120.231L174.092 118.372C173.255 117.48 172.245 116.768 171.124 116.28C170.002 115.792 168.792 115.537 167.569 115.533H167.265L163.108 111.308L163.615 110.835L167.569 114.857C168.881 114.861 170.178 115.133 171.381 115.656C172.584 116.179 173.668 116.942 174.565 117.899L176.289 119.758L175.816 120.231Z" fill="white"/>
<path d="M156.856 137.197L154.997 125.605L155.774 121.988L156.417 122.123L155.673 125.638L157.532 137.062L156.856 137.197Z" fill="white"/>
<path d="M156.247 125.977H155.301V125.301C159.39 125.605 162.601 123.982 164.866 120.535C165.898 118.881 166.641 117.064 167.063 115.161L167.705 115.296C167.738 115.364 165.778 125.977 156.247 125.977Z" fill="white"/>
<path d="M90.0873 90.3209L82.3533 101.244L82.9049 101.635L90.639 90.7115L90.0873 90.3209Z" fill="white"/>
<path d="M68.0684 135.541L67.8994 134.865L87.9079 129.255C92.2195 128.026 95.9855 125.368 98.5881 121.718L102.576 116.209C101.224 115.567 97.3037 112.863 99.3316 103.568L95.242 102.385C92.0993 101.47 88.7796 101.342 85.5758 102.014L68.5416 105.664L68.3726 105.022L85.4406 101.371C88.7535 100.672 92.1868 100.788 95.4448 101.709L100.143 103.095L100.075 103.399C97.6755 113.911 102.948 115.668 103.185 115.736L103.624 115.871L103.354 116.243L99.1626 122.123C96.4516 125.893 92.5442 128.633 88.0769 129.897L68.0684 135.541Z" fill="white"/>
<path d="M117.955 53.5811C117.853 53.8176 117.211 58.2114 117.211 58.2114C117.211 58.2114 115.656 58.2452 115.623 58.0424L115.116 54.7302C115.116 54.7302 111.601 56.6905 115.082 59.6647C115.082 59.6647 117.684 64.8696 112.344 63.5177C112.344 63.5177 110.62 65.816 107.545 63.7205C107.545 63.7205 104.909 63.2811 105.449 60.8138C105.449 60.8138 103.895 59.3943 104.74 57.6368C105.585 55.8793 109.1 56.7243 110.147 53.6824L117.955 53.5811Z" fill="#00244C"/>
<path d="M111.026 56.3187C111.162 57.7044 111.939 58.9211 113.325 58.9549H113.494C114.198 61.4307 115.833 63.538 118.056 64.8358L118.327 64.9709L118.8 65.2075L119.341 65.4441L119.746 65.6131L119.983 65.6807L120.219 65.7483L120.456 65.8159L120.726 65.8835L120.963 65.9511L121.571 66.0525H123.261C125.165 65.9921 127.01 65.3781 128.571 64.2856C130.132 63.1932 131.34 61.6696 132.049 59.9012C132.527 58.7324 132.768 57.4801 132.758 56.2173C132.764 55.9014 132.753 55.5855 132.725 55.2709C132.513 53.0115 131.525 50.8955 129.927 49.2838C128.33 47.6722 126.222 46.6647 123.965 46.4334C121.708 46.2021 119.44 46.7612 117.549 48.0154C115.658 49.2696 114.26 51.1411 113.595 53.3106C111.939 53.3106 110.891 54.595 111.026 56.3187Z" fill="#FFB000"/>
<path d="M127.046 53.9531C127.046 53.9531 126.1 57.6371 132.048 60.003C132.048 60.003 130.189 64.0249 127.587 65.0051C127.587 65.0051 131.203 68.6553 132.758 63.9573C132.758 63.9573 138.47 66.6274 135.867 59.6312C133.873 54.2235 127.046 53.9531 127.046 53.9531Z" fill="#00244C"/>
<path d="M110.079 53.7838C111.364 53.5473 126.742 53.0065 132.961 55.9131L131.744 50.911C130.764 46.7876 126.877 43.7796 122.247 43.543C117.988 43.3402 114.034 45.5709 112.31 49.1197L110.079 53.7838Z" fill="#FF7C01"/>
<path d="M118.8 53.649C118.8 53.649 118.361 55.1023 117.144 55.5417C116.694 55.7285 116.332 56.0787 116.13 56.5219L115.691 57.4006C115.609 57.5635 115.483 57.7005 115.328 57.796C115.173 57.8915 114.994 57.9419 114.812 57.9414C114.574 57.9345 114.348 57.8415 114.174 57.6799C113.999 57.5183 113.89 57.2989 113.866 57.0626L113.528 53.6152L118.8 53.649Z" fill="#00244C"/>
<path d="M124.714 62.4362L124.038 62.8756C123.778 63.0504 123.473 63.1445 123.159 63.146C122.852 63.1537 122.546 63.0976 122.261 62.9813C121.976 62.865 121.718 62.6909 121.503 62.47C121.368 62.3686 121.301 62.7066 121.301 62.7404C121.255 62.9339 121.279 63.1374 121.368 63.315C121.577 63.6166 121.862 63.857 122.195 64.0115C122.528 64.166 122.896 64.2289 123.261 64.1937C123.6 64.1409 123.923 64.014 124.207 63.822C124.347 63.7277 124.472 63.6139 124.579 63.484C124.719 63.3155 124.822 63.1199 124.883 62.9094C124.917 62.808 124.917 62.3686 124.714 62.4362Z" fill="#00244C"/>
<path d="M119.611 61.8616C121.179 61.8616 122.45 60.424 122.45 58.6508C122.45 56.8775 121.179 55.4399 119.611 55.4399C118.043 55.4399 116.772 56.8775 116.772 58.6508C116.772 60.424 118.043 61.8616 119.611 61.8616Z" fill="white"/>
<path d="M126.1 61.8616C127.5 61.8616 128.635 60.424 128.635 58.6508C128.635 56.8775 127.5 55.4399 126.1 55.4399C124.7 55.4399 123.565 56.8775 123.565 58.6508C123.565 60.424 124.7 61.8616 126.1 61.8616Z" fill="white"/>
<path d="M132.082 52.8039C126.066 49.9649 113.189 50.6071 111.567 50.9113L111.499 50.5733C113.155 50.2691 126.168 49.6269 132.251 52.4998L132.082 52.8039Z" fill="black"/>
<path d="M136.437 83.4506L130.457 118.431L130.79 118.488L136.77 83.5075L136.437 83.4506Z" fill="white"/>
<path d="M134.814 83.2635L128.834 118.244L129.168 118.301L135.147 83.3205L134.814 83.2635Z" fill="white"/>
<path d="M115.352 79.1661L115.69 77.1382L136.138 83.4246L155.538 82.7487L155.335 84.0668L136.138 83.4246L115.352 79.1661Z" fill="white"/>
<path d="M94.5661 55.812H5.37305V56.826H94.5661V55.812Z" fill="#00244C"/>
<path d="M117.211 77.6119L117.786 76.0234L136.138 83.4252L117.211 77.6119Z" fill="url(#paint6_linear_137_15353)"/>
<path d="M163.514 147.675H41.2664V146.661H163.514C165.262 146.661 166.938 145.967 168.174 144.731C169.41 143.495 170.105 141.818 170.105 140.07H171.118C171.118 142.087 170.317 144.021 168.891 145.448C167.465 146.874 165.531 147.675 163.514 147.675Z" fill="#00244C"/>
<path d="M5.37305 122.056V140.814C5.37302 142.493 6.03782 144.105 7.22214 145.295C8.40645 146.486 10.014 147.159 11.6933 147.168H41.2666" fill="white"/>
<path d="M41.267 147.675H11.6937C9.87987 147.666 8.14342 146.939 6.86403 145.654C5.58465 144.368 4.86643 142.628 4.86646 140.814V122.056H5.8804V140.814C5.88037 142.359 6.49176 143.841 7.581 144.937C8.67023 146.032 10.1488 146.652 11.6937 146.661H41.267V147.675Z" fill="#00244C"/>
<path d="M171.119 67.0668H170.105V52.3308C170.096 50.487 169.36 48.7213 168.056 47.4175C166.752 46.1137 164.987 45.3773 163.143 45.3684H136.544V44.3545H163.143C165.258 44.3545 167.287 45.1949 168.783 46.6907C170.279 48.1866 171.119 50.2154 171.119 52.3308V67.0668Z" fill="#00244C"/>
<path d="M109.675 75.5498C109.742 76.7327 109.438 78.3212 108.356 78.9972C107.275 79.6731 106.329 78.7606 105.788 77.9494C105.43 77.3439 105.203 76.6702 105.122 75.9717C105.04 75.2731 105.106 74.5653 105.315 73.8937C105.619 72.9473 106.396 71.7644 107.511 72.0686C108.627 72.3728 109.573 74.2316 109.675 75.5498C109.708 75.9553 110.688 75.7188 110.655 75.2794C110.519 73.7585 109.776 72.001 108.187 71.494C106.599 70.987 105.281 71.8996 104.639 73.1839C104.26 73.9558 104.074 74.8083 104.097 75.6678C104.121 76.5274 104.353 77.3684 104.774 78.1184C105.484 79.4366 106.937 80.2477 108.39 79.7069C109.844 79.1662 110.756 77.0031 110.655 75.2794C110.655 74.9076 109.641 75.1104 109.675 75.5498Z" fill="white"/>
<path d="M18.0748 51.2258C18.6571 49.9117 18.4512 48.5461 17.615 48.1755C16.7788 47.805 15.6289 48.5698 15.0465 49.8839C14.4642 51.1979 14.6701 52.5636 15.5063 52.9341C16.3425 53.3047 17.4924 52.5398 18.0748 51.2258Z" fill="#00244C"/>
<path d="M27.5449 49.9312H23.354C22.85 49.9312 22.4414 50.3397 22.4414 50.8437V50.8572C22.4414 51.3612 22.85 51.7698 23.354 51.7698H27.5449C28.0489 51.7698 28.4575 51.3612 28.4575 50.8572V50.8437C28.4575 50.3397 28.0489 49.9312 27.5449 49.9312Z" fill="#00244C"/>
<path d="M89.4304 171.165H26.8364C22.0952 171.165 18.2517 175 18.2517 179.732C18.2517 184.464 22.0952 188.3 26.8364 188.3H89.4304C94.1716 188.3 98.0151 184.464 98.0151 179.732C98.0151 175 94.1716 171.165 89.4304 171.165Z" fill="#C2D1EB"/>
<path d="M91.188 179.377H27.8843V180.053H91.188V179.377Z" fill="white"/>
<path d="M34.8805 182.859C36.6165 182.859 38.0237 181.451 38.0237 179.716C38.0237 177.98 36.6165 176.572 34.8805 176.572C33.1446 176.572 31.7373 177.98 31.7373 179.716C31.7373 181.451 33.1446 182.859 34.8805 182.859Z" fill="url(#paint7_linear_137_15353)"/>
</g>
<defs>
<linearGradient id="paint0_linear_137_15353" x1="278.361" y1="223.7" x2="316.827" y2="223.7" gradientUnits="userSpaceOnUse">
<stop stop-color="#006AD7"/>
<stop offset="0.42" stop-color="#006CD7"/>
<stop offset="0.56" stop-color="#0073D8"/>
<stop offset="0.67" stop-color="#007EDA"/>
<stop offset="0.76" stop-color="#008FDD"/>
<stop offset="0.83" stop-color="#00A5E1"/>
<stop offset="0.9" stop-color="#00C1E6"/>
<stop offset="0.95" stop-color="#00E0EB"/>
<stop offset="1" stop-color="#00FFF0"/>
</linearGradient>
<linearGradient id="paint1_linear_137_15353" x1="239.962" y1="290.928" x2="309.208" y2="290.928" gradientUnits="userSpaceOnUse">
<stop stop-color="#006AD7"/>
<stop offset="0.42" stop-color="#006CD7"/>
<stop offset="0.56" stop-color="#0073D8"/>
<stop offset="0.67" stop-color="#007EDA"/>
<stop offset="0.76" stop-color="#008FDD"/>
<stop offset="0.83" stop-color="#00A5E1"/>
<stop offset="0.9" stop-color="#00C1E6"/>
<stop offset="0.95" stop-color="#00E0EB"/>
<stop offset="1" stop-color="#00FFF0"/>
</linearGradient>
<linearGradient id="paint2_linear_137_15353" x1="89.6966" y1="286.419" x2="152.335" y2="286.419" gradientUnits="userSpaceOnUse">
<stop stop-color="#006AD7"/>
<stop offset="0.42" stop-color="#006CD7"/>
<stop offset="0.56" stop-color="#0073D8"/>
<stop offset="0.67" stop-color="#007EDA"/>
<stop offset="0.76" stop-color="#008FDD"/>
<stop offset="0.83" stop-color="#00A5E1"/>
<stop offset="0.9" stop-color="#00C1E6"/>
<stop offset="0.95" stop-color="#00E0EB"/>
<stop offset="1" stop-color="#00FFF0"/>
</linearGradient>
<linearGradient id="paint3_linear_137_15353" x1="341.228" y1="192.525" x2="258.335" y2="-15.8943" gradientUnits="userSpaceOnUse">
<stop stop-color="#006AD7"/>
<stop offset="0.42" stop-color="#006CD7"/>
<stop offset="0.56" stop-color="#0073D8"/>
<stop offset="0.67" stop-color="#007EDA"/>
<stop offset="0.76" stop-color="#008FDD"/>
<stop offset="0.83" stop-color="#00A5E1"/>
<stop offset="0.9" stop-color="#00C1E6"/>
<stop offset="0.95" stop-color="#00E0EB"/>
<stop offset="1" stop-color="#00FFF0"/>
</linearGradient>
<linearGradient id="paint4_linear_137_15353" x1="67.3791" y1="91.4452" x2="67.5481" y2="91.4452" gradientUnits="userSpaceOnUse">
<stop stop-color="#006AD7"/>
<stop offset="0.42" stop-color="#006CD7"/>
<stop offset="0.56" stop-color="#0073D8"/>
<stop offset="0.67" stop-color="#007EDA"/>
<stop offset="0.76" stop-color="#008FDD"/>
<stop offset="0.83" stop-color="#00A5E1"/>
<stop offset="0.9" stop-color="#00C1E6"/>
<stop offset="0.95" stop-color="#00E0EB"/>
<stop offset="1" stop-color="#00FFF0"/>
</linearGradient>
<linearGradient id="paint5_linear_137_15353" x1="141.853" y1="165.307" x2="75.8283" y2="69.341" gradientUnits="userSpaceOnUse">
<stop stop-color="#006AD7"/>
<stop offset="0.42" stop-color="#006CD7"/>
<stop offset="0.56" stop-color="#0073D8"/>
<stop offset="0.67" stop-color="#007EDA"/>
<stop offset="0.76" stop-color="#008FDD"/>
<stop offset="0.83" stop-color="#00A5E1"/>
<stop offset="0.9" stop-color="#00C1E6"/>
<stop offset="0.95" stop-color="#00E0EB"/>
<stop offset="1" stop-color="#00FFF0"/>
</linearGradient>
<linearGradient id="paint6_linear_137_15353" x1="129.524" y1="87.9237" x2="124.11" y2="73.8097" gradientUnits="userSpaceOnUse">
<stop stop-color="#C0D1EB"/>
<stop offset="0.22" stop-color="#C7D6ED"/>
<stop offset="0.54" stop-color="#D9E3F3"/>
<stop offset="0.91" stop-color="#F7F9FD"/>
<stop offset="0.99" stop-color="white"/>
</linearGradient>
<linearGradient id="paint7_linear_137_15353" x1="39.112" y1="184.41" x2="32.3592" y2="176.968" gradientUnits="userSpaceOnUse">
<stop stop-color="#006AD7"/>
<stop offset="0.42" stop-color="#006CD7"/>
<stop offset="0.56" stop-color="#0073D8"/>
<stop offset="0.67" stop-color="#007EDA"/>
<stop offset="0.76" stop-color="#008FDD"/>
<stop offset="0.83" stop-color="#00A5E1"/>
<stop offset="0.9" stop-color="#00C1E6"/>
<stop offset="0.95" stop-color="#00E0EB"/>
<stop offset="1" stop-color="#00FFF0"/>
</linearGradient>
<clipPath id="clip0_137_15353">
<rect width="378.403" height="320" fill="white" transform="translate(0 0.281738)"/>
</clipPath>
</defs>
</svg>
