<svg width="106" height="106" viewBox="0 0 106 106" fill="none" xmlns="http://www.w3.org/2000/svg">
<path d="M81.0136 48.8411C80.8952 54.4168 79.049 59.8183 75.7298 64.3C72.4107 68.7817 67.7822 72.1227 62.4833 73.8617C56.9828 75.7007 51.0663 75.9008 45.4541 74.4376C39.842 72.9743 34.7763 69.9109 30.874 65.6203C26.7068 60.9259 24.3728 54.8859 24.3005 48.6092C24.2929 47.4706 21.8943 47.8994 21.9063 48.8411C21.996 61.1163 30.4725 71.4763 41.9383 75.3164C53.7596 79.2758 67.6841 76.0645 76.1585 66.7994C80.742 61.8414 83.3255 55.3607 83.41 48.6092C83.4188 47.4728 81.0224 47.8961 81.0158 48.8411H81.0136Z" fill="black"/>
<g opacity="0.2">
<mask id="mask0_822_17980" style="mask-type:luminance" maskUnits="userSpaceOnUse" x="23" y="47" width="60" height="29">
<path d="M23.5312 47.8799C23.5312 63.0546 36.7656 75.356 53.0833 75.356C69.4009 75.356 82.6353 63.0535 82.6353 47.8799H23.5312Z" fill="white"/>
</mask>
<g mask="url(#mask0_822_17980)">
<path d="M23.797 47.8789H23.5312V75.355H23.797V47.8789Z" fill="#3063B8"/>
<path d="M24.3175 47.8789H23.7969V75.355H24.3175V47.8789Z" fill="#3063B8"/>
<path d="M24.838 47.8789H24.3174V75.355H24.838V47.8789Z" fill="#3164B9"/>
<path d="M25.3585 47.8789H24.8379V75.355H25.3585V47.8789Z" fill="#3265B9"/>
<path d="M25.881 47.8789H25.3604V75.355H25.881V47.8789Z" fill="#3365BA"/>
<path d="M26.4015 47.8789H25.8809V75.355H26.4015V47.8789Z" fill="#3466BA"/>
<path d="M26.922 47.8789H26.4014V75.355H26.922V47.8789Z" fill="#3567BB"/>
<path d="M27.4425 47.8789H26.9219V75.355H27.4425V47.8789Z" fill="#3668BB"/>
<path d="M27.963 47.8789H27.4424V75.355H27.963V47.8789Z" fill="#3769BC"/>
<path d="M28.4835 47.8789H27.9629V75.355H28.4835V47.8789Z" fill="#3869BC"/>
<path d="M29.005 47.8789H28.4844V75.355H29.005V47.8789Z" fill="#396ABD"/>
<path d="M29.5245 47.8789H29.0039V75.355H29.5245V47.8789Z" fill="#3A6BBD"/>
<path d="M30.046 47.8789H29.5254V75.355H30.046V47.8789Z" fill="#3B6CBE"/>
<path d="M30.5655 47.8789H30.0449V75.355H30.5655V47.8789Z" fill="#3C6DBE"/>
<path d="M31.0861 47.8789H30.5654V75.355H31.0861V47.8789Z" fill="#3D6DBF"/>
<path d="M31.6085 47.8789H31.0879V75.355H31.6085V47.8789Z" fill="#3E6EC0"/>
<path d="M32.128 47.8789H31.6074V75.355H32.128V47.8789Z" fill="#3F6FC0"/>
<path d="M32.6495 47.8789H32.1289V75.355H32.6495V47.8789Z" fill="#4070C1"/>
<path d="M33.1691 47.8789H32.6484V75.355H33.1691V47.8789Z" fill="#4171C1"/>
<path d="M33.6896 47.8789H33.1689V75.355H33.6896V47.8789Z" fill="#4271C2"/>
<path d="M34.2111 47.8789H33.6904V75.355H34.2111V47.8789Z" fill="#4372C2"/>
<path d="M34.7316 47.8789H34.2109V75.355H34.7316V47.8789Z" fill="#4473C3"/>
<path d="M35.253 47.8789H34.7324V75.355H35.253V47.8789Z" fill="#4574C3"/>
<path d="M35.7726 47.8789H35.252V75.355H35.7726V47.8789Z" fill="#4675C4"/>
<path d="M36.295 47.8789H35.7744V75.355H36.295V47.8789Z" fill="#4775C4"/>
<path d="M36.8155 47.8789H36.2949V75.355H36.8155V47.8789Z" fill="#4876C5"/>
<path d="M37.3351 47.8789H36.8145V75.355H37.3351V47.8789Z" fill="#4977C5"/>
<path d="M37.8566 47.8789H37.3359V75.355H37.8566V47.8789Z" fill="#4A78C6"/>
<path d="M38.3761 47.8789H37.8555V75.355H38.3761V47.8789Z" fill="#4B79C6"/>
<path d="M38.8976 47.8789H38.377V75.355H38.8976V47.8789Z" fill="#4C7AC7"/>
<path d="M39.4181 47.8789H38.8975V75.355H39.4181V47.8789Z" fill="#4D7AC8"/>
<path d="M39.9386 47.8789H39.418V75.355H39.9386V47.8789Z" fill="#4E7BC8"/>
<path d="M40.4591 47.8789H39.9385V75.355H40.4591V47.8789Z" fill="#4F7CC9"/>
<path d="M40.9796 47.8789H40.459V75.355H40.9796V47.8789Z" fill="#507DC9"/>
<path d="M41.5001 47.8789H40.9795V75.355H41.5001V47.8789Z" fill="#517ECA"/>
<path d="M42.0206 47.8789H41.5V75.355H42.0206V47.8789Z" fill="#527ECA"/>
<path d="M42.5421 47.8789H42.0215V75.355H42.5421V47.8789Z" fill="#537FCB"/>
<path d="M43.0626 47.8789H42.542V75.355H43.0626V47.8789Z" fill="#5480CB"/>
<path d="M43.5851 47.8789H43.0645V75.355H43.5851V47.8789Z" fill="#5581CC"/>
<path d="M44.1046 47.8789H43.584V75.355H44.1046V47.8789Z" fill="#5682CC"/>
<path d="M44.6251 47.8789H44.1045V75.355H44.6251V47.8789Z" fill="#5782CD"/>
<path d="M45.1456 47.8789H44.625V75.355H45.1456V47.8789Z" fill="#5883CD"/>
<path d="M45.6661 47.8789H45.1455V75.355H45.6661V47.8789Z" fill="#5984CE"/>
<path d="M46.1876 47.8789H45.667V75.355H46.1876V47.8789Z" fill="#5A85CF"/>
<path d="M46.7071 47.8789H46.1865V75.355H46.7071V47.8789Z" fill="#5B86CF"/>
<path d="M47.2286 47.8789H46.708V75.355H47.2286V47.8789Z" fill="#5C86D0"/>
<path d="M47.7491 47.8789H47.2285V75.355H47.7491V47.8789Z" fill="#5D87D0"/>
<path d="M48.2687 47.8789H47.748V75.355H48.2687V47.8789Z" fill="#5E88D1"/>
<path d="M48.7911 47.8789H48.2705V75.355H48.7911V47.8789Z" fill="#5F89D1"/>
<path d="M49.3107 47.8789H48.79V75.355H49.3107V47.8789Z" fill="#608AD2"/>
<path d="M49.8321 47.8789H49.3115V75.355H49.8321V47.8789Z" fill="#618AD2"/>
<path d="M50.3527 47.8789H49.832V75.355H50.3527V47.8789Z" fill="#628BD3"/>
<path d="M50.8732 47.8789H50.3525V75.355H50.8732V47.8789Z" fill="#638CD3"/>
<path d="M51.3937 47.8789H50.873V75.355H51.3937V47.8789Z" fill="#648DD4"/>
<path d="M51.9132 47.8789H51.3926V75.355H51.9132V47.8789Z" fill="#658ED4"/>
<path d="M52.4357 47.8789H51.915V75.355H52.4357V47.8789Z" fill="#668ED5"/>
<path d="M52.9562 47.8789H52.4355V75.355H52.9562V47.8789Z" fill="#678FD5"/>
<path d="M53.4777 47.8789H52.957V75.355H53.4777V47.8789Z" fill="#6990D6"/>
<path d="M53.9982 47.8789H53.4775V75.355H53.9982V47.8789Z" fill="#6A91D7"/>
<path d="M54.5187 47.8789H53.998V75.355H54.5187V47.8789Z" fill="#6B92D7"/>
<path d="M55.0392 47.8789H54.5186V75.355H55.0392V47.8789Z" fill="#6C92D8"/>
<path d="M55.5597 47.8789H55.0391V75.355H55.5597V47.8789Z" fill="#6D93D8"/>
<path d="M56.0802 47.8789H55.5596V75.355H56.0802V47.8789Z" fill="#6E94D9"/>
<path d="M56.6007 47.8789H56.0801V75.355H56.6007V47.8789Z" fill="#6F95D9"/>
<path d="M57.1212 47.8789H56.6006V75.355H57.1212V47.8789Z" fill="#7096DA"/>
<path d="M57.6417 47.8789H57.1211V75.355H57.6417V47.8789Z" fill="#7196DA"/>
<path d="M58.1622 47.8789H57.6416V75.355H58.1622V47.8789Z" fill="#7297DB"/>
<path d="M58.6827 47.8789H58.1621V75.355H58.6827V47.8789Z" fill="#7398DB"/>
<path d="M59.2032 47.8789H58.6826V75.355H59.2032V47.8789Z" fill="#7499DC"/>
<path d="M59.7257 47.8789H59.2051V75.355H59.7257V47.8789Z" fill="#759ADC"/>
<path d="M60.2452 47.8789H59.7246V75.355H60.2452V47.8789Z" fill="#769ADD"/>
<path d="M60.7667 47.8789H60.2461V75.355H60.7667V47.8789Z" fill="#779BDE"/>
<path d="M61.2872 47.8789H60.7666V75.355H61.2872V47.8789Z" fill="#789CDE"/>
<path d="M61.8077 47.8789H61.2871V75.355H61.8077V47.8789Z" fill="#799DDF"/>
<path d="M62.3292 47.8789H61.8086V75.355H62.3292V47.8789Z" fill="#7A9EDF"/>
<path d="M62.8488 47.8789H62.3281V75.355H62.8488V47.8789Z" fill="#7B9EE0"/>
<path d="M63.3702 47.8789H62.8496V75.355H63.3702V47.8789Z" fill="#7C9FE0"/>
<path d="M63.8898 47.8789H63.3691V75.355H63.8898V47.8789Z" fill="#7DA0E1"/>
<path d="M64.4113 47.8789H63.8906V75.355H64.4113V47.8789Z" fill="#7EA1E1"/>
<path d="M64.9318 47.8789H64.4111V75.355H64.9318V47.8789Z" fill="#7FA2E2"/>
<path d="M65.4513 47.8789H64.9307V75.355H65.4513V47.8789Z" fill="#80A2E2"/>
<path d="M65.9737 47.8789H65.4531V75.355H65.9737V47.8789Z" fill="#81A3E3"/>
<path d="M66.4933 47.8789H65.9727V75.355H66.4933V47.8789Z" fill="#82A4E3"/>
<path d="M67.0148 47.8789H66.4941V75.355H67.0148V47.8789Z" fill="#83A5E4"/>
<path d="M67.5353 47.8789H67.0146V75.355H67.5353V47.8789Z" fill="#84A6E4"/>
<path d="M68.0558 47.8789H67.5352V75.355H68.0558V47.8789Z" fill="#85A7E5"/>
<path d="M68.5763 47.8789H68.0557V75.355H68.5763V47.8789Z" fill="#86A7E6"/>
<path d="M69.0968 47.8789H68.5762V75.355H69.0968V47.8789Z" fill="#87A8E6"/>
<path d="M69.6173 47.8789H69.0967V75.355H69.6173V47.8789Z" fill="#88A9E7"/>
<path d="M70.1388 47.8789H69.6182V75.355H70.1388V47.8789Z" fill="#89AAE7"/>
<path d="M70.6603 47.8789H70.1396V75.355H70.6603V47.8789Z" fill="#8AABE8"/>
<path d="M71.1808 47.8789H70.6602V75.355H71.1808V47.8789Z" fill="#8BABE8"/>
<path d="M71.7023 47.8789H71.1816V75.355H71.7023V47.8789Z" fill="#8CACE9"/>
<path d="M72.2218 47.8789H71.7012V75.355H72.2218V47.8789Z" fill="#8DADE9"/>
<path d="M72.7423 47.8789H72.2217V75.355H72.7423V47.8789Z" fill="#8EAEEA"/>
<path d="M73.2628 47.8789H72.7422V75.355H73.2628V47.8789Z" fill="#8FAFEA"/>
<path d="M73.7833 47.8789H73.2627V75.355H73.7833V47.8789Z" fill="#90AFEB"/>
<path d="M74.3048 47.8789H73.7842V75.355H74.3048V47.8789Z" fill="#91B0EB"/>
<path d="M74.8243 47.8789H74.3037V75.355H74.8243V47.8789Z" fill="#92B1EC"/>
<path d="M75.3458 47.8789H74.8252V75.355H75.3458V47.8789Z" fill="#93B2ED"/>
<path d="M75.8654 47.8789H75.3447V75.355H75.8654V47.8789Z" fill="#94B3ED"/>
<path d="M76.3859 47.8789H75.8652V75.355H76.3859V47.8789Z" fill="#95B3EE"/>
<path d="M76.9083 47.8789H76.3877V75.355H76.9083V47.8789Z" fill="#96B4EE"/>
<path d="M77.4278 47.8789H76.9072V75.355H77.4278V47.8789Z" fill="#97B5EF"/>
<path d="M77.9493 47.8789H77.4287V75.355H77.9493V47.8789Z" fill="#98B6EF"/>
<path d="M78.4698 47.8789H77.9492V75.355H78.4698V47.8789Z" fill="#99B7F0"/>
<path d="M78.9913 47.8789H78.4707V75.355H78.9913V47.8789Z" fill="#9AB7F0"/>
<path d="M79.5118 47.8789H78.9912V75.355H79.5118V47.8789Z" fill="#9BB8F1"/>
<path d="M80.0314 47.8789H79.5107V75.355H80.0314V47.8789Z" fill="#9CB9F1"/>
<path d="M80.5529 47.8789H80.0322V75.355H80.5529V47.8789Z" fill="#9DBAF2"/>
<path d="M81.0734 47.8789H80.5527V75.355H81.0734V47.8789Z" fill="#9EBBF2"/>
<path d="M81.5939 47.8789H81.0732V75.355H81.5939V47.8789Z" fill="#9FBBF3"/>
<path d="M82.1153 47.8789H81.5947V75.355H82.1153V47.8789Z" fill="#A0BCF3"/>
<path d="M82.6349 47.8789H82.1143V75.355H82.6349V47.8789Z" fill="#A1BDF4"/>
</g>
</g>
<path d="M86.4388 43.008C86.5052 42.4051 86.4461 41.7949 86.2653 41.2159C86.0846 40.6368 85.786 40.1014 85.3884 39.6433C84.9908 39.1852 84.5027 38.8142 83.9549 38.5538C83.407 38.2934 82.8112 38.149 82.2049 38.1299H82.194C80.9524 32.9211 78.3263 28.1446 74.5933 24.3055C70.8603 20.4665 66.1593 17.7076 60.9873 16.3205C60.5153 15.3124 59.828 14.4201 58.9737 13.7065C57.4394 12.5369 55.5772 11.8773 53.6488 11.8204C51.7204 11.7635 49.8227 12.3122 48.2221 13.3893C46.971 14.1972 45.9559 15.3217 45.2799 16.6487C40.1179 18.0645 35.4243 20.8256 31.679 24.6498C27.9336 28.4739 25.2708 33.2239 23.9627 38.4143C21.6232 38.9502 19.7737 40.2299 19.731 43.2924C19.663 44.3159 19.6667 45.3429 19.7419 46.3659C19.8478 47.0182 20.1987 47.6055 20.7229 48.008C21.2471 48.4105 21.9052 48.5977 22.5627 48.5315C23.1315 48.5424 23.7112 48.5315 24.2799 48.5315H79.2955C81.5585 48.5315 85.6065 49.0455 86.3601 46.1799C86.5124 45.1295 86.5388 44.0647 86.4388 43.008Z" fill="#3063B8"/>
<path d="M67.835 73.0377V76.9971C67.3318 77.1939 66.8068 77.3252 66.435 77.4346C63.7986 78.095 61.1008 78.4799 58.385 78.583C52.5771 78.9439 46.3318 78.933 40.6771 77.4018C39.5429 77.1754 38.4602 76.7415 37.4834 76.1221V73.0377C37.4834 69.1385 67.835 69.1385 67.835 73.0377Z" fill="#080F21"/>
<path d="M67.835 77.9863V82.334C67.3786 82.511 66.9109 82.6572 66.435 82.7715C63.7979 83.4302 61.1007 83.8187 58.385 83.9309C52.5771 84.2809 46.3318 84.2699 40.6771 82.7496C39.5424 82.519 38.4598 82.0815 37.4834 81.459V78.0355C37.7131 78.1121 37.9318 78.1777 38.1178 78.2324C41.0183 79.0404 44.0018 79.5138 47.01 79.6434C53.5506 80.0918 60.6928 80.1027 67.0365 78.2324C67.2771 78.1613 67.5396 78.0738 67.835 77.9863Z" fill="#080F21"/>
<path d="M67.835 83.3242V87.4805C67.2462 87.7432 66.6349 87.9518 66.0084 88.1039C63.3724 88.768 60.6746 89.1565 57.9584 89.2633C52.1506 89.6133 45.9053 89.6133 40.2396 88.082C39.2836 87.8644 38.3579 87.5301 37.4834 87.0867V83.368C37.7131 83.4445 37.9318 83.5102 38.1178 83.5648C41.0179 84.3764 44.0014 84.8534 47.01 84.9867C53.5506 85.4352 60.6928 85.4352 67.0365 83.5648C67.2771 83.4992 67.5396 83.4117 67.835 83.3242Z" fill="#080F21"/>
<path d="M66.61 88.9141C66.96 88.8156 67.3865 88.6844 67.835 88.5312V91.0906C67.835 95.9906 37.4834 95.9906 37.4834 91.0906V88.8484C37.56 88.8703 37.6256 88.8922 37.6912 88.9141C40.5929 89.7167 43.5758 90.19 46.5834 90.325C53.124 90.7734 60.2662 90.7844 66.61 88.9141Z" fill="#080F21"/>
<path d="M43.0616 92.0521C42.9964 93.8581 43.4672 95.6429 44.4146 97.1818C45.459 98.7925 47.0115 100.008 48.8257 100.636C50.8383 101.302 53.0038 101.354 55.046 100.785C57.0882 100.215 58.9146 99.0511 60.2926 97.4399C61.6124 95.8064 62.3083 93.7567 62.2558 91.6573C62.2558 90.9595 61.4344 90.9059 60.8865 90.9726C60.4348 91.0273 59.0862 91.3893 59.0862 92.0521C59.1698 93.978 58.5476 95.8682 57.3362 97.3677C56.8324 97.9922 56.1964 98.4971 55.4738 98.8459C54.7513 99.1947 53.9603 99.3787 53.158 99.3846C49.0423 99.3288 46.228 95.5379 46.228 91.6573C46.228 90.9595 45.4066 90.9059 44.8576 90.9726C44.4069 91.0273 43.0573 91.3893 43.0573 92.0521H43.0616Z" fill="black"/>
<path d="M77.3701 56.9017C78.4345 54.3147 78.1992 51.7657 76.8446 51.2083C75.4899 50.6509 73.5289 52.2963 72.4644 54.8832C71.4 57.4702 71.6353 60.0192 72.9899 60.5766C74.3446 61.134 76.3057 59.4887 77.3701 56.9017Z" fill="white"/>
<path fill-rule="evenodd" clip-rule="evenodd" d="M53.8429 9.24055C53.9432 9.14147 54.0225 9.02319 54.0761 8.89277C54.1297 8.76235 54.1564 8.62247 54.1546 8.48149V5.86196C54.1457 5.58346 54.0289 5.31935 53.8287 5.12549C53.6286 4.93164 53.3609 4.82324 53.0822 4.82324C52.8036 4.82324 52.5359 4.93164 52.3357 5.12549C52.1356 5.31935 52.0187 5.58346 52.0098 5.86196V8.4804C52.0086 8.62154 52.0355 8.76151 52.0889 8.89219C52.1422 9.02288 52.221 9.14167 52.3206 9.24168C52.4202 9.34169 52.5386 9.42093 52.6691 9.47481C52.7996 9.52869 52.9394 9.55614 53.0806 9.55555C53.2223 9.55698 53.3629 9.52982 53.4938 9.47569C53.6248 9.42157 53.7435 9.3416 53.8429 9.24055Z" fill="#080F21"/>
<path fill-rule="evenodd" clip-rule="evenodd" d="M25.7665 18.8977C25.5616 19.0964 25.4438 19.368 25.4387 19.6533C25.4335 19.9386 25.5416 20.2143 25.7392 20.4202L27.5504 22.3091C27.6487 22.411 27.7661 22.4926 27.896 22.5491C28.0258 22.6056 28.1655 22.636 28.3071 22.6386C28.4487 22.6411 28.5894 22.6157 28.7211 22.5639C28.8529 22.5121 28.9732 22.4348 29.0751 22.3365C29.177 22.2381 29.2585 22.1207 29.3151 21.9909C29.3716 21.8611 29.402 21.7214 29.4045 21.5798C29.4071 21.4382 29.3817 21.2975 29.3299 21.1657C29.278 21.034 29.2007 20.9137 29.1024 20.8118L27.2912 18.924C27.0916 18.7199 26.8196 18.6027 26.5342 18.5978C26.2488 18.5929 25.973 18.7007 25.7665 18.8977Z" fill="#080F21"/>
<path fill-rule="evenodd" clip-rule="evenodd" d="M79.2278 18.9366L77.3389 20.7478C77.2372 20.846 77.1557 20.9633 77.0993 21.0929C77.0428 21.2226 77.0125 21.362 77.0099 21.5034C77.0074 21.6448 77.0327 21.7853 77.0845 21.9169C77.1362 22.0485 77.2134 22.1686 77.3116 22.2703C77.4098 22.3721 77.527 22.4535 77.6567 22.51C77.7863 22.5664 77.9258 22.5968 78.0672 22.5993C78.2086 22.6019 78.349 22.5765 78.4806 22.5248C78.6122 22.473 78.7323 22.3959 78.8341 22.2977L80.723 20.4864C80.8248 20.3883 80.9062 20.271 80.9626 20.1414C81.0191 20.0117 81.0494 19.8722 81.052 19.7308C81.0545 19.5895 81.0292 19.449 80.9774 19.3174C80.9257 19.1858 80.8485 19.0657 80.7503 18.9639C80.6522 18.8622 80.5349 18.7807 80.4053 18.7243C80.2756 18.6678 80.1361 18.6375 79.9947 18.6349C79.8534 18.6324 79.7129 18.6577 79.5813 18.7095C79.4497 18.7612 79.3296 18.8384 79.2278 18.9366Z" fill="#080F21"/>
<path fill-rule="evenodd" clip-rule="evenodd" d="M92.0189 42.6098H89.4016C89.2573 42.6057 89.1136 42.6307 88.9792 42.6833C88.8447 42.7358 88.7222 42.8148 88.6189 42.9156C88.5156 43.0164 88.4336 43.137 88.3778 43.2701C88.3219 43.4032 88.2934 43.5462 88.294 43.6905C88.2945 43.8349 88.324 43.9777 88.3807 44.1104C88.4375 44.2431 88.5204 44.3631 88.6244 44.4631C88.7284 44.5632 88.8515 44.6414 88.9863 44.6929C89.1212 44.7445 89.265 44.7685 89.4092 44.7634H92.0255C92.3051 44.7537 92.57 44.6355 92.7641 44.434C92.9582 44.2324 93.0662 43.9632 93.0654 43.6834C93.0645 43.4036 92.9548 43.1351 92.7595 42.9347C92.5642 42.7343 92.2986 42.6178 92.0189 42.6098Z" fill="#080F21"/>
<path fill-rule="evenodd" clip-rule="evenodd" d="M16.6625 42.6105L14.0462 42.605C13.9019 42.6004 13.7582 42.6249 13.6235 42.6769C13.4889 42.729 13.366 42.8076 13.2624 42.908C13.1587 43.0084 13.0762 43.1287 13.0199 43.2616C12.9636 43.3946 12.9346 43.5375 12.9346 43.6818C12.9346 43.8262 12.9636 43.9691 13.0199 44.102C13.0762 44.235 13.1587 44.3552 13.2624 44.4557C13.366 44.5561 13.4889 44.6347 13.6235 44.6867C13.7582 44.7388 13.9019 44.7632 14.0462 44.7586H16.6636C16.9432 44.7497 17.2084 44.6324 17.4031 44.4314C17.5978 44.2304 17.7066 43.9616 17.7066 43.6818C17.7066 43.4021 17.5978 43.1332 17.4031 42.9323C17.2084 42.7313 16.9432 42.614 16.6636 42.605L16.6625 42.6105Z" fill="#080F21"/>
<path d="M56.3545 70.6454L56.3206 59.3797C56.3206 57.9043 55.9564 55.7343 57.1956 54.6537C58.7652 53.2799 60.8717 55.0146 60.9866 56.758C61.0242 57.0806 60.9963 57.4074 60.9046 57.719C60.8129 58.0305 60.6592 58.3203 60.4528 58.5711C60.2464 58.8218 59.9915 59.0283 59.7034 59.1781C59.4153 59.328 59.0999 59.4181 58.7761 59.4432C54.8517 59.6051 50.8956 59.488 46.9636 59.511C46.4526 59.5504 45.9388 59.5306 45.4324 59.4519C44.9949 59.326 44.5942 59.0965 44.2642 58.7829C43.9342 58.4693 43.6846 58.0809 43.5365 57.6504C43.3884 57.2199 43.3463 56.7601 43.4135 56.3099C43.4808 55.8596 43.6555 55.4322 43.923 55.0638C45.2563 53.3466 47.6133 54.6318 47.9841 56.454C48.0563 56.9654 48.0772 57.4828 48.0464 57.9983V70.5218C48.0464 71.2437 49.6389 70.9385 49.6389 70.3512V57.3487C49.7166 56.4149 49.4815 55.4818 48.9706 54.6963C48.4036 54.0058 47.6229 53.5236 46.7516 53.3256C45.8803 53.1276 44.9679 53.225 44.1581 53.6026C43.3394 53.9251 42.661 54.5268 42.2429 55.3011C41.8248 56.0755 41.6939 56.9727 41.8733 57.8343C42.0924 58.6063 42.5588 59.2851 43.201 59.7664C43.8431 60.2477 44.6255 60.505 45.428 60.4987C49.6488 60.631 53.9067 60.4702 58.1286 60.4254C58.7482 60.4526 59.367 60.3563 59.9491 60.1423C60.5311 59.9282 61.0649 59.6006 61.5192 59.1785C62.1473 58.5618 62.5214 57.732 62.5676 56.853C62.6137 55.974 62.3286 55.1096 61.7686 54.4305C59.5034 51.7902 54.8222 53.5632 54.7259 56.9658C54.598 61.5727 54.7533 66.2037 54.7675 70.8127C54.7675 71.5357 56.3611 71.2294 56.36 70.6421L56.3545 70.6454Z" fill="black"/>
</svg>
