<?xml version="1.0" encoding="UTF-8"?>
<!DOCTYPE svg PUBLIC "-//W3C//DTD SVG 1.0//EN" "http://www.w3.org/TR/2001/REC-SVG-20010904/DTD/svg10.dtd">
<!-- Creator: CorelDRAW 2017 -->
<svg xmlns="http://www.w3.org/2000/svg" xml:space="preserve" width="356px" height="200px" version="1.0" style="shape-rendering:geometricPrecision; text-rendering:geometricPrecision; image-rendering:optimizeQuality; fill-rule:evenodd; clip-rule:evenodd"
viewBox="0 0 35600 20025"
 xmlns:xlink="http://www.w3.org/1999/xlink">
 <defs>
  <style type="text/css">
   <![CDATA[
    .fil5 {fill:none;fill-rule:nonzero}
    .fil0 {fill:#E7E8E8}
    .fil6 {fill:#333333;fill-rule:nonzero}
    .fil3 {fill:#4DA3C1;fill-rule:nonzero}
    .fil4 {fill:white;fill-rule:nonzero}
    .fil1 {fill:#373435;fill-opacity:0.031373}
    .fil2 {fill:#373435;fill-opacity:0.078431}
   ]]>
  </style>
 </defs>
 <g id="Layer_x0020_1">
  <metadata id="CorelCorpID_0Corel-Layer"/>
  <g id="_1817579486496">
   <path class="fil0" d="M0 0l35600 0 0 20025 -35600 0 0 -20025z"/>
   <path class="fil1" d="M2082 17547c68,103 112,203 155,312 32,64 49,183 199,183 44,0 107,-14 163,-45 63,-33 111,-83 136,-159l60 -202 146 -72 10 10c-20,76 -25,149 -25,206 0,169 146,234 262,234 68,0 129,-34 129,-96 0,-80 -34,-216 -78,-338 68,-68 136,-136 214,-191l12 6c34,144 53,287 53,381 0,93 -41,196 -75,264 -70,132 -194,238 -344,238 -114,0 -241,-58 -328,-164l-5 0c-82,102 -209,194 -412,194l-63 0c-10,134 -39,229 -83,314 -121,237 -480,404 -818,404 -470,0 -706,-272 -706,-633 0,-223 73,-431 185,-578l92 38c-70,134 -117,261 -117,385 0,338 275,499 592,499 294,0 658,-187 724,-404 -25,-237 -114,-349 -250,-565 41,-72 94,-144 160,-221l12 0 0 0zm5421 -1274l0 0c99,62 196,136 291,221 -53,74 -119,142 -201,202 -95,-77 -190,-143 -287,-213 66,-74 131,-146 197,-210l0 0zm51 926l0 0c-160,0 -291,105 -291,183 0,167 320,219 703,217 -48,-196 -216,-400 -412,-400zm-359 895l0 0c208,0 390,-6 529,-41 155,-39 286,-118 286,-172 0,-14 0,-31 -5,-45 -87,8 -187,8 -274,8 -282,0 -498,-64 -583,-222 -21,-44 -36,-93 -36,-149 0,-152 66,-303 182,-406 97,-85 204,-138 313,-138 197,0 354,158 464,408 60,136 101,293 101,491 0,132 -36,243 -118,326 -153,148 -435,204 -867,204l-196 0 -51 0c-107,0 -184,-19 -245,-66l-10 0c3,25 5,49 5,72 0,97 -32,221 -97,320 -192,287 -400,410 -580,410 -182,0 -405,-70 -606,-161l36 -70c65,27 155,45 279,45 325,0 752,-313 805,-618 -12,-25 -34,-58 -65,-93 -95,-113 -155,-208 -211,-307 48,-95 92,-171 133,-240l17 -2c139,283 265,446 546,446l44 0 204 0 0 0zm-1408 299l0 0 31 14c141,-132 207,-218 214,-332 12,-91 17,-214 17,-340 0,-480 -12,-1002 -63,-1452l-22 -6c-75,58 -170,144 -238,218 39,357 87,906 87,1283l0 202c0,137 -2,283 -26,413zm-1449 -596l0 0 -95 0c-12,66 -12,117 -12,150 0,306 189,436 466,436 228,0 458,-83 674,-192 63,-112 102,-233 102,-361 0,-173 -92,-332 -240,-489 -163,-171 -383,-324 -580,-427l-19 2c-56,77 -124,184 -124,235 0,25 19,52 78,77 172,74 356,185 495,311 143,134 228,281 228,392 0,16 -17,35 -49,49 -177,85 -337,134 -526,134 -304,0 -391,-140 -398,-317l0 0zm-501 -503l0 0 -14 -2c-61,84 -117,169 -173,257 107,139 204,289 291,454 15,35 34,74 34,109 0,23 -7,56 -26,91 -160,305 -510,555 -852,557 -107,0 -194,-16 -269,-37l-27 70c238,103 444,159 624,159 121,0 252,-56 400,-188 189,-194 306,-390 306,-573l0 -227c0,-177 -59,-289 -122,-392l-172 -278 0 0z"/>
   <path class="fil2" d="M5005 20025l92 0 103 0 80 0 33 0 134 0 275 0 57 0 341 0 4 0 312 0 547 0 305 0 159 0 628 0 221 0 201 0 1 0 24 0 521 0 256 0 147 0 89 0 174 0 69 0 186 0 267 0 67 0 38 0 69 0 65 0 79 0 1 0 133 0 19 0 20 0 7 0 36 0 37 0 388 0 42 0 90 0 70 0 198 0 227 0 72 0 89 0 72 0 36 0 421 0 182 0 206 0 90 0 734 0 537 0 185 0 722 0 174 0 622 0 169 0 907 0 1078 0 306 0 228 0 60 0 30 0 122 0 26 0 104 0 47 0 27 0 53 0 16 0 220 0 96 0 386 0 217 0 21 0 178 0 54 0 15 0 211 0 1474 -1423 -150 117 -177 81 -112 22 38 -37 -52 39 -4 0 337 -326 -85 70 -97 53 -108 34 -115 11 -21 0 315 -305 73 -122 23 -140 -26 -140 -74 -125 -30 -23 1708 -1650 -110 102 -116 102 -122 102 -127 100 -134 100 -139 98 -145 97 -150 94 -155 92 -45 25 20 -128 3 -39 3 -38 2 -38 3 -39 2 -38 2 -38 2 -39 3 -38 6 -109 7 -110 7 -109 7 -110 7 -109 7 -109 7 -110 7 -109 6 -110 7 -109 7 -110 7 -109 7 -109 7 -110 7 -109 6 -110 8 -120 8 -120 7 -121 8 -120 7 -120 8 -120 7 -121 8 -120 7 -120 8 -121 7 -120 8 -120 7 -121 8 -120 7 -120 8 -120 12 -156 13 -157 7 -157 -4 -154 -14 -87 4591 -4435 -68 56 -77 42 -87 27 -92 9 -1272 0 1731 -1671 -3942 0 0 -526 9 -93 27 -86 42 -78 56 -68 -2782 2687 -32 -59 -147 -199 -174 -184 -200 -168 -225 -152 -247 -137 -148 -66 130 -125 73 -83 63 -90 54 -95 44 -100 35 -104 26 -108 18 -111 3 -41 4 -83 3 -110 3 -123 0 -121 -4 -103 -8 -73 -14 -26 -28 2 -79 8 -124 11 -69 7 37 -51 -60 -43 1570 -1518 -139 132 -160 130 -181 125 -199 120 -176 93 59 -57 -147 92 -89 49 -96 45 -247 100 -261 91 -273 81 -285 71 -287 58 -282 44 -275 30 -266 16 -256 3 -59 -2 664 -642 -35 -188 -58 -164 -78 -141 -97 -116 -113 -91 -126 -65 -138 -40 -146 -13 -150 14 -140 42 -129 68 -114 96 -814 786 -64 -70 -70 -114 -43 -124 -14 -130 14 -133 42 -135 68 -135 93 -136 117 -134 -1296 1252 -10 -4 -104 -46 23 -207 65 -342 89 -319 112 -295 133 -270 152 -246 171 -221 188 -196 -1182 1142 53 -317 73 -335 90 -316 107 -296 129 -275 150 -251 175 -228 202 -201 -5406 5221 27 -49 25 -79 8 -85 -8 -84 -25 -79 -38 -71 -52 -62 -62 -51 -71 -39 -79 -24 -84 -9 -85 9 -78 24 -72 39 -62 51 -1050 1014 0 -377 2097 -2026 -15 -151 -44 -141 -69 -127 -92 -111 -111 -92 -127 -69 -141 -43 -151 -16 -151 16 -141 43 -128 69 -110 92 -9203 8890 0 292 0 26 0 403 0 195 0 316 0 535 0 377 0 164 0 383 0 159 0 282 0 119 0 36 0 23 0 283 0 517 0 451 0 698 0 49 0 179 0 429 0 357 0 137 0 176 4 0 10 0 299 0 305 0 78 0 598 0 45 0 192 0 184 0 172 0 103 0 154 0 41 0 71 0 237 0 59 0 191 0 2 0 10 0 41 0 259 0 250 0 10 0 32 0 45 0 9 0 6 0 2 0 37 0 10 0 14 0 10 0 48 0 123 0 18 0 87 0 275 0 160 0 24 0 46 0 117 0 25 0 7 0 34 0 69 0 1 0 99 0 105 0 60 0 227 0zm14559 -14341l0 0 54 -52 -54 52z"/>
   <g>
    <g>
     <path class="fil3" d="M10621 8488l-1776 0c-253,0 -459,-205 -459,-459l0 -1775c0,-254 206,-459 459,-459l1776 0c253,0 458,205 458,459l0 1775c0,254 -205,459 -458,459z"/>
     <path class="fil4" d="M10152 6764c0,232 -188,420 -419,420 -232,0 -420,-188 -420,-420 0,-231 188,-419 420,-419 231,0 419,188 419,419z"/>
     <path class="fil4" d="M10033 7857l-600 0 92 -769 416 0 92 769z"/>
     <path class="fil5" d="M10483 5079c0,-414 -336,-750 -750,-750 -414,0 -750,336 -750,750"/>
     <path class="fil5" d="M8983 5079l0 914"/>
    </g>
    <g>
     <path class="fil3" d="M26755 7951l-3024 0c-254,0 -459,-205 -459,-458l0 -1739c0,-254 205,-459 459,-459l3024 0c253,0 459,205 459,459l0 1739c0,253 -206,458 -459,458z"/>
     <path class="fil6" d="M27214 6280l-3942 0 0 -527 3942 0 0 527z"/>
     <g>
      <g>
       <path class="fil4" d="M23716 6905c329,0 658,0 987,0 222,0 222,-344 0,-344 -329,0 -658,0 -987,0 -221,0 -221,344 0,344z"/>
      </g>
     </g>
     <g>
      <g>
       <path class="fil4" d="M23716 7510c329,0 658,0 987,0 222,0 222,-344 0,-344 -329,0 -658,0 -987,0 -221,0 -221,344 0,344z"/>
      </g>
     </g>
    </g>
    <path class="fil6" d="M22777 9730c-419,-769 -4804,-3035 -5411,-2973 -607,-62 -4958,2218 -5370,2973 -422,775 -1577,4501 -1462,5252 115,750 1663,2282 3785,2782 2106,496 3053,285 3068,281 14,4 962,215 3067,-281 2122,-500 3671,-2032 3785,-2782 115,-751 -1040,-4477 -1462,-5252z"/>
    <path class="fil6" d="M20865 8994c0,1392 -3479,2805 -3479,2805 0,0 -3479,-1413 -3479,-2805 0,-1392 1557,-2237 3479,-2237 1922,0 3479,845 3479,2237z"/>
    <path class="fil4" d="M18672 9466l0 -1379 -2645 0 0 1379 -694 0 2060 1558 2059 -1558 -780 0z"/>
    <path class="fil4" d="M20035 5477c0,2136 -1678,3970 -2649,3970 -972,0 -2649,-1834 -2649,-3970 0,-2136 1186,-3294 2649,-3294 1463,0 2649,1158 2649,3294z"/>
    <g>
     <path class="fil6" d="M21479 18666l-8183 0c-317,0 -574,-256 -574,-573 0,-317 257,-574 574,-574l8183 0c316,0 573,257 573,574 0,317 -257,573 -573,573z"/>
     <g>
      <path class="fil4" d="M21479 18494c-2513,0 -5026,0 -7539,0 -341,0 -1202,112 -1031,-508 113,-411 778,-295 1097,-295 1513,0 3025,0 4537,0 764,0 1528,0 2292,0 190,0 380,-5 570,0 24,1 50,-2 74,0 511,53 528,768 0,803 -220,15 -222,359 0,344 552,-37 942,-611 644,-1121 -159,-271 -435,-366 -730,-370 -521,-7 -1042,0 -1563,0 -1734,0 -3468,0 -5202,0 -436,0 -877,-16 -1313,0 -412,16 -765,314 -765,746 0,432 353,730 765,745 1287,49 2585,0 3873,0 1430,0 2860,0 4291,0 221,0 222,-344 0,-344z"/>
     </g>
    </g>
    <g>
     <path class="fil6" d="M21479 17519l-8183 0c-317,0 -574,-256 -574,-573l-286 -4574c0,-317 256,-573 573,-573l8757 0c316,0 573,256 573,573l-287 4574c0,317 -257,573 -573,573z"/>
     <g>
      <path class="fil4" d="M21479 17347c-1938,0 -3875,0 -5812,0 -778,0 -1568,40 -2346,0 -455,-23 -429,-439 -450,-772 -35,-563 -70,-1125 -106,-1688 -38,-607 -76,-1214 -114,-1821 -20,-322 -180,-960 251,-1081 186,-52 423,-14 610,-14 447,0 894,0 1341,0 2219,0 4438,0 6657,0 301,0 649,9 656,424 6,384 -49,780 -73,1163 -69,1093 -127,2187 -206,3279 -18,256 -102,490 -408,510 -220,15 -222,359 0,344 429,-29 712,-320 745,-746 8,-102 13,-205 20,-307 36,-583 73,-1167 109,-1751 41,-641 81,-1283 121,-1924 26,-410 127,-865 -236,-1166 -247,-205 -558,-170 -855,-170 -456,0 -911,0 -1367,0 -1344,0 -2689,0 -4034,0 -948,0 -1896,0 -2844,0 -453,0 -869,246 -874,751 -3,374 48,756 71,1129 71,1132 140,2263 213,3394 30,481 339,784 822,790 335,5 672,0 1007,0 2313,0 4626,0 6939,0 54,0 109,0 163,0 221,0 222,-344 0,-344z"/>
     </g>
    </g>
    <path class="fil4" d="M18173 14437c0,243 -355,439 -793,439 -438,0 -793,-196 -793,-439 0,-243 355,-440 793,-440 438,0 793,197 793,440z"/>
    <path class="fil6" d="M21449 3268c155,687 -971,1527 -2515,1875 -1544,349 -2921,75 -3076,-613 -155,-687 970,-1526 2514,-1875 1544,-349 2922,-74 3077,613z"/>
    <path class="fil6" d="M14428 4760c744,413 1738,665 2830,665 1217,0 2311,-312 3074,-811 -223,-1981 -671,-3449 -2945,-3449 -2274,0 -2782,1520 -2959,3595z"/>
    <path class="fil4" d="M16587 4690c200,110 467,121 760,121 327,0 621,-27 826,-161 -60,-532 -391,-818 -791,-818 -410,0 -747,300 -795,858z"/>
    <g>
     <path class="fil6" d="M14890 5655c-46,-4 -18,639 -12,680 37,299 159,573 396,768 178,146 399,232 625,274 187,35 383,41 565,-13 242,-72 406,-253 527,-466 80,-141 215,-369 401,-371 231,-2 0,-641 0,-641 0,0 -2501,-231 -2502,-231z"/>
     <path class="fil6" d="M19881 5655c46,-4 18,639 13,680 -38,299 -159,573 -397,768 -178,146 -399,232 -625,274 -187,35 -382,41 -565,-13 -242,-72 -406,-253 -527,-466 -79,-141 -215,-369 -400,-371 -231,-2 0,-641 0,-641 0,0 2501,-231 2501,-231z"/>
     <path class="fil4" d="M17847 7401l-262 -192 1359 -1855 261 191 -1358 1856z"/>
     <path class="fil4" d="M18259 7488l-175 -128 1358 -1856 176 128 -1359 1856z"/>
     <path class="fil4" d="M15621 7401l-261 -192 1358 -1855 262 191 -1359 1856z"/>
     <path class="fil4" d="M16034 7488l-175 -128 1358 -1856 175 128 -1358 1856z"/>
     <path class="fil5" d="M14881 5655c-46,-4 -18,639 -13,680 38,299 159,573 397,768 178,146 399,232 625,274 187,35 382,41 565,-13 242,-72 405,-253 527,-466 79,-141 215,-369 400,-371 231,-2 0,-641 0,-641 0,0 -2501,-231 -2501,-231z"/>
     <path class="fil5" d="M19881 5655c46,-4 18,639 13,680 -38,299 -159,573 -397,768 -178,146 -399,232 -625,274 -187,35 -382,41 -565,-13 -242,-72 -406,-253 -527,-466 -79,-141 -215,-369 -400,-371 -231,-2 0,-641 0,-641 0,0 2501,-231 2501,-231z"/>
    </g>
   </g>
  </g>
 </g>
</svg>
