<svg width="106" height="106" viewBox="0 0 106 106" fill="none" xmlns="http://www.w3.org/2000/svg">
<path d="M53.0053 80.9734C53.2429 81.613 53.6156 82.194 54.0981 82.6766C54.5805 83.1592 55.1613 83.5322 55.8009 83.7701C55.9075 83.8092 55.9996 83.8801 56.0646 83.9732C56.1296 84.0663 56.1645 84.1771 56.1645 84.2907C56.1645 84.4043 56.1296 84.5151 56.0646 84.6082C55.9996 84.7013 55.9075 84.7722 55.8009 84.8113C55.1613 85.0488 54.5804 85.4215 54.098 85.904C53.6155 86.3865 53.2428 86.9673 53.0053 87.607C52.9664 87.7139 52.8955 87.8064 52.8023 87.8717C52.709 87.937 52.5979 87.9721 52.4841 87.9721C52.3703 87.9721 52.2592 87.937 52.1659 87.8717C52.0727 87.8064 52.0018 87.7139 51.9629 87.607C51.7254 86.9673 51.3527 86.3865 50.8703 85.904C50.3878 85.4215 49.8069 85.0488 49.1673 84.8113C49.0607 84.7722 48.9686 84.7013 48.9036 84.6082C48.8386 84.5151 48.8037 84.4043 48.8037 84.2907C48.8037 84.1771 48.8386 84.0663 48.9036 83.9732C48.9686 83.8801 49.0607 83.8092 49.1673 83.7701C49.8069 83.5322 50.3877 83.1592 50.8701 82.6766C51.3526 82.194 51.7253 81.613 51.9629 80.9734C52.0023 80.8668 52.0734 80.7749 52.1665 80.71C52.2597 80.6451 52.3705 80.6104 52.4841 80.6104C52.5977 80.6104 52.7085 80.6451 52.8017 80.71C52.8949 80.7749 52.9659 80.8668 53.0053 80.9734Z" fill="#080F21"/>
<path opacity="0.2" d="M78.8111 11.3721V23.9404C77.6218 24.1709 76.413 24.2856 75.2017 24.2827C70.0904 24.2822 65.1885 22.2514 61.5743 18.6372C57.96 15.0229 55.9293 10.1211 55.9287 5.00977H72.4443C74.1321 5.01005 75.7506 5.68032 76.9444 6.87331C78.1382 8.06629 78.8096 9.6844 78.8111 11.3721Z" fill="url(#paint0_linear_820_15494)"/>
<path opacity="0.2" d="M29.0258 56.3216C29.0249 59.819 27.9137 63.2259 25.8523 66.0513C23.791 68.8766 20.8859 70.9747 17.5557 72.0432C16.8373 71.4459 16.2592 70.6979 15.8623 69.8522C15.4654 69.0066 15.2593 68.0839 15.2588 67.1497V50.773C15.2614 49.0868 15.9327 47.4705 17.1254 46.2786C18.3182 45.0867 19.9349 44.4165 21.6211 44.415H23.9508C25.5584 45.9529 26.8372 47.8012 27.7095 49.8478C28.5819 51.8944 29.0297 54.0968 29.0258 56.3216Z" fill="url(#paint1_linear_820_15494)"/>
<path opacity="0.2" d="M27.2323 9.74512C27.2306 11.871 26.3854 13.9093 24.8823 15.4126C23.3792 16.9159 21.341 17.7614 19.2151 17.7634C17.3495 17.769 15.5414 17.1172 14.1084 15.9226C14.1559 14.268 14.8467 12.6972 16.0338 11.5437C17.221 10.3902 18.8111 9.745 20.4664 9.74512H27.2323Z" fill="url(#paint2_linear_820_15494)"/>
<path d="M89.7934 36.7068C89.949 37.1166 90.1897 37.4887 90.4997 37.7986C90.8096 38.1086 91.1818 38.3493 91.5915 38.5049C91.6604 38.5299 91.7199 38.5754 91.762 38.6354C91.8041 38.6954 91.8266 38.7669 91.8266 38.8401C91.8266 38.9134 91.8041 38.9849 91.762 39.0449C91.7199 39.1048 91.6604 39.1504 91.5915 39.1754C91.1819 39.331 90.8099 39.5716 90.5 39.8813C90.1901 40.191 89.9493 40.5629 89.7934 40.9724C89.7685 41.0413 89.7229 41.1008 89.6629 41.1429C89.6029 41.1849 89.5314 41.2075 89.4582 41.2075C89.3849 41.2075 89.3134 41.1849 89.2535 41.1429C89.1935 41.1008 89.1479 41.0413 89.1229 40.9724C88.9672 40.563 88.7265 40.1913 88.4168 39.8815C88.107 39.5718 87.7353 39.3312 87.3259 39.1754C87.257 39.1504 87.1975 39.1048 87.1555 39.0449C87.1134 38.9849 87.0908 38.9134 87.0908 38.8401C87.0908 38.7669 87.1134 38.6954 87.1555 38.6354C87.1975 38.5754 87.257 38.5299 87.3259 38.5049C87.7354 38.349 88.1073 38.1082 88.417 37.7983C88.7268 37.4884 88.9673 37.1164 89.1229 36.7068C89.1479 36.6379 89.1935 36.5784 89.2535 36.5363C89.3134 36.4942 89.3849 36.4717 89.4582 36.4717C89.5314 36.4717 89.6029 36.4942 89.6629 36.5363C89.7229 36.5784 89.7685 36.6379 89.7934 36.7068Z" fill="#080F21"/>
<path d="M41.9975 16.2389C41.9975 21.6847 42.1386 27.148 41.9975 32.5916C41.9319 35.0886 40.4323 37.7989 37.7231 38.1172C36.8246 38.1786 35.9233 38.1881 35.0237 38.1456H24.2164C23.1456 38.1456 22.0704 38.1719 20.9997 38.1456C19.8213 38.1238 18.6775 37.7438 17.7202 37.0564C16.7629 36.3689 16.0375 35.4064 15.6403 34.2967C15.3109 33.1611 15.1853 31.9761 15.2695 30.7967V25.7655C15.2695 22.5936 15.2455 19.4086 15.2695 16.2312C15.2174 15.2427 15.4142 14.2569 15.8419 13.3641C16.2695 12.4714 16.9144 11.7002 17.7173 11.1212C18.8024 10.5254 20.0452 10.2801 21.2753 10.4191H33.1611C34.2242 10.4191 35.2928 10.3852 36.3548 10.4191C37.8882 10.4953 39.3324 11.1625 40.3845 12.2806C41.4366 13.3988 42.0146 14.8809 41.9975 16.4161C42.0204 17.1872 44.4037 16.7147 44.3753 15.7784C44.3415 14.3712 43.8744 13.0086 43.0379 11.8764C42.2013 10.7443 41.0359 9.89775 39.7006 9.45218C38.4162 9.09793 37.0819 8.95969 35.7522 9.04312H23.9987C20.315 9.04312 16.4595 9.03328 14.1014 12.4469C12.2891 15.0719 12.8983 18.9875 12.8983 22.003C12.8983 25.492 12.8698 28.9811 12.8983 32.4702C12.9344 36.8452 16.3797 39.5216 20.5545 39.5216H31.6309C34.9669 39.5216 38.644 39.9798 41.4834 37.8525C45.0731 35.163 44.3808 30.7562 44.3808 26.822V15.9491C44.3808 14.945 41.9975 15.4383 41.9975 16.2389Z" fill="#080F21"/>
<path d="M77.6226 11.691C77.6226 17.1346 77.7867 22.6023 77.6226 28.0437C77.5482 30.5593 75.8923 33.3396 73.1535 33.5048C72.331 33.554 71.4965 33.5135 70.6729 33.5135H59.6435C58.634 33.5135 57.6168 33.5507 56.6084 33.5135C55.3669 33.4586 54.1738 33.0165 53.1964 32.2491C52.2189 31.4818 51.5062 30.4277 51.1582 29.2348C50.9147 28.168 50.827 27.0716 50.8979 25.9798V21.1377C50.8979 17.898 50.8618 14.6573 50.8979 11.4187C50.8531 10.3991 51.0684 9.38481 51.5236 8.47135C51.9788 7.55789 52.6589 6.77526 53.5 6.19711C54.5713 5.66971 55.7728 5.4649 56.9584 5.60758H68.8803C69.904 5.60758 70.9387 5.5682 71.9624 5.60758C73.5042 5.70774 74.9494 6.3935 76.0021 7.52446C77.0548 8.65541 77.6353 10.146 77.6248 11.691C77.6434 12.3057 80.031 11.878 80.0026 11.0534C79.9698 9.63105 79.4894 8.25529 78.6297 7.1217C77.7701 5.98812 76.5749 5.15441 75.2142 4.73914C73.9669 4.44149 72.6823 4.33091 71.4025 4.41102H59.6435C55.9948 4.41102 52.1032 4.38258 49.7506 7.76336C47.9065 10.4113 48.5212 14.3948 48.5212 17.454C48.5212 20.9212 48.4884 24.3905 48.5212 27.8577C48.5628 32.294 52.1415 34.7079 56.2639 34.7079H67.4813C70.872 34.7079 74.5317 35.1213 77.3689 32.8485C80.7212 30.1568 80.0059 25.7391 80.0059 21.9296V11.0566C80.0004 10.4551 77.6226 10.8587 77.6226 11.691Z" fill="#080F21"/>
<path d="M43.1712 51.0875C43.1712 56.5191 43.3538 61.9824 43.1712 67.4107C43.0913 69.7885 41.6268 72.3697 39.0992 72.7799C38.2001 72.8708 37.2953 72.8902 36.3932 72.8378H25.5071C24.4134 72.8378 23.3196 72.8608 22.2259 72.8378C20.8767 72.8132 19.5772 72.3246 18.5459 71.4543C17.5147 70.584 16.8146 69.3851 16.5635 68.0592C16.4304 67.0867 16.3901 66.1038 16.4432 65.1236V60.0027C16.4432 56.9161 16.3809 53.823 16.4432 50.7364C16.4093 49.7042 16.6511 48.6817 17.1436 47.7739C17.6361 46.8662 18.3616 46.106 19.2454 45.5717C20.305 45.1248 21.4612 44.9562 22.6043 45.0817H34.4496C35.4756 45.0817 36.507 45.0489 37.5329 45.0817C39.0657 45.1629 40.5079 45.8329 41.5585 46.952C42.6091 48.0711 43.1869 49.5527 43.1712 51.0875C43.1931 51.8291 45.5774 51.3653 45.5479 50.451C45.5166 49.0833 45.0752 47.7566 44.2809 46.6428C43.4866 45.529 42.376 44.6796 41.0931 44.2046C39.7985 43.8088 38.4431 43.6499 37.0921 43.7353H25.3945C21.7851 43.7353 18.0663 43.6194 15.5507 46.7683C13.4726 49.3649 14.0698 53.2214 14.0698 56.3332C14.0698 59.9217 14.0468 63.5103 14.0698 67.0989C14.0402 68.1917 14.2715 69.2757 14.7446 70.2612C15.2177 71.2467 15.9188 72.1053 16.7899 72.7657C18.3075 73.7939 20.1228 74.2908 21.9524 74.1788H33.2881C36.7345 74.1788 40.4095 74.5714 43.1931 72.0755C46.2949 69.2941 45.5479 64.8064 45.5479 61.0625V50.4532C45.5479 49.7291 43.1712 50.1721 43.1712 51.0875Z" fill="#080F21"/>
<path d="M74.874 44.8636V48.298C74.5882 48.1866 74.2839 48.1306 73.9772 48.1328C73.631 48.1344 73.2887 48.2046 72.9699 48.3395C72.6511 48.4743 72.3623 48.6711 72.1201 48.9185C71.878 49.1658 71.6874 49.4587 71.5593 49.7803C71.4312 50.1019 71.3682 50.4457 71.374 50.7917L71.6256 63.5558C71.6147 63.5558 71.6037 63.5667 71.5928 63.5667C71.1459 63.7025 70.6817 63.7725 70.2147 63.7745H55.974C55.3606 63.7748 54.7532 63.6542 54.1864 63.4196C53.6197 63.185 53.1047 62.841 52.671 62.4073C52.2372 61.9736 51.8932 61.4586 51.6586 60.8918C51.424 60.3251 51.3034 59.7176 51.3037 59.1042V44.8636C51.3036 44.2507 51.4243 43.6438 51.6591 43.0777C51.8939 42.5115 52.2381 41.9973 52.6719 41.5644C53.1057 41.1314 53.6207 40.7884 54.1874 40.5548C54.754 40.3212 55.3611 40.2017 55.974 40.2031H70.2157C70.8279 40.2021 71.4343 40.322 72.0001 40.5559C72.5659 40.7898 73.0799 41.133 73.5127 41.566C73.9455 41.999 74.2885 42.5132 74.5221 43.0791C74.7557 43.645 74.8753 44.2514 74.874 44.8636Z" fill="#3063BA"/>
<path fill-rule="evenodd" clip-rule="evenodd" d="M58.4128 51.5151C58.7127 51.8127 59.1169 51.9815 59.5394 51.9854H66.6302C67.057 51.9834 67.4658 51.8129 67.7676 51.5109C68.0693 51.209 68.2395 50.8001 68.2413 50.3732C68.2416 50.1635 68.2004 49.9557 68.1203 49.7618C68.0402 49.5679 67.9225 49.3918 67.7742 49.2434C67.6259 49.0951 67.4497 48.9775 67.2558 48.8973C67.062 48.8172 66.8542 48.7761 66.6444 48.7764H59.5536C59.3419 48.7762 59.1321 48.8178 58.9365 48.8988C58.7408 48.9798 58.563 49.0985 58.4133 49.2482C58.2636 49.398 58.1448 49.5758 58.0638 49.7714C57.9829 49.9671 57.9413 50.1768 57.9414 50.3886C57.9403 50.5984 57.9815 50.8063 58.0625 50.9998C58.1435 51.1934 58.2626 51.3686 58.4128 51.5151Z" fill="white"/>
<path fill-rule="evenodd" clip-rule="evenodd" d="M58.4128 56.0953C58.7127 56.3929 59.1169 56.5617 59.5394 56.5656H66.6302C67.057 56.5636 67.4658 56.3931 67.7675 56.0911C68.0693 55.7892 68.2395 55.3803 68.2412 54.9534C68.2415 54.7436 68.2004 54.5358 68.1203 54.3418C68.0402 54.1479 67.9226 53.9717 67.7742 53.8232C67.6259 53.6748 67.4498 53.5571 67.2559 53.4768C67.062 53.3966 66.8542 53.3553 66.6444 53.3555H59.5536C59.3418 53.3553 59.1321 53.3969 58.9365 53.4779C58.7408 53.5589 58.563 53.6776 58.4133 53.8273C58.2635 53.9771 58.1448 54.1549 58.0638 54.3505C57.9829 54.5462 57.9413 54.7559 57.9414 54.9677C57.9415 55.1774 57.9833 55.3851 58.0642 55.5787C58.1451 55.7722 58.2636 55.9478 58.4128 56.0953Z" fill="white"/>
<path fill-rule="evenodd" clip-rule="evenodd" d="M33.0778 22.2848H30.6518V19.86C30.6589 19.5929 30.6126 19.3271 30.5155 19.0782C30.4185 18.8293 30.2726 18.6023 30.0866 18.4105C29.9005 18.2188 29.678 18.0661 29.4321 17.9616C29.1863 17.8571 28.922 17.8027 28.6548 17.8018C28.3876 17.8008 28.123 17.8533 27.8764 17.9561C27.6297 18.0589 27.4062 18.2099 27.2188 18.4003C27.0314 18.5908 26.8839 18.8167 26.7851 19.065C26.6862 19.3132 26.638 19.5786 26.6432 19.8458V22.2706H24.2184C23.9513 22.2635 23.6855 22.3098 23.4366 22.4069C23.1877 22.504 22.9607 22.6498 22.7689 22.8359C22.5772 23.0219 22.4245 23.2444 22.32 23.4903C22.2155 23.7362 22.1611 24.0005 22.1602 24.2676C22.1592 24.5348 22.2117 24.7995 22.3145 25.0461C22.4173 25.2927 22.5683 25.5163 22.7587 25.7037C22.9492 25.8911 23.1751 26.0385 23.4234 26.1374C23.6716 26.2362 23.9371 26.2844 24.2042 26.2792H26.629V28.7041C26.629 29.2375 26.8409 29.7491 27.2181 30.1263C27.5954 30.5035 28.107 30.7155 28.6404 30.7155C29.1739 30.7155 29.6855 30.5035 30.0627 30.1263C30.4399 29.7491 30.6518 29.2375 30.6518 28.7041V26.2792H33.0778C33.6075 26.2792 34.1154 26.0688 34.49 25.6942C34.8645 25.3197 35.075 24.8117 35.075 24.282C35.075 23.7523 34.8645 23.2443 34.49 22.8698C34.1154 22.4953 33.6075 22.2848 33.0778 22.2848Z" fill="#080F21"/>
<path fill-rule="evenodd" clip-rule="evenodd" d="M61.5759 24.7103C62.1057 24.7103 62.6138 24.5002 62.989 24.1262L69.2649 17.8634C69.4517 17.677 69.5999 17.4557 69.7011 17.2121C69.8022 16.9684 69.8545 16.7073 69.8547 16.4435C69.855 16.1796 69.8032 15.9184 69.7025 15.6745C69.6018 15.4307 69.4541 15.2091 69.2677 15.0224C69.0813 14.8357 68.86 14.6875 68.6164 14.5863C68.3727 14.4851 68.1116 14.4329 67.8477 14.4326C67.5839 14.4324 67.3226 14.4841 67.0788 14.5848C66.835 14.6855 66.6134 14.8333 66.4267 15.0196L60.154 21.2868C59.9668 21.4733 59.8183 21.6949 59.717 21.9389C59.6156 22.1829 59.5635 22.4445 59.5635 22.7087C59.5635 22.9729 59.6156 23.2345 59.717 23.4785C59.8183 23.7225 59.9668 23.9441 60.154 24.1306C60.5353 24.5002 61.0449 24.7079 61.5759 24.7103Z" fill="#080F21"/>
<path fill-rule="evenodd" clip-rule="evenodd" d="M23.9595 61.7434C24.3358 62.1158 24.8433 62.3255 25.3727 62.3275H34.2452C34.7786 62.3275 35.2902 62.1156 35.6674 61.7384C36.0446 61.3612 36.2565 60.8496 36.2565 60.3161C36.2565 59.7826 36.0446 59.271 35.6674 58.8938C35.2902 58.5166 34.7786 58.3047 34.2452 58.3047H25.3858C24.9881 58.3063 24.5998 58.4253 24.2695 58.6468C23.9392 58.8683 23.6817 59.1824 23.5293 59.5497C23.3768 59.917 23.3362 60.3211 23.4126 60.7114C23.4889 61.1016 23.6799 61.4607 23.9595 61.7434Z" fill="#080F21"/>
<path d="M40.8076 94.0419C41.643 94.0419 42.3202 93.3647 42.3202 92.5293C42.3202 91.6938 41.643 91.0166 40.8076 91.0166C39.9722 91.0166 39.2949 91.6938 39.2949 92.5293C39.2949 93.3647 39.9722 94.0419 40.8076 94.0419Z" fill="#080F21"/>
<path d="M70.3124 73.1183C70.5019 73.2829 70.7329 73.3926 70.9803 73.4352C71.2277 73.4779 71.4821 73.4521 71.7158 73.3604C71.9496 73.2688 72.1537 73.1149 72.3062 72.9155C72.4587 72.7161 72.5537 72.4787 72.5808 72.2291C72.6749 70.9472 72.5316 69.6041 72.5076 68.3189L72.419 63.6508L72.2429 54.3988L72.1838 51.2696C72.1565 49.8258 72.9757 47.4217 74.9072 49.0438C76.1104 50.0577 75.8402 52.1752 75.9047 53.5916C75.9583 54.7466 76.0076 55.8885 76.0076 57.0489L77.5913 56.6246C77.5716 55.895 77.5541 55.2027 78.2979 54.8308C78.6258 54.6968 78.9891 54.6754 79.3305 54.77C79.672 54.8646 79.9724 55.0699 80.1846 55.3536C81.0497 56.303 80.7315 57.9414 80.7315 59.1172C80.7315 59.5689 82.3163 59.2835 82.3163 58.6928V56.4528L81.0333 57.0785C82.1502 57.1502 83.1957 57.652 83.9503 58.4784C84.705 59.3049 85.11 60.3916 85.0802 61.5103L85.299 66.0647C85.3219 66.5339 86.9111 66.2244 86.8838 65.6403L86.6563 60.7469L85.1251 61.2632C86.2866 62.05 87.2237 63.1253 87.8444 64.3835C88.4651 65.6418 88.7481 67.0398 88.6655 68.4403V92.0478L89.9474 91.4222L80.8594 90.2333L75.0713 89.4786C74.5397 89.3608 73.9988 89.2901 73.4547 89.2675C73.3437 89.2719 73.2328 89.2575 73.1266 89.2249C73.5499 89.3988 73.3935 89.3342 73.3224 88.8464L72.9319 86.1525C72.9044 85.4653 72.7916 84.7841 72.5961 84.1247C71.8033 82.6789 70.8932 81.3005 69.8749 80.0035C69.1541 78.9206 68.4125 77.851 67.6786 76.7769C66.4525 74.9799 64.8535 73.1938 65.279 70.8433C65.6322 68.8997 67.4599 67.3706 68.7199 65.9619L72.2932 61.9642L70.7619 62.1721C70.8057 63.9221 70.8494 65.6721 70.8418 67.4221C70.871 67.7903 70.8607 68.1607 70.8111 68.5267C70.6186 69.3285 69.9132 69.7299 69.5938 70.4441C69.1683 71.3902 69.8125 72.216 70.25 73.0297C70.5246 73.5438 72.0558 73.0188 71.8349 72.6053C71.6125 72.24 71.4109 71.8625 71.2311 71.4744C70.8111 70.396 71.6183 69.8272 72.1061 68.9588C72.3957 68.3495 72.5094 67.6714 72.4343 67.001C72.4408 65.251 72.3982 63.501 72.3544 61.751C72.3391 61.1778 70.9894 61.7772 70.8232 61.9588L66.5663 66.7199C64.883 68.6044 63.0718 70.4485 63.7619 73.243C64.0952 74.2582 64.6095 75.2046 65.2801 76.0364L67.4916 79.2761C68.5482 80.8227 69.5697 82.3911 70.6044 83.9552C71.5888 85.446 71.5374 87.8982 71.8207 89.8516C71.8382 89.9697 72.0318 90.0397 72.1237 90.0517L88.9565 92.2535C89.3524 92.306 90.2383 92.1583 90.2383 91.6278V68.2752C90.2383 65.1711 89.2846 62.4575 86.5896 60.6561C86.2144 60.4046 85.031 60.5708 85.0583 61.1713L85.2858 66.0647L86.8707 65.6403C86.793 63.9866 86.7613 62.323 86.6355 60.6714C86.4277 57.948 84.5016 56.6683 82.0035 56.2527C81.6086 56.186 80.7216 56.3566 80.7216 56.8783V59.1172C80.7216 59.5689 82.3065 59.2835 82.3065 58.6928C82.3065 57.5422 82.558 56.1247 81.9127 55.1053C81.6524 54.7235 81.306 54.4081 80.9016 54.1845C80.4972 53.961 80.0459 53.8354 79.5841 53.818C79.1258 53.732 78.6538 53.7531 78.205 53.8797C77.7562 54.0063 77.3427 54.2349 76.9969 54.5477C76.6511 54.8605 76.3822 55.249 76.2113 55.6829C76.0405 56.1168 75.9722 56.5843 76.0119 57.0489C76.0251 57.5181 77.5957 57.2021 77.5957 56.6246C77.5957 55.5549 77.5552 54.4972 77.506 53.4297C77.5784 52.1767 77.4872 50.9196 77.2347 49.6902C76.0611 46.2022 70.6132 47.705 70.5924 51.0891C70.5596 56.3467 70.7914 61.6186 70.891 66.8752L70.9249 68.6766L70.9687 70.9363L70.9916 72.1613C70.9739 72.3027 70.9765 72.446 70.9993 72.5867V72.7552C70.9862 73.0877 71.2494 73.006 71.789 72.5102C71.3963 72.1503 69.9121 72.7497 70.3124 73.1183Z" fill="#080F21"/>
<path d="M76.0046 56.2286V56.9286L77.596 56.7547L77.5895 56.4462C77.578 56.3158 77.5802 56.1846 77.596 56.0547C77.6048 56.024 77.6062 55.9918 77.6003 55.9604C77.5945 55.9291 77.5814 55.8996 77.5621 55.8742C77.55 55.8427 77.5316 55.8142 77.5078 55.7902C77.4841 55.7663 77.4557 55.7476 77.4243 55.7353C77.3514 55.6944 77.2703 55.6705 77.187 55.6653C77.0912 55.6458 76.9927 55.6432 76.896 55.6576C76.6828 55.6786 76.4777 55.7502 76.2977 55.8665C76.1572 55.9452 76.0523 56.0748 76.0046 56.2286C75.9893 56.3585 75.9871 56.4897 75.9981 56.6201L76.0046 56.9286C75.9955 56.9591 75.9937 56.9914 75.9994 57.0227C76.0051 57.0541 76.0181 57.0837 76.0374 57.109C76.0496 57.1406 76.0681 57.1692 76.0918 57.1933C76.1155 57.2174 76.1439 57.2364 76.1752 57.249C76.2484 57.2889 76.3294 57.3124 76.4126 57.3179C76.5084 57.3374 76.6068 57.34 76.7035 57.3256C76.9171 57.3048 77.1227 57.2332 77.3029 57.1167L77.444 57.0073C77.5181 56.9405 77.571 56.8534 77.596 56.7568V56.0568C77.6048 56.0262 77.6062 55.9939 77.6003 55.9626C77.5945 55.9313 77.5814 55.9018 77.5621 55.8764C77.55 55.8449 77.5316 55.8163 77.5078 55.7924C77.4841 55.7685 77.4557 55.7498 77.4243 55.7375C77.3514 55.6966 77.2703 55.6727 77.187 55.6675C77.0912 55.648 76.9927 55.6454 76.896 55.6598C76.6828 55.6808 76.4777 55.7524 76.2977 55.8687L76.1556 55.9781C76.0814 56.0447 76.0288 56.1319 76.0046 56.2286Z" fill="#080F21"/>
<path d="M75.3498 50.9947C75.3498 50.297 74.7842 49.7314 74.0865 49.7314C73.3888 49.7314 72.8232 50.297 72.8232 50.9947V52.0918C72.8232 52.7894 73.3888 53.355 74.0865 53.355C74.7842 53.355 75.3498 52.7894 75.3498 52.0918V50.9947Z" fill="#080F21"/>
<path d="M92.4357 98.5913C91.5509 98.8625 90.7098 99.1054 89.8676 99.334C88.1176 99.8185 86.4868 100.218 84.9611 100.546C82.6799 101.064 80.3618 101.402 78.0278 101.559C76.8398 101.646 75.6466 101.632 74.4611 101.516C73.9871 101.475 73.5158 101.408 73.049 101.316C72.2181 101.167 71.4095 100.913 70.6428 100.56C69.7136 100.145 68.9002 99.5082 68.2737 98.7061C68.1816 98.5804 68.1175 98.4363 68.0856 98.2837C68.0537 98.1311 68.0548 97.9734 68.0889 97.8213L70.0292 89.1336C70.0933 88.8523 70.238 88.5958 70.4457 88.3955C70.6534 88.1952 70.915 88.0598 71.1984 88.006C71.5982 87.9033 72.0205 87.9337 72.4015 88.0924C72.4157 88.0924 72.4157 88.0924 72.43 88.1066C73.072 88.3341 73.7567 88.5441 74.4414 88.7202C74.6273 88.7629 74.8122 88.8055 74.9883 88.8482C75.9762 89.0734 76.9765 89.2404 77.984 89.348C79.9413 89.5636 81.9157 89.5731 83.875 89.3765C85.3191 89.231 86.7469 88.9538 88.1406 88.5485C88.554 88.4205 88.9543 88.2915 89.3536 88.1493C89.3678 88.1493 89.3678 88.1493 89.382 88.1351C89.5811 88.0626 89.7932 88.0332 90.0045 88.0489C90.2158 88.0646 90.4213 88.125 90.6075 88.2262C90.7936 88.3273 90.9561 88.4669 91.0843 88.6356C91.2124 88.8043 91.3032 88.9983 91.3507 89.2047L93.162 97.3072C93.1989 97.4392 93.2094 97.5772 93.1928 97.7133C93.1762 97.8493 93.133 97.9808 93.0655 98.1001C92.998 98.2194 92.9077 98.3242 92.7996 98.4085C92.6915 98.4928 92.5679 98.5549 92.4357 98.5913Z" fill="#080F21"/>
<path d="M75.9947 56.5344C76.104 58.8444 76.2572 61.1522 76.3676 63.4622C76.3841 63.7903 77.0873 63.694 77.2667 63.6459C77.5511 63.5694 77.97 63.3856 77.9525 63.0367C77.8431 60.7278 77.69 58.42 77.5784 56.11C77.5631 55.7819 76.8598 55.8781 76.6805 55.9262C76.3961 56.0028 75.9772 56.1865 75.9947 56.5344Z" fill="#080F21"/>
<path d="M80.791 57.5874C80.6291 60.2474 80.8227 62.9107 80.791 65.5718C80.7833 66.2685 82.3736 65.9557 82.3802 65.3913C82.4119 62.7291 82.2183 60.0669 82.3802 57.4069C82.4229 56.7201 80.826 57.0154 80.791 57.5874Z" fill="#080F21"/>
<path d="M85.1866 61.7686C85.2697 64.5883 85.2847 67.4079 85.2315 70.2276C85.2315 70.5251 86.8065 70.2976 86.8163 69.8033C86.8703 66.9836 86.8553 64.1639 86.7715 61.3442C86.7627 61.0259 85.1724 61.2851 85.1866 61.7686Z" fill="#080F21"/>
<defs>
<linearGradient id="paint0_linear_820_15494" x1="55.9287" y1="14.6468" x2="78.8111" y2="14.6468" gradientUnits="userSpaceOnUse">
<stop offset="0.005" stop-color="#3063BA"/>
<stop offset="1" stop-color="#A3BFF6"/>
</linearGradient>
<linearGradient id="paint1_linear_820_15494" x1="15.2588" y1="58.2269" x2="29.0258" y2="58.2269" gradientUnits="userSpaceOnUse">
<stop offset="0.005" stop-color="#3063BA"/>
<stop offset="1" stop-color="#A3BFF6"/>
</linearGradient>
<linearGradient id="paint2_linear_820_15494" x1="14.104" y1="13.7559" x2="27.2279" y2="13.7559" gradientUnits="userSpaceOnUse">
<stop offset="0.005" stop-color="#3063BA"/>
<stop offset="1" stop-color="#A3BFF6"/>
</linearGradient>
</defs>
</svg>
