<svg width="106" height="106" viewBox="0 0 106 106" fill="none" xmlns="http://www.w3.org/2000/svg">
<path d="M92.0781 73.6367C90.7565 76.225 88.7411 78.3948 86.2571 79.9033C83.7732 81.4119 80.9185 82.1998 78.0125 82.1789C71.0234 82.2008 64.0343 82.1789 57.0453 82.1789H31.2984C28.1593 82.1789 25.0859 82.2117 22.1218 80.8883C18.6275 79.345 15.8892 76.4769 14.5093 72.9149H17.0687C18.1846 75.2307 19.9457 77.1749 22.1402 78.5138C24.3347 79.8526 26.8692 80.529 29.439 80.4618H75.4421C78.4062 80.4618 81.2828 80.5602 84.05 79.2039C88.9171 76.8086 91.1484 71.8539 91.1484 66.6477V35.4539C91.1055 31.9222 89.6847 28.547 87.189 26.0477C84.2578 23.1164 80.4953 22.2852 76.525 22.2852H30.1828C29.6031 22.2852 29.0234 22.2742 28.4437 22.2852C25.175 22.2723 22.0323 23.5451 19.6937 25.8289C18.4532 27.0721 17.4699 28.5475 16.8 30.1709C16.13 31.7942 15.7864 33.5337 15.789 35.2899V44.7399H13.3828V41.9617C13.2477 39.1875 13.2879 36.4075 13.5031 33.6383C14.06 30.0176 15.8883 26.7136 18.6602 24.3185C21.4321 21.9234 24.9664 20.5938 28.6296 20.568C34.7328 20.4914 40.8468 20.568 46.95 20.568H73.9765C76.1606 20.4731 78.3484 20.5096 80.5281 20.6774C84.0959 21.1202 87.3821 22.8417 89.7774 25.5226C92.1728 28.2036 93.5148 31.6621 93.5546 35.257V63.4649C93.5546 66.9649 93.6728 70.3664 92.0781 73.6367Z" fill="#080F21"/>
<path opacity="0.2" fill-rule="evenodd" clip-rule="evenodd" d="M73.0678 21.4649V81.2799C72.6544 81.3051 72.23 81.3182 71.8045 81.3182H59.5469V21.4277H71.7969C72.2344 21.4277 72.6544 21.4398 73.0678 21.4649Z" fill="url(#paint0_linear_822_17517)"/>
<path opacity="0.2" fill-rule="evenodd" clip-rule="evenodd" d="M84.2208 22.691V80.0549C82.7104 80.7454 81.0887 81.1602 79.4323 81.2799C79.0955 81.3054 78.7579 81.3182 78.4195 81.3182H77.457V21.4277H78.4195C78.7579 21.4277 79.0955 21.4401 79.4323 21.4649C81.0888 21.5849 82.7105 22.0002 84.2208 22.691Z" fill="url(#paint1_linear_822_17517)"/>
<path d="M93.5388 35.1934H13.415C13.5047 26.8896 19.8966 20.1816 27.7694 20.1816H79.1844C87.0572 20.1816 93.4546 26.8896 93.5388 35.1934Z" fill="#3063BA"/>
<path fill-rule="evenodd" clip-rule="evenodd" d="M93.7603 22.5153C94.0921 22.5163 94.411 22.3862 94.6473 22.1533L96.8108 19.9898C96.9322 19.8744 97.0293 19.7358 97.0963 19.5822C97.1634 19.4286 97.199 19.2632 97.2011 19.0957C97.2032 18.9281 97.1718 18.7619 97.1086 18.6066C97.0455 18.4514 96.9519 18.3105 96.8334 18.192C96.715 18.0735 96.574 17.9799 96.4188 17.9168C96.2636 17.8536 96.0973 17.8222 95.9297 17.8243C95.7622 17.8264 95.5968 17.8621 95.4432 17.9291C95.2896 17.9961 95.1511 18.0932 95.0356 18.2146L92.8722 20.3781C92.696 20.553 92.5759 20.7764 92.5272 21.0198C92.4785 21.2632 92.5034 21.5157 92.5986 21.7449C92.6939 21.9741 92.8552 22.1698 93.0621 22.307C93.269 22.4442 93.5121 22.5167 93.7603 22.5153Z" fill="#080F21"/>
<path fill-rule="evenodd" clip-rule="evenodd" d="M87.9088 14.5127C87.7428 14.5123 87.5783 14.5447 87.4249 14.608C87.2714 14.6713 87.132 14.7644 87.0146 14.8818C86.8972 14.9992 86.8041 15.1386 86.7408 15.2921C86.6775 15.4455 86.6451 15.61 86.6455 15.776V18.8385C86.6552 19.167 86.7925 19.4787 87.0282 19.7076C87.264 19.9366 87.5796 20.0646 87.9082 20.0646C88.2368 20.0646 88.5525 19.9366 88.7883 19.7076C89.024 19.4787 89.1613 19.167 89.171 18.8385V15.776C89.1716 15.61 89.1393 15.4456 89.0761 15.2921C89.0129 15.1387 88.92 14.9992 88.8027 14.8818C88.6853 14.7644 88.546 14.6714 88.3926 14.608C88.2392 14.5447 88.0748 14.5123 87.9088 14.5127Z" fill="#080F21"/>
<path fill-rule="evenodd" clip-rule="evenodd" d="M99.238 25.8414H96.1754C96.0065 25.8364 95.8383 25.8654 95.6807 25.9266C95.5232 25.9878 95.3795 26.08 95.2582 26.1978C95.137 26.3155 95.0406 26.4564 94.9748 26.6121C94.9089 26.7678 94.875 26.9351 94.875 27.1041C94.875 27.2731 94.9089 27.4404 94.9748 27.5961C95.0406 27.7518 95.137 27.8927 95.2582 28.0104C95.3795 28.1282 95.5232 28.2204 95.6807 28.2816C95.8383 28.3428 96.0065 28.3718 96.1754 28.3668H99.238C99.5664 28.3572 99.8782 28.2199 100.107 27.9841C100.336 27.7484 100.464 27.4327 100.464 27.1041C100.464 26.7755 100.336 26.4598 100.107 26.2241C99.8782 25.9883 99.5664 25.851 99.238 25.8414Z" fill="#080F21"/>
<path opacity="0.2" d="M29.9633 44.7412C29.3829 50.7592 26.9211 56.4414 22.9275 60.9807C18.9338 65.5199 13.6115 68.6854 7.71643 70.0276C7.04908 69.0028 6.69556 67.8053 6.69925 66.5823V51.0729C6.70243 49.3944 7.37069 47.7856 8.55767 46.5989C9.74464 45.4121 11.3536 44.7441 13.0321 44.7412H29.9633Z" fill="url(#paint2_linear_822_17517)"/>
<path d="M51.97 51.1654V63.6155C51.97 65.3196 52.2018 67.3135 51.5325 68.918C51.1072 69.9173 50.3788 70.7579 49.4502 71.3211C48.5216 71.8843 47.4396 72.1417 46.3568 72.0571H18.9879C15.4989 72.0571 10.8307 72.9014 8.74606 69.3227C7.70043 67.5235 7.95746 65.3229 7.95746 63.3224V55.3271C7.95746 53.821 7.90386 52.3029 7.95746 50.7968C7.95757 50.1103 8.09367 49.4307 8.35787 48.7972C8.62206 48.1636 9.00913 47.5887 9.49674 47.1056C9.98435 46.6224 10.5628 46.2407 11.1988 45.9823C11.8348 45.724 12.5156 45.5941 13.202 45.6004C16.702 45.5697 20.2118 45.6004 23.7162 45.6004H45.1854C46.6097 45.4509 48.0461 45.7333 49.3078 46.4108C50.1069 46.9256 50.7673 47.629 51.2306 48.4591C51.6938 49.2891 51.9459 50.2204 51.9645 51.1708C52.0006 52.4002 54.4014 52.0261 54.3707 50.9827C54.3376 49.1071 53.5758 47.3182 52.2465 45.9946C50.9173 44.6711 49.125 43.9169 47.2493 43.8919C46.2649 43.8624 45.2806 43.8919 44.2907 43.8919H14.5014C12.768 43.7776 11.0345 44.1145 9.47011 44.8697C8.24188 45.5418 7.22466 46.5422 6.53206 47.7589C5.83945 48.9757 5.49872 50.3611 5.54792 51.7603V66.1093C5.45425 67.6877 5.87809 69.2535 6.75513 70.5691C7.63216 71.8848 8.91449 72.8784 10.4075 73.3991C11.8307 73.7623 13.3034 73.8923 14.7682 73.7841H44.6528C45.937 73.8626 47.226 73.7892 48.4929 73.5653C50.1253 73.1881 51.5871 72.2815 52.6506 70.9869C53.7141 69.6924 54.3197 68.0824 54.3729 66.4079C54.4746 61.7452 54.3729 57.0694 54.3729 52.4079V50.9969C54.3762 49.75 51.97 50.1154 51.97 51.1654Z" fill="#080F21"/>
<path d="M35.7922 61.21C35.5002 61.5675 35.1323 61.8557 34.7152 62.0536C34.2981 62.2514 33.8422 62.3541 33.3805 62.3541C32.9188 62.3541 32.4629 62.2514 32.0458 62.0536C31.6287 61.8557 31.2608 61.5675 30.9688 61.21C30.4025 60.2926 30.1025 59.2359 30.1025 58.1578C30.1025 57.0798 30.4025 56.023 30.9688 55.1057C31.261 54.7485 31.629 54.4607 32.0461 54.2631C32.4632 54.0654 32.919 53.9629 33.3805 53.9629C33.842 53.9629 34.2978 54.0654 34.7149 54.2631C35.132 54.4607 35.5 54.7485 35.7922 55.1057C36.3593 56.0228 36.6596 57.0797 36.6596 58.1578C36.6596 59.236 36.3593 60.2929 35.7922 61.21ZM31.9367 58.1584C31.9367 59.7531 32.4136 60.557 33.3805 60.557C34.3474 60.557 34.8253 59.7531 34.8253 58.1584C34.8253 56.5637 34.3485 55.7587 33.3805 55.7587C32.4125 55.7587 31.9367 56.5626 31.9367 58.1584Z" fill="#080F21"/>
<path d="M21.2219 61.21C20.9299 61.5675 20.562 61.8557 20.1449 62.0536C19.7278 62.2514 19.2719 62.3541 18.8102 62.3541C18.3485 62.3541 17.8926 62.2514 17.4755 62.0536C17.0584 61.8557 16.6905 61.5675 16.3985 61.21C15.8322 60.2926 15.5322 59.2359 15.5322 58.1578C15.5322 57.0798 15.8322 56.023 16.3985 55.1057C16.6907 54.7485 17.0587 54.4607 17.4758 54.2631C17.8929 54.0654 18.3486 53.9629 18.8102 53.9629C19.2717 53.9629 19.7275 54.0654 20.1446 54.2631C20.5617 54.4607 20.9296 54.7485 21.2219 55.1057C21.7889 56.0228 22.0893 57.0797 22.0893 58.1578C22.0893 59.236 21.7889 60.2929 21.2219 61.21ZM17.3653 58.1584C17.3653 59.7531 17.8433 60.557 18.8102 60.557C19.7771 60.557 20.255 59.7531 20.255 58.1584C20.255 56.5637 19.7771 55.7587 18.8102 55.7587C17.8433 55.7587 17.3653 56.5626 17.3653 58.1584Z" fill="#080F21"/>
<path d="M40.831 54H41.17C41.4233 54 41.6661 54.1006 41.8452 54.2797C42.0243 54.4587 42.1249 54.7016 42.1249 54.9549V61.1597C42.1253 61.2803 42.1019 61.3999 42.0559 61.5114C42.0099 61.6229 41.9424 61.7243 41.8571 61.8096C41.7718 61.8949 41.6704 61.9624 41.5589 62.0084C41.4474 62.0544 41.3278 62.0778 41.2072 62.0774C41.0866 62.0778 40.9672 62.0543 40.8557 62.0084C40.7442 61.9624 40.643 61.8948 40.5578 61.8095C40.4725 61.7242 40.4051 61.6228 40.3592 61.5113C40.3134 61.3998 40.2901 61.2803 40.2907 61.1597V56.1984C40.2912 56.1694 40.2849 56.1407 40.272 56.1146C40.2592 56.0886 40.2403 56.066 40.217 56.0487C40.1936 56.0315 40.1665 56.0201 40.1378 56.0155C40.1091 56.0109 40.0798 56.0133 40.0522 56.0224L39.6749 56.123C39.5676 56.1529 39.4556 56.1613 39.3451 56.1478C39.2346 56.1342 39.1279 56.099 39.031 56.0442C38.9342 55.9893 38.8491 55.9158 38.7807 55.828C38.7124 55.7402 38.662 55.6397 38.6325 55.5324C38.5766 55.3242 38.5994 55.1027 38.6967 54.9103C38.794 54.718 38.9589 54.5683 39.1597 54.49L40.2152 54.1138C40.4114 54.0373 40.6204 53.9988 40.831 54Z" fill="#080F21"/>
<path d="M26.0077 54.126H26.3468C26.6 54.126 26.8429 54.2266 27.022 54.4057C27.201 54.5847 27.3016 54.8276 27.3016 55.0808V61.2857C27.3021 61.4063 27.2786 61.5258 27.2327 61.6374C27.1867 61.7489 27.1191 61.8502 27.0338 61.9355C26.9485 62.0208 26.8472 62.0884 26.7357 62.1344C26.6241 62.1803 26.5046 62.2038 26.384 62.2034C26.2634 62.2038 26.1439 62.1803 26.0325 62.1344C25.921 62.0884 25.8197 62.0208 25.7345 61.9355C25.6493 61.8501 25.5818 61.7488 25.536 61.6373C25.4901 61.5258 25.4668 61.4063 25.4674 61.2857V56.3244C25.4683 56.2953 25.462 56.2665 25.4493 56.2403C25.4365 56.2141 25.4177 56.1913 25.3942 56.174C25.3708 56.1567 25.3435 56.1454 25.3148 56.1409C25.286 56.1364 25.2566 56.139 25.229 56.1483L24.8516 56.249C24.7444 56.2789 24.6323 56.2873 24.5218 56.2737C24.4114 56.2602 24.3046 56.225 24.2078 56.1701C24.1109 56.1153 24.0259 56.0418 23.9575 55.954C23.8891 55.8661 23.8387 55.7657 23.8093 55.6583C23.7533 55.4502 23.7762 55.2287 23.8735 55.0363C23.9708 54.844 24.1356 54.6943 24.3365 54.616L25.3919 54.2386C25.5884 54.1632 25.7973 54.125 26.0077 54.126Z" fill="#080F21"/>
<path d="M73.8915 70.0121C73.8927 70.6055 73.7108 71.1848 73.3706 71.6709C73.0303 72.157 72.5484 72.5263 71.9904 72.7282C71.4325 72.9302 70.8258 72.955 70.2533 72.7994C69.6807 72.6437 69.1702 72.3151 68.7913 71.8584L66.4299 69.0147C66.356 68.9249 66.265 68.8508 66.1622 68.7967C66.0594 68.7425 65.9468 68.7093 65.831 68.6992C65.7153 68.689 65.5986 68.702 65.4879 68.7373C65.3773 68.7727 65.2747 68.8298 65.1863 68.9053L63.2526 70.5131C62.8695 70.8314 62.4043 71.0352 61.9105 71.1007C61.4167 71.1663 60.9144 71.0911 60.4615 70.8838C60.0086 70.6765 59.6234 70.3455 59.3504 69.9289C59.0773 69.5123 58.9274 69.0271 58.918 68.529L58.7933 61.7325L58.7299 58.4512C58.7229 58.0536 58.8056 57.6594 58.9719 57.2981C59.1381 56.9368 59.3836 56.6175 59.6901 56.3641C59.9966 56.1106 60.3562 55.9295 60.7423 55.8341C61.1285 55.7387 61.5311 55.7315 61.9204 55.8131L70.3871 57.5839L71.7816 57.8737C72.2698 57.9759 72.7192 58.2138 73.0781 58.5602C73.437 58.9065 73.6908 59.3472 73.8102 59.8315C73.9296 60.3157 73.9098 60.8238 73.7532 61.2974C73.5965 61.7709 73.3093 62.1905 72.9246 62.5079L70.9897 64.1157C70.9 64.1896 70.8259 64.2806 70.7717 64.3834C70.7176 64.4863 70.6844 64.5988 70.6743 64.7146C70.6641 64.8304 70.6771 64.947 70.7125 65.0577C70.7478 65.1684 70.8049 65.2709 70.8804 65.3593L73.2286 68.2031C73.6617 68.7057 73.8973 69.3487 73.8915 70.0121Z" fill="#3063BA"/>
<path d="M79.3623 25.4941H81.611C82.1611 25.4941 82.6887 25.7122 83.0782 26.1005C83.4677 26.4888 83.6874 27.0157 83.6892 27.5657V29.8145C83.6877 30.3647 83.4681 30.8918 83.0786 31.2804C82.689 31.6689 82.1613 31.8871 81.611 31.8871H79.3623C78.8121 31.8871 78.2843 31.6689 77.8948 31.2804C77.5052 30.8918 77.2856 30.3647 77.2842 29.8145V27.5657C77.2859 27.0157 77.5056 26.4888 77.8952 26.1005C78.2847 25.7122 78.8123 25.4941 79.3623 25.4941ZM81.611 30.5681C81.8073 30.5678 81.9955 30.4897 82.1343 30.3509C82.2731 30.2121 82.3512 30.0239 82.3515 29.8276V27.5788C82.3512 27.3824 82.2732 27.1942 82.1344 27.0552C81.9956 26.9162 81.8074 26.8378 81.611 26.8373H79.3623C79.1657 26.8376 78.9773 26.9158 78.8383 27.0548C78.6992 27.1938 78.621 27.3822 78.6207 27.5788V29.8276C78.6213 30.024 78.6997 30.2122 78.8386 30.3509C78.9776 30.4897 79.1659 30.5678 79.3623 30.5681H81.611Z" fill="white"/>
<path d="M68.2845 27.3775H72.5501C72.6766 27.3732 72.8026 27.3944 72.9206 27.4398C73.0387 27.4852 73.1465 27.5539 73.2374 27.6418C73.3284 27.7297 73.4008 27.8351 73.4502 27.9515C73.4996 28.068 73.525 28.1932 73.525 28.3197C73.525 28.4463 73.4996 28.5715 73.4502 28.6879C73.4008 28.8044 73.3284 28.9098 73.2374 28.9977C73.1465 29.0856 73.0387 29.1543 72.9206 29.1997C72.8026 29.2452 72.6766 29.2663 72.5501 29.262H68.2845C68.1581 29.2663 68.032 29.2452 67.914 29.1997C67.7959 29.1543 67.6881 29.0856 67.5972 28.9977C67.5062 28.9098 67.4338 28.8044 67.3844 28.6879C67.335 28.5715 67.3096 28.4463 67.3096 28.3197C67.3096 28.1932 67.335 28.068 67.3844 27.9515C67.4338 27.8351 67.5062 27.7297 67.5972 27.6418C67.6881 27.5539 67.7959 27.4852 67.914 27.4398C68.032 27.3944 68.1581 27.3732 68.2845 27.3775Z" fill="white"/>
<path d="M61.0062 80.8193H49.1357V85.9807H61.0062V80.8193Z" fill="#080F21"/>
<path d="M67.9779 91.4877H41.8132C41.45 91.4876 41.0965 91.371 40.8044 91.1553C40.5124 90.9395 40.2972 90.6358 40.1904 90.2887C40.0836 89.9416 40.0908 89.5694 40.211 89.2268C40.3312 88.8841 40.5581 88.589 40.8583 88.3847L44.1626 86.1491C45.1777 85.4603 46.3767 85.0929 47.6035 85.0947H61.924C63.0845 85.094 64.2217 85.4204 65.2052 86.0364L68.8857 88.3475C69.1964 88.5451 69.4348 88.8379 69.565 89.1823C69.6952 89.5267 69.7104 89.904 69.6081 90.2577C69.5059 90.6114 69.2917 90.9224 68.9978 91.1442C68.7039 91.3659 68.3461 91.4865 67.9779 91.4877Z" fill="#080F21"/>
<defs>
<linearGradient id="paint0_linear_822_17517" x1="59.5512" y1="51.3724" x2="73.0678" y2="51.3724" gradientUnits="userSpaceOnUse">
<stop offset="0.005" stop-color="#3063BA"/>
<stop offset="1" stop-color="#A3BFF6"/>
</linearGradient>
<linearGradient id="paint1_linear_822_17517" x1="77.457" y1="51.3724" x2="84.2208" y2="51.3724" gradientUnits="userSpaceOnUse">
<stop offset="0.005" stop-color="#3063BA"/>
<stop offset="1" stop-color="#A3BFF6"/>
</linearGradient>
<linearGradient id="paint2_linear_822_17517" x1="6.69925" y1="57.3839" x2="29.9633" y2="57.3839" gradientUnits="userSpaceOnUse">
<stop offset="0.005" stop-color="#3063BA"/>
<stop offset="1" stop-color="#A3BFF6"/>
</linearGradient>
</defs>
</svg>
