<svg width="106" height="106" viewBox="0 0 106 106" fill="none" xmlns="http://www.w3.org/2000/svg">
<path opacity="0.2" fill-rule="evenodd" clip-rule="evenodd" d="M69.131 15.633V75.4502C68.7154 75.4721 68.2888 75.483 67.8623 75.483H55.6123V15.6035H67.8623C68.2888 15.6035 68.7154 15.6112 69.131 15.633Z" fill="url(#paint0_linear_820_15203)"/>
<path opacity="0.2" fill-rule="evenodd" clip-rule="evenodd" d="M80.2779 16.8581V74.2285C78.7698 74.9166 77.1514 75.3314 75.4982 75.4535C75.1592 75.4754 74.8201 75.4863 74.4811 75.4863H73.5186V15.6035H74.4811C74.8201 15.6035 75.1592 15.6145 75.4982 15.6363C77.1512 15.7574 78.7696 16.1711 80.2779 16.8581Z" fill="url(#paint1_linear_820_15203)"/>
<path opacity="0.2" d="M40.047 75.4864H24.5923C22.7623 75.4872 20.9501 75.1276 19.2591 74.4281C17.5681 73.7285 16.0315 72.7028 14.7369 71.4093C13.4424 70.1159 12.4152 68.5801 11.7142 66.8897C11.0132 65.1994 10.6521 63.3874 10.6514 61.5574V55.1688C17.2337 54.0477 23.9935 55.5454 29.4863 59.3419C34.9792 63.1384 38.7693 68.9326 40.047 75.4864Z" fill="url(#paint2_linear_820_15203)"/>
<path d="M87.2138 29.8426V60.4413C87.2138 64.9104 86.0742 69.0962 82.5731 72.1587C80.5198 74.0016 77.8596 75.0237 75.1006 75.0298C74.429 75.0298 73.7563 75.0298 73.0848 75.0298H27.6067C24.3254 75.0298 21.2181 74.7903 18.3098 72.9681C13.7882 70.132 11.8326 65.3567 11.8326 60.2018V50.0693C11.8326 43.1295 11.7517 36.1787 11.8326 29.2432C11.9092 22.5987 16.8704 16.1532 23.8387 16.0537C25.5952 16.0285 27.3551 16.0537 29.1117 16.0537H54.4386C60.732 16.0537 67.0254 16.0351 73.3178 16.0537C73.4414 16.0537 73.565 16.0537 73.6875 16.0537C74.4965 16.0606 75.3034 16.1375 76.0992 16.2834C76.4371 16.3479 79.0829 16.9002 79.0829 17.1879L79.1485 17.2623C81.5411 18.3859 83.5674 20.1629 84.9936 22.3884C86.4199 24.6139 87.188 27.1972 87.2095 29.8404C87.2095 30.1565 89.596 29.8273 89.5873 29.2027C89.5765 26.8803 88.9917 24.5965 87.8849 22.5546C86.7782 20.5128 85.1837 18.7763 83.2436 17.4996C83.0675 17.3837 81.4618 16.5743 81.4618 16.5382L81.3962 16.4649C78.5131 15.1973 75.6267 15.1459 72.5762 15.1459H34.6395C27.7401 15.1459 20.0795 14.2184 14.4314 19.0834C11.6533 21.4718 9.89747 24.835 9.52588 28.4798C9.43072 29.4499 9.45915 30.4332 9.45915 31.4067V56.4601C9.45915 59.2918 9.17916 62.3937 9.85182 65.1663C10.6593 68.2719 12.4812 71.0187 15.0281 72.9706C17.5751 74.9224 20.7011 75.9675 23.9098 75.9398C25.9212 75.9529 27.9315 75.9398 29.9429 75.9398H56.8196C62.4448 75.9398 68.0743 76.0054 73.6995 75.9398C80.5485 75.8599 87.3035 71.7835 89.1104 64.9115C89.8257 62.1924 89.5917 59.2317 89.5917 56.4426V29.2082C89.5917 28.8998 87.2138 29.2115 87.2138 29.8426Z" fill="#080F21"/>
<path fill-rule="evenodd" clip-rule="evenodd" d="M31.5052 48.9167C31.3689 49.0527 31.2069 49.1604 31.0288 49.2334C30.8506 49.3064 30.6597 49.3434 30.4672 49.3422C30.2764 49.3446 30.0872 49.3081 29.911 49.2349C29.7348 49.1618 29.5753 49.0535 29.4423 48.9167L25.5661 45.0405C25.4305 44.9041 25.3231 44.7424 25.2501 44.5644C25.1771 44.3865 25.1399 44.1959 25.1406 44.0036C25.1399 43.8129 25.1772 43.624 25.2503 43.4479C25.3233 43.2718 25.4307 43.1119 25.5661 42.9777L29.4423 39.1014C29.7168 38.8315 30.0868 38.681 30.4717 38.6826C30.8566 38.6843 31.2253 38.838 31.4975 39.1102C31.7696 39.3825 31.9231 39.7513 31.9245 40.1362C31.926 40.5211 31.7752 40.891 31.5052 41.1653L28.6548 44.0036L31.5052 46.8539C31.6419 46.9887 31.7504 47.1492 31.8245 47.3263C31.8986 47.5034 31.9368 47.6934 31.9368 47.8853C31.9368 48.0773 31.8986 48.2673 31.8245 48.4444C31.7504 48.6215 31.6419 48.782 31.5052 48.9167Z" fill="#080F21"/>
<path fill-rule="evenodd" clip-rule="evenodd" d="M66.1649 55.6824C66.3012 55.5464 66.4631 55.4388 66.6413 55.3658C66.8195 55.2927 67.0103 55.2557 67.2029 55.2569C67.3936 55.2547 67.5828 55.2913 67.759 55.3644C67.9352 55.4376 68.0946 55.5458 68.2277 55.6824L72.104 59.5576C72.377 59.8339 72.5296 60.207 72.5283 60.5955C72.529 60.7859 72.4917 60.9746 72.4189 61.1505C72.346 61.3264 72.239 61.4861 72.104 61.6204L68.2277 65.4966C67.952 65.7592 67.5844 65.9037 67.2037 65.899C66.8229 65.8944 66.459 65.741 66.1898 65.4718C65.9205 65.2025 65.7671 64.8386 65.7625 64.4578C65.7579 64.0771 65.9023 63.7096 66.1649 63.4338L69.0152 60.5835L66.1649 57.7321C66.0283 57.5986 65.9198 57.4392 65.8457 57.2632C65.7716 57.0872 65.7334 56.8982 65.7334 56.7072C65.7334 56.5163 65.7716 56.3273 65.8457 56.1513C65.9198 55.9753 66.0283 55.8159 66.1649 55.6824Z" fill="#080F21"/>
<path fill-rule="evenodd" clip-rule="evenodd" d="M57.8001 49.3426H36.8329C36.4541 49.3477 36.0886 49.2038 35.8149 48.9419C35.5411 48.6801 35.3812 48.3212 35.3694 47.9426C35.3655 47.7534 35.3994 47.5653 35.4691 47.3894C35.5388 47.2135 35.6429 47.0532 35.7753 46.9181C35.9078 46.7829 36.0658 46.6755 36.2403 46.6022C36.4148 46.5289 36.6021 46.4912 36.7913 46.4912H57.7913C58.1684 46.4912 58.5301 46.641 58.7968 46.9077C59.0634 47.1743 59.2132 47.536 59.2132 47.9131C59.2153 48.29 59.0675 48.6523 58.8026 48.9204C58.5376 49.1884 58.177 49.3403 57.8001 49.3426Z" fill="#080F21"/>
<path d="M34.2819 88.7022H22.8916C22.6484 88.7028 22.4075 88.6553 22.1827 88.5625C21.958 88.4697 21.7537 88.3335 21.5818 88.1615C21.4098 87.9895 21.2735 87.7853 21.1807 87.5605C21.0879 87.3357 21.0404 87.0948 21.041 86.8516V83.6797C21.0403 83.4365 21.0877 83.1955 21.1804 82.9707C21.2732 82.7458 21.4094 82.5415 21.5814 82.3695C21.7534 82.1976 21.9577 82.0613 22.1826 81.9685C22.4074 81.8758 22.6484 81.8284 22.8916 81.8291H34.2819C34.5251 81.8285 34.7659 81.876 34.9907 81.9688C35.2154 82.0616 35.4196 82.198 35.5915 82.3699C35.7633 82.5419 35.8995 82.7462 35.9922 82.9709C36.0849 83.1957 36.1322 83.4366 36.1315 83.6797V86.8516C36.1322 87.0948 36.0849 87.3356 35.9922 87.5604C35.8995 87.7852 35.7633 87.9895 35.5915 88.1614C35.4196 88.3334 35.2154 88.4697 34.9907 88.5625C34.7659 88.6553 34.5251 88.7028 34.2819 88.7022Z" fill="#3063BA"/>
<path d="M53.7487 88.7022H42.3583C42.1152 88.7027 41.8744 88.6551 41.6498 88.5622C41.4251 88.4694 41.221 88.333 41.0492 88.1611C40.8773 87.9892 40.7411 87.785 40.6484 87.5602C40.5557 87.3355 40.5082 87.0947 40.5088 86.8516V83.6797C40.5081 83.4366 40.5554 83.1957 40.6481 82.9709C40.7408 82.7462 40.877 82.5419 41.0489 82.3699C41.2207 82.198 41.4249 82.0616 41.6496 81.9688C41.8743 81.876 42.1152 81.8285 42.3583 81.8291H53.7487C53.9919 81.8284 54.2329 81.8758 54.4577 81.9685C54.6826 82.0613 54.8869 82.1976 55.0589 82.3695C55.2309 82.5415 55.3671 82.7458 55.4599 82.9707C55.5526 83.1955 55.6 83.4365 55.5993 83.6797V86.8516C55.6 87.0949 55.5526 87.3358 55.4599 87.5607C55.3671 87.7855 55.2309 87.9898 55.0589 88.1618C54.8869 88.3338 54.6826 88.4701 54.4577 88.5628C54.2329 88.6556 53.9919 88.703 53.7487 88.7022Z" fill="#3063BA"/>
<path d="M78.6934 97.3165H57.876C57.6328 97.3172 57.3918 97.2698 57.167 97.1771C56.9421 97.0843 56.7378 96.948 56.5658 96.7761C56.3938 96.6041 56.2575 96.3998 56.1648 96.1749C56.072 95.9501 56.0247 95.7091 56.0254 95.4659V92.294C56.0247 92.0508 56.072 91.8098 56.1648 91.5849C56.2575 91.3601 56.3938 91.1558 56.5658 90.9838C56.7378 90.8118 56.9421 90.6755 57.167 90.5828C57.3918 90.49 57.6328 90.4426 57.876 90.4434H78.6934C78.9366 90.4426 79.1776 90.49 79.4024 90.5828C79.6273 90.6755 79.8316 90.8118 80.0036 90.9838C80.1756 91.1558 80.3118 91.3601 80.4046 91.5849C80.4973 91.8098 80.5447 92.0508 80.544 92.294V95.4659C80.5417 95.956 80.346 96.4254 79.9994 96.7719C79.6528 97.1185 79.1835 97.3142 78.6934 97.3165Z" fill="#3063BA"/>
<path fill-rule="evenodd" clip-rule="evenodd" d="M30.2692 84.6269L27.9832 86.9172C27.8468 87.0587 27.66 87.1407 27.4634 87.1454C27.2669 87.1501 27.0764 87.0772 26.9333 86.9423C26.8628 86.8746 26.8064 86.7936 26.7676 86.7039C26.7288 86.6142 26.7082 86.5176 26.7071 86.4199C26.706 86.3221 26.7243 86.2251 26.7611 86.1346C26.7979 86.044 26.8523 85.9616 26.9212 85.8923L29.2181 83.5955C29.3579 83.4573 29.5466 83.3799 29.7431 83.3799C29.9396 83.3799 30.1283 83.4573 30.2681 83.5955C30.4047 83.7323 30.4815 83.9176 30.4817 84.1109C30.4819 84.3043 30.4055 84.4898 30.2692 84.6269Z" fill="white"/>
<path fill-rule="evenodd" clip-rule="evenodd" d="M72.423 94.6099L64.1838 94.6351C63.9859 94.6379 63.7945 94.564 63.6499 94.4288C63.5054 94.2935 63.4188 94.1076 63.4083 93.9099C63.4048 93.7105 63.4806 93.5179 63.619 93.3743C63.7575 93.2308 63.9472 93.148 64.1466 93.1443L72.411 93.1191C72.6077 93.1191 72.7966 93.1963 72.9369 93.3342C73.0773 93.4721 73.1578 93.6596 73.1613 93.8563C73.1629 93.9544 73.145 94.0519 73.1086 94.143C73.0723 94.2342 73.0182 94.3172 72.9496 94.3873C72.8809 94.4574 72.799 94.5132 72.7086 94.5514C72.6182 94.5896 72.5211 94.6095 72.423 94.6099Z" fill="white"/>
<path fill-rule="evenodd" clip-rule="evenodd" d="M49.373 85.5257L48.0857 85.5137L48.0737 84.2384C48.0775 84.1391 48.0612 84.0401 48.0259 83.9472C47.9905 83.8544 47.9368 83.7696 47.8679 83.6981C47.799 83.6265 47.7164 83.5695 47.625 83.5306C47.5336 83.4917 47.4353 83.4717 47.3359 83.4717C47.2366 83.4717 47.1383 83.4917 47.0468 83.5306C46.9554 83.5695 46.8728 83.6265 46.8039 83.6981C46.7351 83.7696 46.6813 83.8544 46.646 83.9472C46.6106 84.0401 46.5944 84.1391 46.5982 84.2384L46.6102 86.2509C46.6105 86.4306 46.677 86.604 46.7971 86.7378C46.9171 86.8716 47.0823 86.9564 47.261 86.976C47.3016 86.9869 47.3437 86.9913 47.3857 86.9892L49.373 87.0012C49.4723 87.005 49.5713 86.9888 49.6642 86.9534C49.757 86.918 49.8418 86.8643 49.9134 86.7954C49.985 86.7266 50.0419 86.6439 50.0808 86.5525C50.1197 86.4611 50.1397 86.3628 50.1397 86.2634C50.1397 86.1641 50.1197 86.0658 50.0808 85.9744C50.0419 85.883 49.985 85.8003 49.9134 85.7315C49.8418 85.6626 49.757 85.6088 49.6642 85.5735C49.5713 85.5381 49.4723 85.5219 49.373 85.5257Z" fill="white"/>
<path d="M89.6809 29.5095V29.9284H9.41602V29.5095C9.41862 25.6958 10.935 22.039 13.6321 19.3426C16.3291 16.6462 19.9862 15.1306 23.7999 15.1289H75.3079C75.6579 15.1289 76.0079 15.1402 76.3579 15.1628C78.0645 15.2889 79.7352 15.7174 81.2918 16.4283V16.4392C83.7952 17.5854 85.9167 19.4265 87.4039 21.7436C88.8911 24.0607 89.6814 26.7562 89.6809 29.5095Z" fill="#3063BA"/>
<path d="M29.253 23.6332C30.0446 23.3256 30.3661 22.2519 29.9709 21.235C29.5758 20.2182 28.6137 19.6432 27.8221 19.9508C27.0304 20.2584 26.709 21.3321 27.1041 22.349C27.4992 23.3659 28.4613 23.9408 29.253 23.6332Z" fill="white"/>
<path d="M36.403 22.0246C36.5713 20.9467 36.0274 19.9667 35.1882 19.8357C34.3491 19.7048 33.5324 20.4724 33.3642 21.5503C33.196 22.6282 33.7398 23.6081 34.579 23.7391C35.4181 23.8701 36.2348 23.1024 36.403 22.0246Z" fill="white"/>
<path d="M42.2628 23.2071C42.8633 22.6065 42.7248 21.4943 41.9534 20.7229C41.182 19.9515 40.0698 19.813 39.4692 20.4136C38.8687 21.0141 39.0072 22.1263 39.7786 22.8977C40.55 23.6691 41.6622 23.8076 42.2628 23.2071Z" fill="white"/>
<path fill-rule="evenodd" clip-rule="evenodd" d="M89.8209 16.6845C90.1533 16.6857 90.4726 16.5551 90.709 16.3214L92.8713 14.159C92.9879 14.0422 93.0803 13.9035 93.1432 13.7509C93.2062 13.5984 93.2385 13.4349 93.2383 13.2699C93.2381 13.1048 93.2054 12.9415 93.1421 12.789C93.0787 12.6366 92.986 12.4982 92.8691 12.3817C92.7523 12.2651 92.6136 12.1727 92.4611 12.1097C92.3085 12.0468 92.145 12.0144 91.98 12.0146C91.8149 12.0149 91.6516 12.0476 91.4992 12.1109C91.3468 12.1743 91.2083 12.267 91.0918 12.3839L88.9283 14.5462C88.7524 14.7213 88.6324 14.9447 88.5838 15.1881C88.5352 15.4316 88.5601 15.6839 88.6553 15.9132C88.7505 16.1424 88.9117 16.3382 89.1185 16.4755C89.3253 16.6129 89.5683 16.6856 89.8165 16.6845H89.8209Z" fill="#080F21"/>
<path fill-rule="evenodd" clip-rule="evenodd" d="M83.9698 8.68262C83.8039 8.68219 83.6396 8.71454 83.4862 8.77782C83.3329 8.8411 83.1936 8.93405 83.0763 9.05134C82.959 9.16863 82.8661 9.30795 82.8028 9.46128C82.7395 9.61461 82.7071 9.77895 82.7076 9.94482V13.0073C82.7026 13.1763 82.7316 13.3445 82.7928 13.502C82.854 13.6596 82.9462 13.8033 83.064 13.9245C83.1817 14.0458 83.3226 14.1422 83.4783 14.208C83.634 14.2738 83.8013 14.3078 83.9703 14.3078C84.1393 14.3078 84.3066 14.2738 84.4623 14.208C84.618 14.1422 84.7589 14.0458 84.8766 13.9245C84.9944 13.8033 85.0866 13.6596 85.1478 13.502C85.209 13.3445 85.238 13.1763 85.233 13.0073V9.94482C85.2335 9.77885 85.2011 9.61443 85.1377 9.46103C85.0744 9.30763 84.9813 9.16826 84.8639 9.05096C84.7465 8.93365 84.6071 8.84072 84.4536 8.7775C84.3002 8.71429 84.1357 8.68205 83.9698 8.68262Z" fill="#080F21"/>
<path fill-rule="evenodd" clip-rule="evenodd" d="M95.2984 20.0113H92.2359C91.9074 20.021 91.5956 20.1582 91.3667 20.394C91.1378 20.6297 91.0098 20.9454 91.0098 21.274C91.0098 21.6026 91.1378 21.9183 91.3667 22.154C91.5956 22.3898 91.9074 22.5271 92.2359 22.5367H95.2984C95.4673 22.5417 95.6356 22.5127 95.7931 22.4515C95.9507 22.3903 96.0943 22.2981 96.2156 22.1803C96.3369 22.0626 96.4332 21.9217 96.4991 21.766C96.5649 21.6103 96.5988 21.443 96.5988 21.274C96.5988 21.105 96.5649 20.9377 96.4991 20.782C96.4332 20.6263 96.3369 20.4854 96.2156 20.3677C96.0943 20.2499 95.9507 20.1577 95.7931 20.0965C95.6356 20.0353 95.4673 20.0063 95.2984 20.0113Z" fill="#080F21"/>
<defs>
<linearGradient id="paint0_linear_820_15203" x1="55.6123" y1="45.5416" x2="69.131" y2="45.5416" gradientUnits="userSpaceOnUse">
<stop offset="0.005" stop-color="#3063BA"/>
<stop offset="1" stop-color="#A3BFF6"/>
</linearGradient>
<linearGradient id="paint1_linear_820_15203" x1="73.5186" y1="45.5416" x2="80.2779" y2="45.5416" gradientUnits="userSpaceOnUse">
<stop offset="0.005" stop-color="#3063BA"/>
<stop offset="1" stop-color="#A3BFF6"/>
</linearGradient>
<linearGradient id="paint2_linear_820_15203" x1="10.6514" y1="65.146" x2="40.047" y2="65.146" gradientUnits="userSpaceOnUse">
<stop offset="0.005" stop-color="#3063BA"/>
<stop offset="1" stop-color="#A3BFF6"/>
</linearGradient>
</defs>
</svg>
